M48
;DRILL file {KiCad 4.0.7-e2-6376~58~ubuntu16.04.1} date Sun Nov 19 08:32:39 2017
;FORMAT={-:-/ absolute / inch / decimal}
FMAT,2
INCH,TZ
T1C0.012
T2C0.024
T3C0.087
T4C0.571
T5C0.598
%
G90
G05
M72
T1
X3.1212Y-2.0433
X3.1723Y-2.5394
X3.2015Y-2.1606
X3.2054Y-1.7929
X3.2802Y-1.9055
X3.2889Y-2.574
X3.3042Y-2.5047
X3.3097Y-1.9086
X3.3491Y-1.7752
X3.3609Y-2.4264
X3.3751Y-1.7622
X3.4405Y-2.5256
X3.4727Y-3.3661
X3.4826Y-2.3201
X3.483Y-1.8799
X3.5464Y-2.1295
X3.555Y-2.413
X3.5881Y-2.1047
X3.683Y-3.1811
X3.7208Y-2.7516
X3.7279Y-2.9657
X3.8239Y-2.2921
X3.8247Y-1.2976
X3.87Y-3.1449
X3.8869Y-0.9437
X3.8952Y-1.2582
X3.9267Y-2.239
X3.933Y-2.7803
X3.9385Y-2.5193
X3.9511Y-0.9227
X3.9511Y-2.9142
X3.9735Y-0.9582
X4.0208Y-1.4508
X4.0534Y-2.6118
X4.0668Y-1.1705
X4.0771Y-1.261
X4.0971Y-1.502
X4.1149Y-2.6842
X4.1424Y-1.9382
X4.1491Y-1.1472
X4.179Y-1.9598
X4.1964Y-1.4744
X4.2109Y-1.0441
X4.2184Y-1.348
X4.2428Y-1.2012
X4.2822Y-1.5866
X4.2893Y-1.2882
X4.3145Y-1.5055
X4.3156Y-1.4118
X4.3212Y-1.3437
X4.3227Y-1.6464
X4.3416Y-1.5437
X4.3668Y-1.6874
X4.3865Y-1.4394
X4.4208Y-1.7984
X4.4211Y-1.2127
X4.4527Y-1.3012
X4.4554Y-1.4736
X4.5093Y-1.5224
X4.5411Y-1.5327
X4.5479Y-1.313
X4.5711Y-1.5927
X4.6464Y-1.3142
X4.6479Y-1.9291
X4.6487Y-3.2224
X4.6578Y-1.4811
X4.6609Y-2.739
X4.6912Y-2.872
X4.7003Y-1.3527
X4.703Y-1.1886
X4.7353Y-3.2791
X4.7411Y-1.1827
X4.7503Y-2.663
X4.7838Y-3.3429
X4.7912Y-2.8295
X4.8578Y-2.8728
X4.8802Y-2.3516
X4.8814Y-2.2614
X4.8897Y-2.9705
X4.9011Y-0.9527
X4.9046Y-2.3669
X4.909Y-1.4508
X4.9137Y-2.2531
X4.9601Y-3.0575
X4.9631Y-3.2827
X4.9967Y-2.9413
X4.9975Y-1.4149
X5.0011Y-1.0127
X5.0074Y-2.6023
X5.0251Y-2.3431
X5.0629Y-2.2332
X5.0629Y-2.3756
X5.0867Y-2.3189
X5.1062Y-2.2923
X5.1078Y-2.2541
X5.1084Y-3.597
X5.1151Y-3.1183
X5.1237Y-3.5311
X5.1365Y-2.3768
X5.1507Y-2.7004
X5.2038Y-2.4303
X5.2211Y-2.1227
X5.2601Y-3.5705
X5.3279Y-2.0149
X5.3694Y-2.2693
X5.3834Y-2.4838
X5.3861Y-2.4413
X5.3873Y-1.8838
X5.4005Y-2.2482
X5.4219Y-2.0649
X5.433Y-2.1388
X5.4416Y-2.5642
X5.454Y-2.1577
X5.4696Y-2.5268
X5.4775Y-2.0996
X5.478Y-2.1679
X5.4806Y-1.9106
X5.4865Y-2.0307
X5.503Y-2.1157
X5.5357Y-1.9846
X5.5385Y-2.6232
X5.5704Y-2.1856
X5.5863Y-1.8073
X5.6328Y-1.7752
X5.6806Y-2.5063
X5.7011Y-1.9527
T2
X3.9011Y-1.3127
X3.9011Y-1.3627
X3.9011Y-1.4127
T3
X4.8633Y-3.2797
X4.947Y-3.7586
X5.0866Y-3.2376
T4
X3.7908Y-1.778
T5
X5.0507Y-1.8174
T0
M30
