G04 #@! TF.FileFunction,Copper,L1,Top,Signal*
%FSLAX46Y46*%
G04 Gerber Fmt 4.6, Leading zero omitted, Abs format (unit mm)*
G04 Created by KiCad (PCBNEW 4.0.7-e2-6376~58~ubuntu16.04.1) date Sun Nov 19 08:32:38 2017*
%MOMM*%
%LPD*%
G01*
G04 APERTURE LIST*
%ADD10C,0.100000*%
%ADD11C,0.010000*%
%ADD12C,15.200000*%
%ADD13C,16.000000*%
%ADD14R,0.750000X0.800000*%
%ADD15R,0.800000X0.750000*%
%ADD16C,11.000000*%
%ADD17R,1.193800X1.397000*%
%ADD18R,1.600000X0.550000*%
%ADD19R,0.550000X1.600000*%
%ADD20R,1.300000X0.700000*%
%ADD21C,3.200000*%
%ADD22C,3.000000*%
%ADD23R,1.550000X1.300000*%
%ADD24R,1.300000X1.550000*%
%ADD25O,1.500000X0.900000*%
%ADD26R,1.500000X0.900000*%
%ADD27R,0.800000X0.800000*%
%ADD28R,0.700000X1.300000*%
%ADD29C,0.400000*%
%ADD30C,0.355600*%
G04 APERTURE END LIST*
D10*
D11*
G36*
X139330964Y-70142632D02*
X139956905Y-70492003D01*
X140584001Y-70845954D01*
X141189347Y-71191186D01*
X141750039Y-71514395D01*
X142243172Y-71802282D01*
X142645844Y-72041545D01*
X142935148Y-72218883D01*
X143088181Y-72320996D01*
X143101573Y-72332323D01*
X143144208Y-72408452D01*
X143142239Y-72534293D01*
X143087508Y-72738474D01*
X142971858Y-73049622D01*
X142787132Y-73496366D01*
X142734750Y-73619585D01*
X142359631Y-74479187D01*
X142021292Y-75205928D01*
X141696112Y-75845136D01*
X141360472Y-76442140D01*
X140990753Y-77042267D01*
X140791352Y-77349143D01*
X140536726Y-77744072D01*
X140328009Y-78084155D01*
X140183461Y-78338365D01*
X140121344Y-78475675D01*
X140120904Y-78488287D01*
X140202849Y-78579624D01*
X140395060Y-78756332D01*
X140661375Y-78985634D01*
X140762258Y-79069653D01*
X142086761Y-80255811D01*
X143336662Y-81557351D01*
X144470410Y-82928622D01*
X145198392Y-83943816D01*
X145947338Y-85152030D01*
X146550518Y-86336776D01*
X147033051Y-87553313D01*
X147405014Y-88798206D01*
X147501514Y-89186250D01*
X147571667Y-89518062D01*
X147619681Y-89837019D01*
X147649767Y-90186499D01*
X147666133Y-90609877D01*
X147672989Y-91150531D01*
X147674323Y-91573391D01*
X147676703Y-93313762D01*
X147219442Y-95105022D01*
X146762182Y-96896283D01*
X146137590Y-97236254D01*
X144921266Y-97832570D01*
X143558746Y-98382973D01*
X142088932Y-98875279D01*
X140550730Y-99297303D01*
X138983041Y-99636861D01*
X137892999Y-99818373D01*
X137226846Y-99892384D01*
X136429017Y-99944803D01*
X135546369Y-99975604D01*
X134625761Y-99984762D01*
X133714051Y-99972251D01*
X132858099Y-99938045D01*
X132104762Y-99882117D01*
X131608363Y-99821855D01*
X130485893Y-99622333D01*
X129331347Y-99364792D01*
X128178445Y-99059911D01*
X127060908Y-98718372D01*
X126012456Y-98350856D01*
X125066809Y-97968045D01*
X124257689Y-97580620D01*
X123901961Y-97380800D01*
X123670322Y-97243441D01*
X123329552Y-97043210D01*
X122933305Y-96811576D01*
X122678998Y-96663493D01*
X122220888Y-96390651D01*
X121733510Y-96089858D01*
X121295706Y-95810127D01*
X121250729Y-95780312D01*
X123578736Y-95780312D01*
X123726421Y-96368904D01*
X124041933Y-96903756D01*
X124140505Y-97018619D01*
X124554136Y-97342627D01*
X125073434Y-97563186D01*
X125639286Y-97667303D01*
X126192574Y-97641984D01*
X126531512Y-97544184D01*
X127112131Y-97213958D01*
X127544516Y-96769248D01*
X127742203Y-96429216D01*
X127933781Y-95848413D01*
X127946036Y-95290705D01*
X127778372Y-94722409D01*
X127709481Y-94577112D01*
X127359081Y-94070307D01*
X126911763Y-93701818D01*
X126398156Y-93471643D01*
X125848892Y-93379783D01*
X125294601Y-93426238D01*
X124765912Y-93611009D01*
X124293456Y-93934094D01*
X123907864Y-94395494D01*
X123805406Y-94577112D01*
X123603518Y-95171781D01*
X123578736Y-95780312D01*
X121250729Y-95780312D01*
X121135430Y-95703881D01*
X120775515Y-95465971D01*
X120427534Y-95243919D01*
X120156058Y-95078764D01*
X120113975Y-95054680D01*
X119811338Y-94859952D01*
X119397099Y-94556845D01*
X118897036Y-94165537D01*
X118336926Y-93706207D01*
X117742548Y-93199031D01*
X117735622Y-93193006D01*
X117051579Y-92597815D01*
X115760067Y-92764737D01*
X115045953Y-92836437D01*
X114187196Y-92889305D01*
X113226357Y-92923343D01*
X112205997Y-92938553D01*
X111168677Y-92934936D01*
X110156956Y-92912492D01*
X109213396Y-92871223D01*
X108380557Y-92811131D01*
X107939199Y-92764511D01*
X106583918Y-92597937D01*
X106198829Y-92970049D01*
X105978529Y-93170862D01*
X105672929Y-93433250D01*
X105311022Y-93734111D01*
X104921797Y-94050346D01*
X104534246Y-94358854D01*
X104177361Y-94636537D01*
X103880131Y-94860292D01*
X103671549Y-95007021D01*
X103583265Y-95054132D01*
X103475762Y-95103717D01*
X103249500Y-95237682D01*
X102940778Y-95433837D01*
X102682168Y-95604917D01*
X101109069Y-96605305D01*
X99591405Y-97450836D01*
X98100451Y-98154929D01*
X96607484Y-98731004D01*
X95083776Y-99192478D01*
X94901147Y-99239862D01*
X92872371Y-99676922D01*
X90890126Y-99939211D01*
X88935570Y-100028384D01*
X86989863Y-99946098D01*
X86926609Y-99940570D01*
X85410491Y-99754533D01*
X83865546Y-99468278D01*
X82329277Y-99092858D01*
X80839190Y-98639324D01*
X79432792Y-98118729D01*
X78147586Y-97542124D01*
X77356332Y-97120418D01*
X77164626Y-97004763D01*
X77031406Y-96893143D01*
X76933251Y-96744122D01*
X76846740Y-96516266D01*
X76748454Y-96168139D01*
X76688178Y-95938331D01*
X76573863Y-95520589D01*
X76463669Y-95153504D01*
X76373146Y-94887214D01*
X76333068Y-94793491D01*
X76277211Y-94620873D01*
X76208611Y-94307299D01*
X76136308Y-93898695D01*
X76074543Y-93480218D01*
X75997313Y-92667471D01*
X75967817Y-91786640D01*
X75968737Y-91738021D01*
X76887825Y-91738021D01*
X76889410Y-92197871D01*
X76899611Y-92501560D01*
X76923706Y-92681047D01*
X76966969Y-92768288D01*
X77034677Y-92795242D01*
X77062540Y-92796354D01*
X77223733Y-92823224D01*
X77516722Y-92895646D01*
X77894262Y-93001338D01*
X78167910Y-93083696D01*
X80213613Y-93657185D01*
X82316500Y-94134075D01*
X84416135Y-94502414D01*
X86452075Y-94750250D01*
X86710909Y-94773162D01*
X87268429Y-94804427D01*
X87960727Y-94819090D01*
X88735263Y-94818203D01*
X89539499Y-94802819D01*
X90320893Y-94773989D01*
X91026906Y-94732767D01*
X91604999Y-94680203D01*
X91655592Y-94674137D01*
X93431808Y-94383692D01*
X95145210Y-93961998D01*
X96772062Y-93417141D01*
X98288627Y-92757207D01*
X99671171Y-91990282D01*
X99829928Y-91889522D01*
X100233619Y-91619950D01*
X100495217Y-91418987D01*
X100638144Y-91265767D01*
X100685819Y-91139421D01*
X100686254Y-91126540D01*
X100684809Y-91120724D01*
X123104016Y-91120724D01*
X123267375Y-91330898D01*
X123604080Y-91601359D01*
X123711806Y-91676326D01*
X125103488Y-92516096D01*
X126631336Y-93234863D01*
X128284516Y-93829061D01*
X130052195Y-94295123D01*
X131923539Y-94629482D01*
X133095221Y-94765737D01*
X133657779Y-94801132D01*
X134359524Y-94818331D01*
X135152459Y-94818183D01*
X135988590Y-94801537D01*
X136819921Y-94769243D01*
X137598456Y-94722149D01*
X138128184Y-94676694D01*
X139727457Y-94470666D01*
X141438677Y-94164672D01*
X143220037Y-93767185D01*
X145029728Y-93286680D01*
X145131310Y-93257416D01*
X145611534Y-93124712D01*
X146037372Y-93018615D01*
X146371593Y-92947545D01*
X146576966Y-92919917D01*
X146612977Y-92922426D01*
X146681824Y-92927567D01*
X146729134Y-92881768D01*
X146758905Y-92756703D01*
X146775137Y-92524047D01*
X146781827Y-92155475D01*
X146782999Y-91718018D01*
X146712440Y-90326980D01*
X146497055Y-88985243D01*
X146131281Y-87681516D01*
X145609556Y-86404508D01*
X144926317Y-85142930D01*
X144076001Y-83885491D01*
X143053047Y-82620901D01*
X141851890Y-81337870D01*
X141495485Y-80986030D01*
X140876344Y-80391240D01*
X140371315Y-79925555D01*
X139965721Y-79580920D01*
X139644879Y-79349284D01*
X139394110Y-79222595D01*
X139198734Y-79192799D01*
X139044070Y-79251844D01*
X138915439Y-79391678D01*
X138836124Y-79527299D01*
X138682613Y-79776714D01*
X138480403Y-80050900D01*
X138442946Y-80096427D01*
X138237133Y-80364880D01*
X138061945Y-80631786D01*
X138039715Y-80671137D01*
X137890057Y-80885801D01*
X137625055Y-81203797D01*
X137267872Y-81601113D01*
X136841667Y-82053736D01*
X136369601Y-82537656D01*
X135874835Y-83028859D01*
X135380531Y-83503335D01*
X134909848Y-83937070D01*
X134766402Y-84064748D01*
X132988496Y-85541670D01*
X131181311Y-86859132D01*
X129303057Y-88045406D01*
X127311945Y-89128765D01*
X127191733Y-89189230D01*
X126626337Y-89463691D01*
X125995990Y-89755149D01*
X125340337Y-90046605D01*
X124699022Y-90321056D01*
X124111688Y-90561503D01*
X123617980Y-90750944D01*
X123287999Y-90863312D01*
X123111670Y-90966356D01*
X123104016Y-91120724D01*
X100684809Y-91120724D01*
X100645221Y-90961449D01*
X100576630Y-90914873D01*
X100404911Y-90876140D01*
X100091574Y-90767953D01*
X99664596Y-90602332D01*
X99151954Y-90391295D01*
X98581623Y-90146861D01*
X97981582Y-89881049D01*
X97379805Y-89605877D01*
X96804270Y-89333364D01*
X96282952Y-89075529D01*
X96218184Y-89042466D01*
X94310513Y-87989142D01*
X92474540Y-86825959D01*
X90729635Y-85568722D01*
X89095168Y-84233237D01*
X87590507Y-82835311D01*
X86235023Y-81390749D01*
X85070406Y-79945552D01*
X84846490Y-79657661D01*
X84628169Y-79399910D01*
X84520376Y-79285559D01*
X84299604Y-79070125D01*
X83438524Y-79806904D01*
X82771313Y-80405177D01*
X82068403Y-81083726D01*
X81368633Y-81801785D01*
X80710839Y-82518587D01*
X80133859Y-83193365D01*
X79769195Y-83658517D01*
X78865064Y-84981771D01*
X78139255Y-86288591D01*
X77585200Y-87597399D01*
X77196330Y-88926612D01*
X76966075Y-90294652D01*
X76887868Y-91719938D01*
X76887825Y-91738021D01*
X75968737Y-91738021D01*
X75984642Y-90898006D01*
X76046376Y-90061850D01*
X76151610Y-89338454D01*
X76174051Y-89229524D01*
X76587697Y-87749253D01*
X77181938Y-86272554D01*
X77949377Y-84810652D01*
X78882614Y-83374771D01*
X79974254Y-81976136D01*
X81216898Y-80625972D01*
X82603149Y-79335504D01*
X82812629Y-79156550D01*
X83116925Y-78894181D01*
X83362359Y-78672801D01*
X83515923Y-78522712D01*
X83550347Y-78479212D01*
X83513935Y-78374106D01*
X83391382Y-78144981D01*
X83201199Y-77824173D01*
X82961897Y-77444020D01*
X82926444Y-77389312D01*
X82123455Y-76041340D01*
X81374984Y-74557596D01*
X80946370Y-73583350D01*
X80574549Y-72689956D01*
X80917478Y-72522904D01*
X81505147Y-72241925D01*
X82074272Y-71979500D01*
X82599553Y-71746358D01*
X83055686Y-71553224D01*
X83417371Y-71410828D01*
X83659304Y-71329895D01*
X83755226Y-71319767D01*
X83803002Y-71438256D01*
X83878366Y-71697743D01*
X83969459Y-72055260D01*
X84032701Y-72325214D01*
X84336582Y-73496181D01*
X84699103Y-74602726D01*
X85101288Y-75587916D01*
X85167485Y-75729296D01*
X85566315Y-76471712D01*
X86024595Y-77137306D01*
X86561743Y-77742208D01*
X87197180Y-78302545D01*
X87950326Y-78834445D01*
X88840601Y-79354035D01*
X89887425Y-79877444D01*
X90496459Y-80154871D01*
X91566248Y-80638327D01*
X92480143Y-81072063D01*
X93260210Y-81467442D01*
X93928512Y-81835825D01*
X94507114Y-82188573D01*
X94724545Y-82332000D01*
X95268926Y-82689249D01*
X95792295Y-83007359D01*
X96319031Y-83296694D01*
X96873512Y-83567614D01*
X97480116Y-83830483D01*
X98163221Y-84095662D01*
X98947206Y-84373514D01*
X99856449Y-84674400D01*
X100915328Y-85008684D01*
X101305205Y-85129155D01*
X102517183Y-85498074D01*
X103589183Y-85812948D01*
X104550631Y-86078390D01*
X105430955Y-86299010D01*
X106259584Y-86479419D01*
X107065945Y-86624229D01*
X107879466Y-86738051D01*
X108729575Y-86825496D01*
X109645700Y-86891175D01*
X110657269Y-86939700D01*
X111793709Y-86975682D01*
X113084448Y-87003732D01*
X113292629Y-87007530D01*
X114671214Y-87022535D01*
X115885452Y-87013450D01*
X116957870Y-86978027D01*
X117910996Y-86914018D01*
X118767359Y-86819173D01*
X119549487Y-86691245D01*
X120279908Y-86527985D01*
X120981150Y-86327144D01*
X121353686Y-86202947D01*
X122204780Y-85873765D01*
X123126380Y-85461944D01*
X124042917Y-85003424D01*
X124878821Y-84534144D01*
X124938558Y-84498057D01*
X125532509Y-84173066D01*
X126121250Y-83916134D01*
X126659292Y-83744404D01*
X127101146Y-83675016D01*
X127124104Y-83674474D01*
X127467735Y-83760915D01*
X127772578Y-84022721D01*
X127965298Y-84324031D01*
X128238016Y-84657877D01*
X128647890Y-84881118D01*
X129172569Y-84982932D01*
X129337184Y-84988206D01*
X129884809Y-84914787D01*
X130377011Y-84684471D01*
X130845332Y-84282171D01*
X130871341Y-84254413D01*
X131281536Y-83812280D01*
X131286609Y-82729599D01*
X131281719Y-82189515D01*
X131253620Y-81793831D01*
X131190980Y-81499174D01*
X131082467Y-81262170D01*
X130916749Y-81039448D01*
X130815686Y-80927161D01*
X130581733Y-80676116D01*
X130991810Y-80422901D01*
X131191789Y-80299016D01*
X131363272Y-80190913D01*
X131538478Y-80077184D01*
X131749627Y-79936423D01*
X132028936Y-79747223D01*
X132408624Y-79488177D01*
X132752929Y-79252768D01*
X133847914Y-78464956D01*
X134780761Y-77705541D01*
X135571053Y-76954172D01*
X136238377Y-76190496D01*
X136802316Y-75394162D01*
X137281247Y-74547216D01*
X137462913Y-74175456D01*
X137624156Y-73814910D01*
X137773818Y-73438517D01*
X137920744Y-73019216D01*
X138073775Y-72529947D01*
X138241753Y-71943648D01*
X138433523Y-71233260D01*
X138657927Y-70371721D01*
X138703076Y-70196136D01*
X138793374Y-69844437D01*
X139330964Y-70142632D01*
X139330964Y-70142632D01*
G37*
X139330964Y-70142632D02*
X139956905Y-70492003D01*
X140584001Y-70845954D01*
X141189347Y-71191186D01*
X141750039Y-71514395D01*
X142243172Y-71802282D01*
X142645844Y-72041545D01*
X142935148Y-72218883D01*
X143088181Y-72320996D01*
X143101573Y-72332323D01*
X143144208Y-72408452D01*
X143142239Y-72534293D01*
X143087508Y-72738474D01*
X142971858Y-73049622D01*
X142787132Y-73496366D01*
X142734750Y-73619585D01*
X142359631Y-74479187D01*
X142021292Y-75205928D01*
X141696112Y-75845136D01*
X141360472Y-76442140D01*
X140990753Y-77042267D01*
X140791352Y-77349143D01*
X140536726Y-77744072D01*
X140328009Y-78084155D01*
X140183461Y-78338365D01*
X140121344Y-78475675D01*
X140120904Y-78488287D01*
X140202849Y-78579624D01*
X140395060Y-78756332D01*
X140661375Y-78985634D01*
X140762258Y-79069653D01*
X142086761Y-80255811D01*
X143336662Y-81557351D01*
X144470410Y-82928622D01*
X145198392Y-83943816D01*
X145947338Y-85152030D01*
X146550518Y-86336776D01*
X147033051Y-87553313D01*
X147405014Y-88798206D01*
X147501514Y-89186250D01*
X147571667Y-89518062D01*
X147619681Y-89837019D01*
X147649767Y-90186499D01*
X147666133Y-90609877D01*
X147672989Y-91150531D01*
X147674323Y-91573391D01*
X147676703Y-93313762D01*
X147219442Y-95105022D01*
X146762182Y-96896283D01*
X146137590Y-97236254D01*
X144921266Y-97832570D01*
X143558746Y-98382973D01*
X142088932Y-98875279D01*
X140550730Y-99297303D01*
X138983041Y-99636861D01*
X137892999Y-99818373D01*
X137226846Y-99892384D01*
X136429017Y-99944803D01*
X135546369Y-99975604D01*
X134625761Y-99984762D01*
X133714051Y-99972251D01*
X132858099Y-99938045D01*
X132104762Y-99882117D01*
X131608363Y-99821855D01*
X130485893Y-99622333D01*
X129331347Y-99364792D01*
X128178445Y-99059911D01*
X127060908Y-98718372D01*
X126012456Y-98350856D01*
X125066809Y-97968045D01*
X124257689Y-97580620D01*
X123901961Y-97380800D01*
X123670322Y-97243441D01*
X123329552Y-97043210D01*
X122933305Y-96811576D01*
X122678998Y-96663493D01*
X122220888Y-96390651D01*
X121733510Y-96089858D01*
X121295706Y-95810127D01*
X121250729Y-95780312D01*
X123578736Y-95780312D01*
X123726421Y-96368904D01*
X124041933Y-96903756D01*
X124140505Y-97018619D01*
X124554136Y-97342627D01*
X125073434Y-97563186D01*
X125639286Y-97667303D01*
X126192574Y-97641984D01*
X126531512Y-97544184D01*
X127112131Y-97213958D01*
X127544516Y-96769248D01*
X127742203Y-96429216D01*
X127933781Y-95848413D01*
X127946036Y-95290705D01*
X127778372Y-94722409D01*
X127709481Y-94577112D01*
X127359081Y-94070307D01*
X126911763Y-93701818D01*
X126398156Y-93471643D01*
X125848892Y-93379783D01*
X125294601Y-93426238D01*
X124765912Y-93611009D01*
X124293456Y-93934094D01*
X123907864Y-94395494D01*
X123805406Y-94577112D01*
X123603518Y-95171781D01*
X123578736Y-95780312D01*
X121250729Y-95780312D01*
X121135430Y-95703881D01*
X120775515Y-95465971D01*
X120427534Y-95243919D01*
X120156058Y-95078764D01*
X120113975Y-95054680D01*
X119811338Y-94859952D01*
X119397099Y-94556845D01*
X118897036Y-94165537D01*
X118336926Y-93706207D01*
X117742548Y-93199031D01*
X117735622Y-93193006D01*
X117051579Y-92597815D01*
X115760067Y-92764737D01*
X115045953Y-92836437D01*
X114187196Y-92889305D01*
X113226357Y-92923343D01*
X112205997Y-92938553D01*
X111168677Y-92934936D01*
X110156956Y-92912492D01*
X109213396Y-92871223D01*
X108380557Y-92811131D01*
X107939199Y-92764511D01*
X106583918Y-92597937D01*
X106198829Y-92970049D01*
X105978529Y-93170862D01*
X105672929Y-93433250D01*
X105311022Y-93734111D01*
X104921797Y-94050346D01*
X104534246Y-94358854D01*
X104177361Y-94636537D01*
X103880131Y-94860292D01*
X103671549Y-95007021D01*
X103583265Y-95054132D01*
X103475762Y-95103717D01*
X103249500Y-95237682D01*
X102940778Y-95433837D01*
X102682168Y-95604917D01*
X101109069Y-96605305D01*
X99591405Y-97450836D01*
X98100451Y-98154929D01*
X96607484Y-98731004D01*
X95083776Y-99192478D01*
X94901147Y-99239862D01*
X92872371Y-99676922D01*
X90890126Y-99939211D01*
X88935570Y-100028384D01*
X86989863Y-99946098D01*
X86926609Y-99940570D01*
X85410491Y-99754533D01*
X83865546Y-99468278D01*
X82329277Y-99092858D01*
X80839190Y-98639324D01*
X79432792Y-98118729D01*
X78147586Y-97542124D01*
X77356332Y-97120418D01*
X77164626Y-97004763D01*
X77031406Y-96893143D01*
X76933251Y-96744122D01*
X76846740Y-96516266D01*
X76748454Y-96168139D01*
X76688178Y-95938331D01*
X76573863Y-95520589D01*
X76463669Y-95153504D01*
X76373146Y-94887214D01*
X76333068Y-94793491D01*
X76277211Y-94620873D01*
X76208611Y-94307299D01*
X76136308Y-93898695D01*
X76074543Y-93480218D01*
X75997313Y-92667471D01*
X75967817Y-91786640D01*
X75968737Y-91738021D01*
X76887825Y-91738021D01*
X76889410Y-92197871D01*
X76899611Y-92501560D01*
X76923706Y-92681047D01*
X76966969Y-92768288D01*
X77034677Y-92795242D01*
X77062540Y-92796354D01*
X77223733Y-92823224D01*
X77516722Y-92895646D01*
X77894262Y-93001338D01*
X78167910Y-93083696D01*
X80213613Y-93657185D01*
X82316500Y-94134075D01*
X84416135Y-94502414D01*
X86452075Y-94750250D01*
X86710909Y-94773162D01*
X87268429Y-94804427D01*
X87960727Y-94819090D01*
X88735263Y-94818203D01*
X89539499Y-94802819D01*
X90320893Y-94773989D01*
X91026906Y-94732767D01*
X91604999Y-94680203D01*
X91655592Y-94674137D01*
X93431808Y-94383692D01*
X95145210Y-93961998D01*
X96772062Y-93417141D01*
X98288627Y-92757207D01*
X99671171Y-91990282D01*
X99829928Y-91889522D01*
X100233619Y-91619950D01*
X100495217Y-91418987D01*
X100638144Y-91265767D01*
X100685819Y-91139421D01*
X100686254Y-91126540D01*
X100684809Y-91120724D01*
X123104016Y-91120724D01*
X123267375Y-91330898D01*
X123604080Y-91601359D01*
X123711806Y-91676326D01*
X125103488Y-92516096D01*
X126631336Y-93234863D01*
X128284516Y-93829061D01*
X130052195Y-94295123D01*
X131923539Y-94629482D01*
X133095221Y-94765737D01*
X133657779Y-94801132D01*
X134359524Y-94818331D01*
X135152459Y-94818183D01*
X135988590Y-94801537D01*
X136819921Y-94769243D01*
X137598456Y-94722149D01*
X138128184Y-94676694D01*
X139727457Y-94470666D01*
X141438677Y-94164672D01*
X143220037Y-93767185D01*
X145029728Y-93286680D01*
X145131310Y-93257416D01*
X145611534Y-93124712D01*
X146037372Y-93018615D01*
X146371593Y-92947545D01*
X146576966Y-92919917D01*
X146612977Y-92922426D01*
X146681824Y-92927567D01*
X146729134Y-92881768D01*
X146758905Y-92756703D01*
X146775137Y-92524047D01*
X146781827Y-92155475D01*
X146782999Y-91718018D01*
X146712440Y-90326980D01*
X146497055Y-88985243D01*
X146131281Y-87681516D01*
X145609556Y-86404508D01*
X144926317Y-85142930D01*
X144076001Y-83885491D01*
X143053047Y-82620901D01*
X141851890Y-81337870D01*
X141495485Y-80986030D01*
X140876344Y-80391240D01*
X140371315Y-79925555D01*
X139965721Y-79580920D01*
X139644879Y-79349284D01*
X139394110Y-79222595D01*
X139198734Y-79192799D01*
X139044070Y-79251844D01*
X138915439Y-79391678D01*
X138836124Y-79527299D01*
X138682613Y-79776714D01*
X138480403Y-80050900D01*
X138442946Y-80096427D01*
X138237133Y-80364880D01*
X138061945Y-80631786D01*
X138039715Y-80671137D01*
X137890057Y-80885801D01*
X137625055Y-81203797D01*
X137267872Y-81601113D01*
X136841667Y-82053736D01*
X136369601Y-82537656D01*
X135874835Y-83028859D01*
X135380531Y-83503335D01*
X134909848Y-83937070D01*
X134766402Y-84064748D01*
X132988496Y-85541670D01*
X131181311Y-86859132D01*
X129303057Y-88045406D01*
X127311945Y-89128765D01*
X127191733Y-89189230D01*
X126626337Y-89463691D01*
X125995990Y-89755149D01*
X125340337Y-90046605D01*
X124699022Y-90321056D01*
X124111688Y-90561503D01*
X123617980Y-90750944D01*
X123287999Y-90863312D01*
X123111670Y-90966356D01*
X123104016Y-91120724D01*
X100684809Y-91120724D01*
X100645221Y-90961449D01*
X100576630Y-90914873D01*
X100404911Y-90876140D01*
X100091574Y-90767953D01*
X99664596Y-90602332D01*
X99151954Y-90391295D01*
X98581623Y-90146861D01*
X97981582Y-89881049D01*
X97379805Y-89605877D01*
X96804270Y-89333364D01*
X96282952Y-89075529D01*
X96218184Y-89042466D01*
X94310513Y-87989142D01*
X92474540Y-86825959D01*
X90729635Y-85568722D01*
X89095168Y-84233237D01*
X87590507Y-82835311D01*
X86235023Y-81390749D01*
X85070406Y-79945552D01*
X84846490Y-79657661D01*
X84628169Y-79399910D01*
X84520376Y-79285559D01*
X84299604Y-79070125D01*
X83438524Y-79806904D01*
X82771313Y-80405177D01*
X82068403Y-81083726D01*
X81368633Y-81801785D01*
X80710839Y-82518587D01*
X80133859Y-83193365D01*
X79769195Y-83658517D01*
X78865064Y-84981771D01*
X78139255Y-86288591D01*
X77585200Y-87597399D01*
X77196330Y-88926612D01*
X76966075Y-90294652D01*
X76887868Y-91719938D01*
X76887825Y-91738021D01*
X75968737Y-91738021D01*
X75984642Y-90898006D01*
X76046376Y-90061850D01*
X76151610Y-89338454D01*
X76174051Y-89229524D01*
X76587697Y-87749253D01*
X77181938Y-86272554D01*
X77949377Y-84810652D01*
X78882614Y-83374771D01*
X79974254Y-81976136D01*
X81216898Y-80625972D01*
X82603149Y-79335504D01*
X82812629Y-79156550D01*
X83116925Y-78894181D01*
X83362359Y-78672801D01*
X83515923Y-78522712D01*
X83550347Y-78479212D01*
X83513935Y-78374106D01*
X83391382Y-78144981D01*
X83201199Y-77824173D01*
X82961897Y-77444020D01*
X82926444Y-77389312D01*
X82123455Y-76041340D01*
X81374984Y-74557596D01*
X80946370Y-73583350D01*
X80574549Y-72689956D01*
X80917478Y-72522904D01*
X81505147Y-72241925D01*
X82074272Y-71979500D01*
X82599553Y-71746358D01*
X83055686Y-71553224D01*
X83417371Y-71410828D01*
X83659304Y-71329895D01*
X83755226Y-71319767D01*
X83803002Y-71438256D01*
X83878366Y-71697743D01*
X83969459Y-72055260D01*
X84032701Y-72325214D01*
X84336582Y-73496181D01*
X84699103Y-74602726D01*
X85101288Y-75587916D01*
X85167485Y-75729296D01*
X85566315Y-76471712D01*
X86024595Y-77137306D01*
X86561743Y-77742208D01*
X87197180Y-78302545D01*
X87950326Y-78834445D01*
X88840601Y-79354035D01*
X89887425Y-79877444D01*
X90496459Y-80154871D01*
X91566248Y-80638327D01*
X92480143Y-81072063D01*
X93260210Y-81467442D01*
X93928512Y-81835825D01*
X94507114Y-82188573D01*
X94724545Y-82332000D01*
X95268926Y-82689249D01*
X95792295Y-83007359D01*
X96319031Y-83296694D01*
X96873512Y-83567614D01*
X97480116Y-83830483D01*
X98163221Y-84095662D01*
X98947206Y-84373514D01*
X99856449Y-84674400D01*
X100915328Y-85008684D01*
X101305205Y-85129155D01*
X102517183Y-85498074D01*
X103589183Y-85812948D01*
X104550631Y-86078390D01*
X105430955Y-86299010D01*
X106259584Y-86479419D01*
X107065945Y-86624229D01*
X107879466Y-86738051D01*
X108729575Y-86825496D01*
X109645700Y-86891175D01*
X110657269Y-86939700D01*
X111793709Y-86975682D01*
X113084448Y-87003732D01*
X113292629Y-87007530D01*
X114671214Y-87022535D01*
X115885452Y-87013450D01*
X116957870Y-86978027D01*
X117910996Y-86914018D01*
X118767359Y-86819173D01*
X119549487Y-86691245D01*
X120279908Y-86527985D01*
X120981150Y-86327144D01*
X121353686Y-86202947D01*
X122204780Y-85873765D01*
X123126380Y-85461944D01*
X124042917Y-85003424D01*
X124878821Y-84534144D01*
X124938558Y-84498057D01*
X125532509Y-84173066D01*
X126121250Y-83916134D01*
X126659292Y-83744404D01*
X127101146Y-83675016D01*
X127124104Y-83674474D01*
X127467735Y-83760915D01*
X127772578Y-84022721D01*
X127965298Y-84324031D01*
X128238016Y-84657877D01*
X128647890Y-84881118D01*
X129172569Y-84982932D01*
X129337184Y-84988206D01*
X129884809Y-84914787D01*
X130377011Y-84684471D01*
X130845332Y-84282171D01*
X130871341Y-84254413D01*
X131281536Y-83812280D01*
X131286609Y-82729599D01*
X131281719Y-82189515D01*
X131253620Y-81793831D01*
X131190980Y-81499174D01*
X131082467Y-81262170D01*
X130916749Y-81039448D01*
X130815686Y-80927161D01*
X130581733Y-80676116D01*
X130991810Y-80422901D01*
X131191789Y-80299016D01*
X131363272Y-80190913D01*
X131538478Y-80077184D01*
X131749627Y-79936423D01*
X132028936Y-79747223D01*
X132408624Y-79488177D01*
X132752929Y-79252768D01*
X133847914Y-78464956D01*
X134780761Y-77705541D01*
X135571053Y-76954172D01*
X136238377Y-76190496D01*
X136802316Y-75394162D01*
X137281247Y-74547216D01*
X137462913Y-74175456D01*
X137624156Y-73814910D01*
X137773818Y-73438517D01*
X137920744Y-73019216D01*
X138073775Y-72529947D01*
X138241753Y-71943648D01*
X138433523Y-71233260D01*
X138657927Y-70371721D01*
X138703076Y-70196136D01*
X138793374Y-69844437D01*
X139330964Y-70142632D01*
G36*
X80128503Y-58956162D02*
X80216121Y-59570424D01*
X80328753Y-60177961D01*
X80473904Y-60803942D01*
X80659075Y-61473539D01*
X80891771Y-62211920D01*
X81179494Y-63044256D01*
X81529748Y-63995715D01*
X81950035Y-65091469D01*
X81981691Y-65172736D01*
X82379377Y-66219360D01*
X82718582Y-67167247D01*
X82994831Y-68002166D01*
X83203649Y-68709883D01*
X83340561Y-69276168D01*
X83401079Y-69686607D01*
X83424110Y-70048340D01*
X81777814Y-70779305D01*
X81250816Y-71011971D01*
X80772540Y-71220646D01*
X80373586Y-71392176D01*
X80084558Y-71513405D01*
X79936057Y-71571177D01*
X79934756Y-71571587D01*
X79800266Y-71568064D01*
X79585536Y-71487221D01*
X79269193Y-71318541D01*
X78829863Y-71051503D01*
X78663609Y-70945988D01*
X76864705Y-69712994D01*
X75223092Y-68416280D01*
X73742855Y-67060580D01*
X72428082Y-65650630D01*
X71282858Y-64191167D01*
X70311270Y-62686926D01*
X69517404Y-61142644D01*
X68944732Y-59682280D01*
X68613887Y-58694503D01*
X70797887Y-58634464D01*
X71429057Y-58618378D01*
X72206984Y-58600582D01*
X73090295Y-58581904D01*
X74037617Y-58563171D01*
X75007574Y-58545213D01*
X75958795Y-58528857D01*
X76524763Y-58519827D01*
X80067638Y-58465228D01*
X80128503Y-58956162D01*
X80128503Y-58956162D01*
G37*
X80128503Y-58956162D02*
X80216121Y-59570424D01*
X80328753Y-60177961D01*
X80473904Y-60803942D01*
X80659075Y-61473539D01*
X80891771Y-62211920D01*
X81179494Y-63044256D01*
X81529748Y-63995715D01*
X81950035Y-65091469D01*
X81981691Y-65172736D01*
X82379377Y-66219360D01*
X82718582Y-67167247D01*
X82994831Y-68002166D01*
X83203649Y-68709883D01*
X83340561Y-69276168D01*
X83401079Y-69686607D01*
X83424110Y-70048340D01*
X81777814Y-70779305D01*
X81250816Y-71011971D01*
X80772540Y-71220646D01*
X80373586Y-71392176D01*
X80084558Y-71513405D01*
X79936057Y-71571177D01*
X79934756Y-71571587D01*
X79800266Y-71568064D01*
X79585536Y-71487221D01*
X79269193Y-71318541D01*
X78829863Y-71051503D01*
X78663609Y-70945988D01*
X76864705Y-69712994D01*
X75223092Y-68416280D01*
X73742855Y-67060580D01*
X72428082Y-65650630D01*
X71282858Y-64191167D01*
X70311270Y-62686926D01*
X69517404Y-61142644D01*
X68944732Y-59682280D01*
X68613887Y-58694503D01*
X70797887Y-58634464D01*
X71429057Y-58618378D01*
X72206984Y-58600582D01*
X73090295Y-58581904D01*
X74037617Y-58563171D01*
X75007574Y-58545213D01*
X75958795Y-58528857D01*
X76524763Y-58519827D01*
X80067638Y-58465228D01*
X80128503Y-58956162D01*
G36*
X154475385Y-58655277D02*
X154737466Y-58658438D01*
X154826998Y-58663810D01*
X154819967Y-58771756D01*
X154753772Y-59019297D01*
X154640777Y-59372007D01*
X154493344Y-59795460D01*
X154323836Y-60255229D01*
X154144618Y-60716889D01*
X153968051Y-61146013D01*
X153806501Y-61508174D01*
X153802452Y-61516725D01*
X153005122Y-62992524D01*
X152028309Y-64442476D01*
X150879837Y-65858473D01*
X149567534Y-67232407D01*
X148099226Y-68556170D01*
X146482737Y-69821652D01*
X144725896Y-71020747D01*
X144478184Y-71177229D01*
X144101888Y-71412752D01*
X143490406Y-71082920D01*
X143226984Y-70938734D01*
X142833485Y-70720615D01*
X142343553Y-70447346D01*
X141790828Y-70137708D01*
X141208954Y-69810484D01*
X140981087Y-69681987D01*
X139083248Y-68610885D01*
X139263230Y-67961401D01*
X139425249Y-67409481D01*
X139596744Y-66904220D01*
X139792310Y-66415986D01*
X140026542Y-65915150D01*
X140314036Y-65372078D01*
X140669387Y-64757141D01*
X141107190Y-64040707D01*
X141508524Y-63403048D01*
X141995236Y-62625225D01*
X142386830Y-61970427D01*
X142697827Y-61408778D01*
X142942748Y-60910400D01*
X143136116Y-60445418D01*
X143292450Y-59983954D01*
X143426272Y-59496131D01*
X143445611Y-59417566D01*
X143603955Y-58766076D01*
X149196818Y-58696284D01*
X150204555Y-58684327D01*
X151155204Y-58674244D01*
X152032285Y-58666131D01*
X152819322Y-58660083D01*
X153499836Y-58656194D01*
X154057350Y-58654561D01*
X154475385Y-58655277D01*
X154475385Y-58655277D01*
G37*
X154475385Y-58655277D02*
X154737466Y-58658438D01*
X154826998Y-58663810D01*
X154819967Y-58771756D01*
X154753772Y-59019297D01*
X154640777Y-59372007D01*
X154493344Y-59795460D01*
X154323836Y-60255229D01*
X154144618Y-60716889D01*
X153968051Y-61146013D01*
X153806501Y-61508174D01*
X153802452Y-61516725D01*
X153005122Y-62992524D01*
X152028309Y-64442476D01*
X150879837Y-65858473D01*
X149567534Y-67232407D01*
X148099226Y-68556170D01*
X146482737Y-69821652D01*
X144725896Y-71020747D01*
X144478184Y-71177229D01*
X144101888Y-71412752D01*
X143490406Y-71082920D01*
X143226984Y-70938734D01*
X142833485Y-70720615D01*
X142343553Y-70447346D01*
X141790828Y-70137708D01*
X141208954Y-69810484D01*
X140981087Y-69681987D01*
X139083248Y-68610885D01*
X139263230Y-67961401D01*
X139425249Y-67409481D01*
X139596744Y-66904220D01*
X139792310Y-66415986D01*
X140026542Y-65915150D01*
X140314036Y-65372078D01*
X140669387Y-64757141D01*
X141107190Y-64040707D01*
X141508524Y-63403048D01*
X141995236Y-62625225D01*
X142386830Y-61970427D01*
X142697827Y-61408778D01*
X142942748Y-60910400D01*
X143136116Y-60445418D01*
X143292450Y-59983954D01*
X143426272Y-59496131D01*
X143445611Y-59417566D01*
X143603955Y-58766076D01*
X149196818Y-58696284D01*
X150204555Y-58684327D01*
X151155204Y-58674244D01*
X152032285Y-58666131D01*
X152819322Y-58660083D01*
X153499836Y-58656194D01*
X154057350Y-58654561D01*
X154475385Y-58655277D01*
G36*
X113065924Y-50609825D02*
X113860923Y-50624857D01*
X114581115Y-50647659D01*
X115193652Y-50678205D01*
X115665686Y-50716466D01*
X115785592Y-50730858D01*
X117225453Y-50982913D01*
X118506556Y-51331599D01*
X119633550Y-51780280D01*
X120611081Y-52332320D01*
X121443798Y-52991086D01*
X122136347Y-53759942D01*
X122693378Y-54642254D01*
X123119538Y-55641386D01*
X123276548Y-56154503D01*
X123381454Y-56686004D01*
X123452265Y-57348174D01*
X123488363Y-58086534D01*
X123489130Y-58846608D01*
X123453951Y-59573917D01*
X123382209Y-60213984D01*
X123325908Y-60513672D01*
X122907199Y-61965123D01*
X122334474Y-63326126D01*
X121617864Y-64586794D01*
X120767501Y-65737241D01*
X119793517Y-66767580D01*
X118706043Y-67667927D01*
X117515211Y-68428393D01*
X116231152Y-69039095D01*
X114863998Y-69490144D01*
X113914894Y-69696658D01*
X113288069Y-69775229D01*
X112549802Y-69819323D01*
X111765193Y-69828933D01*
X110999342Y-69804053D01*
X110317350Y-69744677D01*
X110000036Y-69697032D01*
X108598575Y-69348939D01*
X107267496Y-68833875D01*
X106018718Y-68163704D01*
X104864157Y-67350289D01*
X103815732Y-66405493D01*
X102885360Y-65341180D01*
X102084959Y-64169213D01*
X101426445Y-62901455D01*
X100921737Y-61549770D01*
X100627010Y-60366658D01*
X100514657Y-59567463D01*
X100464472Y-58689242D01*
X100470954Y-58174283D01*
X101916601Y-58174283D01*
X101952661Y-59245614D01*
X102102821Y-60323645D01*
X102366708Y-61372938D01*
X102566088Y-61940058D01*
X102972372Y-62827827D01*
X103485843Y-63716306D01*
X104073575Y-64558154D01*
X104702639Y-65306029D01*
X105314256Y-65891130D01*
X106249615Y-66612201D01*
X107173013Y-67191150D01*
X108126742Y-67646611D01*
X109153096Y-67997218D01*
X110294366Y-68261606D01*
X110940777Y-68370224D01*
X111405168Y-68409602D01*
X111988908Y-68413987D01*
X112626861Y-68385324D01*
X113253890Y-68325561D01*
X113480777Y-68294338D01*
X114817595Y-67999361D01*
X116079798Y-67537739D01*
X117255561Y-66920187D01*
X118333056Y-66157422D01*
X119300457Y-65260160D01*
X120145939Y-64239118D01*
X120857675Y-63105012D01*
X121423838Y-61868559D01*
X121772485Y-60780809D01*
X121896859Y-60163158D01*
X121982762Y-59438691D01*
X122028337Y-58665267D01*
X122031729Y-57900748D01*
X121991082Y-57202994D01*
X121905477Y-56634060D01*
X121632508Y-55735549D01*
X121233675Y-54945015D01*
X120702275Y-54257608D01*
X120031608Y-53668478D01*
X119214971Y-53172775D01*
X118245662Y-52765649D01*
X117116980Y-52442248D01*
X115822223Y-52197724D01*
X115763446Y-52189011D01*
X115114952Y-52116371D01*
X114320121Y-52063153D01*
X113419738Y-52029148D01*
X112454588Y-52014150D01*
X111465456Y-52017951D01*
X110493125Y-52040342D01*
X109578382Y-52081115D01*
X108762011Y-52140064D01*
X108084795Y-52216980D01*
X108007554Y-52228527D01*
X107005039Y-52417373D01*
X106067981Y-52659632D01*
X105235011Y-52943568D01*
X104544762Y-53257444D01*
X104451629Y-53308817D01*
X103888273Y-53696921D01*
X103345205Y-54193561D01*
X102873554Y-54745221D01*
X102524448Y-55298389D01*
X102496749Y-55354873D01*
X102188271Y-56193475D01*
X101995013Y-57145091D01*
X101916601Y-58174283D01*
X100470954Y-58174283D01*
X100475706Y-57796884D01*
X100547606Y-56955273D01*
X100674654Y-56248577D01*
X101030445Y-55168841D01*
X101540147Y-54195670D01*
X102199014Y-53334492D01*
X103002301Y-52590736D01*
X103945261Y-51969832D01*
X104751767Y-51583713D01*
X105328335Y-51376102D01*
X106033961Y-51169291D01*
X106810071Y-50978023D01*
X107598092Y-50817041D01*
X108165592Y-50724491D01*
X108564489Y-50684359D01*
X109118516Y-50652189D01*
X109794826Y-50627956D01*
X110560570Y-50611630D01*
X111382899Y-50603184D01*
X112228967Y-50602592D01*
X113065924Y-50609825D01*
X113065924Y-50609825D01*
G37*
X113065924Y-50609825D02*
X113860923Y-50624857D01*
X114581115Y-50647659D01*
X115193652Y-50678205D01*
X115665686Y-50716466D01*
X115785592Y-50730858D01*
X117225453Y-50982913D01*
X118506556Y-51331599D01*
X119633550Y-51780280D01*
X120611081Y-52332320D01*
X121443798Y-52991086D01*
X122136347Y-53759942D01*
X122693378Y-54642254D01*
X123119538Y-55641386D01*
X123276548Y-56154503D01*
X123381454Y-56686004D01*
X123452265Y-57348174D01*
X123488363Y-58086534D01*
X123489130Y-58846608D01*
X123453951Y-59573917D01*
X123382209Y-60213984D01*
X123325908Y-60513672D01*
X122907199Y-61965123D01*
X122334474Y-63326126D01*
X121617864Y-64586794D01*
X120767501Y-65737241D01*
X119793517Y-66767580D01*
X118706043Y-67667927D01*
X117515211Y-68428393D01*
X116231152Y-69039095D01*
X114863998Y-69490144D01*
X113914894Y-69696658D01*
X113288069Y-69775229D01*
X112549802Y-69819323D01*
X111765193Y-69828933D01*
X110999342Y-69804053D01*
X110317350Y-69744677D01*
X110000036Y-69697032D01*
X108598575Y-69348939D01*
X107267496Y-68833875D01*
X106018718Y-68163704D01*
X104864157Y-67350289D01*
X103815732Y-66405493D01*
X102885360Y-65341180D01*
X102084959Y-64169213D01*
X101426445Y-62901455D01*
X100921737Y-61549770D01*
X100627010Y-60366658D01*
X100514657Y-59567463D01*
X100464472Y-58689242D01*
X100470954Y-58174283D01*
X101916601Y-58174283D01*
X101952661Y-59245614D01*
X102102821Y-60323645D01*
X102366708Y-61372938D01*
X102566088Y-61940058D01*
X102972372Y-62827827D01*
X103485843Y-63716306D01*
X104073575Y-64558154D01*
X104702639Y-65306029D01*
X105314256Y-65891130D01*
X106249615Y-66612201D01*
X107173013Y-67191150D01*
X108126742Y-67646611D01*
X109153096Y-67997218D01*
X110294366Y-68261606D01*
X110940777Y-68370224D01*
X111405168Y-68409602D01*
X111988908Y-68413987D01*
X112626861Y-68385324D01*
X113253890Y-68325561D01*
X113480777Y-68294338D01*
X114817595Y-67999361D01*
X116079798Y-67537739D01*
X117255561Y-66920187D01*
X118333056Y-66157422D01*
X119300457Y-65260160D01*
X120145939Y-64239118D01*
X120857675Y-63105012D01*
X121423838Y-61868559D01*
X121772485Y-60780809D01*
X121896859Y-60163158D01*
X121982762Y-59438691D01*
X122028337Y-58665267D01*
X122031729Y-57900748D01*
X121991082Y-57202994D01*
X121905477Y-56634060D01*
X121632508Y-55735549D01*
X121233675Y-54945015D01*
X120702275Y-54257608D01*
X120031608Y-53668478D01*
X119214971Y-53172775D01*
X118245662Y-52765649D01*
X117116980Y-52442248D01*
X115822223Y-52197724D01*
X115763446Y-52189011D01*
X115114952Y-52116371D01*
X114320121Y-52063153D01*
X113419738Y-52029148D01*
X112454588Y-52014150D01*
X111465456Y-52017951D01*
X110493125Y-52040342D01*
X109578382Y-52081115D01*
X108762011Y-52140064D01*
X108084795Y-52216980D01*
X108007554Y-52228527D01*
X107005039Y-52417373D01*
X106067981Y-52659632D01*
X105235011Y-52943568D01*
X104544762Y-53257444D01*
X104451629Y-53308817D01*
X103888273Y-53696921D01*
X103345205Y-54193561D01*
X102873554Y-54745221D01*
X102524448Y-55298389D01*
X102496749Y-55354873D01*
X102188271Y-56193475D01*
X101995013Y-57145091D01*
X101916601Y-58174283D01*
X100470954Y-58174283D01*
X100475706Y-57796884D01*
X100547606Y-56955273D01*
X100674654Y-56248577D01*
X101030445Y-55168841D01*
X101540147Y-54195670D01*
X102199014Y-53334492D01*
X103002301Y-52590736D01*
X103945261Y-51969832D01*
X104751767Y-51583713D01*
X105328335Y-51376102D01*
X106033961Y-51169291D01*
X106810071Y-50978023D01*
X107598092Y-50817041D01*
X108165592Y-50724491D01*
X108564489Y-50684359D01*
X109118516Y-50652189D01*
X109794826Y-50627956D01*
X110560570Y-50611630D01*
X111382899Y-50603184D01*
X112228967Y-50602592D01*
X113065924Y-50609825D01*
G36*
X144798763Y-45021244D02*
X145006991Y-45031429D01*
X146372870Y-45169626D01*
X147711696Y-45439509D01*
X148989382Y-45830505D01*
X150171841Y-46332041D01*
X151224985Y-46933544D01*
X151298555Y-46982899D01*
X152291226Y-47766712D01*
X153142368Y-48674362D01*
X153851360Y-49705010D01*
X154417581Y-50857813D01*
X154668328Y-51544873D01*
X154784622Y-51932492D01*
X154897917Y-52360537D01*
X154999493Y-52788747D01*
X155080629Y-53176860D01*
X155132606Y-53484615D01*
X155146704Y-53671752D01*
X155136744Y-53707574D01*
X155040265Y-53712879D01*
X154771789Y-53719936D01*
X154347455Y-53728493D01*
X153783404Y-53738297D01*
X153095775Y-53749096D01*
X152300708Y-53760638D01*
X151414344Y-53772671D01*
X150452821Y-53784943D01*
X149432281Y-53797201D01*
X149306448Y-53798662D01*
X143504341Y-53865731D01*
X143452458Y-53457895D01*
X143283761Y-52206350D01*
X143115777Y-51120336D01*
X142943566Y-50177319D01*
X142762189Y-49354766D01*
X142566706Y-48630144D01*
X142352177Y-47980920D01*
X142128576Y-47418883D01*
X141987998Y-47072422D01*
X141890655Y-46790395D01*
X141851209Y-46617276D01*
X141854856Y-46588597D01*
X141949557Y-46506238D01*
X142167431Y-46345691D01*
X142474107Y-46131622D01*
X142768266Y-45933096D01*
X143136618Y-45680101D01*
X143457341Y-45445295D01*
X143690318Y-45258892D01*
X143784029Y-45168163D01*
X143863080Y-45086176D01*
X143967110Y-45034624D01*
X144133087Y-45009373D01*
X144397982Y-45006291D01*
X144798763Y-45021244D01*
X144798763Y-45021244D01*
G37*
X144798763Y-45021244D02*
X145006991Y-45031429D01*
X146372870Y-45169626D01*
X147711696Y-45439509D01*
X148989382Y-45830505D01*
X150171841Y-46332041D01*
X151224985Y-46933544D01*
X151298555Y-46982899D01*
X152291226Y-47766712D01*
X153142368Y-48674362D01*
X153851360Y-49705010D01*
X154417581Y-50857813D01*
X154668328Y-51544873D01*
X154784622Y-51932492D01*
X154897917Y-52360537D01*
X154999493Y-52788747D01*
X155080629Y-53176860D01*
X155132606Y-53484615D01*
X155146704Y-53671752D01*
X155136744Y-53707574D01*
X155040265Y-53712879D01*
X154771789Y-53719936D01*
X154347455Y-53728493D01*
X153783404Y-53738297D01*
X153095775Y-53749096D01*
X152300708Y-53760638D01*
X151414344Y-53772671D01*
X150452821Y-53784943D01*
X149432281Y-53797201D01*
X149306448Y-53798662D01*
X143504341Y-53865731D01*
X143452458Y-53457895D01*
X143283761Y-52206350D01*
X143115777Y-51120336D01*
X142943566Y-50177319D01*
X142762189Y-49354766D01*
X142566706Y-48630144D01*
X142352177Y-47980920D01*
X142128576Y-47418883D01*
X141987998Y-47072422D01*
X141890655Y-46790395D01*
X141851209Y-46617276D01*
X141854856Y-46588597D01*
X141949557Y-46506238D01*
X142167431Y-46345691D01*
X142474107Y-46131622D01*
X142768266Y-45933096D01*
X143136618Y-45680101D01*
X143457341Y-45445295D01*
X143690318Y-45258892D01*
X143784029Y-45168163D01*
X143863080Y-45086176D01*
X143967110Y-45034624D01*
X144133087Y-45009373D01*
X144397982Y-45006291D01*
X144798763Y-45021244D01*
G36*
X80702531Y-45845607D02*
X81125313Y-46227790D01*
X81567639Y-46631857D01*
X81974400Y-47007244D01*
X82266073Y-47280237D01*
X82895442Y-47875984D01*
X81889776Y-50707141D01*
X80884110Y-53538299D01*
X79143740Y-53599653D01*
X78366560Y-53622942D01*
X77579212Y-53637621D01*
X76753830Y-53643544D01*
X75862551Y-53640569D01*
X74877511Y-53628553D01*
X73770846Y-53607350D01*
X72514692Y-53576818D01*
X71994110Y-53562789D01*
X71309708Y-53544156D01*
X70647827Y-53526558D01*
X70044745Y-53510929D01*
X69536741Y-53498199D01*
X69160095Y-53489303D01*
X69019404Y-53486329D01*
X68349512Y-53473391D01*
X68432598Y-53026540D01*
X68689166Y-51965373D01*
X69052794Y-50924332D01*
X69503284Y-49949787D01*
X70020438Y-49088105D01*
X70326806Y-48678061D01*
X70885110Y-48069591D01*
X71547028Y-47469634D01*
X72239057Y-46941953D01*
X72588554Y-46716002D01*
X73573639Y-46205094D01*
X74687307Y-45767654D01*
X75879870Y-45416981D01*
X77101644Y-45166376D01*
X78302942Y-45029138D01*
X78974234Y-45006725D01*
X79768360Y-45006725D01*
X80702531Y-45845607D01*
X80702531Y-45845607D01*
G37*
X80702531Y-45845607D02*
X81125313Y-46227790D01*
X81567639Y-46631857D01*
X81974400Y-47007244D01*
X82266073Y-47280237D01*
X82895442Y-47875984D01*
X81889776Y-50707141D01*
X80884110Y-53538299D01*
X79143740Y-53599653D01*
X78366560Y-53622942D01*
X77579212Y-53637621D01*
X76753830Y-53643544D01*
X75862551Y-53640569D01*
X74877511Y-53628553D01*
X73770846Y-53607350D01*
X72514692Y-53576818D01*
X71994110Y-53562789D01*
X71309708Y-53544156D01*
X70647827Y-53526558D01*
X70044745Y-53510929D01*
X69536741Y-53498199D01*
X69160095Y-53489303D01*
X69019404Y-53486329D01*
X68349512Y-53473391D01*
X68432598Y-53026540D01*
X68689166Y-51965373D01*
X69052794Y-50924332D01*
X69503284Y-49949787D01*
X70020438Y-49088105D01*
X70326806Y-48678061D01*
X70885110Y-48069591D01*
X71547028Y-47469634D01*
X72239057Y-46941953D01*
X72588554Y-46716002D01*
X73573639Y-46205094D01*
X74687307Y-45767654D01*
X75879870Y-45416981D01*
X77101644Y-45166376D01*
X78302942Y-45029138D01*
X78974234Y-45006725D01*
X79768360Y-45006725D01*
X80702531Y-45845607D01*
G36*
X113038315Y-23709538D02*
X113904308Y-23731746D01*
X114667216Y-23768970D01*
X115285968Y-23821493D01*
X115315221Y-23824857D01*
X117949934Y-24221468D01*
X120498025Y-24785012D01*
X122960351Y-25515845D01*
X125337769Y-26414326D01*
X127631139Y-27480813D01*
X129841318Y-28715665D01*
X131969164Y-30119238D01*
X133859880Y-31563996D01*
X135007137Y-32555828D01*
X136149274Y-33646710D01*
X137264903Y-34810868D01*
X138332636Y-36022530D01*
X139331085Y-37255923D01*
X140238862Y-38485273D01*
X141034581Y-39684808D01*
X141696853Y-40828755D01*
X141932963Y-41292384D01*
X142138349Y-41724265D01*
X142356180Y-42198366D01*
X142573244Y-42683949D01*
X142776328Y-43150273D01*
X142952220Y-43566601D01*
X143087706Y-43902193D01*
X143169576Y-44126310D01*
X143186059Y-44207719D01*
X143029966Y-44318607D01*
X142773940Y-44491426D01*
X142453190Y-44703398D01*
X142102929Y-44931743D01*
X141758368Y-45153682D01*
X141454718Y-45346437D01*
X141227189Y-45487228D01*
X141110994Y-45553277D01*
X141103155Y-45555205D01*
X140953491Y-45337409D01*
X140701779Y-44999619D01*
X140367004Y-44565894D01*
X139968148Y-44060293D01*
X139524197Y-43506875D01*
X139054132Y-42929701D01*
X138576939Y-42352827D01*
X138565810Y-42339489D01*
X138138820Y-41825310D01*
X137731375Y-41329940D01*
X137366152Y-40881316D01*
X137065832Y-40507375D01*
X136853094Y-40236053D01*
X136788775Y-40150509D01*
X136372804Y-39650416D01*
X135839023Y-39111841D01*
X135237763Y-38580734D01*
X134619353Y-38103045D01*
X134328758Y-37904631D01*
X134010829Y-37708133D01*
X133564709Y-37446363D01*
X133028947Y-37141215D01*
X132442090Y-36814583D01*
X131842686Y-36488360D01*
X131709839Y-36417151D01*
X130860379Y-35958084D01*
X130147807Y-35556629D01*
X129541816Y-35188698D01*
X129012104Y-34830206D01*
X128528365Y-34457066D01*
X128060295Y-34045192D01*
X127577590Y-33570498D01*
X127049944Y-33008896D01*
X126447055Y-32336302D01*
X126147939Y-31996486D01*
X125350327Y-31107080D01*
X124635702Y-30359886D01*
X123981578Y-29741311D01*
X123365469Y-29237764D01*
X122764887Y-28835652D01*
X122157347Y-28521382D01*
X121520362Y-28281363D01*
X120831445Y-28102001D01*
X120068110Y-27969706D01*
X119344743Y-27884185D01*
X119029606Y-27855962D01*
X118719588Y-27836825D01*
X118392309Y-27827604D01*
X118025384Y-27829128D01*
X117596431Y-27842227D01*
X117083068Y-27867730D01*
X116462912Y-27906467D01*
X115713581Y-27959267D01*
X114812691Y-28026960D01*
X114186332Y-28075363D01*
X113546082Y-28119090D01*
X112925864Y-28147165D01*
X112293284Y-28159229D01*
X111615949Y-28154925D01*
X110861466Y-28133896D01*
X109997442Y-28095783D01*
X108991483Y-28040229D01*
X108541888Y-28013031D01*
X107706587Y-27963848D01*
X107025115Y-27929923D01*
X106463807Y-27910839D01*
X105988997Y-27906178D01*
X105567021Y-27915524D01*
X105164213Y-27938460D01*
X104825962Y-27966987D01*
X103996660Y-28061672D01*
X103248078Y-28188655D01*
X102558756Y-28359742D01*
X101907233Y-28586739D01*
X101272047Y-28881452D01*
X100631739Y-29255686D01*
X99964847Y-29721248D01*
X99249911Y-30289944D01*
X98465471Y-30973578D01*
X97590064Y-31783958D01*
X97183618Y-32171175D01*
X96407470Y-32894628D01*
X95627298Y-33583030D01*
X94885758Y-34199745D01*
X94253753Y-34687457D01*
X93150077Y-35508263D01*
X92184956Y-36251037D01*
X91336575Y-36936136D01*
X90583118Y-37583918D01*
X89902769Y-38214743D01*
X89273712Y-38848969D01*
X88674132Y-39506953D01*
X88082214Y-40209055D01*
X87476140Y-40975632D01*
X87377083Y-41104731D01*
X86707296Y-41981973D01*
X86140916Y-42726798D01*
X85666062Y-43355479D01*
X85270853Y-43884292D01*
X84943411Y-44329509D01*
X84671856Y-44707404D01*
X84444306Y-45034251D01*
X84248884Y-45326324D01*
X84073707Y-45599896D01*
X83953191Y-45794969D01*
X83410845Y-46684495D01*
X81982848Y-45367944D01*
X81554610Y-44971045D01*
X81177706Y-44617738D01*
X80872620Y-44327558D01*
X80659841Y-44120038D01*
X80559852Y-44014712D01*
X80554851Y-44006326D01*
X80588528Y-43905199D01*
X80678782Y-43671808D01*
X80809451Y-43347407D01*
X80884930Y-43163873D01*
X81638123Y-41515844D01*
X82514518Y-39921352D01*
X83526590Y-38362524D01*
X84686813Y-36821485D01*
X86007661Y-35280363D01*
X87415161Y-33807372D01*
X88365792Y-32880404D01*
X89248769Y-32070037D01*
X90106883Y-31340554D01*
X90982926Y-30656235D01*
X91919689Y-29981362D01*
X92361147Y-29678868D01*
X94446035Y-28364247D01*
X96564554Y-27220235D01*
X98733390Y-26240631D01*
X100969232Y-25419233D01*
X103288769Y-24749840D01*
X105708687Y-24226251D01*
X107977443Y-23875677D01*
X108599494Y-23813768D01*
X109364875Y-23765167D01*
X110232516Y-23730159D01*
X111161350Y-23709029D01*
X112110306Y-23702060D01*
X113038315Y-23709538D01*
X113038315Y-23709538D01*
G37*
X113038315Y-23709538D02*
X113904308Y-23731746D01*
X114667216Y-23768970D01*
X115285968Y-23821493D01*
X115315221Y-23824857D01*
X117949934Y-24221468D01*
X120498025Y-24785012D01*
X122960351Y-25515845D01*
X125337769Y-26414326D01*
X127631139Y-27480813D01*
X129841318Y-28715665D01*
X131969164Y-30119238D01*
X133859880Y-31563996D01*
X135007137Y-32555828D01*
X136149274Y-33646710D01*
X137264903Y-34810868D01*
X138332636Y-36022530D01*
X139331085Y-37255923D01*
X140238862Y-38485273D01*
X141034581Y-39684808D01*
X141696853Y-40828755D01*
X141932963Y-41292384D01*
X142138349Y-41724265D01*
X142356180Y-42198366D01*
X142573244Y-42683949D01*
X142776328Y-43150273D01*
X142952220Y-43566601D01*
X143087706Y-43902193D01*
X143169576Y-44126310D01*
X143186059Y-44207719D01*
X143029966Y-44318607D01*
X142773940Y-44491426D01*
X142453190Y-44703398D01*
X142102929Y-44931743D01*
X141758368Y-45153682D01*
X141454718Y-45346437D01*
X141227189Y-45487228D01*
X141110994Y-45553277D01*
X141103155Y-45555205D01*
X140953491Y-45337409D01*
X140701779Y-44999619D01*
X140367004Y-44565894D01*
X139968148Y-44060293D01*
X139524197Y-43506875D01*
X139054132Y-42929701D01*
X138576939Y-42352827D01*
X138565810Y-42339489D01*
X138138820Y-41825310D01*
X137731375Y-41329940D01*
X137366152Y-40881316D01*
X137065832Y-40507375D01*
X136853094Y-40236053D01*
X136788775Y-40150509D01*
X136372804Y-39650416D01*
X135839023Y-39111841D01*
X135237763Y-38580734D01*
X134619353Y-38103045D01*
X134328758Y-37904631D01*
X134010829Y-37708133D01*
X133564709Y-37446363D01*
X133028947Y-37141215D01*
X132442090Y-36814583D01*
X131842686Y-36488360D01*
X131709839Y-36417151D01*
X130860379Y-35958084D01*
X130147807Y-35556629D01*
X129541816Y-35188698D01*
X129012104Y-34830206D01*
X128528365Y-34457066D01*
X128060295Y-34045192D01*
X127577590Y-33570498D01*
X127049944Y-33008896D01*
X126447055Y-32336302D01*
X126147939Y-31996486D01*
X125350327Y-31107080D01*
X124635702Y-30359886D01*
X123981578Y-29741311D01*
X123365469Y-29237764D01*
X122764887Y-28835652D01*
X122157347Y-28521382D01*
X121520362Y-28281363D01*
X120831445Y-28102001D01*
X120068110Y-27969706D01*
X119344743Y-27884185D01*
X119029606Y-27855962D01*
X118719588Y-27836825D01*
X118392309Y-27827604D01*
X118025384Y-27829128D01*
X117596431Y-27842227D01*
X117083068Y-27867730D01*
X116462912Y-27906467D01*
X115713581Y-27959267D01*
X114812691Y-28026960D01*
X114186332Y-28075363D01*
X113546082Y-28119090D01*
X112925864Y-28147165D01*
X112293284Y-28159229D01*
X111615949Y-28154925D01*
X110861466Y-28133896D01*
X109997442Y-28095783D01*
X108991483Y-28040229D01*
X108541888Y-28013031D01*
X107706587Y-27963848D01*
X107025115Y-27929923D01*
X106463807Y-27910839D01*
X105988997Y-27906178D01*
X105567021Y-27915524D01*
X105164213Y-27938460D01*
X104825962Y-27966987D01*
X103996660Y-28061672D01*
X103248078Y-28188655D01*
X102558756Y-28359742D01*
X101907233Y-28586739D01*
X101272047Y-28881452D01*
X100631739Y-29255686D01*
X99964847Y-29721248D01*
X99249911Y-30289944D01*
X98465471Y-30973578D01*
X97590064Y-31783958D01*
X97183618Y-32171175D01*
X96407470Y-32894628D01*
X95627298Y-33583030D01*
X94885758Y-34199745D01*
X94253753Y-34687457D01*
X93150077Y-35508263D01*
X92184956Y-36251037D01*
X91336575Y-36936136D01*
X90583118Y-37583918D01*
X89902769Y-38214743D01*
X89273712Y-38848969D01*
X88674132Y-39506953D01*
X88082214Y-40209055D01*
X87476140Y-40975632D01*
X87377083Y-41104731D01*
X86707296Y-41981973D01*
X86140916Y-42726798D01*
X85666062Y-43355479D01*
X85270853Y-43884292D01*
X84943411Y-44329509D01*
X84671856Y-44707404D01*
X84444306Y-45034251D01*
X84248884Y-45326324D01*
X84073707Y-45599896D01*
X83953191Y-45794969D01*
X83410845Y-46684495D01*
X81982848Y-45367944D01*
X81554610Y-44971045D01*
X81177706Y-44617738D01*
X80872620Y-44327558D01*
X80659841Y-44120038D01*
X80559852Y-44014712D01*
X80554851Y-44006326D01*
X80588528Y-43905199D01*
X80678782Y-43671808D01*
X80809451Y-43347407D01*
X80884930Y-43163873D01*
X81638123Y-41515844D01*
X82514518Y-39921352D01*
X83526590Y-38362524D01*
X84686813Y-36821485D01*
X86007661Y-35280363D01*
X87415161Y-33807372D01*
X88365792Y-32880404D01*
X89248769Y-32070037D01*
X90106883Y-31340554D01*
X90982926Y-30656235D01*
X91919689Y-29981362D01*
X92361147Y-29678868D01*
X94446035Y-28364247D01*
X96564554Y-27220235D01*
X98733390Y-26240631D01*
X100969232Y-25419233D01*
X103288769Y-24749840D01*
X105708687Y-24226251D01*
X107977443Y-23875677D01*
X108599494Y-23813768D01*
X109364875Y-23765167D01*
X110232516Y-23730159D01*
X111161350Y-23709029D01*
X112110306Y-23702060D01*
X113038315Y-23709538D01*
D12*
X96287443Y-45161540D03*
D13*
X128287443Y-46161540D03*
D14*
X106234000Y-36546000D03*
X106234000Y-35046000D03*
X121154000Y-38146000D03*
X121154000Y-36646000D03*
X119314000Y-36971000D03*
X119314000Y-35471000D03*
D15*
X103274000Y-37341000D03*
X104774000Y-37341000D03*
X106695443Y-42993540D03*
X105195443Y-42993540D03*
D10*
G36*
X97954177Y-25647301D02*
X97680561Y-24895547D01*
X98432315Y-24621931D01*
X98705931Y-25373685D01*
X97954177Y-25647301D01*
X97954177Y-25647301D01*
G37*
G36*
X99457685Y-25100069D02*
X99184069Y-24348315D01*
X99935823Y-24074699D01*
X100209439Y-24826453D01*
X99457685Y-25100069D01*
X99457685Y-25100069D01*
G37*
G36*
X124010561Y-25361453D02*
X124284177Y-24609699D01*
X125035931Y-24883315D01*
X124762315Y-25635069D01*
X124010561Y-25361453D01*
X124010561Y-25361453D01*
G37*
G36*
X125514069Y-25908685D02*
X125787685Y-25156931D01*
X126539439Y-25430547D01*
X126265823Y-26182301D01*
X125514069Y-25908685D01*
X125514069Y-25908685D01*
G37*
D16*
X139270000Y-88011000D03*
X83885000Y-88186000D03*
D17*
X106453443Y-38929540D03*
X104751643Y-38929540D03*
X104751643Y-41215540D03*
X106453443Y-41215540D03*
D18*
X108429000Y-33461000D03*
X108429000Y-34261000D03*
X108429000Y-35061000D03*
X108429000Y-35861000D03*
X108429000Y-36661000D03*
X108429000Y-37461000D03*
X108429000Y-38261000D03*
X108429000Y-39061000D03*
D19*
X109879000Y-40511000D03*
X110679000Y-40511000D03*
X111479000Y-40511000D03*
X112279000Y-40511000D03*
X113079000Y-40511000D03*
X113879000Y-40511000D03*
X114679000Y-40511000D03*
X115479000Y-40511000D03*
D18*
X116929000Y-39061000D03*
X116929000Y-38261000D03*
X116929000Y-37461000D03*
X116929000Y-36661000D03*
X116929000Y-35861000D03*
X116929000Y-35061000D03*
X116929000Y-34261000D03*
X116929000Y-33461000D03*
D19*
X115479000Y-32011000D03*
X114679000Y-32011000D03*
X113879000Y-32011000D03*
X113079000Y-32011000D03*
X112279000Y-32011000D03*
X111479000Y-32011000D03*
X110679000Y-32011000D03*
X109879000Y-32011000D03*
D15*
X130825443Y-78299540D03*
X129325443Y-78299540D03*
D10*
G36*
X128152301Y-80029159D02*
X127233062Y-80948398D01*
X126738087Y-80453423D01*
X127657326Y-79534184D01*
X128152301Y-80029159D01*
X128152301Y-80029159D01*
G37*
G36*
X126808799Y-78685657D02*
X125889560Y-79604896D01*
X125394585Y-79109921D01*
X126313824Y-78190682D01*
X126808799Y-78685657D01*
X126808799Y-78685657D01*
G37*
D20*
X104421443Y-32005540D03*
X104421443Y-30105540D03*
X122607443Y-33169540D03*
X122607443Y-31269540D03*
D21*
X125652670Y-95467909D03*
X129198491Y-82234725D03*
D22*
X123528629Y-83303681D03*
X148617443Y-50613540D03*
X79275443Y-51629540D03*
X78767443Y-65599540D03*
X149125443Y-62043540D03*
D20*
X84101443Y-52325540D03*
X84101443Y-50425540D03*
D10*
G36*
X90553849Y-57639160D02*
X90890314Y-58894864D01*
X89393129Y-59296034D01*
X89056664Y-58040330D01*
X90553849Y-57639160D01*
X90553849Y-57639160D01*
G37*
G36*
X89389163Y-53292494D02*
X89725628Y-54548198D01*
X88228443Y-54949368D01*
X87891978Y-53693664D01*
X89389163Y-53292494D01*
X89389163Y-53292494D01*
G37*
G36*
X81661757Y-55363046D02*
X81998222Y-56618750D01*
X80501037Y-57019920D01*
X80164572Y-55764216D01*
X81661757Y-55363046D01*
X81661757Y-55363046D01*
G37*
G36*
X82826443Y-59709712D02*
X83162908Y-60965416D01*
X81665723Y-61366586D01*
X81329258Y-60110882D01*
X82826443Y-59709712D01*
X82826443Y-59709712D01*
G37*
G36*
X89721164Y-56301797D02*
X89607862Y-55006744D01*
X91151964Y-54871653D01*
X91265266Y-56166706D01*
X89721164Y-56301797D01*
X89721164Y-56301797D01*
G37*
G36*
X90113365Y-60784673D02*
X90000063Y-59489620D01*
X91544165Y-59354529D01*
X91657467Y-60649582D01*
X90113365Y-60784673D01*
X90113365Y-60784673D01*
G37*
G36*
X98082922Y-60087427D02*
X97969620Y-58792374D01*
X99513722Y-58657283D01*
X99627024Y-59952336D01*
X98082922Y-60087427D01*
X98082922Y-60087427D01*
G37*
G36*
X97690721Y-55604551D02*
X97577419Y-54309498D01*
X99121521Y-54174407D01*
X99234823Y-55469460D01*
X97690721Y-55604551D01*
X97690721Y-55604551D01*
G37*
G36*
X91662507Y-72207345D02*
X90743268Y-73126584D01*
X89647253Y-72030569D01*
X90566492Y-71111330D01*
X91662507Y-72207345D01*
X91662507Y-72207345D01*
G37*
G36*
X94844487Y-69025365D02*
X93925248Y-69944604D01*
X92829233Y-68848589D01*
X93748472Y-67929350D01*
X94844487Y-69025365D01*
X94844487Y-69025365D01*
G37*
G36*
X89187633Y-63368511D02*
X88268394Y-64287750D01*
X87172379Y-63191735D01*
X88091618Y-62272496D01*
X89187633Y-63368511D01*
X89187633Y-63368511D01*
G37*
G36*
X86005653Y-66550491D02*
X85086414Y-67469730D01*
X83990399Y-66373715D01*
X84909638Y-65454476D01*
X86005653Y-66550491D01*
X86005653Y-66550491D01*
G37*
G36*
X97380920Y-72089834D02*
X96100670Y-72315576D01*
X95831516Y-70789124D01*
X97111766Y-70563382D01*
X97380920Y-72089834D01*
X97380920Y-72089834D01*
G37*
G36*
X101812555Y-71308418D02*
X100532305Y-71534160D01*
X100263151Y-70007708D01*
X101543401Y-69781966D01*
X101812555Y-71308418D01*
X101812555Y-71308418D01*
G37*
G36*
X100423370Y-63429956D02*
X99143120Y-63655698D01*
X98873966Y-62129246D01*
X100154216Y-61903504D01*
X100423370Y-63429956D01*
X100423370Y-63429956D01*
G37*
G36*
X95991735Y-64211372D02*
X94711485Y-64437114D01*
X94442331Y-62910662D01*
X95722581Y-62684920D01*
X95991735Y-64211372D01*
X95991735Y-64211372D01*
G37*
G36*
X88427149Y-75813017D02*
X88201407Y-74532767D01*
X89727859Y-74263613D01*
X89953601Y-75543863D01*
X88427149Y-75813017D01*
X88427149Y-75813017D01*
G37*
G36*
X89208565Y-80244652D02*
X88982823Y-78964402D01*
X90509275Y-78695248D01*
X90735017Y-79975498D01*
X89208565Y-80244652D01*
X89208565Y-80244652D01*
G37*
G36*
X97087027Y-78855467D02*
X96861285Y-77575217D01*
X98387737Y-77306063D01*
X98613479Y-78586313D01*
X97087027Y-78855467D01*
X97087027Y-78855467D01*
G37*
G36*
X96305611Y-74423832D02*
X96079869Y-73143582D01*
X97606321Y-72874428D01*
X97832063Y-74154678D01*
X96305611Y-74423832D01*
X96305611Y-74423832D01*
G37*
G36*
X101430920Y-82879834D02*
X100150670Y-83105576D01*
X99881516Y-81579124D01*
X101161766Y-81353382D01*
X101430920Y-82879834D01*
X101430920Y-82879834D01*
G37*
G36*
X105862555Y-82098418D02*
X104582305Y-82324160D01*
X104313151Y-80797708D01*
X105593401Y-80571966D01*
X105862555Y-82098418D01*
X105862555Y-82098418D01*
G37*
G36*
X104473370Y-74219956D02*
X103193120Y-74445698D01*
X102923966Y-72919246D01*
X104204216Y-72693504D01*
X104473370Y-74219956D01*
X104473370Y-74219956D01*
G37*
G36*
X100041735Y-75001372D02*
X98761485Y-75227114D01*
X98492331Y-73700662D01*
X99772581Y-73474920D01*
X100041735Y-75001372D01*
X100041735Y-75001372D01*
G37*
D23*
X106517443Y-71389540D03*
X106517443Y-75889540D03*
X114517443Y-75889540D03*
X114517443Y-71389540D03*
D10*
G36*
X125475248Y-75474476D02*
X126394487Y-76393715D01*
X125298472Y-77489730D01*
X124379233Y-76570491D01*
X125475248Y-75474476D01*
X125475248Y-75474476D01*
G37*
G36*
X122293268Y-72292496D02*
X123212507Y-73211735D01*
X122116492Y-74307750D01*
X121197253Y-73388511D01*
X122293268Y-72292496D01*
X122293268Y-72292496D01*
G37*
G36*
X116636414Y-77949350D02*
X117555653Y-78868589D01*
X116459638Y-79964604D01*
X115540399Y-79045365D01*
X116636414Y-77949350D01*
X116636414Y-77949350D01*
G37*
G36*
X119818394Y-81131330D02*
X120737633Y-82050569D01*
X119641618Y-83146584D01*
X118722379Y-82227345D01*
X119818394Y-81131330D01*
X119818394Y-81131330D01*
G37*
G36*
X120216842Y-69997233D02*
X119192428Y-69196873D01*
X120146704Y-67975457D01*
X121171118Y-68775817D01*
X120216842Y-69997233D01*
X120216842Y-69997233D01*
G37*
G36*
X123762890Y-72767709D02*
X122738476Y-71967349D01*
X123692752Y-70745933D01*
X124717166Y-71546293D01*
X123762890Y-72767709D01*
X123762890Y-72767709D01*
G37*
G36*
X128688182Y-66463623D02*
X127663768Y-65663263D01*
X128618044Y-64441847D01*
X129642458Y-65242207D01*
X128688182Y-66463623D01*
X128688182Y-66463623D01*
G37*
G36*
X125142134Y-63693147D02*
X124117720Y-62892787D01*
X125071996Y-61671371D01*
X126096410Y-62471731D01*
X125142134Y-63693147D01*
X125142134Y-63693147D01*
G37*
G36*
X126421164Y-71911797D02*
X126307862Y-70616744D01*
X127851964Y-70481653D01*
X127965266Y-71776706D01*
X126421164Y-71911797D01*
X126421164Y-71911797D01*
G37*
G36*
X126813365Y-76394673D02*
X126700063Y-75099620D01*
X128244165Y-74964529D01*
X128357467Y-76259582D01*
X126813365Y-76394673D01*
X126813365Y-76394673D01*
G37*
G36*
X134782922Y-75697427D02*
X134669620Y-74402374D01*
X136213722Y-74267283D01*
X136327024Y-75562336D01*
X134782922Y-75697427D01*
X134782922Y-75697427D01*
G37*
G36*
X134390721Y-71214551D02*
X134277419Y-69919498D01*
X135821521Y-69784407D01*
X135934823Y-71079460D01*
X134390721Y-71214551D01*
X134390721Y-71214551D01*
G37*
G36*
X131422507Y-64447345D02*
X130503268Y-65366584D01*
X129407253Y-64270569D01*
X130326492Y-63351330D01*
X131422507Y-64447345D01*
X131422507Y-64447345D01*
G37*
G36*
X134604487Y-61265365D02*
X133685248Y-62184604D01*
X132589233Y-61088589D01*
X133508472Y-60169350D01*
X134604487Y-61265365D01*
X134604487Y-61265365D01*
G37*
G36*
X128947633Y-55608511D02*
X128028394Y-56527750D01*
X126932379Y-55431735D01*
X127851618Y-54512496D01*
X128947633Y-55608511D01*
X128947633Y-55608511D01*
G37*
G36*
X125765653Y-58790491D02*
X124846414Y-59709730D01*
X123750399Y-58613715D01*
X124669638Y-57694476D01*
X125765653Y-58790491D01*
X125765653Y-58790491D01*
G37*
D23*
X132157443Y-63299540D03*
X132157443Y-67799540D03*
X140157443Y-67799540D03*
X140157443Y-63299540D03*
D24*
X109937443Y-85849540D03*
X114437443Y-85849540D03*
X114437443Y-77849540D03*
X109937443Y-77849540D03*
D10*
G36*
X133239638Y-57374604D02*
X132320399Y-56455365D01*
X133416414Y-55359350D01*
X134335653Y-56278589D01*
X133239638Y-57374604D01*
X133239638Y-57374604D01*
G37*
G36*
X136421618Y-60556584D02*
X135502379Y-59637345D01*
X136598394Y-58541330D01*
X137517633Y-59460569D01*
X136421618Y-60556584D01*
X136421618Y-60556584D01*
G37*
G36*
X142078472Y-54899730D02*
X141159233Y-53980491D01*
X142255248Y-52884476D01*
X143174487Y-53803715D01*
X142078472Y-54899730D01*
X142078472Y-54899730D01*
G37*
G36*
X138896492Y-51717750D02*
X137977253Y-50798511D01*
X139073268Y-49702496D01*
X139992507Y-50621735D01*
X138896492Y-51717750D01*
X138896492Y-51717750D01*
G37*
D25*
X99087443Y-34611540D03*
X99087443Y-35881540D03*
D26*
X99087443Y-33341540D03*
D27*
X98197443Y-21399540D03*
X99797443Y-21399540D03*
X124787443Y-21599540D03*
X126387443Y-21599540D03*
D28*
X100337443Y-18059540D03*
X98437443Y-18059540D03*
X126297443Y-18009540D03*
X124397443Y-18009540D03*
D20*
X97287443Y-80579540D03*
X97287443Y-82479540D03*
D28*
X118607443Y-84969540D03*
X120507443Y-84969540D03*
D29*
X102957443Y-66339540D03*
X99737443Y-56869540D03*
X106147443Y-49779540D03*
X112287443Y-45679540D03*
X119457443Y-30189540D03*
X98297443Y-79879540D03*
X83927443Y-63619540D03*
X83537443Y-65379540D03*
X113167443Y-37429540D03*
X109617443Y-35859540D03*
X118077443Y-81849540D03*
X100927443Y-24339540D03*
X103557443Y-32029540D03*
X130827443Y-68589540D03*
X127187443Y-66099540D03*
X100037443Y-63989540D03*
X94687443Y-75329540D03*
X87387443Y-64149540D03*
X90077443Y-54089540D03*
X81317443Y-54879540D03*
X132177443Y-61729540D03*
X126917443Y-74709540D03*
X123387443Y-72969540D03*
X81417443Y-45539540D03*
X90297443Y-61289540D03*
X94507443Y-69889540D03*
X99897443Y-70619540D03*
X144287443Y-63659540D03*
X80577443Y-64499540D03*
X106957443Y-26519540D03*
X136737443Y-63089540D03*
X138217443Y-65129540D03*
X140677443Y-66629540D03*
X109587443Y-38239540D03*
X104067443Y-38149540D03*
X98727443Y-23969540D03*
X103297443Y-29729540D03*
X120423443Y-30039540D03*
X124487443Y-24197540D03*
X129697443Y-58224540D03*
X136382443Y-57639540D03*
X143072443Y-45089540D03*
X141892443Y-45904540D03*
X141487443Y-55514540D03*
X121697443Y-71869540D03*
X116105443Y-40453540D03*
X125987443Y-77659540D03*
X120277443Y-83289540D03*
X118387443Y-69569540D03*
X120657443Y-67639540D03*
X124577443Y-60119540D03*
X124807443Y-57229540D03*
X115343443Y-38929540D03*
X112295443Y-30801540D03*
X126062443Y-83379540D03*
X129752443Y-91364540D03*
X130142443Y-89689540D03*
X83317443Y-48399540D03*
X115517443Y-33349540D03*
X100357443Y-23435540D03*
X127027443Y-25721540D03*
X129922443Y-79204540D03*
X107767443Y-30509540D03*
X105387443Y-29139540D03*
X114537443Y-38669540D03*
X108947443Y-32719540D03*
X118057443Y-48999540D03*
X124197443Y-75449540D03*
X127637443Y-59514540D03*
X97127443Y-58219540D03*
X91137443Y-53459540D03*
X88467443Y-47749540D03*
X104517443Y-68179540D03*
X119157443Y-72949540D03*
X108767443Y-40299540D03*
X113097443Y-33049540D03*
X84067443Y-48479540D03*
X85367443Y-61629540D03*
X88457443Y-58929540D03*
X109797443Y-41819540D03*
X109757443Y-34129540D03*
X85067443Y-45089540D03*
X107147443Y-34239540D03*
X98937443Y-31959540D03*
X97147443Y-32959540D03*
X106587443Y-37449540D03*
X102127443Y-36849540D03*
X110277443Y-39209540D03*
X85727443Y-44759540D03*
X100357443Y-74019540D03*
X105217443Y-49229540D03*
X123957443Y-59729540D03*
X123987443Y-57439540D03*
X138532443Y-54804540D03*
X139127443Y-53329540D03*
X140607443Y-50409540D03*
X139207443Y-48529540D03*
X129737443Y-57254540D03*
X118307443Y-37619540D03*
X137172443Y-57104540D03*
X139142443Y-55064540D03*
X139777443Y-53739540D03*
X119387443Y-34359540D03*
X130467443Y-60369540D03*
X128597443Y-60339540D03*
X129202443Y-58899540D03*
X128597443Y-56724540D03*
X137997443Y-54324540D03*
X136807443Y-62009540D03*
X138927443Y-64179540D03*
X136837443Y-47849540D03*
X124687443Y-36849540D03*
X139357443Y-51579540D03*
X126937443Y-35939540D03*
X137717443Y-52449540D03*
X144807443Y-49597540D03*
X79277443Y-51899540D03*
X132615443Y-53915540D03*
X135327443Y-51179540D03*
X118017443Y-33379540D03*
X121507443Y-84909540D03*
X133607443Y-90689540D03*
X111417443Y-36559540D03*
X110917443Y-42859540D03*
X93547443Y-80799540D03*
X88207443Y-85499540D03*
D30*
X102957443Y-66339540D02*
X101007443Y-63279540D01*
X101007443Y-63279540D02*
X100427443Y-61329540D01*
X100427443Y-61329540D02*
X100107443Y-60449540D01*
X100107443Y-60449540D02*
X100127443Y-59969540D01*
X100127443Y-59969540D02*
X99897443Y-58099540D01*
X99897443Y-58099540D02*
X99737443Y-56869540D01*
X106147443Y-49779540D02*
X112287443Y-45679540D01*
X119457443Y-30189540D02*
X121017443Y-31629540D01*
X121017443Y-31629540D02*
X122607443Y-33169540D01*
X97287443Y-80579540D02*
X98297443Y-79879540D01*
X83927443Y-63619540D02*
X83537443Y-65379540D01*
X116929000Y-38261000D02*
X115387443Y-38209540D01*
X115387443Y-38209540D02*
X113167443Y-37429540D01*
X109617443Y-35859540D02*
X108429000Y-35861000D01*
X121154000Y-38146000D02*
X119867443Y-38389540D01*
X119867443Y-38389540D02*
X116929000Y-38261000D01*
X118607443Y-84969540D02*
X118077443Y-81849540D01*
X100337443Y-18059540D02*
X100937443Y-20759540D01*
X100937443Y-20759540D02*
X101037443Y-24039540D01*
X101037443Y-24039540D02*
X100927443Y-24339540D01*
X126297443Y-18009540D02*
X125287443Y-16579540D01*
X125287443Y-16579540D02*
X119127443Y-16079540D01*
X119127443Y-16079540D02*
X104807443Y-16039540D01*
X104807443Y-16039540D02*
X100337443Y-18059540D01*
X108429000Y-35861000D02*
X107097443Y-35869540D01*
X107097443Y-35869540D02*
X106234000Y-36546000D01*
X103557443Y-32029540D02*
X104421443Y-32005540D01*
X104421443Y-32005540D02*
X99087443Y-34611540D01*
X132157443Y-67799540D02*
X130827443Y-68589540D01*
X136510006Y-59548957D02*
X135647443Y-57769540D01*
X135647443Y-57769540D02*
X135352443Y-56889540D01*
X135352443Y-56889540D02*
X137127443Y-55229540D01*
X137127443Y-55229540D02*
X138007443Y-55319540D01*
X138007443Y-55319540D02*
X138627443Y-55809540D01*
X138627443Y-55809540D02*
X139247443Y-55799540D01*
X139247443Y-55799540D02*
X142166860Y-53892103D01*
X127940006Y-55520123D02*
X130212443Y-55989540D01*
X130212443Y-55989540D02*
X130437443Y-57889540D01*
X130437443Y-57889540D02*
X129847443Y-59989540D01*
X129847443Y-59989540D02*
X128317443Y-63479540D01*
X128317443Y-63479540D02*
X128653113Y-65452735D01*
X136510006Y-59548957D02*
X133596860Y-61176977D01*
X135498322Y-74982355D02*
X127528765Y-75679601D01*
X128653113Y-65452735D02*
X127187443Y-66099540D01*
X114517443Y-75889540D02*
X117657443Y-73859540D01*
X117657443Y-73859540D02*
X118677443Y-72009540D01*
X118677443Y-72009540D02*
X119367443Y-71739540D01*
X119367443Y-71739540D02*
X122204880Y-73300123D01*
X114437443Y-77849540D02*
X114437443Y-85849540D01*
X114437443Y-77849540D02*
X116548026Y-78956977D01*
X114437443Y-77849540D02*
X114517443Y-75889540D01*
X114437443Y-85849540D02*
X113787443Y-88449540D01*
X113787443Y-88449540D02*
X106947443Y-89249540D01*
X106947443Y-89249540D02*
X105087853Y-81448063D01*
X98798322Y-59372355D02*
X99648668Y-62779601D01*
X99648668Y-62779601D02*
X100037443Y-63989540D01*
X103698668Y-73569601D02*
X101037853Y-70658063D01*
X97737382Y-78080765D02*
X94687443Y-75329540D01*
X106527443Y-76119540D02*
X103698668Y-73569601D01*
X97737382Y-78080765D02*
X89858920Y-79469950D01*
X88180006Y-63280123D02*
X87387443Y-64149540D01*
X88808803Y-54120931D02*
X90077443Y-54089540D01*
X81081397Y-56191483D02*
X81317443Y-54879540D01*
X133596860Y-61176977D02*
X132177443Y-61729540D01*
X127528765Y-75679601D02*
X126917443Y-74709540D01*
X122881627Y-72614328D02*
X123387443Y-72969540D01*
X122204880Y-73300123D02*
X122881627Y-72614328D01*
X122881627Y-72614328D02*
X123727821Y-71756821D01*
X81318822Y-44356088D02*
X92987443Y-32309540D01*
X92987443Y-32309540D02*
X95907443Y-32689540D01*
X81417443Y-45539540D02*
X81318822Y-44356088D01*
X81318822Y-44356088D02*
X81317443Y-44339540D01*
X106957443Y-26519540D02*
X102617443Y-27229540D01*
X102617443Y-27229540D02*
X97577443Y-28849540D01*
X97577443Y-28849540D02*
X97567443Y-30419540D01*
X97567443Y-30419540D02*
X95907443Y-32689540D01*
X95907443Y-32689540D02*
X96607443Y-35749540D01*
X96607443Y-35749540D02*
X99087443Y-35881540D01*
X113848019Y-38919136D02*
X112567443Y-38279540D01*
X112567443Y-38279540D02*
X112442203Y-36663268D01*
X112442203Y-36663268D02*
X114327443Y-35959540D01*
X114327443Y-35959540D02*
X116929000Y-35861000D01*
X113879000Y-40511000D02*
X113848019Y-38919136D01*
X113848019Y-38919136D02*
X113847443Y-38889540D01*
X112442203Y-36663268D02*
X111107443Y-38199540D01*
X111107443Y-38199540D02*
X110260647Y-35999481D01*
X110260647Y-35999481D02*
X110260647Y-35999528D01*
X90928765Y-60059601D02*
X90297443Y-61289540D01*
X93836860Y-68936977D02*
X94507443Y-69889540D01*
X101037853Y-70658063D02*
X99897443Y-70619540D01*
X105087853Y-81448063D02*
X105997443Y-79779540D01*
X105997443Y-79779540D02*
X106527443Y-76119540D01*
X89858920Y-79469950D02*
X89077443Y-80959540D01*
X144287443Y-63659540D02*
X143657443Y-58809540D01*
X144287443Y-63659540D02*
X145618090Y-65187953D01*
X80577443Y-64499540D02*
X79717443Y-60229540D01*
X78767443Y-65599540D02*
X80577443Y-64499540D01*
X144757443Y-65959540D02*
X145618090Y-65187953D01*
X145618090Y-65187953D02*
X149125443Y-62043540D01*
X105195443Y-42993540D02*
X104751643Y-41215540D01*
X104774000Y-37341000D02*
X105837443Y-37699540D01*
X105837443Y-37699540D02*
X106453443Y-38929540D01*
X106453443Y-38929540D02*
X105357443Y-40459540D01*
X105357443Y-40459540D02*
X104751643Y-41215540D01*
X108429000Y-36661000D02*
X109777443Y-36679540D01*
X109777443Y-36679540D02*
X110257443Y-36329540D01*
X110257443Y-36329540D02*
X110260647Y-35999528D01*
X110260647Y-35999528D02*
X110267443Y-35299540D01*
X110267443Y-35299540D02*
X109897443Y-35019540D01*
X109897443Y-35019540D02*
X108429000Y-35061000D01*
X106234000Y-35046000D02*
X108429000Y-35061000D01*
X104218796Y-36019040D02*
X106234000Y-35046000D01*
X99087443Y-35881540D02*
X104218796Y-36019040D01*
X104218796Y-36019040D02*
X104237443Y-36019540D01*
X104237443Y-36019540D02*
X104774000Y-37341000D01*
X106957443Y-26519540D02*
X107287443Y-27399540D01*
X119314000Y-35471000D02*
X118391443Y-35881540D01*
X118391443Y-35881540D02*
X116929000Y-35861000D01*
X121154000Y-36646000D02*
X120677443Y-35627540D01*
X120677443Y-35627540D02*
X119314000Y-35471000D01*
X81537514Y-56078145D02*
X81538026Y-56076977D01*
X132157443Y-67809540D02*
X136737443Y-63089540D01*
X138217443Y-65129540D02*
X140157443Y-67809540D01*
X140677443Y-66629540D02*
X144757443Y-65959540D01*
X119314000Y-36971000D02*
X118391443Y-36643540D01*
X118391443Y-36643540D02*
X116929000Y-36661000D01*
X108429000Y-38261000D02*
X109587443Y-38239540D01*
X104067443Y-38149540D02*
X104751643Y-38929540D01*
X103274000Y-37341000D02*
X103957443Y-38669540D01*
X103957443Y-38669540D02*
X104751643Y-38929540D01*
X106453443Y-41215540D02*
X106695443Y-42993540D01*
X108429000Y-39061000D02*
X107087443Y-40779540D01*
X107087443Y-40779540D02*
X106453443Y-41215540D01*
X98193246Y-25134616D02*
X98727443Y-23969540D01*
X103297443Y-29729540D02*
X104421443Y-30105540D01*
X120931443Y-30613540D02*
X122607443Y-31269540D01*
X120931443Y-30613540D02*
X120423443Y-30039540D01*
X124487443Y-24197540D02*
X124523246Y-25122384D01*
X129697443Y-58224540D02*
X129107443Y-58269540D01*
X129107443Y-58269540D02*
X128152443Y-58674540D01*
X127012443Y-60174540D02*
X126917443Y-59344540D01*
X126917443Y-59344540D02*
X127177443Y-58979540D01*
X127177443Y-58979540D02*
X128152443Y-58674540D01*
X139207443Y-56634540D02*
X137662443Y-56234540D01*
X137662443Y-56234540D02*
X136897443Y-56339540D01*
X136897443Y-56339540D02*
X136357443Y-56889540D01*
X136357443Y-56889540D02*
X136382443Y-57639540D01*
X143072443Y-45089540D02*
X141892443Y-45904540D01*
X141487443Y-55514540D02*
X139207443Y-56634540D01*
X139207443Y-56634540D02*
X139207443Y-56634540D01*
X126872443Y-60974540D02*
X127012443Y-60174540D01*
X126187443Y-63106395D02*
X126637443Y-62459540D01*
X126637443Y-62459540D02*
X126872443Y-60974540D01*
X121697443Y-71869540D02*
X123802443Y-67169540D01*
X123802443Y-67169540D02*
X126187443Y-63106395D01*
X126187443Y-63106395D02*
X126147443Y-63174540D01*
X115479000Y-40511000D02*
X116105443Y-40453540D01*
X125386860Y-76482103D02*
X125987443Y-77659540D01*
X120277443Y-83289540D02*
X119730006Y-82138957D01*
X109937443Y-77849540D02*
X112167443Y-74389540D01*
X112167443Y-74389540D02*
X115887886Y-73535841D01*
X115887886Y-73535841D02*
X115887886Y-73535862D01*
X109937443Y-85849540D02*
X109937443Y-77849540D01*
X115887886Y-73535862D02*
X115877443Y-71579540D01*
X115877443Y-71579540D02*
X118387443Y-69569540D01*
X120657443Y-67639540D02*
X122947443Y-64739540D01*
X122947443Y-64739540D02*
X123547443Y-63439540D01*
X123547443Y-63439540D02*
X123707443Y-62849540D01*
X123707443Y-62849540D02*
X123747443Y-62699540D01*
X123747443Y-62699540D02*
X123817443Y-62589540D01*
X123817443Y-62589540D02*
X124247443Y-61369540D01*
X124247443Y-61369540D02*
X124597443Y-60109540D01*
X124597443Y-60109540D02*
X124577443Y-60119540D01*
X124807443Y-57229540D02*
X124367443Y-55069540D01*
X124367443Y-55069540D02*
X123447443Y-53699540D01*
X123447443Y-53699540D02*
X122977443Y-53019540D01*
X122977443Y-53019540D02*
X121397443Y-51379540D01*
X121397443Y-51379540D02*
X118837443Y-49449540D01*
X118837443Y-49449540D02*
X116929000Y-39061000D01*
X115343443Y-38929540D02*
X116929000Y-39061000D01*
X112295443Y-30801540D02*
X112279000Y-32011000D01*
X126062443Y-83379540D02*
X127445194Y-80241291D01*
X129752443Y-91364540D02*
X130142443Y-89689540D01*
X129325443Y-78299540D02*
X127445194Y-80241291D01*
X126026754Y-25669616D02*
X126387443Y-21599540D01*
X99797443Y-21399540D02*
X100357443Y-23435540D01*
X84101443Y-50425540D02*
X83317443Y-48399540D01*
X110679000Y-32011000D02*
X110771443Y-33341540D01*
X110771443Y-33341540D02*
X112295443Y-33849540D01*
X112295443Y-33849540D02*
X115517443Y-33349540D01*
X99696754Y-24587384D02*
X100357443Y-23435540D01*
X126026754Y-25669616D02*
X127027443Y-25721540D01*
X127862443Y-59784540D02*
X127547443Y-62989540D01*
X127547443Y-62989540D02*
X125232443Y-66294540D01*
X129922443Y-79204540D02*
X130380972Y-79374604D01*
X130380972Y-79374604D02*
X130380972Y-79374603D01*
X129198491Y-82234725D02*
X130380972Y-79374603D01*
X130380972Y-79374603D02*
X130825443Y-78299540D01*
X107767443Y-30509540D02*
X105417443Y-29199540D01*
X105417443Y-29199540D02*
X105387443Y-29139540D01*
X114537443Y-38669540D02*
X114679000Y-40511000D01*
X108429000Y-33461000D02*
X108947443Y-32719540D01*
X114679000Y-40511000D02*
X114697443Y-42149540D01*
X114697443Y-42149540D02*
X118057443Y-48999540D01*
X127637443Y-59514540D02*
X127862443Y-59784540D01*
X125232443Y-66294540D02*
X125672443Y-73539540D01*
X125672443Y-73539540D02*
X124197443Y-75449540D01*
X124197443Y-75449540D02*
X124177443Y-75449540D01*
X124417443Y-77579540D02*
X126101692Y-78897789D01*
X98367443Y-64025373D02*
X97357443Y-59929540D01*
X97357443Y-59929540D02*
X97127443Y-58219540D01*
X91137443Y-53459540D02*
X89837443Y-50719540D01*
X89837443Y-50719540D02*
X88467443Y-47749540D01*
X104517443Y-68179540D02*
X99637443Y-66459540D01*
X99637443Y-66459540D02*
X98367443Y-64025373D01*
X98367443Y-64025373D02*
X98317443Y-63929540D01*
X124417443Y-77579540D02*
X120597443Y-73899540D01*
X120597443Y-73899540D02*
X119157443Y-72949540D01*
X109879000Y-40511000D02*
X108767443Y-40299540D01*
X110679000Y-40511000D02*
X109879000Y-40511000D01*
X85067443Y-53129540D02*
X82246083Y-60538149D01*
X113097443Y-33049540D02*
X113079000Y-32011000D01*
X85207443Y-49209540D02*
X84067443Y-48479540D01*
X85527443Y-52239540D02*
X85207443Y-49209540D01*
X85067443Y-53129540D02*
X85527443Y-52239540D01*
X82246083Y-60538149D02*
X85367443Y-61629540D01*
X88457443Y-58929540D02*
X89973489Y-58467597D01*
X98547443Y-52909540D02*
X98406121Y-54889479D01*
X98406121Y-54889479D02*
X90436564Y-55586725D01*
X98547443Y-52909540D02*
X100067443Y-52279540D01*
X100067443Y-52279540D02*
X101057443Y-51629540D01*
X101057443Y-51629540D02*
X102097443Y-50729540D01*
X102097443Y-50729540D02*
X102887443Y-49749540D01*
X102887443Y-49749540D02*
X103757443Y-48419540D01*
X103757443Y-48419540D02*
X107967443Y-43299540D01*
X107967443Y-43299540D02*
X109797443Y-41819540D01*
X109757443Y-34129540D02*
X109879000Y-32011000D01*
X85337443Y-60579540D02*
X86137443Y-60999540D01*
X86137443Y-60999540D02*
X86457443Y-62109540D01*
X86457443Y-62109540D02*
X84998026Y-66462103D01*
X85337443Y-60579540D02*
X85707443Y-53229540D01*
X85707443Y-53229540D02*
X86137443Y-52369540D01*
X86137443Y-52369540D02*
X86137443Y-52159540D01*
X86137443Y-52159540D02*
X85727443Y-48179540D01*
X85727443Y-48179540D02*
X85067443Y-45089540D01*
X90654880Y-72118957D02*
X84998026Y-66462103D01*
X107147443Y-34239540D02*
X108429000Y-34261000D01*
X97897443Y-32459540D02*
X98937443Y-31959540D01*
X97687443Y-32589540D02*
X97897443Y-32459540D01*
X97147443Y-32959540D02*
X97687443Y-32589540D01*
X95217033Y-63561017D02*
X96606218Y-71439479D01*
X87937443Y-52599540D02*
X87197443Y-53419540D01*
X87197443Y-53419540D02*
X87107443Y-55649540D01*
X87107443Y-55649540D02*
X87457443Y-59599540D01*
X87457443Y-59599540D02*
X90097443Y-62299540D01*
X90097443Y-62299540D02*
X95217033Y-63561017D01*
X88167443Y-49169540D02*
X87937443Y-52599540D01*
X108429000Y-37461000D02*
X106587443Y-37449540D01*
X102127443Y-36849540D02*
X98807443Y-36809540D01*
X98807443Y-36809540D02*
X97547443Y-36489540D01*
X97547443Y-36489540D02*
X96007443Y-36359540D01*
X96007443Y-36359540D02*
X93757443Y-36389540D01*
X93757443Y-36389540D02*
X90237443Y-39329540D01*
X90237443Y-39329540D02*
X86577443Y-44129540D01*
X86577443Y-44129540D02*
X88167443Y-49169540D01*
X89077504Y-75038315D02*
X96955966Y-73649130D01*
X110277443Y-39209540D02*
X111477443Y-39149540D01*
X111477443Y-39149540D02*
X111447443Y-39559540D01*
X111447443Y-39559540D02*
X111479000Y-40511000D01*
X86377443Y-53489540D02*
X86697443Y-52739540D01*
X86697443Y-52739540D02*
X86817443Y-52309540D01*
X86817443Y-52309540D02*
X86537443Y-48249540D01*
X86537443Y-48249540D02*
X85727443Y-44759540D01*
X86337443Y-60069540D02*
X86377443Y-53489540D01*
X89799988Y-63586205D02*
X89387443Y-62609540D01*
X89387443Y-62609540D02*
X87497443Y-60839540D01*
X87497443Y-60839540D02*
X86337443Y-60069540D01*
X96955966Y-73649130D02*
X92737443Y-71279540D01*
X92737443Y-71279540D02*
X89799988Y-63586205D01*
X89799988Y-63586205D02*
X89797443Y-63579540D01*
X100357443Y-74019540D02*
X99267033Y-74351017D01*
X99267033Y-74351017D02*
X100656218Y-82229479D01*
X105217443Y-49229540D02*
X111617443Y-43469540D01*
X111617443Y-43469540D02*
X112337443Y-41939540D01*
X112337443Y-41939540D02*
X112279000Y-40511000D01*
X113007443Y-72999540D02*
X114517443Y-71389540D01*
X106527443Y-71619540D02*
X113007443Y-72999540D01*
X118547443Y-50289540D02*
X116477443Y-48589540D01*
X116477443Y-48589540D02*
X113127443Y-42689540D01*
X113127443Y-42689540D02*
X113079000Y-40511000D01*
X114527443Y-71619540D02*
X116317443Y-70369540D01*
X116317443Y-70369540D02*
X119327443Y-67739540D01*
X119327443Y-67739540D02*
X120237443Y-67009540D01*
X120237443Y-67009540D02*
X121427443Y-65649540D01*
X121427443Y-65649540D02*
X122247443Y-64509540D01*
X122247443Y-64509540D02*
X122997443Y-63089540D01*
X122997443Y-63089540D02*
X123697443Y-60999540D01*
X123697443Y-60999540D02*
X123957443Y-59729540D01*
X123987443Y-57439540D02*
X123687443Y-55289540D01*
X123687443Y-55289540D02*
X122577443Y-53549540D01*
X122577443Y-53549540D02*
X121017443Y-51859540D01*
X121017443Y-51859540D02*
X118547443Y-50289540D01*
X120181773Y-68986345D02*
X121517443Y-68299540D01*
X121517443Y-68299540D02*
X125107065Y-62682259D01*
X138532443Y-54804540D02*
X139127443Y-53329540D01*
X140607443Y-50409540D02*
X139207443Y-48529540D01*
X125107065Y-62682259D02*
X126552443Y-58534540D01*
X126552443Y-58534540D02*
X129737443Y-57254540D01*
X116929000Y-37461000D02*
X118307443Y-37619540D01*
X127136564Y-71196725D02*
X135106121Y-70499479D01*
X135106121Y-70499479D02*
X137727443Y-63199540D01*
X137727443Y-63199540D02*
X138517443Y-59819540D01*
X138517443Y-59819540D02*
X137172443Y-57104540D01*
X139142443Y-55064540D02*
X139777443Y-53739540D01*
X116929000Y-35061000D02*
X118187443Y-35039540D01*
X118187443Y-35039540D02*
X118667443Y-34479540D01*
X118667443Y-34479540D02*
X119387443Y-34359540D01*
X130414880Y-64358957D02*
X129767443Y-62799540D01*
X129767443Y-62799540D02*
X130467443Y-60369540D01*
X128597443Y-60339540D02*
X129202443Y-58899540D01*
X124758026Y-58702103D02*
X126612443Y-57639540D01*
X126612443Y-57639540D02*
X128597443Y-56724540D01*
X121577443Y-35559540D02*
X122927443Y-36709540D01*
X120547443Y-34599540D02*
X121577443Y-35559540D01*
X119287443Y-33019540D02*
X120547443Y-34599540D01*
X124067443Y-37689540D02*
X122927443Y-36709540D01*
X126027443Y-37559540D02*
X124067443Y-37689540D01*
X128887443Y-37159540D02*
X126027443Y-37559540D01*
X130557443Y-37319540D02*
X128887443Y-37159540D01*
X134397443Y-39639540D02*
X130557443Y-37319540D01*
X135867443Y-41499540D02*
X134397443Y-39639540D01*
X137547443Y-45359540D02*
X135867443Y-41499540D01*
X137497443Y-50529540D02*
X137547443Y-45359540D01*
X137617443Y-51329540D02*
X137497443Y-50529540D01*
X138407443Y-52089540D02*
X137617443Y-51329540D01*
X138397443Y-52959540D02*
X138407443Y-52089540D01*
X137997443Y-54324540D02*
X138397443Y-52959540D01*
X117177443Y-31789540D02*
X119287443Y-33019540D01*
X115479000Y-32011000D02*
X117177443Y-31789540D01*
X132197443Y-55449540D02*
X135897443Y-52339540D01*
X132157443Y-63299540D02*
X135817443Y-62389540D01*
X135817443Y-62389540D02*
X136807443Y-62009540D01*
X138927443Y-64179540D02*
X140157443Y-63299540D01*
X136447443Y-48767366D02*
X136837443Y-47849540D01*
X136547443Y-51680254D02*
X136197443Y-50919540D01*
X136197443Y-50919540D02*
X136447443Y-48767366D01*
X136447443Y-48767366D02*
X136427443Y-48939540D01*
X131416931Y-59671478D02*
X131107443Y-56729540D01*
X131107443Y-56729540D02*
X132197443Y-55449540D01*
X135897443Y-52339540D02*
X136547443Y-51680254D01*
X136547443Y-51680254D02*
X136597443Y-51629540D01*
X132157443Y-63309540D02*
X130907443Y-61599540D01*
X130907443Y-61599540D02*
X131416931Y-59671478D01*
X131416931Y-59671478D02*
X131417443Y-59669540D01*
X124687443Y-36849540D02*
X124507443Y-36809540D01*
X123857443Y-36549540D02*
X124507443Y-36809540D01*
X119667443Y-32549540D02*
X120567443Y-33359540D01*
X120567443Y-33359540D02*
X121137443Y-34349540D01*
X121137443Y-34349540D02*
X123857443Y-36549540D01*
X114679000Y-32011000D02*
X114677443Y-30879540D01*
X114677443Y-30879540D02*
X115507443Y-30299540D01*
X115507443Y-30299540D02*
X117837443Y-31299540D01*
X117837443Y-31299540D02*
X119667443Y-32549540D01*
X119667443Y-32549540D02*
X119687443Y-32549540D01*
X138984880Y-50710123D02*
X139357443Y-51579540D01*
X133328026Y-56366977D02*
X135407443Y-54109540D01*
X135407443Y-54109540D02*
X137717443Y-52449540D01*
X124197443Y-35989540D02*
X126937443Y-35939540D01*
X113879000Y-32011000D02*
X113907443Y-30499540D01*
X113907443Y-30499540D02*
X115347443Y-29639540D01*
X115347443Y-29639540D02*
X116137443Y-29729540D01*
X116137443Y-29729540D02*
X118507443Y-30699540D01*
X118507443Y-30699540D02*
X120927443Y-32639540D01*
X120927443Y-32639540D02*
X121717443Y-33969540D01*
X121717443Y-33969540D02*
X124197443Y-35989540D01*
X99087443Y-33341540D02*
X100611443Y-30293540D01*
X100611443Y-30293540D02*
X102897443Y-28769540D01*
X102897443Y-28769540D02*
X105437443Y-28515540D01*
X105437443Y-28515540D02*
X108993443Y-28515540D01*
X108993443Y-28515540D02*
X111533443Y-29785540D01*
X144807443Y-49597540D02*
X140743443Y-46041540D01*
X140743443Y-46041540D02*
X136679443Y-40961540D01*
X136679443Y-40961540D02*
X134901443Y-38929540D01*
X134901443Y-38929540D02*
X131091443Y-36643540D01*
X131091443Y-36643540D02*
X127789443Y-35119540D01*
X127789443Y-35119540D02*
X123725443Y-30547540D01*
X123725443Y-30547540D02*
X121185443Y-29023540D01*
X121185443Y-29023540D02*
X117121443Y-28769540D01*
X117121443Y-28769540D02*
X113311443Y-28769540D01*
X113311443Y-28769540D02*
X111533443Y-29785540D01*
X111533443Y-29785540D02*
X111479000Y-32011000D01*
X144807443Y-49597540D02*
X148617443Y-50613540D01*
X79277443Y-51899540D02*
X79275443Y-51629540D01*
X79275443Y-51629540D02*
X84101443Y-52325540D01*
X132615443Y-53915540D02*
X135327443Y-51179540D01*
X98437443Y-18059540D02*
X98197443Y-21399540D01*
X124787443Y-21599540D02*
X124397443Y-18009540D01*
X118017443Y-33379540D02*
X116929000Y-33461000D01*
X120507443Y-84969540D02*
X121507443Y-84909540D01*
X133607443Y-90689540D02*
X139270000Y-88011000D01*
X97287443Y-82479540D02*
X98927443Y-83679540D01*
X98927443Y-83679540D02*
X101197443Y-84169540D01*
X101197443Y-84169540D02*
X102627443Y-83609540D01*
X102627443Y-83609540D02*
X101737443Y-74149540D01*
X96867443Y-61019540D02*
X97697443Y-64839540D01*
X97697443Y-64839540D02*
X98930670Y-70270059D01*
X98930670Y-70270059D02*
X98930669Y-70270056D01*
X98930669Y-70270056D02*
X98930669Y-70270050D01*
X111417443Y-36559540D02*
X111447443Y-36519540D01*
X111447443Y-36519540D02*
X113867443Y-34599540D01*
X113867443Y-34599540D02*
X116929000Y-34261000D01*
X101737443Y-74149540D02*
X98987443Y-71259540D01*
X98987443Y-71259540D02*
X98930669Y-70270050D01*
X98930669Y-70270050D02*
X98917443Y-70039540D01*
X96867443Y-61019540D02*
X96457443Y-59449540D01*
X96457443Y-59449540D02*
X96427443Y-57269540D01*
X96427443Y-57269540D02*
X97767443Y-56369540D01*
X97767443Y-56369540D02*
X99987443Y-55859540D01*
X99987443Y-55859540D02*
X99997443Y-53819540D01*
X99997443Y-53819540D02*
X99957443Y-53369540D01*
X99957443Y-53369540D02*
X102507443Y-51249540D01*
X102507443Y-51249540D02*
X104337443Y-48839540D01*
X104337443Y-48839540D02*
X110917443Y-42859540D01*
X97287443Y-82479540D02*
X93547443Y-80799540D01*
X88207443Y-85499540D02*
X83885000Y-88186000D01*
M02*
