G04 #@! TF.FileFunction,Paste,Top*
%FSLAX46Y46*%
G04 Gerber Fmt 4.6, Leading zero omitted, Abs format (unit mm)*
G04 Created by KiCad (PCBNEW 4.0.7-e2-6376~58~ubuntu16.04.1) date Sun Nov 19 08:32:38 2017*
%MOMM*%
%LPD*%
G01*
G04 APERTURE LIST*
%ADD10C,0.100000*%
%ADD11R,0.750000X0.800000*%
%ADD12R,0.800000X0.750000*%
%ADD13R,1.193800X1.397000*%
%ADD14R,1.600000X0.550000*%
%ADD15R,0.550000X1.600000*%
%ADD16R,1.300000X0.700000*%
%ADD17R,1.550000X1.300000*%
%ADD18R,1.300000X1.550000*%
%ADD19R,0.800000X0.800000*%
%ADD20R,0.700000X1.300000*%
G04 APERTURE END LIST*
D10*
D11*
X106234000Y-36546000D03*
X106234000Y-35046000D03*
X121154000Y-38146000D03*
X121154000Y-36646000D03*
X119314000Y-36971000D03*
X119314000Y-35471000D03*
D12*
X103274000Y-37341000D03*
X104774000Y-37341000D03*
X106695443Y-42993540D03*
X105195443Y-42993540D03*
D10*
G36*
X97954177Y-25647301D02*
X97680561Y-24895547D01*
X98432315Y-24621931D01*
X98705931Y-25373685D01*
X97954177Y-25647301D01*
X97954177Y-25647301D01*
G37*
G36*
X99457685Y-25100069D02*
X99184069Y-24348315D01*
X99935823Y-24074699D01*
X100209439Y-24826453D01*
X99457685Y-25100069D01*
X99457685Y-25100069D01*
G37*
G36*
X124010561Y-25361453D02*
X124284177Y-24609699D01*
X125035931Y-24883315D01*
X124762315Y-25635069D01*
X124010561Y-25361453D01*
X124010561Y-25361453D01*
G37*
G36*
X125514069Y-25908685D02*
X125787685Y-25156931D01*
X126539439Y-25430547D01*
X126265823Y-26182301D01*
X125514069Y-25908685D01*
X125514069Y-25908685D01*
G37*
D13*
X106453443Y-38929540D03*
X104751643Y-38929540D03*
X104751643Y-41215540D03*
X106453443Y-41215540D03*
D14*
X108429000Y-33461000D03*
X108429000Y-34261000D03*
X108429000Y-35061000D03*
X108429000Y-35861000D03*
X108429000Y-36661000D03*
X108429000Y-37461000D03*
X108429000Y-38261000D03*
X108429000Y-39061000D03*
D15*
X109879000Y-40511000D03*
X110679000Y-40511000D03*
X111479000Y-40511000D03*
X112279000Y-40511000D03*
X113079000Y-40511000D03*
X113879000Y-40511000D03*
X114679000Y-40511000D03*
X115479000Y-40511000D03*
D14*
X116929000Y-39061000D03*
X116929000Y-38261000D03*
X116929000Y-37461000D03*
X116929000Y-36661000D03*
X116929000Y-35861000D03*
X116929000Y-35061000D03*
X116929000Y-34261000D03*
X116929000Y-33461000D03*
D15*
X115479000Y-32011000D03*
X114679000Y-32011000D03*
X113879000Y-32011000D03*
X113079000Y-32011000D03*
X112279000Y-32011000D03*
X111479000Y-32011000D03*
X110679000Y-32011000D03*
X109879000Y-32011000D03*
D12*
X130825443Y-78299540D03*
X129325443Y-78299540D03*
D10*
G36*
X128152301Y-80029159D02*
X127233062Y-80948398D01*
X126738087Y-80453423D01*
X127657326Y-79534184D01*
X128152301Y-80029159D01*
X128152301Y-80029159D01*
G37*
G36*
X126808799Y-78685657D02*
X125889560Y-79604896D01*
X125394585Y-79109921D01*
X126313824Y-78190682D01*
X126808799Y-78685657D01*
X126808799Y-78685657D01*
G37*
D16*
X104421443Y-32005540D03*
X104421443Y-30105540D03*
X122607443Y-33169540D03*
X122607443Y-31269540D03*
X84101443Y-52325540D03*
X84101443Y-50425540D03*
D10*
G36*
X90553849Y-57639160D02*
X90890314Y-58894864D01*
X89393129Y-59296034D01*
X89056664Y-58040330D01*
X90553849Y-57639160D01*
X90553849Y-57639160D01*
G37*
G36*
X89389163Y-53292494D02*
X89725628Y-54548198D01*
X88228443Y-54949368D01*
X87891978Y-53693664D01*
X89389163Y-53292494D01*
X89389163Y-53292494D01*
G37*
G36*
X81661757Y-55363046D02*
X81998222Y-56618750D01*
X80501037Y-57019920D01*
X80164572Y-55764216D01*
X81661757Y-55363046D01*
X81661757Y-55363046D01*
G37*
G36*
X82826443Y-59709712D02*
X83162908Y-60965416D01*
X81665723Y-61366586D01*
X81329258Y-60110882D01*
X82826443Y-59709712D01*
X82826443Y-59709712D01*
G37*
G36*
X89721164Y-56301797D02*
X89607862Y-55006744D01*
X91151964Y-54871653D01*
X91265266Y-56166706D01*
X89721164Y-56301797D01*
X89721164Y-56301797D01*
G37*
G36*
X90113365Y-60784673D02*
X90000063Y-59489620D01*
X91544165Y-59354529D01*
X91657467Y-60649582D01*
X90113365Y-60784673D01*
X90113365Y-60784673D01*
G37*
G36*
X98082922Y-60087427D02*
X97969620Y-58792374D01*
X99513722Y-58657283D01*
X99627024Y-59952336D01*
X98082922Y-60087427D01*
X98082922Y-60087427D01*
G37*
G36*
X97690721Y-55604551D02*
X97577419Y-54309498D01*
X99121521Y-54174407D01*
X99234823Y-55469460D01*
X97690721Y-55604551D01*
X97690721Y-55604551D01*
G37*
G36*
X91662507Y-72207345D02*
X90743268Y-73126584D01*
X89647253Y-72030569D01*
X90566492Y-71111330D01*
X91662507Y-72207345D01*
X91662507Y-72207345D01*
G37*
G36*
X94844487Y-69025365D02*
X93925248Y-69944604D01*
X92829233Y-68848589D01*
X93748472Y-67929350D01*
X94844487Y-69025365D01*
X94844487Y-69025365D01*
G37*
G36*
X89187633Y-63368511D02*
X88268394Y-64287750D01*
X87172379Y-63191735D01*
X88091618Y-62272496D01*
X89187633Y-63368511D01*
X89187633Y-63368511D01*
G37*
G36*
X86005653Y-66550491D02*
X85086414Y-67469730D01*
X83990399Y-66373715D01*
X84909638Y-65454476D01*
X86005653Y-66550491D01*
X86005653Y-66550491D01*
G37*
G36*
X97380920Y-72089834D02*
X96100670Y-72315576D01*
X95831516Y-70789124D01*
X97111766Y-70563382D01*
X97380920Y-72089834D01*
X97380920Y-72089834D01*
G37*
G36*
X101812555Y-71308418D02*
X100532305Y-71534160D01*
X100263151Y-70007708D01*
X101543401Y-69781966D01*
X101812555Y-71308418D01*
X101812555Y-71308418D01*
G37*
G36*
X100423370Y-63429956D02*
X99143120Y-63655698D01*
X98873966Y-62129246D01*
X100154216Y-61903504D01*
X100423370Y-63429956D01*
X100423370Y-63429956D01*
G37*
G36*
X95991735Y-64211372D02*
X94711485Y-64437114D01*
X94442331Y-62910662D01*
X95722581Y-62684920D01*
X95991735Y-64211372D01*
X95991735Y-64211372D01*
G37*
G36*
X88427149Y-75813017D02*
X88201407Y-74532767D01*
X89727859Y-74263613D01*
X89953601Y-75543863D01*
X88427149Y-75813017D01*
X88427149Y-75813017D01*
G37*
G36*
X89208565Y-80244652D02*
X88982823Y-78964402D01*
X90509275Y-78695248D01*
X90735017Y-79975498D01*
X89208565Y-80244652D01*
X89208565Y-80244652D01*
G37*
G36*
X97087027Y-78855467D02*
X96861285Y-77575217D01*
X98387737Y-77306063D01*
X98613479Y-78586313D01*
X97087027Y-78855467D01*
X97087027Y-78855467D01*
G37*
G36*
X96305611Y-74423832D02*
X96079869Y-73143582D01*
X97606321Y-72874428D01*
X97832063Y-74154678D01*
X96305611Y-74423832D01*
X96305611Y-74423832D01*
G37*
G36*
X101430920Y-82879834D02*
X100150670Y-83105576D01*
X99881516Y-81579124D01*
X101161766Y-81353382D01*
X101430920Y-82879834D01*
X101430920Y-82879834D01*
G37*
G36*
X105862555Y-82098418D02*
X104582305Y-82324160D01*
X104313151Y-80797708D01*
X105593401Y-80571966D01*
X105862555Y-82098418D01*
X105862555Y-82098418D01*
G37*
G36*
X104473370Y-74219956D02*
X103193120Y-74445698D01*
X102923966Y-72919246D01*
X104204216Y-72693504D01*
X104473370Y-74219956D01*
X104473370Y-74219956D01*
G37*
G36*
X100041735Y-75001372D02*
X98761485Y-75227114D01*
X98492331Y-73700662D01*
X99772581Y-73474920D01*
X100041735Y-75001372D01*
X100041735Y-75001372D01*
G37*
D17*
X106517443Y-71389540D03*
X106517443Y-75889540D03*
X114517443Y-75889540D03*
X114517443Y-71389540D03*
D10*
G36*
X125475248Y-75474476D02*
X126394487Y-76393715D01*
X125298472Y-77489730D01*
X124379233Y-76570491D01*
X125475248Y-75474476D01*
X125475248Y-75474476D01*
G37*
G36*
X122293268Y-72292496D02*
X123212507Y-73211735D01*
X122116492Y-74307750D01*
X121197253Y-73388511D01*
X122293268Y-72292496D01*
X122293268Y-72292496D01*
G37*
G36*
X116636414Y-77949350D02*
X117555653Y-78868589D01*
X116459638Y-79964604D01*
X115540399Y-79045365D01*
X116636414Y-77949350D01*
X116636414Y-77949350D01*
G37*
G36*
X119818394Y-81131330D02*
X120737633Y-82050569D01*
X119641618Y-83146584D01*
X118722379Y-82227345D01*
X119818394Y-81131330D01*
X119818394Y-81131330D01*
G37*
G36*
X120216842Y-69997233D02*
X119192428Y-69196873D01*
X120146704Y-67975457D01*
X121171118Y-68775817D01*
X120216842Y-69997233D01*
X120216842Y-69997233D01*
G37*
G36*
X123762890Y-72767709D02*
X122738476Y-71967349D01*
X123692752Y-70745933D01*
X124717166Y-71546293D01*
X123762890Y-72767709D01*
X123762890Y-72767709D01*
G37*
G36*
X128688182Y-66463623D02*
X127663768Y-65663263D01*
X128618044Y-64441847D01*
X129642458Y-65242207D01*
X128688182Y-66463623D01*
X128688182Y-66463623D01*
G37*
G36*
X125142134Y-63693147D02*
X124117720Y-62892787D01*
X125071996Y-61671371D01*
X126096410Y-62471731D01*
X125142134Y-63693147D01*
X125142134Y-63693147D01*
G37*
G36*
X126421164Y-71911797D02*
X126307862Y-70616744D01*
X127851964Y-70481653D01*
X127965266Y-71776706D01*
X126421164Y-71911797D01*
X126421164Y-71911797D01*
G37*
G36*
X126813365Y-76394673D02*
X126700063Y-75099620D01*
X128244165Y-74964529D01*
X128357467Y-76259582D01*
X126813365Y-76394673D01*
X126813365Y-76394673D01*
G37*
G36*
X134782922Y-75697427D02*
X134669620Y-74402374D01*
X136213722Y-74267283D01*
X136327024Y-75562336D01*
X134782922Y-75697427D01*
X134782922Y-75697427D01*
G37*
G36*
X134390721Y-71214551D02*
X134277419Y-69919498D01*
X135821521Y-69784407D01*
X135934823Y-71079460D01*
X134390721Y-71214551D01*
X134390721Y-71214551D01*
G37*
G36*
X131422507Y-64447345D02*
X130503268Y-65366584D01*
X129407253Y-64270569D01*
X130326492Y-63351330D01*
X131422507Y-64447345D01*
X131422507Y-64447345D01*
G37*
G36*
X134604487Y-61265365D02*
X133685248Y-62184604D01*
X132589233Y-61088589D01*
X133508472Y-60169350D01*
X134604487Y-61265365D01*
X134604487Y-61265365D01*
G37*
G36*
X128947633Y-55608511D02*
X128028394Y-56527750D01*
X126932379Y-55431735D01*
X127851618Y-54512496D01*
X128947633Y-55608511D01*
X128947633Y-55608511D01*
G37*
G36*
X125765653Y-58790491D02*
X124846414Y-59709730D01*
X123750399Y-58613715D01*
X124669638Y-57694476D01*
X125765653Y-58790491D01*
X125765653Y-58790491D01*
G37*
D17*
X132157443Y-63299540D03*
X132157443Y-67799540D03*
X140157443Y-67799540D03*
X140157443Y-63299540D03*
D18*
X109937443Y-85849540D03*
X114437443Y-85849540D03*
X114437443Y-77849540D03*
X109937443Y-77849540D03*
D10*
G36*
X133239638Y-57374604D02*
X132320399Y-56455365D01*
X133416414Y-55359350D01*
X134335653Y-56278589D01*
X133239638Y-57374604D01*
X133239638Y-57374604D01*
G37*
G36*
X136421618Y-60556584D02*
X135502379Y-59637345D01*
X136598394Y-58541330D01*
X137517633Y-59460569D01*
X136421618Y-60556584D01*
X136421618Y-60556584D01*
G37*
G36*
X142078472Y-54899730D02*
X141159233Y-53980491D01*
X142255248Y-52884476D01*
X143174487Y-53803715D01*
X142078472Y-54899730D01*
X142078472Y-54899730D01*
G37*
G36*
X138896492Y-51717750D02*
X137977253Y-50798511D01*
X139073268Y-49702496D01*
X139992507Y-50621735D01*
X138896492Y-51717750D01*
X138896492Y-51717750D01*
G37*
D19*
X98197443Y-21399540D03*
X99797443Y-21399540D03*
X124787443Y-21599540D03*
X126387443Y-21599540D03*
D20*
X100337443Y-18059540D03*
X98437443Y-18059540D03*
X126297443Y-18009540D03*
X124397443Y-18009540D03*
D16*
X97287443Y-80579540D03*
X97287443Y-82479540D03*
D20*
X118607443Y-84969540D03*
X120507443Y-84969540D03*
M02*
