G04 #@! TF.FileFunction,Copper,L2,Bot,Signal*
%FSLAX46Y46*%
G04 Gerber Fmt 4.6, Leading zero omitted, Abs format (unit mm)*
G04 Created by KiCad (PCBNEW 4.0.7-e2-6376~58~ubuntu16.04.1) date Sun Nov 19 08:32:38 2017*
%MOMM*%
%LPD*%
G01*
G04 APERTURE LIST*
%ADD10C,0.100000*%
%ADD11C,15.200000*%
%ADD12C,16.000000*%
%ADD13C,3.200000*%
%ADD14C,3.000000*%
%ADD15R,1.651000X1.651000*%
%ADD16C,1.651000*%
%ADD17C,8.000000*%
%ADD18O,1.500000X0.900000*%
%ADD19R,1.500000X0.900000*%
%ADD20C,0.400000*%
%ADD21C,0.355600*%
G04 APERTURE END LIST*
D10*
D11*
X96287443Y-45161540D03*
D12*
X128287443Y-46161540D03*
D10*
G36*
X81590231Y-55381400D02*
X86095567Y-52226730D01*
X88963449Y-56322490D01*
X84458113Y-59477160D01*
X81590231Y-55381400D01*
X81590231Y-55381400D01*
G37*
D12*
X92991443Y-66869540D03*
D10*
G36*
X97019437Y-77416590D02*
X101524773Y-74261920D01*
X104392655Y-78357680D01*
X99887319Y-81512350D01*
X97019437Y-77416590D01*
X97019437Y-77416590D01*
G37*
G36*
X120583634Y-82122437D02*
X116694546Y-78233349D01*
X120230080Y-74697815D01*
X124119168Y-78586903D01*
X120583634Y-82122437D01*
X120583634Y-82122437D01*
G37*
D12*
X129917443Y-68899540D03*
D10*
G36*
X139604806Y-63101265D02*
X135715718Y-59212177D01*
X139251252Y-55676643D01*
X143140340Y-59565731D01*
X139604806Y-63101265D01*
X139604806Y-63101265D01*
G37*
D13*
X125652670Y-95467909D03*
X129198491Y-82234725D03*
D14*
X123528629Y-83303681D03*
D15*
X114275000Y-25691000D03*
X111735000Y-25691000D03*
X109195000Y-25691000D03*
D16*
X114275000Y-28231000D03*
D15*
X111735000Y-28231000D03*
X109195000Y-28231000D03*
D17*
X74703443Y-61535540D03*
X74703443Y-50613540D03*
X149125443Y-50613540D03*
X148871443Y-61535540D03*
D14*
X137441443Y-50105540D03*
X86387443Y-46803540D03*
X87403443Y-50105540D03*
X135409443Y-53153540D03*
D18*
X99087443Y-34611540D03*
X99087443Y-35881540D03*
D19*
X99087443Y-33341540D03*
D20*
X102957443Y-66339540D03*
X99737443Y-56869540D03*
X106147443Y-49779540D03*
X112287443Y-45679540D03*
X119457443Y-30189540D03*
X98297443Y-79879540D03*
X83927443Y-63619540D03*
X83537443Y-65379540D03*
X113167443Y-37429540D03*
X109617443Y-35859540D03*
X118077443Y-81849540D03*
X100927443Y-24339540D03*
X103557443Y-32029540D03*
X130827443Y-68589540D03*
X127187443Y-66099540D03*
X100037443Y-63989540D03*
X94687443Y-75329540D03*
X87387443Y-64149540D03*
X90077443Y-54089540D03*
X81317443Y-54879540D03*
X132177443Y-61729540D03*
X126917443Y-74709540D03*
X123387443Y-72969540D03*
X81417443Y-45539540D03*
X90297443Y-61289540D03*
X94507443Y-69889540D03*
X99897443Y-70619540D03*
X144287443Y-63659540D03*
X80577443Y-64499540D03*
X106957443Y-26519540D03*
X136737443Y-63089540D03*
X138217443Y-65129540D03*
X140677443Y-66629540D03*
X109587443Y-38239540D03*
X104067443Y-38149540D03*
X98727443Y-23969540D03*
X103297443Y-29729540D03*
X120423443Y-30039540D03*
X124487443Y-24197540D03*
X129697443Y-58224540D03*
X136382443Y-57639540D03*
X143072443Y-45089540D03*
X141892443Y-45904540D03*
X141487443Y-55514540D03*
X121697443Y-71869540D03*
X116105443Y-40453540D03*
X125987443Y-77659540D03*
X120277443Y-83289540D03*
X118387443Y-69569540D03*
X120657443Y-67639540D03*
X124577443Y-60119540D03*
X124807443Y-57229540D03*
X115343443Y-38929540D03*
X112295443Y-30801540D03*
X126062443Y-83379540D03*
X129752443Y-91364540D03*
X130142443Y-89689540D03*
X83317443Y-48399540D03*
X115517443Y-33349540D03*
X100357443Y-23435540D03*
X127027443Y-25721540D03*
X129922443Y-79204540D03*
X107767443Y-30509540D03*
X105387443Y-29139540D03*
X114537443Y-38669540D03*
X108947443Y-32719540D03*
X118057443Y-48999540D03*
X124197443Y-75449540D03*
X127637443Y-59514540D03*
X97127443Y-58219540D03*
X91137443Y-53459540D03*
X88467443Y-47749540D03*
X104517443Y-68179540D03*
X119157443Y-72949540D03*
X108767443Y-40299540D03*
X113097443Y-33049540D03*
X84067443Y-48479540D03*
X85367443Y-61629540D03*
X88457443Y-58929540D03*
X109797443Y-41819540D03*
X109757443Y-34129540D03*
X85067443Y-45089540D03*
X107147443Y-34239540D03*
X98937443Y-31959540D03*
X97147443Y-32959540D03*
X106587443Y-37449540D03*
X102127443Y-36849540D03*
X110277443Y-39209540D03*
X85727443Y-44759540D03*
X100357443Y-74019540D03*
X105217443Y-49229540D03*
X123957443Y-59729540D03*
X123987443Y-57439540D03*
X138532443Y-54804540D03*
X139127443Y-53329540D03*
X140607443Y-50409540D03*
X139207443Y-48529540D03*
X129737443Y-57254540D03*
X118307443Y-37619540D03*
X137172443Y-57104540D03*
X139142443Y-55064540D03*
X139777443Y-53739540D03*
X119387443Y-34359540D03*
X130467443Y-60369540D03*
X128597443Y-60339540D03*
X129202443Y-58899540D03*
X128597443Y-56724540D03*
X137997443Y-54324540D03*
X136807443Y-62009540D03*
X138927443Y-64179540D03*
X136837443Y-47849540D03*
X124687443Y-36849540D03*
X139357443Y-51579540D03*
X126937443Y-35939540D03*
X137717443Y-52449540D03*
X144807443Y-49597540D03*
X79277443Y-51899540D03*
X132615443Y-53915540D03*
X135327443Y-51179540D03*
X118017443Y-33379540D03*
X121507443Y-84909540D03*
X133607443Y-90689540D03*
X111417443Y-36559540D03*
X110917443Y-42859540D03*
X93547443Y-80799540D03*
X88207443Y-85499540D03*
D21*
X125797443Y-61438030D02*
X127452443Y-60729540D01*
X127452443Y-60729540D02*
X128327443Y-59619540D01*
X120406857Y-78410126D02*
X120947443Y-70439540D01*
X120947443Y-70439540D02*
X121367443Y-67829540D01*
X121367443Y-67829540D02*
X121477443Y-66449540D01*
X121477443Y-66449540D02*
X123507443Y-62129540D01*
X123507443Y-62129540D02*
X125797443Y-61438030D01*
X125797443Y-61438030D02*
X125792443Y-61439540D01*
X128327443Y-59619540D02*
X139428029Y-59388954D01*
X103767443Y-69359540D02*
X102957443Y-66339540D01*
X99737443Y-56869540D02*
X100567443Y-53969540D01*
X100567443Y-53969540D02*
X103107443Y-51999540D01*
X103107443Y-51999540D02*
X106147443Y-49779540D01*
X112287443Y-45679540D02*
X113167443Y-37429540D01*
X100706046Y-77887135D02*
X104637443Y-72899540D01*
X104637443Y-72899540D02*
X103767443Y-69359540D01*
X103767443Y-69359540D02*
X103767443Y-69359540D01*
X119027443Y-30144397D02*
X119457443Y-30189540D01*
X113167443Y-37429540D02*
X112787443Y-36039540D01*
X112787443Y-36039540D02*
X111417443Y-35479540D01*
X111417443Y-35479540D02*
X109617443Y-35859540D01*
X97837443Y-32839540D02*
X97787443Y-33809540D01*
X97787443Y-33809540D02*
X97997443Y-34389540D01*
X97997443Y-34389540D02*
X99087443Y-34611540D01*
X92317443Y-34229540D02*
X95657443Y-32189540D01*
X95657443Y-32189540D02*
X97817443Y-31909540D01*
X97817443Y-31909540D02*
X97837443Y-32839540D01*
X98297443Y-79879540D02*
X100706046Y-77887135D01*
X85276840Y-55851945D02*
X83927443Y-63619540D01*
X83537443Y-65379540D02*
X82977443Y-67249540D01*
X82977443Y-67249540D02*
X85997443Y-74659540D01*
X85997443Y-74659540D02*
X90717443Y-77839540D01*
X90717443Y-77839540D02*
X100706046Y-77887135D01*
X84967443Y-51907043D02*
X84737443Y-48449540D01*
X84737443Y-48449540D02*
X83737443Y-44059540D01*
X83737443Y-44059540D02*
X87117443Y-37659540D01*
X87117443Y-37659540D02*
X92317443Y-34229540D01*
X85276840Y-55851945D02*
X84967443Y-51907043D01*
X84967443Y-51907043D02*
X84957443Y-51779540D01*
X118077443Y-81849540D02*
X106757443Y-81219540D01*
X106757443Y-81219540D02*
X100706046Y-77887135D01*
X118077443Y-81849540D02*
X120406857Y-78410126D01*
X100927443Y-24339540D02*
X100957443Y-25129540D01*
X100957443Y-25129540D02*
X102007443Y-26679540D01*
X102007443Y-26679540D02*
X103847443Y-27069540D01*
X114275000Y-25691000D02*
X113777443Y-24429540D01*
X113777443Y-24429540D02*
X111967443Y-24229540D01*
X111967443Y-24229540D02*
X107797443Y-24349540D01*
X107797443Y-24349540D02*
X103847443Y-27069540D01*
X103847443Y-27069540D02*
X104077443Y-29869540D01*
X104077443Y-29869540D02*
X103557443Y-32029540D01*
X114275000Y-25691000D02*
X117227443Y-27809540D01*
X117227443Y-27809540D02*
X119027443Y-30144397D01*
X119027443Y-30144397D02*
X118977443Y-30079540D01*
X130827443Y-68589540D02*
X129917443Y-68899540D01*
X127187443Y-66099540D02*
X129917443Y-68899540D01*
X100037443Y-63989540D02*
X92991443Y-66869540D01*
X94687443Y-75329540D02*
X92991443Y-66869540D01*
X87387443Y-64149540D02*
X92991443Y-66869540D01*
X90077443Y-54089540D02*
X92087443Y-58869540D01*
X92087443Y-58869540D02*
X92991443Y-66869540D01*
X81317443Y-54879540D02*
X81141099Y-54314073D01*
X81141099Y-54314073D02*
X81141099Y-54314074D01*
X132177443Y-61729540D02*
X129917443Y-68899540D01*
X126917443Y-74709540D02*
X129917443Y-68899540D01*
X123387443Y-72969540D02*
X129917443Y-68899540D01*
X81633864Y-53287820D02*
X82657443Y-50149540D01*
X82657443Y-50149540D02*
X82577443Y-48409540D01*
X82577443Y-48409540D02*
X81417443Y-45539540D01*
X74703443Y-61535540D02*
X79227443Y-58299540D01*
X79227443Y-58299540D02*
X81141099Y-54314074D01*
X81141099Y-54314074D02*
X81633864Y-53287820D01*
X81633864Y-53287820D02*
X81647443Y-53259540D01*
X90297443Y-61289540D02*
X92991443Y-66869540D01*
X94507443Y-69889540D02*
X92991443Y-66869540D01*
X99897443Y-70619540D02*
X92991443Y-66869540D01*
X148871443Y-61535540D02*
X144287443Y-63659540D01*
X80577443Y-64499540D02*
X80895297Y-63937141D01*
X129821443Y-68901540D02*
X140677443Y-66629540D01*
X109195000Y-25691000D02*
X107727443Y-26049540D01*
X107727443Y-26049540D02*
X106957443Y-26519540D01*
X92991443Y-66869540D02*
X80895297Y-63937141D01*
X80895297Y-63937141D02*
X76227443Y-62805540D01*
X136737443Y-63089540D02*
X138217443Y-65129540D01*
X109587443Y-38239540D02*
X104067443Y-38149540D01*
X98727443Y-23969540D02*
X103297443Y-29729540D01*
X120423443Y-30039540D02*
X124487443Y-24197540D01*
X129697443Y-58224540D02*
X132656691Y-58701903D01*
X136382443Y-57639540D02*
X132656691Y-58701903D01*
X132656691Y-58701903D02*
X132647443Y-58704540D01*
X139352443Y-38126162D02*
X140002443Y-38789540D01*
X140002443Y-38789540D02*
X141507443Y-41694540D01*
X141507443Y-41694540D02*
X142782443Y-44559540D01*
X142782443Y-44559540D02*
X143032443Y-45069540D01*
X143032443Y-45069540D02*
X143072443Y-45089540D01*
X141892443Y-45904540D02*
X142392443Y-47024540D01*
X142392443Y-47024540D02*
X143302443Y-50684540D01*
X143302443Y-50684540D02*
X143637443Y-54164540D01*
X143637443Y-54164540D02*
X141487443Y-55514540D01*
X131552443Y-32129310D02*
X133707443Y-32794540D01*
X133707443Y-32794540D02*
X135577443Y-33934540D01*
X135577443Y-33934540D02*
X139352443Y-38126162D01*
X139352443Y-38126162D02*
X139292443Y-38059540D01*
X115018796Y-34582952D02*
X117432443Y-32799540D01*
X117432443Y-32799540D02*
X119357443Y-32409540D01*
X119357443Y-32409540D02*
X131552443Y-32129310D01*
X131552443Y-32129310D02*
X131542443Y-32129540D01*
X125987443Y-77659540D02*
X123522443Y-76244540D01*
X123522443Y-76244540D02*
X121697443Y-71869540D01*
X114581443Y-31309540D02*
X114581443Y-32833540D01*
X114581443Y-32833540D02*
X115018796Y-34582952D01*
X115018796Y-34582952D02*
X115343443Y-35881540D01*
X115343443Y-35881540D02*
X116105443Y-38929540D01*
X116105443Y-40453540D02*
X116105443Y-38929540D01*
X114581443Y-31309540D02*
X114275000Y-28231000D01*
X125987443Y-77659540D02*
X122777443Y-81239540D01*
X122777443Y-81239540D02*
X120277443Y-83289540D01*
X118387443Y-69569540D02*
X120657443Y-67639540D01*
X124577443Y-60119540D02*
X124807443Y-57229540D01*
X111735000Y-28231000D02*
X113565443Y-31309540D01*
X113565443Y-31309540D02*
X115343443Y-38929540D01*
X109195000Y-28231000D02*
X111025443Y-30039540D01*
X111025443Y-30039540D02*
X112295443Y-30801540D01*
X126607443Y-85384540D02*
X126062443Y-83379540D01*
X125652670Y-95467909D02*
X129752443Y-91364540D01*
X130142443Y-89689540D02*
X126607443Y-85384540D01*
X126607443Y-85384540D02*
X126642443Y-85419540D01*
X83317443Y-48399540D02*
X82137443Y-43769540D01*
X82137443Y-43769540D02*
X85827443Y-36739540D01*
X85827443Y-36739540D02*
X97017443Y-27889540D01*
X97017443Y-27889540D02*
X97647443Y-27099540D01*
X97647443Y-27099540D02*
X97667443Y-25249540D01*
X97667443Y-25249540D02*
X97947443Y-23419540D01*
X97947443Y-23419540D02*
X98857443Y-22989540D01*
X98857443Y-22989540D02*
X100357443Y-23435540D01*
X115517443Y-33349540D02*
X118391443Y-30801540D01*
X100357443Y-23435540D02*
X101119443Y-19371540D01*
X101119443Y-19371540D02*
X104675443Y-18101540D01*
X104675443Y-18101540D02*
X115343443Y-17339540D01*
X115343443Y-17339540D02*
X123217443Y-18609540D01*
X123217443Y-18609540D02*
X126265443Y-20895540D01*
X126265443Y-20895540D02*
X127027443Y-25721540D01*
X127027443Y-25721540D02*
X122709443Y-30039540D01*
X122709443Y-30039540D02*
X120677443Y-30801540D01*
X120677443Y-30801540D02*
X119915443Y-30801540D01*
X119915443Y-30801540D02*
X118391443Y-30801540D01*
X124197443Y-75449540D02*
X126232443Y-76959540D01*
X126232443Y-76959540D02*
X129922443Y-79204540D01*
X107247443Y-27919540D02*
X107757443Y-27209540D01*
X107757443Y-27209540D02*
X108057443Y-26979540D01*
X108057443Y-26979540D02*
X110247443Y-26989540D01*
X110247443Y-26989540D02*
X110777443Y-26689540D01*
X110777443Y-26689540D02*
X111735000Y-25691000D01*
X108947443Y-32719540D02*
X107767443Y-30509540D01*
X105387443Y-29139540D02*
X107247443Y-27919540D01*
X113857443Y-36261207D02*
X114357443Y-38389540D01*
X114357443Y-38389540D02*
X114537443Y-38669540D01*
X108947443Y-32719540D02*
X110687443Y-33739540D01*
X110687443Y-33739540D02*
X113237443Y-35279540D01*
X113237443Y-35279540D02*
X113857443Y-36261207D01*
X113857443Y-36261207D02*
X113717443Y-36039540D01*
X118057443Y-48999540D02*
X121337443Y-52049540D01*
X121337443Y-52049540D02*
X121967443Y-52779540D01*
X121967443Y-52779540D02*
X123307443Y-53939540D01*
X125537443Y-55249540D02*
X126957443Y-58339540D01*
X126957443Y-58339540D02*
X127637443Y-59514540D01*
X123307443Y-53939540D02*
X125537443Y-55249540D01*
X97127443Y-58219540D02*
X95367443Y-56389540D01*
X95367443Y-56389540D02*
X91137443Y-53459540D01*
X88467443Y-47749540D02*
X86387443Y-46803540D01*
X104687443Y-68329540D02*
X104517443Y-68179540D01*
X119157443Y-72949540D02*
X113047443Y-70669540D01*
X113047443Y-70669540D02*
X107167443Y-69509540D01*
X107167443Y-69509540D02*
X104687443Y-68329540D01*
X93634450Y-36786321D02*
X96897443Y-37089540D01*
X96897443Y-37089540D02*
X98437443Y-37429540D01*
X98437443Y-37429540D02*
X100147443Y-37929540D01*
X100147443Y-37929540D02*
X102717443Y-38909540D01*
X108767443Y-40299540D02*
X103607443Y-39949540D01*
X103607443Y-39949540D02*
X102717443Y-38909540D01*
X93647443Y-36779540D02*
X93634450Y-36786321D01*
X93634450Y-36786321D02*
X90677443Y-38329540D01*
X90677443Y-38329540D02*
X88087443Y-41699540D01*
X88087443Y-41699540D02*
X86387443Y-46803540D01*
X112527443Y-31729540D02*
X113097443Y-33049540D01*
X109617443Y-30109540D02*
X112527443Y-31729540D01*
X107357443Y-29569540D02*
X109617443Y-30109540D01*
X105067443Y-29799540D02*
X107357443Y-29569540D01*
X104157443Y-32659540D02*
X105067443Y-29799540D01*
X103377443Y-32769540D02*
X104157443Y-32659540D01*
X102357443Y-32069540D02*
X103377443Y-32769540D01*
X99447443Y-28139540D02*
X102357443Y-32069540D01*
X97917443Y-28509540D02*
X99447443Y-28139540D01*
X86477443Y-37269540D02*
X97917443Y-28509540D01*
X83017443Y-43849540D02*
X86477443Y-37269540D01*
X83647443Y-46859540D02*
X83017443Y-43849540D01*
X84067443Y-48479540D02*
X83647443Y-46859540D01*
X85367443Y-61629540D02*
X88457443Y-58929540D01*
X109797443Y-41819540D02*
X111057443Y-39799540D01*
X111057443Y-39799540D02*
X110797443Y-38349540D01*
X110797443Y-38349540D02*
X109717443Y-37079540D01*
X109717443Y-37079540D02*
X108587443Y-35979540D01*
X108587443Y-35979540D02*
X109507443Y-34209540D01*
X109507443Y-34209540D02*
X109757443Y-34129540D01*
X87577443Y-38159540D02*
X84447443Y-44199540D01*
X84447443Y-44199540D02*
X85067443Y-45089540D01*
X94857443Y-33879540D02*
X92437443Y-35009540D01*
X92437443Y-35009540D02*
X87577443Y-38159540D01*
X104947443Y-33859540D02*
X107147443Y-34239540D01*
X102457443Y-33479540D02*
X104947443Y-33859540D01*
X100837443Y-32409540D02*
X102457443Y-33479540D01*
X98937443Y-31959540D02*
X100837443Y-32409540D01*
X94857443Y-33879540D02*
X97147443Y-32959540D01*
X106587443Y-37449540D02*
X102127443Y-36849540D01*
X102987443Y-38219540D02*
X103657443Y-38929540D01*
X103657443Y-38929540D02*
X105177443Y-39369540D01*
X105177443Y-39369540D02*
X110277443Y-39209540D01*
X95847443Y-35749540D02*
X98247443Y-36749540D01*
X98247443Y-36749540D02*
X100157443Y-37279540D01*
X100157443Y-37279540D02*
X102837443Y-38119540D01*
X102837443Y-38119540D02*
X102987443Y-38219540D01*
X85727443Y-44759540D02*
X85557443Y-44129540D01*
X85557443Y-44129540D02*
X88167443Y-38579540D01*
X88167443Y-38579540D02*
X92617443Y-35779540D01*
X92617443Y-35779540D02*
X95847443Y-35749540D01*
X102567443Y-67339540D02*
X102957443Y-70669540D01*
X102957443Y-70669540D02*
X100357443Y-74019540D01*
X99697443Y-53399540D02*
X102497443Y-51519540D01*
X102497443Y-51519540D02*
X103707443Y-49859540D01*
X98737443Y-56359540D02*
X98907443Y-54759540D01*
X98907443Y-54759540D02*
X99697443Y-53399540D01*
X102567443Y-67339540D02*
X100457443Y-61749540D01*
X100457443Y-61749540D02*
X99267443Y-58379540D01*
X99267443Y-58379540D02*
X98737443Y-56359540D01*
X103707443Y-49859540D02*
X105217443Y-49229540D01*
X123957443Y-59729540D02*
X123987443Y-57439540D01*
X128367443Y-36487833D02*
X126577443Y-36689540D01*
X126577443Y-36689540D02*
X125197443Y-36029540D01*
X125197443Y-36029540D02*
X123667443Y-35959540D01*
X123667443Y-35959540D02*
X118307443Y-37619540D01*
X136367443Y-56984540D02*
X138412443Y-54924540D01*
X138412443Y-54924540D02*
X138532443Y-54804540D01*
X139127443Y-53329540D02*
X140027443Y-51819540D01*
X140027443Y-51819540D02*
X140607443Y-50409540D01*
X139207443Y-48529540D02*
X138097443Y-43949540D01*
X138097443Y-43949540D02*
X136427443Y-40439540D01*
X136427443Y-40439540D02*
X134277443Y-38249540D01*
X134277443Y-38249540D02*
X132087443Y-36699540D01*
X132087443Y-36699540D02*
X128367443Y-36487833D01*
X128367443Y-36487833D02*
X128397443Y-36489540D01*
X129737443Y-57254540D02*
X136367443Y-56984540D01*
X137172443Y-57104540D02*
X139142443Y-55064540D01*
X139777443Y-53739540D02*
X141687443Y-50569540D01*
X141687443Y-50569540D02*
X141797443Y-49439540D01*
X141797443Y-49439540D02*
X141127443Y-48339540D01*
X141127443Y-48339540D02*
X140397443Y-43059540D01*
X140397443Y-43059540D02*
X138807443Y-39539540D01*
X138807443Y-39539540D02*
X133247443Y-34579540D01*
X133247443Y-34579540D02*
X132207443Y-34259540D01*
X132207443Y-34259540D02*
X126367443Y-35079540D01*
X126367443Y-35079540D02*
X119387443Y-34359540D01*
X130467443Y-60369540D02*
X128597443Y-60339540D01*
X129202443Y-58899540D02*
X128597443Y-56724540D01*
X128597443Y-56724540D02*
X130417443Y-56189540D01*
X133607443Y-55859540D02*
X136807443Y-55534540D01*
X130417443Y-56189540D02*
X133607443Y-55859540D01*
X136807443Y-55534540D02*
X137997443Y-54324540D01*
X136807443Y-62009540D02*
X138927443Y-64179540D01*
X136837443Y-47849540D02*
X136947443Y-43889540D01*
X136947443Y-43889540D02*
X135577443Y-41289540D01*
X124687443Y-36849540D02*
X125167443Y-37159540D01*
X125167443Y-37159540D02*
X126567443Y-37339540D01*
X126567443Y-37339540D02*
X130587443Y-37479540D01*
X130587443Y-37479540D02*
X132067443Y-38039540D01*
X135577443Y-41289540D02*
X132067443Y-38039540D01*
X139357443Y-51579540D02*
X139254926Y-51418496D01*
X139254926Y-51418496D02*
X139254926Y-51418497D01*
X126937443Y-35939540D02*
X132507443Y-35139540D01*
X132507443Y-35139540D02*
X137887443Y-39619540D01*
X137887443Y-39619540D02*
X140097443Y-45229540D01*
X140097443Y-45229540D02*
X140387443Y-48689540D01*
X140387443Y-48689540D02*
X139254926Y-51418497D01*
X139254926Y-51418497D02*
X138727443Y-52689540D01*
X138727443Y-52689540D02*
X137717443Y-52449540D01*
X149125443Y-50613540D02*
X144807443Y-49597540D01*
X74703443Y-50613540D02*
X79277443Y-51899540D01*
X87403443Y-50105540D02*
X90705443Y-52391540D01*
X90705443Y-52391540D02*
X95023443Y-53661540D01*
X95023443Y-53661540D02*
X99137443Y-52929540D01*
X99137443Y-52929540D02*
X101987443Y-51039540D01*
X101987443Y-51039540D02*
X103147443Y-49449540D01*
X103147443Y-49449540D02*
X104675443Y-48327540D01*
X104675443Y-48327540D02*
X119915443Y-48327540D01*
X119915443Y-48327540D02*
X120931443Y-50613540D01*
X120931443Y-50613540D02*
X122201443Y-52137540D01*
X122201443Y-52137540D02*
X123725443Y-53407540D01*
X123725443Y-53407540D02*
X125757443Y-54423540D01*
X125757443Y-54423540D02*
X128551443Y-54677540D01*
X128551443Y-54677540D02*
X131853443Y-54423540D01*
X131853443Y-54423540D02*
X132615443Y-53915540D01*
X135327443Y-51179540D02*
X137441443Y-50105540D01*
X144117443Y-67279540D02*
X143597443Y-64459540D01*
X143597443Y-64459540D02*
X143497443Y-62769540D01*
X143497443Y-62769540D02*
X144067443Y-61219540D01*
X144067443Y-61219540D02*
X144677443Y-58399540D01*
X144677443Y-58399540D02*
X144217443Y-51969540D01*
X144217443Y-51969540D02*
X143467443Y-47439540D01*
X143467443Y-47439540D02*
X139437443Y-39199540D01*
X139437443Y-39199540D02*
X134277443Y-34039540D01*
X134277443Y-34039540D02*
X131697443Y-32999540D01*
X131697443Y-32999540D02*
X118017443Y-33379540D01*
X133607443Y-90689540D02*
X133657443Y-81719540D01*
X133657443Y-81719540D02*
X140017443Y-76999540D01*
X140017443Y-76999540D02*
X142037443Y-72309540D01*
X142037443Y-72309540D02*
X144117443Y-67279540D01*
X121507443Y-84909540D02*
X123937443Y-87419540D01*
X123937443Y-87419540D02*
X128547443Y-90219540D01*
X128547443Y-90219540D02*
X133607443Y-90689540D01*
X111417443Y-37509540D02*
X111417443Y-36559540D01*
X110917443Y-42859540D02*
X111967443Y-39229540D01*
X111967443Y-39229540D02*
X111417443Y-37509540D01*
X111417443Y-37509540D02*
X111417443Y-37459540D01*
X93547443Y-80799540D02*
X88207443Y-85499540D01*
X128912443Y-84549540D02*
X127192443Y-83819540D01*
X127192443Y-83819540D02*
X126737443Y-82189540D01*
X126737443Y-82189540D02*
X123528629Y-83303681D01*
X132107443Y-81093540D02*
X131002443Y-83899540D01*
X131002443Y-83899540D02*
X128912443Y-84549540D01*
X132107443Y-81093540D02*
X137377443Y-75729540D01*
X137377443Y-75729540D02*
X142427443Y-65089540D01*
X137937443Y-53479540D02*
X135409443Y-53153540D01*
X143852970Y-58956824D02*
X143597443Y-58439540D01*
X142707443Y-62609540D02*
X143852970Y-58956824D01*
X142427443Y-65089540D02*
X142707443Y-62609540D01*
X139207443Y-54249540D02*
X137937443Y-53479540D01*
X143597443Y-58439540D02*
X139207443Y-54249540D01*
M02*
