G04 #@! TF.FileFunction,Profile,NP*
%FSLAX46Y46*%
G04 Gerber Fmt 4.6, Leading zero omitted, Abs format (unit mm)*
G04 Created by KiCad (PCBNEW 4.0.7-e2-6376~58~ubuntu16.04.1) date Sun Nov 19 08:32:38 2017*
%MOMM*%
%LPD*%
G01*
G04 APERTURE LIST*
%ADD10C,0.100000*%
%ADD11C,0.200000*%
G04 APERTURE END LIST*
D10*
D11*
X116967600Y-13996308D02*
X119615792Y-14308616D01*
X119615792Y-14308616D02*
X122208720Y-14768578D01*
X122208720Y-14768578D02*
X124724851Y-15376233D01*
X124724851Y-15376233D02*
X126439669Y-15893011D01*
X126439669Y-15893011D02*
X127780036Y-16332499D01*
X127780036Y-16332499D02*
X127780912Y-21850167D01*
X127780912Y-21850167D02*
X127781788Y-27367836D01*
X127781788Y-27367836D02*
X128646120Y-27838206D01*
X128646120Y-27838206D02*
X130119442Y-28703546D01*
X130119442Y-28703546D02*
X131626322Y-29707531D01*
X131626322Y-29707531D02*
X133125546Y-30817631D01*
X133125546Y-30817631D02*
X134575899Y-32001318D01*
X134575899Y-32001318D02*
X135936166Y-33226064D01*
X135936166Y-33226064D02*
X137165134Y-34459339D01*
X137165134Y-34459339D02*
X137507061Y-34831683D01*
X137507061Y-34831683D02*
X138981706Y-36568654D01*
X138981706Y-36568654D02*
X140274547Y-38299484D01*
X140274547Y-38299484D02*
X141391292Y-40033488D01*
X141391292Y-40033488D02*
X142337649Y-41779982D01*
X142337649Y-41779982D02*
X143119328Y-43548280D01*
X143119328Y-43548280D02*
X143516882Y-44639116D01*
X143516882Y-44639116D02*
X143575169Y-44708158D01*
X143575169Y-44708158D02*
X143716412Y-44759821D01*
X143716412Y-44759821D02*
X143970368Y-44799672D01*
X143970368Y-44799672D02*
X144366800Y-44833280D01*
X144366800Y-44833280D02*
X144647293Y-44850604D01*
X144647293Y-44850604D02*
X145806503Y-44957416D01*
X145806503Y-44957416D02*
X146962265Y-45140240D01*
X146962265Y-45140240D02*
X148072225Y-45389151D01*
X148072225Y-45389151D02*
X149094028Y-45694227D01*
X149094028Y-45694227D02*
X149985318Y-46045543D01*
X149985318Y-46045543D02*
X150213372Y-46154677D01*
X150213372Y-46154677D02*
X150925631Y-46564060D01*
X150925631Y-46564060D02*
X151660966Y-47077329D01*
X151660966Y-47077329D02*
X152346543Y-47640161D01*
X152346543Y-47640161D02*
X152816154Y-48095919D01*
X152816154Y-48095919D02*
X153613840Y-49073128D01*
X153613840Y-49073128D02*
X154259393Y-50141583D01*
X154259393Y-50141583D02*
X154755269Y-51308271D01*
X154755269Y-51308271D02*
X155103927Y-52580176D01*
X155103927Y-52580176D02*
X155307823Y-53964285D01*
X155307823Y-53964285D02*
X155369681Y-55354873D01*
X155369681Y-55354873D02*
X155335614Y-56491445D01*
X155335614Y-56491445D02*
X155223288Y-57527416D01*
X155223288Y-57527416D02*
X155020703Y-58538282D01*
X155020703Y-58538282D02*
X154715859Y-59599537D01*
X154715859Y-59599537D02*
X154675348Y-59723260D01*
X154675348Y-59723260D02*
X154054626Y-61303721D01*
X154054626Y-61303721D02*
X153251617Y-62848916D01*
X153251617Y-62848916D02*
X152269564Y-64354874D01*
X152269564Y-64354874D02*
X151111705Y-65817626D01*
X151111705Y-65817626D02*
X149781282Y-67233200D01*
X149781282Y-67233200D02*
X148281536Y-68597628D01*
X148281536Y-68597628D02*
X146615707Y-69906937D01*
X146615707Y-69906937D02*
X146007991Y-70341690D01*
X146007991Y-70341690D02*
X145547481Y-70656739D01*
X145547481Y-70656739D02*
X145063718Y-70976540D01*
X145063718Y-70976540D02*
X144617610Y-71261411D01*
X144617610Y-71261411D02*
X144301837Y-71453274D01*
X144301837Y-71453274D02*
X143605877Y-71859046D01*
X143605877Y-71859046D02*
X143112292Y-73084923D01*
X143112292Y-73084923D02*
X142572463Y-74348062D01*
X142572463Y-74348062D02*
X142003531Y-75534704D01*
X142003531Y-75534704D02*
X141424336Y-76607669D01*
X141424336Y-76607669D02*
X140880408Y-77489848D01*
X140880408Y-77489848D02*
X140254482Y-78430062D01*
X140254482Y-78430062D02*
X140814111Y-78902843D01*
X140814111Y-78902843D02*
X141303525Y-79337686D01*
X141303525Y-79337686D02*
X141863514Y-79870454D01*
X141863514Y-79870454D02*
X142460775Y-80466328D01*
X142460775Y-80466328D02*
X143062007Y-81090487D01*
X143062007Y-81090487D02*
X143633906Y-81708110D01*
X143633906Y-81708110D02*
X144143170Y-82284378D01*
X144143170Y-82284378D02*
X144556498Y-82784471D01*
X144556498Y-82784471D02*
X144678683Y-82943544D01*
X144678683Y-82943544D02*
X145655874Y-84375666D01*
X145655874Y-84375666D02*
X146459595Y-85822118D01*
X146459595Y-85822118D02*
X147087610Y-87275980D01*
X147087610Y-87275980D02*
X147537683Y-88730331D01*
X147537683Y-88730331D02*
X147807580Y-90178251D01*
X147807580Y-90178251D02*
X147895066Y-91612819D01*
X147895066Y-91612819D02*
X147835269Y-92717766D01*
X147835269Y-92717766D02*
X147778307Y-93133016D01*
X147778307Y-93133016D02*
X147689056Y-93636150D01*
X147689056Y-93636150D02*
X147575287Y-94195767D01*
X147575287Y-94195767D02*
X147444768Y-94780464D01*
X147444768Y-94780464D02*
X147305269Y-95358841D01*
X147305269Y-95358841D02*
X147164560Y-95899495D01*
X147164560Y-95899495D02*
X147030411Y-96371025D01*
X147030411Y-96371025D02*
X146910592Y-96742030D01*
X146910592Y-96742030D02*
X146812872Y-96981108D01*
X146812872Y-96981108D02*
X146762721Y-97052506D01*
X146762721Y-97052506D02*
X146477626Y-97224161D01*
X146477626Y-97224161D02*
X146051398Y-97443783D01*
X146051398Y-97443783D02*
X145519945Y-97695652D01*
X145519945Y-97695652D02*
X144919175Y-97964045D01*
X144919175Y-97964045D02*
X144284995Y-98233242D01*
X144284995Y-98233242D02*
X143653314Y-98487521D01*
X143653314Y-98487521D02*
X143060040Y-98711161D01*
X143060040Y-98711161D02*
X142649140Y-98853528D01*
X142649140Y-98853528D02*
X140929083Y-99364385D01*
X140929083Y-99364385D02*
X139272561Y-99738300D01*
X139272561Y-99738300D02*
X137624328Y-99984243D01*
X137624328Y-99984243D02*
X135929136Y-100111184D01*
X135929136Y-100111184D02*
X134761905Y-100134132D01*
X134761905Y-100134132D02*
X132852335Y-100068708D01*
X132852335Y-100068708D02*
X131030298Y-99866880D01*
X131030298Y-99866880D02*
X129251974Y-99520311D01*
X129251974Y-99520311D02*
X127473545Y-99020666D01*
X127473545Y-99020666D02*
X125851518Y-98439056D01*
X125851518Y-98439056D02*
X125209813Y-98170580D01*
X125209813Y-98170580D02*
X124483018Y-97839193D01*
X124483018Y-97839193D02*
X123719219Y-97469094D01*
X123719219Y-97469094D02*
X122966503Y-97084478D01*
X122966503Y-97084478D02*
X122272958Y-96709542D01*
X122272958Y-96709542D02*
X121686671Y-96368483D01*
X121686671Y-96368483D02*
X121485560Y-96242182D01*
X121485560Y-96242182D02*
X120903737Y-95848243D01*
X120903737Y-95848243D02*
X120231524Y-95364615D01*
X120231524Y-95364615D02*
X119517654Y-94828274D01*
X119517654Y-94828274D02*
X118810857Y-94276201D01*
X118810857Y-94276201D02*
X118159868Y-93745372D01*
X118159868Y-93745372D02*
X117866784Y-93496241D01*
X117866784Y-93496241D02*
X117031680Y-92773955D01*
X117031680Y-92773955D02*
X115467895Y-92930605D01*
X115467895Y-92930605D02*
X114368291Y-93015617D01*
X114368291Y-93015617D02*
X113144804Y-93066849D01*
X113144804Y-93066849D02*
X111858640Y-93084307D01*
X111858640Y-93084307D02*
X110571008Y-93067995D01*
X110571008Y-93067995D02*
X109343113Y-93017917D01*
X109343113Y-93017917D02*
X108236163Y-92934079D01*
X108236163Y-92934079D02*
X108195570Y-92930054D01*
X108195570Y-92930054D02*
X106626289Y-92772852D01*
X106626289Y-92772852D02*
X105984829Y-93346574D01*
X105984829Y-93346574D02*
X104541760Y-94564605D01*
X104541760Y-94564605D02*
X103100259Y-95629733D01*
X103100259Y-95629733D02*
X101616675Y-96571685D01*
X101616675Y-96571685D02*
X100047356Y-97420190D01*
X100047356Y-97420190D02*
X99887073Y-97499550D01*
X99887073Y-97499550D02*
X98483473Y-98154322D01*
X98483473Y-98154322D02*
X97162296Y-98693463D01*
X97162296Y-98693463D02*
X95872437Y-99133894D01*
X95872437Y-99133894D02*
X94562790Y-99492536D01*
X94562790Y-99492536D02*
X93182249Y-99786309D01*
X93182249Y-99786309D02*
X92742583Y-99865016D01*
X92742583Y-99865016D02*
X92284438Y-99935884D01*
X92284438Y-99935884D02*
X91815452Y-99990076D01*
X91815452Y-99990076D02*
X91298039Y-100030043D01*
X91298039Y-100030043D02*
X90694609Y-100058236D01*
X90694609Y-100058236D02*
X89967577Y-100077108D01*
X89967577Y-100077108D02*
X89350777Y-100086250D01*
X89350777Y-100086250D02*
X88691100Y-100092048D01*
X88691100Y-100092048D02*
X88070776Y-100094048D01*
X88070776Y-100094048D02*
X87522338Y-100092415D01*
X87522338Y-100092415D02*
X87078322Y-100087314D01*
X87078322Y-100087314D02*
X86771264Y-100078910D01*
X86771264Y-100078910D02*
X86669666Y-100072674D01*
X86669666Y-100072674D02*
X85548278Y-99931307D01*
X85548278Y-99931307D02*
X84324636Y-99713627D01*
X84324636Y-99713627D02*
X83061540Y-99433635D01*
X83061540Y-99433635D02*
X81821790Y-99105333D01*
X81821790Y-99105333D02*
X80668186Y-98742725D01*
X80668186Y-98742725D02*
X80601888Y-98719768D01*
X80601888Y-98719768D02*
X80198509Y-98569282D01*
X80198509Y-98569282D02*
X79708122Y-98370977D01*
X79708122Y-98370977D02*
X79166727Y-98141075D01*
X79166727Y-98141075D02*
X78610320Y-97895798D01*
X78610320Y-97895798D02*
X78074899Y-97651367D01*
X78074899Y-97651367D02*
X77596462Y-97424005D01*
X77596462Y-97424005D02*
X77211007Y-97229932D01*
X77211007Y-97229932D02*
X76954530Y-97085371D01*
X76954530Y-97085371D02*
X76912380Y-97057158D01*
X76912380Y-97057158D02*
X76839937Y-96930193D01*
X76839937Y-96930193D02*
X76739239Y-96650008D01*
X76739239Y-96650008D02*
X76617996Y-96248064D01*
X76617996Y-96248064D02*
X76483916Y-95755820D01*
X76483916Y-95755820D02*
X76344708Y-95204738D01*
X76344708Y-95204738D02*
X76208081Y-94626276D01*
X76208081Y-94626276D02*
X76081743Y-94051894D01*
X76081743Y-94051894D02*
X75973403Y-93513054D01*
X75973403Y-93513054D02*
X75890770Y-93041214D01*
X75890770Y-93041214D02*
X75844791Y-92700238D01*
X75844791Y-92700238D02*
X75791008Y-91285504D01*
X75791008Y-91285504D02*
X75919782Y-89854427D01*
X75919782Y-89854427D02*
X76227117Y-88415100D01*
X76227117Y-88415100D02*
X76709016Y-86975613D01*
X76709016Y-86975613D02*
X77361482Y-85544059D01*
X77361482Y-85544059D02*
X78180517Y-84128531D01*
X78180517Y-84128531D02*
X79162125Y-82737118D01*
X79162125Y-82737118D02*
X80302308Y-81377915D01*
X80302308Y-81377915D02*
X81597070Y-80059011D01*
X81597070Y-80059011D02*
X82485253Y-79256826D01*
X82485253Y-79256826D02*
X83434391Y-78437410D01*
X83434391Y-78437410D02*
X82834084Y-77550030D01*
X82834084Y-77550030D02*
X82504679Y-77025017D01*
X82504679Y-77025017D02*
X82131944Y-76367216D01*
X82131944Y-76367216D02*
X81737876Y-75620281D01*
X81737876Y-75620281D02*
X81344471Y-74827868D01*
X81344471Y-74827868D02*
X80973724Y-74033632D01*
X80973724Y-74033632D02*
X80647632Y-73281228D01*
X80647632Y-73281228D02*
X80507398Y-72932282D01*
X80507398Y-72932282D02*
X80153982Y-72024136D01*
X80153982Y-72024136D02*
X79172378Y-71439410D01*
X79172378Y-71439410D02*
X77740912Y-70522743D01*
X77740912Y-70522743D02*
X76334289Y-69498763D01*
X76334289Y-69498763D02*
X74986228Y-68396287D01*
X74986228Y-68396287D02*
X73730451Y-67244132D01*
X73730451Y-67244132D02*
X72600679Y-66071115D01*
X72600679Y-66071115D02*
X71837195Y-65170998D01*
X71837195Y-65170998D02*
X70807265Y-63767491D01*
X70807265Y-63767491D02*
X69952178Y-62360759D01*
X69952178Y-62360759D02*
X69259589Y-60928606D01*
X69259589Y-60928606D02*
X68802869Y-59715494D01*
X68802869Y-59715494D02*
X68489489Y-58651358D01*
X68489489Y-58651358D02*
X68362597Y-58041018D01*
X100637126Y-58041018D02*
X100678530Y-59274093D01*
X100678530Y-59274093D02*
X100873156Y-60529308D01*
X100873156Y-60529308D02*
X101216919Y-61784192D01*
X101216919Y-61784192D02*
X101705738Y-63016274D01*
X101705738Y-63016274D02*
X102335528Y-64203082D01*
X102335528Y-64203082D02*
X102662559Y-64714496D01*
X102662559Y-64714496D02*
X103502019Y-65792710D01*
X103502019Y-65792710D02*
X104485308Y-66769512D01*
X104485308Y-66769512D02*
X105589054Y-67629763D01*
X105589054Y-67629763D02*
X106789886Y-68358328D01*
X106789886Y-68358328D02*
X108064431Y-68940069D01*
X108064431Y-68940069D02*
X109389318Y-69359850D01*
X109389318Y-69359850D02*
X110056206Y-69502990D01*
X110056206Y-69502990D02*
X110860820Y-69604368D01*
X110860820Y-69604368D02*
X111762378Y-69644994D01*
X111762378Y-69644994D02*
X112685260Y-69625596D01*
X112685260Y-69625596D02*
X113553848Y-69546902D01*
X113553848Y-69546902D02*
X114052426Y-69464516D01*
X114052426Y-69464516D02*
X115490401Y-69079416D01*
X115490401Y-69079416D02*
X116838994Y-68533270D01*
X116838994Y-68533270D02*
X118089010Y-67835235D01*
X118089010Y-67835235D02*
X119231255Y-66994469D01*
X119231255Y-66994469D02*
X120256535Y-66020129D01*
X120256535Y-66020129D02*
X121155656Y-64921373D01*
X121155656Y-64921373D02*
X121919425Y-63707359D01*
X121919425Y-63707359D02*
X122538647Y-62387244D01*
X122538647Y-62387244D02*
X123004128Y-60970186D01*
X123004128Y-60970186D02*
X123137166Y-60415688D01*
X123137166Y-60415688D02*
X123231684Y-59823367D01*
X123231684Y-59823367D02*
X123289121Y-59127592D01*
X123289121Y-59127592D02*
X123309572Y-58384018D01*
X123309572Y-58384018D02*
X123293127Y-57648297D01*
X123293127Y-57648297D02*
X123239880Y-56976083D01*
X123239880Y-56976083D02*
X123149922Y-56423031D01*
X123149922Y-56423031D02*
X123130413Y-56342651D01*
X123130413Y-56342651D02*
X122784294Y-55298895D01*
X122784294Y-55298895D02*
X122313115Y-54371415D01*
X122313115Y-54371415D02*
X121711889Y-53556886D01*
X121711889Y-53556886D02*
X120975631Y-52851983D01*
X120975631Y-52851983D02*
X120099354Y-52253381D01*
X120099354Y-52253381D02*
X119078073Y-51757755D01*
X119078073Y-51757755D02*
X117906803Y-51361779D01*
X117906803Y-51361779D02*
X116580556Y-51062131D01*
X116580556Y-51062131D02*
X115094348Y-50855483D01*
X115094348Y-50855483D02*
X114869108Y-50833399D01*
X114869108Y-50833399D02*
X114295501Y-50794170D01*
X114295501Y-50794170D02*
X113595868Y-50769066D01*
X113595868Y-50769066D02*
X112806000Y-50757365D01*
X112806000Y-50757365D02*
X111961693Y-50758344D01*
X111961693Y-50758344D02*
X111098739Y-50771281D01*
X111098739Y-50771281D02*
X110252932Y-50795454D01*
X110252932Y-50795454D02*
X109460066Y-50830141D01*
X109460066Y-50830141D02*
X108755934Y-50874619D01*
X108755934Y-50874619D02*
X108176329Y-50928166D01*
X108176329Y-50928166D02*
X107836332Y-50975310D01*
X107836332Y-50975310D02*
X106567578Y-51234365D01*
X106567578Y-51234365D02*
X105462653Y-51548142D01*
X105462653Y-51548142D02*
X104503048Y-51924965D01*
X104503048Y-51924965D02*
X103670255Y-52373157D01*
X103670255Y-52373157D02*
X102945766Y-52901042D01*
X102945766Y-52901042D02*
X102399823Y-53420174D01*
X102399823Y-53420174D02*
X101836800Y-54099341D01*
X101836800Y-54099341D02*
X101407366Y-54807970D01*
X101407366Y-54807970D02*
X101068632Y-55618432D01*
X101068632Y-55618432D02*
X101030311Y-55731169D01*
X101030311Y-55731169D02*
X100753025Y-56852553D01*
X100753025Y-56852553D02*
X100637126Y-58041018D01*
X68362597Y-58041018D02*
X68278531Y-57636669D01*
X68278531Y-57636669D02*
X68158544Y-56598529D01*
X68158544Y-56598529D02*
X68118077Y-55464040D01*
X68118077Y-55464040D02*
X68117944Y-55354873D01*
X68117944Y-55354873D02*
X68191154Y-53845711D01*
X68191154Y-53845711D02*
X68407788Y-52456195D01*
X68407788Y-52456195D02*
X68769321Y-51182475D01*
X68769321Y-51182475D02*
X69277227Y-50020706D01*
X69277227Y-50020706D02*
X69932983Y-48967038D01*
X69932983Y-48967038D02*
X70738062Y-48017626D01*
X70738062Y-48017626D02*
X71045771Y-47718167D01*
X71045771Y-47718167D02*
X72031151Y-46919622D01*
X72031151Y-46919622D02*
X73127072Y-46253251D01*
X73127072Y-46253251D02*
X74340331Y-45716585D01*
X74340331Y-45716585D02*
X75677724Y-45307153D01*
X75677724Y-45307153D02*
X77146048Y-45022486D01*
X77146048Y-45022486D02*
X78752099Y-44860116D01*
X78752099Y-44860116D02*
X78940766Y-44849442D01*
X78940766Y-44849442D02*
X79444547Y-44818779D01*
X79444547Y-44818779D02*
X79789249Y-44785518D01*
X79789249Y-44785518D02*
X80003925Y-44744620D01*
X80003925Y-44744620D02*
X80117625Y-44691048D01*
X80117625Y-44691048D02*
X80154301Y-44638989D01*
X80154301Y-44638989D02*
X80871991Y-42805417D01*
X80871991Y-42805417D02*
X81718653Y-41042855D01*
X81718653Y-41042855D02*
X82704274Y-39336482D01*
X82704274Y-39336482D02*
X83838844Y-37671474D01*
X83838844Y-37671474D02*
X85132350Y-36033011D01*
X85132350Y-36033011D02*
X86594780Y-34406271D01*
X86594780Y-34406271D02*
X87991807Y-33008586D01*
X87991807Y-33008586D02*
X89324024Y-31808817D01*
X89324024Y-31808817D02*
X90766335Y-30646897D01*
X90766335Y-30646897D02*
X92276663Y-29552537D01*
X92276663Y-29552537D02*
X93812932Y-28555451D01*
X93812932Y-28555451D02*
X95333067Y-27685351D01*
X95333067Y-27685351D02*
X96046791Y-27320481D01*
X96046791Y-27320481D02*
X96910213Y-26897465D01*
X96910213Y-26897465D02*
X96915826Y-22625115D01*
X101721518Y-22625115D02*
X101721518Y-24990891D01*
X101721518Y-24990891D02*
X101933184Y-24932661D01*
X101933184Y-24932661D02*
X103651523Y-24490150D01*
X103651523Y-24490150D02*
X105261337Y-24142782D01*
X105261337Y-24142782D02*
X106812500Y-23884164D01*
X106812500Y-23884164D02*
X108354885Y-23707900D01*
X108354885Y-23707900D02*
X109938364Y-23607596D01*
X109938364Y-23607596D02*
X111612810Y-23576855D01*
X111612810Y-23576855D02*
X112445962Y-23584628D01*
X112445962Y-23584628D02*
X114088246Y-23637393D01*
X114088246Y-23637393D02*
X115593228Y-23741099D01*
X115593228Y-23741099D02*
X117006466Y-23902380D01*
X117006466Y-23902380D02*
X118373514Y-24127870D01*
X118373514Y-24127870D02*
X119739928Y-24424202D01*
X119739928Y-24424202D02*
X121151265Y-24798011D01*
X121151265Y-24798011D02*
X121524110Y-24906613D01*
X121524110Y-24906613D02*
X122016826Y-25051043D01*
X122016826Y-25051043D02*
X122450078Y-25175220D01*
X122450078Y-25175220D02*
X122789906Y-25269629D01*
X122789906Y-25269629D02*
X123002347Y-25324753D01*
X123002347Y-25324753D02*
X123052814Y-25334900D01*
X123052814Y-25334900D02*
X123088912Y-25297890D01*
X123088912Y-25297890D02*
X123117341Y-25168814D01*
X123117341Y-25168814D02*
X123138842Y-24931204D01*
X123138842Y-24931204D02*
X123154154Y-24568593D01*
X123154154Y-24568593D02*
X123164017Y-24064514D01*
X123164017Y-24064514D02*
X123169173Y-23402498D01*
X123169173Y-23402498D02*
X123170406Y-22718710D01*
X123170406Y-22718710D02*
X123170406Y-20092176D01*
X123170406Y-20092176D02*
X122535406Y-19949369D01*
X122535406Y-19949369D02*
X120910354Y-19631150D01*
X120910354Y-19631150D02*
X119146332Y-19371630D01*
X119146332Y-19371630D02*
X117283871Y-19173121D01*
X117283871Y-19173121D02*
X115363503Y-19037937D01*
X115363503Y-19037937D02*
X113425758Y-18968389D01*
X113425758Y-18968389D02*
X111511167Y-18966792D01*
X111511167Y-18966792D02*
X109660262Y-19035458D01*
X109660262Y-19035458D02*
X108306703Y-19137409D01*
X108306703Y-19137409D02*
X107586549Y-19213298D01*
X107586549Y-19213298D02*
X106802170Y-19310230D01*
X106802170Y-19310230D02*
X105983025Y-19423294D01*
X105983025Y-19423294D02*
X105158572Y-19547584D01*
X105158572Y-19547584D02*
X104358271Y-19678192D01*
X104358271Y-19678192D02*
X103611580Y-19810209D01*
X103611580Y-19810209D02*
X102947959Y-19938727D01*
X102947959Y-19938727D02*
X102396868Y-20058838D01*
X102396868Y-20058838D02*
X101987764Y-20165634D01*
X101987764Y-20165634D02*
X101839110Y-20214959D01*
X101839110Y-20214959D02*
X101800795Y-20274764D01*
X101800795Y-20274764D02*
X101771081Y-20433114D01*
X101771081Y-20433114D02*
X101749140Y-20706971D01*
X101749140Y-20706971D02*
X101734146Y-21113298D01*
X101734146Y-21113298D02*
X101725271Y-21669059D01*
X101725271Y-21669059D02*
X101721686Y-22391216D01*
X101721686Y-22391216D02*
X101721518Y-22625115D01*
X96915826Y-22625115D02*
X96916976Y-21750220D01*
X96916976Y-21750220D02*
X96918667Y-20634993D01*
X96918667Y-20634993D02*
X96920918Y-19692983D01*
X96920918Y-19692983D02*
X96924252Y-18909256D01*
X96924252Y-18909256D02*
X96929193Y-18268881D01*
X96929193Y-18268881D02*
X96936266Y-17756925D01*
X96936266Y-17756925D02*
X96945993Y-17358456D01*
X96945993Y-17358456D02*
X96958898Y-17058543D01*
X96958898Y-17058543D02*
X96975506Y-16842252D01*
X96975506Y-16842252D02*
X96996340Y-16694652D01*
X96996340Y-16694652D02*
X97021924Y-16600811D01*
X97021924Y-16600811D02*
X97052781Y-16545796D01*
X97052781Y-16545796D02*
X97089435Y-16514675D01*
X97089435Y-16514675D02*
X97100845Y-16508190D01*
X97100845Y-16508190D02*
X97248484Y-16446624D01*
X97248484Y-16446624D02*
X97539562Y-16338977D01*
X97539562Y-16338977D02*
X97938753Y-16197838D01*
X97938753Y-16197838D02*
X98410730Y-16035796D01*
X98410730Y-16035796D02*
X98691504Y-15941335D01*
X98691504Y-15941335D02*
X101123663Y-15221110D01*
X101123663Y-15221110D02*
X103651278Y-14648277D01*
X103651278Y-14648277D02*
X106252819Y-14222874D01*
X106252819Y-14222874D02*
X108906753Y-13944938D01*
X108906753Y-13944938D02*
X111591549Y-13814507D01*
X111591549Y-13814507D02*
X114285675Y-13831617D01*
X114285675Y-13831617D02*
X116967600Y-13996308D01*
M02*
