G04 #@! TF.FileFunction,Legend,Top*
%FSLAX46Y46*%
G04 Gerber Fmt 4.6, Leading zero omitted, Abs format (unit mm)*
G04 Created by KiCad (PCBNEW 4.0.7-e2-6376~58~ubuntu16.04.1) date Sun Nov 19 08:32:38 2017*
%MOMM*%
%LPD*%
G01*
G04 APERTURE LIST*
%ADD10C,0.100000*%
%ADD11C,0.254000*%
%ADD12C,0.500000*%
%ADD13C,0.010000*%
%ADD14C,0.120000*%
%ADD15C,0.150000*%
G04 APERTURE END LIST*
D10*
D11*
X136177443Y-56951540D02*
X136685443Y-56443540D01*
X135669443Y-56951540D02*
X136177443Y-56951540D01*
X136685443Y-55935540D02*
X136685443Y-56443540D01*
X137193443Y-55935540D02*
X136685443Y-55935540D01*
X136685443Y-55427540D02*
X137193443Y-55935540D01*
X136685443Y-55935540D02*
X136685443Y-55427540D01*
X136177443Y-55935540D02*
X136685443Y-55935540D01*
X135669443Y-56443540D02*
X136177443Y-55935540D01*
X135669443Y-56951540D02*
X135669443Y-56443540D01*
D12*
X107520000Y-18351000D02*
X107155000Y-14996000D01*
X110675000Y-18031000D02*
X110520000Y-14801000D01*
X117575000Y-14881000D02*
X117190000Y-18331000D01*
X121070000Y-15426000D02*
X117575000Y-14881000D01*
X104040000Y-15536000D02*
X104485000Y-18721000D01*
X107165000Y-15036000D02*
X104040000Y-15536000D01*
X110655000Y-18066000D02*
X107525000Y-18321000D01*
X114040000Y-14756000D02*
X110520000Y-14811000D01*
X113985000Y-18051000D02*
X114040000Y-14756000D01*
X117060000Y-18276000D02*
X113985000Y-18051000D01*
X120525000Y-18946000D02*
X121080000Y-15426000D01*
D13*
G36*
X82658473Y-83439123D02*
X82890465Y-83573632D01*
X83199239Y-83768443D01*
X83549423Y-83999526D01*
X83905642Y-84242850D01*
X84232527Y-84474385D01*
X84494703Y-84670101D01*
X84656799Y-84805967D01*
X84691806Y-84851715D01*
X84613158Y-84942139D01*
X84414414Y-85045942D01*
X84341332Y-85073634D01*
X83822102Y-85312484D01*
X83225629Y-85684010D01*
X82579516Y-86164659D01*
X81911369Y-86730879D01*
X81248791Y-87359120D01*
X80619385Y-88025829D01*
X80050757Y-88707454D01*
X79990406Y-88785866D01*
X79663120Y-89200380D01*
X79427514Y-89460675D01*
X79274550Y-89571453D01*
X79195191Y-89537415D01*
X79180398Y-89363264D01*
X79198108Y-89198021D01*
X79462677Y-87993094D01*
X79910396Y-86808044D01*
X80536421Y-85655152D01*
X80687626Y-85421967D01*
X80926376Y-85089436D01*
X81217507Y-84721940D01*
X81534151Y-84348990D01*
X81849441Y-84000096D01*
X82136509Y-83704767D01*
X82368487Y-83492512D01*
X82518508Y-83392843D01*
X82538634Y-83388947D01*
X82658473Y-83439123D01*
X82658473Y-83439123D01*
G37*
X82658473Y-83439123D02*
X82890465Y-83573632D01*
X83199239Y-83768443D01*
X83549423Y-83999526D01*
X83905642Y-84242850D01*
X84232527Y-84474385D01*
X84494703Y-84670101D01*
X84656799Y-84805967D01*
X84691806Y-84851715D01*
X84613158Y-84942139D01*
X84414414Y-85045942D01*
X84341332Y-85073634D01*
X83822102Y-85312484D01*
X83225629Y-85684010D01*
X82579516Y-86164659D01*
X81911369Y-86730879D01*
X81248791Y-87359120D01*
X80619385Y-88025829D01*
X80050757Y-88707454D01*
X79990406Y-88785866D01*
X79663120Y-89200380D01*
X79427514Y-89460675D01*
X79274550Y-89571453D01*
X79195191Y-89537415D01*
X79180398Y-89363264D01*
X79198108Y-89198021D01*
X79462677Y-87993094D01*
X79910396Y-86808044D01*
X80536421Y-85655152D01*
X80687626Y-85421967D01*
X80926376Y-85089436D01*
X81217507Y-84721940D01*
X81534151Y-84348990D01*
X81849441Y-84000096D01*
X82136509Y-83704767D01*
X82368487Y-83492512D01*
X82518508Y-83392843D01*
X82538634Y-83388947D01*
X82658473Y-83439123D01*
G36*
X141301275Y-83493472D02*
X141513754Y-83626942D01*
X141760952Y-83876691D01*
X142060355Y-84221140D01*
X142891459Y-85293399D01*
X143560462Y-86386598D01*
X144060472Y-87486814D01*
X144384601Y-88580123D01*
X144476440Y-89103947D01*
X144498986Y-89424954D01*
X144455093Y-89577454D01*
X144340965Y-89561145D01*
X144152806Y-89375728D01*
X143913740Y-89059345D01*
X143714899Y-88803011D01*
X143416834Y-88451517D01*
X143053121Y-88042981D01*
X142657338Y-87615524D01*
X142458708Y-87407436D01*
X141828053Y-86789369D01*
X141194502Y-86233820D01*
X140584205Y-85760444D01*
X140023310Y-85388896D01*
X139537966Y-85138833D01*
X139350206Y-85070884D01*
X139118064Y-84978932D01*
X138987655Y-84883745D01*
X138977155Y-84855723D01*
X139052427Y-84768577D01*
X139256909Y-84602260D01*
X139561303Y-84378969D01*
X139936311Y-84120897D01*
X140025079Y-84061857D01*
X140485416Y-83760474D01*
X140825779Y-83563265D01*
X141084841Y-83473256D01*
X141301275Y-83493472D01*
X141301275Y-83493472D01*
G37*
X141301275Y-83493472D02*
X141513754Y-83626942D01*
X141760952Y-83876691D01*
X142060355Y-84221140D01*
X142891459Y-85293399D01*
X143560462Y-86386598D01*
X144060472Y-87486814D01*
X144384601Y-88580123D01*
X144476440Y-89103947D01*
X144498986Y-89424954D01*
X144455093Y-89577454D01*
X144340965Y-89561145D01*
X144152806Y-89375728D01*
X143913740Y-89059345D01*
X143714899Y-88803011D01*
X143416834Y-88451517D01*
X143053121Y-88042981D01*
X142657338Y-87615524D01*
X142458708Y-87407436D01*
X141828053Y-86789369D01*
X141194502Y-86233820D01*
X140584205Y-85760444D01*
X140023310Y-85388896D01*
X139537966Y-85138833D01*
X139350206Y-85070884D01*
X139118064Y-84978932D01*
X138987655Y-84883745D01*
X138977155Y-84855723D01*
X139052427Y-84768577D01*
X139256909Y-84602260D01*
X139561303Y-84378969D01*
X139936311Y-84120897D01*
X140025079Y-84061857D01*
X140485416Y-83760474D01*
X140825779Y-83563265D01*
X141084841Y-83473256D01*
X141301275Y-83493472D01*
G36*
X118916772Y-27533268D02*
X119373347Y-27558353D01*
X119765184Y-27596076D01*
X120594732Y-27711519D01*
X121336199Y-27861635D01*
X122011190Y-28059901D01*
X122641312Y-28319798D01*
X123248170Y-28654801D01*
X123853371Y-29078391D01*
X124478520Y-29604044D01*
X125145224Y-30245240D01*
X125875089Y-31015455D01*
X126665735Y-31900750D01*
X127259214Y-32572562D01*
X127777295Y-33138903D01*
X128247005Y-33620654D01*
X128695372Y-34038699D01*
X129149423Y-34413919D01*
X129636186Y-34767196D01*
X130182688Y-35119413D01*
X130815958Y-35491453D01*
X131563023Y-35904197D01*
X132450910Y-36378528D01*
X132483740Y-36395904D01*
X133462389Y-36927189D01*
X134290697Y-37409538D01*
X134993780Y-37861946D01*
X135596752Y-38303407D01*
X136124730Y-38752915D01*
X136602829Y-39229466D01*
X137056164Y-39752054D01*
X137258593Y-40007060D01*
X137529995Y-40350996D01*
X137888671Y-40796590D01*
X138300416Y-41301825D01*
X138731023Y-41824684D01*
X139069545Y-42231540D01*
X139842382Y-43166090D01*
X140498483Y-43985742D01*
X141051257Y-44711475D01*
X141514111Y-45364265D01*
X141900454Y-45965092D01*
X142223693Y-46534933D01*
X142497236Y-47094766D01*
X142734493Y-47665570D01*
X142948869Y-48268322D01*
X142971105Y-48335872D01*
X143249620Y-49285392D01*
X143484684Y-50305522D01*
X143679740Y-51419223D01*
X143838229Y-52649456D01*
X143963594Y-54019182D01*
X144059277Y-55551364D01*
X144062512Y-55615877D01*
X144109436Y-56729742D01*
X144125320Y-57688666D01*
X144102081Y-58524451D01*
X144031634Y-59268896D01*
X143905895Y-59953805D01*
X143716781Y-60610977D01*
X143456208Y-61272214D01*
X143116091Y-61969318D01*
X142688346Y-62734090D01*
X142164891Y-63598330D01*
X141943158Y-63953142D01*
X141477460Y-64696818D01*
X141093381Y-65323158D01*
X140777662Y-65863785D01*
X140517046Y-66350322D01*
X140298275Y-66814392D01*
X140108092Y-67287618D01*
X139933239Y-67801622D01*
X139760458Y-68388027D01*
X139576491Y-69078457D01*
X139368082Y-69904533D01*
X139252187Y-70371780D01*
X139006899Y-71344914D01*
X138789703Y-72162511D01*
X138591056Y-72853380D01*
X138401418Y-73446329D01*
X138211244Y-73970166D01*
X138010993Y-74453699D01*
X137791122Y-74925739D01*
X137651413Y-75204503D01*
X137235880Y-75944057D01*
X136767126Y-76631405D01*
X136225910Y-77285421D01*
X135592992Y-77924984D01*
X134849132Y-78568968D01*
X133975091Y-79236250D01*
X132951628Y-79945707D01*
X132547213Y-80212260D01*
X131905591Y-80635614D01*
X131169544Y-81129832D01*
X130397048Y-81655447D01*
X129646080Y-82172988D01*
X128974618Y-82642990D01*
X128925361Y-82677858D01*
X128335584Y-83093424D01*
X127730334Y-83515750D01*
X127148202Y-83918204D01*
X126627779Y-84274154D01*
X126207655Y-84556967D01*
X126086703Y-84636857D01*
X125350784Y-85090541D01*
X124527123Y-85549693D01*
X123665515Y-85989748D01*
X122815759Y-86386139D01*
X122027650Y-86714302D01*
X121479062Y-86909899D01*
X120904456Y-87085935D01*
X120344816Y-87237099D01*
X119782566Y-87364563D01*
X119200131Y-87469498D01*
X118579932Y-87553078D01*
X117904394Y-87616474D01*
X117155939Y-87660859D01*
X116316992Y-87687405D01*
X115369976Y-87697285D01*
X114297314Y-87691670D01*
X113081429Y-87671732D01*
X111704746Y-87638645D01*
X110893740Y-87615882D01*
X109852023Y-87579030D01*
X108920174Y-87529327D01*
X108067032Y-87461195D01*
X107261434Y-87369056D01*
X106472218Y-87247333D01*
X105668223Y-87090448D01*
X104818285Y-86892825D01*
X103891243Y-86648885D01*
X102855936Y-86353052D01*
X101681200Y-85999747D01*
X101424967Y-85921142D01*
X100229223Y-85547806D01*
X99193602Y-85210954D01*
X98295743Y-84901248D01*
X97513286Y-84609349D01*
X96823870Y-84325919D01*
X96205135Y-84041619D01*
X95634720Y-83747111D01*
X95090266Y-83433056D01*
X94549412Y-83090115D01*
X94386800Y-82981742D01*
X93964708Y-82703145D01*
X93569981Y-82457093D01*
X93170258Y-82226535D01*
X92733176Y-81994421D01*
X92226375Y-81743701D01*
X91617493Y-81457322D01*
X90874167Y-81118236D01*
X90705213Y-81042004D01*
X89759606Y-80608032D01*
X88966257Y-80224391D01*
X88300870Y-79876391D01*
X87739145Y-79549345D01*
X87256786Y-79228563D01*
X86829494Y-78899355D01*
X86432973Y-78547035D01*
X86199295Y-78318006D01*
X85844262Y-77939196D01*
X85504925Y-77542557D01*
X85224778Y-77180787D01*
X85074312Y-76954976D01*
X84678752Y-76183355D01*
X84298237Y-75248382D01*
X83941677Y-74174751D01*
X83617982Y-72987159D01*
X83567986Y-72780437D01*
X83322624Y-71746727D01*
X83114412Y-70871560D01*
X82936001Y-70130673D01*
X82780040Y-69499799D01*
X82639179Y-68954675D01*
X82506067Y-68471034D01*
X82373354Y-68024611D01*
X82233689Y-67591142D01*
X82079722Y-67146360D01*
X81904102Y-66666002D01*
X81699479Y-66125801D01*
X81458502Y-65501492D01*
X81173821Y-64768811D01*
X81025111Y-64385984D01*
X80602877Y-63254324D01*
X80268185Y-62252744D01*
X80013114Y-61349197D01*
X79829739Y-60511634D01*
X79710139Y-59708006D01*
X79646390Y-58906264D01*
X79641324Y-58788577D01*
X79633342Y-58309926D01*
X81362687Y-58309926D01*
X81362727Y-58318206D01*
X81369248Y-58899828D01*
X81386829Y-59350423D01*
X81422396Y-59727066D01*
X81482875Y-60086833D01*
X81575192Y-60486799D01*
X81669789Y-60848605D01*
X81815888Y-61348913D01*
X82011817Y-61957100D01*
X82235351Y-62607242D01*
X82464267Y-63233412D01*
X82541910Y-63435642D01*
X82923418Y-64416694D01*
X83244385Y-65250195D01*
X83513499Y-65963541D01*
X83739448Y-66584127D01*
X83930921Y-67139352D01*
X84096606Y-67656612D01*
X84245192Y-68163302D01*
X84385366Y-68686821D01*
X84525817Y-69254564D01*
X84675233Y-69893928D01*
X84842303Y-70632310D01*
X84885900Y-70826888D01*
X85187417Y-72119281D01*
X85481971Y-73243045D01*
X85783136Y-74216577D01*
X86104485Y-75058272D01*
X86459589Y-75786525D01*
X86862022Y-76419732D01*
X87325356Y-76976290D01*
X87863163Y-77474593D01*
X88489018Y-77933037D01*
X89216491Y-78370018D01*
X90059157Y-78803931D01*
X91030587Y-79253173D01*
X91138184Y-79300909D01*
X92083081Y-79725504D01*
X92884805Y-80101903D01*
X93576574Y-80447378D01*
X94191606Y-80779201D01*
X94763119Y-81114644D01*
X95324331Y-81470979D01*
X95371518Y-81502054D01*
X95877528Y-81828708D01*
X96355206Y-82118057D01*
X96827620Y-82379707D01*
X97317840Y-82623263D01*
X97848934Y-82858334D01*
X98443972Y-83094524D01*
X99126021Y-83341442D01*
X99918152Y-83608693D01*
X100843433Y-83905884D01*
X101924933Y-84242621D01*
X102031356Y-84275391D01*
X103202050Y-84630910D01*
X104226035Y-84929216D01*
X105134009Y-85175761D01*
X105956667Y-85375996D01*
X106724708Y-85535373D01*
X107468828Y-85659344D01*
X108219724Y-85753361D01*
X109008093Y-85822876D01*
X109864633Y-85873339D01*
X110820040Y-85910204D01*
X111317073Y-85924518D01*
X112474410Y-85954091D01*
X113463911Y-85976655D01*
X114305757Y-85992220D01*
X115020128Y-86000797D01*
X115627207Y-86002395D01*
X116147173Y-85997024D01*
X116600209Y-85984694D01*
X117006494Y-85965415D01*
X117386211Y-85939197D01*
X117525962Y-85927570D01*
X118642331Y-85801999D01*
X119639226Y-85621450D01*
X120579904Y-85368627D01*
X121527626Y-85026238D01*
X122545647Y-84576987D01*
X122652999Y-84525879D01*
X123285039Y-84212283D01*
X123892763Y-83885496D01*
X124506723Y-83526550D01*
X125157471Y-83116479D01*
X125875559Y-82636315D01*
X126691538Y-82067091D01*
X127212335Y-81695387D01*
X127821479Y-81264404D01*
X128533337Y-80771357D01*
X129291538Y-80254633D01*
X130039710Y-79752618D01*
X130721478Y-79303701D01*
X130788243Y-79260348D01*
X131820889Y-78579255D01*
X132703493Y-77968994D01*
X133453029Y-77413763D01*
X134086471Y-76897758D01*
X134620792Y-76405178D01*
X135072967Y-75920220D01*
X135459970Y-75427081D01*
X135798774Y-74909959D01*
X136106353Y-74353052D01*
X136148295Y-74270198D01*
X136353104Y-73844360D01*
X136537075Y-73418865D01*
X136709581Y-72964893D01*
X136879998Y-72453625D01*
X137057697Y-71856243D01*
X137252054Y-71143926D01*
X137472441Y-70287856D01*
X137569403Y-69901054D01*
X137811600Y-68938232D01*
X138023713Y-68127748D01*
X138218581Y-67438755D01*
X138409046Y-66840406D01*
X138607948Y-66301852D01*
X138828130Y-65792247D01*
X139082431Y-65280742D01*
X139383692Y-64736490D01*
X139744755Y-64128644D01*
X140178461Y-63426356D01*
X140435464Y-63015984D01*
X140960014Y-62164401D01*
X141383230Y-61437236D01*
X141716744Y-60808445D01*
X141972185Y-60251981D01*
X142161184Y-59741801D01*
X142295371Y-59251861D01*
X142386376Y-58756114D01*
X142407237Y-58600428D01*
X142423354Y-58321397D01*
X142425466Y-57887438D01*
X142415143Y-57331126D01*
X142393956Y-56685037D01*
X142363474Y-55981744D01*
X142325268Y-55253824D01*
X142280908Y-54533850D01*
X142231964Y-53854397D01*
X142180006Y-53248042D01*
X142126605Y-52747357D01*
X142124144Y-52727437D01*
X141941024Y-51495502D01*
X141710600Y-50342889D01*
X141439915Y-49297084D01*
X141136015Y-48385570D01*
X140832454Y-47687836D01*
X140439647Y-46985513D01*
X139926547Y-46204169D01*
X139284387Y-45331287D01*
X138504396Y-44354352D01*
X138454629Y-44294095D01*
X138025194Y-43772341D01*
X137562288Y-43205405D01*
X137110008Y-42647575D01*
X136712450Y-42153142D01*
X136550077Y-41949317D01*
X135993199Y-41262818D01*
X135489305Y-40683577D01*
X135007653Y-40186742D01*
X134517502Y-39747461D01*
X133988109Y-39340881D01*
X133388733Y-38942150D01*
X132688632Y-38526416D01*
X131857065Y-38068825D01*
X131542999Y-37901453D01*
X130981027Y-37600625D01*
X130411738Y-37290461D01*
X129881962Y-36996849D01*
X129438527Y-36745676D01*
X129199209Y-36605765D01*
X128822867Y-36363596D01*
X128390781Y-36058424D01*
X127938494Y-35718420D01*
X127501549Y-35371753D01*
X127115489Y-35046594D01*
X126815857Y-34771113D01*
X126642300Y-34579242D01*
X126494870Y-34394018D01*
X126243986Y-34098705D01*
X125914462Y-33720857D01*
X125531115Y-33288030D01*
X125118762Y-32827778D01*
X124702219Y-32367658D01*
X124306302Y-31935224D01*
X123955827Y-31558031D01*
X123675611Y-31263636D01*
X123490754Y-31079856D01*
X122761724Y-30470622D01*
X122041995Y-30013563D01*
X121282975Y-29681834D01*
X120607430Y-29486908D01*
X119582504Y-29312040D01*
X118427859Y-29234624D01*
X117175712Y-29256318D01*
X116726332Y-29287147D01*
X115656484Y-29372689D01*
X114741938Y-29441169D01*
X113950681Y-29493232D01*
X113250703Y-29529519D01*
X112609992Y-29550676D01*
X111996537Y-29557346D01*
X111378325Y-29550171D01*
X110723344Y-29529797D01*
X109999585Y-29496865D01*
X109175034Y-29452020D01*
X109006574Y-29442335D01*
X107924433Y-29384074D01*
X107005100Y-29345224D01*
X106224172Y-29326412D01*
X105557251Y-29328259D01*
X104979935Y-29351390D01*
X104467823Y-29396429D01*
X103996515Y-29464000D01*
X103541611Y-29554727D01*
X103409305Y-29585451D01*
X102844195Y-29739884D01*
X102311609Y-29931359D01*
X101791153Y-30173581D01*
X101262434Y-30480257D01*
X100705058Y-30865090D01*
X100098632Y-31341788D01*
X99422762Y-31924056D01*
X98657056Y-32625598D01*
X98099666Y-33153821D01*
X97222580Y-33971865D01*
X96371815Y-34717017D01*
X95484885Y-35442012D01*
X94499302Y-36199581D01*
X94422017Y-36257424D01*
X93303524Y-37105942D01*
X92337613Y-37866519D01*
X91514953Y-38547054D01*
X90826215Y-39155443D01*
X90262071Y-39699583D01*
X89907140Y-40079277D01*
X89629520Y-40406097D01*
X89262240Y-40857877D01*
X88826168Y-41407317D01*
X88342175Y-42027117D01*
X87831128Y-42689978D01*
X87313898Y-43368599D01*
X86811353Y-44035682D01*
X86344363Y-44663926D01*
X85933796Y-45226032D01*
X85600522Y-45694699D01*
X85475236Y-45876826D01*
X85101836Y-46444137D01*
X84781674Y-46972085D01*
X84497122Y-47497612D01*
X84230554Y-48057660D01*
X83964341Y-48689171D01*
X83680857Y-49429087D01*
X83375624Y-50277035D01*
X82957356Y-51469264D01*
X82600269Y-52503986D01*
X82299675Y-53399937D01*
X82050883Y-54175851D01*
X81849205Y-54850461D01*
X81689949Y-55442503D01*
X81568428Y-55970709D01*
X81479950Y-56453816D01*
X81419827Y-56910557D01*
X81383368Y-57359666D01*
X81365885Y-57819878D01*
X81362687Y-58309926D01*
X79633342Y-58309926D01*
X79630353Y-58130708D01*
X79651674Y-57475537D01*
X79709394Y-56806581D01*
X79807619Y-56107360D01*
X79950455Y-55361393D01*
X80142010Y-54552201D01*
X80386389Y-53663301D01*
X80687699Y-52678213D01*
X81050045Y-51580457D01*
X81477536Y-50353552D01*
X81974276Y-48981016D01*
X82313451Y-48064132D01*
X82605659Y-47348294D01*
X82955941Y-46623738D01*
X83377852Y-45868391D01*
X83884950Y-45060178D01*
X84490793Y-44177025D01*
X85208936Y-43196858D01*
X85693361Y-42560799D01*
X86105017Y-42026118D01*
X86536687Y-41464558D01*
X86952456Y-40922901D01*
X87316407Y-40447931D01*
X87535794Y-40160943D01*
X88082546Y-39482042D01*
X88685649Y-38808768D01*
X89361727Y-38126065D01*
X90127402Y-37418879D01*
X90999295Y-36672156D01*
X91994029Y-35870840D01*
X93128226Y-34999876D01*
X93732035Y-34548967D01*
X94541590Y-33920257D01*
X95396275Y-33205600D01*
X96224034Y-32466243D01*
X96602908Y-32108744D01*
X97499363Y-31257573D01*
X98291572Y-30535721D01*
X98998433Y-29930259D01*
X99638845Y-29428257D01*
X100231709Y-29016785D01*
X100795922Y-28682913D01*
X101350385Y-28413713D01*
X101913997Y-28196254D01*
X102505657Y-28017607D01*
X102630590Y-27984996D01*
X103160270Y-27860496D01*
X103683965Y-27762112D01*
X104225088Y-27689063D01*
X104807051Y-27640571D01*
X105453264Y-27615858D01*
X106187141Y-27614143D01*
X107032091Y-27634649D01*
X108011527Y-27676597D01*
X109148861Y-27739207D01*
X109458060Y-27757841D01*
X110251283Y-27805226D01*
X110896935Y-27839761D01*
X111435155Y-27861401D01*
X111906084Y-27870101D01*
X112349863Y-27865815D01*
X112806632Y-27848500D01*
X113316531Y-27818110D01*
X113919700Y-27774601D01*
X114208801Y-27752534D01*
X115335485Y-27668937D01*
X116296646Y-27604970D01*
X117113821Y-27560026D01*
X117808543Y-27533498D01*
X118402349Y-27524781D01*
X118916772Y-27533268D01*
X118916772Y-27533268D01*
G37*
X118916772Y-27533268D02*
X119373347Y-27558353D01*
X119765184Y-27596076D01*
X120594732Y-27711519D01*
X121336199Y-27861635D01*
X122011190Y-28059901D01*
X122641312Y-28319798D01*
X123248170Y-28654801D01*
X123853371Y-29078391D01*
X124478520Y-29604044D01*
X125145224Y-30245240D01*
X125875089Y-31015455D01*
X126665735Y-31900750D01*
X127259214Y-32572562D01*
X127777295Y-33138903D01*
X128247005Y-33620654D01*
X128695372Y-34038699D01*
X129149423Y-34413919D01*
X129636186Y-34767196D01*
X130182688Y-35119413D01*
X130815958Y-35491453D01*
X131563023Y-35904197D01*
X132450910Y-36378528D01*
X132483740Y-36395904D01*
X133462389Y-36927189D01*
X134290697Y-37409538D01*
X134993780Y-37861946D01*
X135596752Y-38303407D01*
X136124730Y-38752915D01*
X136602829Y-39229466D01*
X137056164Y-39752054D01*
X137258593Y-40007060D01*
X137529995Y-40350996D01*
X137888671Y-40796590D01*
X138300416Y-41301825D01*
X138731023Y-41824684D01*
X139069545Y-42231540D01*
X139842382Y-43166090D01*
X140498483Y-43985742D01*
X141051257Y-44711475D01*
X141514111Y-45364265D01*
X141900454Y-45965092D01*
X142223693Y-46534933D01*
X142497236Y-47094766D01*
X142734493Y-47665570D01*
X142948869Y-48268322D01*
X142971105Y-48335872D01*
X143249620Y-49285392D01*
X143484684Y-50305522D01*
X143679740Y-51419223D01*
X143838229Y-52649456D01*
X143963594Y-54019182D01*
X144059277Y-55551364D01*
X144062512Y-55615877D01*
X144109436Y-56729742D01*
X144125320Y-57688666D01*
X144102081Y-58524451D01*
X144031634Y-59268896D01*
X143905895Y-59953805D01*
X143716781Y-60610977D01*
X143456208Y-61272214D01*
X143116091Y-61969318D01*
X142688346Y-62734090D01*
X142164891Y-63598330D01*
X141943158Y-63953142D01*
X141477460Y-64696818D01*
X141093381Y-65323158D01*
X140777662Y-65863785D01*
X140517046Y-66350322D01*
X140298275Y-66814392D01*
X140108092Y-67287618D01*
X139933239Y-67801622D01*
X139760458Y-68388027D01*
X139576491Y-69078457D01*
X139368082Y-69904533D01*
X139252187Y-70371780D01*
X139006899Y-71344914D01*
X138789703Y-72162511D01*
X138591056Y-72853380D01*
X138401418Y-73446329D01*
X138211244Y-73970166D01*
X138010993Y-74453699D01*
X137791122Y-74925739D01*
X137651413Y-75204503D01*
X137235880Y-75944057D01*
X136767126Y-76631405D01*
X136225910Y-77285421D01*
X135592992Y-77924984D01*
X134849132Y-78568968D01*
X133975091Y-79236250D01*
X132951628Y-79945707D01*
X132547213Y-80212260D01*
X131905591Y-80635614D01*
X131169544Y-81129832D01*
X130397048Y-81655447D01*
X129646080Y-82172988D01*
X128974618Y-82642990D01*
X128925361Y-82677858D01*
X128335584Y-83093424D01*
X127730334Y-83515750D01*
X127148202Y-83918204D01*
X126627779Y-84274154D01*
X126207655Y-84556967D01*
X126086703Y-84636857D01*
X125350784Y-85090541D01*
X124527123Y-85549693D01*
X123665515Y-85989748D01*
X122815759Y-86386139D01*
X122027650Y-86714302D01*
X121479062Y-86909899D01*
X120904456Y-87085935D01*
X120344816Y-87237099D01*
X119782566Y-87364563D01*
X119200131Y-87469498D01*
X118579932Y-87553078D01*
X117904394Y-87616474D01*
X117155939Y-87660859D01*
X116316992Y-87687405D01*
X115369976Y-87697285D01*
X114297314Y-87691670D01*
X113081429Y-87671732D01*
X111704746Y-87638645D01*
X110893740Y-87615882D01*
X109852023Y-87579030D01*
X108920174Y-87529327D01*
X108067032Y-87461195D01*
X107261434Y-87369056D01*
X106472218Y-87247333D01*
X105668223Y-87090448D01*
X104818285Y-86892825D01*
X103891243Y-86648885D01*
X102855936Y-86353052D01*
X101681200Y-85999747D01*
X101424967Y-85921142D01*
X100229223Y-85547806D01*
X99193602Y-85210954D01*
X98295743Y-84901248D01*
X97513286Y-84609349D01*
X96823870Y-84325919D01*
X96205135Y-84041619D01*
X95634720Y-83747111D01*
X95090266Y-83433056D01*
X94549412Y-83090115D01*
X94386800Y-82981742D01*
X93964708Y-82703145D01*
X93569981Y-82457093D01*
X93170258Y-82226535D01*
X92733176Y-81994421D01*
X92226375Y-81743701D01*
X91617493Y-81457322D01*
X90874167Y-81118236D01*
X90705213Y-81042004D01*
X89759606Y-80608032D01*
X88966257Y-80224391D01*
X88300870Y-79876391D01*
X87739145Y-79549345D01*
X87256786Y-79228563D01*
X86829494Y-78899355D01*
X86432973Y-78547035D01*
X86199295Y-78318006D01*
X85844262Y-77939196D01*
X85504925Y-77542557D01*
X85224778Y-77180787D01*
X85074312Y-76954976D01*
X84678752Y-76183355D01*
X84298237Y-75248382D01*
X83941677Y-74174751D01*
X83617982Y-72987159D01*
X83567986Y-72780437D01*
X83322624Y-71746727D01*
X83114412Y-70871560D01*
X82936001Y-70130673D01*
X82780040Y-69499799D01*
X82639179Y-68954675D01*
X82506067Y-68471034D01*
X82373354Y-68024611D01*
X82233689Y-67591142D01*
X82079722Y-67146360D01*
X81904102Y-66666002D01*
X81699479Y-66125801D01*
X81458502Y-65501492D01*
X81173821Y-64768811D01*
X81025111Y-64385984D01*
X80602877Y-63254324D01*
X80268185Y-62252744D01*
X80013114Y-61349197D01*
X79829739Y-60511634D01*
X79710139Y-59708006D01*
X79646390Y-58906264D01*
X79641324Y-58788577D01*
X79633342Y-58309926D01*
X81362687Y-58309926D01*
X81362727Y-58318206D01*
X81369248Y-58899828D01*
X81386829Y-59350423D01*
X81422396Y-59727066D01*
X81482875Y-60086833D01*
X81575192Y-60486799D01*
X81669789Y-60848605D01*
X81815888Y-61348913D01*
X82011817Y-61957100D01*
X82235351Y-62607242D01*
X82464267Y-63233412D01*
X82541910Y-63435642D01*
X82923418Y-64416694D01*
X83244385Y-65250195D01*
X83513499Y-65963541D01*
X83739448Y-66584127D01*
X83930921Y-67139352D01*
X84096606Y-67656612D01*
X84245192Y-68163302D01*
X84385366Y-68686821D01*
X84525817Y-69254564D01*
X84675233Y-69893928D01*
X84842303Y-70632310D01*
X84885900Y-70826888D01*
X85187417Y-72119281D01*
X85481971Y-73243045D01*
X85783136Y-74216577D01*
X86104485Y-75058272D01*
X86459589Y-75786525D01*
X86862022Y-76419732D01*
X87325356Y-76976290D01*
X87863163Y-77474593D01*
X88489018Y-77933037D01*
X89216491Y-78370018D01*
X90059157Y-78803931D01*
X91030587Y-79253173D01*
X91138184Y-79300909D01*
X92083081Y-79725504D01*
X92884805Y-80101903D01*
X93576574Y-80447378D01*
X94191606Y-80779201D01*
X94763119Y-81114644D01*
X95324331Y-81470979D01*
X95371518Y-81502054D01*
X95877528Y-81828708D01*
X96355206Y-82118057D01*
X96827620Y-82379707D01*
X97317840Y-82623263D01*
X97848934Y-82858334D01*
X98443972Y-83094524D01*
X99126021Y-83341442D01*
X99918152Y-83608693D01*
X100843433Y-83905884D01*
X101924933Y-84242621D01*
X102031356Y-84275391D01*
X103202050Y-84630910D01*
X104226035Y-84929216D01*
X105134009Y-85175761D01*
X105956667Y-85375996D01*
X106724708Y-85535373D01*
X107468828Y-85659344D01*
X108219724Y-85753361D01*
X109008093Y-85822876D01*
X109864633Y-85873339D01*
X110820040Y-85910204D01*
X111317073Y-85924518D01*
X112474410Y-85954091D01*
X113463911Y-85976655D01*
X114305757Y-85992220D01*
X115020128Y-86000797D01*
X115627207Y-86002395D01*
X116147173Y-85997024D01*
X116600209Y-85984694D01*
X117006494Y-85965415D01*
X117386211Y-85939197D01*
X117525962Y-85927570D01*
X118642331Y-85801999D01*
X119639226Y-85621450D01*
X120579904Y-85368627D01*
X121527626Y-85026238D01*
X122545647Y-84576987D01*
X122652999Y-84525879D01*
X123285039Y-84212283D01*
X123892763Y-83885496D01*
X124506723Y-83526550D01*
X125157471Y-83116479D01*
X125875559Y-82636315D01*
X126691538Y-82067091D01*
X127212335Y-81695387D01*
X127821479Y-81264404D01*
X128533337Y-80771357D01*
X129291538Y-80254633D01*
X130039710Y-79752618D01*
X130721478Y-79303701D01*
X130788243Y-79260348D01*
X131820889Y-78579255D01*
X132703493Y-77968994D01*
X133453029Y-77413763D01*
X134086471Y-76897758D01*
X134620792Y-76405178D01*
X135072967Y-75920220D01*
X135459970Y-75427081D01*
X135798774Y-74909959D01*
X136106353Y-74353052D01*
X136148295Y-74270198D01*
X136353104Y-73844360D01*
X136537075Y-73418865D01*
X136709581Y-72964893D01*
X136879998Y-72453625D01*
X137057697Y-71856243D01*
X137252054Y-71143926D01*
X137472441Y-70287856D01*
X137569403Y-69901054D01*
X137811600Y-68938232D01*
X138023713Y-68127748D01*
X138218581Y-67438755D01*
X138409046Y-66840406D01*
X138607948Y-66301852D01*
X138828130Y-65792247D01*
X139082431Y-65280742D01*
X139383692Y-64736490D01*
X139744755Y-64128644D01*
X140178461Y-63426356D01*
X140435464Y-63015984D01*
X140960014Y-62164401D01*
X141383230Y-61437236D01*
X141716744Y-60808445D01*
X141972185Y-60251981D01*
X142161184Y-59741801D01*
X142295371Y-59251861D01*
X142386376Y-58756114D01*
X142407237Y-58600428D01*
X142423354Y-58321397D01*
X142425466Y-57887438D01*
X142415143Y-57331126D01*
X142393956Y-56685037D01*
X142363474Y-55981744D01*
X142325268Y-55253824D01*
X142280908Y-54533850D01*
X142231964Y-53854397D01*
X142180006Y-53248042D01*
X142126605Y-52747357D01*
X142124144Y-52727437D01*
X141941024Y-51495502D01*
X141710600Y-50342889D01*
X141439915Y-49297084D01*
X141136015Y-48385570D01*
X140832454Y-47687836D01*
X140439647Y-46985513D01*
X139926547Y-46204169D01*
X139284387Y-45331287D01*
X138504396Y-44354352D01*
X138454629Y-44294095D01*
X138025194Y-43772341D01*
X137562288Y-43205405D01*
X137110008Y-42647575D01*
X136712450Y-42153142D01*
X136550077Y-41949317D01*
X135993199Y-41262818D01*
X135489305Y-40683577D01*
X135007653Y-40186742D01*
X134517502Y-39747461D01*
X133988109Y-39340881D01*
X133388733Y-38942150D01*
X132688632Y-38526416D01*
X131857065Y-38068825D01*
X131542999Y-37901453D01*
X130981027Y-37600625D01*
X130411738Y-37290461D01*
X129881962Y-36996849D01*
X129438527Y-36745676D01*
X129199209Y-36605765D01*
X128822867Y-36363596D01*
X128390781Y-36058424D01*
X127938494Y-35718420D01*
X127501549Y-35371753D01*
X127115489Y-35046594D01*
X126815857Y-34771113D01*
X126642300Y-34579242D01*
X126494870Y-34394018D01*
X126243986Y-34098705D01*
X125914462Y-33720857D01*
X125531115Y-33288030D01*
X125118762Y-32827778D01*
X124702219Y-32367658D01*
X124306302Y-31935224D01*
X123955827Y-31558031D01*
X123675611Y-31263636D01*
X123490754Y-31079856D01*
X122761724Y-30470622D01*
X122041995Y-30013563D01*
X121282975Y-29681834D01*
X120607430Y-29486908D01*
X119582504Y-29312040D01*
X118427859Y-29234624D01*
X117175712Y-29256318D01*
X116726332Y-29287147D01*
X115656484Y-29372689D01*
X114741938Y-29441169D01*
X113950681Y-29493232D01*
X113250703Y-29529519D01*
X112609992Y-29550676D01*
X111996537Y-29557346D01*
X111378325Y-29550171D01*
X110723344Y-29529797D01*
X109999585Y-29496865D01*
X109175034Y-29452020D01*
X109006574Y-29442335D01*
X107924433Y-29384074D01*
X107005100Y-29345224D01*
X106224172Y-29326412D01*
X105557251Y-29328259D01*
X104979935Y-29351390D01*
X104467823Y-29396429D01*
X103996515Y-29464000D01*
X103541611Y-29554727D01*
X103409305Y-29585451D01*
X102844195Y-29739884D01*
X102311609Y-29931359D01*
X101791153Y-30173581D01*
X101262434Y-30480257D01*
X100705058Y-30865090D01*
X100098632Y-31341788D01*
X99422762Y-31924056D01*
X98657056Y-32625598D01*
X98099666Y-33153821D01*
X97222580Y-33971865D01*
X96371815Y-34717017D01*
X95484885Y-35442012D01*
X94499302Y-36199581D01*
X94422017Y-36257424D01*
X93303524Y-37105942D01*
X92337613Y-37866519D01*
X91514953Y-38547054D01*
X90826215Y-39155443D01*
X90262071Y-39699583D01*
X89907140Y-40079277D01*
X89629520Y-40406097D01*
X89262240Y-40857877D01*
X88826168Y-41407317D01*
X88342175Y-42027117D01*
X87831128Y-42689978D01*
X87313898Y-43368599D01*
X86811353Y-44035682D01*
X86344363Y-44663926D01*
X85933796Y-45226032D01*
X85600522Y-45694699D01*
X85475236Y-45876826D01*
X85101836Y-46444137D01*
X84781674Y-46972085D01*
X84497122Y-47497612D01*
X84230554Y-48057660D01*
X83964341Y-48689171D01*
X83680857Y-49429087D01*
X83375624Y-50277035D01*
X82957356Y-51469264D01*
X82600269Y-52503986D01*
X82299675Y-53399937D01*
X82050883Y-54175851D01*
X81849205Y-54850461D01*
X81689949Y-55442503D01*
X81568428Y-55970709D01*
X81479950Y-56453816D01*
X81419827Y-56910557D01*
X81383368Y-57359666D01*
X81365885Y-57819878D01*
X81362687Y-58309926D01*
X79633342Y-58309926D01*
X79630353Y-58130708D01*
X79651674Y-57475537D01*
X79709394Y-56806581D01*
X79807619Y-56107360D01*
X79950455Y-55361393D01*
X80142010Y-54552201D01*
X80386389Y-53663301D01*
X80687699Y-52678213D01*
X81050045Y-51580457D01*
X81477536Y-50353552D01*
X81974276Y-48981016D01*
X82313451Y-48064132D01*
X82605659Y-47348294D01*
X82955941Y-46623738D01*
X83377852Y-45868391D01*
X83884950Y-45060178D01*
X84490793Y-44177025D01*
X85208936Y-43196858D01*
X85693361Y-42560799D01*
X86105017Y-42026118D01*
X86536687Y-41464558D01*
X86952456Y-40922901D01*
X87316407Y-40447931D01*
X87535794Y-40160943D01*
X88082546Y-39482042D01*
X88685649Y-38808768D01*
X89361727Y-38126065D01*
X90127402Y-37418879D01*
X90999295Y-36672156D01*
X91994029Y-35870840D01*
X93128226Y-34999876D01*
X93732035Y-34548967D01*
X94541590Y-33920257D01*
X95396275Y-33205600D01*
X96224034Y-32466243D01*
X96602908Y-32108744D01*
X97499363Y-31257573D01*
X98291572Y-30535721D01*
X98998433Y-29930259D01*
X99638845Y-29428257D01*
X100231709Y-29016785D01*
X100795922Y-28682913D01*
X101350385Y-28413713D01*
X101913997Y-28196254D01*
X102505657Y-28017607D01*
X102630590Y-27984996D01*
X103160270Y-27860496D01*
X103683965Y-27762112D01*
X104225088Y-27689063D01*
X104807051Y-27640571D01*
X105453264Y-27615858D01*
X106187141Y-27614143D01*
X107032091Y-27634649D01*
X108011527Y-27676597D01*
X109148861Y-27739207D01*
X109458060Y-27757841D01*
X110251283Y-27805226D01*
X110896935Y-27839761D01*
X111435155Y-27861401D01*
X111906084Y-27870101D01*
X112349863Y-27865815D01*
X112806632Y-27848500D01*
X113316531Y-27818110D01*
X113919700Y-27774601D01*
X114208801Y-27752534D01*
X115335485Y-27668937D01*
X116296646Y-27604970D01*
X117113821Y-27560026D01*
X117808543Y-27533498D01*
X118402349Y-27524781D01*
X118916772Y-27533268D01*
D14*
X105634000Y-36146000D02*
X105634000Y-35446000D01*
X106834000Y-35446000D02*
X106834000Y-36146000D01*
X120554000Y-37746000D02*
X120554000Y-37046000D01*
X121754000Y-37046000D02*
X121754000Y-37746000D01*
X118714000Y-36571000D02*
X118714000Y-35871000D01*
X119914000Y-35871000D02*
X119914000Y-36571000D01*
X103674000Y-36741000D02*
X104374000Y-36741000D01*
X104374000Y-37941000D02*
X103674000Y-37941000D01*
X106295443Y-43593540D02*
X105595443Y-43593540D01*
X105595443Y-42393540D02*
X106295443Y-42393540D01*
X100337610Y-24886220D02*
X99995590Y-23946528D01*
X99995590Y-23946528D02*
X98022236Y-24664770D01*
X100337610Y-24886220D02*
X98364256Y-25604462D01*
X126325590Y-26310472D02*
X126667610Y-25370780D01*
X126667610Y-25370780D02*
X124694256Y-24652538D01*
X126325590Y-26310472D02*
X124352236Y-25592230D01*
D15*
X109054000Y-32636000D02*
X109054000Y-32861000D01*
X116304000Y-32636000D02*
X116304000Y-32961000D01*
X116304000Y-39886000D02*
X116304000Y-39561000D01*
X109054000Y-39886000D02*
X109054000Y-39561000D01*
X109054000Y-32636000D02*
X109379000Y-32636000D01*
X109054000Y-39886000D02*
X109379000Y-39886000D01*
X116304000Y-39886000D02*
X115979000Y-39886000D01*
X116304000Y-32636000D02*
X115979000Y-32636000D01*
X109054000Y-32861000D02*
X107629000Y-32861000D01*
D14*
X130425443Y-78899540D02*
X129725443Y-78899540D01*
X129725443Y-77699540D02*
X130425443Y-77699540D01*
X126971433Y-78523022D02*
X127819961Y-79371550D01*
X126575453Y-80616058D02*
X125726925Y-79767530D01*
X105301443Y-30455540D02*
X105301443Y-31655540D01*
X103541443Y-31655540D02*
X103541443Y-30455540D01*
X123487443Y-31619540D02*
X123487443Y-32819540D01*
X121727443Y-32819540D02*
X121727443Y-31619540D01*
X84981443Y-50775540D02*
X84981443Y-51975540D01*
X83221443Y-51975540D02*
X83221443Y-50775540D01*
D15*
X88999699Y-57537956D02*
X88430297Y-55412919D01*
X82055187Y-57121124D02*
X82624589Y-59246161D01*
X87860895Y-53287882D02*
X81485785Y-54996088D01*
X89569101Y-59662992D02*
X83193991Y-61371198D01*
X91234129Y-56671340D02*
X91425872Y-58862968D01*
X98000757Y-58287740D02*
X97809014Y-56096112D01*
X91617614Y-61054596D02*
X98192499Y-60479369D01*
X91042387Y-54479711D02*
X97617272Y-53904484D01*
X90973078Y-70810810D02*
X92528713Y-69255175D01*
X87861808Y-64588270D02*
X86306173Y-66143905D01*
X94084348Y-67699540D02*
X89417443Y-63032635D01*
X89417443Y-72366445D02*
X84750538Y-67699540D01*
X97617193Y-70550419D02*
X99783771Y-70168393D01*
X98637693Y-63668661D02*
X96471115Y-64050687D01*
X101950348Y-69786367D02*
X100804270Y-63286635D01*
X95450616Y-70932445D02*
X94304538Y-64432713D01*
X89966564Y-76049290D02*
X90348590Y-78215868D01*
X96848322Y-77069790D02*
X96466296Y-74903212D01*
X90730616Y-80382445D02*
X97230348Y-79236367D01*
X89584538Y-73882713D02*
X96084270Y-72736635D01*
X101667193Y-81340419D02*
X103833771Y-80958393D01*
X102687693Y-74458661D02*
X100521115Y-74840687D01*
X106000348Y-80576367D02*
X104854270Y-74076635D01*
X99500616Y-81722445D02*
X98354538Y-75222713D01*
X107217443Y-72539540D02*
X107217443Y-74739540D01*
X113817443Y-74739540D02*
X113817443Y-72539540D01*
X107217443Y-76939540D02*
X113817443Y-76939540D01*
X107217443Y-70339540D02*
X113817443Y-70339540D01*
X124078713Y-76163905D02*
X122523078Y-74608270D01*
X117856173Y-79275175D02*
X119411808Y-80830810D01*
X120967443Y-73052635D02*
X116300538Y-77719540D01*
X125634348Y-77719540D02*
X120967443Y-82386445D01*
X121518948Y-69142748D02*
X123252572Y-70497203D01*
X127315938Y-65296332D02*
X125582314Y-63941877D01*
X124986196Y-71851658D02*
X129049561Y-66650787D01*
X119785325Y-67788293D02*
X123848690Y-62587422D01*
X127934129Y-72281340D02*
X128125872Y-74472968D01*
X134700757Y-73897740D02*
X134509014Y-71706112D01*
X128317614Y-76664596D02*
X134892499Y-76089369D01*
X127742387Y-70089711D02*
X134317272Y-69514484D01*
X130733078Y-63050810D02*
X132288713Y-61495175D01*
X127621808Y-56828270D02*
X126066173Y-58383905D01*
X133844348Y-59939540D02*
X129177443Y-55272635D01*
X129177443Y-64606445D02*
X124510538Y-59939540D01*
X132857443Y-64449540D02*
X132857443Y-66649540D01*
X139457443Y-66649540D02*
X139457443Y-64449540D01*
X132857443Y-68849540D02*
X139457443Y-68849540D01*
X132857443Y-62249540D02*
X139457443Y-62249540D01*
X111087443Y-85149540D02*
X113287443Y-85149540D01*
X113287443Y-78549540D02*
X111087443Y-78549540D01*
X115487443Y-85149540D02*
X115487443Y-78549540D01*
X108887443Y-85149540D02*
X108887443Y-78549540D01*
X134636173Y-56685175D02*
X136191808Y-58240810D01*
X140858713Y-53573905D02*
X139303078Y-52018270D01*
X137747443Y-59796445D02*
X142414348Y-55129540D01*
X133080538Y-55129540D02*
X137747443Y-50462635D01*
D14*
X97237443Y-32811540D02*
X97237443Y-36411540D01*
X97248965Y-32773062D02*
G75*
G02X101687443Y-34611540I1838478J-1838478D01*
G01*
X97248965Y-36450018D02*
G75*
G03X101687443Y-34611540I1838478J1838478D01*
G01*
X100297443Y-21899540D02*
X100297443Y-20899540D01*
X100297443Y-20899540D02*
X98197443Y-20899540D01*
X100297443Y-21899540D02*
X98197443Y-21899540D01*
X126887443Y-22099540D02*
X126887443Y-21099540D01*
X126887443Y-21099540D02*
X124787443Y-21099540D01*
X126887443Y-22099540D02*
X124787443Y-22099540D01*
X98787443Y-17179540D02*
X99987443Y-17179540D01*
X99987443Y-18939540D02*
X98787443Y-18939540D01*
X124747443Y-17129540D02*
X125947443Y-17129540D01*
X125947443Y-18889540D02*
X124747443Y-18889540D01*
X96407443Y-82129540D02*
X96407443Y-80929540D01*
X98167443Y-80929540D02*
X98167443Y-82129540D01*
X120157443Y-85849540D02*
X118957443Y-85849540D01*
X118957443Y-84089540D02*
X120157443Y-84089540D01*
D15*
X105261143Y-35557666D02*
X105308762Y-35605285D01*
X105356381Y-35748142D01*
X105356381Y-35843380D01*
X105308762Y-35986238D01*
X105213524Y-36081476D01*
X105118286Y-36129095D01*
X104927810Y-36176714D01*
X104784952Y-36176714D01*
X104594476Y-36129095D01*
X104499238Y-36081476D01*
X104404000Y-35986238D01*
X104356381Y-35843380D01*
X104356381Y-35748142D01*
X104404000Y-35605285D01*
X104451619Y-35557666D01*
X105356381Y-34605285D02*
X105356381Y-35176714D01*
X105356381Y-34891000D02*
X104356381Y-34891000D01*
X104499238Y-34986238D01*
X104594476Y-35081476D01*
X104642095Y-35176714D01*
X103816015Y-34146921D02*
X103244586Y-34146921D01*
X103530300Y-34146921D02*
X103530300Y-33146921D01*
X103435062Y-33289778D01*
X103339824Y-33385016D01*
X103244586Y-33432635D01*
X104435062Y-33146921D02*
X104530301Y-33146921D01*
X104625539Y-33194540D01*
X104673158Y-33242159D01*
X104720777Y-33337397D01*
X104768396Y-33527873D01*
X104768396Y-33765969D01*
X104720777Y-33956445D01*
X104673158Y-34051683D01*
X104625539Y-34099302D01*
X104530301Y-34146921D01*
X104435062Y-34146921D01*
X104339824Y-34099302D01*
X104292205Y-34051683D01*
X104244586Y-33956445D01*
X104196967Y-33765969D01*
X104196967Y-33527873D01*
X104244586Y-33337397D01*
X104292205Y-33242159D01*
X104339824Y-33194540D01*
X104435062Y-33146921D01*
X105625539Y-33480254D02*
X105625539Y-34146921D01*
X105196967Y-33480254D02*
X105196967Y-34004064D01*
X105244586Y-34099302D01*
X105339824Y-34146921D01*
X105482682Y-34146921D01*
X105577920Y-34099302D01*
X105625539Y-34051683D01*
X106435063Y-33623111D02*
X106101729Y-33623111D01*
X106101729Y-34146921D02*
X106101729Y-33146921D01*
X106577920Y-33146921D01*
X121498586Y-40077206D02*
X121546205Y-40124825D01*
X121593824Y-40267682D01*
X121593824Y-40362920D01*
X121546205Y-40505778D01*
X121450967Y-40601016D01*
X121355729Y-40648635D01*
X121165253Y-40696254D01*
X121022395Y-40696254D01*
X120831919Y-40648635D01*
X120736681Y-40601016D01*
X120641443Y-40505778D01*
X120593824Y-40362920D01*
X120593824Y-40267682D01*
X120641443Y-40124825D01*
X120689062Y-40077206D01*
X120689062Y-39696254D02*
X120641443Y-39648635D01*
X120593824Y-39553397D01*
X120593824Y-39315301D01*
X120641443Y-39220063D01*
X120689062Y-39172444D01*
X120784300Y-39124825D01*
X120879538Y-39124825D01*
X121022395Y-39172444D01*
X121593824Y-39743873D01*
X121593824Y-39124825D01*
X123011143Y-39229333D02*
X123058762Y-39181714D01*
X123106381Y-39229333D01*
X123058762Y-39276952D01*
X123011143Y-39229333D01*
X123106381Y-39229333D01*
X122106381Y-38848381D02*
X122106381Y-38229333D01*
X122487333Y-38562667D01*
X122487333Y-38419809D01*
X122534952Y-38324571D01*
X122582571Y-38276952D01*
X122677810Y-38229333D01*
X122915905Y-38229333D01*
X123011143Y-38276952D01*
X123058762Y-38324571D01*
X123106381Y-38419809D01*
X123106381Y-38705524D01*
X123058762Y-38800762D01*
X123011143Y-38848381D01*
X122106381Y-37896000D02*
X122106381Y-37276952D01*
X122487333Y-37610286D01*
X122487333Y-37467428D01*
X122534952Y-37372190D01*
X122582571Y-37324571D01*
X122677810Y-37276952D01*
X122915905Y-37276952D01*
X123011143Y-37324571D01*
X123058762Y-37372190D01*
X123106381Y-37467428D01*
X123106381Y-37753143D01*
X123058762Y-37848381D01*
X123011143Y-37896000D01*
X122439714Y-36419809D02*
X123106381Y-36419809D01*
X122439714Y-36848381D02*
X122963524Y-36848381D01*
X123058762Y-36800762D01*
X123106381Y-36705524D01*
X123106381Y-36562666D01*
X123058762Y-36467428D01*
X123011143Y-36419809D01*
X122582571Y-35610285D02*
X122582571Y-35943619D01*
X123106381Y-35943619D02*
X122106381Y-35943619D01*
X122106381Y-35467428D01*
X119653586Y-38977206D02*
X119701205Y-39024825D01*
X119748824Y-39167682D01*
X119748824Y-39262920D01*
X119701205Y-39405778D01*
X119605967Y-39501016D01*
X119510729Y-39548635D01*
X119320253Y-39596254D01*
X119177395Y-39596254D01*
X118986919Y-39548635D01*
X118891681Y-39501016D01*
X118796443Y-39405778D01*
X118748824Y-39262920D01*
X118748824Y-39167682D01*
X118796443Y-39024825D01*
X118844062Y-38977206D01*
X118748824Y-38643873D02*
X118748824Y-38024825D01*
X119129776Y-38358159D01*
X119129776Y-38215301D01*
X119177395Y-38120063D01*
X119225014Y-38072444D01*
X119320253Y-38024825D01*
X119558348Y-38024825D01*
X119653586Y-38072444D01*
X119701205Y-38120063D01*
X119748824Y-38215301D01*
X119748824Y-38501016D01*
X119701205Y-38596254D01*
X119653586Y-38643873D01*
X120779586Y-34967873D02*
X120827205Y-34920254D01*
X120874824Y-34967873D01*
X120827205Y-35015492D01*
X120779586Y-34967873D01*
X120874824Y-34967873D01*
X119874824Y-34586921D02*
X119874824Y-33967873D01*
X120255776Y-34301207D01*
X120255776Y-34158349D01*
X120303395Y-34063111D01*
X120351014Y-34015492D01*
X120446253Y-33967873D01*
X120684348Y-33967873D01*
X120779586Y-34015492D01*
X120827205Y-34063111D01*
X120874824Y-34158349D01*
X120874824Y-34444064D01*
X120827205Y-34539302D01*
X120779586Y-34586921D01*
X119874824Y-33634540D02*
X119874824Y-33015492D01*
X120255776Y-33348826D01*
X120255776Y-33205968D01*
X120303395Y-33110730D01*
X120351014Y-33063111D01*
X120446253Y-33015492D01*
X120684348Y-33015492D01*
X120779586Y-33063111D01*
X120827205Y-33110730D01*
X120874824Y-33205968D01*
X120874824Y-33491683D01*
X120827205Y-33586921D01*
X120779586Y-33634540D01*
X120208157Y-32158349D02*
X120874824Y-32158349D01*
X120208157Y-32586921D02*
X120731967Y-32586921D01*
X120827205Y-32539302D01*
X120874824Y-32444064D01*
X120874824Y-32301206D01*
X120827205Y-32205968D01*
X120779586Y-32158349D01*
X120351014Y-31348825D02*
X120351014Y-31682159D01*
X120874824Y-31682159D02*
X119874824Y-31682159D01*
X119874824Y-31205968D01*
X102557334Y-36178143D02*
X102509715Y-36225762D01*
X102366858Y-36273381D01*
X102271620Y-36273381D01*
X102128762Y-36225762D01*
X102033524Y-36130524D01*
X101985905Y-36035286D01*
X101938286Y-35844810D01*
X101938286Y-35701952D01*
X101985905Y-35511476D01*
X102033524Y-35416238D01*
X102128762Y-35321000D01*
X102271620Y-35273381D01*
X102366858Y-35273381D01*
X102509715Y-35321000D01*
X102557334Y-35368619D01*
X103414477Y-35606714D02*
X103414477Y-36273381D01*
X103176381Y-35225762D02*
X102938286Y-35940048D01*
X103557334Y-35940048D01*
X105778777Y-44850683D02*
X105731158Y-44898302D01*
X105588301Y-44945921D01*
X105493063Y-44945921D01*
X105350205Y-44898302D01*
X105254967Y-44803064D01*
X105207348Y-44707826D01*
X105159729Y-44517350D01*
X105159729Y-44374492D01*
X105207348Y-44184016D01*
X105254967Y-44088778D01*
X105350205Y-43993540D01*
X105493063Y-43945921D01*
X105588301Y-43945921D01*
X105731158Y-43993540D01*
X105778777Y-44041159D01*
X106683539Y-43945921D02*
X106207348Y-43945921D01*
X106159729Y-44422111D01*
X106207348Y-44374492D01*
X106302586Y-44326873D01*
X106540682Y-44326873D01*
X106635920Y-44374492D01*
X106683539Y-44422111D01*
X106731158Y-44517350D01*
X106731158Y-44755445D01*
X106683539Y-44850683D01*
X106635920Y-44898302D01*
X106540682Y-44945921D01*
X106302586Y-44945921D01*
X106207348Y-44898302D01*
X106159729Y-44850683D01*
X98833666Y-26713158D02*
X98491646Y-25773466D01*
X98715382Y-25692033D01*
X98865911Y-25687919D01*
X98987979Y-25744841D01*
X99065300Y-25818048D01*
X99175193Y-25980751D01*
X99224054Y-26114993D01*
X99244453Y-26310269D01*
X99232279Y-26416050D01*
X99175358Y-26538118D01*
X99057402Y-26631725D01*
X98833666Y-26713158D01*
X99419165Y-25537227D02*
X99447625Y-25476193D01*
X99520833Y-25398872D01*
X99744570Y-25317439D01*
X99850351Y-25329613D01*
X99911385Y-25358073D01*
X99988705Y-25431281D01*
X100021279Y-25520775D01*
X100025392Y-25671304D01*
X99683864Y-26403712D01*
X100265579Y-26191985D01*
X123999169Y-26743272D02*
X124341189Y-25803579D01*
X124564925Y-25885012D01*
X124682881Y-25978620D01*
X124739803Y-26100688D01*
X124751976Y-26206469D01*
X124731577Y-26401744D01*
X124682717Y-26535987D01*
X124572823Y-26698689D01*
X124495502Y-26771897D01*
X124373435Y-26828818D01*
X124222905Y-26824705D01*
X123999169Y-26743272D01*
X125569601Y-26605410D02*
X125341588Y-27231872D01*
X125476157Y-26165999D02*
X125008121Y-26755775D01*
X125589836Y-26967502D01*
X107445824Y-41569064D02*
X108445824Y-40902397D01*
X107445824Y-40902397D02*
X108445824Y-41569064D01*
X108445824Y-39997635D02*
X108445824Y-40569064D01*
X108445824Y-40283350D02*
X107445824Y-40283350D01*
X107588681Y-40378588D01*
X107683919Y-40473826D01*
X107731538Y-40569064D01*
X111917095Y-29663381D02*
X111917095Y-30472905D01*
X111964714Y-30568143D01*
X112012333Y-30615762D01*
X112107571Y-30663381D01*
X112298048Y-30663381D01*
X112393286Y-30615762D01*
X112440905Y-30568143D01*
X112488524Y-30472905D01*
X112488524Y-29663381D01*
X113488524Y-30663381D02*
X112917095Y-30663381D01*
X113202809Y-30663381D02*
X113202809Y-29663381D01*
X113107571Y-29806238D01*
X113012333Y-29901476D01*
X112917095Y-29949095D01*
X107257095Y-31378381D02*
X107257095Y-32187905D01*
X107304714Y-32283143D01*
X107352333Y-32330762D01*
X107447571Y-32378381D01*
X107638048Y-32378381D01*
X107733286Y-32330762D01*
X107780905Y-32283143D01*
X107828524Y-32187905D01*
X107828524Y-31378381D01*
X108828524Y-32378381D02*
X108257095Y-32378381D01*
X108542809Y-32378381D02*
X108542809Y-31378381D01*
X108447571Y-31521238D01*
X108352333Y-31616476D01*
X108257095Y-31664095D01*
X129920777Y-74321683D02*
X129873158Y-74369302D01*
X129730301Y-74416921D01*
X129635063Y-74416921D01*
X129492205Y-74369302D01*
X129396967Y-74274064D01*
X129349348Y-74178826D01*
X129301729Y-73988350D01*
X129301729Y-73845492D01*
X129349348Y-73655016D01*
X129396967Y-73559778D01*
X129492205Y-73464540D01*
X129635063Y-73416921D01*
X129730301Y-73416921D01*
X129873158Y-73464540D01*
X129920777Y-73512159D01*
X130777920Y-73416921D02*
X130587443Y-73416921D01*
X130492205Y-73464540D01*
X130444586Y-73512159D01*
X130349348Y-73655016D01*
X130301729Y-73845492D01*
X130301729Y-74226445D01*
X130349348Y-74321683D01*
X130396967Y-74369302D01*
X130492205Y-74416921D01*
X130682682Y-74416921D01*
X130777920Y-74369302D01*
X130825539Y-74321683D01*
X130873158Y-74226445D01*
X130873158Y-73988350D01*
X130825539Y-73893111D01*
X130777920Y-73845492D01*
X130682682Y-73797873D01*
X130492205Y-73797873D01*
X130396967Y-73845492D01*
X130349348Y-73893111D01*
X130301729Y-73988350D01*
X129049110Y-75681683D02*
X129096729Y-75729302D01*
X129049110Y-75776921D01*
X129001491Y-75729302D01*
X129049110Y-75681683D01*
X129049110Y-75776921D01*
X129430062Y-74776921D02*
X130049110Y-74776921D01*
X129715776Y-75157873D01*
X129858634Y-75157873D01*
X129953872Y-75205492D01*
X130001491Y-75253111D01*
X130049110Y-75348350D01*
X130049110Y-75586445D01*
X130001491Y-75681683D01*
X129953872Y-75729302D01*
X129858634Y-75776921D01*
X129572919Y-75776921D01*
X129477681Y-75729302D01*
X129430062Y-75681683D01*
X130382443Y-74776921D02*
X131001491Y-74776921D01*
X130668157Y-75157873D01*
X130811015Y-75157873D01*
X130906253Y-75205492D01*
X130953872Y-75253111D01*
X131001491Y-75348350D01*
X131001491Y-75586445D01*
X130953872Y-75681683D01*
X130906253Y-75729302D01*
X130811015Y-75776921D01*
X130525300Y-75776921D01*
X130430062Y-75729302D01*
X130382443Y-75681683D01*
X131858634Y-75110254D02*
X131858634Y-75776921D01*
X131430062Y-75110254D02*
X131430062Y-75634064D01*
X131477681Y-75729302D01*
X131572919Y-75776921D01*
X131715777Y-75776921D01*
X131811015Y-75729302D01*
X131858634Y-75681683D01*
X132668158Y-75253111D02*
X132334824Y-75253111D01*
X132334824Y-75776921D02*
X132334824Y-74776921D01*
X132811015Y-74776921D01*
X125168985Y-80938297D02*
X125270000Y-80365876D01*
X124764923Y-80534236D02*
X125472030Y-79827129D01*
X125741405Y-80096503D01*
X125775076Y-80197519D01*
X125775076Y-80264862D01*
X125741405Y-80365877D01*
X125640389Y-80466892D01*
X125539374Y-80500564D01*
X125472031Y-80500564D01*
X125371016Y-80466892D01*
X125101641Y-80197518D01*
X125842420Y-81611732D02*
X125438358Y-81207671D01*
X125640389Y-81409701D02*
X126347495Y-80702594D01*
X126179137Y-80736266D01*
X126044450Y-80736266D01*
X125943435Y-80702594D01*
X127219594Y-78180581D02*
X126815533Y-77776519D01*
X127017563Y-77978550D02*
X127724670Y-77271443D01*
X127556311Y-77305115D01*
X127421625Y-77305115D01*
X127320609Y-77271443D01*
X128364433Y-77911206D02*
X128431778Y-77978550D01*
X128465449Y-78079565D01*
X128465449Y-78146909D01*
X128431778Y-78247924D01*
X128330762Y-78416283D01*
X128162403Y-78584642D01*
X127994044Y-78685657D01*
X127893029Y-78719329D01*
X127825686Y-78719329D01*
X127724671Y-78685657D01*
X127657327Y-78618313D01*
X127623655Y-78517298D01*
X127623655Y-78449954D01*
X127657327Y-78348939D01*
X127758342Y-78180581D01*
X127926701Y-78012221D01*
X128095060Y-77911206D01*
X128196075Y-77877534D01*
X128263418Y-77877534D01*
X128364433Y-77911206D01*
X129037868Y-78584641D02*
X129105213Y-78651985D01*
X129138884Y-78753001D01*
X129138884Y-78820344D01*
X129105213Y-78921359D01*
X129004197Y-79089718D01*
X128835838Y-79258077D01*
X128667480Y-79359092D01*
X128566464Y-79392764D01*
X128499121Y-79392764D01*
X128398106Y-79359092D01*
X128330762Y-79291748D01*
X128297090Y-79190733D01*
X128297090Y-79123389D01*
X128330762Y-79022374D01*
X128431777Y-78854016D01*
X128600136Y-78685656D01*
X128768495Y-78584641D01*
X128869510Y-78550970D01*
X128936853Y-78550970D01*
X129037868Y-78584641D01*
X103223824Y-31222206D02*
X102747633Y-31555540D01*
X103223824Y-31793635D02*
X102223824Y-31793635D01*
X102223824Y-31412682D01*
X102271443Y-31317444D01*
X102319062Y-31269825D01*
X102414300Y-31222206D01*
X102557157Y-31222206D01*
X102652395Y-31269825D01*
X102700014Y-31317444D01*
X102747633Y-31412682D01*
X102747633Y-31793635D01*
X102319062Y-30841254D02*
X102271443Y-30793635D01*
X102223824Y-30698397D01*
X102223824Y-30460301D01*
X102271443Y-30365063D01*
X102319062Y-30317444D01*
X102414300Y-30269825D01*
X102509538Y-30269825D01*
X102652395Y-30317444D01*
X103223824Y-30888873D01*
X103223824Y-30269825D01*
X105623824Y-31769825D02*
X105623824Y-32246016D01*
X106100014Y-32293635D01*
X106052395Y-32246016D01*
X106004776Y-32150778D01*
X106004776Y-31912682D01*
X106052395Y-31817444D01*
X106100014Y-31769825D01*
X106195253Y-31722206D01*
X106433348Y-31722206D01*
X106528586Y-31769825D01*
X106576205Y-31817444D01*
X106623824Y-31912682D01*
X106623824Y-32150778D01*
X106576205Y-32246016D01*
X106528586Y-32293635D01*
X105623824Y-30865063D02*
X105623824Y-31055540D01*
X105671443Y-31150778D01*
X105719062Y-31198397D01*
X105861919Y-31293635D01*
X106052395Y-31341254D01*
X106433348Y-31341254D01*
X106528586Y-31293635D01*
X106576205Y-31246016D01*
X106623824Y-31150778D01*
X106623824Y-30960301D01*
X106576205Y-30865063D01*
X106528586Y-30817444D01*
X106433348Y-30769825D01*
X106195253Y-30769825D01*
X106100014Y-30817444D01*
X106052395Y-30865063D01*
X106004776Y-30960301D01*
X106004776Y-31150778D01*
X106052395Y-31246016D01*
X106100014Y-31293635D01*
X106195253Y-31341254D01*
X105623824Y-30150778D02*
X105623824Y-30055539D01*
X105671443Y-29960301D01*
X105719062Y-29912682D01*
X105814300Y-29865063D01*
X106004776Y-29817444D01*
X106242872Y-29817444D01*
X106433348Y-29865063D01*
X106528586Y-29912682D01*
X106576205Y-29960301D01*
X106623824Y-30055539D01*
X106623824Y-30150778D01*
X106576205Y-30246016D01*
X106528586Y-30293635D01*
X106433348Y-30341254D01*
X106242872Y-30388873D01*
X106004776Y-30388873D01*
X105814300Y-30341254D01*
X105719062Y-30293635D01*
X105671443Y-30246016D01*
X105623824Y-30150778D01*
X124420777Y-34016921D02*
X124087443Y-33540730D01*
X123849348Y-34016921D02*
X123849348Y-33016921D01*
X124230301Y-33016921D01*
X124325539Y-33064540D01*
X124373158Y-33112159D01*
X124420777Y-33207397D01*
X124420777Y-33350254D01*
X124373158Y-33445492D01*
X124325539Y-33493111D01*
X124230301Y-33540730D01*
X123849348Y-33540730D01*
X124754110Y-33016921D02*
X125373158Y-33016921D01*
X125039824Y-33397873D01*
X125182682Y-33397873D01*
X125277920Y-33445492D01*
X125325539Y-33493111D01*
X125373158Y-33588350D01*
X125373158Y-33826445D01*
X125325539Y-33921683D01*
X125277920Y-33969302D01*
X125182682Y-34016921D01*
X124896967Y-34016921D01*
X124801729Y-33969302D01*
X124754110Y-33921683D01*
X123113158Y-34391921D02*
X122636967Y-34391921D01*
X122589348Y-34868111D01*
X122636967Y-34820492D01*
X122732205Y-34772873D01*
X122970301Y-34772873D01*
X123065539Y-34820492D01*
X123113158Y-34868111D01*
X123160777Y-34963350D01*
X123160777Y-35201445D01*
X123113158Y-35296683D01*
X123065539Y-35344302D01*
X122970301Y-35391921D01*
X122732205Y-35391921D01*
X122636967Y-35344302D01*
X122589348Y-35296683D01*
X124017920Y-34391921D02*
X123827443Y-34391921D01*
X123732205Y-34439540D01*
X123684586Y-34487159D01*
X123589348Y-34630016D01*
X123541729Y-34820492D01*
X123541729Y-35201445D01*
X123589348Y-35296683D01*
X123636967Y-35344302D01*
X123732205Y-35391921D01*
X123922682Y-35391921D01*
X124017920Y-35344302D01*
X124065539Y-35296683D01*
X124113158Y-35201445D01*
X124113158Y-34963350D01*
X124065539Y-34868111D01*
X124017920Y-34820492D01*
X123922682Y-34772873D01*
X123732205Y-34772873D01*
X123636967Y-34820492D01*
X123589348Y-34868111D01*
X123541729Y-34963350D01*
X124732205Y-34391921D02*
X124827444Y-34391921D01*
X124922682Y-34439540D01*
X124970301Y-34487159D01*
X125017920Y-34582397D01*
X125065539Y-34772873D01*
X125065539Y-35010969D01*
X125017920Y-35201445D01*
X124970301Y-35296683D01*
X124922682Y-35344302D01*
X124827444Y-35391921D01*
X124732205Y-35391921D01*
X124636967Y-35344302D01*
X124589348Y-35296683D01*
X124541729Y-35201445D01*
X124494110Y-35010969D01*
X124494110Y-34772873D01*
X124541729Y-34582397D01*
X124589348Y-34487159D01*
X124636967Y-34439540D01*
X124732205Y-34391921D01*
X82903824Y-51542206D02*
X82427633Y-51875540D01*
X82903824Y-52113635D02*
X81903824Y-52113635D01*
X81903824Y-51732682D01*
X81951443Y-51637444D01*
X81999062Y-51589825D01*
X82094300Y-51542206D01*
X82237157Y-51542206D01*
X82332395Y-51589825D01*
X82380014Y-51637444D01*
X82427633Y-51732682D01*
X82427633Y-52113635D01*
X82237157Y-50685063D02*
X82903824Y-50685063D01*
X81856205Y-50923159D02*
X82570491Y-51161254D01*
X82570491Y-50542206D01*
X85039824Y-51473825D02*
X85039824Y-51950016D01*
X85516014Y-51997635D01*
X85468395Y-51950016D01*
X85420776Y-51854778D01*
X85420776Y-51616682D01*
X85468395Y-51521444D01*
X85516014Y-51473825D01*
X85611253Y-51426206D01*
X85849348Y-51426206D01*
X85944586Y-51473825D01*
X85992205Y-51521444D01*
X86039824Y-51616682D01*
X86039824Y-51854778D01*
X85992205Y-51950016D01*
X85944586Y-51997635D01*
X85039824Y-50569063D02*
X85039824Y-50759540D01*
X85087443Y-50854778D01*
X85135062Y-50902397D01*
X85277919Y-50997635D01*
X85468395Y-51045254D01*
X85849348Y-51045254D01*
X85944586Y-50997635D01*
X85992205Y-50950016D01*
X86039824Y-50854778D01*
X86039824Y-50664301D01*
X85992205Y-50569063D01*
X85944586Y-50521444D01*
X85849348Y-50473825D01*
X85611253Y-50473825D01*
X85516014Y-50521444D01*
X85468395Y-50569063D01*
X85420776Y-50664301D01*
X85420776Y-50854778D01*
X85468395Y-50950016D01*
X85516014Y-50997635D01*
X85611253Y-51045254D01*
X85039824Y-49854778D02*
X85039824Y-49759539D01*
X85087443Y-49664301D01*
X85135062Y-49616682D01*
X85230300Y-49569063D01*
X85420776Y-49521444D01*
X85658872Y-49521444D01*
X85849348Y-49569063D01*
X85944586Y-49616682D01*
X85992205Y-49664301D01*
X86039824Y-49759539D01*
X86039824Y-49854778D01*
X85992205Y-49950016D01*
X85944586Y-49997635D01*
X85849348Y-50045254D01*
X85658872Y-50092873D01*
X85420776Y-50092873D01*
X85230300Y-50045254D01*
X85135062Y-49997635D01*
X85087443Y-49950016D01*
X85039824Y-49854778D01*
X85044824Y-49316206D02*
X84568633Y-49649540D01*
X85044824Y-49887635D02*
X84044824Y-49887635D01*
X84044824Y-49506682D01*
X84092443Y-49411444D01*
X84140062Y-49363825D01*
X84235300Y-49316206D01*
X84378157Y-49316206D01*
X84473395Y-49363825D01*
X84521014Y-49411444D01*
X84568633Y-49506682D01*
X84568633Y-49887635D01*
X84378157Y-48459063D02*
X85044824Y-48459063D01*
X83997205Y-48697159D02*
X84711491Y-48935254D01*
X84711491Y-48316206D01*
X84731381Y-55196399D02*
X84722359Y-55346713D01*
X84783982Y-55576696D01*
X84854628Y-55656365D01*
X84912949Y-55690036D01*
X85017267Y-55711383D01*
X85109260Y-55686734D01*
X85188928Y-55616088D01*
X85222600Y-55557767D01*
X85243948Y-55453449D01*
X85240645Y-55257138D01*
X85261992Y-55152820D01*
X85295664Y-55094499D01*
X85375332Y-55023853D01*
X85467325Y-54999204D01*
X85571642Y-55020551D01*
X85629963Y-55054223D01*
X85700609Y-55133891D01*
X85762233Y-55363874D01*
X85753211Y-55514188D01*
X85885480Y-55823838D02*
X84981178Y-56312639D01*
X85720424Y-56311755D01*
X85079776Y-56680611D01*
X86107325Y-56651775D01*
X85375569Y-57784527D02*
X85227672Y-57232569D01*
X85301620Y-57508547D02*
X86267546Y-57249728D01*
X86104907Y-57194709D01*
X85988265Y-57127366D01*
X85917619Y-57047698D01*
X84857698Y-53634107D02*
X84824026Y-53692428D01*
X84698361Y-53775399D01*
X84606369Y-53800048D01*
X84456054Y-53791026D01*
X84339411Y-53723683D01*
X84268765Y-53644014D01*
X84173470Y-53472353D01*
X84136496Y-53334363D01*
X84133193Y-53138053D01*
X84154541Y-53033735D01*
X84221884Y-52917093D01*
X84347549Y-52834122D01*
X84439542Y-52809473D01*
X84589856Y-52818495D01*
X84648177Y-52852167D01*
X98549980Y-53749258D02*
X98696444Y-53784245D01*
X98933634Y-53763494D01*
X99024359Y-53707756D01*
X99067647Y-53656168D01*
X99106784Y-53557142D01*
X99098483Y-53462266D01*
X99042745Y-53371541D01*
X98991157Y-53328253D01*
X98892131Y-53289115D01*
X98698228Y-53258278D01*
X98599203Y-53219141D01*
X98547615Y-53175854D01*
X98491876Y-53085128D01*
X98483576Y-52990253D01*
X98522713Y-52891227D01*
X98566000Y-52839639D01*
X98656726Y-52783900D01*
X98893916Y-52763149D01*
X99040379Y-52798136D01*
X99368294Y-52721646D02*
X99692638Y-53697090D01*
X99820136Y-52968921D01*
X100072142Y-53663887D01*
X100222175Y-52646941D01*
X100562540Y-52712765D02*
X100605828Y-52661177D01*
X100696553Y-52605439D01*
X100933743Y-52584687D01*
X101032769Y-52623824D01*
X101084357Y-52667112D01*
X101140095Y-52757837D01*
X101148396Y-52852713D01*
X101113409Y-52999177D01*
X100593958Y-53618234D01*
X101210650Y-53564281D01*
X96862982Y-62023855D02*
X96819694Y-62075443D01*
X96681531Y-62135332D01*
X96586656Y-62143632D01*
X96440191Y-62108645D01*
X96337015Y-62022070D01*
X96281277Y-61931345D01*
X96217238Y-61745744D01*
X96204787Y-61603430D01*
X96235623Y-61409528D01*
X96274761Y-61310502D01*
X96361336Y-61207326D01*
X96499500Y-61147438D01*
X96594375Y-61139137D01*
X96740839Y-61174124D01*
X96792427Y-61217412D01*
X97192681Y-61421398D02*
X97904249Y-61359144D01*
X97439955Y-60969557D02*
X97267386Y-62275280D01*
X97846726Y-61794386D02*
X97135158Y-61856640D01*
X97599451Y-62246228D02*
X97772021Y-60940505D01*
X85289286Y-69942079D02*
X85356630Y-70076766D01*
X85524989Y-70245125D01*
X85626004Y-70278797D01*
X85693348Y-70278797D01*
X85794363Y-70245125D01*
X85861706Y-70177782D01*
X85895378Y-70076767D01*
X85895378Y-70009423D01*
X85861707Y-69908407D01*
X85760691Y-69740048D01*
X85727019Y-69639033D01*
X85727019Y-69571690D01*
X85760691Y-69470674D01*
X85828034Y-69403331D01*
X85929050Y-69369659D01*
X85996393Y-69369659D01*
X86097408Y-69403331D01*
X86265767Y-69571690D01*
X86333111Y-69706377D01*
X86602485Y-69908407D02*
X86063736Y-70783873D01*
X86703501Y-70413484D01*
X86333111Y-71053247D01*
X87208576Y-70514499D01*
X87410607Y-70716529D02*
X87848340Y-71154262D01*
X87343263Y-71187933D01*
X87444279Y-71288949D01*
X87477951Y-71389964D01*
X87477951Y-71457308D01*
X87444278Y-71558324D01*
X87275920Y-71726682D01*
X87174905Y-71760354D01*
X87107561Y-71760354D01*
X87006546Y-71726682D01*
X86804515Y-71524651D01*
X86770843Y-71423636D01*
X86770843Y-71356293D01*
X90332368Y-63554227D02*
X91039474Y-62847120D01*
X91207833Y-63015479D01*
X91275177Y-63150166D01*
X91275177Y-63284853D01*
X91241505Y-63385868D01*
X91140490Y-63554227D01*
X91039474Y-63655243D01*
X90871116Y-63756258D01*
X90770101Y-63789930D01*
X90635414Y-63789930D01*
X90500726Y-63722585D01*
X90332368Y-63554227D01*
X92752299Y-63566750D02*
X92730211Y-63715705D01*
X92771556Y-63950184D01*
X92834989Y-64035706D01*
X92890154Y-64074333D01*
X92992214Y-64104690D01*
X93086005Y-64088152D01*
X93171527Y-64024719D01*
X93210154Y-63969554D01*
X93240512Y-63867494D01*
X93254332Y-63671642D01*
X93284689Y-63569582D01*
X93323316Y-63514417D01*
X93408838Y-63450984D01*
X93502629Y-63434446D01*
X93604689Y-63464804D01*
X93659854Y-63503430D01*
X93723287Y-63588953D01*
X93764632Y-63823431D01*
X93742544Y-63972387D01*
X93847322Y-64292387D02*
X92903859Y-64700513D01*
X93640369Y-64764062D01*
X92970011Y-65075678D01*
X93996163Y-65136508D01*
X93808467Y-65991616D02*
X93151928Y-66107382D01*
X94142286Y-65690986D02*
X93397507Y-65580542D01*
X93505004Y-66190186D01*
X101587343Y-65725807D02*
X102572151Y-65552159D01*
X102613496Y-65786637D01*
X102591407Y-65935593D01*
X102514154Y-66045922D01*
X102428632Y-66109356D01*
X102249319Y-66189327D01*
X102108631Y-66214134D01*
X101912780Y-66200315D01*
X101810720Y-66169957D01*
X101700391Y-66092704D01*
X101628688Y-65960285D01*
X101587343Y-65725807D01*
X102409261Y-66547954D02*
X102533296Y-67251388D01*
X102880935Y-66754907D02*
X101565140Y-66696795D01*
X102094697Y-67232018D02*
X101970662Y-66528583D01*
X101623023Y-67025065D02*
X102938818Y-67083177D01*
X91452695Y-73151972D02*
X91601650Y-73174060D01*
X91836129Y-73132715D01*
X91921651Y-73069282D01*
X91960278Y-73014117D01*
X91990635Y-72912057D01*
X91974097Y-72818266D01*
X91910664Y-72732744D01*
X91855499Y-72694117D01*
X91753439Y-72663759D01*
X91557587Y-72649939D01*
X91455527Y-72619582D01*
X91400362Y-72580955D01*
X91336929Y-72495433D01*
X91320391Y-72401642D01*
X91350749Y-72299582D01*
X91389375Y-72244417D01*
X91474898Y-72180984D01*
X91709376Y-72139639D01*
X91858332Y-72161727D01*
X92178332Y-72056949D02*
X92586458Y-73000412D01*
X92650007Y-72263902D01*
X92961623Y-72934260D01*
X93022453Y-71908108D01*
X93866574Y-71759266D02*
X93397617Y-71841956D01*
X93433411Y-72319181D01*
X93472038Y-72264016D01*
X93557560Y-72200583D01*
X93792039Y-72159238D01*
X93894099Y-72189595D01*
X93949264Y-72228222D01*
X94012697Y-72313745D01*
X94054042Y-72548223D01*
X94023684Y-72650283D01*
X93985058Y-72705448D01*
X93899536Y-72768881D01*
X93665057Y-72810226D01*
X93562997Y-72779868D01*
X93507832Y-72741242D01*
X97138105Y-75812178D02*
X97466375Y-75754295D01*
X97698020Y-76245340D02*
X97229064Y-76328030D01*
X97055415Y-75343222D01*
X97524372Y-75260532D01*
X97509587Y-77368708D02*
X97487499Y-77517663D01*
X97528844Y-77752142D01*
X97592277Y-77837664D01*
X97647442Y-77876291D01*
X97749502Y-77906648D01*
X97843293Y-77890110D01*
X97928815Y-77826677D01*
X97967442Y-77771512D01*
X97997800Y-77669452D01*
X98011620Y-77473600D01*
X98041977Y-77371540D01*
X98080604Y-77316375D01*
X98166126Y-77252942D01*
X98259917Y-77236404D01*
X98361977Y-77266762D01*
X98417142Y-77305388D01*
X98480575Y-77390911D01*
X98521920Y-77625389D01*
X98499832Y-77774345D01*
X98604610Y-78094345D02*
X97661147Y-78502471D01*
X98397657Y-78566020D01*
X97727299Y-78877636D01*
X98753451Y-78938466D01*
X98894024Y-79735691D02*
X98860948Y-79548108D01*
X98797514Y-79462586D01*
X98742350Y-79423959D01*
X98585125Y-79354975D01*
X98389274Y-79341155D01*
X98014108Y-79407307D01*
X97928586Y-79470741D01*
X97889960Y-79525905D01*
X97859602Y-79627965D01*
X97892678Y-79815549D01*
X97956111Y-79901071D01*
X98011276Y-79939697D01*
X98113336Y-79970055D01*
X98347814Y-79928710D01*
X98433337Y-79865277D01*
X98471964Y-79810112D01*
X98502321Y-79708052D01*
X98469245Y-79520469D01*
X98405812Y-79434947D01*
X98350647Y-79396320D01*
X98248586Y-79365963D01*
X102992594Y-82257823D02*
X102934711Y-81929553D01*
X102418859Y-82020512D02*
X103403667Y-81846864D01*
X103486356Y-82315820D01*
X114134110Y-73744302D02*
X114276967Y-73791921D01*
X114515063Y-73791921D01*
X114610301Y-73744302D01*
X114657920Y-73696683D01*
X114705539Y-73601445D01*
X114705539Y-73506207D01*
X114657920Y-73410969D01*
X114610301Y-73363350D01*
X114515063Y-73315730D01*
X114324586Y-73268111D01*
X114229348Y-73220492D01*
X114181729Y-73172873D01*
X114134110Y-73077635D01*
X114134110Y-72982397D01*
X114181729Y-72887159D01*
X114229348Y-72839540D01*
X114324586Y-72791921D01*
X114562682Y-72791921D01*
X114705539Y-72839540D01*
X115038872Y-72791921D02*
X115276967Y-73791921D01*
X115467444Y-73077635D01*
X115657920Y-73791921D01*
X115896015Y-72791921D01*
X116181729Y-72791921D02*
X116848396Y-72791921D01*
X116419824Y-73791921D01*
X105750301Y-73348111D02*
X105416967Y-73348111D01*
X105416967Y-73871921D02*
X105416967Y-72871921D01*
X105893158Y-72871921D01*
X106226491Y-73205254D02*
X106940777Y-73205254D01*
X106512205Y-72776683D02*
X106226491Y-74062397D01*
X106845539Y-73633826D02*
X106131253Y-73633826D01*
X106559825Y-74062397D02*
X106845539Y-72776683D01*
X123209982Y-81847697D02*
X123344669Y-81780353D01*
X123513028Y-81611994D01*
X123546700Y-81510979D01*
X123546700Y-81443635D01*
X123513028Y-81342620D01*
X123445685Y-81275277D01*
X123344670Y-81241605D01*
X123277326Y-81241605D01*
X123176310Y-81275276D01*
X123007951Y-81376292D01*
X122906936Y-81409964D01*
X122839593Y-81409964D01*
X122738577Y-81376292D01*
X122671234Y-81308949D01*
X122637562Y-81207933D01*
X122637562Y-81140590D01*
X122671234Y-81039575D01*
X122839593Y-80871216D01*
X122974280Y-80803872D01*
X123176310Y-80534498D02*
X124051776Y-81073247D01*
X123681387Y-80433482D01*
X124321150Y-80803872D01*
X123782402Y-79928407D01*
X124455836Y-79861063D02*
X124354821Y-79894735D01*
X124287478Y-79894735D01*
X124186463Y-79861063D01*
X124152791Y-79827392D01*
X124119119Y-79726376D01*
X124119119Y-79659033D01*
X124152791Y-79558018D01*
X124287479Y-79423330D01*
X124388494Y-79389659D01*
X124455837Y-79389659D01*
X124556852Y-79423330D01*
X124590524Y-79457002D01*
X124624196Y-79558017D01*
X124624196Y-79625361D01*
X124590524Y-79726376D01*
X124455836Y-79861063D01*
X124422165Y-79962078D01*
X124422165Y-80029422D01*
X124455837Y-80130438D01*
X124590524Y-80265125D01*
X124691539Y-80298796D01*
X124758883Y-80298796D01*
X124859898Y-80265125D01*
X124994585Y-80130437D01*
X125028257Y-80029422D01*
X125028257Y-79962078D01*
X124994585Y-79861063D01*
X124859898Y-79726376D01*
X124758883Y-79692704D01*
X124691539Y-79692704D01*
X124590524Y-79726376D01*
X117899946Y-74281654D02*
X117798931Y-74315326D01*
X117697916Y-74416341D01*
X117630572Y-74551028D01*
X117630572Y-74685715D01*
X117664244Y-74786730D01*
X117765259Y-74955089D01*
X117866275Y-75056105D01*
X118034633Y-75157120D01*
X118135648Y-75190792D01*
X118270335Y-75190792D01*
X118405023Y-75123447D01*
X118472366Y-75056104D01*
X118539710Y-74921417D01*
X118539710Y-74854074D01*
X118304008Y-74618372D01*
X118169321Y-74753059D01*
X120165518Y-72279417D02*
X120290994Y-72196161D01*
X120437580Y-72008539D01*
X120458691Y-71904173D01*
X120450483Y-71837332D01*
X120404752Y-71741173D01*
X120329703Y-71682539D01*
X120225338Y-71661429D01*
X120158496Y-71669636D01*
X120062337Y-71715367D01*
X119907543Y-71836148D01*
X119811385Y-71881879D01*
X119744543Y-71890086D01*
X119640177Y-71868976D01*
X119565129Y-71810342D01*
X119519397Y-71714183D01*
X119511190Y-71647341D01*
X119532300Y-71542976D01*
X119678887Y-71355353D01*
X119804363Y-71272098D01*
X119972059Y-70980111D02*
X120906655Y-71408151D01*
X120461060Y-70818294D01*
X121141193Y-71107956D01*
X120499769Y-70304673D01*
X121551634Y-70582616D02*
X121668903Y-70432519D01*
X121690013Y-70328152D01*
X121681806Y-70261311D01*
X121627868Y-70098310D01*
X121507088Y-69943517D01*
X121206893Y-69708979D01*
X121102527Y-69687869D01*
X121035686Y-69696076D01*
X120939527Y-69741808D01*
X120822258Y-69891906D01*
X120801148Y-69996271D01*
X120809355Y-70063113D01*
X120855086Y-70159271D01*
X121042707Y-70305857D01*
X121147073Y-70326967D01*
X121213915Y-70318761D01*
X121310074Y-70273030D01*
X121427343Y-70122932D01*
X121448454Y-70018566D01*
X121440246Y-69951724D01*
X121394514Y-69855565D01*
X127107696Y-69623543D02*
X127011537Y-69669274D01*
X126923586Y-69781847D01*
X126873158Y-69923738D01*
X126889572Y-70057421D01*
X126935303Y-70153579D01*
X127056083Y-70308372D01*
X127168657Y-70396325D01*
X127348071Y-70476069D01*
X127452437Y-70497179D01*
X127586120Y-70480765D01*
X127711596Y-70397508D01*
X127770231Y-70322460D01*
X127820658Y-70180570D01*
X127812451Y-70113728D01*
X127549781Y-69908508D01*
X127432512Y-70058605D01*
X127596696Y-69461727D02*
X128036454Y-68898862D01*
X127434881Y-68972727D02*
X128272134Y-69989437D01*
X128315539Y-69237766D02*
X127875781Y-69800631D01*
X128477355Y-69726766D02*
X127640102Y-68710056D01*
X129192743Y-69566074D02*
X129339207Y-69601061D01*
X129576397Y-69580310D01*
X129667122Y-69524571D01*
X129710410Y-69472983D01*
X129749547Y-69373957D01*
X129741246Y-69279082D01*
X129685508Y-69188357D01*
X129633920Y-69145069D01*
X129534894Y-69105931D01*
X129340992Y-69075094D01*
X129241966Y-69035957D01*
X129190378Y-68992669D01*
X129134639Y-68901944D01*
X129126339Y-68807068D01*
X129165476Y-68708043D01*
X129208764Y-68656455D01*
X129299489Y-68600716D01*
X129536679Y-68579965D01*
X129683142Y-68614952D01*
X130011057Y-68538462D02*
X130335401Y-69513905D01*
X130462900Y-68785736D01*
X130714905Y-69480703D01*
X130864938Y-68463757D01*
X131853413Y-69381097D02*
X131284158Y-69430900D01*
X131568785Y-69405998D02*
X131481629Y-68409804D01*
X131399205Y-68560418D01*
X131312630Y-68663594D01*
X131221904Y-68719332D01*
X132382949Y-68330948D02*
X132477825Y-68322648D01*
X132576851Y-68361785D01*
X132628439Y-68405073D01*
X132684177Y-68495798D01*
X132748216Y-68681399D01*
X132768968Y-68918589D01*
X132738131Y-69112490D01*
X132698994Y-69211516D01*
X132655706Y-69263104D01*
X132564981Y-69318842D01*
X132470104Y-69327143D01*
X132371078Y-69288006D01*
X132319490Y-69244718D01*
X132263752Y-69153993D01*
X132199713Y-68968392D01*
X132178962Y-68731202D01*
X132209798Y-68537301D01*
X132248936Y-68438275D01*
X132292223Y-68386687D01*
X132382949Y-68330948D01*
X131452119Y-77360722D02*
X131926498Y-77319219D01*
X131382145Y-77653649D02*
X131627054Y-76628403D01*
X132046275Y-77595546D01*
X123671706Y-54866223D02*
X123739050Y-55000910D01*
X123907409Y-55169269D01*
X124008424Y-55202941D01*
X124075768Y-55202941D01*
X124176783Y-55169269D01*
X124244126Y-55101926D01*
X124277798Y-55000911D01*
X124277798Y-54933567D01*
X124244127Y-54832552D01*
X124143111Y-54664192D01*
X124109439Y-54563177D01*
X124109439Y-54495834D01*
X124143111Y-54394819D01*
X124210455Y-54327475D01*
X124311470Y-54293803D01*
X124378813Y-54293803D01*
X124479828Y-54327475D01*
X124648188Y-54495834D01*
X124715531Y-54630521D01*
X124984905Y-54832552D02*
X124446157Y-55708017D01*
X125085921Y-55337628D01*
X124715531Y-55977391D01*
X125590996Y-55438643D01*
X125523653Y-56785513D02*
X125119592Y-56381452D01*
X125321622Y-56583482D02*
X126028729Y-55876376D01*
X125860370Y-55910047D01*
X125725683Y-55910047D01*
X125624668Y-55876376D01*
X126197088Y-57458948D02*
X125793027Y-57054887D01*
X125995057Y-57256917D02*
X126702164Y-56549811D01*
X126533805Y-56583482D01*
X126399118Y-56583482D01*
X126298103Y-56549811D01*
X130227679Y-55255479D02*
X130564397Y-55592197D01*
X129958305Y-55390166D02*
X130901114Y-54918762D01*
X130429710Y-55861571D01*
X131103145Y-55592197D02*
X131608221Y-56097273D01*
X131608220Y-55491181D02*
X130497053Y-56198288D01*
X131237832Y-56332976D02*
X130732755Y-55827899D01*
X130732756Y-56433991D02*
X131843923Y-55726884D01*
X134917919Y-61814302D02*
X135060776Y-61861921D01*
X135298872Y-61861921D01*
X135394110Y-61814302D01*
X135441729Y-61766683D01*
X135489348Y-61671445D01*
X135489348Y-61576207D01*
X135441729Y-61480969D01*
X135394110Y-61433350D01*
X135298872Y-61385730D01*
X135108395Y-61338111D01*
X135013157Y-61290492D01*
X134965538Y-61242873D01*
X134917919Y-61147635D01*
X134917919Y-61052397D01*
X134965538Y-60957159D01*
X135013157Y-60909540D01*
X135108395Y-60861921D01*
X135346491Y-60861921D01*
X135489348Y-60909540D01*
X135822681Y-60861921D02*
X136060776Y-61861921D01*
X136251253Y-61147635D01*
X136441729Y-61861921D01*
X136679824Y-60861921D01*
X137584586Y-61861921D02*
X137013157Y-61861921D01*
X137298871Y-61861921D02*
X137298871Y-60861921D01*
X137203633Y-61004778D01*
X137108395Y-61100016D01*
X137013157Y-61147635D01*
X137965538Y-60957159D02*
X138013157Y-60909540D01*
X138108395Y-60861921D01*
X138346491Y-60861921D01*
X138441729Y-60909540D01*
X138489348Y-60957159D01*
X138536967Y-61052397D01*
X138536967Y-61147635D01*
X138489348Y-61290492D01*
X137917919Y-61861921D01*
X138536967Y-61861921D01*
X136228872Y-69578111D02*
X136371729Y-69625730D01*
X136419348Y-69673350D01*
X136466967Y-69768588D01*
X136466967Y-69911445D01*
X136419348Y-70006683D01*
X136371729Y-70054302D01*
X136276491Y-70101921D01*
X135895538Y-70101921D01*
X135895538Y-69101921D01*
X136228872Y-69101921D01*
X136324110Y-69149540D01*
X136371729Y-69197159D01*
X136419348Y-69292397D01*
X136419348Y-69387635D01*
X136371729Y-69482873D01*
X136324110Y-69530492D01*
X136228872Y-69578111D01*
X135895538Y-69578111D01*
X108492205Y-83659064D02*
X108539824Y-83516207D01*
X108539824Y-83278111D01*
X108492205Y-83182873D01*
X108444586Y-83135254D01*
X108349348Y-83087635D01*
X108254110Y-83087635D01*
X108158872Y-83135254D01*
X108111253Y-83182873D01*
X108063633Y-83278111D01*
X108016014Y-83468588D01*
X107968395Y-83563826D01*
X107920776Y-83611445D01*
X107825538Y-83659064D01*
X107730300Y-83659064D01*
X107635062Y-83611445D01*
X107587443Y-83563826D01*
X107539824Y-83468588D01*
X107539824Y-83230492D01*
X107587443Y-83087635D01*
X107539824Y-82754302D02*
X108539824Y-82516207D01*
X107825538Y-82325730D01*
X108539824Y-82135254D01*
X107539824Y-81897159D01*
X108539824Y-80992397D02*
X108539824Y-81563826D01*
X108539824Y-81278112D02*
X107539824Y-81278112D01*
X107682681Y-81373350D01*
X107777919Y-81468588D01*
X107825538Y-81563826D01*
X107539824Y-80659064D02*
X107539824Y-80040016D01*
X107920776Y-80373350D01*
X107920776Y-80230492D01*
X107968395Y-80135254D01*
X108016014Y-80087635D01*
X108111253Y-80040016D01*
X108349348Y-80040016D01*
X108444586Y-80087635D01*
X108492205Y-80135254D01*
X108539824Y-80230492D01*
X108539824Y-80516207D01*
X108492205Y-80611445D01*
X108444586Y-80659064D01*
X116739824Y-83659064D02*
X115739824Y-83659064D01*
X116454110Y-83325730D01*
X115739824Y-82992397D01*
X116739824Y-82992397D01*
X115739824Y-82325731D02*
X115739824Y-82135254D01*
X115787443Y-82040016D01*
X115882681Y-81944778D01*
X116073157Y-81897159D01*
X116406491Y-81897159D01*
X116596967Y-81944778D01*
X116692205Y-82040016D01*
X116739824Y-82135254D01*
X116739824Y-82325731D01*
X116692205Y-82420969D01*
X116596967Y-82516207D01*
X116406491Y-82563826D01*
X116073157Y-82563826D01*
X115882681Y-82516207D01*
X115787443Y-82420969D01*
X115739824Y-82325731D01*
X116739824Y-81468588D02*
X115739824Y-81468588D01*
X115739824Y-81230493D01*
X115787443Y-81087635D01*
X115882681Y-80992397D01*
X115977919Y-80944778D01*
X116168395Y-80897159D01*
X116311253Y-80897159D01*
X116501729Y-80944778D01*
X116596967Y-80992397D01*
X116692205Y-81087635D01*
X116739824Y-81230493D01*
X116739824Y-81468588D01*
X116216014Y-80468588D02*
X116216014Y-80135254D01*
X116739824Y-79992397D02*
X116739824Y-80468588D01*
X115739824Y-80468588D01*
X115739824Y-79992397D01*
X133854988Y-53796139D02*
X133989675Y-53728795D01*
X134158034Y-53560436D01*
X134191706Y-53459421D01*
X134191706Y-53392077D01*
X134158034Y-53291062D01*
X134090691Y-53223719D01*
X133989676Y-53190047D01*
X133922332Y-53190047D01*
X133821317Y-53223718D01*
X133652957Y-53324734D01*
X133551942Y-53358406D01*
X133484599Y-53358406D01*
X133383584Y-53324734D01*
X133316240Y-53257390D01*
X133282568Y-53156375D01*
X133282568Y-53089032D01*
X133316240Y-52988017D01*
X133484599Y-52819657D01*
X133619286Y-52752314D01*
X133821317Y-52482940D02*
X134696782Y-53021688D01*
X134326393Y-52381924D01*
X134966156Y-52752314D01*
X134427408Y-51876849D01*
X135774278Y-51944192D02*
X135370217Y-52348253D01*
X135572247Y-52146223D02*
X134865141Y-51439116D01*
X134898812Y-51607475D01*
X134898812Y-51742162D01*
X134865141Y-51843177D01*
X135908965Y-50866696D02*
X136380370Y-51338100D01*
X135471232Y-50765681D02*
X135807950Y-51439116D01*
X136245683Y-51001383D01*
X140949627Y-58230708D02*
X140949627Y-58298052D01*
X140882284Y-58432739D01*
X140814940Y-58500082D01*
X140680253Y-58567426D01*
X140545566Y-58567426D01*
X140444551Y-58533754D01*
X140276192Y-58432739D01*
X140175176Y-58331723D01*
X140074161Y-58163365D01*
X140040489Y-58062350D01*
X140040489Y-57927663D01*
X140107834Y-57792975D01*
X140175177Y-57725632D01*
X140309864Y-57658288D01*
X140377207Y-57658288D01*
X140646581Y-57254228D02*
X140713924Y-57456258D01*
X102099824Y-35373445D02*
X102909348Y-35373445D01*
X103004586Y-35325826D01*
X103052205Y-35278207D01*
X103099824Y-35182969D01*
X103099824Y-34992492D01*
X103052205Y-34897254D01*
X103004586Y-34849635D01*
X102909348Y-34802016D01*
X102099824Y-34802016D01*
X102195062Y-34373445D02*
X102147443Y-34325826D01*
X102099824Y-34230588D01*
X102099824Y-33992492D01*
X102147443Y-33897254D01*
X102195062Y-33849635D01*
X102290300Y-33802016D01*
X102385538Y-33802016D01*
X102528395Y-33849635D01*
X103099824Y-34421064D01*
X103099824Y-33802016D01*
X98259348Y-23101921D02*
X98259348Y-22101921D01*
X98497443Y-22101921D01*
X98640301Y-22149540D01*
X98735539Y-22244778D01*
X98783158Y-22340016D01*
X98830777Y-22530492D01*
X98830777Y-22673350D01*
X98783158Y-22863826D01*
X98735539Y-22959064D01*
X98640301Y-23054302D01*
X98497443Y-23101921D01*
X98259348Y-23101921D01*
X99783158Y-23101921D02*
X99211729Y-23101921D01*
X99497443Y-23101921D02*
X99497443Y-22101921D01*
X99402205Y-22244778D01*
X99306967Y-22340016D01*
X99211729Y-22387635D01*
X124849348Y-23301921D02*
X124849348Y-22301921D01*
X125087443Y-22301921D01*
X125230301Y-22349540D01*
X125325539Y-22444778D01*
X125373158Y-22540016D01*
X125420777Y-22730492D01*
X125420777Y-22873350D01*
X125373158Y-23063826D01*
X125325539Y-23159064D01*
X125230301Y-23254302D01*
X125087443Y-23301921D01*
X124849348Y-23301921D01*
X125754110Y-22301921D02*
X126373158Y-22301921D01*
X126039824Y-22682873D01*
X126182682Y-22682873D01*
X126277920Y-22730492D01*
X126325539Y-22778111D01*
X126373158Y-22873350D01*
X126373158Y-23111445D01*
X126325539Y-23206683D01*
X126277920Y-23254302D01*
X126182682Y-23301921D01*
X125896967Y-23301921D01*
X125801729Y-23254302D01*
X125754110Y-23206683D01*
X99220777Y-20161921D02*
X98887443Y-19685730D01*
X98649348Y-20161921D02*
X98649348Y-19161921D01*
X99030301Y-19161921D01*
X99125539Y-19209540D01*
X99173158Y-19257159D01*
X99220777Y-19352397D01*
X99220777Y-19495254D01*
X99173158Y-19590492D01*
X99125539Y-19638111D01*
X99030301Y-19685730D01*
X98649348Y-19685730D01*
X100125539Y-19161921D02*
X99649348Y-19161921D01*
X99601729Y-19638111D01*
X99649348Y-19590492D01*
X99744586Y-19542873D01*
X99982682Y-19542873D01*
X100077920Y-19590492D01*
X100125539Y-19638111D01*
X100173158Y-19733350D01*
X100173158Y-19971445D01*
X100125539Y-20066683D01*
X100077920Y-20114302D01*
X99982682Y-20161921D01*
X99744586Y-20161921D01*
X99649348Y-20114302D01*
X99601729Y-20066683D01*
X125180777Y-20111921D02*
X124847443Y-19635730D01*
X124609348Y-20111921D02*
X124609348Y-19111921D01*
X124990301Y-19111921D01*
X125085539Y-19159540D01*
X125133158Y-19207159D01*
X125180777Y-19302397D01*
X125180777Y-19445254D01*
X125133158Y-19540492D01*
X125085539Y-19588111D01*
X124990301Y-19635730D01*
X124609348Y-19635730D01*
X126037920Y-19111921D02*
X125847443Y-19111921D01*
X125752205Y-19159540D01*
X125704586Y-19207159D01*
X125609348Y-19350016D01*
X125561729Y-19540492D01*
X125561729Y-19921445D01*
X125609348Y-20016683D01*
X125656967Y-20064302D01*
X125752205Y-20111921D01*
X125942682Y-20111921D01*
X126037920Y-20064302D01*
X126085539Y-20016683D01*
X126133158Y-19921445D01*
X126133158Y-19683350D01*
X126085539Y-19588111D01*
X126037920Y-19540492D01*
X125942682Y-19492873D01*
X125752205Y-19492873D01*
X125656967Y-19540492D01*
X125609348Y-19588111D01*
X125561729Y-19683350D01*
X99389824Y-81696206D02*
X98913633Y-82029540D01*
X99389824Y-82267635D02*
X98389824Y-82267635D01*
X98389824Y-81886682D01*
X98437443Y-81791444D01*
X98485062Y-81743825D01*
X98580300Y-81696206D01*
X98723157Y-81696206D01*
X98818395Y-81743825D01*
X98866014Y-81791444D01*
X98913633Y-81886682D01*
X98913633Y-82267635D01*
X98389824Y-81362873D02*
X98389824Y-80696206D01*
X99389824Y-81124778D01*
X93505777Y-78710254D02*
X93505777Y-79376921D01*
X93267681Y-78329302D02*
X93029586Y-79043588D01*
X93648634Y-79043588D01*
X93934348Y-78376921D02*
X94601015Y-78376921D01*
X94172443Y-79376921D01*
X95172443Y-78376921D02*
X95267682Y-78376921D01*
X95362920Y-78424540D01*
X95410539Y-78472159D01*
X95458158Y-78567397D01*
X95505777Y-78757873D01*
X95505777Y-78995969D01*
X95458158Y-79186445D01*
X95410539Y-79281683D01*
X95362920Y-79329302D01*
X95267682Y-79376921D01*
X95172443Y-79376921D01*
X95077205Y-79329302D01*
X95029586Y-79281683D01*
X94981967Y-79186445D01*
X94934348Y-78995969D01*
X94934348Y-78757873D01*
X94981967Y-78567397D01*
X95029586Y-78472159D01*
X95077205Y-78424540D01*
X95172443Y-78376921D01*
X95934348Y-79376921D02*
X95934348Y-78376921D01*
X96029586Y-78995969D02*
X96315301Y-79376921D01*
X96315301Y-78710254D02*
X95934348Y-79091207D01*
X119390777Y-83771921D02*
X119057443Y-83295730D01*
X118819348Y-83771921D02*
X118819348Y-82771921D01*
X119200301Y-82771921D01*
X119295539Y-82819540D01*
X119343158Y-82867159D01*
X119390777Y-82962397D01*
X119390777Y-83105254D01*
X119343158Y-83200492D01*
X119295539Y-83248111D01*
X119200301Y-83295730D01*
X118819348Y-83295730D01*
X119962205Y-83200492D02*
X119866967Y-83152873D01*
X119819348Y-83105254D01*
X119771729Y-83010016D01*
X119771729Y-82962397D01*
X119819348Y-82867159D01*
X119866967Y-82819540D01*
X119962205Y-82771921D01*
X120152682Y-82771921D01*
X120247920Y-82819540D01*
X120295539Y-82867159D01*
X120343158Y-82962397D01*
X120343158Y-83010016D01*
X120295539Y-83105254D01*
X120247920Y-83152873D01*
X120152682Y-83200492D01*
X119962205Y-83200492D01*
X119866967Y-83248111D01*
X119819348Y-83295730D01*
X119771729Y-83390969D01*
X119771729Y-83581445D01*
X119819348Y-83676683D01*
X119866967Y-83724302D01*
X119962205Y-83771921D01*
X120152682Y-83771921D01*
X120247920Y-83724302D01*
X120295539Y-83676683D01*
X120343158Y-83581445D01*
X120343158Y-83390969D01*
X120295539Y-83295730D01*
X120247920Y-83248111D01*
X120152682Y-83200492D01*
M02*
