G04 #@! TF.FileFunction,Legend,Top*
%FSLAX46Y46*%
G04 Gerber Fmt 4.6, Leading zero omitted, Abs format (unit mm)*
G04 Created by KiCad (PCBNEW 4.0.6-e0-6349~53~ubuntu16.04.1) date Sun Nov  5 22:25:15 2017*
%MOMM*%
%LPD*%
G01*
G04 APERTURE LIST*
%ADD10C,0.100000*%
%ADD11C,0.200000*%
%ADD12C,0.010000*%
G04 APERTURE END LIST*
D10*
D11*
X49276000Y-32512000D02*
X49022000Y-33274000D01*
X48260000Y-32258000D02*
X49276000Y-32512000D01*
X48006000Y-33020000D02*
X48260000Y-32258000D01*
X47244000Y-33020000D02*
X48006000Y-33020000D01*
X47244000Y-32258000D02*
X47244000Y-33020000D01*
X46228000Y-32258000D02*
X47244000Y-32258000D01*
X46228000Y-33020000D02*
X46228000Y-32258000D01*
X45466000Y-33020000D02*
X46228000Y-33020000D01*
X45212000Y-32258000D02*
X45466000Y-33020000D01*
X44196000Y-32512000D02*
X45212000Y-32258000D01*
X44450000Y-33274000D02*
X44196000Y-32512000D01*
D12*
G36*
X37743309Y-53383275D02*
X37812907Y-53423627D01*
X37905539Y-53482071D01*
X38010594Y-53551396D01*
X38117460Y-53624393D01*
X38215525Y-53693853D01*
X38294178Y-53752568D01*
X38342807Y-53793328D01*
X38353309Y-53807052D01*
X38329715Y-53834179D01*
X38270092Y-53865320D01*
X38248167Y-53873628D01*
X38092398Y-53945283D01*
X37913456Y-54056741D01*
X37719622Y-54200935D01*
X37519178Y-54370802D01*
X37320405Y-54559274D01*
X37131583Y-54759286D01*
X36960994Y-54963774D01*
X36942889Y-54987298D01*
X36844703Y-55111652D01*
X36774022Y-55189740D01*
X36728132Y-55222974D01*
X36704325Y-55212762D01*
X36699887Y-55160517D01*
X36705200Y-55110944D01*
X36784570Y-54749466D01*
X36918886Y-54393951D01*
X37106694Y-54048083D01*
X37152055Y-53978128D01*
X37223680Y-53878368D01*
X37311019Y-53768120D01*
X37406013Y-53656235D01*
X37500600Y-53551566D01*
X37586720Y-53462968D01*
X37656314Y-53399291D01*
X37701320Y-53369391D01*
X37707358Y-53368222D01*
X37743309Y-53383275D01*
X37743309Y-53383275D01*
G37*
X37743309Y-53383275D02*
X37812907Y-53423627D01*
X37905539Y-53482071D01*
X38010594Y-53551396D01*
X38117460Y-53624393D01*
X38215525Y-53693853D01*
X38294178Y-53752568D01*
X38342807Y-53793328D01*
X38353309Y-53807052D01*
X38329715Y-53834179D01*
X38270092Y-53865320D01*
X38248167Y-53873628D01*
X38092398Y-53945283D01*
X37913456Y-54056741D01*
X37719622Y-54200935D01*
X37519178Y-54370802D01*
X37320405Y-54559274D01*
X37131583Y-54759286D01*
X36960994Y-54963774D01*
X36942889Y-54987298D01*
X36844703Y-55111652D01*
X36774022Y-55189740D01*
X36728132Y-55222974D01*
X36704325Y-55212762D01*
X36699887Y-55160517D01*
X36705200Y-55110944D01*
X36784570Y-54749466D01*
X36918886Y-54393951D01*
X37106694Y-54048083D01*
X37152055Y-53978128D01*
X37223680Y-53878368D01*
X37311019Y-53768120D01*
X37406013Y-53656235D01*
X37500600Y-53551566D01*
X37586720Y-53462968D01*
X37656314Y-53399291D01*
X37701320Y-53369391D01*
X37707358Y-53368222D01*
X37743309Y-53383275D01*
G36*
X55336150Y-53399579D02*
X55399894Y-53439620D01*
X55474053Y-53514545D01*
X55563874Y-53617880D01*
X55813205Y-53939557D01*
X56013906Y-54267517D01*
X56163909Y-54597582D01*
X56261148Y-54925575D01*
X56288699Y-55082722D01*
X56295463Y-55179024D01*
X56282295Y-55224774D01*
X56248057Y-55219881D01*
X56191609Y-55164256D01*
X56119889Y-55069341D01*
X56060237Y-54992441D01*
X55970817Y-54886993D01*
X55861704Y-54764432D01*
X55742969Y-54636195D01*
X55683380Y-54573769D01*
X55494183Y-54388348D01*
X55304118Y-54221684D01*
X55121029Y-54079671D01*
X54952760Y-53968207D01*
X54807157Y-53893188D01*
X54750829Y-53872803D01*
X54681187Y-53845217D01*
X54642064Y-53816661D01*
X54638914Y-53808255D01*
X54661495Y-53782111D01*
X54722840Y-53732216D01*
X54814158Y-53665228D01*
X54926661Y-53587807D01*
X54953291Y-53570095D01*
X55091392Y-53479680D01*
X55193501Y-53420517D01*
X55271220Y-53393514D01*
X55336150Y-53399579D01*
X55336150Y-53399579D01*
G37*
X55336150Y-53399579D02*
X55399894Y-53439620D01*
X55474053Y-53514545D01*
X55563874Y-53617880D01*
X55813205Y-53939557D01*
X56013906Y-54267517D01*
X56163909Y-54597582D01*
X56261148Y-54925575D01*
X56288699Y-55082722D01*
X56295463Y-55179024D01*
X56282295Y-55224774D01*
X56248057Y-55219881D01*
X56191609Y-55164256D01*
X56119889Y-55069341D01*
X56060237Y-54992441D01*
X55970817Y-54886993D01*
X55861704Y-54764432D01*
X55742969Y-54636195D01*
X55683380Y-54573769D01*
X55494183Y-54388348D01*
X55304118Y-54221684D01*
X55121029Y-54079671D01*
X54952760Y-53968207D01*
X54807157Y-53893188D01*
X54750829Y-53872803D01*
X54681187Y-53845217D01*
X54642064Y-53816661D01*
X54638914Y-53808255D01*
X54661495Y-53782111D01*
X54722840Y-53732216D01*
X54814158Y-53665228D01*
X54926661Y-53587807D01*
X54953291Y-53570095D01*
X55091392Y-53479680D01*
X55193501Y-53420517D01*
X55271220Y-53393514D01*
X55336150Y-53399579D01*
G36*
X48620799Y-36611518D02*
X48757772Y-36619044D01*
X48875323Y-36630361D01*
X49124187Y-36664993D01*
X49346627Y-36710028D01*
X49549124Y-36769508D01*
X49738161Y-36847477D01*
X49920218Y-36947978D01*
X50101779Y-37075055D01*
X50289323Y-37232751D01*
X50489335Y-37425110D01*
X50708294Y-37656174D01*
X50945488Y-37921763D01*
X51123532Y-38123306D01*
X51278956Y-38293209D01*
X51419869Y-38437734D01*
X51554379Y-38563147D01*
X51690594Y-38675713D01*
X51836623Y-38781697D01*
X52000574Y-38887362D01*
X52190555Y-38998974D01*
X52414674Y-39122797D01*
X52681040Y-39265096D01*
X52690889Y-39270309D01*
X52984484Y-39429695D01*
X53232977Y-39574399D01*
X53443901Y-39710121D01*
X53624793Y-39842560D01*
X53783186Y-39977412D01*
X53926616Y-40120378D01*
X54062617Y-40277154D01*
X54123345Y-40353656D01*
X54204766Y-40456837D01*
X54312369Y-40590515D01*
X54435892Y-40742085D01*
X54565074Y-40898943D01*
X54666631Y-41021000D01*
X54898482Y-41301365D01*
X55095312Y-41547260D01*
X55261145Y-41764980D01*
X55400001Y-41960817D01*
X55515904Y-42141065D01*
X55612875Y-42312018D01*
X55694938Y-42479968D01*
X55766115Y-42651209D01*
X55830428Y-42832034D01*
X55837099Y-42852299D01*
X55920653Y-43137155D01*
X55991173Y-43443194D01*
X56049689Y-43777305D01*
X56097236Y-44146374D01*
X56134845Y-44557292D01*
X56163550Y-45016947D01*
X56164521Y-45036301D01*
X56178598Y-45370460D01*
X56183363Y-45658138D01*
X56176392Y-45908873D01*
X56155257Y-46132207D01*
X56117536Y-46337679D01*
X56060802Y-46534831D01*
X55982630Y-46733202D01*
X55880595Y-46942333D01*
X55752271Y-47171765D01*
X55595235Y-47431037D01*
X55528715Y-47537480D01*
X55389005Y-47760583D01*
X55273782Y-47948485D01*
X55179066Y-48110673D01*
X55100881Y-48256634D01*
X55035250Y-48395855D01*
X54978195Y-48537823D01*
X54925739Y-48692024D01*
X54873905Y-48867946D01*
X54818715Y-49075075D01*
X54756192Y-49322898D01*
X54721423Y-49463072D01*
X54647837Y-49755012D01*
X54582678Y-50000291D01*
X54523084Y-50207552D01*
X54466193Y-50385436D01*
X54409141Y-50542587D01*
X54349065Y-50687648D01*
X54283104Y-50829259D01*
X54241191Y-50912889D01*
X54116531Y-51134755D01*
X53975905Y-51340959D01*
X53813540Y-51537164D01*
X53623665Y-51729033D01*
X53400507Y-51922228D01*
X53138295Y-52122413D01*
X52831256Y-52335250D01*
X52709931Y-52415216D01*
X52517445Y-52542222D01*
X52296630Y-52690487D01*
X52064882Y-52848172D01*
X51839591Y-53003434D01*
X51638153Y-53144435D01*
X51623376Y-53154895D01*
X51446443Y-53279565D01*
X51264868Y-53406263D01*
X51090228Y-53526999D01*
X50934101Y-53633784D01*
X50808064Y-53718628D01*
X50771778Y-53742595D01*
X50551003Y-53878700D01*
X50303904Y-54016446D01*
X50045422Y-54148462D01*
X49790495Y-54267380D01*
X49554062Y-54365828D01*
X49389486Y-54424507D01*
X49217104Y-54477318D01*
X49049212Y-54522668D01*
X48880537Y-54560907D01*
X48705807Y-54592387D01*
X48519747Y-54617461D01*
X48317085Y-54636480D01*
X48092549Y-54649796D01*
X47840865Y-54657759D01*
X47556760Y-54660723D01*
X47234961Y-54659039D01*
X46870196Y-54653057D01*
X46457191Y-54643131D01*
X46213889Y-54636302D01*
X45901374Y-54625247D01*
X45621820Y-54610336D01*
X45365877Y-54589896D01*
X45124198Y-54562254D01*
X44887433Y-54525738D01*
X44646234Y-54478672D01*
X44391253Y-54419385D01*
X44113140Y-54346203D01*
X43802548Y-54257453D01*
X43450127Y-54151462D01*
X43373258Y-54127880D01*
X43014534Y-54015879D01*
X42703848Y-53914824D01*
X42434490Y-53821912D01*
X42199753Y-53734343D01*
X41992928Y-53649314D01*
X41807308Y-53564024D01*
X41636183Y-53475671D01*
X41472847Y-53381454D01*
X41310591Y-53278572D01*
X41261807Y-53246060D01*
X41135180Y-53162481D01*
X41016762Y-53088666D01*
X40896845Y-53019498D01*
X40765720Y-52949864D01*
X40613680Y-52874648D01*
X40431015Y-52788734D01*
X40208017Y-52687009D01*
X40157331Y-52664139D01*
X39873649Y-52533947D01*
X39635645Y-52418855D01*
X39436028Y-52314455D01*
X39267511Y-52216341D01*
X39122803Y-52120107D01*
X38994616Y-52021344D01*
X38875659Y-51915648D01*
X38805556Y-51846940D01*
X38699046Y-51733296D01*
X38597245Y-51614305D01*
X38513201Y-51505774D01*
X38468061Y-51438031D01*
X38349393Y-51206544D01*
X38235238Y-50926052D01*
X38128270Y-50603963D01*
X38031162Y-50247685D01*
X38016163Y-50185669D01*
X37942554Y-49875556D01*
X37880091Y-49613006D01*
X37826568Y-49390740D01*
X37779779Y-49201478D01*
X37737521Y-49037940D01*
X37697588Y-48892848D01*
X37657774Y-48758921D01*
X37615874Y-48628880D01*
X37569684Y-48495446D01*
X37516998Y-48351338D01*
X37455611Y-48189278D01*
X37383318Y-48001985D01*
X37297914Y-47782181D01*
X37253301Y-47667333D01*
X37126630Y-47327835D01*
X37026223Y-47027361D01*
X36949701Y-46756297D01*
X36894689Y-46505028D01*
X36858809Y-46263939D01*
X36839684Y-46023417D01*
X36838165Y-45988111D01*
X36835770Y-45844516D01*
X37354574Y-45844516D01*
X37354585Y-45847000D01*
X37356542Y-46021486D01*
X37361816Y-46156665D01*
X37372486Y-46269657D01*
X37390630Y-46377588D01*
X37418325Y-46497577D01*
X37446704Y-46606119D01*
X37490534Y-46756212D01*
X37549312Y-46938668D01*
X37616373Y-47133710D01*
X37685047Y-47321561D01*
X37708340Y-47382230D01*
X37822793Y-47676546D01*
X37919083Y-47926596D01*
X37999817Y-48140600D01*
X38067602Y-48326776D01*
X38125044Y-48493343D01*
X38174749Y-48648521D01*
X38219325Y-48800528D01*
X38261377Y-48957584D01*
X38303512Y-49127907D01*
X38348337Y-49319716D01*
X38398458Y-49541231D01*
X38411537Y-49599604D01*
X38501992Y-49987322D01*
X38590359Y-50324451D01*
X38680708Y-50616511D01*
X38777113Y-50869019D01*
X38883644Y-51087495D01*
X39004374Y-51277457D01*
X39143374Y-51444425D01*
X39304716Y-51593916D01*
X39492473Y-51731449D01*
X39710715Y-51862543D01*
X39963514Y-51992717D01*
X40254943Y-52127490D01*
X40287223Y-52141811D01*
X40570692Y-52269189D01*
X40811209Y-52382109D01*
X41018740Y-52485751D01*
X41203249Y-52585298D01*
X41374703Y-52685931D01*
X41543067Y-52792831D01*
X41557223Y-52802154D01*
X41709026Y-52900150D01*
X41852329Y-52986955D01*
X41994053Y-53065450D01*
X42141119Y-53138517D01*
X42300448Y-53209038D01*
X42478959Y-53279895D01*
X42683574Y-53353970D01*
X42921213Y-53434146D01*
X43198797Y-53523303D01*
X43523247Y-53624324D01*
X43555174Y-53634155D01*
X43906382Y-53740811D01*
X44213578Y-53830303D01*
X44485970Y-53904266D01*
X44732768Y-53964336D01*
X44963180Y-54012150D01*
X45186416Y-54049341D01*
X45411685Y-54077546D01*
X45648195Y-54098400D01*
X45905157Y-54113539D01*
X46191779Y-54124599D01*
X46340889Y-54128893D01*
X46688090Y-54137765D01*
X46984941Y-54144534D01*
X47237494Y-54149204D01*
X47451806Y-54151777D01*
X47633929Y-54152256D01*
X47789919Y-54150645D01*
X47925830Y-54146946D01*
X48047716Y-54141162D01*
X48161631Y-54133297D01*
X48203556Y-54129809D01*
X48538467Y-54092138D01*
X48837535Y-54037973D01*
X49119739Y-53962126D01*
X49404055Y-53859409D01*
X49709462Y-53724634D01*
X49741667Y-53709301D01*
X49931279Y-53615223D01*
X50113596Y-53517187D01*
X50297784Y-53409503D01*
X50493009Y-53286481D01*
X50708435Y-53142432D01*
X50953229Y-52971665D01*
X51109468Y-52860154D01*
X51292211Y-52730859D01*
X51505768Y-52582945D01*
X51733229Y-52427928D01*
X51957680Y-52277323D01*
X52162211Y-52142648D01*
X52182240Y-52129642D01*
X52492034Y-51925314D01*
X52756815Y-51742236D01*
X52981676Y-51575667D01*
X53171709Y-51420865D01*
X53332005Y-51273091D01*
X53467658Y-51127604D01*
X53583758Y-50979662D01*
X53685399Y-50824526D01*
X53777673Y-50657453D01*
X53790256Y-50632597D01*
X53851699Y-50504846D01*
X53906890Y-50377197D01*
X53958642Y-50241006D01*
X54009767Y-50087625D01*
X54063076Y-49908411D01*
X54121383Y-49694716D01*
X54187500Y-49437894D01*
X54216588Y-49321854D01*
X54289247Y-49033007D01*
X54352881Y-48789862D01*
X54411342Y-48583164D01*
X54468481Y-48403660D01*
X54528152Y-48242093D01*
X54594206Y-48089212D01*
X54670497Y-47935760D01*
X54760875Y-47772485D01*
X54869194Y-47590131D01*
X54999306Y-47379444D01*
X55076407Y-47256333D01*
X55233771Y-47000858D01*
X55360736Y-46782709D01*
X55460791Y-46594071D01*
X55537423Y-46427132D01*
X55594123Y-46274078D01*
X55634379Y-46127096D01*
X55661680Y-45978372D01*
X55667938Y-45931666D01*
X55672773Y-45847957D01*
X55673407Y-45717769D01*
X55670310Y-45550876D01*
X55663954Y-45357049D01*
X55654810Y-45146061D01*
X55643348Y-44927685D01*
X55630040Y-44711693D01*
X55615357Y-44507857D01*
X55599769Y-44325950D01*
X55583749Y-44175745D01*
X55583011Y-44169769D01*
X55528075Y-43800188D01*
X55458947Y-43454405D01*
X55377742Y-43140663D01*
X55286572Y-42867209D01*
X55195504Y-42657889D01*
X55077661Y-42447192D01*
X54923731Y-42212788D01*
X54731083Y-41950924D01*
X54497086Y-41657843D01*
X54482156Y-41639766D01*
X54353325Y-41483240D01*
X54214454Y-41313159D01*
X54078770Y-41145810D01*
X53959502Y-40997480D01*
X53910790Y-40936333D01*
X53743727Y-40730383D01*
X53592559Y-40556611D01*
X53448063Y-40407560D01*
X53301018Y-40275776D01*
X53142200Y-40153802D01*
X52962387Y-40034183D01*
X52752357Y-39909462D01*
X52502887Y-39772185D01*
X52408667Y-39721974D01*
X52240075Y-39631725D01*
X52069289Y-39538676D01*
X51910356Y-39450592D01*
X51777325Y-39375241D01*
X51705530Y-39333267D01*
X51592627Y-39260616D01*
X51463002Y-39169065D01*
X51327316Y-39067064D01*
X51196232Y-38963064D01*
X51080414Y-38865516D01*
X50990524Y-38782872D01*
X50938457Y-38725310D01*
X50894228Y-38669743D01*
X50818963Y-38581149D01*
X50720106Y-38467795D01*
X50605102Y-38337947D01*
X50481396Y-38199871D01*
X50356433Y-38061835D01*
X50237658Y-37932105D01*
X50132515Y-37818947D01*
X50048451Y-37730629D01*
X49992993Y-37675495D01*
X49774285Y-37492724D01*
X49558366Y-37355607D01*
X49330660Y-37256088D01*
X49127996Y-37197610D01*
X48820519Y-37145150D01*
X48474125Y-37121925D01*
X48098481Y-37128433D01*
X47963667Y-37137682D01*
X47642713Y-37163344D01*
X47368349Y-37183889D01*
X47130972Y-37199507D01*
X46920978Y-37210394D01*
X46728765Y-37216741D01*
X46544728Y-37218741D01*
X46359265Y-37216589D01*
X46162771Y-37210477D01*
X45945643Y-37200597D01*
X45698278Y-37187144D01*
X45647740Y-37184238D01*
X45323097Y-37166760D01*
X45047297Y-37155105D01*
X44813019Y-37149461D01*
X44612943Y-37150015D01*
X44439748Y-37156955D01*
X44286114Y-37170467D01*
X44144722Y-37190738D01*
X44008251Y-37217956D01*
X43968559Y-37227173D01*
X43799026Y-37273503D01*
X43639250Y-37330945D01*
X43483113Y-37403612D01*
X43324498Y-37495615D01*
X43157285Y-37611065D01*
X42975357Y-37754074D01*
X42772596Y-37928755D01*
X42542884Y-38139217D01*
X42375667Y-38297684D01*
X42112541Y-38543097D01*
X41857312Y-38766643D01*
X41591233Y-38984141D01*
X41295558Y-39211412D01*
X41272372Y-39228765D01*
X40936825Y-39483320D01*
X40647051Y-39711494D01*
X40400253Y-39915654D01*
X40193632Y-40098171D01*
X40024389Y-40261413D01*
X39917909Y-40375321D01*
X39834623Y-40473367D01*
X39724439Y-40608901D01*
X39593618Y-40773733D01*
X39448420Y-40959673D01*
X39295106Y-41158531D01*
X39139937Y-41362118D01*
X38989173Y-41562242D01*
X38849076Y-41750716D01*
X38725906Y-41919347D01*
X38625924Y-42059948D01*
X38588338Y-42114585D01*
X38476318Y-42284779D01*
X38380269Y-42443163D01*
X38294904Y-42600821D01*
X38214933Y-42768836D01*
X38135070Y-42958289D01*
X38050024Y-43180264D01*
X37958455Y-43434648D01*
X37832974Y-43792317D01*
X37725848Y-44102734D01*
X37635670Y-44371519D01*
X37561032Y-44604293D01*
X37500529Y-44806676D01*
X37452752Y-44984289D01*
X37416296Y-45142751D01*
X37389752Y-45287683D01*
X37371715Y-45424705D01*
X37360778Y-45559437D01*
X37355533Y-45697501D01*
X37354574Y-45844516D01*
X36835770Y-45844516D01*
X36834873Y-45790750D01*
X36841269Y-45594199D01*
X36858585Y-45393512D01*
X36888053Y-45183746D01*
X36930904Y-44959956D01*
X36988370Y-44717198D01*
X37061684Y-44450528D01*
X37152077Y-44155002D01*
X37260781Y-43825675D01*
X37389028Y-43457603D01*
X37538050Y-43045843D01*
X37639803Y-42770777D01*
X37727465Y-42556026D01*
X37832550Y-42338659D01*
X37959123Y-42112055D01*
X38111252Y-41869591D01*
X38293005Y-41604645D01*
X38508448Y-41310595D01*
X38653776Y-41119777D01*
X38777272Y-40959373D01*
X38906774Y-40790905D01*
X39031504Y-40628408D01*
X39140690Y-40485917D01*
X39206506Y-40399821D01*
X39370531Y-40196150D01*
X39551462Y-39994168D01*
X39754286Y-39789357D01*
X39983988Y-39577202D01*
X40245556Y-39353185D01*
X40543976Y-39112790D01*
X40884235Y-38851501D01*
X41065378Y-38716228D01*
X41308244Y-38527615D01*
X41564650Y-38313218D01*
X41812977Y-38091411D01*
X41926640Y-37984161D01*
X42195576Y-37728810D01*
X42433239Y-37512254D01*
X42645297Y-37330615D01*
X42837421Y-37180015D01*
X43015280Y-37056573D01*
X43184544Y-36956412D01*
X43350883Y-36875652D01*
X43519966Y-36810414D01*
X43697464Y-36756820D01*
X43734944Y-36747037D01*
X43893848Y-36709687D01*
X44050957Y-36680171D01*
X44213294Y-36658257D01*
X44387883Y-36643709D01*
X44581747Y-36636295D01*
X44801910Y-36635781D01*
X45055395Y-36641933D01*
X45349225Y-36654517D01*
X45690426Y-36673300D01*
X45783185Y-36678890D01*
X46021152Y-36693106D01*
X46214848Y-36703466D01*
X46376314Y-36709958D01*
X46517593Y-36712568D01*
X46650726Y-36711282D01*
X46787757Y-36706088D01*
X46940727Y-36696971D01*
X47121677Y-36683918D01*
X47208408Y-36677298D01*
X47546413Y-36652219D01*
X47834761Y-36633029D01*
X48079914Y-36619545D01*
X48288330Y-36611587D01*
X48466472Y-36608972D01*
X48620799Y-36611518D01*
X48620799Y-36611518D01*
G37*
X48620799Y-36611518D02*
X48757772Y-36619044D01*
X48875323Y-36630361D01*
X49124187Y-36664993D01*
X49346627Y-36710028D01*
X49549124Y-36769508D01*
X49738161Y-36847477D01*
X49920218Y-36947978D01*
X50101779Y-37075055D01*
X50289323Y-37232751D01*
X50489335Y-37425110D01*
X50708294Y-37656174D01*
X50945488Y-37921763D01*
X51123532Y-38123306D01*
X51278956Y-38293209D01*
X51419869Y-38437734D01*
X51554379Y-38563147D01*
X51690594Y-38675713D01*
X51836623Y-38781697D01*
X52000574Y-38887362D01*
X52190555Y-38998974D01*
X52414674Y-39122797D01*
X52681040Y-39265096D01*
X52690889Y-39270309D01*
X52984484Y-39429695D01*
X53232977Y-39574399D01*
X53443901Y-39710121D01*
X53624793Y-39842560D01*
X53783186Y-39977412D01*
X53926616Y-40120378D01*
X54062617Y-40277154D01*
X54123345Y-40353656D01*
X54204766Y-40456837D01*
X54312369Y-40590515D01*
X54435892Y-40742085D01*
X54565074Y-40898943D01*
X54666631Y-41021000D01*
X54898482Y-41301365D01*
X55095312Y-41547260D01*
X55261145Y-41764980D01*
X55400001Y-41960817D01*
X55515904Y-42141065D01*
X55612875Y-42312018D01*
X55694938Y-42479968D01*
X55766115Y-42651209D01*
X55830428Y-42832034D01*
X55837099Y-42852299D01*
X55920653Y-43137155D01*
X55991173Y-43443194D01*
X56049689Y-43777305D01*
X56097236Y-44146374D01*
X56134845Y-44557292D01*
X56163550Y-45016947D01*
X56164521Y-45036301D01*
X56178598Y-45370460D01*
X56183363Y-45658138D01*
X56176392Y-45908873D01*
X56155257Y-46132207D01*
X56117536Y-46337679D01*
X56060802Y-46534831D01*
X55982630Y-46733202D01*
X55880595Y-46942333D01*
X55752271Y-47171765D01*
X55595235Y-47431037D01*
X55528715Y-47537480D01*
X55389005Y-47760583D01*
X55273782Y-47948485D01*
X55179066Y-48110673D01*
X55100881Y-48256634D01*
X55035250Y-48395855D01*
X54978195Y-48537823D01*
X54925739Y-48692024D01*
X54873905Y-48867946D01*
X54818715Y-49075075D01*
X54756192Y-49322898D01*
X54721423Y-49463072D01*
X54647837Y-49755012D01*
X54582678Y-50000291D01*
X54523084Y-50207552D01*
X54466193Y-50385436D01*
X54409141Y-50542587D01*
X54349065Y-50687648D01*
X54283104Y-50829259D01*
X54241191Y-50912889D01*
X54116531Y-51134755D01*
X53975905Y-51340959D01*
X53813540Y-51537164D01*
X53623665Y-51729033D01*
X53400507Y-51922228D01*
X53138295Y-52122413D01*
X52831256Y-52335250D01*
X52709931Y-52415216D01*
X52517445Y-52542222D01*
X52296630Y-52690487D01*
X52064882Y-52848172D01*
X51839591Y-53003434D01*
X51638153Y-53144435D01*
X51623376Y-53154895D01*
X51446443Y-53279565D01*
X51264868Y-53406263D01*
X51090228Y-53526999D01*
X50934101Y-53633784D01*
X50808064Y-53718628D01*
X50771778Y-53742595D01*
X50551003Y-53878700D01*
X50303904Y-54016446D01*
X50045422Y-54148462D01*
X49790495Y-54267380D01*
X49554062Y-54365828D01*
X49389486Y-54424507D01*
X49217104Y-54477318D01*
X49049212Y-54522668D01*
X48880537Y-54560907D01*
X48705807Y-54592387D01*
X48519747Y-54617461D01*
X48317085Y-54636480D01*
X48092549Y-54649796D01*
X47840865Y-54657759D01*
X47556760Y-54660723D01*
X47234961Y-54659039D01*
X46870196Y-54653057D01*
X46457191Y-54643131D01*
X46213889Y-54636302D01*
X45901374Y-54625247D01*
X45621820Y-54610336D01*
X45365877Y-54589896D01*
X45124198Y-54562254D01*
X44887433Y-54525738D01*
X44646234Y-54478672D01*
X44391253Y-54419385D01*
X44113140Y-54346203D01*
X43802548Y-54257453D01*
X43450127Y-54151462D01*
X43373258Y-54127880D01*
X43014534Y-54015879D01*
X42703848Y-53914824D01*
X42434490Y-53821912D01*
X42199753Y-53734343D01*
X41992928Y-53649314D01*
X41807308Y-53564024D01*
X41636183Y-53475671D01*
X41472847Y-53381454D01*
X41310591Y-53278572D01*
X41261807Y-53246060D01*
X41135180Y-53162481D01*
X41016762Y-53088666D01*
X40896845Y-53019498D01*
X40765720Y-52949864D01*
X40613680Y-52874648D01*
X40431015Y-52788734D01*
X40208017Y-52687009D01*
X40157331Y-52664139D01*
X39873649Y-52533947D01*
X39635645Y-52418855D01*
X39436028Y-52314455D01*
X39267511Y-52216341D01*
X39122803Y-52120107D01*
X38994616Y-52021344D01*
X38875659Y-51915648D01*
X38805556Y-51846940D01*
X38699046Y-51733296D01*
X38597245Y-51614305D01*
X38513201Y-51505774D01*
X38468061Y-51438031D01*
X38349393Y-51206544D01*
X38235238Y-50926052D01*
X38128270Y-50603963D01*
X38031162Y-50247685D01*
X38016163Y-50185669D01*
X37942554Y-49875556D01*
X37880091Y-49613006D01*
X37826568Y-49390740D01*
X37779779Y-49201478D01*
X37737521Y-49037940D01*
X37697588Y-48892848D01*
X37657774Y-48758921D01*
X37615874Y-48628880D01*
X37569684Y-48495446D01*
X37516998Y-48351338D01*
X37455611Y-48189278D01*
X37383318Y-48001985D01*
X37297914Y-47782181D01*
X37253301Y-47667333D01*
X37126630Y-47327835D01*
X37026223Y-47027361D01*
X36949701Y-46756297D01*
X36894689Y-46505028D01*
X36858809Y-46263939D01*
X36839684Y-46023417D01*
X36838165Y-45988111D01*
X36835770Y-45844516D01*
X37354574Y-45844516D01*
X37354585Y-45847000D01*
X37356542Y-46021486D01*
X37361816Y-46156665D01*
X37372486Y-46269657D01*
X37390630Y-46377588D01*
X37418325Y-46497577D01*
X37446704Y-46606119D01*
X37490534Y-46756212D01*
X37549312Y-46938668D01*
X37616373Y-47133710D01*
X37685047Y-47321561D01*
X37708340Y-47382230D01*
X37822793Y-47676546D01*
X37919083Y-47926596D01*
X37999817Y-48140600D01*
X38067602Y-48326776D01*
X38125044Y-48493343D01*
X38174749Y-48648521D01*
X38219325Y-48800528D01*
X38261377Y-48957584D01*
X38303512Y-49127907D01*
X38348337Y-49319716D01*
X38398458Y-49541231D01*
X38411537Y-49599604D01*
X38501992Y-49987322D01*
X38590359Y-50324451D01*
X38680708Y-50616511D01*
X38777113Y-50869019D01*
X38883644Y-51087495D01*
X39004374Y-51277457D01*
X39143374Y-51444425D01*
X39304716Y-51593916D01*
X39492473Y-51731449D01*
X39710715Y-51862543D01*
X39963514Y-51992717D01*
X40254943Y-52127490D01*
X40287223Y-52141811D01*
X40570692Y-52269189D01*
X40811209Y-52382109D01*
X41018740Y-52485751D01*
X41203249Y-52585298D01*
X41374703Y-52685931D01*
X41543067Y-52792831D01*
X41557223Y-52802154D01*
X41709026Y-52900150D01*
X41852329Y-52986955D01*
X41994053Y-53065450D01*
X42141119Y-53138517D01*
X42300448Y-53209038D01*
X42478959Y-53279895D01*
X42683574Y-53353970D01*
X42921213Y-53434146D01*
X43198797Y-53523303D01*
X43523247Y-53624324D01*
X43555174Y-53634155D01*
X43906382Y-53740811D01*
X44213578Y-53830303D01*
X44485970Y-53904266D01*
X44732768Y-53964336D01*
X44963180Y-54012150D01*
X45186416Y-54049341D01*
X45411685Y-54077546D01*
X45648195Y-54098400D01*
X45905157Y-54113539D01*
X46191779Y-54124599D01*
X46340889Y-54128893D01*
X46688090Y-54137765D01*
X46984941Y-54144534D01*
X47237494Y-54149204D01*
X47451806Y-54151777D01*
X47633929Y-54152256D01*
X47789919Y-54150645D01*
X47925830Y-54146946D01*
X48047716Y-54141162D01*
X48161631Y-54133297D01*
X48203556Y-54129809D01*
X48538467Y-54092138D01*
X48837535Y-54037973D01*
X49119739Y-53962126D01*
X49404055Y-53859409D01*
X49709462Y-53724634D01*
X49741667Y-53709301D01*
X49931279Y-53615223D01*
X50113596Y-53517187D01*
X50297784Y-53409503D01*
X50493009Y-53286481D01*
X50708435Y-53142432D01*
X50953229Y-52971665D01*
X51109468Y-52860154D01*
X51292211Y-52730859D01*
X51505768Y-52582945D01*
X51733229Y-52427928D01*
X51957680Y-52277323D01*
X52162211Y-52142648D01*
X52182240Y-52129642D01*
X52492034Y-51925314D01*
X52756815Y-51742236D01*
X52981676Y-51575667D01*
X53171709Y-51420865D01*
X53332005Y-51273091D01*
X53467658Y-51127604D01*
X53583758Y-50979662D01*
X53685399Y-50824526D01*
X53777673Y-50657453D01*
X53790256Y-50632597D01*
X53851699Y-50504846D01*
X53906890Y-50377197D01*
X53958642Y-50241006D01*
X54009767Y-50087625D01*
X54063076Y-49908411D01*
X54121383Y-49694716D01*
X54187500Y-49437894D01*
X54216588Y-49321854D01*
X54289247Y-49033007D01*
X54352881Y-48789862D01*
X54411342Y-48583164D01*
X54468481Y-48403660D01*
X54528152Y-48242093D01*
X54594206Y-48089212D01*
X54670497Y-47935760D01*
X54760875Y-47772485D01*
X54869194Y-47590131D01*
X54999306Y-47379444D01*
X55076407Y-47256333D01*
X55233771Y-47000858D01*
X55360736Y-46782709D01*
X55460791Y-46594071D01*
X55537423Y-46427132D01*
X55594123Y-46274078D01*
X55634379Y-46127096D01*
X55661680Y-45978372D01*
X55667938Y-45931666D01*
X55672773Y-45847957D01*
X55673407Y-45717769D01*
X55670310Y-45550876D01*
X55663954Y-45357049D01*
X55654810Y-45146061D01*
X55643348Y-44927685D01*
X55630040Y-44711693D01*
X55615357Y-44507857D01*
X55599769Y-44325950D01*
X55583749Y-44175745D01*
X55583011Y-44169769D01*
X55528075Y-43800188D01*
X55458947Y-43454405D01*
X55377742Y-43140663D01*
X55286572Y-42867209D01*
X55195504Y-42657889D01*
X55077661Y-42447192D01*
X54923731Y-42212788D01*
X54731083Y-41950924D01*
X54497086Y-41657843D01*
X54482156Y-41639766D01*
X54353325Y-41483240D01*
X54214454Y-41313159D01*
X54078770Y-41145810D01*
X53959502Y-40997480D01*
X53910790Y-40936333D01*
X53743727Y-40730383D01*
X53592559Y-40556611D01*
X53448063Y-40407560D01*
X53301018Y-40275776D01*
X53142200Y-40153802D01*
X52962387Y-40034183D01*
X52752357Y-39909462D01*
X52502887Y-39772185D01*
X52408667Y-39721974D01*
X52240075Y-39631725D01*
X52069289Y-39538676D01*
X51910356Y-39450592D01*
X51777325Y-39375241D01*
X51705530Y-39333267D01*
X51592627Y-39260616D01*
X51463002Y-39169065D01*
X51327316Y-39067064D01*
X51196232Y-38963064D01*
X51080414Y-38865516D01*
X50990524Y-38782872D01*
X50938457Y-38725310D01*
X50894228Y-38669743D01*
X50818963Y-38581149D01*
X50720106Y-38467795D01*
X50605102Y-38337947D01*
X50481396Y-38199871D01*
X50356433Y-38061835D01*
X50237658Y-37932105D01*
X50132515Y-37818947D01*
X50048451Y-37730629D01*
X49992993Y-37675495D01*
X49774285Y-37492724D01*
X49558366Y-37355607D01*
X49330660Y-37256088D01*
X49127996Y-37197610D01*
X48820519Y-37145150D01*
X48474125Y-37121925D01*
X48098481Y-37128433D01*
X47963667Y-37137682D01*
X47642713Y-37163344D01*
X47368349Y-37183889D01*
X47130972Y-37199507D01*
X46920978Y-37210394D01*
X46728765Y-37216741D01*
X46544728Y-37218741D01*
X46359265Y-37216589D01*
X46162771Y-37210477D01*
X45945643Y-37200597D01*
X45698278Y-37187144D01*
X45647740Y-37184238D01*
X45323097Y-37166760D01*
X45047297Y-37155105D01*
X44813019Y-37149461D01*
X44612943Y-37150015D01*
X44439748Y-37156955D01*
X44286114Y-37170467D01*
X44144722Y-37190738D01*
X44008251Y-37217956D01*
X43968559Y-37227173D01*
X43799026Y-37273503D01*
X43639250Y-37330945D01*
X43483113Y-37403612D01*
X43324498Y-37495615D01*
X43157285Y-37611065D01*
X42975357Y-37754074D01*
X42772596Y-37928755D01*
X42542884Y-38139217D01*
X42375667Y-38297684D01*
X42112541Y-38543097D01*
X41857312Y-38766643D01*
X41591233Y-38984141D01*
X41295558Y-39211412D01*
X41272372Y-39228765D01*
X40936825Y-39483320D01*
X40647051Y-39711494D01*
X40400253Y-39915654D01*
X40193632Y-40098171D01*
X40024389Y-40261413D01*
X39917909Y-40375321D01*
X39834623Y-40473367D01*
X39724439Y-40608901D01*
X39593618Y-40773733D01*
X39448420Y-40959673D01*
X39295106Y-41158531D01*
X39139937Y-41362118D01*
X38989173Y-41562242D01*
X38849076Y-41750716D01*
X38725906Y-41919347D01*
X38625924Y-42059948D01*
X38588338Y-42114585D01*
X38476318Y-42284779D01*
X38380269Y-42443163D01*
X38294904Y-42600821D01*
X38214933Y-42768836D01*
X38135070Y-42958289D01*
X38050024Y-43180264D01*
X37958455Y-43434648D01*
X37832974Y-43792317D01*
X37725848Y-44102734D01*
X37635670Y-44371519D01*
X37561032Y-44604293D01*
X37500529Y-44806676D01*
X37452752Y-44984289D01*
X37416296Y-45142751D01*
X37389752Y-45287683D01*
X37371715Y-45424705D01*
X37360778Y-45559437D01*
X37355533Y-45697501D01*
X37354574Y-45844516D01*
X36835770Y-45844516D01*
X36834873Y-45790750D01*
X36841269Y-45594199D01*
X36858585Y-45393512D01*
X36888053Y-45183746D01*
X36930904Y-44959956D01*
X36988370Y-44717198D01*
X37061684Y-44450528D01*
X37152077Y-44155002D01*
X37260781Y-43825675D01*
X37389028Y-43457603D01*
X37538050Y-43045843D01*
X37639803Y-42770777D01*
X37727465Y-42556026D01*
X37832550Y-42338659D01*
X37959123Y-42112055D01*
X38111252Y-41869591D01*
X38293005Y-41604645D01*
X38508448Y-41310595D01*
X38653776Y-41119777D01*
X38777272Y-40959373D01*
X38906774Y-40790905D01*
X39031504Y-40628408D01*
X39140690Y-40485917D01*
X39206506Y-40399821D01*
X39370531Y-40196150D01*
X39551462Y-39994168D01*
X39754286Y-39789357D01*
X39983988Y-39577202D01*
X40245556Y-39353185D01*
X40543976Y-39112790D01*
X40884235Y-38851501D01*
X41065378Y-38716228D01*
X41308244Y-38527615D01*
X41564650Y-38313218D01*
X41812977Y-38091411D01*
X41926640Y-37984161D01*
X42195576Y-37728810D01*
X42433239Y-37512254D01*
X42645297Y-37330615D01*
X42837421Y-37180015D01*
X43015280Y-37056573D01*
X43184544Y-36956412D01*
X43350883Y-36875652D01*
X43519966Y-36810414D01*
X43697464Y-36756820D01*
X43734944Y-36747037D01*
X43893848Y-36709687D01*
X44050957Y-36680171D01*
X44213294Y-36658257D01*
X44387883Y-36643709D01*
X44581747Y-36636295D01*
X44801910Y-36635781D01*
X45055395Y-36641933D01*
X45349225Y-36654517D01*
X45690426Y-36673300D01*
X45783185Y-36678890D01*
X46021152Y-36693106D01*
X46214848Y-36703466D01*
X46376314Y-36709958D01*
X46517593Y-36712568D01*
X46650726Y-36711282D01*
X46787757Y-36706088D01*
X46940727Y-36696971D01*
X47121677Y-36683918D01*
X47208408Y-36677298D01*
X47546413Y-36652219D01*
X47834761Y-36633029D01*
X48079914Y-36619545D01*
X48288330Y-36611587D01*
X48466472Y-36608972D01*
X48620799Y-36611518D01*
G36*
X49237367Y-50581676D02*
X49312899Y-50640275D01*
X49361626Y-50721834D01*
X49372607Y-50815426D01*
X49353078Y-50880071D01*
X49324959Y-50925080D01*
X49268814Y-51006068D01*
X49190259Y-51115548D01*
X49094911Y-51246034D01*
X48988387Y-51390037D01*
X48876304Y-51540072D01*
X48764277Y-51688649D01*
X48657925Y-51828282D01*
X48562863Y-51951484D01*
X48484709Y-52050767D01*
X48429079Y-52118644D01*
X48402887Y-52146713D01*
X48317273Y-52180767D01*
X48218162Y-52172386D01*
X48126009Y-52124227D01*
X48108627Y-52108484D01*
X48046568Y-52013211D01*
X48039930Y-51909041D01*
X48066721Y-51836232D01*
X48092105Y-51797639D01*
X48146534Y-51720803D01*
X48225045Y-51612527D01*
X48322673Y-51479616D01*
X48434456Y-51328876D01*
X48533726Y-51196032D01*
X48680825Y-51002687D01*
X48808270Y-50840954D01*
X48913111Y-50714372D01*
X48992400Y-50626478D01*
X49043187Y-50580810D01*
X49049651Y-50577062D01*
X49145970Y-50556963D01*
X49237367Y-50581676D01*
X49237367Y-50581676D01*
G37*
X49237367Y-50581676D02*
X49312899Y-50640275D01*
X49361626Y-50721834D01*
X49372607Y-50815426D01*
X49353078Y-50880071D01*
X49324959Y-50925080D01*
X49268814Y-51006068D01*
X49190259Y-51115548D01*
X49094911Y-51246034D01*
X48988387Y-51390037D01*
X48876304Y-51540072D01*
X48764277Y-51688649D01*
X48657925Y-51828282D01*
X48562863Y-51951484D01*
X48484709Y-52050767D01*
X48429079Y-52118644D01*
X48402887Y-52146713D01*
X48317273Y-52180767D01*
X48218162Y-52172386D01*
X48126009Y-52124227D01*
X48108627Y-52108484D01*
X48046568Y-52013211D01*
X48039930Y-51909041D01*
X48066721Y-51836232D01*
X48092105Y-51797639D01*
X48146534Y-51720803D01*
X48225045Y-51612527D01*
X48322673Y-51479616D01*
X48434456Y-51328876D01*
X48533726Y-51196032D01*
X48680825Y-51002687D01*
X48808270Y-50840954D01*
X48913111Y-50714372D01*
X48992400Y-50626478D01*
X49043187Y-50580810D01*
X49049651Y-50577062D01*
X49145970Y-50556963D01*
X49237367Y-50581676D01*
G36*
X39061734Y-45567287D02*
X39135959Y-45636142D01*
X39146001Y-45652767D01*
X39156343Y-45679972D01*
X39161817Y-45718924D01*
X39161827Y-45776132D01*
X39155779Y-45858109D01*
X39143079Y-45971367D01*
X39123133Y-46122417D01*
X39095345Y-46317771D01*
X39068758Y-46498923D01*
X39033971Y-46731462D01*
X39005421Y-46914662D01*
X38981707Y-47055108D01*
X38961428Y-47159388D01*
X38943182Y-47234086D01*
X38925569Y-47285789D01*
X38907187Y-47321083D01*
X38888954Y-47344128D01*
X38801238Y-47401022D01*
X38698820Y-47414314D01*
X38601220Y-47383777D01*
X38556475Y-47348014D01*
X38531730Y-47317646D01*
X38513806Y-47282020D01*
X38502965Y-47234716D01*
X38499469Y-47169316D01*
X38503579Y-47079398D01*
X38515557Y-46958543D01*
X38535663Y-46800333D01*
X38564159Y-46598347D01*
X38595737Y-46383643D01*
X38631136Y-46150661D01*
X38661558Y-45967200D01*
X38689102Y-45826784D01*
X38715864Y-45722934D01*
X38743944Y-45649173D01*
X38775439Y-45599023D01*
X38812448Y-45566007D01*
X38857069Y-45543647D01*
X38869296Y-45539092D01*
X38965416Y-45531885D01*
X39061734Y-45567287D01*
X39061734Y-45567287D01*
G37*
X39061734Y-45567287D02*
X39135959Y-45636142D01*
X39146001Y-45652767D01*
X39156343Y-45679972D01*
X39161817Y-45718924D01*
X39161827Y-45776132D01*
X39155779Y-45858109D01*
X39143079Y-45971367D01*
X39123133Y-46122417D01*
X39095345Y-46317771D01*
X39068758Y-46498923D01*
X39033971Y-46731462D01*
X39005421Y-46914662D01*
X38981707Y-47055108D01*
X38961428Y-47159388D01*
X38943182Y-47234086D01*
X38925569Y-47285789D01*
X38907187Y-47321083D01*
X38888954Y-47344128D01*
X38801238Y-47401022D01*
X38698820Y-47414314D01*
X38601220Y-47383777D01*
X38556475Y-47348014D01*
X38531730Y-47317646D01*
X38513806Y-47282020D01*
X38502965Y-47234716D01*
X38499469Y-47169316D01*
X38503579Y-47079398D01*
X38515557Y-46958543D01*
X38535663Y-46800333D01*
X38564159Y-46598347D01*
X38595737Y-46383643D01*
X38631136Y-46150661D01*
X38661558Y-45967200D01*
X38689102Y-45826784D01*
X38715864Y-45722934D01*
X38743944Y-45649173D01*
X38775439Y-45599023D01*
X38812448Y-45566007D01*
X38857069Y-45543647D01*
X38869296Y-45539092D01*
X38965416Y-45531885D01*
X39061734Y-45567287D01*
G36*
X51497863Y-45476328D02*
X51565986Y-45512491D01*
X51629626Y-45582254D01*
X51696653Y-45693382D01*
X51744501Y-45788839D01*
X51880076Y-46071942D01*
X51993046Y-46308681D01*
X52085158Y-46503610D01*
X52158157Y-46661288D01*
X52213787Y-46786271D01*
X52253796Y-46883115D01*
X52279927Y-46956378D01*
X52293927Y-47010616D01*
X52297542Y-47050386D01*
X52292516Y-47080244D01*
X52280595Y-47104748D01*
X52263524Y-47128454D01*
X52259603Y-47133556D01*
X52171681Y-47210228D01*
X52070085Y-47238849D01*
X51967795Y-47217240D01*
X51924063Y-47189817D01*
X51893685Y-47150136D01*
X51844252Y-47067321D01*
X51779828Y-46949703D01*
X51704473Y-46805612D01*
X51622248Y-46643380D01*
X51537216Y-46471337D01*
X51453438Y-46297813D01*
X51374974Y-46131140D01*
X51305886Y-45979647D01*
X51250237Y-45851666D01*
X51212086Y-45755527D01*
X51195496Y-45699561D01*
X51195112Y-45694602D01*
X51217144Y-45628690D01*
X51271536Y-45556713D01*
X51340728Y-45496730D01*
X51407158Y-45466801D01*
X51417390Y-45466000D01*
X51497863Y-45476328D01*
X51497863Y-45476328D01*
G37*
X51497863Y-45476328D02*
X51565986Y-45512491D01*
X51629626Y-45582254D01*
X51696653Y-45693382D01*
X51744501Y-45788839D01*
X51880076Y-46071942D01*
X51993046Y-46308681D01*
X52085158Y-46503610D01*
X52158157Y-46661288D01*
X52213787Y-46786271D01*
X52253796Y-46883115D01*
X52279927Y-46956378D01*
X52293927Y-47010616D01*
X52297542Y-47050386D01*
X52292516Y-47080244D01*
X52280595Y-47104748D01*
X52263524Y-47128454D01*
X52259603Y-47133556D01*
X52171681Y-47210228D01*
X52070085Y-47238849D01*
X51967795Y-47217240D01*
X51924063Y-47189817D01*
X51893685Y-47150136D01*
X51844252Y-47067321D01*
X51779828Y-46949703D01*
X51704473Y-46805612D01*
X51622248Y-46643380D01*
X51537216Y-46471337D01*
X51453438Y-46297813D01*
X51374974Y-46131140D01*
X51305886Y-45979647D01*
X51250237Y-45851666D01*
X51212086Y-45755527D01*
X51195496Y-45699561D01*
X51195112Y-45694602D01*
X51217144Y-45628690D01*
X51271536Y-45556713D01*
X51340728Y-45496730D01*
X51407158Y-45466801D01*
X51417390Y-45466000D01*
X51497863Y-45476328D01*
G36*
X50931117Y-41248362D02*
X51034270Y-41254503D01*
X51109666Y-41267277D01*
X51171619Y-41288762D01*
X51211895Y-41308615D01*
X51364968Y-41419548D01*
X51476049Y-41560266D01*
X51543742Y-41721338D01*
X51566650Y-41893335D01*
X51543379Y-42066826D01*
X51472531Y-42232379D01*
X51368313Y-42365424D01*
X51273940Y-42448411D01*
X51177210Y-42504688D01*
X51064157Y-42538779D01*
X50920813Y-42555209D01*
X50771778Y-42558678D01*
X50633655Y-42554924D01*
X50530319Y-42541326D01*
X50440445Y-42514140D01*
X50387024Y-42491107D01*
X50248848Y-42398361D01*
X50137342Y-42268098D01*
X50058861Y-42113599D01*
X50019759Y-41948145D01*
X50026388Y-41785017D01*
X50033962Y-41753108D01*
X50096628Y-41600675D01*
X50191871Y-41459483D01*
X50305913Y-41348329D01*
X50354254Y-41316175D01*
X50414375Y-41284980D01*
X50473531Y-41264761D01*
X50546144Y-41253201D01*
X50646634Y-41247979D01*
X50785889Y-41246777D01*
X50931117Y-41248362D01*
X50931117Y-41248362D01*
G37*
X50931117Y-41248362D02*
X51034270Y-41254503D01*
X51109666Y-41267277D01*
X51171619Y-41288762D01*
X51211895Y-41308615D01*
X51364968Y-41419548D01*
X51476049Y-41560266D01*
X51543742Y-41721338D01*
X51566650Y-41893335D01*
X51543379Y-42066826D01*
X51472531Y-42232379D01*
X51368313Y-42365424D01*
X51273940Y-42448411D01*
X51177210Y-42504688D01*
X51064157Y-42538779D01*
X50920813Y-42555209D01*
X50771778Y-42558678D01*
X50633655Y-42554924D01*
X50530319Y-42541326D01*
X50440445Y-42514140D01*
X50387024Y-42491107D01*
X50248848Y-42398361D01*
X50137342Y-42268098D01*
X50058861Y-42113599D01*
X50019759Y-41948145D01*
X50026388Y-41785017D01*
X50033962Y-41753108D01*
X50096628Y-41600675D01*
X50191871Y-41459483D01*
X50305913Y-41348329D01*
X50354254Y-41316175D01*
X50414375Y-41284980D01*
X50473531Y-41264761D01*
X50546144Y-41253201D01*
X50646634Y-41247979D01*
X50785889Y-41246777D01*
X50931117Y-41248362D01*
G36*
X41419908Y-40937889D02*
X41522813Y-40943964D01*
X41598103Y-40956665D01*
X41660168Y-40978103D01*
X41702659Y-40999014D01*
X41852608Y-41108450D01*
X41961774Y-41248563D01*
X42028721Y-41409558D01*
X42052016Y-41581642D01*
X42030222Y-41755023D01*
X41961904Y-41919906D01*
X41857425Y-42054979D01*
X41746366Y-42148892D01*
X41639364Y-42208493D01*
X41613667Y-42217100D01*
X41513491Y-42234196D01*
X41379340Y-42243169D01*
X41230932Y-42244178D01*
X41087982Y-42237381D01*
X40970207Y-42222937D01*
X40922512Y-42211540D01*
X40805676Y-42149923D01*
X40693649Y-42048512D01*
X40600838Y-41923138D01*
X40543092Y-41794600D01*
X40510009Y-41659697D01*
X40503236Y-41551245D01*
X40522571Y-41445861D01*
X40539640Y-41393476D01*
X40623295Y-41223950D01*
X40738576Y-41084557D01*
X40844999Y-41004812D01*
X40904634Y-40973990D01*
X40963889Y-40954021D01*
X41037134Y-40942614D01*
X41138740Y-40937481D01*
X41275000Y-40936333D01*
X41419908Y-40937889D01*
X41419908Y-40937889D01*
G37*
X41419908Y-40937889D02*
X41522813Y-40943964D01*
X41598103Y-40956665D01*
X41660168Y-40978103D01*
X41702659Y-40999014D01*
X41852608Y-41108450D01*
X41961774Y-41248563D01*
X42028721Y-41409558D01*
X42052016Y-41581642D01*
X42030222Y-41755023D01*
X41961904Y-41919906D01*
X41857425Y-42054979D01*
X41746366Y-42148892D01*
X41639364Y-42208493D01*
X41613667Y-42217100D01*
X41513491Y-42234196D01*
X41379340Y-42243169D01*
X41230932Y-42244178D01*
X41087982Y-42237381D01*
X40970207Y-42222937D01*
X40922512Y-42211540D01*
X40805676Y-42149923D01*
X40693649Y-42048512D01*
X40600838Y-41923138D01*
X40543092Y-41794600D01*
X40510009Y-41659697D01*
X40503236Y-41551245D01*
X40522571Y-41445861D01*
X40539640Y-41393476D01*
X40623295Y-41223950D01*
X40738576Y-41084557D01*
X40844999Y-41004812D01*
X40904634Y-40973990D01*
X40963889Y-40954021D01*
X41037134Y-40942614D01*
X41138740Y-40937481D01*
X41275000Y-40936333D01*
X41419908Y-40937889D01*
G36*
X51954081Y-40965383D02*
X52071579Y-41011155D01*
X52148537Y-41090102D01*
X52180356Y-41165979D01*
X52197051Y-41308552D01*
X52168508Y-41435127D01*
X52098601Y-41535182D01*
X52026372Y-41584167D01*
X51928016Y-41612660D01*
X51804419Y-41624748D01*
X51682959Y-41619404D01*
X51601176Y-41600118D01*
X51506181Y-41532795D01*
X51444241Y-41426002D01*
X51420940Y-41289576D01*
X51420889Y-41282482D01*
X51426684Y-41188699D01*
X51451726Y-41122568D01*
X51507498Y-41055833D01*
X51516845Y-41046400D01*
X51574707Y-40993321D01*
X51626980Y-40964539D01*
X51694696Y-40952727D01*
X51792012Y-40950550D01*
X51954081Y-40965383D01*
X51954081Y-40965383D01*
G37*
X51954081Y-40965383D02*
X52071579Y-41011155D01*
X52148537Y-41090102D01*
X52180356Y-41165979D01*
X52197051Y-41308552D01*
X52168508Y-41435127D01*
X52098601Y-41535182D01*
X52026372Y-41584167D01*
X51928016Y-41612660D01*
X51804419Y-41624748D01*
X51682959Y-41619404D01*
X51601176Y-41600118D01*
X51506181Y-41532795D01*
X51444241Y-41426002D01*
X51420940Y-41289576D01*
X51420889Y-41282482D01*
X51426684Y-41188699D01*
X51451726Y-41122568D01*
X51507498Y-41055833D01*
X51516845Y-41046400D01*
X51574707Y-40993321D01*
X51626980Y-40964539D01*
X51694696Y-40952727D01*
X51792012Y-40950550D01*
X51954081Y-40965383D01*
G36*
X42437154Y-40652984D02*
X42552386Y-40694695D01*
X42626428Y-40769274D01*
X42664089Y-40880858D01*
X42671373Y-40980400D01*
X42655651Y-41116554D01*
X42604038Y-41213524D01*
X42511760Y-41279218D01*
X42484009Y-41290840D01*
X42397669Y-41308968D01*
X42284938Y-41314707D01*
X42173107Y-41308137D01*
X42090287Y-41289673D01*
X41995292Y-41222350D01*
X41933352Y-41115557D01*
X41910051Y-40979132D01*
X41910000Y-40972038D01*
X41915795Y-40878254D01*
X41940837Y-40812123D01*
X41996609Y-40745389D01*
X42005956Y-40735955D01*
X42064915Y-40682118D01*
X42118402Y-40653334D01*
X42188143Y-40641879D01*
X42275922Y-40640000D01*
X42437154Y-40652984D01*
X42437154Y-40652984D01*
G37*
X42437154Y-40652984D02*
X42552386Y-40694695D01*
X42626428Y-40769274D01*
X42664089Y-40880858D01*
X42671373Y-40980400D01*
X42655651Y-41116554D01*
X42604038Y-41213524D01*
X42511760Y-41279218D01*
X42484009Y-41290840D01*
X42397669Y-41308968D01*
X42284938Y-41314707D01*
X42173107Y-41308137D01*
X42090287Y-41289673D01*
X41995292Y-41222350D01*
X41933352Y-41115557D01*
X41910051Y-40979132D01*
X41910000Y-40972038D01*
X41915795Y-40878254D01*
X41940837Y-40812123D01*
X41996609Y-40745389D01*
X42005956Y-40735955D01*
X42064915Y-40682118D01*
X42118402Y-40653334D01*
X42188143Y-40641879D01*
X42275922Y-40640000D01*
X42437154Y-40652984D01*
M02*
