G04 #@! TF.FileFunction,Copper,L2,Bot,Signal*
%FSLAX46Y46*%
G04 Gerber Fmt 4.6, Leading zero omitted, Abs format (unit mm)*
G04 Created by KiCad (PCBNEW 4.0.6-e0-6349~53~ubuntu16.04.1) date Sun Nov  5 22:25:15 2017*
%MOMM*%
%LPD*%
G01*
G04 APERTURE LIST*
%ADD10C,0.100000*%
%ADD11C,0.010000*%
G04 APERTURE END LIST*
D10*
D11*
G36*
X46106738Y-35464399D02*
X45846940Y-35471062D01*
X45618068Y-35482229D01*
X45432442Y-35497986D01*
X45423666Y-35498995D01*
X44649468Y-35614204D01*
X43906226Y-35775438D01*
X43191077Y-35983532D01*
X42501159Y-36239318D01*
X41833608Y-36543633D01*
X41826396Y-36547245D01*
X41151383Y-36916829D01*
X40509432Y-37331899D01*
X39901964Y-37791199D01*
X39330399Y-38293472D01*
X38796159Y-38837461D01*
X38300666Y-39421910D01*
X37845339Y-40045562D01*
X37809487Y-40098913D01*
X37656638Y-40345631D01*
X37498979Y-40632329D01*
X37343798Y-40943852D01*
X37198379Y-41265048D01*
X37070011Y-41580763D01*
X36989533Y-41804166D01*
X36974477Y-41827361D01*
X36941066Y-41842043D01*
X36878553Y-41850048D01*
X36776189Y-41853213D01*
X36700452Y-41853555D01*
X36324712Y-41873661D01*
X35940614Y-41931585D01*
X35561817Y-42023733D01*
X35201981Y-42146515D01*
X34874763Y-42296339D01*
X34750555Y-42366338D01*
X34547563Y-42505211D01*
X34342887Y-42675056D01*
X34158316Y-42856933D01*
X34074086Y-42954218D01*
X33866509Y-43255431D01*
X33700248Y-43589979D01*
X33575522Y-43952513D01*
X33492545Y-44337681D01*
X33451535Y-44740134D01*
X33452706Y-45154520D01*
X33496277Y-45575490D01*
X33582461Y-45997692D01*
X33711477Y-46415775D01*
X33883539Y-46824390D01*
X33915122Y-46888619D01*
X34165211Y-47329150D01*
X34468313Y-47761958D01*
X34821170Y-48183754D01*
X35220525Y-48591249D01*
X35663121Y-48981156D01*
X36145701Y-49350185D01*
X36665006Y-49695048D01*
X36740675Y-49741347D01*
X36975906Y-49883809D01*
X37110227Y-50221960D01*
X37302837Y-50676482D01*
X37499006Y-51078534D01*
X37700714Y-51432070D01*
X37774522Y-51547402D01*
X37852198Y-51667518D01*
X37916195Y-51771249D01*
X37961096Y-51849444D01*
X37981487Y-51892950D01*
X37981962Y-51898024D01*
X37957378Y-51925425D01*
X37899715Y-51978437D01*
X37819820Y-52047228D01*
X37789555Y-52072434D01*
X37392204Y-52428281D01*
X37017234Y-52818743D01*
X36677110Y-53230124D01*
X36458715Y-53534683D01*
X36234031Y-53897147D01*
X36053077Y-54252570D01*
X35908317Y-54617532D01*
X35796728Y-54991000D01*
X35767778Y-55107413D01*
X35746733Y-55206956D01*
X35732328Y-55302644D01*
X35723303Y-55407487D01*
X35718393Y-55534501D01*
X35716336Y-55696697D01*
X35715936Y-55823555D01*
X35715222Y-56345666D01*
X35852400Y-56883044D01*
X35989578Y-57420423D01*
X36176956Y-57522414D01*
X36541853Y-57701309D01*
X36950609Y-57866430D01*
X37391553Y-58014121D01*
X37853014Y-58140729D01*
X38323320Y-58242596D01*
X38650333Y-58297050D01*
X38850179Y-58319253D01*
X39089528Y-58334979D01*
X39354322Y-58344219D01*
X39630504Y-58346966D01*
X39904017Y-58343213D01*
X40160803Y-58332951D01*
X40386804Y-58316173D01*
X40535724Y-58298094D01*
X40872465Y-58238238D01*
X41218828Y-58160975D01*
X41564699Y-58069511D01*
X41899960Y-57967049D01*
X42214496Y-57856795D01*
X42498190Y-57741951D01*
X42740926Y-57625724D01*
X42847644Y-57565778D01*
X42917136Y-57524570D01*
X43019367Y-57464501D01*
X43138241Y-57395011D01*
X43214533Y-57350586D01*
X43351966Y-57268733D01*
X43498180Y-57178495D01*
X43629521Y-57094576D01*
X43677604Y-57062702D01*
X43785578Y-56991329D01*
X43889972Y-56924714D01*
X43971415Y-56875167D01*
X43984040Y-56867942D01*
X44074831Y-56809523D01*
X44199103Y-56718591D01*
X44349122Y-56601199D01*
X44517155Y-56463400D01*
X44695468Y-56311247D01*
X44697546Y-56309440D01*
X44902759Y-56130882D01*
X45290213Y-56180959D01*
X45504447Y-56202469D01*
X45762074Y-56218329D01*
X46050325Y-56228541D01*
X46356433Y-56233104D01*
X46667630Y-56232018D01*
X46971146Y-56225285D01*
X47254214Y-56212905D01*
X47504065Y-56194877D01*
X47636473Y-56180891D01*
X48043057Y-56130919D01*
X48158584Y-56242553D01*
X48224674Y-56302796D01*
X48316354Y-56381513D01*
X48424926Y-56471771D01*
X48541694Y-56566641D01*
X48657959Y-56659194D01*
X48765024Y-56742499D01*
X48854193Y-56809625D01*
X48916768Y-56853644D01*
X48943253Y-56867777D01*
X48975504Y-56882653D01*
X49043383Y-56922842D01*
X49135999Y-56981689D01*
X49213582Y-57033013D01*
X49685512Y-57333129D01*
X50140811Y-57586789D01*
X50588097Y-57798017D01*
X51035988Y-57970839D01*
X51493100Y-58109281D01*
X51547888Y-58123496D01*
X52156521Y-58254614D01*
X52751195Y-58333301D01*
X53337562Y-58360053D01*
X53921274Y-58335367D01*
X53940250Y-58333709D01*
X54395085Y-58277898D01*
X54858569Y-58192021D01*
X55319450Y-58079395D01*
X55766476Y-57943335D01*
X56188395Y-57787156D01*
X56573957Y-57614175D01*
X56811333Y-57487663D01*
X56868845Y-57452967D01*
X56908811Y-57419481D01*
X56938257Y-57374774D01*
X56964211Y-57306417D01*
X56993696Y-57201980D01*
X57011779Y-57133037D01*
X57046074Y-57007714D01*
X57079132Y-56897589D01*
X57106289Y-56817702D01*
X57118312Y-56789585D01*
X57135069Y-56737800D01*
X57155649Y-56643727D01*
X57177340Y-56521146D01*
X57195870Y-56395603D01*
X57219039Y-56151779D01*
X57227888Y-55887530D01*
X57227612Y-55872944D01*
X56951885Y-55872944D01*
X56951410Y-56010899D01*
X56948349Y-56102006D01*
X56941121Y-56155852D01*
X56928142Y-56182024D01*
X56907829Y-56190110D01*
X56899471Y-56190444D01*
X56851113Y-56198505D01*
X56763216Y-56220231D01*
X56649954Y-56251939D01*
X56567860Y-56276647D01*
X55954149Y-56448693D01*
X55323283Y-56591760D01*
X54693392Y-56702262D01*
X54082610Y-56776613D01*
X54004960Y-56783486D01*
X53837704Y-56792866D01*
X53630015Y-56797265D01*
X53397654Y-56796999D01*
X53156383Y-56792383D01*
X52921965Y-56783735D01*
X52710161Y-56771368D01*
X52536733Y-56755599D01*
X52521555Y-56753779D01*
X51988690Y-56666645D01*
X51474670Y-56540137D01*
X50986614Y-56376680D01*
X50531644Y-56178700D01*
X50116881Y-55948622D01*
X50069254Y-55918394D01*
X49948147Y-55837523D01*
X49869667Y-55777234D01*
X49826789Y-55731268D01*
X49812487Y-55693364D01*
X49812357Y-55689500D01*
X49812790Y-55687755D01*
X43087028Y-55687755D01*
X43038020Y-55750807D01*
X42937009Y-55831946D01*
X42904691Y-55854436D01*
X42487186Y-56106367D01*
X42028832Y-56321997D01*
X41532878Y-56500256D01*
X41002574Y-56640075D01*
X40441171Y-56740382D01*
X40089666Y-56781259D01*
X39920899Y-56791877D01*
X39710375Y-56797037D01*
X39472495Y-56796993D01*
X39221656Y-56791999D01*
X38972256Y-56782311D01*
X38738696Y-56768183D01*
X38579777Y-56754546D01*
X38099996Y-56692737D01*
X37586630Y-56600939D01*
X37052222Y-56481693D01*
X36509314Y-56337542D01*
X36478840Y-56328763D01*
X36334772Y-56288951D01*
X36207021Y-56257122D01*
X36106755Y-56235801D01*
X36045143Y-56227513D01*
X36034340Y-56228266D01*
X36013685Y-56229808D01*
X35999493Y-56216068D01*
X35990561Y-56178549D01*
X35985692Y-56108752D01*
X35983685Y-55998180D01*
X35983333Y-55866943D01*
X36004501Y-55449632D01*
X36069116Y-55047111D01*
X36178848Y-54655992D01*
X36335366Y-54272890D01*
X36540338Y-53894417D01*
X36795432Y-53517185D01*
X37102319Y-53137808D01*
X37462666Y-52752899D01*
X37569587Y-52647347D01*
X37755330Y-52468910D01*
X37906838Y-52329204D01*
X38028516Y-52225814D01*
X38124769Y-52156323D01*
X38200000Y-52118316D01*
X38258612Y-52109377D01*
X38305012Y-52127091D01*
X38343601Y-52169041D01*
X38367395Y-52209728D01*
X38413449Y-52284552D01*
X38474112Y-52366808D01*
X38485349Y-52380466D01*
X38547093Y-52461002D01*
X38599649Y-52541074D01*
X38606318Y-52552879D01*
X38651216Y-52617278D01*
X38730716Y-52712677D01*
X38837871Y-52831872D01*
X38965733Y-52967659D01*
X39107352Y-53112835D01*
X39255782Y-53260196D01*
X39404073Y-53402538D01*
X39545278Y-53532659D01*
X39588312Y-53570962D01*
X40121684Y-54014039D01*
X40663839Y-54409277D01*
X41227315Y-54765160D01*
X41824649Y-55090167D01*
X41860713Y-55108307D01*
X42030332Y-55190645D01*
X42219436Y-55278083D01*
X42416131Y-55365519D01*
X42608526Y-55447855D01*
X42784726Y-55519989D01*
X42932839Y-55576821D01*
X43031833Y-55610531D01*
X43084732Y-55641444D01*
X43087028Y-55687755D01*
X49812790Y-55687755D01*
X49824666Y-55639972D01*
X49845244Y-55626000D01*
X49896759Y-55614380D01*
X49990761Y-55581924D01*
X50118854Y-55532237D01*
X50272647Y-55468926D01*
X50443746Y-55395596D01*
X50623758Y-55315852D01*
X50804291Y-55233301D01*
X50976952Y-55151547D01*
X51133347Y-55074197D01*
X51152777Y-55064278D01*
X51725079Y-54748280D01*
X52275871Y-54399325D01*
X52799342Y-54022154D01*
X53289682Y-53621509D01*
X53741081Y-53202131D01*
X54147726Y-52768762D01*
X54497111Y-52335203D01*
X54564286Y-52248836D01*
X54629782Y-52171511D01*
X54662120Y-52137206D01*
X54728351Y-52072575D01*
X54986676Y-52293609D01*
X55186839Y-52473091D01*
X55397712Y-52676656D01*
X55607643Y-52892073D01*
X55804981Y-53107114D01*
X55978075Y-53309547D01*
X56087474Y-53449093D01*
X56358714Y-53846069D01*
X56576456Y-54238115D01*
X56742673Y-54630757D01*
X56859334Y-55029521D01*
X56928410Y-55439933D01*
X56951872Y-55867519D01*
X56951885Y-55872944D01*
X57227612Y-55872944D01*
X57222840Y-55620940D01*
X57204320Y-55370093D01*
X57172750Y-55153074D01*
X57166017Y-55120395D01*
X57041924Y-54676314D01*
X56863651Y-54233304D01*
X56633420Y-53794733D01*
X56353448Y-53363969D01*
X56025956Y-52944379D01*
X55653163Y-52539329D01*
X55237288Y-52152189D01*
X55174444Y-52098503D01*
X55083155Y-52019792D01*
X55009525Y-51953378D01*
X54963456Y-51908351D01*
X54953129Y-51895301D01*
X54964051Y-51863769D01*
X55000815Y-51795030D01*
X55057867Y-51698786D01*
X55129653Y-51584738D01*
X55140284Y-51568331D01*
X55296322Y-51316120D01*
X55439446Y-51057215D01*
X55576998Y-50777209D01*
X55716323Y-50461694D01*
X55769274Y-50334333D01*
X55832203Y-50182149D01*
X55879993Y-50072831D01*
X55918573Y-49996881D01*
X55953874Y-49944801D01*
X55991825Y-49907091D01*
X56038355Y-49874254D01*
X56067905Y-49855953D01*
X56656328Y-49475137D01*
X57189742Y-49083190D01*
X57668562Y-48679659D01*
X58093204Y-48264089D01*
X58464085Y-47836027D01*
X58781620Y-47395018D01*
X59046225Y-46940607D01*
X59258316Y-46472340D01*
X59320644Y-46303872D01*
X59437527Y-45900264D01*
X59459759Y-45776444D01*
X55976582Y-45776444D01*
X55973384Y-45951711D01*
X55962485Y-46119304D01*
X55942123Y-46286007D01*
X55910538Y-46458605D01*
X55865969Y-46643883D01*
X55806656Y-46848625D01*
X55730838Y-47079616D01*
X55636754Y-47343641D01*
X55522644Y-47647484D01*
X55426474Y-47896312D01*
X55335382Y-48132026D01*
X55259720Y-48334066D01*
X55195996Y-48514070D01*
X55140720Y-48683673D01*
X55090399Y-48854512D01*
X55041543Y-49038221D01*
X54990659Y-49246438D01*
X54934257Y-49490799D01*
X54893182Y-49673629D01*
X54796525Y-50083818D01*
X54699152Y-50443085D01*
X54597032Y-50756858D01*
X54486135Y-51030561D01*
X54362429Y-51269621D01*
X54221885Y-51479463D01*
X54060470Y-51665514D01*
X53874155Y-51833199D01*
X53658909Y-51987944D01*
X53410700Y-52135175D01*
X53125498Y-52280319D01*
X52869295Y-52397999D01*
X52548358Y-52543036D01*
X52274190Y-52673157D01*
X52040170Y-52791770D01*
X51839679Y-52902285D01*
X51666098Y-53008110D01*
X51600869Y-53051138D01*
X51432565Y-53161429D01*
X51270592Y-53259412D01*
X51107277Y-53348375D01*
X50934945Y-53431605D01*
X50745925Y-53512391D01*
X50532541Y-53594020D01*
X50287123Y-53679781D01*
X50001995Y-53772962D01*
X49685197Y-53872015D01*
X49316345Y-53984607D01*
X48992978Y-54080542D01*
X48707116Y-54161260D01*
X48450781Y-54228200D01*
X48215992Y-54282802D01*
X47994770Y-54326505D01*
X47779135Y-54360748D01*
X47561108Y-54386972D01*
X47332709Y-54406615D01*
X47085958Y-54421117D01*
X46812875Y-54431917D01*
X46538444Y-54439651D01*
X46226468Y-54447265D01*
X45964442Y-54453352D01*
X45745896Y-54457913D01*
X45564356Y-54460949D01*
X45413350Y-54462459D01*
X45286405Y-54462444D01*
X45177049Y-54460904D01*
X45078809Y-54457838D01*
X44985213Y-54453248D01*
X44889788Y-54447132D01*
X44788666Y-54439691D01*
X44465145Y-54406856D01*
X44158646Y-54357518D01*
X43862907Y-54288972D01*
X43571663Y-54198516D01*
X43278651Y-54083444D01*
X42977607Y-53941053D01*
X42662268Y-53768639D01*
X42326369Y-53563498D01*
X41963647Y-53322926D01*
X41585444Y-53056895D01*
X41424446Y-52943157D01*
X41231788Y-52810350D01*
X41023620Y-52669410D01*
X40816092Y-52531270D01*
X40625888Y-52407210D01*
X40371804Y-52242097D01*
X40158920Y-52099906D01*
X39979695Y-51975088D01*
X39826590Y-51862097D01*
X39692064Y-51755387D01*
X39568577Y-51649412D01*
X39460470Y-51549910D01*
X39198194Y-51271185D01*
X38981357Y-50972310D01*
X38850896Y-50743555D01*
X38792063Y-50625870D01*
X38740029Y-50512152D01*
X38692157Y-50394369D01*
X38645807Y-50264487D01*
X38598341Y-50114471D01*
X38547120Y-49936289D01*
X38489506Y-49721906D01*
X38422860Y-49463290D01*
X38397424Y-49362868D01*
X38325444Y-49079999D01*
X38262771Y-48842670D01*
X38205460Y-48641555D01*
X38149564Y-48467328D01*
X38091135Y-48310662D01*
X38026228Y-48162232D01*
X37950896Y-48012712D01*
X37861191Y-47852776D01*
X37753168Y-47673097D01*
X37622879Y-47464349D01*
X37535572Y-47326309D01*
X37368981Y-47057272D01*
X37234247Y-46821941D01*
X37128479Y-46609541D01*
X37048784Y-46409300D01*
X36992269Y-46210442D01*
X36956044Y-46002196D01*
X36937214Y-45773786D01*
X36932889Y-45514438D01*
X36940175Y-45213380D01*
X36943823Y-45122022D01*
X36973499Y-44611782D01*
X37017361Y-44142270D01*
X37074889Y-43717840D01*
X37145561Y-43342850D01*
X37168257Y-43244728D01*
X37222882Y-43032219D01*
X37280545Y-42839208D01*
X37344929Y-42659390D01*
X37419717Y-42486462D01*
X37508591Y-42314120D01*
X37615234Y-42136062D01*
X37743329Y-41945985D01*
X37896557Y-41737583D01*
X38078602Y-41504555D01*
X38293146Y-41240597D01*
X38448490Y-41053384D01*
X38576587Y-40899131D01*
X38698820Y-40750520D01*
X38808387Y-40615932D01*
X38898483Y-40503750D01*
X38962304Y-40422354D01*
X38981600Y-40396691D01*
X39106391Y-40246662D01*
X39266526Y-40085090D01*
X39446904Y-39925758D01*
X39632427Y-39782451D01*
X39719605Y-39722927D01*
X39814984Y-39663978D01*
X39948820Y-39585447D01*
X40109549Y-39493902D01*
X40285606Y-39395913D01*
X40465427Y-39298046D01*
X40505281Y-39276683D01*
X40760119Y-39138963D01*
X40973891Y-39018526D01*
X41155688Y-38908147D01*
X41314601Y-38800599D01*
X41459723Y-38688658D01*
X41600144Y-38565095D01*
X41744956Y-38422687D01*
X41903249Y-38254207D01*
X42084116Y-38052428D01*
X42173851Y-37950484D01*
X42413135Y-37683662D01*
X42627522Y-37459503D01*
X42823759Y-37273931D01*
X43008592Y-37122867D01*
X43188767Y-37002233D01*
X43371029Y-36907952D01*
X43562124Y-36835947D01*
X43768799Y-36782138D01*
X43997800Y-36742450D01*
X44214810Y-36716793D01*
X44309351Y-36708326D01*
X44402356Y-36702585D01*
X44500540Y-36699819D01*
X44610618Y-36700276D01*
X44739303Y-36704206D01*
X44893312Y-36711857D01*
X45079359Y-36723478D01*
X45304158Y-36739318D01*
X45574425Y-36759626D01*
X45762333Y-36774147D01*
X45954408Y-36787265D01*
X46140473Y-36795687D01*
X46330247Y-36799306D01*
X46533448Y-36798015D01*
X46759793Y-36791707D01*
X47019000Y-36780273D01*
X47320788Y-36763606D01*
X47455666Y-36755447D01*
X47706257Y-36740692D01*
X47910698Y-36730515D01*
X48079091Y-36724789D01*
X48221533Y-36723391D01*
X48348126Y-36726195D01*
X48468969Y-36733076D01*
X48570444Y-36741634D01*
X48819235Y-36770039D01*
X49043809Y-36808134D01*
X49250606Y-36859460D01*
X49446063Y-36927560D01*
X49636619Y-37015973D01*
X49828711Y-37128244D01*
X50028779Y-37267912D01*
X50243259Y-37438521D01*
X50478591Y-37643611D01*
X50741213Y-37886725D01*
X50863147Y-38002890D01*
X51095992Y-38219926D01*
X51330043Y-38426447D01*
X51552505Y-38611461D01*
X51742107Y-38757775D01*
X52118010Y-39038748D01*
X52448220Y-39296480D01*
X52736737Y-39534495D01*
X52987563Y-39756321D01*
X53204696Y-39965484D01*
X53392139Y-40165510D01*
X53541148Y-40343666D01*
X53700686Y-40547513D01*
X53866306Y-40761674D01*
X54032463Y-40978780D01*
X54193615Y-41191461D01*
X54344217Y-41392346D01*
X54478726Y-41574064D01*
X54591598Y-41729247D01*
X54677290Y-41850522D01*
X54703214Y-41888635D01*
X54796221Y-42031281D01*
X54878476Y-42166638D01*
X54953690Y-42302836D01*
X55025574Y-42448006D01*
X55097841Y-42610276D01*
X55174201Y-42797778D01*
X55258367Y-43018641D01*
X55354048Y-43280994D01*
X55408693Y-43434000D01*
X55535612Y-43795158D01*
X55642882Y-44110272D01*
X55732025Y-44385621D01*
X55804564Y-44627485D01*
X55862020Y-44842143D01*
X55905916Y-45035874D01*
X55937774Y-45214957D01*
X55959118Y-45385672D01*
X55971468Y-45554299D01*
X55976347Y-45727116D01*
X55976582Y-45776444D01*
X59459759Y-45776444D01*
X59511543Y-45488046D01*
X59543416Y-45073864D01*
X59533869Y-44664358D01*
X59483624Y-44266171D01*
X59393405Y-43885947D01*
X59263936Y-43530326D01*
X59095938Y-43205953D01*
X58961977Y-43009136D01*
X58718541Y-42734704D01*
X58432439Y-42495188D01*
X58106229Y-42291728D01*
X57742470Y-42125463D01*
X57343718Y-41997533D01*
X56912531Y-41909079D01*
X56451468Y-41861241D01*
X56378049Y-41857558D01*
X55958875Y-41839444D01*
X55848282Y-41543111D01*
X55628443Y-41017332D01*
X55366392Y-40507183D01*
X55059381Y-40008587D01*
X54704665Y-39517470D01*
X54299498Y-39029755D01*
X53841134Y-38541367D01*
X53793684Y-38493749D01*
X53508495Y-38215659D01*
X53243602Y-37972549D01*
X52986168Y-37753704D01*
X52723355Y-37548408D01*
X52442326Y-37345946D01*
X52309888Y-37255198D01*
X51684422Y-36860812D01*
X51048867Y-36517608D01*
X50398216Y-36223727D01*
X49727463Y-35977308D01*
X49031602Y-35776490D01*
X48305627Y-35619413D01*
X47625000Y-35514241D01*
X47438385Y-35495668D01*
X47208770Y-35481088D01*
X46948478Y-35470586D01*
X46669828Y-35464246D01*
X46385141Y-35462156D01*
X46106738Y-35464399D01*
X46106738Y-35464399D01*
G37*
X46106738Y-35464399D02*
X45846940Y-35471062D01*
X45618068Y-35482229D01*
X45432442Y-35497986D01*
X45423666Y-35498995D01*
X44649468Y-35614204D01*
X43906226Y-35775438D01*
X43191077Y-35983532D01*
X42501159Y-36239318D01*
X41833608Y-36543633D01*
X41826396Y-36547245D01*
X41151383Y-36916829D01*
X40509432Y-37331899D01*
X39901964Y-37791199D01*
X39330399Y-38293472D01*
X38796159Y-38837461D01*
X38300666Y-39421910D01*
X37845339Y-40045562D01*
X37809487Y-40098913D01*
X37656638Y-40345631D01*
X37498979Y-40632329D01*
X37343798Y-40943852D01*
X37198379Y-41265048D01*
X37070011Y-41580763D01*
X36989533Y-41804166D01*
X36974477Y-41827361D01*
X36941066Y-41842043D01*
X36878553Y-41850048D01*
X36776189Y-41853213D01*
X36700452Y-41853555D01*
X36324712Y-41873661D01*
X35940614Y-41931585D01*
X35561817Y-42023733D01*
X35201981Y-42146515D01*
X34874763Y-42296339D01*
X34750555Y-42366338D01*
X34547563Y-42505211D01*
X34342887Y-42675056D01*
X34158316Y-42856933D01*
X34074086Y-42954218D01*
X33866509Y-43255431D01*
X33700248Y-43589979D01*
X33575522Y-43952513D01*
X33492545Y-44337681D01*
X33451535Y-44740134D01*
X33452706Y-45154520D01*
X33496277Y-45575490D01*
X33582461Y-45997692D01*
X33711477Y-46415775D01*
X33883539Y-46824390D01*
X33915122Y-46888619D01*
X34165211Y-47329150D01*
X34468313Y-47761958D01*
X34821170Y-48183754D01*
X35220525Y-48591249D01*
X35663121Y-48981156D01*
X36145701Y-49350185D01*
X36665006Y-49695048D01*
X36740675Y-49741347D01*
X36975906Y-49883809D01*
X37110227Y-50221960D01*
X37302837Y-50676482D01*
X37499006Y-51078534D01*
X37700714Y-51432070D01*
X37774522Y-51547402D01*
X37852198Y-51667518D01*
X37916195Y-51771249D01*
X37961096Y-51849444D01*
X37981487Y-51892950D01*
X37981962Y-51898024D01*
X37957378Y-51925425D01*
X37899715Y-51978437D01*
X37819820Y-52047228D01*
X37789555Y-52072434D01*
X37392204Y-52428281D01*
X37017234Y-52818743D01*
X36677110Y-53230124D01*
X36458715Y-53534683D01*
X36234031Y-53897147D01*
X36053077Y-54252570D01*
X35908317Y-54617532D01*
X35796728Y-54991000D01*
X35767778Y-55107413D01*
X35746733Y-55206956D01*
X35732328Y-55302644D01*
X35723303Y-55407487D01*
X35718393Y-55534501D01*
X35716336Y-55696697D01*
X35715936Y-55823555D01*
X35715222Y-56345666D01*
X35852400Y-56883044D01*
X35989578Y-57420423D01*
X36176956Y-57522414D01*
X36541853Y-57701309D01*
X36950609Y-57866430D01*
X37391553Y-58014121D01*
X37853014Y-58140729D01*
X38323320Y-58242596D01*
X38650333Y-58297050D01*
X38850179Y-58319253D01*
X39089528Y-58334979D01*
X39354322Y-58344219D01*
X39630504Y-58346966D01*
X39904017Y-58343213D01*
X40160803Y-58332951D01*
X40386804Y-58316173D01*
X40535724Y-58298094D01*
X40872465Y-58238238D01*
X41218828Y-58160975D01*
X41564699Y-58069511D01*
X41899960Y-57967049D01*
X42214496Y-57856795D01*
X42498190Y-57741951D01*
X42740926Y-57625724D01*
X42847644Y-57565778D01*
X42917136Y-57524570D01*
X43019367Y-57464501D01*
X43138241Y-57395011D01*
X43214533Y-57350586D01*
X43351966Y-57268733D01*
X43498180Y-57178495D01*
X43629521Y-57094576D01*
X43677604Y-57062702D01*
X43785578Y-56991329D01*
X43889972Y-56924714D01*
X43971415Y-56875167D01*
X43984040Y-56867942D01*
X44074831Y-56809523D01*
X44199103Y-56718591D01*
X44349122Y-56601199D01*
X44517155Y-56463400D01*
X44695468Y-56311247D01*
X44697546Y-56309440D01*
X44902759Y-56130882D01*
X45290213Y-56180959D01*
X45504447Y-56202469D01*
X45762074Y-56218329D01*
X46050325Y-56228541D01*
X46356433Y-56233104D01*
X46667630Y-56232018D01*
X46971146Y-56225285D01*
X47254214Y-56212905D01*
X47504065Y-56194877D01*
X47636473Y-56180891D01*
X48043057Y-56130919D01*
X48158584Y-56242553D01*
X48224674Y-56302796D01*
X48316354Y-56381513D01*
X48424926Y-56471771D01*
X48541694Y-56566641D01*
X48657959Y-56659194D01*
X48765024Y-56742499D01*
X48854193Y-56809625D01*
X48916768Y-56853644D01*
X48943253Y-56867777D01*
X48975504Y-56882653D01*
X49043383Y-56922842D01*
X49135999Y-56981689D01*
X49213582Y-57033013D01*
X49685512Y-57333129D01*
X50140811Y-57586789D01*
X50588097Y-57798017D01*
X51035988Y-57970839D01*
X51493100Y-58109281D01*
X51547888Y-58123496D01*
X52156521Y-58254614D01*
X52751195Y-58333301D01*
X53337562Y-58360053D01*
X53921274Y-58335367D01*
X53940250Y-58333709D01*
X54395085Y-58277898D01*
X54858569Y-58192021D01*
X55319450Y-58079395D01*
X55766476Y-57943335D01*
X56188395Y-57787156D01*
X56573957Y-57614175D01*
X56811333Y-57487663D01*
X56868845Y-57452967D01*
X56908811Y-57419481D01*
X56938257Y-57374774D01*
X56964211Y-57306417D01*
X56993696Y-57201980D01*
X57011779Y-57133037D01*
X57046074Y-57007714D01*
X57079132Y-56897589D01*
X57106289Y-56817702D01*
X57118312Y-56789585D01*
X57135069Y-56737800D01*
X57155649Y-56643727D01*
X57177340Y-56521146D01*
X57195870Y-56395603D01*
X57219039Y-56151779D01*
X57227888Y-55887530D01*
X57227612Y-55872944D01*
X56951885Y-55872944D01*
X56951410Y-56010899D01*
X56948349Y-56102006D01*
X56941121Y-56155852D01*
X56928142Y-56182024D01*
X56907829Y-56190110D01*
X56899471Y-56190444D01*
X56851113Y-56198505D01*
X56763216Y-56220231D01*
X56649954Y-56251939D01*
X56567860Y-56276647D01*
X55954149Y-56448693D01*
X55323283Y-56591760D01*
X54693392Y-56702262D01*
X54082610Y-56776613D01*
X54004960Y-56783486D01*
X53837704Y-56792866D01*
X53630015Y-56797265D01*
X53397654Y-56796999D01*
X53156383Y-56792383D01*
X52921965Y-56783735D01*
X52710161Y-56771368D01*
X52536733Y-56755599D01*
X52521555Y-56753779D01*
X51988690Y-56666645D01*
X51474670Y-56540137D01*
X50986614Y-56376680D01*
X50531644Y-56178700D01*
X50116881Y-55948622D01*
X50069254Y-55918394D01*
X49948147Y-55837523D01*
X49869667Y-55777234D01*
X49826789Y-55731268D01*
X49812487Y-55693364D01*
X49812357Y-55689500D01*
X49812790Y-55687755D01*
X43087028Y-55687755D01*
X43038020Y-55750807D01*
X42937009Y-55831946D01*
X42904691Y-55854436D01*
X42487186Y-56106367D01*
X42028832Y-56321997D01*
X41532878Y-56500256D01*
X41002574Y-56640075D01*
X40441171Y-56740382D01*
X40089666Y-56781259D01*
X39920899Y-56791877D01*
X39710375Y-56797037D01*
X39472495Y-56796993D01*
X39221656Y-56791999D01*
X38972256Y-56782311D01*
X38738696Y-56768183D01*
X38579777Y-56754546D01*
X38099996Y-56692737D01*
X37586630Y-56600939D01*
X37052222Y-56481693D01*
X36509314Y-56337542D01*
X36478840Y-56328763D01*
X36334772Y-56288951D01*
X36207021Y-56257122D01*
X36106755Y-56235801D01*
X36045143Y-56227513D01*
X36034340Y-56228266D01*
X36013685Y-56229808D01*
X35999493Y-56216068D01*
X35990561Y-56178549D01*
X35985692Y-56108752D01*
X35983685Y-55998180D01*
X35983333Y-55866943D01*
X36004501Y-55449632D01*
X36069116Y-55047111D01*
X36178848Y-54655992D01*
X36335366Y-54272890D01*
X36540338Y-53894417D01*
X36795432Y-53517185D01*
X37102319Y-53137808D01*
X37462666Y-52752899D01*
X37569587Y-52647347D01*
X37755330Y-52468910D01*
X37906838Y-52329204D01*
X38028516Y-52225814D01*
X38124769Y-52156323D01*
X38200000Y-52118316D01*
X38258612Y-52109377D01*
X38305012Y-52127091D01*
X38343601Y-52169041D01*
X38367395Y-52209728D01*
X38413449Y-52284552D01*
X38474112Y-52366808D01*
X38485349Y-52380466D01*
X38547093Y-52461002D01*
X38599649Y-52541074D01*
X38606318Y-52552879D01*
X38651216Y-52617278D01*
X38730716Y-52712677D01*
X38837871Y-52831872D01*
X38965733Y-52967659D01*
X39107352Y-53112835D01*
X39255782Y-53260196D01*
X39404073Y-53402538D01*
X39545278Y-53532659D01*
X39588312Y-53570962D01*
X40121684Y-54014039D01*
X40663839Y-54409277D01*
X41227315Y-54765160D01*
X41824649Y-55090167D01*
X41860713Y-55108307D01*
X42030332Y-55190645D01*
X42219436Y-55278083D01*
X42416131Y-55365519D01*
X42608526Y-55447855D01*
X42784726Y-55519989D01*
X42932839Y-55576821D01*
X43031833Y-55610531D01*
X43084732Y-55641444D01*
X43087028Y-55687755D01*
X49812790Y-55687755D01*
X49824666Y-55639972D01*
X49845244Y-55626000D01*
X49896759Y-55614380D01*
X49990761Y-55581924D01*
X50118854Y-55532237D01*
X50272647Y-55468926D01*
X50443746Y-55395596D01*
X50623758Y-55315852D01*
X50804291Y-55233301D01*
X50976952Y-55151547D01*
X51133347Y-55074197D01*
X51152777Y-55064278D01*
X51725079Y-54748280D01*
X52275871Y-54399325D01*
X52799342Y-54022154D01*
X53289682Y-53621509D01*
X53741081Y-53202131D01*
X54147726Y-52768762D01*
X54497111Y-52335203D01*
X54564286Y-52248836D01*
X54629782Y-52171511D01*
X54662120Y-52137206D01*
X54728351Y-52072575D01*
X54986676Y-52293609D01*
X55186839Y-52473091D01*
X55397712Y-52676656D01*
X55607643Y-52892073D01*
X55804981Y-53107114D01*
X55978075Y-53309547D01*
X56087474Y-53449093D01*
X56358714Y-53846069D01*
X56576456Y-54238115D01*
X56742673Y-54630757D01*
X56859334Y-55029521D01*
X56928410Y-55439933D01*
X56951872Y-55867519D01*
X56951885Y-55872944D01*
X57227612Y-55872944D01*
X57222840Y-55620940D01*
X57204320Y-55370093D01*
X57172750Y-55153074D01*
X57166017Y-55120395D01*
X57041924Y-54676314D01*
X56863651Y-54233304D01*
X56633420Y-53794733D01*
X56353448Y-53363969D01*
X56025956Y-52944379D01*
X55653163Y-52539329D01*
X55237288Y-52152189D01*
X55174444Y-52098503D01*
X55083155Y-52019792D01*
X55009525Y-51953378D01*
X54963456Y-51908351D01*
X54953129Y-51895301D01*
X54964051Y-51863769D01*
X55000815Y-51795030D01*
X55057867Y-51698786D01*
X55129653Y-51584738D01*
X55140284Y-51568331D01*
X55296322Y-51316120D01*
X55439446Y-51057215D01*
X55576998Y-50777209D01*
X55716323Y-50461694D01*
X55769274Y-50334333D01*
X55832203Y-50182149D01*
X55879993Y-50072831D01*
X55918573Y-49996881D01*
X55953874Y-49944801D01*
X55991825Y-49907091D01*
X56038355Y-49874254D01*
X56067905Y-49855953D01*
X56656328Y-49475137D01*
X57189742Y-49083190D01*
X57668562Y-48679659D01*
X58093204Y-48264089D01*
X58464085Y-47836027D01*
X58781620Y-47395018D01*
X59046225Y-46940607D01*
X59258316Y-46472340D01*
X59320644Y-46303872D01*
X59437527Y-45900264D01*
X59459759Y-45776444D01*
X55976582Y-45776444D01*
X55973384Y-45951711D01*
X55962485Y-46119304D01*
X55942123Y-46286007D01*
X55910538Y-46458605D01*
X55865969Y-46643883D01*
X55806656Y-46848625D01*
X55730838Y-47079616D01*
X55636754Y-47343641D01*
X55522644Y-47647484D01*
X55426474Y-47896312D01*
X55335382Y-48132026D01*
X55259720Y-48334066D01*
X55195996Y-48514070D01*
X55140720Y-48683673D01*
X55090399Y-48854512D01*
X55041543Y-49038221D01*
X54990659Y-49246438D01*
X54934257Y-49490799D01*
X54893182Y-49673629D01*
X54796525Y-50083818D01*
X54699152Y-50443085D01*
X54597032Y-50756858D01*
X54486135Y-51030561D01*
X54362429Y-51269621D01*
X54221885Y-51479463D01*
X54060470Y-51665514D01*
X53874155Y-51833199D01*
X53658909Y-51987944D01*
X53410700Y-52135175D01*
X53125498Y-52280319D01*
X52869295Y-52397999D01*
X52548358Y-52543036D01*
X52274190Y-52673157D01*
X52040170Y-52791770D01*
X51839679Y-52902285D01*
X51666098Y-53008110D01*
X51600869Y-53051138D01*
X51432565Y-53161429D01*
X51270592Y-53259412D01*
X51107277Y-53348375D01*
X50934945Y-53431605D01*
X50745925Y-53512391D01*
X50532541Y-53594020D01*
X50287123Y-53679781D01*
X50001995Y-53772962D01*
X49685197Y-53872015D01*
X49316345Y-53984607D01*
X48992978Y-54080542D01*
X48707116Y-54161260D01*
X48450781Y-54228200D01*
X48215992Y-54282802D01*
X47994770Y-54326505D01*
X47779135Y-54360748D01*
X47561108Y-54386972D01*
X47332709Y-54406615D01*
X47085958Y-54421117D01*
X46812875Y-54431917D01*
X46538444Y-54439651D01*
X46226468Y-54447265D01*
X45964442Y-54453352D01*
X45745896Y-54457913D01*
X45564356Y-54460949D01*
X45413350Y-54462459D01*
X45286405Y-54462444D01*
X45177049Y-54460904D01*
X45078809Y-54457838D01*
X44985213Y-54453248D01*
X44889788Y-54447132D01*
X44788666Y-54439691D01*
X44465145Y-54406856D01*
X44158646Y-54357518D01*
X43862907Y-54288972D01*
X43571663Y-54198516D01*
X43278651Y-54083444D01*
X42977607Y-53941053D01*
X42662268Y-53768639D01*
X42326369Y-53563498D01*
X41963647Y-53322926D01*
X41585444Y-53056895D01*
X41424446Y-52943157D01*
X41231788Y-52810350D01*
X41023620Y-52669410D01*
X40816092Y-52531270D01*
X40625888Y-52407210D01*
X40371804Y-52242097D01*
X40158920Y-52099906D01*
X39979695Y-51975088D01*
X39826590Y-51862097D01*
X39692064Y-51755387D01*
X39568577Y-51649412D01*
X39460470Y-51549910D01*
X39198194Y-51271185D01*
X38981357Y-50972310D01*
X38850896Y-50743555D01*
X38792063Y-50625870D01*
X38740029Y-50512152D01*
X38692157Y-50394369D01*
X38645807Y-50264487D01*
X38598341Y-50114471D01*
X38547120Y-49936289D01*
X38489506Y-49721906D01*
X38422860Y-49463290D01*
X38397424Y-49362868D01*
X38325444Y-49079999D01*
X38262771Y-48842670D01*
X38205460Y-48641555D01*
X38149564Y-48467328D01*
X38091135Y-48310662D01*
X38026228Y-48162232D01*
X37950896Y-48012712D01*
X37861191Y-47852776D01*
X37753168Y-47673097D01*
X37622879Y-47464349D01*
X37535572Y-47326309D01*
X37368981Y-47057272D01*
X37234247Y-46821941D01*
X37128479Y-46609541D01*
X37048784Y-46409300D01*
X36992269Y-46210442D01*
X36956044Y-46002196D01*
X36937214Y-45773786D01*
X36932889Y-45514438D01*
X36940175Y-45213380D01*
X36943823Y-45122022D01*
X36973499Y-44611782D01*
X37017361Y-44142270D01*
X37074889Y-43717840D01*
X37145561Y-43342850D01*
X37168257Y-43244728D01*
X37222882Y-43032219D01*
X37280545Y-42839208D01*
X37344929Y-42659390D01*
X37419717Y-42486462D01*
X37508591Y-42314120D01*
X37615234Y-42136062D01*
X37743329Y-41945985D01*
X37896557Y-41737583D01*
X38078602Y-41504555D01*
X38293146Y-41240597D01*
X38448490Y-41053384D01*
X38576587Y-40899131D01*
X38698820Y-40750520D01*
X38808387Y-40615932D01*
X38898483Y-40503750D01*
X38962304Y-40422354D01*
X38981600Y-40396691D01*
X39106391Y-40246662D01*
X39266526Y-40085090D01*
X39446904Y-39925758D01*
X39632427Y-39782451D01*
X39719605Y-39722927D01*
X39814984Y-39663978D01*
X39948820Y-39585447D01*
X40109549Y-39493902D01*
X40285606Y-39395913D01*
X40465427Y-39298046D01*
X40505281Y-39276683D01*
X40760119Y-39138963D01*
X40973891Y-39018526D01*
X41155688Y-38908147D01*
X41314601Y-38800599D01*
X41459723Y-38688658D01*
X41600144Y-38565095D01*
X41744956Y-38422687D01*
X41903249Y-38254207D01*
X42084116Y-38052428D01*
X42173851Y-37950484D01*
X42413135Y-37683662D01*
X42627522Y-37459503D01*
X42823759Y-37273931D01*
X43008592Y-37122867D01*
X43188767Y-37002233D01*
X43371029Y-36907952D01*
X43562124Y-36835947D01*
X43768799Y-36782138D01*
X43997800Y-36742450D01*
X44214810Y-36716793D01*
X44309351Y-36708326D01*
X44402356Y-36702585D01*
X44500540Y-36699819D01*
X44610618Y-36700276D01*
X44739303Y-36704206D01*
X44893312Y-36711857D01*
X45079359Y-36723478D01*
X45304158Y-36739318D01*
X45574425Y-36759626D01*
X45762333Y-36774147D01*
X45954408Y-36787265D01*
X46140473Y-36795687D01*
X46330247Y-36799306D01*
X46533448Y-36798015D01*
X46759793Y-36791707D01*
X47019000Y-36780273D01*
X47320788Y-36763606D01*
X47455666Y-36755447D01*
X47706257Y-36740692D01*
X47910698Y-36730515D01*
X48079091Y-36724789D01*
X48221533Y-36723391D01*
X48348126Y-36726195D01*
X48468969Y-36733076D01*
X48570444Y-36741634D01*
X48819235Y-36770039D01*
X49043809Y-36808134D01*
X49250606Y-36859460D01*
X49446063Y-36927560D01*
X49636619Y-37015973D01*
X49828711Y-37128244D01*
X50028779Y-37267912D01*
X50243259Y-37438521D01*
X50478591Y-37643611D01*
X50741213Y-37886725D01*
X50863147Y-38002890D01*
X51095992Y-38219926D01*
X51330043Y-38426447D01*
X51552505Y-38611461D01*
X51742107Y-38757775D01*
X52118010Y-39038748D01*
X52448220Y-39296480D01*
X52736737Y-39534495D01*
X52987563Y-39756321D01*
X53204696Y-39965484D01*
X53392139Y-40165510D01*
X53541148Y-40343666D01*
X53700686Y-40547513D01*
X53866306Y-40761674D01*
X54032463Y-40978780D01*
X54193615Y-41191461D01*
X54344217Y-41392346D01*
X54478726Y-41574064D01*
X54591598Y-41729247D01*
X54677290Y-41850522D01*
X54703214Y-41888635D01*
X54796221Y-42031281D01*
X54878476Y-42166638D01*
X54953690Y-42302836D01*
X55025574Y-42448006D01*
X55097841Y-42610276D01*
X55174201Y-42797778D01*
X55258367Y-43018641D01*
X55354048Y-43280994D01*
X55408693Y-43434000D01*
X55535612Y-43795158D01*
X55642882Y-44110272D01*
X55732025Y-44385621D01*
X55804564Y-44627485D01*
X55862020Y-44842143D01*
X55905916Y-45035874D01*
X55937774Y-45214957D01*
X55959118Y-45385672D01*
X55971468Y-45554299D01*
X55976347Y-45727116D01*
X55976582Y-45776444D01*
X59459759Y-45776444D01*
X59511543Y-45488046D01*
X59543416Y-45073864D01*
X59533869Y-44664358D01*
X59483624Y-44266171D01*
X59393405Y-43885947D01*
X59263936Y-43530326D01*
X59095938Y-43205953D01*
X58961977Y-43009136D01*
X58718541Y-42734704D01*
X58432439Y-42495188D01*
X58106229Y-42291728D01*
X57742470Y-42125463D01*
X57343718Y-41997533D01*
X56912531Y-41909079D01*
X56451468Y-41861241D01*
X56378049Y-41857558D01*
X55958875Y-41839444D01*
X55848282Y-41543111D01*
X55628443Y-41017332D01*
X55366392Y-40507183D01*
X55059381Y-40008587D01*
X54704665Y-39517470D01*
X54299498Y-39029755D01*
X53841134Y-38541367D01*
X53793684Y-38493749D01*
X53508495Y-38215659D01*
X53243602Y-37972549D01*
X52986168Y-37753704D01*
X52723355Y-37548408D01*
X52442326Y-37345946D01*
X52309888Y-37255198D01*
X51684422Y-36860812D01*
X51048867Y-36517608D01*
X50398216Y-36223727D01*
X49727463Y-35977308D01*
X49031602Y-35776490D01*
X48305627Y-35619413D01*
X47625000Y-35514241D01*
X47438385Y-35495668D01*
X47208770Y-35481088D01*
X46948478Y-35470586D01*
X46669828Y-35464246D01*
X46385141Y-35462156D01*
X46106738Y-35464399D01*
G36*
X47141587Y-52749910D02*
X47049788Y-52757177D01*
X46917797Y-52768437D01*
X46753612Y-52782992D01*
X46565231Y-52800146D01*
X46360651Y-52819200D01*
X46358635Y-52819390D01*
X46111430Y-52843000D01*
X45914677Y-52863562D01*
X45762618Y-52883177D01*
X45649495Y-52903949D01*
X45569550Y-52927980D01*
X45517027Y-52957371D01*
X45486167Y-52994226D01*
X45471214Y-53040645D01*
X45466408Y-53098732D01*
X45466000Y-53145315D01*
X45471974Y-53236138D01*
X45495817Y-53294245D01*
X45540361Y-53337951D01*
X45568643Y-53358322D01*
X45599698Y-53373785D01*
X45639770Y-53384245D01*
X45695103Y-53389610D01*
X45771940Y-53389783D01*
X45876524Y-53384670D01*
X46015100Y-53374177D01*
X46193911Y-53358208D01*
X46419200Y-53336670D01*
X46565110Y-53322423D01*
X46801112Y-53298753D01*
X46986890Y-53277764D01*
X47128444Y-53257166D01*
X47231775Y-53234667D01*
X47302884Y-53207975D01*
X47347771Y-53174798D01*
X47372437Y-53132845D01*
X47382882Y-53079822D01*
X47385108Y-53013440D01*
X47385111Y-53009242D01*
X47365388Y-52899386D01*
X47312964Y-52811005D01*
X47237952Y-52757350D01*
X47185197Y-52747333D01*
X47141587Y-52749910D01*
X47141587Y-52749910D01*
G37*
X47141587Y-52749910D02*
X47049788Y-52757177D01*
X46917797Y-52768437D01*
X46753612Y-52782992D01*
X46565231Y-52800146D01*
X46360651Y-52819200D01*
X46358635Y-52819390D01*
X46111430Y-52843000D01*
X45914677Y-52863562D01*
X45762618Y-52883177D01*
X45649495Y-52903949D01*
X45569550Y-52927980D01*
X45517027Y-52957371D01*
X45486167Y-52994226D01*
X45471214Y-53040645D01*
X45466408Y-53098732D01*
X45466000Y-53145315D01*
X45471974Y-53236138D01*
X45495817Y-53294245D01*
X45540361Y-53337951D01*
X45568643Y-53358322D01*
X45599698Y-53373785D01*
X45639770Y-53384245D01*
X45695103Y-53389610D01*
X45771940Y-53389783D01*
X45876524Y-53384670D01*
X46015100Y-53374177D01*
X46193911Y-53358208D01*
X46419200Y-53336670D01*
X46565110Y-53322423D01*
X46801112Y-53298753D01*
X46986890Y-53277764D01*
X47128444Y-53257166D01*
X47231775Y-53234667D01*
X47302884Y-53207975D01*
X47347771Y-53174798D01*
X47372437Y-53132845D01*
X47382882Y-53079822D01*
X47385108Y-53013440D01*
X47385111Y-53009242D01*
X47365388Y-52899386D01*
X47312964Y-52811005D01*
X47237952Y-52757350D01*
X47185197Y-52747333D01*
X47141587Y-52749910D01*
G36*
X41541492Y-51460686D02*
X41461731Y-51523313D01*
X41413125Y-51612982D01*
X41402135Y-51716505D01*
X41435220Y-51820695D01*
X41448432Y-51841510D01*
X41487087Y-51872709D01*
X41568995Y-51922867D01*
X41685871Y-51987933D01*
X41829426Y-52063854D01*
X41991376Y-52146577D01*
X42163432Y-52232049D01*
X42337310Y-52316218D01*
X42504721Y-52395030D01*
X42657380Y-52464434D01*
X42787001Y-52520377D01*
X42885295Y-52558805D01*
X42943978Y-52575666D01*
X42950420Y-52576090D01*
X43032943Y-52563144D01*
X43085058Y-52544991D01*
X43159833Y-52480002D01*
X43198870Y-52383671D01*
X43198270Y-52271265D01*
X43174283Y-52195723D01*
X43138235Y-52159915D01*
X43058537Y-52105699D01*
X42943327Y-52037108D01*
X42800747Y-51958178D01*
X42638936Y-51872942D01*
X42466035Y-51785435D01*
X42290183Y-51699690D01*
X42119520Y-51619742D01*
X41962188Y-51549624D01*
X41826324Y-51493372D01*
X41720071Y-51455019D01*
X41651568Y-51438600D01*
X41645949Y-51438289D01*
X41541492Y-51460686D01*
X41541492Y-51460686D01*
G37*
X41541492Y-51460686D02*
X41461731Y-51523313D01*
X41413125Y-51612982D01*
X41402135Y-51716505D01*
X41435220Y-51820695D01*
X41448432Y-51841510D01*
X41487087Y-51872709D01*
X41568995Y-51922867D01*
X41685871Y-51987933D01*
X41829426Y-52063854D01*
X41991376Y-52146577D01*
X42163432Y-52232049D01*
X42337310Y-52316218D01*
X42504721Y-52395030D01*
X42657380Y-52464434D01*
X42787001Y-52520377D01*
X42885295Y-52558805D01*
X42943978Y-52575666D01*
X42950420Y-52576090D01*
X43032943Y-52563144D01*
X43085058Y-52544991D01*
X43159833Y-52480002D01*
X43198870Y-52383671D01*
X43198270Y-52271265D01*
X43174283Y-52195723D01*
X43138235Y-52159915D01*
X43058537Y-52105699D01*
X42943327Y-52037108D01*
X42800747Y-51958178D01*
X42638936Y-51872942D01*
X42466035Y-51785435D01*
X42290183Y-51699690D01*
X42119520Y-51619742D01*
X41962188Y-51549624D01*
X41826324Y-51493372D01*
X41720071Y-51455019D01*
X41651568Y-51438600D01*
X41645949Y-51438289D01*
X41541492Y-51460686D01*
G36*
X52722008Y-49185529D02*
X52631712Y-49236142D01*
X52621155Y-49246869D01*
X52598682Y-49291390D01*
X52566202Y-49382116D01*
X52526012Y-49510166D01*
X52480410Y-49666657D01*
X52431691Y-49842708D01*
X52382153Y-50029437D01*
X52334094Y-50217961D01*
X52289809Y-50399399D01*
X52251595Y-50564869D01*
X52221751Y-50705490D01*
X52202571Y-50812378D01*
X52196355Y-50876653D01*
X52197279Y-50885940D01*
X52228694Y-50961911D01*
X52265654Y-51009946D01*
X52344091Y-51051637D01*
X52446438Y-51071244D01*
X52542924Y-51064117D01*
X52564868Y-51056682D01*
X52626979Y-51018963D01*
X52654303Y-50993521D01*
X52670789Y-50955004D01*
X52697955Y-50870374D01*
X52733529Y-50748458D01*
X52775243Y-50598083D01*
X52820827Y-50428076D01*
X52868010Y-50247264D01*
X52914523Y-50064473D01*
X52958096Y-49888529D01*
X52996458Y-49728261D01*
X53027341Y-49592493D01*
X53048473Y-49490054D01*
X53057586Y-49429769D01*
X53057777Y-49424566D01*
X53047877Y-49321279D01*
X53011503Y-49253368D01*
X52938645Y-49202216D01*
X52938040Y-49201903D01*
X52831492Y-49173069D01*
X52722008Y-49185529D01*
X52722008Y-49185529D01*
G37*
X52722008Y-49185529D02*
X52631712Y-49236142D01*
X52621155Y-49246869D01*
X52598682Y-49291390D01*
X52566202Y-49382116D01*
X52526012Y-49510166D01*
X52480410Y-49666657D01*
X52431691Y-49842708D01*
X52382153Y-50029437D01*
X52334094Y-50217961D01*
X52289809Y-50399399D01*
X52251595Y-50564869D01*
X52221751Y-50705490D01*
X52202571Y-50812378D01*
X52196355Y-50876653D01*
X52197279Y-50885940D01*
X52228694Y-50961911D01*
X52265654Y-51009946D01*
X52344091Y-51051637D01*
X52446438Y-51071244D01*
X52542924Y-51064117D01*
X52564868Y-51056682D01*
X52626979Y-51018963D01*
X52654303Y-50993521D01*
X52670789Y-50955004D01*
X52697955Y-50870374D01*
X52733529Y-50748458D01*
X52775243Y-50598083D01*
X52820827Y-50428076D01*
X52868010Y-50247264D01*
X52914523Y-50064473D01*
X52958096Y-49888529D01*
X52996458Y-49728261D01*
X53027341Y-49592493D01*
X53048473Y-49490054D01*
X53057586Y-49429769D01*
X53057777Y-49424566D01*
X53047877Y-49321279D01*
X53011503Y-49253368D01*
X52938645Y-49202216D01*
X52938040Y-49201903D01*
X52831492Y-49173069D01*
X52722008Y-49185529D01*
G36*
X50957000Y-49941308D02*
X50861806Y-49949848D01*
X50727017Y-49965831D01*
X50560655Y-49988229D01*
X50370742Y-50016015D01*
X50165301Y-50048163D01*
X50150888Y-50050494D01*
X49921465Y-50087943D01*
X49741200Y-50118261D01*
X49603485Y-50143018D01*
X49501708Y-50163783D01*
X49429260Y-50182127D01*
X49379530Y-50199619D01*
X49345907Y-50217827D01*
X49321781Y-50238322D01*
X49311277Y-50249844D01*
X49258335Y-50350882D01*
X49253247Y-50464011D01*
X49296287Y-50570959D01*
X49306270Y-50584527D01*
X49345041Y-50626070D01*
X49389751Y-50647952D01*
X49458595Y-50655729D01*
X49539104Y-50655606D01*
X49626692Y-50649700D01*
X49755984Y-50635503D01*
X49913143Y-50614792D01*
X50084332Y-50589342D01*
X50193222Y-50571664D01*
X50368332Y-50542256D01*
X50540023Y-50513479D01*
X50693795Y-50487759D01*
X50815148Y-50467523D01*
X50866567Y-50458990D01*
X51004746Y-50428222D01*
X51095066Y-50385626D01*
X51145929Y-50323944D01*
X51165736Y-50235917D01*
X51166888Y-50199501D01*
X51147953Y-50072458D01*
X51092509Y-49985147D01*
X51004576Y-49941236D01*
X50957000Y-49941308D01*
X50957000Y-49941308D01*
G37*
X50957000Y-49941308D02*
X50861806Y-49949848D01*
X50727017Y-49965831D01*
X50560655Y-49988229D01*
X50370742Y-50016015D01*
X50165301Y-50048163D01*
X50150888Y-50050494D01*
X49921465Y-50087943D01*
X49741200Y-50118261D01*
X49603485Y-50143018D01*
X49501708Y-50163783D01*
X49429260Y-50182127D01*
X49379530Y-50199619D01*
X49345907Y-50217827D01*
X49321781Y-50238322D01*
X49311277Y-50249844D01*
X49258335Y-50350882D01*
X49253247Y-50464011D01*
X49296287Y-50570959D01*
X49306270Y-50584527D01*
X49345041Y-50626070D01*
X49389751Y-50647952D01*
X49458595Y-50655729D01*
X49539104Y-50655606D01*
X49626692Y-50649700D01*
X49755984Y-50635503D01*
X49913143Y-50614792D01*
X50084332Y-50589342D01*
X50193222Y-50571664D01*
X50368332Y-50542256D01*
X50540023Y-50513479D01*
X50693795Y-50487759D01*
X50815148Y-50467523D01*
X50866567Y-50458990D01*
X51004746Y-50428222D01*
X51095066Y-50385626D01*
X51145929Y-50323944D01*
X51165736Y-50235917D01*
X51166888Y-50199501D01*
X51147953Y-50072458D01*
X51092509Y-49985147D01*
X51004576Y-49941236D01*
X50957000Y-49941308D01*
G36*
X46444574Y-43522482D02*
X46179580Y-43526014D01*
X45918089Y-43532858D01*
X45670864Y-43542807D01*
X45448670Y-43555656D01*
X45262271Y-43571198D01*
X45132353Y-43587585D01*
X44710187Y-43675031D01*
X44334749Y-43793912D01*
X44005598Y-43944661D01*
X43722292Y-44127713D01*
X43484389Y-44343502D01*
X43291448Y-44592462D01*
X43143028Y-44875028D01*
X43038688Y-45191634D01*
X42977985Y-45542714D01*
X42964391Y-45720000D01*
X42971173Y-46141993D01*
X43031000Y-46553630D01*
X43140859Y-46951127D01*
X43297734Y-47330698D01*
X43498611Y-47688560D01*
X43740475Y-48020928D01*
X44020312Y-48324018D01*
X44335106Y-48594044D01*
X44681843Y-48827224D01*
X45057509Y-49019772D01*
X45459088Y-49167903D01*
X45774283Y-49247337D01*
X46018789Y-49283580D01*
X46293419Y-49301640D01*
X46577274Y-49301522D01*
X46849455Y-49283236D01*
X47088777Y-49246849D01*
X47517532Y-49128972D01*
X47920248Y-48962855D01*
X48294017Y-48751746D01*
X48635929Y-48498894D01*
X48943075Y-48207548D01*
X49212545Y-47880956D01*
X49441430Y-47522367D01*
X49626819Y-47135029D01*
X49765804Y-46722191D01*
X49855475Y-46287101D01*
X49873955Y-46137184D01*
X49882073Y-45937699D01*
X49414174Y-45937699D01*
X49403856Y-46155070D01*
X49381763Y-46348272D01*
X49374439Y-46390267D01*
X49271283Y-46787885D01*
X49119154Y-47161136D01*
X48921494Y-47506596D01*
X48681747Y-47820837D01*
X48403354Y-48100435D01*
X48089760Y-48341962D01*
X47744408Y-48541994D01*
X47370739Y-48697103D01*
X46972198Y-48803864D01*
X46943284Y-48809471D01*
X46725123Y-48836675D01*
X46473488Y-48845092D01*
X46207841Y-48835527D01*
X45947643Y-48808784D01*
X45712354Y-48765668D01*
X45677666Y-48757136D01*
X45295150Y-48630635D01*
X44937290Y-48455644D01*
X44607818Y-48236098D01*
X44310467Y-47975931D01*
X44048970Y-47679077D01*
X43827061Y-47349472D01*
X43648471Y-46991048D01*
X43516934Y-46607741D01*
X43475827Y-46436527D01*
X43451350Y-46277775D01*
X43435482Y-46086821D01*
X43428471Y-45881506D01*
X43430563Y-45679672D01*
X43442006Y-45499160D01*
X43461012Y-45367222D01*
X43547185Y-45085020D01*
X43680268Y-44832909D01*
X43857776Y-44614082D01*
X44077224Y-44431729D01*
X44281094Y-44314356D01*
X44482259Y-44226588D01*
X44692500Y-44154462D01*
X44919620Y-44096585D01*
X45171419Y-44051566D01*
X45455700Y-44018014D01*
X45780263Y-43994536D01*
X46152909Y-43979741D01*
X46157444Y-43979617D01*
X46681199Y-43976136D01*
X47154574Y-43995839D01*
X47578904Y-44039289D01*
X47955521Y-44107050D01*
X48285761Y-44199685D01*
X48570957Y-44317758D01*
X48812444Y-44461834D01*
X49011555Y-44632475D01*
X49169624Y-44830246D01*
X49287986Y-45055710D01*
X49367975Y-45309431D01*
X49374469Y-45339000D01*
X49399481Y-45509821D01*
X49412716Y-45716002D01*
X49414174Y-45937699D01*
X49882073Y-45937699D01*
X49888712Y-45774592D01*
X49858290Y-45427382D01*
X49784327Y-45101063D01*
X49668464Y-44801144D01*
X49512338Y-44533133D01*
X49332444Y-44317347D01*
X49109901Y-44121203D01*
X48858899Y-43955442D01*
X48574986Y-43818354D01*
X48253707Y-43708225D01*
X47890609Y-43623346D01*
X47481238Y-43562004D01*
X47324291Y-43545598D01*
X47152929Y-43533821D01*
X46942013Y-43526180D01*
X46702306Y-43522469D01*
X46444574Y-43522482D01*
X46444574Y-43522482D01*
G37*
X46444574Y-43522482D02*
X46179580Y-43526014D01*
X45918089Y-43532858D01*
X45670864Y-43542807D01*
X45448670Y-43555656D01*
X45262271Y-43571198D01*
X45132353Y-43587585D01*
X44710187Y-43675031D01*
X44334749Y-43793912D01*
X44005598Y-43944661D01*
X43722292Y-44127713D01*
X43484389Y-44343502D01*
X43291448Y-44592462D01*
X43143028Y-44875028D01*
X43038688Y-45191634D01*
X42977985Y-45542714D01*
X42964391Y-45720000D01*
X42971173Y-46141993D01*
X43031000Y-46553630D01*
X43140859Y-46951127D01*
X43297734Y-47330698D01*
X43498611Y-47688560D01*
X43740475Y-48020928D01*
X44020312Y-48324018D01*
X44335106Y-48594044D01*
X44681843Y-48827224D01*
X45057509Y-49019772D01*
X45459088Y-49167903D01*
X45774283Y-49247337D01*
X46018789Y-49283580D01*
X46293419Y-49301640D01*
X46577274Y-49301522D01*
X46849455Y-49283236D01*
X47088777Y-49246849D01*
X47517532Y-49128972D01*
X47920248Y-48962855D01*
X48294017Y-48751746D01*
X48635929Y-48498894D01*
X48943075Y-48207548D01*
X49212545Y-47880956D01*
X49441430Y-47522367D01*
X49626819Y-47135029D01*
X49765804Y-46722191D01*
X49855475Y-46287101D01*
X49873955Y-46137184D01*
X49882073Y-45937699D01*
X49414174Y-45937699D01*
X49403856Y-46155070D01*
X49381763Y-46348272D01*
X49374439Y-46390267D01*
X49271283Y-46787885D01*
X49119154Y-47161136D01*
X48921494Y-47506596D01*
X48681747Y-47820837D01*
X48403354Y-48100435D01*
X48089760Y-48341962D01*
X47744408Y-48541994D01*
X47370739Y-48697103D01*
X46972198Y-48803864D01*
X46943284Y-48809471D01*
X46725123Y-48836675D01*
X46473488Y-48845092D01*
X46207841Y-48835527D01*
X45947643Y-48808784D01*
X45712354Y-48765668D01*
X45677666Y-48757136D01*
X45295150Y-48630635D01*
X44937290Y-48455644D01*
X44607818Y-48236098D01*
X44310467Y-47975931D01*
X44048970Y-47679077D01*
X43827061Y-47349472D01*
X43648471Y-46991048D01*
X43516934Y-46607741D01*
X43475827Y-46436527D01*
X43451350Y-46277775D01*
X43435482Y-46086821D01*
X43428471Y-45881506D01*
X43430563Y-45679672D01*
X43442006Y-45499160D01*
X43461012Y-45367222D01*
X43547185Y-45085020D01*
X43680268Y-44832909D01*
X43857776Y-44614082D01*
X44077224Y-44431729D01*
X44281094Y-44314356D01*
X44482259Y-44226588D01*
X44692500Y-44154462D01*
X44919620Y-44096585D01*
X45171419Y-44051566D01*
X45455700Y-44018014D01*
X45780263Y-43994536D01*
X46152909Y-43979741D01*
X46157444Y-43979617D01*
X46681199Y-43976136D01*
X47154574Y-43995839D01*
X47578904Y-44039289D01*
X47955521Y-44107050D01*
X48285761Y-44199685D01*
X48570957Y-44317758D01*
X48812444Y-44461834D01*
X49011555Y-44632475D01*
X49169624Y-44830246D01*
X49287986Y-45055710D01*
X49367975Y-45309431D01*
X49374469Y-45339000D01*
X49399481Y-45509821D01*
X49412716Y-45716002D01*
X49414174Y-45937699D01*
X49882073Y-45937699D01*
X49888712Y-45774592D01*
X49858290Y-45427382D01*
X49784327Y-45101063D01*
X49668464Y-44801144D01*
X49512338Y-44533133D01*
X49332444Y-44317347D01*
X49109901Y-44121203D01*
X48858899Y-43955442D01*
X48574986Y-43818354D01*
X48253707Y-43708225D01*
X47890609Y-43623346D01*
X47481238Y-43562004D01*
X47324291Y-43545598D01*
X47152929Y-43533821D01*
X46942013Y-43526180D01*
X46702306Y-43522469D01*
X46444574Y-43522482D01*
G36*
X52437543Y-46946322D02*
X52394612Y-46966154D01*
X52343380Y-47001865D01*
X52280213Y-47056834D01*
X52201475Y-47134436D01*
X52103533Y-47238049D01*
X51982752Y-47371047D01*
X51835497Y-47536809D01*
X51658134Y-47738710D01*
X51467729Y-47956436D01*
X51359241Y-48093651D01*
X51297067Y-48207229D01*
X51279793Y-48303664D01*
X51306001Y-48389449D01*
X51358740Y-48456193D01*
X51449839Y-48521384D01*
X51553270Y-48539445D01*
X51651092Y-48523274D01*
X51679905Y-48500035D01*
X51739585Y-48440833D01*
X51824080Y-48352398D01*
X51927338Y-48241462D01*
X52043306Y-48114758D01*
X52165931Y-47979016D01*
X52289162Y-47840967D01*
X52406945Y-47707344D01*
X52513229Y-47584878D01*
X52601960Y-47480301D01*
X52667087Y-47400343D01*
X52697758Y-47359174D01*
X52740135Y-47254032D01*
X52737872Y-47145125D01*
X52696169Y-47047193D01*
X52620223Y-46974979D01*
X52552877Y-46948347D01*
X52513041Y-46940796D01*
X52475808Y-46938995D01*
X52437543Y-46946322D01*
X52437543Y-46946322D01*
G37*
X52437543Y-46946322D02*
X52394612Y-46966154D01*
X52343380Y-47001865D01*
X52280213Y-47056834D01*
X52201475Y-47134436D01*
X52103533Y-47238049D01*
X51982752Y-47371047D01*
X51835497Y-47536809D01*
X51658134Y-47738710D01*
X51467729Y-47956436D01*
X51359241Y-48093651D01*
X51297067Y-48207229D01*
X51279793Y-48303664D01*
X51306001Y-48389449D01*
X51358740Y-48456193D01*
X51449839Y-48521384D01*
X51553270Y-48539445D01*
X51651092Y-48523274D01*
X51679905Y-48500035D01*
X51739585Y-48440833D01*
X51824080Y-48352398D01*
X51927338Y-48241462D01*
X52043306Y-48114758D01*
X52165931Y-47979016D01*
X52289162Y-47840967D01*
X52406945Y-47707344D01*
X52513229Y-47584878D01*
X52601960Y-47480301D01*
X52667087Y-47400343D01*
X52697758Y-47359174D01*
X52740135Y-47254032D01*
X52737872Y-47145125D01*
X52696169Y-47047193D01*
X52620223Y-46974979D01*
X52552877Y-46948347D01*
X52513041Y-46940796D01*
X52475808Y-46938995D01*
X52437543Y-46946322D01*
G36*
X39646378Y-43944538D02*
X39618300Y-43952719D01*
X39581151Y-43971048D01*
X39530483Y-44002478D01*
X39461848Y-44049965D01*
X39370798Y-44116465D01*
X39252884Y-44204932D01*
X39103659Y-44318323D01*
X38918673Y-44459592D01*
X38693479Y-44631695D01*
X38672714Y-44647555D01*
X38555798Y-44739736D01*
X38453993Y-44825403D01*
X38376594Y-44896337D01*
X38332899Y-44944319D01*
X38328086Y-44952272D01*
X38296483Y-45072379D01*
X38313918Y-45179140D01*
X38374289Y-45262675D01*
X38471494Y-45313106D01*
X38557328Y-45323430D01*
X38602692Y-45320357D01*
X38647660Y-45309240D01*
X38699758Y-45285502D01*
X38766513Y-45244563D01*
X38855453Y-45181845D01*
X38974103Y-45092769D01*
X39116000Y-44983582D01*
X39328382Y-44819271D01*
X39500452Y-44685628D01*
X39636449Y-44578661D01*
X39740612Y-44494380D01*
X39817180Y-44428796D01*
X39870392Y-44377917D01*
X39904487Y-44337752D01*
X39923704Y-44304312D01*
X39932283Y-44273606D01*
X39934461Y-44241643D01*
X39934444Y-44213110D01*
X39916281Y-44089019D01*
X39859938Y-44005487D01*
X39762633Y-43959105D01*
X39720673Y-43951320D01*
X39693116Y-43946793D01*
X39669834Y-43943548D01*
X39646378Y-43944538D01*
X39646378Y-43944538D01*
G37*
X39646378Y-43944538D02*
X39618300Y-43952719D01*
X39581151Y-43971048D01*
X39530483Y-44002478D01*
X39461848Y-44049965D01*
X39370798Y-44116465D01*
X39252884Y-44204932D01*
X39103659Y-44318323D01*
X38918673Y-44459592D01*
X38693479Y-44631695D01*
X38672714Y-44647555D01*
X38555798Y-44739736D01*
X38453993Y-44825403D01*
X38376594Y-44896337D01*
X38332899Y-44944319D01*
X38328086Y-44952272D01*
X38296483Y-45072379D01*
X38313918Y-45179140D01*
X38374289Y-45262675D01*
X38471494Y-45313106D01*
X38557328Y-45323430D01*
X38602692Y-45320357D01*
X38647660Y-45309240D01*
X38699758Y-45285502D01*
X38766513Y-45244563D01*
X38855453Y-45181845D01*
X38974103Y-45092769D01*
X39116000Y-44983582D01*
X39328382Y-44819271D01*
X39500452Y-44685628D01*
X39636449Y-44578661D01*
X39740612Y-44494380D01*
X39817180Y-44428796D01*
X39870392Y-44377917D01*
X39904487Y-44337752D01*
X39923704Y-44304312D01*
X39932283Y-44273606D01*
X39934461Y-44241643D01*
X39934444Y-44213110D01*
X39916281Y-44089019D01*
X39859938Y-44005487D01*
X39762633Y-43959105D01*
X39720673Y-43951320D01*
X39693116Y-43946793D01*
X39669834Y-43943548D01*
X39646378Y-43944538D01*
G36*
X41444333Y-40366178D02*
X41261489Y-40375867D01*
X41093552Y-40390941D01*
X40955563Y-40409813D01*
X40879888Y-40425742D01*
X40627252Y-40515159D01*
X40389387Y-40639760D01*
X40176416Y-40792198D01*
X39998465Y-40965124D01*
X39865654Y-41151191D01*
X39855881Y-41169043D01*
X39743686Y-41428323D01*
X39662018Y-41719868D01*
X39613380Y-42026947D01*
X39600277Y-42332828D01*
X39625212Y-42620781D01*
X39632474Y-42661846D01*
X39718210Y-42991508D01*
X39842113Y-43279591D01*
X40004204Y-43526119D01*
X40204505Y-43731117D01*
X40443038Y-43894609D01*
X40719825Y-44016619D01*
X40856917Y-44058011D01*
X41034052Y-44092931D01*
X41247838Y-44116795D01*
X41479457Y-44128998D01*
X41710091Y-44128930D01*
X41920922Y-44115983D01*
X42058064Y-44096829D01*
X42374420Y-44012773D01*
X42653156Y-43887922D01*
X42893205Y-43723037D01*
X43093498Y-43518880D01*
X43252967Y-43276211D01*
X43277444Y-43228109D01*
X43392853Y-42937942D01*
X43461858Y-42632141D01*
X43485435Y-42303952D01*
X43464561Y-41946621D01*
X43463766Y-41939724D01*
X43415083Y-41648892D01*
X43338649Y-41398190D01*
X43229095Y-41175930D01*
X43081055Y-40970424D01*
X42956430Y-40835053D01*
X42757300Y-40666623D01*
X42532608Y-40536721D01*
X42277803Y-40443935D01*
X41988333Y-40386855D01*
X41659649Y-40364068D01*
X41444333Y-40366178D01*
X41444333Y-40366178D01*
G37*
X41444333Y-40366178D02*
X41261489Y-40375867D01*
X41093552Y-40390941D01*
X40955563Y-40409813D01*
X40879888Y-40425742D01*
X40627252Y-40515159D01*
X40389387Y-40639760D01*
X40176416Y-40792198D01*
X39998465Y-40965124D01*
X39865654Y-41151191D01*
X39855881Y-41169043D01*
X39743686Y-41428323D01*
X39662018Y-41719868D01*
X39613380Y-42026947D01*
X39600277Y-42332828D01*
X39625212Y-42620781D01*
X39632474Y-42661846D01*
X39718210Y-42991508D01*
X39842113Y-43279591D01*
X40004204Y-43526119D01*
X40204505Y-43731117D01*
X40443038Y-43894609D01*
X40719825Y-44016619D01*
X40856917Y-44058011D01*
X41034052Y-44092931D01*
X41247838Y-44116795D01*
X41479457Y-44128998D01*
X41710091Y-44128930D01*
X41920922Y-44115983D01*
X42058064Y-44096829D01*
X42374420Y-44012773D01*
X42653156Y-43887922D01*
X42893205Y-43723037D01*
X43093498Y-43518880D01*
X43252967Y-43276211D01*
X43277444Y-43228109D01*
X43392853Y-42937942D01*
X43461858Y-42632141D01*
X43485435Y-42303952D01*
X43464561Y-41946621D01*
X43463766Y-41939724D01*
X43415083Y-41648892D01*
X43338649Y-41398190D01*
X43229095Y-41175930D01*
X43081055Y-40970424D01*
X42956430Y-40835053D01*
X42757300Y-40666623D01*
X42532608Y-40536721D01*
X42277803Y-40443935D01*
X41988333Y-40386855D01*
X41659649Y-40364068D01*
X41444333Y-40366178D01*
G36*
X50723252Y-40069132D02*
X50532043Y-40091156D01*
X50366204Y-40125643D01*
X50210343Y-40175957D01*
X50049068Y-40245462D01*
X50015528Y-40261610D01*
X49772320Y-40407751D01*
X49568550Y-40590518D01*
X49402166Y-40812562D01*
X49271117Y-41076532D01*
X49187153Y-41331444D01*
X49152727Y-41504811D01*
X49130798Y-41710612D01*
X49121602Y-41931293D01*
X49125370Y-42149300D01*
X49142339Y-42347079D01*
X49171543Y-42502666D01*
X49280165Y-42816110D01*
X49426559Y-43087942D01*
X49610349Y-43317772D01*
X49831161Y-43505209D01*
X50088620Y-43649864D01*
X50367806Y-43747567D01*
X50544941Y-43782486D01*
X50758727Y-43806351D01*
X50990346Y-43818553D01*
X51220980Y-43818485D01*
X51431811Y-43805538D01*
X51568953Y-43786384D01*
X51886842Y-43701678D01*
X52166703Y-43575358D01*
X52408131Y-43407796D01*
X52610722Y-43199362D01*
X52774071Y-42950428D01*
X52897773Y-42661366D01*
X52937058Y-42530889D01*
X52962187Y-42395320D01*
X52978410Y-42219976D01*
X52985756Y-42020816D01*
X52984254Y-41813796D01*
X52973934Y-41614875D01*
X52954825Y-41440010D01*
X52934840Y-41334641D01*
X52848799Y-41081448D01*
X52720531Y-40839644D01*
X52558017Y-40619485D01*
X52369235Y-40431225D01*
X52162164Y-40285120D01*
X52088195Y-40246480D01*
X51837461Y-40149158D01*
X51563438Y-40086250D01*
X51257688Y-40056339D01*
X50955222Y-40056205D01*
X50723252Y-40069132D01*
X50723252Y-40069132D01*
G37*
X50723252Y-40069132D02*
X50532043Y-40091156D01*
X50366204Y-40125643D01*
X50210343Y-40175957D01*
X50049068Y-40245462D01*
X50015528Y-40261610D01*
X49772320Y-40407751D01*
X49568550Y-40590518D01*
X49402166Y-40812562D01*
X49271117Y-41076532D01*
X49187153Y-41331444D01*
X49152727Y-41504811D01*
X49130798Y-41710612D01*
X49121602Y-41931293D01*
X49125370Y-42149300D01*
X49142339Y-42347079D01*
X49171543Y-42502666D01*
X49280165Y-42816110D01*
X49426559Y-43087942D01*
X49610349Y-43317772D01*
X49831161Y-43505209D01*
X50088620Y-43649864D01*
X50367806Y-43747567D01*
X50544941Y-43782486D01*
X50758727Y-43806351D01*
X50990346Y-43818553D01*
X51220980Y-43818485D01*
X51431811Y-43805538D01*
X51568953Y-43786384D01*
X51886842Y-43701678D01*
X52166703Y-43575358D01*
X52408131Y-43407796D01*
X52610722Y-43199362D01*
X52774071Y-42950428D01*
X52897773Y-42661366D01*
X52937058Y-42530889D01*
X52962187Y-42395320D01*
X52978410Y-42219976D01*
X52985756Y-42020816D01*
X52984254Y-41813796D01*
X52973934Y-41614875D01*
X52954825Y-41440010D01*
X52934840Y-41334641D01*
X52848799Y-41081448D01*
X52720531Y-40839644D01*
X52558017Y-40619485D01*
X52369235Y-40431225D01*
X52162164Y-40285120D01*
X52088195Y-40246480D01*
X51837461Y-40149158D01*
X51563438Y-40086250D01*
X51257688Y-40056339D01*
X50955222Y-40056205D01*
X50723252Y-40069132D01*
G36*
X44834627Y-38479155D02*
X44787271Y-38497717D01*
X44698804Y-38541238D01*
X44576584Y-38605751D01*
X44427969Y-38687289D01*
X44260318Y-38781887D01*
X44083991Y-38883819D01*
X43884561Y-39000954D01*
X43728633Y-39094024D01*
X43610653Y-39166882D01*
X43525065Y-39223383D01*
X43466316Y-39267379D01*
X43428851Y-39302724D01*
X43407115Y-39333270D01*
X43396065Y-39361042D01*
X43384201Y-39484301D01*
X43417358Y-39589715D01*
X43488634Y-39667026D01*
X43591124Y-39705978D01*
X43630028Y-39708666D01*
X43673352Y-39702145D01*
X43735214Y-39680796D01*
X43820945Y-39641940D01*
X43935873Y-39582900D01*
X44085328Y-39500997D01*
X44274642Y-39393551D01*
X44393761Y-39324870D01*
X44570562Y-39221649D01*
X44732212Y-39125601D01*
X44871945Y-39040882D01*
X44982996Y-38971643D01*
X45058599Y-38922041D01*
X45091988Y-38896228D01*
X45092055Y-38896142D01*
X45115843Y-38834929D01*
X45126623Y-38744529D01*
X45122860Y-38651024D01*
X45109802Y-38595153D01*
X45061778Y-38537791D01*
X44979622Y-38494906D01*
X44885410Y-38475805D01*
X44834627Y-38479155D01*
X44834627Y-38479155D01*
G37*
X44834627Y-38479155D02*
X44787271Y-38497717D01*
X44698804Y-38541238D01*
X44576584Y-38605751D01*
X44427969Y-38687289D01*
X44260318Y-38781887D01*
X44083991Y-38883819D01*
X43884561Y-39000954D01*
X43728633Y-39094024D01*
X43610653Y-39166882D01*
X43525065Y-39223383D01*
X43466316Y-39267379D01*
X43428851Y-39302724D01*
X43407115Y-39333270D01*
X43396065Y-39361042D01*
X43384201Y-39484301D01*
X43417358Y-39589715D01*
X43488634Y-39667026D01*
X43591124Y-39705978D01*
X43630028Y-39708666D01*
X43673352Y-39702145D01*
X43735214Y-39680796D01*
X43820945Y-39641940D01*
X43935873Y-39582900D01*
X44085328Y-39500997D01*
X44274642Y-39393551D01*
X44393761Y-39324870D01*
X44570562Y-39221649D01*
X44732212Y-39125601D01*
X44871945Y-39040882D01*
X44982996Y-38971643D01*
X45058599Y-38922041D01*
X45091988Y-38896228D01*
X45092055Y-38896142D01*
X45115843Y-38834929D01*
X45126623Y-38744529D01*
X45122860Y-38651024D01*
X45109802Y-38595153D01*
X45061778Y-38537791D01*
X44979622Y-38494906D01*
X44885410Y-38475805D01*
X44834627Y-38479155D01*
G36*
X48700638Y-38393540D02*
X48603398Y-38425028D01*
X48473127Y-38472987D01*
X48318440Y-38533718D01*
X48147955Y-38603523D01*
X47970290Y-38678702D01*
X47794061Y-38755557D01*
X47627885Y-38830389D01*
X47480379Y-38899500D01*
X47360161Y-38959189D01*
X47275847Y-39005759D01*
X47236944Y-39034369D01*
X47190000Y-39128544D01*
X47186233Y-39231187D01*
X47219533Y-39328222D01*
X47283790Y-39405571D01*
X47372892Y-39449157D01*
X47419106Y-39454007D01*
X47472908Y-39442461D01*
X47571678Y-39409853D01*
X47709056Y-39358610D01*
X47878684Y-39291159D01*
X48074203Y-39209927D01*
X48203555Y-39154607D01*
X48390009Y-39073280D01*
X48560956Y-38997253D01*
X48709033Y-38929918D01*
X48826880Y-38874666D01*
X48907136Y-38834888D01*
X48941850Y-38814523D01*
X48996658Y-38730622D01*
X49010024Y-38620560D01*
X48992768Y-38534386D01*
X48946109Y-38445458D01*
X48872281Y-38397174D01*
X48759932Y-38382231D01*
X48756229Y-38382222D01*
X48700638Y-38393540D01*
X48700638Y-38393540D01*
G37*
X48700638Y-38393540D02*
X48603398Y-38425028D01*
X48473127Y-38472987D01*
X48318440Y-38533718D01*
X48147955Y-38603523D01*
X47970290Y-38678702D01*
X47794061Y-38755557D01*
X47627885Y-38830389D01*
X47480379Y-38899500D01*
X47360161Y-38959189D01*
X47275847Y-39005759D01*
X47236944Y-39034369D01*
X47190000Y-39128544D01*
X47186233Y-39231187D01*
X47219533Y-39328222D01*
X47283790Y-39405571D01*
X47372892Y-39449157D01*
X47419106Y-39454007D01*
X47472908Y-39442461D01*
X47571678Y-39409853D01*
X47709056Y-39358610D01*
X47878684Y-39291159D01*
X48074203Y-39209927D01*
X48203555Y-39154607D01*
X48390009Y-39073280D01*
X48560956Y-38997253D01*
X48709033Y-38929918D01*
X48826880Y-38874666D01*
X48907136Y-38834888D01*
X48941850Y-38814523D01*
X48996658Y-38730622D01*
X49010024Y-38620560D01*
X48992768Y-38534386D01*
X48946109Y-38445458D01*
X48872281Y-38397174D01*
X48759932Y-38382231D01*
X48756229Y-38382222D01*
X48700638Y-38393540D01*
M02*
