G04 #@! TF.FileFunction,Soldermask,Top*
%FSLAX46Y46*%
G04 Gerber Fmt 4.6, Leading zero omitted, Abs format (unit mm)*
G04 Created by KiCad (PCBNEW 4.0.6-e0-6349~53~ubuntu16.04.1) date Sun Nov  5 22:25:15 2017*
%MOMM*%
%LPD*%
G01*
G04 APERTURE LIST*
%ADD10C,0.100000*%
%ADD11C,0.010000*%
G04 APERTURE END LIST*
D10*
D11*
G36*
X43505695Y-55864403D02*
X43670276Y-55912105D01*
X43853686Y-55961716D01*
X44027185Y-56005588D01*
X44104447Y-56023708D01*
X44220634Y-56049744D01*
X44300972Y-56071546D01*
X44344243Y-56095112D01*
X44349229Y-56126442D01*
X44314714Y-56171535D01*
X44239480Y-56236392D01*
X44122308Y-56327010D01*
X44028375Y-56398528D01*
X43475822Y-56789627D01*
X42916060Y-57124885D01*
X42348631Y-57404499D01*
X41773079Y-57628665D01*
X41188947Y-57797582D01*
X40595777Y-57911446D01*
X40490388Y-57925806D01*
X40294183Y-57944571D01*
X40057078Y-57957181D01*
X39794279Y-57963665D01*
X39520991Y-57964049D01*
X39252418Y-57958363D01*
X39003767Y-57946634D01*
X38790243Y-57928890D01*
X38736803Y-57922590D01*
X38260962Y-57842948D01*
X37770863Y-57725614D01*
X37408556Y-57616359D01*
X37235810Y-57556692D01*
X37056747Y-57490063D01*
X36880723Y-57420446D01*
X36717099Y-57351811D01*
X36575232Y-57288132D01*
X36464482Y-57233379D01*
X36394207Y-57191525D01*
X36380118Y-57179885D01*
X36361422Y-57142346D01*
X36333349Y-57063138D01*
X36298921Y-56953362D01*
X36261162Y-56824122D01*
X36223095Y-56686520D01*
X36187742Y-56551660D01*
X36158128Y-56430645D01*
X36137275Y-56334577D01*
X36128206Y-56274560D01*
X36129756Y-56260392D01*
X36159867Y-56263201D01*
X36230320Y-56280447D01*
X36327894Y-56308760D01*
X36365544Y-56320513D01*
X36738611Y-56429289D01*
X37151169Y-56532250D01*
X37586306Y-56625716D01*
X38027109Y-56706003D01*
X38382223Y-56759597D01*
X38590120Y-56782346D01*
X38834772Y-56800226D01*
X39103652Y-56813066D01*
X39384232Y-56820695D01*
X39663988Y-56822942D01*
X39930392Y-56819635D01*
X40170919Y-56810604D01*
X40373041Y-56795678D01*
X40442445Y-56787743D01*
X41023734Y-56689906D01*
X41568793Y-56553208D01*
X42075887Y-56378238D01*
X42543282Y-56165587D01*
X42931722Y-55940426D01*
X43194785Y-55770012D01*
X43505695Y-55864403D01*
X43505695Y-55864403D01*
G37*
X43505695Y-55864403D02*
X43670276Y-55912105D01*
X43853686Y-55961716D01*
X44027185Y-56005588D01*
X44104447Y-56023708D01*
X44220634Y-56049744D01*
X44300972Y-56071546D01*
X44344243Y-56095112D01*
X44349229Y-56126442D01*
X44314714Y-56171535D01*
X44239480Y-56236392D01*
X44122308Y-56327010D01*
X44028375Y-56398528D01*
X43475822Y-56789627D01*
X42916060Y-57124885D01*
X42348631Y-57404499D01*
X41773079Y-57628665D01*
X41188947Y-57797582D01*
X40595777Y-57911446D01*
X40490388Y-57925806D01*
X40294183Y-57944571D01*
X40057078Y-57957181D01*
X39794279Y-57963665D01*
X39520991Y-57964049D01*
X39252418Y-57958363D01*
X39003767Y-57946634D01*
X38790243Y-57928890D01*
X38736803Y-57922590D01*
X38260962Y-57842948D01*
X37770863Y-57725614D01*
X37408556Y-57616359D01*
X37235810Y-57556692D01*
X37056747Y-57490063D01*
X36880723Y-57420446D01*
X36717099Y-57351811D01*
X36575232Y-57288132D01*
X36464482Y-57233379D01*
X36394207Y-57191525D01*
X36380118Y-57179885D01*
X36361422Y-57142346D01*
X36333349Y-57063138D01*
X36298921Y-56953362D01*
X36261162Y-56824122D01*
X36223095Y-56686520D01*
X36187742Y-56551660D01*
X36158128Y-56430645D01*
X36137275Y-56334577D01*
X36128206Y-56274560D01*
X36129756Y-56260392D01*
X36159867Y-56263201D01*
X36230320Y-56280447D01*
X36327894Y-56308760D01*
X36365544Y-56320513D01*
X36738611Y-56429289D01*
X37151169Y-56532250D01*
X37586306Y-56625716D01*
X38027109Y-56706003D01*
X38382223Y-56759597D01*
X38590120Y-56782346D01*
X38834772Y-56800226D01*
X39103652Y-56813066D01*
X39384232Y-56820695D01*
X39663988Y-56822942D01*
X39930392Y-56819635D01*
X40170919Y-56810604D01*
X40373041Y-56795678D01*
X40442445Y-56787743D01*
X41023734Y-56689906D01*
X41568793Y-56553208D01*
X42075887Y-56378238D01*
X42543282Y-56165587D01*
X42931722Y-55940426D01*
X43194785Y-55770012D01*
X43505695Y-55864403D01*
G36*
X49985465Y-55889118D02*
X50286852Y-56076521D01*
X50630602Y-56252289D01*
X51002894Y-56410179D01*
X51389906Y-56543949D01*
X51519667Y-56582064D01*
X52072020Y-56709604D01*
X52654252Y-56791494D01*
X53263256Y-56827883D01*
X53895924Y-56818924D01*
X54549150Y-56764767D01*
X55219825Y-56665564D01*
X55904843Y-56521467D01*
X56592612Y-56335178D01*
X56730744Y-56296699D01*
X56822316Y-56278096D01*
X56864817Y-56279828D01*
X56867645Y-56284957D01*
X56861022Y-56322417D01*
X56842847Y-56404290D01*
X56815518Y-56520293D01*
X56781432Y-56660146D01*
X56761358Y-56740777D01*
X56655203Y-57164111D01*
X56359324Y-57310612D01*
X56165212Y-57398984D01*
X55932742Y-57492438D01*
X55678892Y-57584921D01*
X55420638Y-57670381D01*
X55174959Y-57742767D01*
X55070051Y-57770205D01*
X54830121Y-57826916D01*
X54612163Y-57870924D01*
X54402344Y-57903844D01*
X54186829Y-57927291D01*
X53951785Y-57942882D01*
X53683377Y-57952231D01*
X53481112Y-57955769D01*
X53274954Y-57957159D01*
X53074794Y-57956315D01*
X52891709Y-57953448D01*
X52736776Y-57948772D01*
X52621073Y-57942499D01*
X52578000Y-57938425D01*
X51987907Y-57837884D01*
X51401247Y-57682579D01*
X50821876Y-57474189D01*
X50253652Y-57214392D01*
X49700431Y-56904868D01*
X49166070Y-56547294D01*
X48877974Y-56327862D01*
X48588554Y-56097291D01*
X49011288Y-55992828D01*
X49176356Y-55950960D01*
X49338933Y-55907826D01*
X49483278Y-55867727D01*
X49593652Y-55834965D01*
X49619976Y-55826484D01*
X49805931Y-55764603D01*
X49985465Y-55889118D01*
X49985465Y-55889118D01*
G37*
X49985465Y-55889118D02*
X50286852Y-56076521D01*
X50630602Y-56252289D01*
X51002894Y-56410179D01*
X51389906Y-56543949D01*
X51519667Y-56582064D01*
X52072020Y-56709604D01*
X52654252Y-56791494D01*
X53263256Y-56827883D01*
X53895924Y-56818924D01*
X54549150Y-56764767D01*
X55219825Y-56665564D01*
X55904843Y-56521467D01*
X56592612Y-56335178D01*
X56730744Y-56296699D01*
X56822316Y-56278096D01*
X56864817Y-56279828D01*
X56867645Y-56284957D01*
X56861022Y-56322417D01*
X56842847Y-56404290D01*
X56815518Y-56520293D01*
X56781432Y-56660146D01*
X56761358Y-56740777D01*
X56655203Y-57164111D01*
X56359324Y-57310612D01*
X56165212Y-57398984D01*
X55932742Y-57492438D01*
X55678892Y-57584921D01*
X55420638Y-57670381D01*
X55174959Y-57742767D01*
X55070051Y-57770205D01*
X54830121Y-57826916D01*
X54612163Y-57870924D01*
X54402344Y-57903844D01*
X54186829Y-57927291D01*
X53951785Y-57942882D01*
X53683377Y-57952231D01*
X53481112Y-57955769D01*
X53274954Y-57957159D01*
X53074794Y-57956315D01*
X52891709Y-57953448D01*
X52736776Y-57948772D01*
X52621073Y-57942499D01*
X52578000Y-57938425D01*
X51987907Y-57837884D01*
X51401247Y-57682579D01*
X50821876Y-57474189D01*
X50253652Y-57214392D01*
X49700431Y-56904868D01*
X49166070Y-56547294D01*
X48877974Y-56327862D01*
X48588554Y-56097291D01*
X49011288Y-55992828D01*
X49176356Y-55950960D01*
X49338933Y-55907826D01*
X49483278Y-55867727D01*
X49593652Y-55834965D01*
X49619976Y-55826484D01*
X49805931Y-55764603D01*
X49985465Y-55889118D01*
G36*
X46636552Y-35905500D02*
X46917958Y-35911801D01*
X47189295Y-35922066D01*
X47438172Y-35936042D01*
X47652196Y-35953475D01*
X47780223Y-35968365D01*
X48535579Y-36100316D01*
X49268859Y-36283766D01*
X49979035Y-36518264D01*
X50665075Y-36803356D01*
X51325952Y-37138589D01*
X51960634Y-37523510D01*
X52568092Y-37957667D01*
X52888445Y-38215787D01*
X53084359Y-38387831D01*
X53302096Y-38591899D01*
X53530188Y-38816281D01*
X53757167Y-39049269D01*
X53971565Y-39279153D01*
X54161914Y-39494225D01*
X54281472Y-39638111D01*
X54393335Y-39783624D01*
X54527469Y-39967739D01*
X54677194Y-40180603D01*
X54835829Y-40412361D01*
X54996696Y-40653162D01*
X55153113Y-40893152D01*
X55298403Y-41122476D01*
X55399745Y-41287672D01*
X55638180Y-41711799D01*
X55868638Y-42177240D01*
X56084283Y-42668877D01*
X56278281Y-43171590D01*
X56365408Y-43423525D01*
X56409221Y-43552301D01*
X56447221Y-43657969D01*
X56475818Y-43730986D01*
X56491424Y-43761808D01*
X56492704Y-43762037D01*
X56494682Y-43728278D01*
X56486194Y-43648933D01*
X56468976Y-43533524D01*
X56444765Y-43391574D01*
X56415297Y-43232606D01*
X56382309Y-43066144D01*
X56347539Y-42901708D01*
X56312722Y-42748824D01*
X56293902Y-42672000D01*
X56259674Y-42533837D01*
X56231992Y-42416655D01*
X56213141Y-42330571D01*
X56205410Y-42285701D01*
X56205679Y-42281673D01*
X56239808Y-42276998D01*
X56318548Y-42280765D01*
X56430943Y-42291519D01*
X56566032Y-42307805D01*
X56712859Y-42328168D01*
X56860464Y-42351153D01*
X56997890Y-42375306D01*
X57114179Y-42399170D01*
X57144299Y-42406301D01*
X57531745Y-42525414D01*
X57875834Y-42680646D01*
X58176696Y-42872138D01*
X58434465Y-43100028D01*
X58649272Y-43364455D01*
X58821248Y-43665559D01*
X58950527Y-44003479D01*
X59037240Y-44378353D01*
X59041984Y-44407666D01*
X59063588Y-44608832D01*
X59072976Y-44844890D01*
X59070558Y-45095719D01*
X59056743Y-45341197D01*
X59031940Y-45561202D01*
X59016729Y-45649444D01*
X58900088Y-46095280D01*
X58728268Y-46535487D01*
X58502399Y-46968367D01*
X58223611Y-47392225D01*
X57893032Y-47805364D01*
X57511792Y-48206088D01*
X57081021Y-48592700D01*
X57028820Y-48635801D01*
X56885159Y-48751032D01*
X56742497Y-48861174D01*
X56607538Y-48961504D01*
X56486985Y-49047303D01*
X56387541Y-49113850D01*
X56315910Y-49156426D01*
X56278796Y-49170309D01*
X56275112Y-49166553D01*
X56281185Y-49127041D01*
X56297365Y-49047411D01*
X56320593Y-48942432D01*
X56329758Y-48902711D01*
X56358720Y-48770872D01*
X56388822Y-48620852D01*
X56418253Y-48463345D01*
X56445203Y-48309044D01*
X56467865Y-48168646D01*
X56484428Y-48052842D01*
X56493082Y-47972329D01*
X56492764Y-47939289D01*
X56480691Y-47951586D01*
X56455673Y-48008607D01*
X56421370Y-48101127D01*
X56381669Y-48219221D01*
X56197672Y-48739343D01*
X55980727Y-49265347D01*
X55739472Y-49777928D01*
X55482546Y-50257779D01*
X55425806Y-50355296D01*
X55296478Y-50568806D01*
X55149547Y-50802370D01*
X54991767Y-51045935D01*
X54829891Y-51289449D01*
X54670675Y-51522858D01*
X54520873Y-51736108D01*
X54387239Y-51919145D01*
X54292755Y-52041777D01*
X53806191Y-52606693D01*
X53281415Y-53132302D01*
X52721420Y-53616557D01*
X52129201Y-54057412D01*
X51507751Y-54452819D01*
X50860064Y-54800730D01*
X50189134Y-55099098D01*
X49497953Y-55345876D01*
X49431223Y-55366600D01*
X48906334Y-55510741D01*
X48358331Y-55630149D01*
X47810890Y-55720141D01*
X47413334Y-55765659D01*
X47300450Y-55773089D01*
X47145556Y-55779299D01*
X46959507Y-55784222D01*
X46753158Y-55787789D01*
X46537364Y-55789932D01*
X46322980Y-55790584D01*
X46120860Y-55789676D01*
X45941861Y-55787140D01*
X45796836Y-55782908D01*
X45696640Y-55776913D01*
X45691778Y-55776444D01*
X44932802Y-55677671D01*
X44207785Y-55535421D01*
X43512916Y-55348166D01*
X42844386Y-55114375D01*
X42198384Y-54832519D01*
X41571099Y-54501068D01*
X40958722Y-54118492D01*
X40357442Y-53683262D01*
X40230778Y-53583878D01*
X40083901Y-53460380D01*
X39909632Y-53302984D01*
X39717085Y-53120843D01*
X39515377Y-52923111D01*
X39313619Y-52718941D01*
X39120928Y-52517484D01*
X38946416Y-52327895D01*
X38799199Y-52159326D01*
X38737334Y-52084111D01*
X38641588Y-51959227D01*
X38522467Y-51795680D01*
X38386284Y-51602814D01*
X38239351Y-51389971D01*
X38087982Y-51166496D01*
X37938487Y-50941733D01*
X37797181Y-50725024D01*
X37670375Y-50525714D01*
X37564381Y-50353146D01*
X37538812Y-50310074D01*
X37244591Y-49766569D01*
X36973184Y-49176814D01*
X36727548Y-48547396D01*
X36658907Y-48350591D01*
X36609132Y-48206321D01*
X36565336Y-48083803D01*
X36530736Y-47991691D01*
X36508551Y-47938636D01*
X36502212Y-47929270D01*
X36501442Y-47961354D01*
X36510208Y-48038598D01*
X36526755Y-48150858D01*
X36549325Y-48287990D01*
X36576162Y-48439850D01*
X36605511Y-48596295D01*
X36635614Y-48747181D01*
X36664715Y-48882365D01*
X36674803Y-48926059D01*
X36703426Y-49048337D01*
X36726465Y-49148928D01*
X36741248Y-49216022D01*
X36745334Y-49237719D01*
X36723770Y-49228290D01*
X36665404Y-49192562D01*
X36579722Y-49136537D01*
X36498389Y-49081483D01*
X36082630Y-48775572D01*
X35685490Y-48442625D01*
X35315402Y-48090862D01*
X34980801Y-47728506D01*
X34690122Y-47363775D01*
X34588759Y-47220124D01*
X34373918Y-46866488D01*
X34188200Y-46485646D01*
X34038182Y-46093307D01*
X33981022Y-45887391D01*
X36834461Y-45887391D01*
X36843410Y-46095635D01*
X36867867Y-46309207D01*
X36909426Y-46534911D01*
X36969677Y-46779553D01*
X37050215Y-47049939D01*
X37152633Y-47352876D01*
X37278522Y-47695168D01*
X37362850Y-47914234D01*
X37460882Y-48167002D01*
X37541336Y-48379250D01*
X37607831Y-48562769D01*
X37663986Y-48729352D01*
X37713420Y-48890792D01*
X37759751Y-49058881D01*
X37806598Y-49245412D01*
X37857579Y-49462177D01*
X37913712Y-49709404D01*
X38005230Y-50098404D01*
X38093187Y-50435107D01*
X38178836Y-50723453D01*
X38263428Y-50967384D01*
X38348215Y-51170842D01*
X38426632Y-51324198D01*
X38540364Y-51510984D01*
X38658971Y-51676724D01*
X38788541Y-51826070D01*
X38935164Y-51963675D01*
X39104927Y-52094190D01*
X39303921Y-52222267D01*
X39538235Y-52352559D01*
X39813956Y-52489717D01*
X40137175Y-52638394D01*
X40160223Y-52648678D01*
X40380504Y-52747524D01*
X40559747Y-52830112D01*
X40708871Y-52902232D01*
X40838798Y-52969674D01*
X40960450Y-53038226D01*
X41084749Y-53113679D01*
X41222615Y-53201820D01*
X41303313Y-53254603D01*
X41462825Y-53356521D01*
X41617163Y-53448080D01*
X41773190Y-53532127D01*
X41937769Y-53611511D01*
X42117763Y-53689076D01*
X42320034Y-53767672D01*
X42551445Y-53850143D01*
X42818858Y-53939338D01*
X43129137Y-54038103D01*
X43377556Y-54115085D01*
X43740162Y-54225057D01*
X44058898Y-54317742D01*
X44343085Y-54394741D01*
X44602044Y-54457656D01*
X44845094Y-54508088D01*
X45081556Y-54547639D01*
X45320751Y-54577910D01*
X45572000Y-54600502D01*
X45844622Y-54617018D01*
X46147939Y-54629057D01*
X46411445Y-54636362D01*
X46727275Y-54643918D01*
X46992963Y-54650036D01*
X47214794Y-54654718D01*
X47399050Y-54657966D01*
X47552017Y-54659780D01*
X47679979Y-54660162D01*
X47789219Y-54659112D01*
X47886022Y-54656633D01*
X47976672Y-54652725D01*
X48067453Y-54647389D01*
X48164649Y-54640627D01*
X48217667Y-54636708D01*
X48551828Y-54602683D01*
X48870661Y-54550216D01*
X49180192Y-54476687D01*
X49486449Y-54379477D01*
X49795456Y-54255964D01*
X50113242Y-54103530D01*
X50445832Y-53919554D01*
X50799252Y-53701416D01*
X51179530Y-53446497D01*
X51533778Y-53195027D01*
X51696415Y-53079355D01*
X51889415Y-52945672D01*
X52095278Y-52805886D01*
X52296505Y-52671908D01*
X52436889Y-52580446D01*
X52736617Y-52384877D01*
X52992474Y-52211509D01*
X53210213Y-52055642D01*
X53395585Y-51912577D01*
X53554343Y-51777615D01*
X53692238Y-51646056D01*
X53815023Y-51513202D01*
X53928450Y-51374353D01*
X53953583Y-51341388D01*
X54071234Y-51176296D01*
X54175765Y-51008406D01*
X54270122Y-50830375D01*
X54357253Y-50634856D01*
X54440103Y-50414504D01*
X54521619Y-50161974D01*
X54604747Y-49869920D01*
X54692432Y-49530997D01*
X54712889Y-49448352D01*
X54781503Y-49172085D01*
X54841460Y-48941184D01*
X54896770Y-48746012D01*
X54951443Y-48576930D01*
X55009487Y-48424300D01*
X55074913Y-48278483D01*
X55151730Y-48129843D01*
X55243948Y-47968739D01*
X55355576Y-47785535D01*
X55490623Y-47570591D01*
X55500608Y-47554817D01*
X55684319Y-47255762D01*
X55833533Y-46991980D01*
X55951272Y-46756578D01*
X56040557Y-46542660D01*
X56104411Y-46343331D01*
X56145856Y-46151695D01*
X56159789Y-46050707D01*
X56167173Y-45938173D01*
X56170256Y-45779652D01*
X56169407Y-45585410D01*
X56164998Y-45365711D01*
X56157398Y-45130820D01*
X56146978Y-44891000D01*
X56134108Y-44656518D01*
X56119158Y-44437637D01*
X56102498Y-44244622D01*
X56090749Y-44136421D01*
X56066323Y-43955128D01*
X56035305Y-43754926D01*
X56002004Y-43562387D01*
X55975854Y-43428084D01*
X55913524Y-43155902D01*
X55844113Y-42908618D01*
X55763452Y-42678428D01*
X55667372Y-42457529D01*
X55551705Y-42238117D01*
X55412281Y-42012390D01*
X55244930Y-41772542D01*
X55045485Y-41510771D01*
X54809775Y-41219272D01*
X54770379Y-41171714D01*
X54633527Y-41006429D01*
X54494408Y-40837483D01*
X54361874Y-40675694D01*
X54244780Y-40531880D01*
X54151980Y-40416861D01*
X54127347Y-40386000D01*
X53990821Y-40220960D01*
X53856851Y-40075107D01*
X53717813Y-39942666D01*
X53566081Y-39817863D01*
X53394031Y-39694923D01*
X53194037Y-39568072D01*
X52958475Y-39431536D01*
X52679719Y-39279540D01*
X52634445Y-39255441D01*
X52371028Y-39114293D01*
X52150062Y-38991798D01*
X51963374Y-38881648D01*
X51802789Y-38777537D01*
X51660132Y-38673156D01*
X51527229Y-38562198D01*
X51395907Y-38438356D01*
X51257990Y-38295323D01*
X51105305Y-38126791D01*
X50965617Y-37967746D01*
X50830908Y-37814984D01*
X50695828Y-37665057D01*
X50568995Y-37527293D01*
X50459025Y-37411019D01*
X50374535Y-37325561D01*
X50355590Y-37307463D01*
X50179224Y-37156555D01*
X49987641Y-37016715D01*
X49796570Y-36898394D01*
X49621743Y-36812042D01*
X49592294Y-36800352D01*
X49315052Y-36716333D01*
X48996583Y-36656887D01*
X48646978Y-36623081D01*
X48276327Y-36615979D01*
X47977778Y-36629764D01*
X47660770Y-36653339D01*
X47391823Y-36672706D01*
X47162725Y-36688029D01*
X46965263Y-36699471D01*
X46791224Y-36707198D01*
X46632394Y-36711372D01*
X46480561Y-36712157D01*
X46327513Y-36709718D01*
X46165035Y-36704219D01*
X45984914Y-36695823D01*
X45778939Y-36684694D01*
X45635149Y-36676522D01*
X45269845Y-36657745D01*
X44953497Y-36646688D01*
X44679084Y-36643857D01*
X44439580Y-36649756D01*
X44227962Y-36664891D01*
X44037206Y-36689767D01*
X43860289Y-36724888D01*
X43690186Y-36770759D01*
X43519873Y-36827885D01*
X43517471Y-36828761D01*
X43353807Y-36894040D01*
X43197003Y-36969410D01*
X43040902Y-37059365D01*
X42879346Y-37168400D01*
X42706178Y-37301009D01*
X42515240Y-37461685D01*
X42300374Y-37654924D01*
X42055422Y-37885219D01*
X42008778Y-37929882D01*
X41677755Y-38235372D01*
X41342394Y-38518765D01*
X40978667Y-38800403D01*
X40687004Y-39019645D01*
X40434806Y-39214425D01*
X40214761Y-39391867D01*
X40019555Y-39559094D01*
X39841875Y-39723232D01*
X39674409Y-39891404D01*
X39509844Y-40070736D01*
X39340865Y-40268351D01*
X39160162Y-40491374D01*
X38960419Y-40746929D01*
X38899844Y-40825595D01*
X38670522Y-41125960D01*
X38473355Y-41389028D01*
X38304605Y-41621064D01*
X38160533Y-41828333D01*
X38037399Y-42017098D01*
X37931464Y-42193625D01*
X37838990Y-42364177D01*
X37756237Y-42535020D01*
X37679467Y-42712417D01*
X37604940Y-42902634D01*
X37528918Y-43111934D01*
X37519855Y-43137666D01*
X37389504Y-43510576D01*
X37277396Y-43836021D01*
X37182075Y-44119433D01*
X37102088Y-44366244D01*
X37035978Y-44581883D01*
X36982292Y-44771784D01*
X36939574Y-44941376D01*
X36906369Y-45096092D01*
X36881222Y-45241363D01*
X36862678Y-45382620D01*
X36849282Y-45525294D01*
X36839579Y-45674817D01*
X36839426Y-45677666D01*
X36834461Y-45887391D01*
X33981022Y-45887391D01*
X33930441Y-45705180D01*
X33907548Y-45593000D01*
X33884545Y-45417860D01*
X33871719Y-45206135D01*
X33868651Y-44973100D01*
X33874926Y-44734027D01*
X33890125Y-44504191D01*
X33913830Y-44298866D01*
X33945625Y-44133324D01*
X33947662Y-44125444D01*
X34017529Y-43910305D01*
X34113401Y-43686509D01*
X34226523Y-43471049D01*
X34348140Y-43280921D01*
X34446019Y-43158088D01*
X34701684Y-42917974D01*
X34999170Y-42715764D01*
X35338475Y-42551460D01*
X35719595Y-42425064D01*
X36142527Y-42336576D01*
X36545022Y-42290388D01*
X36668012Y-42281682D01*
X36744415Y-42279148D01*
X36783879Y-42284068D01*
X36796049Y-42297724D01*
X36790572Y-42321398D01*
X36789980Y-42322941D01*
X36767275Y-42394660D01*
X36736812Y-42509022D01*
X36701514Y-42653244D01*
X36664306Y-42814546D01*
X36628113Y-42980144D01*
X36595859Y-43137259D01*
X36570471Y-43273107D01*
X36564666Y-43307582D01*
X36543189Y-43439476D01*
X36523325Y-43561240D01*
X36507996Y-43654982D01*
X36502574Y-43688000D01*
X36494600Y-43750911D01*
X36499248Y-43768192D01*
X36517275Y-43738187D01*
X36549439Y-43659239D01*
X36596497Y-43529691D01*
X36659205Y-43347885D01*
X36662712Y-43337551D01*
X36787699Y-42984031D01*
X36916522Y-42652300D01*
X37053622Y-42333668D01*
X37203436Y-42019444D01*
X37370404Y-41700939D01*
X37558966Y-41369463D01*
X37773560Y-41016325D01*
X38018627Y-40632835D01*
X38134539Y-40456348D01*
X38352892Y-40133836D01*
X38557404Y-39849337D01*
X38758429Y-39589868D01*
X38966324Y-39342448D01*
X39191441Y-39094092D01*
X39369514Y-38907911D01*
X39915343Y-38387196D01*
X40492322Y-37912694D01*
X41098287Y-37485432D01*
X41731073Y-37106436D01*
X42388515Y-36776732D01*
X43068449Y-36497349D01*
X43768709Y-36269312D01*
X44487133Y-36093648D01*
X45221554Y-35971385D01*
X45658077Y-35924999D01*
X45855840Y-35912913D01*
X46093101Y-35905803D01*
X46357469Y-35903416D01*
X46636552Y-35905500D01*
X46636552Y-35905500D01*
G37*
X46636552Y-35905500D02*
X46917958Y-35911801D01*
X47189295Y-35922066D01*
X47438172Y-35936042D01*
X47652196Y-35953475D01*
X47780223Y-35968365D01*
X48535579Y-36100316D01*
X49268859Y-36283766D01*
X49979035Y-36518264D01*
X50665075Y-36803356D01*
X51325952Y-37138589D01*
X51960634Y-37523510D01*
X52568092Y-37957667D01*
X52888445Y-38215787D01*
X53084359Y-38387831D01*
X53302096Y-38591899D01*
X53530188Y-38816281D01*
X53757167Y-39049269D01*
X53971565Y-39279153D01*
X54161914Y-39494225D01*
X54281472Y-39638111D01*
X54393335Y-39783624D01*
X54527469Y-39967739D01*
X54677194Y-40180603D01*
X54835829Y-40412361D01*
X54996696Y-40653162D01*
X55153113Y-40893152D01*
X55298403Y-41122476D01*
X55399745Y-41287672D01*
X55638180Y-41711799D01*
X55868638Y-42177240D01*
X56084283Y-42668877D01*
X56278281Y-43171590D01*
X56365408Y-43423525D01*
X56409221Y-43552301D01*
X56447221Y-43657969D01*
X56475818Y-43730986D01*
X56491424Y-43761808D01*
X56492704Y-43762037D01*
X56494682Y-43728278D01*
X56486194Y-43648933D01*
X56468976Y-43533524D01*
X56444765Y-43391574D01*
X56415297Y-43232606D01*
X56382309Y-43066144D01*
X56347539Y-42901708D01*
X56312722Y-42748824D01*
X56293902Y-42672000D01*
X56259674Y-42533837D01*
X56231992Y-42416655D01*
X56213141Y-42330571D01*
X56205410Y-42285701D01*
X56205679Y-42281673D01*
X56239808Y-42276998D01*
X56318548Y-42280765D01*
X56430943Y-42291519D01*
X56566032Y-42307805D01*
X56712859Y-42328168D01*
X56860464Y-42351153D01*
X56997890Y-42375306D01*
X57114179Y-42399170D01*
X57144299Y-42406301D01*
X57531745Y-42525414D01*
X57875834Y-42680646D01*
X58176696Y-42872138D01*
X58434465Y-43100028D01*
X58649272Y-43364455D01*
X58821248Y-43665559D01*
X58950527Y-44003479D01*
X59037240Y-44378353D01*
X59041984Y-44407666D01*
X59063588Y-44608832D01*
X59072976Y-44844890D01*
X59070558Y-45095719D01*
X59056743Y-45341197D01*
X59031940Y-45561202D01*
X59016729Y-45649444D01*
X58900088Y-46095280D01*
X58728268Y-46535487D01*
X58502399Y-46968367D01*
X58223611Y-47392225D01*
X57893032Y-47805364D01*
X57511792Y-48206088D01*
X57081021Y-48592700D01*
X57028820Y-48635801D01*
X56885159Y-48751032D01*
X56742497Y-48861174D01*
X56607538Y-48961504D01*
X56486985Y-49047303D01*
X56387541Y-49113850D01*
X56315910Y-49156426D01*
X56278796Y-49170309D01*
X56275112Y-49166553D01*
X56281185Y-49127041D01*
X56297365Y-49047411D01*
X56320593Y-48942432D01*
X56329758Y-48902711D01*
X56358720Y-48770872D01*
X56388822Y-48620852D01*
X56418253Y-48463345D01*
X56445203Y-48309044D01*
X56467865Y-48168646D01*
X56484428Y-48052842D01*
X56493082Y-47972329D01*
X56492764Y-47939289D01*
X56480691Y-47951586D01*
X56455673Y-48008607D01*
X56421370Y-48101127D01*
X56381669Y-48219221D01*
X56197672Y-48739343D01*
X55980727Y-49265347D01*
X55739472Y-49777928D01*
X55482546Y-50257779D01*
X55425806Y-50355296D01*
X55296478Y-50568806D01*
X55149547Y-50802370D01*
X54991767Y-51045935D01*
X54829891Y-51289449D01*
X54670675Y-51522858D01*
X54520873Y-51736108D01*
X54387239Y-51919145D01*
X54292755Y-52041777D01*
X53806191Y-52606693D01*
X53281415Y-53132302D01*
X52721420Y-53616557D01*
X52129201Y-54057412D01*
X51507751Y-54452819D01*
X50860064Y-54800730D01*
X50189134Y-55099098D01*
X49497953Y-55345876D01*
X49431223Y-55366600D01*
X48906334Y-55510741D01*
X48358331Y-55630149D01*
X47810890Y-55720141D01*
X47413334Y-55765659D01*
X47300450Y-55773089D01*
X47145556Y-55779299D01*
X46959507Y-55784222D01*
X46753158Y-55787789D01*
X46537364Y-55789932D01*
X46322980Y-55790584D01*
X46120860Y-55789676D01*
X45941861Y-55787140D01*
X45796836Y-55782908D01*
X45696640Y-55776913D01*
X45691778Y-55776444D01*
X44932802Y-55677671D01*
X44207785Y-55535421D01*
X43512916Y-55348166D01*
X42844386Y-55114375D01*
X42198384Y-54832519D01*
X41571099Y-54501068D01*
X40958722Y-54118492D01*
X40357442Y-53683262D01*
X40230778Y-53583878D01*
X40083901Y-53460380D01*
X39909632Y-53302984D01*
X39717085Y-53120843D01*
X39515377Y-52923111D01*
X39313619Y-52718941D01*
X39120928Y-52517484D01*
X38946416Y-52327895D01*
X38799199Y-52159326D01*
X38737334Y-52084111D01*
X38641588Y-51959227D01*
X38522467Y-51795680D01*
X38386284Y-51602814D01*
X38239351Y-51389971D01*
X38087982Y-51166496D01*
X37938487Y-50941733D01*
X37797181Y-50725024D01*
X37670375Y-50525714D01*
X37564381Y-50353146D01*
X37538812Y-50310074D01*
X37244591Y-49766569D01*
X36973184Y-49176814D01*
X36727548Y-48547396D01*
X36658907Y-48350591D01*
X36609132Y-48206321D01*
X36565336Y-48083803D01*
X36530736Y-47991691D01*
X36508551Y-47938636D01*
X36502212Y-47929270D01*
X36501442Y-47961354D01*
X36510208Y-48038598D01*
X36526755Y-48150858D01*
X36549325Y-48287990D01*
X36576162Y-48439850D01*
X36605511Y-48596295D01*
X36635614Y-48747181D01*
X36664715Y-48882365D01*
X36674803Y-48926059D01*
X36703426Y-49048337D01*
X36726465Y-49148928D01*
X36741248Y-49216022D01*
X36745334Y-49237719D01*
X36723770Y-49228290D01*
X36665404Y-49192562D01*
X36579722Y-49136537D01*
X36498389Y-49081483D01*
X36082630Y-48775572D01*
X35685490Y-48442625D01*
X35315402Y-48090862D01*
X34980801Y-47728506D01*
X34690122Y-47363775D01*
X34588759Y-47220124D01*
X34373918Y-46866488D01*
X34188200Y-46485646D01*
X34038182Y-46093307D01*
X33981022Y-45887391D01*
X36834461Y-45887391D01*
X36843410Y-46095635D01*
X36867867Y-46309207D01*
X36909426Y-46534911D01*
X36969677Y-46779553D01*
X37050215Y-47049939D01*
X37152633Y-47352876D01*
X37278522Y-47695168D01*
X37362850Y-47914234D01*
X37460882Y-48167002D01*
X37541336Y-48379250D01*
X37607831Y-48562769D01*
X37663986Y-48729352D01*
X37713420Y-48890792D01*
X37759751Y-49058881D01*
X37806598Y-49245412D01*
X37857579Y-49462177D01*
X37913712Y-49709404D01*
X38005230Y-50098404D01*
X38093187Y-50435107D01*
X38178836Y-50723453D01*
X38263428Y-50967384D01*
X38348215Y-51170842D01*
X38426632Y-51324198D01*
X38540364Y-51510984D01*
X38658971Y-51676724D01*
X38788541Y-51826070D01*
X38935164Y-51963675D01*
X39104927Y-52094190D01*
X39303921Y-52222267D01*
X39538235Y-52352559D01*
X39813956Y-52489717D01*
X40137175Y-52638394D01*
X40160223Y-52648678D01*
X40380504Y-52747524D01*
X40559747Y-52830112D01*
X40708871Y-52902232D01*
X40838798Y-52969674D01*
X40960450Y-53038226D01*
X41084749Y-53113679D01*
X41222615Y-53201820D01*
X41303313Y-53254603D01*
X41462825Y-53356521D01*
X41617163Y-53448080D01*
X41773190Y-53532127D01*
X41937769Y-53611511D01*
X42117763Y-53689076D01*
X42320034Y-53767672D01*
X42551445Y-53850143D01*
X42818858Y-53939338D01*
X43129137Y-54038103D01*
X43377556Y-54115085D01*
X43740162Y-54225057D01*
X44058898Y-54317742D01*
X44343085Y-54394741D01*
X44602044Y-54457656D01*
X44845094Y-54508088D01*
X45081556Y-54547639D01*
X45320751Y-54577910D01*
X45572000Y-54600502D01*
X45844622Y-54617018D01*
X46147939Y-54629057D01*
X46411445Y-54636362D01*
X46727275Y-54643918D01*
X46992963Y-54650036D01*
X47214794Y-54654718D01*
X47399050Y-54657966D01*
X47552017Y-54659780D01*
X47679979Y-54660162D01*
X47789219Y-54659112D01*
X47886022Y-54656633D01*
X47976672Y-54652725D01*
X48067453Y-54647389D01*
X48164649Y-54640627D01*
X48217667Y-54636708D01*
X48551828Y-54602683D01*
X48870661Y-54550216D01*
X49180192Y-54476687D01*
X49486449Y-54379477D01*
X49795456Y-54255964D01*
X50113242Y-54103530D01*
X50445832Y-53919554D01*
X50799252Y-53701416D01*
X51179530Y-53446497D01*
X51533778Y-53195027D01*
X51696415Y-53079355D01*
X51889415Y-52945672D01*
X52095278Y-52805886D01*
X52296505Y-52671908D01*
X52436889Y-52580446D01*
X52736617Y-52384877D01*
X52992474Y-52211509D01*
X53210213Y-52055642D01*
X53395585Y-51912577D01*
X53554343Y-51777615D01*
X53692238Y-51646056D01*
X53815023Y-51513202D01*
X53928450Y-51374353D01*
X53953583Y-51341388D01*
X54071234Y-51176296D01*
X54175765Y-51008406D01*
X54270122Y-50830375D01*
X54357253Y-50634856D01*
X54440103Y-50414504D01*
X54521619Y-50161974D01*
X54604747Y-49869920D01*
X54692432Y-49530997D01*
X54712889Y-49448352D01*
X54781503Y-49172085D01*
X54841460Y-48941184D01*
X54896770Y-48746012D01*
X54951443Y-48576930D01*
X55009487Y-48424300D01*
X55074913Y-48278483D01*
X55151730Y-48129843D01*
X55243948Y-47968739D01*
X55355576Y-47785535D01*
X55490623Y-47570591D01*
X55500608Y-47554817D01*
X55684319Y-47255762D01*
X55833533Y-46991980D01*
X55951272Y-46756578D01*
X56040557Y-46542660D01*
X56104411Y-46343331D01*
X56145856Y-46151695D01*
X56159789Y-46050707D01*
X56167173Y-45938173D01*
X56170256Y-45779652D01*
X56169407Y-45585410D01*
X56164998Y-45365711D01*
X56157398Y-45130820D01*
X56146978Y-44891000D01*
X56134108Y-44656518D01*
X56119158Y-44437637D01*
X56102498Y-44244622D01*
X56090749Y-44136421D01*
X56066323Y-43955128D01*
X56035305Y-43754926D01*
X56002004Y-43562387D01*
X55975854Y-43428084D01*
X55913524Y-43155902D01*
X55844113Y-42908618D01*
X55763452Y-42678428D01*
X55667372Y-42457529D01*
X55551705Y-42238117D01*
X55412281Y-42012390D01*
X55244930Y-41772542D01*
X55045485Y-41510771D01*
X54809775Y-41219272D01*
X54770379Y-41171714D01*
X54633527Y-41006429D01*
X54494408Y-40837483D01*
X54361874Y-40675694D01*
X54244780Y-40531880D01*
X54151980Y-40416861D01*
X54127347Y-40386000D01*
X53990821Y-40220960D01*
X53856851Y-40075107D01*
X53717813Y-39942666D01*
X53566081Y-39817863D01*
X53394031Y-39694923D01*
X53194037Y-39568072D01*
X52958475Y-39431536D01*
X52679719Y-39279540D01*
X52634445Y-39255441D01*
X52371028Y-39114293D01*
X52150062Y-38991798D01*
X51963374Y-38881648D01*
X51802789Y-38777537D01*
X51660132Y-38673156D01*
X51527229Y-38562198D01*
X51395907Y-38438356D01*
X51257990Y-38295323D01*
X51105305Y-38126791D01*
X50965617Y-37967746D01*
X50830908Y-37814984D01*
X50695828Y-37665057D01*
X50568995Y-37527293D01*
X50459025Y-37411019D01*
X50374535Y-37325561D01*
X50355590Y-37307463D01*
X50179224Y-37156555D01*
X49987641Y-37016715D01*
X49796570Y-36898394D01*
X49621743Y-36812042D01*
X49592294Y-36800352D01*
X49315052Y-36716333D01*
X48996583Y-36656887D01*
X48646978Y-36623081D01*
X48276327Y-36615979D01*
X47977778Y-36629764D01*
X47660770Y-36653339D01*
X47391823Y-36672706D01*
X47162725Y-36688029D01*
X46965263Y-36699471D01*
X46791224Y-36707198D01*
X46632394Y-36711372D01*
X46480561Y-36712157D01*
X46327513Y-36709718D01*
X46165035Y-36704219D01*
X45984914Y-36695823D01*
X45778939Y-36684694D01*
X45635149Y-36676522D01*
X45269845Y-36657745D01*
X44953497Y-36646688D01*
X44679084Y-36643857D01*
X44439580Y-36649756D01*
X44227962Y-36664891D01*
X44037206Y-36689767D01*
X43860289Y-36724888D01*
X43690186Y-36770759D01*
X43519873Y-36827885D01*
X43517471Y-36828761D01*
X43353807Y-36894040D01*
X43197003Y-36969410D01*
X43040902Y-37059365D01*
X42879346Y-37168400D01*
X42706178Y-37301009D01*
X42515240Y-37461685D01*
X42300374Y-37654924D01*
X42055422Y-37885219D01*
X42008778Y-37929882D01*
X41677755Y-38235372D01*
X41342394Y-38518765D01*
X40978667Y-38800403D01*
X40687004Y-39019645D01*
X40434806Y-39214425D01*
X40214761Y-39391867D01*
X40019555Y-39559094D01*
X39841875Y-39723232D01*
X39674409Y-39891404D01*
X39509844Y-40070736D01*
X39340865Y-40268351D01*
X39160162Y-40491374D01*
X38960419Y-40746929D01*
X38899844Y-40825595D01*
X38670522Y-41125960D01*
X38473355Y-41389028D01*
X38304605Y-41621064D01*
X38160533Y-41828333D01*
X38037399Y-42017098D01*
X37931464Y-42193625D01*
X37838990Y-42364177D01*
X37756237Y-42535020D01*
X37679467Y-42712417D01*
X37604940Y-42902634D01*
X37528918Y-43111934D01*
X37519855Y-43137666D01*
X37389504Y-43510576D01*
X37277396Y-43836021D01*
X37182075Y-44119433D01*
X37102088Y-44366244D01*
X37035978Y-44581883D01*
X36982292Y-44771784D01*
X36939574Y-44941376D01*
X36906369Y-45096092D01*
X36881222Y-45241363D01*
X36862678Y-45382620D01*
X36849282Y-45525294D01*
X36839579Y-45674817D01*
X36839426Y-45677666D01*
X36834461Y-45887391D01*
X33981022Y-45887391D01*
X33930441Y-45705180D01*
X33907548Y-45593000D01*
X33884545Y-45417860D01*
X33871719Y-45206135D01*
X33868651Y-44973100D01*
X33874926Y-44734027D01*
X33890125Y-44504191D01*
X33913830Y-44298866D01*
X33945625Y-44133324D01*
X33947662Y-44125444D01*
X34017529Y-43910305D01*
X34113401Y-43686509D01*
X34226523Y-43471049D01*
X34348140Y-43280921D01*
X34446019Y-43158088D01*
X34701684Y-42917974D01*
X34999170Y-42715764D01*
X35338475Y-42551460D01*
X35719595Y-42425064D01*
X36142527Y-42336576D01*
X36545022Y-42290388D01*
X36668012Y-42281682D01*
X36744415Y-42279148D01*
X36783879Y-42284068D01*
X36796049Y-42297724D01*
X36790572Y-42321398D01*
X36789980Y-42322941D01*
X36767275Y-42394660D01*
X36736812Y-42509022D01*
X36701514Y-42653244D01*
X36664306Y-42814546D01*
X36628113Y-42980144D01*
X36595859Y-43137259D01*
X36570471Y-43273107D01*
X36564666Y-43307582D01*
X36543189Y-43439476D01*
X36523325Y-43561240D01*
X36507996Y-43654982D01*
X36502574Y-43688000D01*
X36494600Y-43750911D01*
X36499248Y-43768192D01*
X36517275Y-43738187D01*
X36549439Y-43659239D01*
X36596497Y-43529691D01*
X36659205Y-43347885D01*
X36662712Y-43337551D01*
X36787699Y-42984031D01*
X36916522Y-42652300D01*
X37053622Y-42333668D01*
X37203436Y-42019444D01*
X37370404Y-41700939D01*
X37558966Y-41369463D01*
X37773560Y-41016325D01*
X38018627Y-40632835D01*
X38134539Y-40456348D01*
X38352892Y-40133836D01*
X38557404Y-39849337D01*
X38758429Y-39589868D01*
X38966324Y-39342448D01*
X39191441Y-39094092D01*
X39369514Y-38907911D01*
X39915343Y-38387196D01*
X40492322Y-37912694D01*
X41098287Y-37485432D01*
X41731073Y-37106436D01*
X42388515Y-36776732D01*
X43068449Y-36497349D01*
X43768709Y-36269312D01*
X44487133Y-36093648D01*
X45221554Y-35971385D01*
X45658077Y-35924999D01*
X45855840Y-35912913D01*
X46093101Y-35905803D01*
X46357469Y-35903416D01*
X46636552Y-35905500D01*
G36*
X51422508Y-51460686D02*
X51502269Y-51523313D01*
X51550875Y-51612982D01*
X51561865Y-51716505D01*
X51528780Y-51820695D01*
X51515568Y-51841510D01*
X51476913Y-51872709D01*
X51395005Y-51922867D01*
X51278129Y-51987933D01*
X51134574Y-52063854D01*
X50972624Y-52146577D01*
X50800568Y-52232049D01*
X50626690Y-52316218D01*
X50459279Y-52395030D01*
X50306620Y-52464434D01*
X50176999Y-52520377D01*
X50078705Y-52558805D01*
X50020022Y-52575666D01*
X50013580Y-52576090D01*
X49931057Y-52563144D01*
X49878942Y-52544991D01*
X49804167Y-52480002D01*
X49765130Y-52383671D01*
X49765730Y-52271265D01*
X49789717Y-52195723D01*
X49825765Y-52159915D01*
X49905463Y-52105699D01*
X50020673Y-52037108D01*
X50163253Y-51958178D01*
X50325064Y-51872942D01*
X50497965Y-51785435D01*
X50673817Y-51699690D01*
X50844480Y-51619742D01*
X51001812Y-51549624D01*
X51137676Y-51493372D01*
X51243929Y-51455019D01*
X51312432Y-51438600D01*
X51318051Y-51438289D01*
X51422508Y-51460686D01*
X51422508Y-51460686D01*
G37*
X51422508Y-51460686D02*
X51502269Y-51523313D01*
X51550875Y-51612982D01*
X51561865Y-51716505D01*
X51528780Y-51820695D01*
X51515568Y-51841510D01*
X51476913Y-51872709D01*
X51395005Y-51922867D01*
X51278129Y-51987933D01*
X51134574Y-52063854D01*
X50972624Y-52146577D01*
X50800568Y-52232049D01*
X50626690Y-52316218D01*
X50459279Y-52395030D01*
X50306620Y-52464434D01*
X50176999Y-52520377D01*
X50078705Y-52558805D01*
X50020022Y-52575666D01*
X50013580Y-52576090D01*
X49931057Y-52563144D01*
X49878942Y-52544991D01*
X49804167Y-52480002D01*
X49765130Y-52383671D01*
X49765730Y-52271265D01*
X49789717Y-52195723D01*
X49825765Y-52159915D01*
X49905463Y-52105699D01*
X50020673Y-52037108D01*
X50163253Y-51958178D01*
X50325064Y-51872942D01*
X50497965Y-51785435D01*
X50673817Y-51699690D01*
X50844480Y-51619742D01*
X51001812Y-51549624D01*
X51137676Y-51493372D01*
X51243929Y-51455019D01*
X51312432Y-51438600D01*
X51318051Y-51438289D01*
X51422508Y-51460686D01*
G36*
X44978576Y-51551325D02*
X45052972Y-51592270D01*
X45100608Y-51640428D01*
X45122444Y-51700323D01*
X45127334Y-51785452D01*
X45118008Y-51888772D01*
X45086703Y-51954893D01*
X45071852Y-51970351D01*
X45025800Y-51995861D01*
X44934341Y-52033659D01*
X44806447Y-52080914D01*
X44651093Y-52134796D01*
X44477253Y-52192473D01*
X44293900Y-52251115D01*
X44110008Y-52307891D01*
X43934551Y-52359968D01*
X43776503Y-52404518D01*
X43644838Y-52438708D01*
X43548529Y-52459708D01*
X43503509Y-52465111D01*
X43414465Y-52457026D01*
X43355451Y-52425910D01*
X43323160Y-52390749D01*
X43280516Y-52307198D01*
X43264667Y-52222990D01*
X43268027Y-52167398D01*
X43281797Y-52119710D01*
X43311510Y-52076894D01*
X43362699Y-52035916D01*
X43440898Y-51993742D01*
X43551640Y-51947339D01*
X43700460Y-51893674D01*
X43892889Y-51829713D01*
X44107437Y-51760998D01*
X44302220Y-51700070D01*
X44482750Y-51645314D01*
X44641027Y-51599021D01*
X44769051Y-51563480D01*
X44858820Y-51540984D01*
X44900909Y-51533777D01*
X44978576Y-51551325D01*
X44978576Y-51551325D01*
G37*
X44978576Y-51551325D02*
X45052972Y-51592270D01*
X45100608Y-51640428D01*
X45122444Y-51700323D01*
X45127334Y-51785452D01*
X45118008Y-51888772D01*
X45086703Y-51954893D01*
X45071852Y-51970351D01*
X45025800Y-51995861D01*
X44934341Y-52033659D01*
X44806447Y-52080914D01*
X44651093Y-52134796D01*
X44477253Y-52192473D01*
X44293900Y-52251115D01*
X44110008Y-52307891D01*
X43934551Y-52359968D01*
X43776503Y-52404518D01*
X43644838Y-52438708D01*
X43548529Y-52459708D01*
X43503509Y-52465111D01*
X43414465Y-52457026D01*
X43355451Y-52425910D01*
X43323160Y-52390749D01*
X43280516Y-52307198D01*
X43264667Y-52222990D01*
X43268027Y-52167398D01*
X43281797Y-52119710D01*
X43311510Y-52076894D01*
X43362699Y-52035916D01*
X43440898Y-51993742D01*
X43551640Y-51947339D01*
X43700460Y-51893674D01*
X43892889Y-51829713D01*
X44107437Y-51760998D01*
X44302220Y-51700070D01*
X44482750Y-51645314D01*
X44641027Y-51599021D01*
X44769051Y-51563480D01*
X44858820Y-51540984D01*
X44900909Y-51533777D01*
X44978576Y-51551325D01*
G36*
X42007000Y-49941308D02*
X42102194Y-49949848D01*
X42236983Y-49965831D01*
X42403345Y-49988229D01*
X42593258Y-50016015D01*
X42798699Y-50048163D01*
X42813112Y-50050494D01*
X43042535Y-50087943D01*
X43222800Y-50118261D01*
X43360515Y-50143018D01*
X43462292Y-50163783D01*
X43534740Y-50182127D01*
X43584470Y-50199619D01*
X43618093Y-50217827D01*
X43642219Y-50238322D01*
X43652723Y-50249844D01*
X43705665Y-50350882D01*
X43710753Y-50464011D01*
X43667713Y-50570959D01*
X43657730Y-50584527D01*
X43618959Y-50626070D01*
X43574249Y-50647952D01*
X43505405Y-50655729D01*
X43424896Y-50655606D01*
X43337308Y-50649700D01*
X43208016Y-50635503D01*
X43050857Y-50614792D01*
X42879668Y-50589342D01*
X42770778Y-50571664D01*
X42595668Y-50542256D01*
X42423977Y-50513479D01*
X42270205Y-50487759D01*
X42148852Y-50467523D01*
X42097433Y-50458990D01*
X41959254Y-50428222D01*
X41868934Y-50385626D01*
X41818071Y-50323944D01*
X41798264Y-50235917D01*
X41797112Y-50199501D01*
X41816047Y-50072458D01*
X41871491Y-49985147D01*
X41959424Y-49941236D01*
X42007000Y-49941308D01*
X42007000Y-49941308D01*
G37*
X42007000Y-49941308D02*
X42102194Y-49949848D01*
X42236983Y-49965831D01*
X42403345Y-49988229D01*
X42593258Y-50016015D01*
X42798699Y-50048163D01*
X42813112Y-50050494D01*
X43042535Y-50087943D01*
X43222800Y-50118261D01*
X43360515Y-50143018D01*
X43462292Y-50163783D01*
X43534740Y-50182127D01*
X43584470Y-50199619D01*
X43618093Y-50217827D01*
X43642219Y-50238322D01*
X43652723Y-50249844D01*
X43705665Y-50350882D01*
X43710753Y-50464011D01*
X43667713Y-50570959D01*
X43657730Y-50584527D01*
X43618959Y-50626070D01*
X43574249Y-50647952D01*
X43505405Y-50655729D01*
X43424896Y-50655606D01*
X43337308Y-50649700D01*
X43208016Y-50635503D01*
X43050857Y-50614792D01*
X42879668Y-50589342D01*
X42770778Y-50571664D01*
X42595668Y-50542256D01*
X42423977Y-50513479D01*
X42270205Y-50487759D01*
X42148852Y-50467523D01*
X42097433Y-50458990D01*
X41959254Y-50428222D01*
X41868934Y-50385626D01*
X41818071Y-50323944D01*
X41798264Y-50235917D01*
X41797112Y-50199501D01*
X41816047Y-50072458D01*
X41871491Y-49985147D01*
X41959424Y-49941236D01*
X42007000Y-49941308D01*
G36*
X51037644Y-48156412D02*
X51151347Y-48193578D01*
X51222939Y-48268086D01*
X51251142Y-48378505D01*
X51251556Y-48396209D01*
X51244497Y-48466432D01*
X51224855Y-48577907D01*
X51194937Y-48721615D01*
X51157047Y-48888537D01*
X51113491Y-49069655D01*
X51066573Y-49255951D01*
X51018600Y-49438405D01*
X50971875Y-49608001D01*
X50928705Y-49755719D01*
X50891395Y-49872541D01*
X50862249Y-49949449D01*
X50848130Y-49974500D01*
X50767174Y-50025988D01*
X50664030Y-50043385D01*
X50560035Y-50027293D01*
X50476530Y-49978314D01*
X50463382Y-49963638D01*
X50422072Y-49891828D01*
X50404889Y-49823596D01*
X50404889Y-49823593D01*
X50411497Y-49779451D01*
X50430125Y-49688472D01*
X50458980Y-49558545D01*
X50496267Y-49397562D01*
X50540193Y-49213413D01*
X50588465Y-49016010D01*
X50644682Y-48790633D01*
X50690140Y-48613666D01*
X50726937Y-48478561D01*
X50757174Y-48378767D01*
X50782947Y-48307736D01*
X50806358Y-48258918D01*
X50829504Y-48225763D01*
X50847563Y-48207579D01*
X50912170Y-48163325D01*
X50982484Y-48151538D01*
X51037644Y-48156412D01*
X51037644Y-48156412D01*
G37*
X51037644Y-48156412D02*
X51151347Y-48193578D01*
X51222939Y-48268086D01*
X51251142Y-48378505D01*
X51251556Y-48396209D01*
X51244497Y-48466432D01*
X51224855Y-48577907D01*
X51194937Y-48721615D01*
X51157047Y-48888537D01*
X51113491Y-49069655D01*
X51066573Y-49255951D01*
X51018600Y-49438405D01*
X50971875Y-49608001D01*
X50928705Y-49755719D01*
X50891395Y-49872541D01*
X50862249Y-49949449D01*
X50848130Y-49974500D01*
X50767174Y-50025988D01*
X50664030Y-50043385D01*
X50560035Y-50027293D01*
X50476530Y-49978314D01*
X50463382Y-49963638D01*
X50422072Y-49891828D01*
X50404889Y-49823596D01*
X50404889Y-49823593D01*
X50411497Y-49779451D01*
X50430125Y-49688472D01*
X50458980Y-49558545D01*
X50496267Y-49397562D01*
X50540193Y-49213413D01*
X50588465Y-49016010D01*
X50644682Y-48790633D01*
X50690140Y-48613666D01*
X50726937Y-48478561D01*
X50757174Y-48378767D01*
X50782947Y-48307736D01*
X50806358Y-48258918D01*
X50829504Y-48225763D01*
X50847563Y-48207579D01*
X50912170Y-48163325D01*
X50982484Y-48151538D01*
X51037644Y-48156412D01*
G36*
X41105335Y-44650275D02*
X41153197Y-44662089D01*
X41195902Y-44688483D01*
X41236545Y-44734942D01*
X41278223Y-44806950D01*
X41324029Y-44909992D01*
X41377059Y-45049552D01*
X41440407Y-45231116D01*
X41517170Y-45460167D01*
X41530529Y-45500457D01*
X41607670Y-45735176D01*
X41667256Y-45922939D01*
X41710260Y-46070105D01*
X41737654Y-46183036D01*
X41750409Y-46268093D01*
X41749497Y-46331636D01*
X41735890Y-46380026D01*
X41710561Y-46419624D01*
X41676385Y-46455022D01*
X41589324Y-46501166D01*
X41483651Y-46508878D01*
X41381587Y-46478699D01*
X41335667Y-46446722D01*
X41305949Y-46400611D01*
X41263629Y-46309205D01*
X41211720Y-46181449D01*
X41153240Y-46026290D01*
X41091202Y-45852672D01*
X41028624Y-45669541D01*
X40968519Y-45485843D01*
X40913903Y-45310524D01*
X40867793Y-45152528D01*
X40833203Y-45020802D01*
X40813148Y-44924290D01*
X40809334Y-44885297D01*
X40831400Y-44769126D01*
X40895414Y-44689978D01*
X40998095Y-44651101D01*
X41049223Y-44647555D01*
X41105335Y-44650275D01*
X41105335Y-44650275D01*
G37*
X41105335Y-44650275D02*
X41153197Y-44662089D01*
X41195902Y-44688483D01*
X41236545Y-44734942D01*
X41278223Y-44806950D01*
X41324029Y-44909992D01*
X41377059Y-45049552D01*
X41440407Y-45231116D01*
X41517170Y-45460167D01*
X41530529Y-45500457D01*
X41607670Y-45735176D01*
X41667256Y-45922939D01*
X41710260Y-46070105D01*
X41737654Y-46183036D01*
X41750409Y-46268093D01*
X41749497Y-46331636D01*
X41735890Y-46380026D01*
X41710561Y-46419624D01*
X41676385Y-46455022D01*
X41589324Y-46501166D01*
X41483651Y-46508878D01*
X41381587Y-46478699D01*
X41335667Y-46446722D01*
X41305949Y-46400611D01*
X41263629Y-46309205D01*
X41211720Y-46181449D01*
X41153240Y-46026290D01*
X41091202Y-45852672D01*
X41028624Y-45669541D01*
X40968519Y-45485843D01*
X40913903Y-45310524D01*
X40867793Y-45152528D01*
X40833203Y-45020802D01*
X40813148Y-44924290D01*
X40809334Y-44885297D01*
X40831400Y-44769126D01*
X40895414Y-44689978D01*
X40998095Y-44651101D01*
X41049223Y-44647555D01*
X41105335Y-44650275D01*
G36*
X53317622Y-43944538D02*
X53345700Y-43952719D01*
X53382849Y-43971048D01*
X53433517Y-44002478D01*
X53502152Y-44049965D01*
X53593202Y-44116465D01*
X53711116Y-44204932D01*
X53860341Y-44318323D01*
X54045327Y-44459592D01*
X54270521Y-44631695D01*
X54291286Y-44647555D01*
X54408202Y-44739736D01*
X54510007Y-44825403D01*
X54587406Y-44896337D01*
X54631101Y-44944319D01*
X54635914Y-44952272D01*
X54667517Y-45072379D01*
X54650082Y-45179140D01*
X54589711Y-45262675D01*
X54492506Y-45313106D01*
X54406672Y-45323430D01*
X54361308Y-45320357D01*
X54316340Y-45309240D01*
X54264242Y-45285502D01*
X54197487Y-45244563D01*
X54108547Y-45181845D01*
X53989897Y-45092769D01*
X53848000Y-44983582D01*
X53635618Y-44819271D01*
X53463548Y-44685628D01*
X53327551Y-44578661D01*
X53223388Y-44494380D01*
X53146820Y-44428796D01*
X53093608Y-44377917D01*
X53059513Y-44337752D01*
X53040296Y-44304312D01*
X53031717Y-44273606D01*
X53029539Y-44241643D01*
X53029556Y-44213110D01*
X53047719Y-44089019D01*
X53104062Y-44005487D01*
X53201367Y-43959105D01*
X53243327Y-43951320D01*
X53270884Y-43946793D01*
X53294166Y-43943548D01*
X53317622Y-43944538D01*
X53317622Y-43944538D01*
G37*
X53317622Y-43944538D02*
X53345700Y-43952719D01*
X53382849Y-43971048D01*
X53433517Y-44002478D01*
X53502152Y-44049965D01*
X53593202Y-44116465D01*
X53711116Y-44204932D01*
X53860341Y-44318323D01*
X54045327Y-44459592D01*
X54270521Y-44631695D01*
X54291286Y-44647555D01*
X54408202Y-44739736D01*
X54510007Y-44825403D01*
X54587406Y-44896337D01*
X54631101Y-44944319D01*
X54635914Y-44952272D01*
X54667517Y-45072379D01*
X54650082Y-45179140D01*
X54589711Y-45262675D01*
X54492506Y-45313106D01*
X54406672Y-45323430D01*
X54361308Y-45320357D01*
X54316340Y-45309240D01*
X54264242Y-45285502D01*
X54197487Y-45244563D01*
X54108547Y-45181845D01*
X53989897Y-45092769D01*
X53848000Y-44983582D01*
X53635618Y-44819271D01*
X53463548Y-44685628D01*
X53327551Y-44578661D01*
X53223388Y-44494380D01*
X53146820Y-44428796D01*
X53093608Y-44377917D01*
X53059513Y-44337752D01*
X53040296Y-44304312D01*
X53031717Y-44273606D01*
X53029539Y-44241643D01*
X53029556Y-44213110D01*
X53047719Y-44089019D01*
X53104062Y-44005487D01*
X53201367Y-43959105D01*
X53243327Y-43951320D01*
X53270884Y-43946793D01*
X53294166Y-43943548D01*
X53317622Y-43944538D01*
G36*
X51519667Y-40366178D02*
X51702511Y-40375867D01*
X51870448Y-40390941D01*
X52008437Y-40409813D01*
X52084112Y-40425742D01*
X52336748Y-40515159D01*
X52574613Y-40639760D01*
X52787584Y-40792198D01*
X52965535Y-40965124D01*
X53098346Y-41151191D01*
X53108119Y-41169043D01*
X53220314Y-41428323D01*
X53301982Y-41719868D01*
X53350620Y-42026947D01*
X53363723Y-42332828D01*
X53338788Y-42620781D01*
X53331526Y-42661846D01*
X53245790Y-42991508D01*
X53121887Y-43279591D01*
X52959796Y-43526119D01*
X52759495Y-43731117D01*
X52520962Y-43894609D01*
X52244175Y-44016619D01*
X52107083Y-44058011D01*
X51929948Y-44092931D01*
X51716162Y-44116795D01*
X51484543Y-44128998D01*
X51253909Y-44128930D01*
X51043078Y-44115983D01*
X50905936Y-44096829D01*
X50589580Y-44012773D01*
X50310844Y-43887922D01*
X50070795Y-43723037D01*
X49870502Y-43518880D01*
X49857565Y-43499192D01*
X50485746Y-43499192D01*
X50661951Y-43676978D01*
X50831893Y-43826196D01*
X51013574Y-43946581D01*
X51192371Y-44029105D01*
X51268990Y-44051719D01*
X51419815Y-44073322D01*
X51600130Y-44078328D01*
X51785607Y-44067164D01*
X51951918Y-44040256D01*
X51954201Y-44039721D01*
X52219516Y-43949247D01*
X52462603Y-43810513D01*
X52673244Y-43629480D01*
X52692000Y-43609422D01*
X52831853Y-43440768D01*
X52928347Y-43281954D01*
X52988443Y-43117249D01*
X53019104Y-42930926D01*
X53024101Y-42859074D01*
X53028879Y-42739140D01*
X53027688Y-42666791D01*
X53019525Y-42633387D01*
X53003386Y-42630289D01*
X52997894Y-42633296D01*
X52957692Y-42659249D01*
X52883596Y-42707523D01*
X52788893Y-42769455D01*
X52747334Y-42796691D01*
X52346873Y-43029053D01*
X51926569Y-43212900D01*
X51481415Y-43349950D01*
X51006405Y-43441922D01*
X50792850Y-43467925D01*
X50485746Y-43499192D01*
X49857565Y-43499192D01*
X49711033Y-43276211D01*
X49686556Y-43228109D01*
X49571147Y-42937942D01*
X49502142Y-42632141D01*
X49478565Y-42303952D01*
X49499439Y-41946621D01*
X49500234Y-41939724D01*
X49504519Y-41914121D01*
X50017185Y-41914121D01*
X50047442Y-42080181D01*
X50118377Y-42238004D01*
X50223638Y-42374310D01*
X50356871Y-42475819D01*
X50387024Y-42491107D01*
X50478771Y-42527723D01*
X50571815Y-42548614D01*
X50687482Y-42557524D01*
X50771778Y-42558678D01*
X50899305Y-42554962D01*
X51020004Y-42545015D01*
X51111402Y-42530820D01*
X51124556Y-42527544D01*
X51227391Y-42479199D01*
X51339136Y-42393313D01*
X51368313Y-42365424D01*
X51482684Y-42214869D01*
X51548236Y-42047983D01*
X51566366Y-41874196D01*
X51538469Y-41702938D01*
X51465942Y-41543640D01*
X51350179Y-41405733D01*
X51211895Y-41308615D01*
X51155720Y-41282482D01*
X51420889Y-41282482D01*
X51442204Y-41420078D01*
X51502424Y-41528511D01*
X51595967Y-41597944D01*
X51601176Y-41600118D01*
X51698948Y-41621253D01*
X51822369Y-41624075D01*
X51944063Y-41609609D01*
X52026372Y-41584167D01*
X52123171Y-41509196D01*
X52181344Y-41400269D01*
X52197015Y-41267909D01*
X52180356Y-41165979D01*
X52129282Y-41062574D01*
X52040480Y-40993903D01*
X51909917Y-40957731D01*
X51792012Y-40950550D01*
X51690315Y-40953051D01*
X51623964Y-40965590D01*
X51571926Y-40995492D01*
X51516845Y-41046400D01*
X51456592Y-41115115D01*
X51428455Y-41179821D01*
X51420949Y-41268774D01*
X51420889Y-41282482D01*
X51155720Y-41282482D01*
X51150980Y-41280277D01*
X51086026Y-41262016D01*
X51002718Y-41251753D01*
X50886738Y-41247410D01*
X50785889Y-41246777D01*
X50644137Y-41248039D01*
X50544381Y-41253370D01*
X50472200Y-41265089D01*
X50413171Y-41285515D01*
X50354254Y-41316175D01*
X50236523Y-41409835D01*
X50132014Y-41541138D01*
X50054508Y-41691287D01*
X50033962Y-41753108D01*
X50017185Y-41914121D01*
X49504519Y-41914121D01*
X49548917Y-41648892D01*
X49625351Y-41398190D01*
X49734905Y-41175930D01*
X49882945Y-40970424D01*
X50007570Y-40835053D01*
X50206700Y-40666623D01*
X50431392Y-40536721D01*
X50686197Y-40443935D01*
X50975667Y-40386855D01*
X51304351Y-40364068D01*
X51519667Y-40366178D01*
X51519667Y-40366178D01*
G37*
X51519667Y-40366178D02*
X51702511Y-40375867D01*
X51870448Y-40390941D01*
X52008437Y-40409813D01*
X52084112Y-40425742D01*
X52336748Y-40515159D01*
X52574613Y-40639760D01*
X52787584Y-40792198D01*
X52965535Y-40965124D01*
X53098346Y-41151191D01*
X53108119Y-41169043D01*
X53220314Y-41428323D01*
X53301982Y-41719868D01*
X53350620Y-42026947D01*
X53363723Y-42332828D01*
X53338788Y-42620781D01*
X53331526Y-42661846D01*
X53245790Y-42991508D01*
X53121887Y-43279591D01*
X52959796Y-43526119D01*
X52759495Y-43731117D01*
X52520962Y-43894609D01*
X52244175Y-44016619D01*
X52107083Y-44058011D01*
X51929948Y-44092931D01*
X51716162Y-44116795D01*
X51484543Y-44128998D01*
X51253909Y-44128930D01*
X51043078Y-44115983D01*
X50905936Y-44096829D01*
X50589580Y-44012773D01*
X50310844Y-43887922D01*
X50070795Y-43723037D01*
X49870502Y-43518880D01*
X49857565Y-43499192D01*
X50485746Y-43499192D01*
X50661951Y-43676978D01*
X50831893Y-43826196D01*
X51013574Y-43946581D01*
X51192371Y-44029105D01*
X51268990Y-44051719D01*
X51419815Y-44073322D01*
X51600130Y-44078328D01*
X51785607Y-44067164D01*
X51951918Y-44040256D01*
X51954201Y-44039721D01*
X52219516Y-43949247D01*
X52462603Y-43810513D01*
X52673244Y-43629480D01*
X52692000Y-43609422D01*
X52831853Y-43440768D01*
X52928347Y-43281954D01*
X52988443Y-43117249D01*
X53019104Y-42930926D01*
X53024101Y-42859074D01*
X53028879Y-42739140D01*
X53027688Y-42666791D01*
X53019525Y-42633387D01*
X53003386Y-42630289D01*
X52997894Y-42633296D01*
X52957692Y-42659249D01*
X52883596Y-42707523D01*
X52788893Y-42769455D01*
X52747334Y-42796691D01*
X52346873Y-43029053D01*
X51926569Y-43212900D01*
X51481415Y-43349950D01*
X51006405Y-43441922D01*
X50792850Y-43467925D01*
X50485746Y-43499192D01*
X49857565Y-43499192D01*
X49711033Y-43276211D01*
X49686556Y-43228109D01*
X49571147Y-42937942D01*
X49502142Y-42632141D01*
X49478565Y-42303952D01*
X49499439Y-41946621D01*
X49500234Y-41939724D01*
X49504519Y-41914121D01*
X50017185Y-41914121D01*
X50047442Y-42080181D01*
X50118377Y-42238004D01*
X50223638Y-42374310D01*
X50356871Y-42475819D01*
X50387024Y-42491107D01*
X50478771Y-42527723D01*
X50571815Y-42548614D01*
X50687482Y-42557524D01*
X50771778Y-42558678D01*
X50899305Y-42554962D01*
X51020004Y-42545015D01*
X51111402Y-42530820D01*
X51124556Y-42527544D01*
X51227391Y-42479199D01*
X51339136Y-42393313D01*
X51368313Y-42365424D01*
X51482684Y-42214869D01*
X51548236Y-42047983D01*
X51566366Y-41874196D01*
X51538469Y-41702938D01*
X51465942Y-41543640D01*
X51350179Y-41405733D01*
X51211895Y-41308615D01*
X51155720Y-41282482D01*
X51420889Y-41282482D01*
X51442204Y-41420078D01*
X51502424Y-41528511D01*
X51595967Y-41597944D01*
X51601176Y-41600118D01*
X51698948Y-41621253D01*
X51822369Y-41624075D01*
X51944063Y-41609609D01*
X52026372Y-41584167D01*
X52123171Y-41509196D01*
X52181344Y-41400269D01*
X52197015Y-41267909D01*
X52180356Y-41165979D01*
X52129282Y-41062574D01*
X52040480Y-40993903D01*
X51909917Y-40957731D01*
X51792012Y-40950550D01*
X51690315Y-40953051D01*
X51623964Y-40965590D01*
X51571926Y-40995492D01*
X51516845Y-41046400D01*
X51456592Y-41115115D01*
X51428455Y-41179821D01*
X51420949Y-41268774D01*
X51420889Y-41282482D01*
X51155720Y-41282482D01*
X51150980Y-41280277D01*
X51086026Y-41262016D01*
X51002718Y-41251753D01*
X50886738Y-41247410D01*
X50785889Y-41246777D01*
X50644137Y-41248039D01*
X50544381Y-41253370D01*
X50472200Y-41265089D01*
X50413171Y-41285515D01*
X50354254Y-41316175D01*
X50236523Y-41409835D01*
X50132014Y-41541138D01*
X50054508Y-41691287D01*
X50033962Y-41753108D01*
X50017185Y-41914121D01*
X49504519Y-41914121D01*
X49548917Y-41648892D01*
X49625351Y-41398190D01*
X49734905Y-41175930D01*
X49882945Y-40970424D01*
X50007570Y-40835053D01*
X50206700Y-40666623D01*
X50431392Y-40536721D01*
X50686197Y-40443935D01*
X50975667Y-40386855D01*
X51304351Y-40364068D01*
X51519667Y-40366178D01*
G36*
X42008778Y-40056205D02*
X42240748Y-40069132D01*
X42431957Y-40091156D01*
X42597796Y-40125643D01*
X42753657Y-40175957D01*
X42914932Y-40245462D01*
X42948472Y-40261610D01*
X43191680Y-40407751D01*
X43395450Y-40590518D01*
X43561834Y-40812562D01*
X43692883Y-41076532D01*
X43776847Y-41331444D01*
X43811273Y-41504811D01*
X43833202Y-41710612D01*
X43842398Y-41931293D01*
X43838630Y-42149300D01*
X43821661Y-42347079D01*
X43792457Y-42502666D01*
X43683835Y-42816110D01*
X43537441Y-43087942D01*
X43353651Y-43317772D01*
X43132839Y-43505209D01*
X42875380Y-43649864D01*
X42596194Y-43747567D01*
X42419719Y-43782362D01*
X42206569Y-43806206D01*
X41975561Y-43818485D01*
X41745508Y-43818587D01*
X41535226Y-43805899D01*
X41396548Y-43786638D01*
X41241104Y-43750598D01*
X41085184Y-43703070D01*
X40943098Y-43649415D01*
X40829158Y-43594991D01*
X40761458Y-43548814D01*
X40696462Y-43501669D01*
X40648446Y-43479013D01*
X40580182Y-43438426D01*
X40494110Y-43359881D01*
X40399868Y-43254747D01*
X40363144Y-43207103D01*
X40978667Y-43207103D01*
X40999103Y-43235499D01*
X41053343Y-43289526D01*
X41130781Y-43359974D01*
X41220815Y-43437631D01*
X41312838Y-43513288D01*
X41396248Y-43577734D01*
X41444334Y-43611573D01*
X41609186Y-43692040D01*
X41809294Y-43745279D01*
X42029557Y-43769553D01*
X42254869Y-43763125D01*
X42456260Y-43727929D01*
X42719852Y-43633526D01*
X42958938Y-43495088D01*
X43162442Y-43319125D01*
X43175814Y-43304759D01*
X43318838Y-43131145D01*
X43417483Y-42965601D01*
X43478658Y-42792627D01*
X43509270Y-42596724D01*
X43512578Y-42549220D01*
X43518183Y-42429166D01*
X43517626Y-42356595D01*
X43509942Y-42322786D01*
X43494168Y-42319017D01*
X43487515Y-42322566D01*
X43447066Y-42348656D01*
X43372761Y-42397044D01*
X43277925Y-42459045D01*
X43236445Y-42486224D01*
X42823103Y-42724361D01*
X42384529Y-42913020D01*
X41919409Y-43052641D01*
X41426433Y-43143661D01*
X41197389Y-43168687D01*
X41094455Y-43179963D01*
X41017562Y-43192744D01*
X40980235Y-43204655D01*
X40978667Y-43207103D01*
X40363144Y-43207103D01*
X40307094Y-43134388D01*
X40225426Y-43010171D01*
X40179533Y-42926000D01*
X40102261Y-42756136D01*
X40046861Y-42601587D01*
X40010182Y-42446767D01*
X39989071Y-42276087D01*
X39980376Y-42073959D01*
X39979770Y-41938222D01*
X39992181Y-41629026D01*
X39994872Y-41609253D01*
X40503735Y-41609253D01*
X40525010Y-41729419D01*
X40543092Y-41794600D01*
X40603804Y-41928089D01*
X40697597Y-42052850D01*
X40810064Y-42153053D01*
X40922512Y-42211540D01*
X41017520Y-42230206D01*
X41148768Y-42241314D01*
X41296541Y-42244706D01*
X41441121Y-42240222D01*
X41562793Y-42227704D01*
X41613667Y-42217100D01*
X41716502Y-42168754D01*
X41828248Y-42082868D01*
X41857425Y-42054979D01*
X41969565Y-41906449D01*
X42033868Y-41740462D01*
X42051769Y-41566810D01*
X42024704Y-41395288D01*
X41954107Y-41235689D01*
X41841415Y-41097806D01*
X41702659Y-40999014D01*
X41644964Y-40972038D01*
X41910000Y-40972038D01*
X41931315Y-41109634D01*
X41991535Y-41218067D01*
X42085078Y-41287500D01*
X42090287Y-41289673D01*
X42174483Y-41308307D01*
X42286506Y-41314712D01*
X42399064Y-41308807D01*
X42484009Y-41290840D01*
X42586411Y-41231276D01*
X42647041Y-41142273D01*
X42670671Y-41015923D01*
X42671373Y-40980400D01*
X42655784Y-40841179D01*
X42607096Y-40741789D01*
X42520501Y-40678092D01*
X42391189Y-40645947D01*
X42275922Y-40640000D01*
X42175467Y-40642824D01*
X42109646Y-40656446D01*
X42056732Y-40688587D01*
X42005956Y-40735955D01*
X41945704Y-40804670D01*
X41917566Y-40869376D01*
X41910060Y-40958329D01*
X41910000Y-40972038D01*
X41644964Y-40972038D01*
X41641338Y-40970343D01*
X41576688Y-40951860D01*
X41494320Y-40941454D01*
X41379844Y-40937017D01*
X41275000Y-40936333D01*
X41133031Y-40937618D01*
X41033106Y-40942998D01*
X40960856Y-40954761D01*
X40901910Y-40975197D01*
X40844999Y-41004812D01*
X40712468Y-41110449D01*
X40602876Y-41257278D01*
X40539640Y-41393476D01*
X40508679Y-41505066D01*
X40503735Y-41609253D01*
X39994872Y-41609253D01*
X40028378Y-41363062D01*
X40091743Y-41130935D01*
X40185659Y-40923250D01*
X40313508Y-40730611D01*
X40478672Y-40543622D01*
X40483627Y-40538618D01*
X40682143Y-40367519D01*
X40901884Y-40235318D01*
X41148367Y-40140271D01*
X41427107Y-40080632D01*
X41743622Y-40054657D01*
X42008778Y-40056205D01*
X42008778Y-40056205D01*
G37*
X42008778Y-40056205D02*
X42240748Y-40069132D01*
X42431957Y-40091156D01*
X42597796Y-40125643D01*
X42753657Y-40175957D01*
X42914932Y-40245462D01*
X42948472Y-40261610D01*
X43191680Y-40407751D01*
X43395450Y-40590518D01*
X43561834Y-40812562D01*
X43692883Y-41076532D01*
X43776847Y-41331444D01*
X43811273Y-41504811D01*
X43833202Y-41710612D01*
X43842398Y-41931293D01*
X43838630Y-42149300D01*
X43821661Y-42347079D01*
X43792457Y-42502666D01*
X43683835Y-42816110D01*
X43537441Y-43087942D01*
X43353651Y-43317772D01*
X43132839Y-43505209D01*
X42875380Y-43649864D01*
X42596194Y-43747567D01*
X42419719Y-43782362D01*
X42206569Y-43806206D01*
X41975561Y-43818485D01*
X41745508Y-43818587D01*
X41535226Y-43805899D01*
X41396548Y-43786638D01*
X41241104Y-43750598D01*
X41085184Y-43703070D01*
X40943098Y-43649415D01*
X40829158Y-43594991D01*
X40761458Y-43548814D01*
X40696462Y-43501669D01*
X40648446Y-43479013D01*
X40580182Y-43438426D01*
X40494110Y-43359881D01*
X40399868Y-43254747D01*
X40363144Y-43207103D01*
X40978667Y-43207103D01*
X40999103Y-43235499D01*
X41053343Y-43289526D01*
X41130781Y-43359974D01*
X41220815Y-43437631D01*
X41312838Y-43513288D01*
X41396248Y-43577734D01*
X41444334Y-43611573D01*
X41609186Y-43692040D01*
X41809294Y-43745279D01*
X42029557Y-43769553D01*
X42254869Y-43763125D01*
X42456260Y-43727929D01*
X42719852Y-43633526D01*
X42958938Y-43495088D01*
X43162442Y-43319125D01*
X43175814Y-43304759D01*
X43318838Y-43131145D01*
X43417483Y-42965601D01*
X43478658Y-42792627D01*
X43509270Y-42596724D01*
X43512578Y-42549220D01*
X43518183Y-42429166D01*
X43517626Y-42356595D01*
X43509942Y-42322786D01*
X43494168Y-42319017D01*
X43487515Y-42322566D01*
X43447066Y-42348656D01*
X43372761Y-42397044D01*
X43277925Y-42459045D01*
X43236445Y-42486224D01*
X42823103Y-42724361D01*
X42384529Y-42913020D01*
X41919409Y-43052641D01*
X41426433Y-43143661D01*
X41197389Y-43168687D01*
X41094455Y-43179963D01*
X41017562Y-43192744D01*
X40980235Y-43204655D01*
X40978667Y-43207103D01*
X40363144Y-43207103D01*
X40307094Y-43134388D01*
X40225426Y-43010171D01*
X40179533Y-42926000D01*
X40102261Y-42756136D01*
X40046861Y-42601587D01*
X40010182Y-42446767D01*
X39989071Y-42276087D01*
X39980376Y-42073959D01*
X39979770Y-41938222D01*
X39992181Y-41629026D01*
X39994872Y-41609253D01*
X40503735Y-41609253D01*
X40525010Y-41729419D01*
X40543092Y-41794600D01*
X40603804Y-41928089D01*
X40697597Y-42052850D01*
X40810064Y-42153053D01*
X40922512Y-42211540D01*
X41017520Y-42230206D01*
X41148768Y-42241314D01*
X41296541Y-42244706D01*
X41441121Y-42240222D01*
X41562793Y-42227704D01*
X41613667Y-42217100D01*
X41716502Y-42168754D01*
X41828248Y-42082868D01*
X41857425Y-42054979D01*
X41969565Y-41906449D01*
X42033868Y-41740462D01*
X42051769Y-41566810D01*
X42024704Y-41395288D01*
X41954107Y-41235689D01*
X41841415Y-41097806D01*
X41702659Y-40999014D01*
X41644964Y-40972038D01*
X41910000Y-40972038D01*
X41931315Y-41109634D01*
X41991535Y-41218067D01*
X42085078Y-41287500D01*
X42090287Y-41289673D01*
X42174483Y-41308307D01*
X42286506Y-41314712D01*
X42399064Y-41308807D01*
X42484009Y-41290840D01*
X42586411Y-41231276D01*
X42647041Y-41142273D01*
X42670671Y-41015923D01*
X42671373Y-40980400D01*
X42655784Y-40841179D01*
X42607096Y-40741789D01*
X42520501Y-40678092D01*
X42391189Y-40645947D01*
X42275922Y-40640000D01*
X42175467Y-40642824D01*
X42109646Y-40656446D01*
X42056732Y-40688587D01*
X42005956Y-40735955D01*
X41945704Y-40804670D01*
X41917566Y-40869376D01*
X41910060Y-40958329D01*
X41910000Y-40972038D01*
X41644964Y-40972038D01*
X41641338Y-40970343D01*
X41576688Y-40951860D01*
X41494320Y-40941454D01*
X41379844Y-40937017D01*
X41275000Y-40936333D01*
X41133031Y-40937618D01*
X41033106Y-40942998D01*
X40960856Y-40954761D01*
X40901910Y-40975197D01*
X40844999Y-41004812D01*
X40712468Y-41110449D01*
X40602876Y-41257278D01*
X40539640Y-41393476D01*
X40508679Y-41505066D01*
X40503735Y-41609253D01*
X39994872Y-41609253D01*
X40028378Y-41363062D01*
X40091743Y-41130935D01*
X40185659Y-40923250D01*
X40313508Y-40730611D01*
X40478672Y-40543622D01*
X40483627Y-40538618D01*
X40682143Y-40367519D01*
X40901884Y-40235318D01*
X41148367Y-40140271D01*
X41427107Y-40080632D01*
X41743622Y-40054657D01*
X42008778Y-40056205D01*
G36*
X46599087Y-40502714D02*
X46691767Y-40534167D01*
X46728092Y-40562389D01*
X46757656Y-40603852D01*
X46810218Y-40687205D01*
X46881340Y-40805009D01*
X46966583Y-40949828D01*
X47061507Y-41114222D01*
X47142234Y-41256252D01*
X47253819Y-41455150D01*
X47339928Y-41612002D01*
X47403689Y-41733423D01*
X47448227Y-41826030D01*
X47476668Y-41896437D01*
X47492138Y-41951260D01*
X47497764Y-41997115D01*
X47498000Y-42009148D01*
X47490059Y-42098262D01*
X47459430Y-42157178D01*
X47423639Y-42190173D01*
X47325708Y-42238536D01*
X47218547Y-42247428D01*
X47122017Y-42217139D01*
X47081833Y-42185166D01*
X47052164Y-42143653D01*
X47000141Y-42060998D01*
X46930532Y-41945556D01*
X46848106Y-41805688D01*
X46757632Y-41649749D01*
X46663877Y-41486099D01*
X46571610Y-41323094D01*
X46485600Y-41169094D01*
X46410616Y-41032454D01*
X46351425Y-40921534D01*
X46312796Y-40844692D01*
X46300635Y-40815945D01*
X46295773Y-40735653D01*
X46317736Y-40643617D01*
X46358310Y-40564292D01*
X46397739Y-40526894D01*
X46492979Y-40499420D01*
X46599087Y-40502714D01*
X46599087Y-40502714D01*
G37*
X46599087Y-40502714D02*
X46691767Y-40534167D01*
X46728092Y-40562389D01*
X46757656Y-40603852D01*
X46810218Y-40687205D01*
X46881340Y-40805009D01*
X46966583Y-40949828D01*
X47061507Y-41114222D01*
X47142234Y-41256252D01*
X47253819Y-41455150D01*
X47339928Y-41612002D01*
X47403689Y-41733423D01*
X47448227Y-41826030D01*
X47476668Y-41896437D01*
X47492138Y-41951260D01*
X47497764Y-41997115D01*
X47498000Y-42009148D01*
X47490059Y-42098262D01*
X47459430Y-42157178D01*
X47423639Y-42190173D01*
X47325708Y-42238536D01*
X47218547Y-42247428D01*
X47122017Y-42217139D01*
X47081833Y-42185166D01*
X47052164Y-42143653D01*
X47000141Y-42060998D01*
X46930532Y-41945556D01*
X46848106Y-41805688D01*
X46757632Y-41649749D01*
X46663877Y-41486099D01*
X46571610Y-41323094D01*
X46485600Y-41169094D01*
X46410616Y-41032454D01*
X46351425Y-40921534D01*
X46312796Y-40844692D01*
X46300635Y-40815945D01*
X46295773Y-40735653D01*
X46317736Y-40643617D01*
X46358310Y-40564292D01*
X46397739Y-40526894D01*
X46492979Y-40499420D01*
X46599087Y-40502714D01*
G36*
X44263362Y-38393540D02*
X44360602Y-38425028D01*
X44490873Y-38472987D01*
X44645560Y-38533718D01*
X44816045Y-38603523D01*
X44993710Y-38678702D01*
X45169939Y-38755557D01*
X45336115Y-38830389D01*
X45483621Y-38899500D01*
X45603839Y-38959189D01*
X45688153Y-39005759D01*
X45727056Y-39034369D01*
X45774000Y-39128544D01*
X45777767Y-39231187D01*
X45744467Y-39328222D01*
X45680210Y-39405571D01*
X45591108Y-39449157D01*
X45544894Y-39454007D01*
X45491092Y-39442461D01*
X45392322Y-39409853D01*
X45254944Y-39358610D01*
X45085316Y-39291159D01*
X44889797Y-39209927D01*
X44760445Y-39154607D01*
X44573991Y-39073280D01*
X44403044Y-38997253D01*
X44254967Y-38929918D01*
X44137120Y-38874666D01*
X44056864Y-38834888D01*
X44022150Y-38814523D01*
X43967342Y-38730622D01*
X43953976Y-38620560D01*
X43971232Y-38534386D01*
X44017891Y-38445458D01*
X44091719Y-38397174D01*
X44204068Y-38382231D01*
X44207771Y-38382222D01*
X44263362Y-38393540D01*
X44263362Y-38393540D01*
G37*
X44263362Y-38393540D02*
X44360602Y-38425028D01*
X44490873Y-38472987D01*
X44645560Y-38533718D01*
X44816045Y-38603523D01*
X44993710Y-38678702D01*
X45169939Y-38755557D01*
X45336115Y-38830389D01*
X45483621Y-38899500D01*
X45603839Y-38959189D01*
X45688153Y-39005759D01*
X45727056Y-39034369D01*
X45774000Y-39128544D01*
X45777767Y-39231187D01*
X45744467Y-39328222D01*
X45680210Y-39405571D01*
X45591108Y-39449157D01*
X45544894Y-39454007D01*
X45491092Y-39442461D01*
X45392322Y-39409853D01*
X45254944Y-39358610D01*
X45085316Y-39291159D01*
X44889797Y-39209927D01*
X44760445Y-39154607D01*
X44573991Y-39073280D01*
X44403044Y-38997253D01*
X44254967Y-38929918D01*
X44137120Y-38874666D01*
X44056864Y-38834888D01*
X44022150Y-38814523D01*
X43967342Y-38730622D01*
X43953976Y-38620560D01*
X43971232Y-38534386D01*
X44017891Y-38445458D01*
X44091719Y-38397174D01*
X44204068Y-38382231D01*
X44207771Y-38382222D01*
X44263362Y-38393540D01*
M02*
