G04 #@! TF.FileFunction,Soldermask,Bot*
%FSLAX46Y46*%
G04 Gerber Fmt 4.6, Leading zero omitted, Abs format (unit mm)*
G04 Created by KiCad (PCBNEW 4.0.6-e0-6349~53~ubuntu16.04.1) date Sun Nov  5 22:25:15 2017*
%MOMM*%
%LPD*%
G01*
G04 APERTURE LIST*
%ADD10C,0.100000*%
%ADD11C,0.010000*%
G04 APERTURE END LIST*
D10*
D11*
G36*
X49458305Y-55864403D02*
X49293724Y-55912105D01*
X49110314Y-55961716D01*
X48936815Y-56005588D01*
X48859553Y-56023708D01*
X48743366Y-56049744D01*
X48663028Y-56071546D01*
X48619757Y-56095112D01*
X48614771Y-56126442D01*
X48649286Y-56171535D01*
X48724520Y-56236392D01*
X48841692Y-56327010D01*
X48935625Y-56398528D01*
X49488178Y-56789627D01*
X50047940Y-57124885D01*
X50615369Y-57404499D01*
X51190921Y-57628665D01*
X51775053Y-57797582D01*
X52368223Y-57911446D01*
X52473612Y-57925806D01*
X52669817Y-57944571D01*
X52906922Y-57957181D01*
X53169721Y-57963665D01*
X53443009Y-57964049D01*
X53711582Y-57958363D01*
X53960233Y-57946634D01*
X54173757Y-57928890D01*
X54227197Y-57922590D01*
X54703038Y-57842948D01*
X55193137Y-57725614D01*
X55555444Y-57616359D01*
X55728190Y-57556692D01*
X55907253Y-57490063D01*
X56083277Y-57420446D01*
X56246901Y-57351811D01*
X56388768Y-57288132D01*
X56499518Y-57233379D01*
X56569793Y-57191525D01*
X56583882Y-57179885D01*
X56602578Y-57142346D01*
X56630651Y-57063138D01*
X56665079Y-56953362D01*
X56702838Y-56824122D01*
X56740905Y-56686520D01*
X56776258Y-56551660D01*
X56805872Y-56430645D01*
X56826725Y-56334577D01*
X56835794Y-56274560D01*
X56834244Y-56260392D01*
X56804133Y-56263201D01*
X56733680Y-56280447D01*
X56636106Y-56308760D01*
X56598456Y-56320513D01*
X56225389Y-56429289D01*
X55812831Y-56532250D01*
X55377694Y-56625716D01*
X54936891Y-56706003D01*
X54581777Y-56759597D01*
X54373880Y-56782346D01*
X54129228Y-56800226D01*
X53860348Y-56813066D01*
X53579768Y-56820695D01*
X53300012Y-56822942D01*
X53033608Y-56819635D01*
X52793081Y-56810604D01*
X52590959Y-56795678D01*
X52521555Y-56787743D01*
X51940266Y-56689906D01*
X51395207Y-56553208D01*
X50888113Y-56378238D01*
X50420718Y-56165587D01*
X50032278Y-55940426D01*
X49769215Y-55770012D01*
X49458305Y-55864403D01*
X49458305Y-55864403D01*
G37*
X49458305Y-55864403D02*
X49293724Y-55912105D01*
X49110314Y-55961716D01*
X48936815Y-56005588D01*
X48859553Y-56023708D01*
X48743366Y-56049744D01*
X48663028Y-56071546D01*
X48619757Y-56095112D01*
X48614771Y-56126442D01*
X48649286Y-56171535D01*
X48724520Y-56236392D01*
X48841692Y-56327010D01*
X48935625Y-56398528D01*
X49488178Y-56789627D01*
X50047940Y-57124885D01*
X50615369Y-57404499D01*
X51190921Y-57628665D01*
X51775053Y-57797582D01*
X52368223Y-57911446D01*
X52473612Y-57925806D01*
X52669817Y-57944571D01*
X52906922Y-57957181D01*
X53169721Y-57963665D01*
X53443009Y-57964049D01*
X53711582Y-57958363D01*
X53960233Y-57946634D01*
X54173757Y-57928890D01*
X54227197Y-57922590D01*
X54703038Y-57842948D01*
X55193137Y-57725614D01*
X55555444Y-57616359D01*
X55728190Y-57556692D01*
X55907253Y-57490063D01*
X56083277Y-57420446D01*
X56246901Y-57351811D01*
X56388768Y-57288132D01*
X56499518Y-57233379D01*
X56569793Y-57191525D01*
X56583882Y-57179885D01*
X56602578Y-57142346D01*
X56630651Y-57063138D01*
X56665079Y-56953362D01*
X56702838Y-56824122D01*
X56740905Y-56686520D01*
X56776258Y-56551660D01*
X56805872Y-56430645D01*
X56826725Y-56334577D01*
X56835794Y-56274560D01*
X56834244Y-56260392D01*
X56804133Y-56263201D01*
X56733680Y-56280447D01*
X56636106Y-56308760D01*
X56598456Y-56320513D01*
X56225389Y-56429289D01*
X55812831Y-56532250D01*
X55377694Y-56625716D01*
X54936891Y-56706003D01*
X54581777Y-56759597D01*
X54373880Y-56782346D01*
X54129228Y-56800226D01*
X53860348Y-56813066D01*
X53579768Y-56820695D01*
X53300012Y-56822942D01*
X53033608Y-56819635D01*
X52793081Y-56810604D01*
X52590959Y-56795678D01*
X52521555Y-56787743D01*
X51940266Y-56689906D01*
X51395207Y-56553208D01*
X50888113Y-56378238D01*
X50420718Y-56165587D01*
X50032278Y-55940426D01*
X49769215Y-55770012D01*
X49458305Y-55864403D01*
G36*
X42978535Y-55889118D02*
X42677148Y-56076521D01*
X42333398Y-56252289D01*
X41961106Y-56410179D01*
X41574094Y-56543949D01*
X41444333Y-56582064D01*
X40891980Y-56709604D01*
X40309748Y-56791494D01*
X39700744Y-56827883D01*
X39068076Y-56818924D01*
X38414850Y-56764767D01*
X37744175Y-56665564D01*
X37059157Y-56521467D01*
X36371388Y-56335178D01*
X36233256Y-56296699D01*
X36141684Y-56278096D01*
X36099183Y-56279828D01*
X36096355Y-56284957D01*
X36102978Y-56322417D01*
X36121153Y-56404290D01*
X36148482Y-56520293D01*
X36182568Y-56660146D01*
X36202642Y-56740777D01*
X36308797Y-57164111D01*
X36604676Y-57310612D01*
X36798788Y-57398984D01*
X37031258Y-57492438D01*
X37285108Y-57584921D01*
X37543362Y-57670381D01*
X37789041Y-57742767D01*
X37893949Y-57770205D01*
X38133879Y-57826916D01*
X38351837Y-57870924D01*
X38561656Y-57903844D01*
X38777171Y-57927291D01*
X39012215Y-57942882D01*
X39280623Y-57952231D01*
X39482888Y-57955769D01*
X39689046Y-57957159D01*
X39889206Y-57956315D01*
X40072291Y-57953448D01*
X40227224Y-57948772D01*
X40342927Y-57942499D01*
X40386000Y-57938425D01*
X40976093Y-57837884D01*
X41562753Y-57682579D01*
X42142124Y-57474189D01*
X42710348Y-57214392D01*
X43263569Y-56904868D01*
X43797930Y-56547294D01*
X44086026Y-56327862D01*
X44375446Y-56097291D01*
X43952712Y-55992828D01*
X43787644Y-55950960D01*
X43625067Y-55907826D01*
X43480722Y-55867727D01*
X43370348Y-55834965D01*
X43344024Y-55826484D01*
X43158069Y-55764603D01*
X42978535Y-55889118D01*
X42978535Y-55889118D01*
G37*
X42978535Y-55889118D02*
X42677148Y-56076521D01*
X42333398Y-56252289D01*
X41961106Y-56410179D01*
X41574094Y-56543949D01*
X41444333Y-56582064D01*
X40891980Y-56709604D01*
X40309748Y-56791494D01*
X39700744Y-56827883D01*
X39068076Y-56818924D01*
X38414850Y-56764767D01*
X37744175Y-56665564D01*
X37059157Y-56521467D01*
X36371388Y-56335178D01*
X36233256Y-56296699D01*
X36141684Y-56278096D01*
X36099183Y-56279828D01*
X36096355Y-56284957D01*
X36102978Y-56322417D01*
X36121153Y-56404290D01*
X36148482Y-56520293D01*
X36182568Y-56660146D01*
X36202642Y-56740777D01*
X36308797Y-57164111D01*
X36604676Y-57310612D01*
X36798788Y-57398984D01*
X37031258Y-57492438D01*
X37285108Y-57584921D01*
X37543362Y-57670381D01*
X37789041Y-57742767D01*
X37893949Y-57770205D01*
X38133879Y-57826916D01*
X38351837Y-57870924D01*
X38561656Y-57903844D01*
X38777171Y-57927291D01*
X39012215Y-57942882D01*
X39280623Y-57952231D01*
X39482888Y-57955769D01*
X39689046Y-57957159D01*
X39889206Y-57956315D01*
X40072291Y-57953448D01*
X40227224Y-57948772D01*
X40342927Y-57942499D01*
X40386000Y-57938425D01*
X40976093Y-57837884D01*
X41562753Y-57682579D01*
X42142124Y-57474189D01*
X42710348Y-57214392D01*
X43263569Y-56904868D01*
X43797930Y-56547294D01*
X44086026Y-56327862D01*
X44375446Y-56097291D01*
X43952712Y-55992828D01*
X43787644Y-55950960D01*
X43625067Y-55907826D01*
X43480722Y-55867727D01*
X43370348Y-55834965D01*
X43344024Y-55826484D01*
X43158069Y-55764603D01*
X42978535Y-55889118D01*
G36*
X46327448Y-35905500D02*
X46046042Y-35911801D01*
X45774705Y-35922066D01*
X45525828Y-35936042D01*
X45311804Y-35953475D01*
X45183777Y-35968365D01*
X44428421Y-36100316D01*
X43695141Y-36283766D01*
X42984965Y-36518264D01*
X42298925Y-36803356D01*
X41638048Y-37138589D01*
X41003366Y-37523510D01*
X40395908Y-37957667D01*
X40075555Y-38215787D01*
X39879641Y-38387831D01*
X39661904Y-38591899D01*
X39433812Y-38816281D01*
X39206833Y-39049269D01*
X38992435Y-39279153D01*
X38802086Y-39494225D01*
X38682528Y-39638111D01*
X38570665Y-39783624D01*
X38436531Y-39967739D01*
X38286806Y-40180603D01*
X38128171Y-40412361D01*
X37967304Y-40653162D01*
X37810887Y-40893152D01*
X37665597Y-41122476D01*
X37564255Y-41287672D01*
X37325820Y-41711799D01*
X37095362Y-42177240D01*
X36879717Y-42668877D01*
X36685719Y-43171590D01*
X36598592Y-43423525D01*
X36554779Y-43552301D01*
X36516779Y-43657969D01*
X36488182Y-43730986D01*
X36472576Y-43761808D01*
X36471296Y-43762037D01*
X36469318Y-43728278D01*
X36477806Y-43648933D01*
X36495024Y-43533524D01*
X36519235Y-43391574D01*
X36548703Y-43232606D01*
X36581691Y-43066144D01*
X36616461Y-42901708D01*
X36651278Y-42748824D01*
X36670098Y-42672000D01*
X36704326Y-42533837D01*
X36732008Y-42416655D01*
X36750859Y-42330571D01*
X36758590Y-42285701D01*
X36758321Y-42281673D01*
X36724192Y-42276998D01*
X36645452Y-42280765D01*
X36533057Y-42291519D01*
X36397968Y-42307805D01*
X36251141Y-42328168D01*
X36103536Y-42351153D01*
X35966110Y-42375306D01*
X35849821Y-42399170D01*
X35819701Y-42406301D01*
X35432255Y-42525414D01*
X35088166Y-42680646D01*
X34787304Y-42872138D01*
X34529535Y-43100028D01*
X34314728Y-43364455D01*
X34142752Y-43665559D01*
X34013473Y-44003479D01*
X33926760Y-44378353D01*
X33922016Y-44407666D01*
X33900412Y-44608832D01*
X33891024Y-44844890D01*
X33893442Y-45095719D01*
X33907257Y-45341197D01*
X33932060Y-45561202D01*
X33947271Y-45649444D01*
X34063912Y-46095280D01*
X34235732Y-46535487D01*
X34461601Y-46968367D01*
X34740389Y-47392225D01*
X35070968Y-47805364D01*
X35452208Y-48206088D01*
X35882979Y-48592700D01*
X35935180Y-48635801D01*
X36078841Y-48751032D01*
X36221503Y-48861174D01*
X36356462Y-48961504D01*
X36477015Y-49047303D01*
X36576459Y-49113850D01*
X36648090Y-49156426D01*
X36685204Y-49170309D01*
X36688888Y-49166553D01*
X36682815Y-49127041D01*
X36666635Y-49047411D01*
X36643407Y-48942432D01*
X36634242Y-48902711D01*
X36605280Y-48770872D01*
X36575178Y-48620852D01*
X36545747Y-48463345D01*
X36518797Y-48309044D01*
X36496135Y-48168646D01*
X36479572Y-48052842D01*
X36470918Y-47972329D01*
X36471236Y-47939289D01*
X36483309Y-47951586D01*
X36508327Y-48008607D01*
X36542630Y-48101127D01*
X36582331Y-48219221D01*
X36766328Y-48739343D01*
X36983273Y-49265347D01*
X37224528Y-49777928D01*
X37481454Y-50257779D01*
X37538194Y-50355296D01*
X37667522Y-50568806D01*
X37814453Y-50802370D01*
X37972233Y-51045935D01*
X38134109Y-51289449D01*
X38293325Y-51522858D01*
X38443127Y-51736108D01*
X38576761Y-51919145D01*
X38671245Y-52041777D01*
X39157809Y-52606693D01*
X39682585Y-53132302D01*
X40242580Y-53616557D01*
X40834799Y-54057412D01*
X41456249Y-54452819D01*
X42103936Y-54800730D01*
X42774866Y-55099098D01*
X43466047Y-55345876D01*
X43532777Y-55366600D01*
X44057666Y-55510741D01*
X44605669Y-55630149D01*
X45153110Y-55720141D01*
X45550666Y-55765659D01*
X45663550Y-55773089D01*
X45818444Y-55779299D01*
X46004493Y-55784222D01*
X46210842Y-55787789D01*
X46426636Y-55789932D01*
X46641020Y-55790584D01*
X46843140Y-55789676D01*
X47022139Y-55787140D01*
X47167164Y-55782908D01*
X47267360Y-55776913D01*
X47272222Y-55776444D01*
X48031198Y-55677671D01*
X48756215Y-55535421D01*
X49451084Y-55348166D01*
X50119614Y-55114375D01*
X50765616Y-54832519D01*
X51392901Y-54501068D01*
X52005278Y-54118492D01*
X52606558Y-53683262D01*
X52733222Y-53583878D01*
X52880099Y-53460380D01*
X53054368Y-53302984D01*
X53246915Y-53120843D01*
X53448623Y-52923111D01*
X53650381Y-52718941D01*
X53843072Y-52517484D01*
X54017584Y-52327895D01*
X54164801Y-52159326D01*
X54226666Y-52084111D01*
X54322412Y-51959227D01*
X54441533Y-51795680D01*
X54577716Y-51602814D01*
X54724649Y-51389971D01*
X54876018Y-51166496D01*
X55025513Y-50941733D01*
X55166819Y-50725024D01*
X55293625Y-50525714D01*
X55399619Y-50353146D01*
X55425188Y-50310074D01*
X55719409Y-49766569D01*
X55990816Y-49176814D01*
X56236452Y-48547396D01*
X56305093Y-48350591D01*
X56354868Y-48206321D01*
X56398664Y-48083803D01*
X56433264Y-47991691D01*
X56455449Y-47938636D01*
X56461788Y-47929270D01*
X56462558Y-47961354D01*
X56453792Y-48038598D01*
X56437245Y-48150858D01*
X56414675Y-48287990D01*
X56387838Y-48439850D01*
X56358489Y-48596295D01*
X56328386Y-48747181D01*
X56299285Y-48882365D01*
X56289197Y-48926059D01*
X56260574Y-49048337D01*
X56237535Y-49148928D01*
X56222752Y-49216022D01*
X56218666Y-49237719D01*
X56240230Y-49228290D01*
X56298596Y-49192562D01*
X56384278Y-49136537D01*
X56465611Y-49081483D01*
X56881370Y-48775572D01*
X57278510Y-48442625D01*
X57648598Y-48090862D01*
X57983199Y-47728506D01*
X58273878Y-47363775D01*
X58375241Y-47220124D01*
X58590082Y-46866488D01*
X58775800Y-46485646D01*
X58925818Y-46093307D01*
X58982978Y-45887391D01*
X56129539Y-45887391D01*
X56120590Y-46095635D01*
X56096133Y-46309207D01*
X56054574Y-46534911D01*
X55994323Y-46779553D01*
X55913785Y-47049939D01*
X55811367Y-47352876D01*
X55685478Y-47695168D01*
X55601150Y-47914234D01*
X55503118Y-48167002D01*
X55422664Y-48379250D01*
X55356169Y-48562769D01*
X55300014Y-48729352D01*
X55250580Y-48890792D01*
X55204249Y-49058881D01*
X55157402Y-49245412D01*
X55106421Y-49462177D01*
X55050288Y-49709404D01*
X54958770Y-50098404D01*
X54870813Y-50435107D01*
X54785164Y-50723453D01*
X54700572Y-50967384D01*
X54615785Y-51170842D01*
X54537368Y-51324198D01*
X54423636Y-51510984D01*
X54305029Y-51676724D01*
X54175459Y-51826070D01*
X54028836Y-51963675D01*
X53859073Y-52094190D01*
X53660079Y-52222267D01*
X53425765Y-52352559D01*
X53150044Y-52489717D01*
X52826825Y-52638394D01*
X52803777Y-52648678D01*
X52583496Y-52747524D01*
X52404253Y-52830112D01*
X52255129Y-52902232D01*
X52125202Y-52969674D01*
X52003550Y-53038226D01*
X51879251Y-53113679D01*
X51741385Y-53201820D01*
X51660687Y-53254603D01*
X51501175Y-53356521D01*
X51346837Y-53448080D01*
X51190810Y-53532127D01*
X51026231Y-53611511D01*
X50846237Y-53689076D01*
X50643966Y-53767672D01*
X50412555Y-53850143D01*
X50145142Y-53939338D01*
X49834863Y-54038103D01*
X49586444Y-54115085D01*
X49223838Y-54225057D01*
X48905102Y-54317742D01*
X48620915Y-54394741D01*
X48361956Y-54457656D01*
X48118906Y-54508088D01*
X47882444Y-54547639D01*
X47643249Y-54577910D01*
X47392000Y-54600502D01*
X47119378Y-54617018D01*
X46816061Y-54629057D01*
X46552555Y-54636362D01*
X46236725Y-54643918D01*
X45971037Y-54650036D01*
X45749206Y-54654718D01*
X45564950Y-54657966D01*
X45411983Y-54659780D01*
X45284021Y-54660162D01*
X45174781Y-54659112D01*
X45077978Y-54656633D01*
X44987328Y-54652725D01*
X44896547Y-54647389D01*
X44799351Y-54640627D01*
X44746333Y-54636708D01*
X44412172Y-54602683D01*
X44093339Y-54550216D01*
X43783808Y-54476687D01*
X43477551Y-54379477D01*
X43168544Y-54255964D01*
X42850758Y-54103530D01*
X42518168Y-53919554D01*
X42164748Y-53701416D01*
X41784470Y-53446497D01*
X41430222Y-53195027D01*
X41267585Y-53079355D01*
X41074585Y-52945672D01*
X40868722Y-52805886D01*
X40667495Y-52671908D01*
X40527111Y-52580446D01*
X40227383Y-52384877D01*
X39971526Y-52211509D01*
X39753787Y-52055642D01*
X39568415Y-51912577D01*
X39409657Y-51777615D01*
X39271762Y-51646056D01*
X39148977Y-51513202D01*
X39035550Y-51374353D01*
X39010417Y-51341388D01*
X38892766Y-51176296D01*
X38788235Y-51008406D01*
X38693878Y-50830375D01*
X38606747Y-50634856D01*
X38523897Y-50414504D01*
X38442381Y-50161974D01*
X38359253Y-49869920D01*
X38271568Y-49530997D01*
X38251111Y-49448352D01*
X38182497Y-49172085D01*
X38122540Y-48941184D01*
X38067230Y-48746012D01*
X38012557Y-48576930D01*
X37954513Y-48424300D01*
X37889087Y-48278483D01*
X37812270Y-48129843D01*
X37720052Y-47968739D01*
X37608424Y-47785535D01*
X37473377Y-47570591D01*
X37463392Y-47554817D01*
X37279681Y-47255762D01*
X37130467Y-46991980D01*
X37012728Y-46756578D01*
X36923443Y-46542660D01*
X36859589Y-46343331D01*
X36818144Y-46151695D01*
X36804211Y-46050707D01*
X36796827Y-45938173D01*
X36793744Y-45779652D01*
X36794593Y-45585410D01*
X36799002Y-45365711D01*
X36806602Y-45130820D01*
X36817022Y-44891000D01*
X36829892Y-44656518D01*
X36844842Y-44437637D01*
X36861502Y-44244622D01*
X36873251Y-44136421D01*
X36897677Y-43955128D01*
X36928695Y-43754926D01*
X36961996Y-43562387D01*
X36988146Y-43428084D01*
X37050476Y-43155902D01*
X37119887Y-42908618D01*
X37200548Y-42678428D01*
X37296628Y-42457529D01*
X37412295Y-42238117D01*
X37551719Y-42012390D01*
X37719070Y-41772542D01*
X37918515Y-41510771D01*
X38154225Y-41219272D01*
X38193621Y-41171714D01*
X38330473Y-41006429D01*
X38469592Y-40837483D01*
X38602126Y-40675694D01*
X38719220Y-40531880D01*
X38812020Y-40416861D01*
X38836653Y-40386000D01*
X38973179Y-40220960D01*
X39107149Y-40075107D01*
X39246187Y-39942666D01*
X39397919Y-39817863D01*
X39569969Y-39694923D01*
X39769963Y-39568072D01*
X40005525Y-39431536D01*
X40284281Y-39279540D01*
X40329555Y-39255441D01*
X40592972Y-39114293D01*
X40813938Y-38991798D01*
X41000626Y-38881648D01*
X41161211Y-38777537D01*
X41303868Y-38673156D01*
X41436771Y-38562198D01*
X41568093Y-38438356D01*
X41706010Y-38295323D01*
X41858695Y-38126791D01*
X41998383Y-37967746D01*
X42133092Y-37814984D01*
X42268172Y-37665057D01*
X42395005Y-37527293D01*
X42504975Y-37411019D01*
X42589465Y-37325561D01*
X42608410Y-37307463D01*
X42784776Y-37156555D01*
X42976359Y-37016715D01*
X43167430Y-36898394D01*
X43342257Y-36812042D01*
X43371706Y-36800352D01*
X43648948Y-36716333D01*
X43967417Y-36656887D01*
X44317022Y-36623081D01*
X44687673Y-36615979D01*
X44986222Y-36629764D01*
X45303230Y-36653339D01*
X45572177Y-36672706D01*
X45801275Y-36688029D01*
X45998737Y-36699471D01*
X46172776Y-36707198D01*
X46331606Y-36711372D01*
X46483439Y-36712157D01*
X46636487Y-36709718D01*
X46798965Y-36704219D01*
X46979086Y-36695823D01*
X47185061Y-36684694D01*
X47328851Y-36676522D01*
X47694155Y-36657745D01*
X48010503Y-36646688D01*
X48284916Y-36643857D01*
X48524420Y-36649756D01*
X48736038Y-36664891D01*
X48926794Y-36689767D01*
X49103711Y-36724888D01*
X49273814Y-36770759D01*
X49444127Y-36827885D01*
X49446529Y-36828761D01*
X49610193Y-36894040D01*
X49766997Y-36969410D01*
X49923098Y-37059365D01*
X50084654Y-37168400D01*
X50257822Y-37301009D01*
X50448760Y-37461685D01*
X50663626Y-37654924D01*
X50908578Y-37885219D01*
X50955222Y-37929882D01*
X51286245Y-38235372D01*
X51621606Y-38518765D01*
X51985333Y-38800403D01*
X52276996Y-39019645D01*
X52529194Y-39214425D01*
X52749239Y-39391867D01*
X52944445Y-39559094D01*
X53122125Y-39723232D01*
X53289591Y-39891404D01*
X53454156Y-40070736D01*
X53623135Y-40268351D01*
X53803838Y-40491374D01*
X54003581Y-40746929D01*
X54064156Y-40825595D01*
X54293478Y-41125960D01*
X54490645Y-41389028D01*
X54659395Y-41621064D01*
X54803467Y-41828333D01*
X54926601Y-42017098D01*
X55032536Y-42193625D01*
X55125010Y-42364177D01*
X55207763Y-42535020D01*
X55284533Y-42712417D01*
X55359060Y-42902634D01*
X55435082Y-43111934D01*
X55444145Y-43137666D01*
X55574496Y-43510576D01*
X55686604Y-43836021D01*
X55781925Y-44119433D01*
X55861912Y-44366244D01*
X55928022Y-44581883D01*
X55981708Y-44771784D01*
X56024426Y-44941376D01*
X56057631Y-45096092D01*
X56082778Y-45241363D01*
X56101322Y-45382620D01*
X56114718Y-45525294D01*
X56124421Y-45674817D01*
X56124574Y-45677666D01*
X56129539Y-45887391D01*
X58982978Y-45887391D01*
X59033559Y-45705180D01*
X59056452Y-45593000D01*
X59079455Y-45417860D01*
X59092281Y-45206135D01*
X59095349Y-44973100D01*
X59089074Y-44734027D01*
X59073875Y-44504191D01*
X59050170Y-44298866D01*
X59018375Y-44133324D01*
X59016338Y-44125444D01*
X58946471Y-43910305D01*
X58850599Y-43686509D01*
X58737477Y-43471049D01*
X58615860Y-43280921D01*
X58517981Y-43158088D01*
X58262316Y-42917974D01*
X57964830Y-42715764D01*
X57625525Y-42551460D01*
X57244405Y-42425064D01*
X56821473Y-42336576D01*
X56418978Y-42290388D01*
X56295988Y-42281682D01*
X56219585Y-42279148D01*
X56180121Y-42284068D01*
X56167951Y-42297724D01*
X56173428Y-42321398D01*
X56174020Y-42322941D01*
X56196725Y-42394660D01*
X56227188Y-42509022D01*
X56262486Y-42653244D01*
X56299694Y-42814546D01*
X56335887Y-42980144D01*
X56368141Y-43137259D01*
X56393529Y-43273107D01*
X56399334Y-43307582D01*
X56420811Y-43439476D01*
X56440675Y-43561240D01*
X56456004Y-43654982D01*
X56461426Y-43688000D01*
X56469400Y-43750911D01*
X56464752Y-43768192D01*
X56446725Y-43738187D01*
X56414561Y-43659239D01*
X56367503Y-43529691D01*
X56304795Y-43347885D01*
X56301288Y-43337551D01*
X56176301Y-42984031D01*
X56047478Y-42652300D01*
X55910378Y-42333668D01*
X55760564Y-42019444D01*
X55593596Y-41700939D01*
X55405034Y-41369463D01*
X55190440Y-41016325D01*
X54945373Y-40632835D01*
X54829461Y-40456348D01*
X54611108Y-40133836D01*
X54406596Y-39849337D01*
X54205571Y-39589868D01*
X53997676Y-39342448D01*
X53772559Y-39094092D01*
X53594486Y-38907911D01*
X53048657Y-38387196D01*
X52471678Y-37912694D01*
X51865713Y-37485432D01*
X51232927Y-37106436D01*
X50575485Y-36776732D01*
X49895551Y-36497349D01*
X49195291Y-36269312D01*
X48476867Y-36093648D01*
X47742446Y-35971385D01*
X47305923Y-35924999D01*
X47108160Y-35912913D01*
X46870899Y-35905803D01*
X46606531Y-35903416D01*
X46327448Y-35905500D01*
X46327448Y-35905500D01*
G37*
X46327448Y-35905500D02*
X46046042Y-35911801D01*
X45774705Y-35922066D01*
X45525828Y-35936042D01*
X45311804Y-35953475D01*
X45183777Y-35968365D01*
X44428421Y-36100316D01*
X43695141Y-36283766D01*
X42984965Y-36518264D01*
X42298925Y-36803356D01*
X41638048Y-37138589D01*
X41003366Y-37523510D01*
X40395908Y-37957667D01*
X40075555Y-38215787D01*
X39879641Y-38387831D01*
X39661904Y-38591899D01*
X39433812Y-38816281D01*
X39206833Y-39049269D01*
X38992435Y-39279153D01*
X38802086Y-39494225D01*
X38682528Y-39638111D01*
X38570665Y-39783624D01*
X38436531Y-39967739D01*
X38286806Y-40180603D01*
X38128171Y-40412361D01*
X37967304Y-40653162D01*
X37810887Y-40893152D01*
X37665597Y-41122476D01*
X37564255Y-41287672D01*
X37325820Y-41711799D01*
X37095362Y-42177240D01*
X36879717Y-42668877D01*
X36685719Y-43171590D01*
X36598592Y-43423525D01*
X36554779Y-43552301D01*
X36516779Y-43657969D01*
X36488182Y-43730986D01*
X36472576Y-43761808D01*
X36471296Y-43762037D01*
X36469318Y-43728278D01*
X36477806Y-43648933D01*
X36495024Y-43533524D01*
X36519235Y-43391574D01*
X36548703Y-43232606D01*
X36581691Y-43066144D01*
X36616461Y-42901708D01*
X36651278Y-42748824D01*
X36670098Y-42672000D01*
X36704326Y-42533837D01*
X36732008Y-42416655D01*
X36750859Y-42330571D01*
X36758590Y-42285701D01*
X36758321Y-42281673D01*
X36724192Y-42276998D01*
X36645452Y-42280765D01*
X36533057Y-42291519D01*
X36397968Y-42307805D01*
X36251141Y-42328168D01*
X36103536Y-42351153D01*
X35966110Y-42375306D01*
X35849821Y-42399170D01*
X35819701Y-42406301D01*
X35432255Y-42525414D01*
X35088166Y-42680646D01*
X34787304Y-42872138D01*
X34529535Y-43100028D01*
X34314728Y-43364455D01*
X34142752Y-43665559D01*
X34013473Y-44003479D01*
X33926760Y-44378353D01*
X33922016Y-44407666D01*
X33900412Y-44608832D01*
X33891024Y-44844890D01*
X33893442Y-45095719D01*
X33907257Y-45341197D01*
X33932060Y-45561202D01*
X33947271Y-45649444D01*
X34063912Y-46095280D01*
X34235732Y-46535487D01*
X34461601Y-46968367D01*
X34740389Y-47392225D01*
X35070968Y-47805364D01*
X35452208Y-48206088D01*
X35882979Y-48592700D01*
X35935180Y-48635801D01*
X36078841Y-48751032D01*
X36221503Y-48861174D01*
X36356462Y-48961504D01*
X36477015Y-49047303D01*
X36576459Y-49113850D01*
X36648090Y-49156426D01*
X36685204Y-49170309D01*
X36688888Y-49166553D01*
X36682815Y-49127041D01*
X36666635Y-49047411D01*
X36643407Y-48942432D01*
X36634242Y-48902711D01*
X36605280Y-48770872D01*
X36575178Y-48620852D01*
X36545747Y-48463345D01*
X36518797Y-48309044D01*
X36496135Y-48168646D01*
X36479572Y-48052842D01*
X36470918Y-47972329D01*
X36471236Y-47939289D01*
X36483309Y-47951586D01*
X36508327Y-48008607D01*
X36542630Y-48101127D01*
X36582331Y-48219221D01*
X36766328Y-48739343D01*
X36983273Y-49265347D01*
X37224528Y-49777928D01*
X37481454Y-50257779D01*
X37538194Y-50355296D01*
X37667522Y-50568806D01*
X37814453Y-50802370D01*
X37972233Y-51045935D01*
X38134109Y-51289449D01*
X38293325Y-51522858D01*
X38443127Y-51736108D01*
X38576761Y-51919145D01*
X38671245Y-52041777D01*
X39157809Y-52606693D01*
X39682585Y-53132302D01*
X40242580Y-53616557D01*
X40834799Y-54057412D01*
X41456249Y-54452819D01*
X42103936Y-54800730D01*
X42774866Y-55099098D01*
X43466047Y-55345876D01*
X43532777Y-55366600D01*
X44057666Y-55510741D01*
X44605669Y-55630149D01*
X45153110Y-55720141D01*
X45550666Y-55765659D01*
X45663550Y-55773089D01*
X45818444Y-55779299D01*
X46004493Y-55784222D01*
X46210842Y-55787789D01*
X46426636Y-55789932D01*
X46641020Y-55790584D01*
X46843140Y-55789676D01*
X47022139Y-55787140D01*
X47167164Y-55782908D01*
X47267360Y-55776913D01*
X47272222Y-55776444D01*
X48031198Y-55677671D01*
X48756215Y-55535421D01*
X49451084Y-55348166D01*
X50119614Y-55114375D01*
X50765616Y-54832519D01*
X51392901Y-54501068D01*
X52005278Y-54118492D01*
X52606558Y-53683262D01*
X52733222Y-53583878D01*
X52880099Y-53460380D01*
X53054368Y-53302984D01*
X53246915Y-53120843D01*
X53448623Y-52923111D01*
X53650381Y-52718941D01*
X53843072Y-52517484D01*
X54017584Y-52327895D01*
X54164801Y-52159326D01*
X54226666Y-52084111D01*
X54322412Y-51959227D01*
X54441533Y-51795680D01*
X54577716Y-51602814D01*
X54724649Y-51389971D01*
X54876018Y-51166496D01*
X55025513Y-50941733D01*
X55166819Y-50725024D01*
X55293625Y-50525714D01*
X55399619Y-50353146D01*
X55425188Y-50310074D01*
X55719409Y-49766569D01*
X55990816Y-49176814D01*
X56236452Y-48547396D01*
X56305093Y-48350591D01*
X56354868Y-48206321D01*
X56398664Y-48083803D01*
X56433264Y-47991691D01*
X56455449Y-47938636D01*
X56461788Y-47929270D01*
X56462558Y-47961354D01*
X56453792Y-48038598D01*
X56437245Y-48150858D01*
X56414675Y-48287990D01*
X56387838Y-48439850D01*
X56358489Y-48596295D01*
X56328386Y-48747181D01*
X56299285Y-48882365D01*
X56289197Y-48926059D01*
X56260574Y-49048337D01*
X56237535Y-49148928D01*
X56222752Y-49216022D01*
X56218666Y-49237719D01*
X56240230Y-49228290D01*
X56298596Y-49192562D01*
X56384278Y-49136537D01*
X56465611Y-49081483D01*
X56881370Y-48775572D01*
X57278510Y-48442625D01*
X57648598Y-48090862D01*
X57983199Y-47728506D01*
X58273878Y-47363775D01*
X58375241Y-47220124D01*
X58590082Y-46866488D01*
X58775800Y-46485646D01*
X58925818Y-46093307D01*
X58982978Y-45887391D01*
X56129539Y-45887391D01*
X56120590Y-46095635D01*
X56096133Y-46309207D01*
X56054574Y-46534911D01*
X55994323Y-46779553D01*
X55913785Y-47049939D01*
X55811367Y-47352876D01*
X55685478Y-47695168D01*
X55601150Y-47914234D01*
X55503118Y-48167002D01*
X55422664Y-48379250D01*
X55356169Y-48562769D01*
X55300014Y-48729352D01*
X55250580Y-48890792D01*
X55204249Y-49058881D01*
X55157402Y-49245412D01*
X55106421Y-49462177D01*
X55050288Y-49709404D01*
X54958770Y-50098404D01*
X54870813Y-50435107D01*
X54785164Y-50723453D01*
X54700572Y-50967384D01*
X54615785Y-51170842D01*
X54537368Y-51324198D01*
X54423636Y-51510984D01*
X54305029Y-51676724D01*
X54175459Y-51826070D01*
X54028836Y-51963675D01*
X53859073Y-52094190D01*
X53660079Y-52222267D01*
X53425765Y-52352559D01*
X53150044Y-52489717D01*
X52826825Y-52638394D01*
X52803777Y-52648678D01*
X52583496Y-52747524D01*
X52404253Y-52830112D01*
X52255129Y-52902232D01*
X52125202Y-52969674D01*
X52003550Y-53038226D01*
X51879251Y-53113679D01*
X51741385Y-53201820D01*
X51660687Y-53254603D01*
X51501175Y-53356521D01*
X51346837Y-53448080D01*
X51190810Y-53532127D01*
X51026231Y-53611511D01*
X50846237Y-53689076D01*
X50643966Y-53767672D01*
X50412555Y-53850143D01*
X50145142Y-53939338D01*
X49834863Y-54038103D01*
X49586444Y-54115085D01*
X49223838Y-54225057D01*
X48905102Y-54317742D01*
X48620915Y-54394741D01*
X48361956Y-54457656D01*
X48118906Y-54508088D01*
X47882444Y-54547639D01*
X47643249Y-54577910D01*
X47392000Y-54600502D01*
X47119378Y-54617018D01*
X46816061Y-54629057D01*
X46552555Y-54636362D01*
X46236725Y-54643918D01*
X45971037Y-54650036D01*
X45749206Y-54654718D01*
X45564950Y-54657966D01*
X45411983Y-54659780D01*
X45284021Y-54660162D01*
X45174781Y-54659112D01*
X45077978Y-54656633D01*
X44987328Y-54652725D01*
X44896547Y-54647389D01*
X44799351Y-54640627D01*
X44746333Y-54636708D01*
X44412172Y-54602683D01*
X44093339Y-54550216D01*
X43783808Y-54476687D01*
X43477551Y-54379477D01*
X43168544Y-54255964D01*
X42850758Y-54103530D01*
X42518168Y-53919554D01*
X42164748Y-53701416D01*
X41784470Y-53446497D01*
X41430222Y-53195027D01*
X41267585Y-53079355D01*
X41074585Y-52945672D01*
X40868722Y-52805886D01*
X40667495Y-52671908D01*
X40527111Y-52580446D01*
X40227383Y-52384877D01*
X39971526Y-52211509D01*
X39753787Y-52055642D01*
X39568415Y-51912577D01*
X39409657Y-51777615D01*
X39271762Y-51646056D01*
X39148977Y-51513202D01*
X39035550Y-51374353D01*
X39010417Y-51341388D01*
X38892766Y-51176296D01*
X38788235Y-51008406D01*
X38693878Y-50830375D01*
X38606747Y-50634856D01*
X38523897Y-50414504D01*
X38442381Y-50161974D01*
X38359253Y-49869920D01*
X38271568Y-49530997D01*
X38251111Y-49448352D01*
X38182497Y-49172085D01*
X38122540Y-48941184D01*
X38067230Y-48746012D01*
X38012557Y-48576930D01*
X37954513Y-48424300D01*
X37889087Y-48278483D01*
X37812270Y-48129843D01*
X37720052Y-47968739D01*
X37608424Y-47785535D01*
X37473377Y-47570591D01*
X37463392Y-47554817D01*
X37279681Y-47255762D01*
X37130467Y-46991980D01*
X37012728Y-46756578D01*
X36923443Y-46542660D01*
X36859589Y-46343331D01*
X36818144Y-46151695D01*
X36804211Y-46050707D01*
X36796827Y-45938173D01*
X36793744Y-45779652D01*
X36794593Y-45585410D01*
X36799002Y-45365711D01*
X36806602Y-45130820D01*
X36817022Y-44891000D01*
X36829892Y-44656518D01*
X36844842Y-44437637D01*
X36861502Y-44244622D01*
X36873251Y-44136421D01*
X36897677Y-43955128D01*
X36928695Y-43754926D01*
X36961996Y-43562387D01*
X36988146Y-43428084D01*
X37050476Y-43155902D01*
X37119887Y-42908618D01*
X37200548Y-42678428D01*
X37296628Y-42457529D01*
X37412295Y-42238117D01*
X37551719Y-42012390D01*
X37719070Y-41772542D01*
X37918515Y-41510771D01*
X38154225Y-41219272D01*
X38193621Y-41171714D01*
X38330473Y-41006429D01*
X38469592Y-40837483D01*
X38602126Y-40675694D01*
X38719220Y-40531880D01*
X38812020Y-40416861D01*
X38836653Y-40386000D01*
X38973179Y-40220960D01*
X39107149Y-40075107D01*
X39246187Y-39942666D01*
X39397919Y-39817863D01*
X39569969Y-39694923D01*
X39769963Y-39568072D01*
X40005525Y-39431536D01*
X40284281Y-39279540D01*
X40329555Y-39255441D01*
X40592972Y-39114293D01*
X40813938Y-38991798D01*
X41000626Y-38881648D01*
X41161211Y-38777537D01*
X41303868Y-38673156D01*
X41436771Y-38562198D01*
X41568093Y-38438356D01*
X41706010Y-38295323D01*
X41858695Y-38126791D01*
X41998383Y-37967746D01*
X42133092Y-37814984D01*
X42268172Y-37665057D01*
X42395005Y-37527293D01*
X42504975Y-37411019D01*
X42589465Y-37325561D01*
X42608410Y-37307463D01*
X42784776Y-37156555D01*
X42976359Y-37016715D01*
X43167430Y-36898394D01*
X43342257Y-36812042D01*
X43371706Y-36800352D01*
X43648948Y-36716333D01*
X43967417Y-36656887D01*
X44317022Y-36623081D01*
X44687673Y-36615979D01*
X44986222Y-36629764D01*
X45303230Y-36653339D01*
X45572177Y-36672706D01*
X45801275Y-36688029D01*
X45998737Y-36699471D01*
X46172776Y-36707198D01*
X46331606Y-36711372D01*
X46483439Y-36712157D01*
X46636487Y-36709718D01*
X46798965Y-36704219D01*
X46979086Y-36695823D01*
X47185061Y-36684694D01*
X47328851Y-36676522D01*
X47694155Y-36657745D01*
X48010503Y-36646688D01*
X48284916Y-36643857D01*
X48524420Y-36649756D01*
X48736038Y-36664891D01*
X48926794Y-36689767D01*
X49103711Y-36724888D01*
X49273814Y-36770759D01*
X49444127Y-36827885D01*
X49446529Y-36828761D01*
X49610193Y-36894040D01*
X49766997Y-36969410D01*
X49923098Y-37059365D01*
X50084654Y-37168400D01*
X50257822Y-37301009D01*
X50448760Y-37461685D01*
X50663626Y-37654924D01*
X50908578Y-37885219D01*
X50955222Y-37929882D01*
X51286245Y-38235372D01*
X51621606Y-38518765D01*
X51985333Y-38800403D01*
X52276996Y-39019645D01*
X52529194Y-39214425D01*
X52749239Y-39391867D01*
X52944445Y-39559094D01*
X53122125Y-39723232D01*
X53289591Y-39891404D01*
X53454156Y-40070736D01*
X53623135Y-40268351D01*
X53803838Y-40491374D01*
X54003581Y-40746929D01*
X54064156Y-40825595D01*
X54293478Y-41125960D01*
X54490645Y-41389028D01*
X54659395Y-41621064D01*
X54803467Y-41828333D01*
X54926601Y-42017098D01*
X55032536Y-42193625D01*
X55125010Y-42364177D01*
X55207763Y-42535020D01*
X55284533Y-42712417D01*
X55359060Y-42902634D01*
X55435082Y-43111934D01*
X55444145Y-43137666D01*
X55574496Y-43510576D01*
X55686604Y-43836021D01*
X55781925Y-44119433D01*
X55861912Y-44366244D01*
X55928022Y-44581883D01*
X55981708Y-44771784D01*
X56024426Y-44941376D01*
X56057631Y-45096092D01*
X56082778Y-45241363D01*
X56101322Y-45382620D01*
X56114718Y-45525294D01*
X56124421Y-45674817D01*
X56124574Y-45677666D01*
X56129539Y-45887391D01*
X58982978Y-45887391D01*
X59033559Y-45705180D01*
X59056452Y-45593000D01*
X59079455Y-45417860D01*
X59092281Y-45206135D01*
X59095349Y-44973100D01*
X59089074Y-44734027D01*
X59073875Y-44504191D01*
X59050170Y-44298866D01*
X59018375Y-44133324D01*
X59016338Y-44125444D01*
X58946471Y-43910305D01*
X58850599Y-43686509D01*
X58737477Y-43471049D01*
X58615860Y-43280921D01*
X58517981Y-43158088D01*
X58262316Y-42917974D01*
X57964830Y-42715764D01*
X57625525Y-42551460D01*
X57244405Y-42425064D01*
X56821473Y-42336576D01*
X56418978Y-42290388D01*
X56295988Y-42281682D01*
X56219585Y-42279148D01*
X56180121Y-42284068D01*
X56167951Y-42297724D01*
X56173428Y-42321398D01*
X56174020Y-42322941D01*
X56196725Y-42394660D01*
X56227188Y-42509022D01*
X56262486Y-42653244D01*
X56299694Y-42814546D01*
X56335887Y-42980144D01*
X56368141Y-43137259D01*
X56393529Y-43273107D01*
X56399334Y-43307582D01*
X56420811Y-43439476D01*
X56440675Y-43561240D01*
X56456004Y-43654982D01*
X56461426Y-43688000D01*
X56469400Y-43750911D01*
X56464752Y-43768192D01*
X56446725Y-43738187D01*
X56414561Y-43659239D01*
X56367503Y-43529691D01*
X56304795Y-43347885D01*
X56301288Y-43337551D01*
X56176301Y-42984031D01*
X56047478Y-42652300D01*
X55910378Y-42333668D01*
X55760564Y-42019444D01*
X55593596Y-41700939D01*
X55405034Y-41369463D01*
X55190440Y-41016325D01*
X54945373Y-40632835D01*
X54829461Y-40456348D01*
X54611108Y-40133836D01*
X54406596Y-39849337D01*
X54205571Y-39589868D01*
X53997676Y-39342448D01*
X53772559Y-39094092D01*
X53594486Y-38907911D01*
X53048657Y-38387196D01*
X52471678Y-37912694D01*
X51865713Y-37485432D01*
X51232927Y-37106436D01*
X50575485Y-36776732D01*
X49895551Y-36497349D01*
X49195291Y-36269312D01*
X48476867Y-36093648D01*
X47742446Y-35971385D01*
X47305923Y-35924999D01*
X47108160Y-35912913D01*
X46870899Y-35905803D01*
X46606531Y-35903416D01*
X46327448Y-35905500D01*
G36*
X41541492Y-51460686D02*
X41461731Y-51523313D01*
X41413125Y-51612982D01*
X41402135Y-51716505D01*
X41435220Y-51820695D01*
X41448432Y-51841510D01*
X41487087Y-51872709D01*
X41568995Y-51922867D01*
X41685871Y-51987933D01*
X41829426Y-52063854D01*
X41991376Y-52146577D01*
X42163432Y-52232049D01*
X42337310Y-52316218D01*
X42504721Y-52395030D01*
X42657380Y-52464434D01*
X42787001Y-52520377D01*
X42885295Y-52558805D01*
X42943978Y-52575666D01*
X42950420Y-52576090D01*
X43032943Y-52563144D01*
X43085058Y-52544991D01*
X43159833Y-52480002D01*
X43198870Y-52383671D01*
X43198270Y-52271265D01*
X43174283Y-52195723D01*
X43138235Y-52159915D01*
X43058537Y-52105699D01*
X42943327Y-52037108D01*
X42800747Y-51958178D01*
X42638936Y-51872942D01*
X42466035Y-51785435D01*
X42290183Y-51699690D01*
X42119520Y-51619742D01*
X41962188Y-51549624D01*
X41826324Y-51493372D01*
X41720071Y-51455019D01*
X41651568Y-51438600D01*
X41645949Y-51438289D01*
X41541492Y-51460686D01*
X41541492Y-51460686D01*
G37*
X41541492Y-51460686D02*
X41461731Y-51523313D01*
X41413125Y-51612982D01*
X41402135Y-51716505D01*
X41435220Y-51820695D01*
X41448432Y-51841510D01*
X41487087Y-51872709D01*
X41568995Y-51922867D01*
X41685871Y-51987933D01*
X41829426Y-52063854D01*
X41991376Y-52146577D01*
X42163432Y-52232049D01*
X42337310Y-52316218D01*
X42504721Y-52395030D01*
X42657380Y-52464434D01*
X42787001Y-52520377D01*
X42885295Y-52558805D01*
X42943978Y-52575666D01*
X42950420Y-52576090D01*
X43032943Y-52563144D01*
X43085058Y-52544991D01*
X43159833Y-52480002D01*
X43198870Y-52383671D01*
X43198270Y-52271265D01*
X43174283Y-52195723D01*
X43138235Y-52159915D01*
X43058537Y-52105699D01*
X42943327Y-52037108D01*
X42800747Y-51958178D01*
X42638936Y-51872942D01*
X42466035Y-51785435D01*
X42290183Y-51699690D01*
X42119520Y-51619742D01*
X41962188Y-51549624D01*
X41826324Y-51493372D01*
X41720071Y-51455019D01*
X41651568Y-51438600D01*
X41645949Y-51438289D01*
X41541492Y-51460686D01*
G36*
X47985424Y-51551325D02*
X47911028Y-51592270D01*
X47863392Y-51640428D01*
X47841556Y-51700323D01*
X47836666Y-51785452D01*
X47845992Y-51888772D01*
X47877297Y-51954893D01*
X47892148Y-51970351D01*
X47938200Y-51995861D01*
X48029659Y-52033659D01*
X48157553Y-52080914D01*
X48312907Y-52134796D01*
X48486747Y-52192473D01*
X48670100Y-52251115D01*
X48853992Y-52307891D01*
X49029449Y-52359968D01*
X49187497Y-52404518D01*
X49319162Y-52438708D01*
X49415471Y-52459708D01*
X49460491Y-52465111D01*
X49549535Y-52457026D01*
X49608549Y-52425910D01*
X49640840Y-52390749D01*
X49683484Y-52307198D01*
X49699333Y-52222990D01*
X49695973Y-52167398D01*
X49682203Y-52119710D01*
X49652490Y-52076894D01*
X49601301Y-52035916D01*
X49523102Y-51993742D01*
X49412360Y-51947339D01*
X49263540Y-51893674D01*
X49071111Y-51829713D01*
X48856563Y-51760998D01*
X48661780Y-51700070D01*
X48481250Y-51645314D01*
X48322973Y-51599021D01*
X48194949Y-51563480D01*
X48105180Y-51540984D01*
X48063091Y-51533777D01*
X47985424Y-51551325D01*
X47985424Y-51551325D01*
G37*
X47985424Y-51551325D02*
X47911028Y-51592270D01*
X47863392Y-51640428D01*
X47841556Y-51700323D01*
X47836666Y-51785452D01*
X47845992Y-51888772D01*
X47877297Y-51954893D01*
X47892148Y-51970351D01*
X47938200Y-51995861D01*
X48029659Y-52033659D01*
X48157553Y-52080914D01*
X48312907Y-52134796D01*
X48486747Y-52192473D01*
X48670100Y-52251115D01*
X48853992Y-52307891D01*
X49029449Y-52359968D01*
X49187497Y-52404518D01*
X49319162Y-52438708D01*
X49415471Y-52459708D01*
X49460491Y-52465111D01*
X49549535Y-52457026D01*
X49608549Y-52425910D01*
X49640840Y-52390749D01*
X49683484Y-52307198D01*
X49699333Y-52222990D01*
X49695973Y-52167398D01*
X49682203Y-52119710D01*
X49652490Y-52076894D01*
X49601301Y-52035916D01*
X49523102Y-51993742D01*
X49412360Y-51947339D01*
X49263540Y-51893674D01*
X49071111Y-51829713D01*
X48856563Y-51760998D01*
X48661780Y-51700070D01*
X48481250Y-51645314D01*
X48322973Y-51599021D01*
X48194949Y-51563480D01*
X48105180Y-51540984D01*
X48063091Y-51533777D01*
X47985424Y-51551325D01*
G36*
X50957000Y-49941308D02*
X50861806Y-49949848D01*
X50727017Y-49965831D01*
X50560655Y-49988229D01*
X50370742Y-50016015D01*
X50165301Y-50048163D01*
X50150888Y-50050494D01*
X49921465Y-50087943D01*
X49741200Y-50118261D01*
X49603485Y-50143018D01*
X49501708Y-50163783D01*
X49429260Y-50182127D01*
X49379530Y-50199619D01*
X49345907Y-50217827D01*
X49321781Y-50238322D01*
X49311277Y-50249844D01*
X49258335Y-50350882D01*
X49253247Y-50464011D01*
X49296287Y-50570959D01*
X49306270Y-50584527D01*
X49345041Y-50626070D01*
X49389751Y-50647952D01*
X49458595Y-50655729D01*
X49539104Y-50655606D01*
X49626692Y-50649700D01*
X49755984Y-50635503D01*
X49913143Y-50614792D01*
X50084332Y-50589342D01*
X50193222Y-50571664D01*
X50368332Y-50542256D01*
X50540023Y-50513479D01*
X50693795Y-50487759D01*
X50815148Y-50467523D01*
X50866567Y-50458990D01*
X51004746Y-50428222D01*
X51095066Y-50385626D01*
X51145929Y-50323944D01*
X51165736Y-50235917D01*
X51166888Y-50199501D01*
X51147953Y-50072458D01*
X51092509Y-49985147D01*
X51004576Y-49941236D01*
X50957000Y-49941308D01*
X50957000Y-49941308D01*
G37*
X50957000Y-49941308D02*
X50861806Y-49949848D01*
X50727017Y-49965831D01*
X50560655Y-49988229D01*
X50370742Y-50016015D01*
X50165301Y-50048163D01*
X50150888Y-50050494D01*
X49921465Y-50087943D01*
X49741200Y-50118261D01*
X49603485Y-50143018D01*
X49501708Y-50163783D01*
X49429260Y-50182127D01*
X49379530Y-50199619D01*
X49345907Y-50217827D01*
X49321781Y-50238322D01*
X49311277Y-50249844D01*
X49258335Y-50350882D01*
X49253247Y-50464011D01*
X49296287Y-50570959D01*
X49306270Y-50584527D01*
X49345041Y-50626070D01*
X49389751Y-50647952D01*
X49458595Y-50655729D01*
X49539104Y-50655606D01*
X49626692Y-50649700D01*
X49755984Y-50635503D01*
X49913143Y-50614792D01*
X50084332Y-50589342D01*
X50193222Y-50571664D01*
X50368332Y-50542256D01*
X50540023Y-50513479D01*
X50693795Y-50487759D01*
X50815148Y-50467523D01*
X50866567Y-50458990D01*
X51004746Y-50428222D01*
X51095066Y-50385626D01*
X51145929Y-50323944D01*
X51165736Y-50235917D01*
X51166888Y-50199501D01*
X51147953Y-50072458D01*
X51092509Y-49985147D01*
X51004576Y-49941236D01*
X50957000Y-49941308D01*
G36*
X41926356Y-48156412D02*
X41812653Y-48193578D01*
X41741061Y-48268086D01*
X41712858Y-48378505D01*
X41712444Y-48396209D01*
X41719503Y-48466432D01*
X41739145Y-48577907D01*
X41769063Y-48721615D01*
X41806953Y-48888537D01*
X41850509Y-49069655D01*
X41897427Y-49255951D01*
X41945400Y-49438405D01*
X41992125Y-49608001D01*
X42035295Y-49755719D01*
X42072605Y-49872541D01*
X42101751Y-49949449D01*
X42115870Y-49974500D01*
X42196826Y-50025988D01*
X42299970Y-50043385D01*
X42403965Y-50027293D01*
X42487470Y-49978314D01*
X42500618Y-49963638D01*
X42541928Y-49891828D01*
X42559111Y-49823596D01*
X42559111Y-49823593D01*
X42552503Y-49779451D01*
X42533875Y-49688472D01*
X42505020Y-49558545D01*
X42467733Y-49397562D01*
X42423807Y-49213413D01*
X42375535Y-49016010D01*
X42319318Y-48790633D01*
X42273860Y-48613666D01*
X42237063Y-48478561D01*
X42206826Y-48378767D01*
X42181053Y-48307736D01*
X42157642Y-48258918D01*
X42134496Y-48225763D01*
X42116437Y-48207579D01*
X42051830Y-48163325D01*
X41981516Y-48151538D01*
X41926356Y-48156412D01*
X41926356Y-48156412D01*
G37*
X41926356Y-48156412D02*
X41812653Y-48193578D01*
X41741061Y-48268086D01*
X41712858Y-48378505D01*
X41712444Y-48396209D01*
X41719503Y-48466432D01*
X41739145Y-48577907D01*
X41769063Y-48721615D01*
X41806953Y-48888537D01*
X41850509Y-49069655D01*
X41897427Y-49255951D01*
X41945400Y-49438405D01*
X41992125Y-49608001D01*
X42035295Y-49755719D01*
X42072605Y-49872541D01*
X42101751Y-49949449D01*
X42115870Y-49974500D01*
X42196826Y-50025988D01*
X42299970Y-50043385D01*
X42403965Y-50027293D01*
X42487470Y-49978314D01*
X42500618Y-49963638D01*
X42541928Y-49891828D01*
X42559111Y-49823596D01*
X42559111Y-49823593D01*
X42552503Y-49779451D01*
X42533875Y-49688472D01*
X42505020Y-49558545D01*
X42467733Y-49397562D01*
X42423807Y-49213413D01*
X42375535Y-49016010D01*
X42319318Y-48790633D01*
X42273860Y-48613666D01*
X42237063Y-48478561D01*
X42206826Y-48378767D01*
X42181053Y-48307736D01*
X42157642Y-48258918D01*
X42134496Y-48225763D01*
X42116437Y-48207579D01*
X42051830Y-48163325D01*
X41981516Y-48151538D01*
X41926356Y-48156412D01*
G36*
X51858665Y-44650275D02*
X51810803Y-44662089D01*
X51768098Y-44688483D01*
X51727455Y-44734942D01*
X51685777Y-44806950D01*
X51639971Y-44909992D01*
X51586941Y-45049552D01*
X51523593Y-45231116D01*
X51446830Y-45460167D01*
X51433471Y-45500457D01*
X51356330Y-45735176D01*
X51296744Y-45922939D01*
X51253740Y-46070105D01*
X51226346Y-46183036D01*
X51213591Y-46268093D01*
X51214503Y-46331636D01*
X51228110Y-46380026D01*
X51253439Y-46419624D01*
X51287615Y-46455022D01*
X51374676Y-46501166D01*
X51480349Y-46508878D01*
X51582413Y-46478699D01*
X51628333Y-46446722D01*
X51658051Y-46400611D01*
X51700371Y-46309205D01*
X51752280Y-46181449D01*
X51810760Y-46026290D01*
X51872798Y-45852672D01*
X51935376Y-45669541D01*
X51995481Y-45485843D01*
X52050097Y-45310524D01*
X52096207Y-45152528D01*
X52130797Y-45020802D01*
X52150852Y-44924290D01*
X52154666Y-44885297D01*
X52132600Y-44769126D01*
X52068586Y-44689978D01*
X51965905Y-44651101D01*
X51914777Y-44647555D01*
X51858665Y-44650275D01*
X51858665Y-44650275D01*
G37*
X51858665Y-44650275D02*
X51810803Y-44662089D01*
X51768098Y-44688483D01*
X51727455Y-44734942D01*
X51685777Y-44806950D01*
X51639971Y-44909992D01*
X51586941Y-45049552D01*
X51523593Y-45231116D01*
X51446830Y-45460167D01*
X51433471Y-45500457D01*
X51356330Y-45735176D01*
X51296744Y-45922939D01*
X51253740Y-46070105D01*
X51226346Y-46183036D01*
X51213591Y-46268093D01*
X51214503Y-46331636D01*
X51228110Y-46380026D01*
X51253439Y-46419624D01*
X51287615Y-46455022D01*
X51374676Y-46501166D01*
X51480349Y-46508878D01*
X51582413Y-46478699D01*
X51628333Y-46446722D01*
X51658051Y-46400611D01*
X51700371Y-46309205D01*
X51752280Y-46181449D01*
X51810760Y-46026290D01*
X51872798Y-45852672D01*
X51935376Y-45669541D01*
X51995481Y-45485843D01*
X52050097Y-45310524D01*
X52096207Y-45152528D01*
X52130797Y-45020802D01*
X52150852Y-44924290D01*
X52154666Y-44885297D01*
X52132600Y-44769126D01*
X52068586Y-44689978D01*
X51965905Y-44651101D01*
X51914777Y-44647555D01*
X51858665Y-44650275D01*
G36*
X39646378Y-43944538D02*
X39618300Y-43952719D01*
X39581151Y-43971048D01*
X39530483Y-44002478D01*
X39461848Y-44049965D01*
X39370798Y-44116465D01*
X39252884Y-44204932D01*
X39103659Y-44318323D01*
X38918673Y-44459592D01*
X38693479Y-44631695D01*
X38672714Y-44647555D01*
X38555798Y-44739736D01*
X38453993Y-44825403D01*
X38376594Y-44896337D01*
X38332899Y-44944319D01*
X38328086Y-44952272D01*
X38296483Y-45072379D01*
X38313918Y-45179140D01*
X38374289Y-45262675D01*
X38471494Y-45313106D01*
X38557328Y-45323430D01*
X38602692Y-45320357D01*
X38647660Y-45309240D01*
X38699758Y-45285502D01*
X38766513Y-45244563D01*
X38855453Y-45181845D01*
X38974103Y-45092769D01*
X39116000Y-44983582D01*
X39328382Y-44819271D01*
X39500452Y-44685628D01*
X39636449Y-44578661D01*
X39740612Y-44494380D01*
X39817180Y-44428796D01*
X39870392Y-44377917D01*
X39904487Y-44337752D01*
X39923704Y-44304312D01*
X39932283Y-44273606D01*
X39934461Y-44241643D01*
X39934444Y-44213110D01*
X39916281Y-44089019D01*
X39859938Y-44005487D01*
X39762633Y-43959105D01*
X39720673Y-43951320D01*
X39693116Y-43946793D01*
X39669834Y-43943548D01*
X39646378Y-43944538D01*
X39646378Y-43944538D01*
G37*
X39646378Y-43944538D02*
X39618300Y-43952719D01*
X39581151Y-43971048D01*
X39530483Y-44002478D01*
X39461848Y-44049965D01*
X39370798Y-44116465D01*
X39252884Y-44204932D01*
X39103659Y-44318323D01*
X38918673Y-44459592D01*
X38693479Y-44631695D01*
X38672714Y-44647555D01*
X38555798Y-44739736D01*
X38453993Y-44825403D01*
X38376594Y-44896337D01*
X38332899Y-44944319D01*
X38328086Y-44952272D01*
X38296483Y-45072379D01*
X38313918Y-45179140D01*
X38374289Y-45262675D01*
X38471494Y-45313106D01*
X38557328Y-45323430D01*
X38602692Y-45320357D01*
X38647660Y-45309240D01*
X38699758Y-45285502D01*
X38766513Y-45244563D01*
X38855453Y-45181845D01*
X38974103Y-45092769D01*
X39116000Y-44983582D01*
X39328382Y-44819271D01*
X39500452Y-44685628D01*
X39636449Y-44578661D01*
X39740612Y-44494380D01*
X39817180Y-44428796D01*
X39870392Y-44377917D01*
X39904487Y-44337752D01*
X39923704Y-44304312D01*
X39932283Y-44273606D01*
X39934461Y-44241643D01*
X39934444Y-44213110D01*
X39916281Y-44089019D01*
X39859938Y-44005487D01*
X39762633Y-43959105D01*
X39720673Y-43951320D01*
X39693116Y-43946793D01*
X39669834Y-43943548D01*
X39646378Y-43944538D01*
G36*
X41444333Y-40366178D02*
X41261489Y-40375867D01*
X41093552Y-40390941D01*
X40955563Y-40409813D01*
X40879888Y-40425742D01*
X40627252Y-40515159D01*
X40389387Y-40639760D01*
X40176416Y-40792198D01*
X39998465Y-40965124D01*
X39865654Y-41151191D01*
X39855881Y-41169043D01*
X39743686Y-41428323D01*
X39662018Y-41719868D01*
X39613380Y-42026947D01*
X39600277Y-42332828D01*
X39625212Y-42620781D01*
X39632474Y-42661846D01*
X39718210Y-42991508D01*
X39842113Y-43279591D01*
X40004204Y-43526119D01*
X40204505Y-43731117D01*
X40443038Y-43894609D01*
X40719825Y-44016619D01*
X40856917Y-44058011D01*
X41034052Y-44092931D01*
X41247838Y-44116795D01*
X41479457Y-44128998D01*
X41710091Y-44128930D01*
X41920922Y-44115983D01*
X42058064Y-44096829D01*
X42374420Y-44012773D01*
X42653156Y-43887922D01*
X42893205Y-43723037D01*
X43093498Y-43518880D01*
X43106435Y-43499192D01*
X42478254Y-43499192D01*
X42302049Y-43676978D01*
X42132107Y-43826196D01*
X41950426Y-43946581D01*
X41771629Y-44029105D01*
X41695010Y-44051719D01*
X41544185Y-44073322D01*
X41363870Y-44078328D01*
X41178393Y-44067164D01*
X41012082Y-44040256D01*
X41009799Y-44039721D01*
X40744484Y-43949247D01*
X40501397Y-43810513D01*
X40290756Y-43629480D01*
X40272000Y-43609422D01*
X40132147Y-43440768D01*
X40035653Y-43281954D01*
X39975557Y-43117249D01*
X39944896Y-42930926D01*
X39939899Y-42859074D01*
X39935121Y-42739140D01*
X39936312Y-42666791D01*
X39944475Y-42633387D01*
X39960614Y-42630289D01*
X39966106Y-42633296D01*
X40006308Y-42659249D01*
X40080404Y-42707523D01*
X40175107Y-42769455D01*
X40216666Y-42796691D01*
X40617127Y-43029053D01*
X41037431Y-43212900D01*
X41482585Y-43349950D01*
X41957595Y-43441922D01*
X42171150Y-43467925D01*
X42478254Y-43499192D01*
X43106435Y-43499192D01*
X43252967Y-43276211D01*
X43277444Y-43228109D01*
X43392853Y-42937942D01*
X43461858Y-42632141D01*
X43485435Y-42303952D01*
X43464561Y-41946621D01*
X43463766Y-41939724D01*
X43459481Y-41914121D01*
X42946815Y-41914121D01*
X42916558Y-42080181D01*
X42845623Y-42238004D01*
X42740362Y-42374310D01*
X42607129Y-42475819D01*
X42576976Y-42491107D01*
X42485229Y-42527723D01*
X42392185Y-42548614D01*
X42276518Y-42557524D01*
X42192222Y-42558678D01*
X42064695Y-42554962D01*
X41943996Y-42545015D01*
X41852598Y-42530820D01*
X41839444Y-42527544D01*
X41736609Y-42479199D01*
X41624864Y-42393313D01*
X41595687Y-42365424D01*
X41481316Y-42214869D01*
X41415764Y-42047983D01*
X41397634Y-41874196D01*
X41425531Y-41702938D01*
X41498058Y-41543640D01*
X41613821Y-41405733D01*
X41752105Y-41308615D01*
X41808280Y-41282482D01*
X41543111Y-41282482D01*
X41521796Y-41420078D01*
X41461576Y-41528511D01*
X41368033Y-41597944D01*
X41362824Y-41600118D01*
X41265052Y-41621253D01*
X41141631Y-41624075D01*
X41019937Y-41609609D01*
X40937628Y-41584167D01*
X40840829Y-41509196D01*
X40782656Y-41400269D01*
X40766985Y-41267909D01*
X40783644Y-41165979D01*
X40834718Y-41062574D01*
X40923520Y-40993903D01*
X41054083Y-40957731D01*
X41171988Y-40950550D01*
X41273685Y-40953051D01*
X41340036Y-40965590D01*
X41392074Y-40995492D01*
X41447155Y-41046400D01*
X41507408Y-41115115D01*
X41535545Y-41179821D01*
X41543051Y-41268774D01*
X41543111Y-41282482D01*
X41808280Y-41282482D01*
X41813020Y-41280277D01*
X41877974Y-41262016D01*
X41961282Y-41251753D01*
X42077262Y-41247410D01*
X42178111Y-41246777D01*
X42319863Y-41248039D01*
X42419619Y-41253370D01*
X42491800Y-41265089D01*
X42550829Y-41285515D01*
X42609746Y-41316175D01*
X42727477Y-41409835D01*
X42831986Y-41541138D01*
X42909492Y-41691287D01*
X42930038Y-41753108D01*
X42946815Y-41914121D01*
X43459481Y-41914121D01*
X43415083Y-41648892D01*
X43338649Y-41398190D01*
X43229095Y-41175930D01*
X43081055Y-40970424D01*
X42956430Y-40835053D01*
X42757300Y-40666623D01*
X42532608Y-40536721D01*
X42277803Y-40443935D01*
X41988333Y-40386855D01*
X41659649Y-40364068D01*
X41444333Y-40366178D01*
X41444333Y-40366178D01*
G37*
X41444333Y-40366178D02*
X41261489Y-40375867D01*
X41093552Y-40390941D01*
X40955563Y-40409813D01*
X40879888Y-40425742D01*
X40627252Y-40515159D01*
X40389387Y-40639760D01*
X40176416Y-40792198D01*
X39998465Y-40965124D01*
X39865654Y-41151191D01*
X39855881Y-41169043D01*
X39743686Y-41428323D01*
X39662018Y-41719868D01*
X39613380Y-42026947D01*
X39600277Y-42332828D01*
X39625212Y-42620781D01*
X39632474Y-42661846D01*
X39718210Y-42991508D01*
X39842113Y-43279591D01*
X40004204Y-43526119D01*
X40204505Y-43731117D01*
X40443038Y-43894609D01*
X40719825Y-44016619D01*
X40856917Y-44058011D01*
X41034052Y-44092931D01*
X41247838Y-44116795D01*
X41479457Y-44128998D01*
X41710091Y-44128930D01*
X41920922Y-44115983D01*
X42058064Y-44096829D01*
X42374420Y-44012773D01*
X42653156Y-43887922D01*
X42893205Y-43723037D01*
X43093498Y-43518880D01*
X43106435Y-43499192D01*
X42478254Y-43499192D01*
X42302049Y-43676978D01*
X42132107Y-43826196D01*
X41950426Y-43946581D01*
X41771629Y-44029105D01*
X41695010Y-44051719D01*
X41544185Y-44073322D01*
X41363870Y-44078328D01*
X41178393Y-44067164D01*
X41012082Y-44040256D01*
X41009799Y-44039721D01*
X40744484Y-43949247D01*
X40501397Y-43810513D01*
X40290756Y-43629480D01*
X40272000Y-43609422D01*
X40132147Y-43440768D01*
X40035653Y-43281954D01*
X39975557Y-43117249D01*
X39944896Y-42930926D01*
X39939899Y-42859074D01*
X39935121Y-42739140D01*
X39936312Y-42666791D01*
X39944475Y-42633387D01*
X39960614Y-42630289D01*
X39966106Y-42633296D01*
X40006308Y-42659249D01*
X40080404Y-42707523D01*
X40175107Y-42769455D01*
X40216666Y-42796691D01*
X40617127Y-43029053D01*
X41037431Y-43212900D01*
X41482585Y-43349950D01*
X41957595Y-43441922D01*
X42171150Y-43467925D01*
X42478254Y-43499192D01*
X43106435Y-43499192D01*
X43252967Y-43276211D01*
X43277444Y-43228109D01*
X43392853Y-42937942D01*
X43461858Y-42632141D01*
X43485435Y-42303952D01*
X43464561Y-41946621D01*
X43463766Y-41939724D01*
X43459481Y-41914121D01*
X42946815Y-41914121D01*
X42916558Y-42080181D01*
X42845623Y-42238004D01*
X42740362Y-42374310D01*
X42607129Y-42475819D01*
X42576976Y-42491107D01*
X42485229Y-42527723D01*
X42392185Y-42548614D01*
X42276518Y-42557524D01*
X42192222Y-42558678D01*
X42064695Y-42554962D01*
X41943996Y-42545015D01*
X41852598Y-42530820D01*
X41839444Y-42527544D01*
X41736609Y-42479199D01*
X41624864Y-42393313D01*
X41595687Y-42365424D01*
X41481316Y-42214869D01*
X41415764Y-42047983D01*
X41397634Y-41874196D01*
X41425531Y-41702938D01*
X41498058Y-41543640D01*
X41613821Y-41405733D01*
X41752105Y-41308615D01*
X41808280Y-41282482D01*
X41543111Y-41282482D01*
X41521796Y-41420078D01*
X41461576Y-41528511D01*
X41368033Y-41597944D01*
X41362824Y-41600118D01*
X41265052Y-41621253D01*
X41141631Y-41624075D01*
X41019937Y-41609609D01*
X40937628Y-41584167D01*
X40840829Y-41509196D01*
X40782656Y-41400269D01*
X40766985Y-41267909D01*
X40783644Y-41165979D01*
X40834718Y-41062574D01*
X40923520Y-40993903D01*
X41054083Y-40957731D01*
X41171988Y-40950550D01*
X41273685Y-40953051D01*
X41340036Y-40965590D01*
X41392074Y-40995492D01*
X41447155Y-41046400D01*
X41507408Y-41115115D01*
X41535545Y-41179821D01*
X41543051Y-41268774D01*
X41543111Y-41282482D01*
X41808280Y-41282482D01*
X41813020Y-41280277D01*
X41877974Y-41262016D01*
X41961282Y-41251753D01*
X42077262Y-41247410D01*
X42178111Y-41246777D01*
X42319863Y-41248039D01*
X42419619Y-41253370D01*
X42491800Y-41265089D01*
X42550829Y-41285515D01*
X42609746Y-41316175D01*
X42727477Y-41409835D01*
X42831986Y-41541138D01*
X42909492Y-41691287D01*
X42930038Y-41753108D01*
X42946815Y-41914121D01*
X43459481Y-41914121D01*
X43415083Y-41648892D01*
X43338649Y-41398190D01*
X43229095Y-41175930D01*
X43081055Y-40970424D01*
X42956430Y-40835053D01*
X42757300Y-40666623D01*
X42532608Y-40536721D01*
X42277803Y-40443935D01*
X41988333Y-40386855D01*
X41659649Y-40364068D01*
X41444333Y-40366178D01*
G36*
X50955222Y-40056205D02*
X50723252Y-40069132D01*
X50532043Y-40091156D01*
X50366204Y-40125643D01*
X50210343Y-40175957D01*
X50049068Y-40245462D01*
X50015528Y-40261610D01*
X49772320Y-40407751D01*
X49568550Y-40590518D01*
X49402166Y-40812562D01*
X49271117Y-41076532D01*
X49187153Y-41331444D01*
X49152727Y-41504811D01*
X49130798Y-41710612D01*
X49121602Y-41931293D01*
X49125370Y-42149300D01*
X49142339Y-42347079D01*
X49171543Y-42502666D01*
X49280165Y-42816110D01*
X49426559Y-43087942D01*
X49610349Y-43317772D01*
X49831161Y-43505209D01*
X50088620Y-43649864D01*
X50367806Y-43747567D01*
X50544281Y-43782362D01*
X50757431Y-43806206D01*
X50988439Y-43818485D01*
X51218492Y-43818587D01*
X51428774Y-43805899D01*
X51567452Y-43786638D01*
X51722896Y-43750598D01*
X51878816Y-43703070D01*
X52020902Y-43649415D01*
X52134842Y-43594991D01*
X52202542Y-43548814D01*
X52267538Y-43501669D01*
X52315554Y-43479013D01*
X52383818Y-43438426D01*
X52469890Y-43359881D01*
X52564132Y-43254747D01*
X52600856Y-43207103D01*
X51985333Y-43207103D01*
X51964897Y-43235499D01*
X51910657Y-43289526D01*
X51833219Y-43359974D01*
X51743185Y-43437631D01*
X51651162Y-43513288D01*
X51567752Y-43577734D01*
X51519666Y-43611573D01*
X51354814Y-43692040D01*
X51154706Y-43745279D01*
X50934443Y-43769553D01*
X50709131Y-43763125D01*
X50507740Y-43727929D01*
X50244148Y-43633526D01*
X50005062Y-43495088D01*
X49801558Y-43319125D01*
X49788186Y-43304759D01*
X49645162Y-43131145D01*
X49546517Y-42965601D01*
X49485342Y-42792627D01*
X49454730Y-42596724D01*
X49451422Y-42549220D01*
X49445817Y-42429166D01*
X49446374Y-42356595D01*
X49454058Y-42322786D01*
X49469832Y-42319017D01*
X49476485Y-42322566D01*
X49516934Y-42348656D01*
X49591239Y-42397044D01*
X49686075Y-42459045D01*
X49727555Y-42486224D01*
X50140897Y-42724361D01*
X50579471Y-42913020D01*
X51044591Y-43052641D01*
X51537567Y-43143661D01*
X51766611Y-43168687D01*
X51869545Y-43179963D01*
X51946438Y-43192744D01*
X51983765Y-43204655D01*
X51985333Y-43207103D01*
X52600856Y-43207103D01*
X52656906Y-43134388D01*
X52738574Y-43010171D01*
X52784467Y-42926000D01*
X52861739Y-42756136D01*
X52917139Y-42601587D01*
X52953818Y-42446767D01*
X52974929Y-42276087D01*
X52983624Y-42073959D01*
X52984230Y-41938222D01*
X52971819Y-41629026D01*
X52969128Y-41609253D01*
X52460265Y-41609253D01*
X52438990Y-41729419D01*
X52420908Y-41794600D01*
X52360196Y-41928089D01*
X52266403Y-42052850D01*
X52153936Y-42153053D01*
X52041488Y-42211540D01*
X51946480Y-42230206D01*
X51815232Y-42241314D01*
X51667459Y-42244706D01*
X51522879Y-42240222D01*
X51401207Y-42227704D01*
X51350333Y-42217100D01*
X51247498Y-42168754D01*
X51135752Y-42082868D01*
X51106575Y-42054979D01*
X50994435Y-41906449D01*
X50930132Y-41740462D01*
X50912231Y-41566810D01*
X50939296Y-41395288D01*
X51009893Y-41235689D01*
X51122585Y-41097806D01*
X51261341Y-40999014D01*
X51319036Y-40972038D01*
X51054000Y-40972038D01*
X51032685Y-41109634D01*
X50972465Y-41218067D01*
X50878922Y-41287500D01*
X50873713Y-41289673D01*
X50789517Y-41308307D01*
X50677494Y-41314712D01*
X50564936Y-41308807D01*
X50479991Y-41290840D01*
X50377589Y-41231276D01*
X50316959Y-41142273D01*
X50293329Y-41015923D01*
X50292627Y-40980400D01*
X50308216Y-40841179D01*
X50356904Y-40741789D01*
X50443499Y-40678092D01*
X50572811Y-40645947D01*
X50688078Y-40640000D01*
X50788533Y-40642824D01*
X50854354Y-40656446D01*
X50907268Y-40688587D01*
X50958044Y-40735955D01*
X51018296Y-40804670D01*
X51046434Y-40869376D01*
X51053940Y-40958329D01*
X51054000Y-40972038D01*
X51319036Y-40972038D01*
X51322662Y-40970343D01*
X51387312Y-40951860D01*
X51469680Y-40941454D01*
X51584156Y-40937017D01*
X51689000Y-40936333D01*
X51830969Y-40937618D01*
X51930894Y-40942998D01*
X52003144Y-40954761D01*
X52062090Y-40975197D01*
X52119001Y-41004812D01*
X52251532Y-41110449D01*
X52361124Y-41257278D01*
X52424360Y-41393476D01*
X52455321Y-41505066D01*
X52460265Y-41609253D01*
X52969128Y-41609253D01*
X52935622Y-41363062D01*
X52872257Y-41130935D01*
X52778341Y-40923250D01*
X52650492Y-40730611D01*
X52485328Y-40543622D01*
X52480373Y-40538618D01*
X52281857Y-40367519D01*
X52062116Y-40235318D01*
X51815633Y-40140271D01*
X51536893Y-40080632D01*
X51220378Y-40054657D01*
X50955222Y-40056205D01*
X50955222Y-40056205D01*
G37*
X50955222Y-40056205D02*
X50723252Y-40069132D01*
X50532043Y-40091156D01*
X50366204Y-40125643D01*
X50210343Y-40175957D01*
X50049068Y-40245462D01*
X50015528Y-40261610D01*
X49772320Y-40407751D01*
X49568550Y-40590518D01*
X49402166Y-40812562D01*
X49271117Y-41076532D01*
X49187153Y-41331444D01*
X49152727Y-41504811D01*
X49130798Y-41710612D01*
X49121602Y-41931293D01*
X49125370Y-42149300D01*
X49142339Y-42347079D01*
X49171543Y-42502666D01*
X49280165Y-42816110D01*
X49426559Y-43087942D01*
X49610349Y-43317772D01*
X49831161Y-43505209D01*
X50088620Y-43649864D01*
X50367806Y-43747567D01*
X50544281Y-43782362D01*
X50757431Y-43806206D01*
X50988439Y-43818485D01*
X51218492Y-43818587D01*
X51428774Y-43805899D01*
X51567452Y-43786638D01*
X51722896Y-43750598D01*
X51878816Y-43703070D01*
X52020902Y-43649415D01*
X52134842Y-43594991D01*
X52202542Y-43548814D01*
X52267538Y-43501669D01*
X52315554Y-43479013D01*
X52383818Y-43438426D01*
X52469890Y-43359881D01*
X52564132Y-43254747D01*
X52600856Y-43207103D01*
X51985333Y-43207103D01*
X51964897Y-43235499D01*
X51910657Y-43289526D01*
X51833219Y-43359974D01*
X51743185Y-43437631D01*
X51651162Y-43513288D01*
X51567752Y-43577734D01*
X51519666Y-43611573D01*
X51354814Y-43692040D01*
X51154706Y-43745279D01*
X50934443Y-43769553D01*
X50709131Y-43763125D01*
X50507740Y-43727929D01*
X50244148Y-43633526D01*
X50005062Y-43495088D01*
X49801558Y-43319125D01*
X49788186Y-43304759D01*
X49645162Y-43131145D01*
X49546517Y-42965601D01*
X49485342Y-42792627D01*
X49454730Y-42596724D01*
X49451422Y-42549220D01*
X49445817Y-42429166D01*
X49446374Y-42356595D01*
X49454058Y-42322786D01*
X49469832Y-42319017D01*
X49476485Y-42322566D01*
X49516934Y-42348656D01*
X49591239Y-42397044D01*
X49686075Y-42459045D01*
X49727555Y-42486224D01*
X50140897Y-42724361D01*
X50579471Y-42913020D01*
X51044591Y-43052641D01*
X51537567Y-43143661D01*
X51766611Y-43168687D01*
X51869545Y-43179963D01*
X51946438Y-43192744D01*
X51983765Y-43204655D01*
X51985333Y-43207103D01*
X52600856Y-43207103D01*
X52656906Y-43134388D01*
X52738574Y-43010171D01*
X52784467Y-42926000D01*
X52861739Y-42756136D01*
X52917139Y-42601587D01*
X52953818Y-42446767D01*
X52974929Y-42276087D01*
X52983624Y-42073959D01*
X52984230Y-41938222D01*
X52971819Y-41629026D01*
X52969128Y-41609253D01*
X52460265Y-41609253D01*
X52438990Y-41729419D01*
X52420908Y-41794600D01*
X52360196Y-41928089D01*
X52266403Y-42052850D01*
X52153936Y-42153053D01*
X52041488Y-42211540D01*
X51946480Y-42230206D01*
X51815232Y-42241314D01*
X51667459Y-42244706D01*
X51522879Y-42240222D01*
X51401207Y-42227704D01*
X51350333Y-42217100D01*
X51247498Y-42168754D01*
X51135752Y-42082868D01*
X51106575Y-42054979D01*
X50994435Y-41906449D01*
X50930132Y-41740462D01*
X50912231Y-41566810D01*
X50939296Y-41395288D01*
X51009893Y-41235689D01*
X51122585Y-41097806D01*
X51261341Y-40999014D01*
X51319036Y-40972038D01*
X51054000Y-40972038D01*
X51032685Y-41109634D01*
X50972465Y-41218067D01*
X50878922Y-41287500D01*
X50873713Y-41289673D01*
X50789517Y-41308307D01*
X50677494Y-41314712D01*
X50564936Y-41308807D01*
X50479991Y-41290840D01*
X50377589Y-41231276D01*
X50316959Y-41142273D01*
X50293329Y-41015923D01*
X50292627Y-40980400D01*
X50308216Y-40841179D01*
X50356904Y-40741789D01*
X50443499Y-40678092D01*
X50572811Y-40645947D01*
X50688078Y-40640000D01*
X50788533Y-40642824D01*
X50854354Y-40656446D01*
X50907268Y-40688587D01*
X50958044Y-40735955D01*
X51018296Y-40804670D01*
X51046434Y-40869376D01*
X51053940Y-40958329D01*
X51054000Y-40972038D01*
X51319036Y-40972038D01*
X51322662Y-40970343D01*
X51387312Y-40951860D01*
X51469680Y-40941454D01*
X51584156Y-40937017D01*
X51689000Y-40936333D01*
X51830969Y-40937618D01*
X51930894Y-40942998D01*
X52003144Y-40954761D01*
X52062090Y-40975197D01*
X52119001Y-41004812D01*
X52251532Y-41110449D01*
X52361124Y-41257278D01*
X52424360Y-41393476D01*
X52455321Y-41505066D01*
X52460265Y-41609253D01*
X52969128Y-41609253D01*
X52935622Y-41363062D01*
X52872257Y-41130935D01*
X52778341Y-40923250D01*
X52650492Y-40730611D01*
X52485328Y-40543622D01*
X52480373Y-40538618D01*
X52281857Y-40367519D01*
X52062116Y-40235318D01*
X51815633Y-40140271D01*
X51536893Y-40080632D01*
X51220378Y-40054657D01*
X50955222Y-40056205D01*
G36*
X46364913Y-40502714D02*
X46272233Y-40534167D01*
X46235908Y-40562389D01*
X46206344Y-40603852D01*
X46153782Y-40687205D01*
X46082660Y-40805009D01*
X45997417Y-40949828D01*
X45902493Y-41114222D01*
X45821766Y-41256252D01*
X45710181Y-41455150D01*
X45624072Y-41612002D01*
X45560311Y-41733423D01*
X45515773Y-41826030D01*
X45487332Y-41896437D01*
X45471862Y-41951260D01*
X45466236Y-41997115D01*
X45466000Y-42009148D01*
X45473941Y-42098262D01*
X45504570Y-42157178D01*
X45540361Y-42190173D01*
X45638292Y-42238536D01*
X45745453Y-42247428D01*
X45841983Y-42217139D01*
X45882167Y-42185166D01*
X45911836Y-42143653D01*
X45963859Y-42060998D01*
X46033468Y-41945556D01*
X46115894Y-41805688D01*
X46206368Y-41649749D01*
X46300123Y-41486099D01*
X46392390Y-41323094D01*
X46478400Y-41169094D01*
X46553384Y-41032454D01*
X46612575Y-40921534D01*
X46651204Y-40844692D01*
X46663365Y-40815945D01*
X46668227Y-40735653D01*
X46646264Y-40643617D01*
X46605690Y-40564292D01*
X46566261Y-40526894D01*
X46471021Y-40499420D01*
X46364913Y-40502714D01*
X46364913Y-40502714D01*
G37*
X46364913Y-40502714D02*
X46272233Y-40534167D01*
X46235908Y-40562389D01*
X46206344Y-40603852D01*
X46153782Y-40687205D01*
X46082660Y-40805009D01*
X45997417Y-40949828D01*
X45902493Y-41114222D01*
X45821766Y-41256252D01*
X45710181Y-41455150D01*
X45624072Y-41612002D01*
X45560311Y-41733423D01*
X45515773Y-41826030D01*
X45487332Y-41896437D01*
X45471862Y-41951260D01*
X45466236Y-41997115D01*
X45466000Y-42009148D01*
X45473941Y-42098262D01*
X45504570Y-42157178D01*
X45540361Y-42190173D01*
X45638292Y-42238536D01*
X45745453Y-42247428D01*
X45841983Y-42217139D01*
X45882167Y-42185166D01*
X45911836Y-42143653D01*
X45963859Y-42060998D01*
X46033468Y-41945556D01*
X46115894Y-41805688D01*
X46206368Y-41649749D01*
X46300123Y-41486099D01*
X46392390Y-41323094D01*
X46478400Y-41169094D01*
X46553384Y-41032454D01*
X46612575Y-40921534D01*
X46651204Y-40844692D01*
X46663365Y-40815945D01*
X46668227Y-40735653D01*
X46646264Y-40643617D01*
X46605690Y-40564292D01*
X46566261Y-40526894D01*
X46471021Y-40499420D01*
X46364913Y-40502714D01*
G36*
X48700638Y-38393540D02*
X48603398Y-38425028D01*
X48473127Y-38472987D01*
X48318440Y-38533718D01*
X48147955Y-38603523D01*
X47970290Y-38678702D01*
X47794061Y-38755557D01*
X47627885Y-38830389D01*
X47480379Y-38899500D01*
X47360161Y-38959189D01*
X47275847Y-39005759D01*
X47236944Y-39034369D01*
X47190000Y-39128544D01*
X47186233Y-39231187D01*
X47219533Y-39328222D01*
X47283790Y-39405571D01*
X47372892Y-39449157D01*
X47419106Y-39454007D01*
X47472908Y-39442461D01*
X47571678Y-39409853D01*
X47709056Y-39358610D01*
X47878684Y-39291159D01*
X48074203Y-39209927D01*
X48203555Y-39154607D01*
X48390009Y-39073280D01*
X48560956Y-38997253D01*
X48709033Y-38929918D01*
X48826880Y-38874666D01*
X48907136Y-38834888D01*
X48941850Y-38814523D01*
X48996658Y-38730622D01*
X49010024Y-38620560D01*
X48992768Y-38534386D01*
X48946109Y-38445458D01*
X48872281Y-38397174D01*
X48759932Y-38382231D01*
X48756229Y-38382222D01*
X48700638Y-38393540D01*
X48700638Y-38393540D01*
G37*
X48700638Y-38393540D02*
X48603398Y-38425028D01*
X48473127Y-38472987D01*
X48318440Y-38533718D01*
X48147955Y-38603523D01*
X47970290Y-38678702D01*
X47794061Y-38755557D01*
X47627885Y-38830389D01*
X47480379Y-38899500D01*
X47360161Y-38959189D01*
X47275847Y-39005759D01*
X47236944Y-39034369D01*
X47190000Y-39128544D01*
X47186233Y-39231187D01*
X47219533Y-39328222D01*
X47283790Y-39405571D01*
X47372892Y-39449157D01*
X47419106Y-39454007D01*
X47472908Y-39442461D01*
X47571678Y-39409853D01*
X47709056Y-39358610D01*
X47878684Y-39291159D01*
X48074203Y-39209927D01*
X48203555Y-39154607D01*
X48390009Y-39073280D01*
X48560956Y-38997253D01*
X48709033Y-38929918D01*
X48826880Y-38874666D01*
X48907136Y-38834888D01*
X48941850Y-38814523D01*
X48996658Y-38730622D01*
X49010024Y-38620560D01*
X48992768Y-38534386D01*
X48946109Y-38445458D01*
X48872281Y-38397174D01*
X48759932Y-38382231D01*
X48756229Y-38382222D01*
X48700638Y-38393540D01*
M02*
