G04 #@! TF.FileFunction,Profile,NP*
%FSLAX46Y46*%
G04 Gerber Fmt 4.6, Leading zero omitted, Abs format (unit mm)*
G04 Created by KiCad (PCBNEW 4.0.7-e2-6376~58~ubuntu16.04.1) date Tue Oct 31 02:22:27 2017*
%MOMM*%
%LPD*%
G01*
G04 APERTURE LIST*
%ADD10C,0.100000*%
%ADD11C,0.150000*%
%ADD12C,0.200000*%
G04 APERTURE END LIST*
D10*
D11*
X10950000Y0D02*
G75*
G03X10950000Y0I-10950000J0D01*
G01*
D12*
X2290675Y45800383D02*
X4972600Y45635692D01*
X4972600Y45635692D02*
X7620792Y45323384D01*
X7620792Y45323384D02*
X10213720Y44863422D01*
X10213720Y44863422D02*
X12729851Y44255767D01*
X12729851Y44255767D02*
X14444669Y43738989D01*
X14444669Y43738989D02*
X15785036Y43299501D01*
X15785036Y43299501D02*
X15785912Y37781833D01*
X15785912Y37781833D02*
X15786788Y32264164D01*
X15786788Y32264164D02*
X16651120Y31793794D01*
X16651120Y31793794D02*
X18124442Y30928454D01*
X18124442Y30928454D02*
X19631322Y29924469D01*
X19631322Y29924469D02*
X21130546Y28814369D01*
X21130546Y28814369D02*
X22580899Y27630682D01*
X22580899Y27630682D02*
X23941166Y26405936D01*
X23941166Y26405936D02*
X25170134Y25172661D01*
X25170134Y25172661D02*
X25512061Y24800317D01*
X25512061Y24800317D02*
X26986706Y23063346D01*
X26986706Y23063346D02*
X28279547Y21332516D01*
X28279547Y21332516D02*
X29396292Y19598512D01*
X29396292Y19598512D02*
X30342649Y17852018D01*
X30342649Y17852018D02*
X31124328Y16083720D01*
X31124328Y16083720D02*
X31521882Y14992884D01*
X31521882Y14992884D02*
X31580169Y14923842D01*
X31580169Y14923842D02*
X31721412Y14872179D01*
X31721412Y14872179D02*
X31975368Y14832328D01*
X31975368Y14832328D02*
X32371800Y14798720D01*
X32371800Y14798720D02*
X32652293Y14781396D01*
X32652293Y14781396D02*
X33811503Y14674584D01*
X33811503Y14674584D02*
X34967265Y14491760D01*
X34967265Y14491760D02*
X36077225Y14242849D01*
X36077225Y14242849D02*
X37099028Y13937773D01*
X37099028Y13937773D02*
X37990318Y13586457D01*
X37990318Y13586457D02*
X38218372Y13477323D01*
X38218372Y13477323D02*
X38930631Y13067940D01*
X38930631Y13067940D02*
X39665966Y12554671D01*
X39665966Y12554671D02*
X40351543Y11991839D01*
X40351543Y11991839D02*
X40821154Y11536081D01*
X40821154Y11536081D02*
X41618840Y10558872D01*
X41618840Y10558872D02*
X42264393Y9490417D01*
X42264393Y9490417D02*
X42760269Y8323729D01*
X42760269Y8323729D02*
X43108927Y7051824D01*
X43108927Y7051824D02*
X43312823Y5667715D01*
X43312823Y5667715D02*
X43374681Y4277127D01*
X43374681Y4277127D02*
X43340614Y3140555D01*
X43340614Y3140555D02*
X43228288Y2104584D01*
X43228288Y2104584D02*
X43025703Y1093718D01*
X43025703Y1093718D02*
X42720859Y32463D01*
X42720859Y32463D02*
X42680348Y-91260D01*
X42680348Y-91260D02*
X42059626Y-1671721D01*
X42059626Y-1671721D02*
X41256617Y-3216916D01*
X41256617Y-3216916D02*
X40274564Y-4722874D01*
X40274564Y-4722874D02*
X39116705Y-6185626D01*
X39116705Y-6185626D02*
X37786282Y-7601200D01*
X37786282Y-7601200D02*
X36286536Y-8965628D01*
X36286536Y-8965628D02*
X34620707Y-10274937D01*
X34620707Y-10274937D02*
X34012991Y-10709690D01*
X34012991Y-10709690D02*
X33552481Y-11024739D01*
X33552481Y-11024739D02*
X33068718Y-11344540D01*
X33068718Y-11344540D02*
X32622610Y-11629411D01*
X32622610Y-11629411D02*
X32306837Y-11821274D01*
X32306837Y-11821274D02*
X31610877Y-12227046D01*
X31610877Y-12227046D02*
X31117292Y-13452923D01*
X31117292Y-13452923D02*
X30577463Y-14716062D01*
X30577463Y-14716062D02*
X30008531Y-15902704D01*
X30008531Y-15902704D02*
X29429336Y-16975669D01*
X29429336Y-16975669D02*
X28885408Y-17857848D01*
X28885408Y-17857848D02*
X28259482Y-18798062D01*
X28259482Y-18798062D02*
X28819111Y-19270843D01*
X28819111Y-19270843D02*
X29308525Y-19705686D01*
X29308525Y-19705686D02*
X29868514Y-20238454D01*
X29868514Y-20238454D02*
X30465775Y-20834328D01*
X30465775Y-20834328D02*
X31067007Y-21458487D01*
X31067007Y-21458487D02*
X31638906Y-22076110D01*
X31638906Y-22076110D02*
X32148170Y-22652378D01*
X32148170Y-22652378D02*
X32561498Y-23152471D01*
X32561498Y-23152471D02*
X32683683Y-23311544D01*
X32683683Y-23311544D02*
X33660874Y-24743666D01*
X33660874Y-24743666D02*
X34464595Y-26190118D01*
X34464595Y-26190118D02*
X35092610Y-27643980D01*
X35092610Y-27643980D02*
X35542683Y-29098331D01*
X35542683Y-29098331D02*
X35812580Y-30546251D01*
X35812580Y-30546251D02*
X35900066Y-31980819D01*
X35900066Y-31980819D02*
X35840269Y-33085766D01*
X35840269Y-33085766D02*
X35783307Y-33501016D01*
X35783307Y-33501016D02*
X35694056Y-34004150D01*
X35694056Y-34004150D02*
X35580287Y-34563767D01*
X35580287Y-34563767D02*
X35449768Y-35148464D01*
X35449768Y-35148464D02*
X35310269Y-35726841D01*
X35310269Y-35726841D02*
X35169560Y-36267495D01*
X35169560Y-36267495D02*
X35035411Y-36739025D01*
X35035411Y-36739025D02*
X34915592Y-37110030D01*
X34915592Y-37110030D02*
X34817872Y-37349108D01*
X34817872Y-37349108D02*
X34767721Y-37420506D01*
X34767721Y-37420506D02*
X34482626Y-37592161D01*
X34482626Y-37592161D02*
X34056398Y-37811783D01*
X34056398Y-37811783D02*
X33524945Y-38063652D01*
X33524945Y-38063652D02*
X32924175Y-38332045D01*
X32924175Y-38332045D02*
X32289995Y-38601242D01*
X32289995Y-38601242D02*
X31658314Y-38855521D01*
X31658314Y-38855521D02*
X31065040Y-39079161D01*
X31065040Y-39079161D02*
X30654140Y-39221528D01*
X30654140Y-39221528D02*
X28934083Y-39732385D01*
X28934083Y-39732385D02*
X27277561Y-40106300D01*
X27277561Y-40106300D02*
X25629328Y-40352243D01*
X25629328Y-40352243D02*
X23934136Y-40479184D01*
X23934136Y-40479184D02*
X22766905Y-40502132D01*
X22766905Y-40502132D02*
X20857335Y-40436708D01*
X20857335Y-40436708D02*
X19035298Y-40234880D01*
X19035298Y-40234880D02*
X17256974Y-39888311D01*
X17256974Y-39888311D02*
X15478545Y-39388666D01*
X15478545Y-39388666D02*
X13856518Y-38807056D01*
X13856518Y-38807056D02*
X13214813Y-38538580D01*
X13214813Y-38538580D02*
X12488018Y-38207193D01*
X12488018Y-38207193D02*
X11724219Y-37837094D01*
X11724219Y-37837094D02*
X10971503Y-37452478D01*
X10971503Y-37452478D02*
X10277958Y-37077542D01*
X10277958Y-37077542D02*
X9691671Y-36736483D01*
X9691671Y-36736483D02*
X9490560Y-36610182D01*
X9490560Y-36610182D02*
X8908737Y-36216243D01*
X8908737Y-36216243D02*
X8236524Y-35732615D01*
X8236524Y-35732615D02*
X7522654Y-35196274D01*
X7522654Y-35196274D02*
X6815857Y-34644201D01*
X6815857Y-34644201D02*
X6164868Y-34113372D01*
X6164868Y-34113372D02*
X5871784Y-33864241D01*
X5871784Y-33864241D02*
X5036680Y-33141955D01*
X5036680Y-33141955D02*
X3472895Y-33298605D01*
X3472895Y-33298605D02*
X2373291Y-33383617D01*
X2373291Y-33383617D02*
X1149804Y-33434849D01*
X1149804Y-33434849D02*
X-136360Y-33452307D01*
X-136360Y-33452307D02*
X-1423992Y-33435995D01*
X-1423992Y-33435995D02*
X-2651887Y-33385917D01*
X-2651887Y-33385917D02*
X-3758837Y-33302079D01*
X-3758837Y-33302079D02*
X-3799430Y-33298054D01*
X-3799430Y-33298054D02*
X-5368711Y-33140852D01*
X-5368711Y-33140852D02*
X-6010171Y-33714574D01*
X-6010171Y-33714574D02*
X-7453240Y-34932605D01*
X-7453240Y-34932605D02*
X-8894741Y-35997733D01*
X-8894741Y-35997733D02*
X-10378325Y-36939685D01*
X-10378325Y-36939685D02*
X-11947644Y-37788190D01*
X-11947644Y-37788190D02*
X-12107927Y-37867550D01*
X-12107927Y-37867550D02*
X-13511527Y-38522322D01*
X-13511527Y-38522322D02*
X-14832704Y-39061463D01*
X-14832704Y-39061463D02*
X-16122563Y-39501894D01*
X-16122563Y-39501894D02*
X-17432210Y-39860536D01*
X-17432210Y-39860536D02*
X-18812751Y-40154309D01*
X-18812751Y-40154309D02*
X-19252417Y-40233016D01*
X-19252417Y-40233016D02*
X-19710562Y-40303884D01*
X-19710562Y-40303884D02*
X-20179548Y-40358076D01*
X-20179548Y-40358076D02*
X-20696961Y-40398043D01*
X-20696961Y-40398043D02*
X-21300391Y-40426236D01*
X-21300391Y-40426236D02*
X-22027423Y-40445108D01*
X-22027423Y-40445108D02*
X-22644223Y-40454250D01*
X-22644223Y-40454250D02*
X-23303900Y-40460048D01*
X-23303900Y-40460048D02*
X-23924224Y-40462048D01*
X-23924224Y-40462048D02*
X-24472662Y-40460415D01*
X-24472662Y-40460415D02*
X-24916678Y-40455314D01*
X-24916678Y-40455314D02*
X-25223736Y-40446910D01*
X-25223736Y-40446910D02*
X-25325334Y-40440674D01*
X-25325334Y-40440674D02*
X-26446722Y-40299307D01*
X-26446722Y-40299307D02*
X-27670364Y-40081627D01*
X-27670364Y-40081627D02*
X-28933460Y-39801635D01*
X-28933460Y-39801635D02*
X-30173210Y-39473333D01*
X-30173210Y-39473333D02*
X-31326814Y-39110725D01*
X-31326814Y-39110725D02*
X-31393112Y-39087768D01*
X-31393112Y-39087768D02*
X-31796491Y-38937282D01*
X-31796491Y-38937282D02*
X-32286878Y-38738977D01*
X-32286878Y-38738977D02*
X-32828273Y-38509075D01*
X-32828273Y-38509075D02*
X-33384680Y-38263798D01*
X-33384680Y-38263798D02*
X-33920101Y-38019367D01*
X-33920101Y-38019367D02*
X-34398538Y-37792005D01*
X-34398538Y-37792005D02*
X-34783993Y-37597932D01*
X-34783993Y-37597932D02*
X-35040470Y-37453371D01*
X-35040470Y-37453371D02*
X-35082620Y-37425158D01*
X-35082620Y-37425158D02*
X-35155063Y-37298193D01*
X-35155063Y-37298193D02*
X-35255761Y-37018008D01*
X-35255761Y-37018008D02*
X-35377004Y-36616064D01*
X-35377004Y-36616064D02*
X-35511084Y-36123820D01*
X-35511084Y-36123820D02*
X-35650292Y-35572738D01*
X-35650292Y-35572738D02*
X-35786919Y-34994276D01*
X-35786919Y-34994276D02*
X-35913257Y-34419894D01*
X-35913257Y-34419894D02*
X-36021597Y-33881054D01*
X-36021597Y-33881054D02*
X-36104230Y-33409214D01*
X-36104230Y-33409214D02*
X-36150209Y-33068238D01*
X-36150209Y-33068238D02*
X-36203992Y-31653504D01*
X-36203992Y-31653504D02*
X-36075218Y-30222427D01*
X-36075218Y-30222427D02*
X-35767883Y-28783100D01*
X-35767883Y-28783100D02*
X-35285984Y-27343613D01*
X-35285984Y-27343613D02*
X-34633518Y-25912059D01*
X-34633518Y-25912059D02*
X-33814483Y-24496531D01*
X-33814483Y-24496531D02*
X-32832875Y-23105118D01*
X-32832875Y-23105118D02*
X-31692692Y-21745915D01*
X-31692692Y-21745915D02*
X-30397930Y-20427011D01*
X-30397930Y-20427011D02*
X-29509747Y-19624826D01*
X-29509747Y-19624826D02*
X-28560609Y-18805410D01*
X-28560609Y-18805410D02*
X-29160916Y-17918030D01*
X-29160916Y-17918030D02*
X-29490321Y-17393017D01*
X-29490321Y-17393017D02*
X-29863056Y-16735216D01*
X-29863056Y-16735216D02*
X-30257124Y-15988281D01*
X-30257124Y-15988281D02*
X-30650529Y-15195868D01*
X-30650529Y-15195868D02*
X-31021276Y-14401632D01*
X-31021276Y-14401632D02*
X-31347368Y-13649228D01*
X-31347368Y-13649228D02*
X-31487602Y-13300282D01*
X-31487602Y-13300282D02*
X-31841018Y-12392136D01*
X-31841018Y-12392136D02*
X-32822622Y-11807410D01*
X-32822622Y-11807410D02*
X-34254088Y-10890743D01*
X-34254088Y-10890743D02*
X-35660711Y-9866763D01*
X-35660711Y-9866763D02*
X-37008772Y-8764287D01*
X-37008772Y-8764287D02*
X-38264549Y-7612132D01*
X-38264549Y-7612132D02*
X-39394321Y-6439115D01*
X-39394321Y-6439115D02*
X-40157805Y-5538998D01*
X-40157805Y-5538998D02*
X-41187735Y-4135491D01*
X-41187735Y-4135491D02*
X-42042822Y-2728759D01*
X-42042822Y-2728759D02*
X-42735411Y-1296606D01*
X-42735411Y-1296606D02*
X-43192131Y-83494D01*
X-43192131Y-83494D02*
X-43333968Y398141D01*
X-43333968Y398141D02*
X-43505511Y980642D01*
X-43505511Y980642D02*
X-43716469Y1995331D01*
X-43716469Y1995331D02*
X-43836456Y3033471D01*
X-43836456Y3033471D02*
X-43876923Y4167960D01*
X-43876923Y4167960D02*
X-43877056Y4277127D01*
X-43877056Y4277127D02*
X-43803846Y5786289D01*
X-43803846Y5786289D02*
X-43587212Y7175805D01*
X-43587212Y7175805D02*
X-43225679Y8449525D01*
X-43225679Y8449525D02*
X-42717773Y9611294D01*
X-42717773Y9611294D02*
X-42062017Y10664962D01*
X-42062017Y10664962D02*
X-41256938Y11614374D01*
X-41256938Y11614374D02*
X-40949229Y11913833D01*
X-40949229Y11913833D02*
X-39963849Y12712378D01*
X-39963849Y12712378D02*
X-38867928Y13378749D01*
X-38867928Y13378749D02*
X-37654669Y13915415D01*
X-37654669Y13915415D02*
X-36317276Y14324847D01*
X-36317276Y14324847D02*
X-34848952Y14609514D01*
X-34848952Y14609514D02*
X-33242901Y14771884D01*
X-33242901Y14771884D02*
X-33054234Y14782558D01*
X-33054234Y14782558D02*
X-32550453Y14813221D01*
X-32550453Y14813221D02*
X-32205751Y14846482D01*
X-32205751Y14846482D02*
X-31991075Y14887380D01*
X-31991075Y14887380D02*
X-31877375Y14940952D01*
X-31877375Y14940952D02*
X-31840699Y14993011D01*
X-31840699Y14993011D02*
X-31123009Y16826583D01*
X-31123009Y16826583D02*
X-30276347Y18589145D01*
X-30276347Y18589145D02*
X-29290726Y20295518D01*
X-29290726Y20295518D02*
X-28156156Y21960526D01*
X-28156156Y21960526D02*
X-26862650Y23598989D01*
X-26862650Y23598989D02*
X-25400220Y25225729D01*
X-25400220Y25225729D02*
X-24003193Y26623414D01*
X-24003193Y26623414D02*
X-22670976Y27823183D01*
X-22670976Y27823183D02*
X-21228665Y28985103D01*
X-21228665Y28985103D02*
X-19718337Y30079463D01*
X-19718337Y30079463D02*
X-18182068Y31076549D01*
X-18182068Y31076549D02*
X-16661933Y31946649D01*
X-16661933Y31946649D02*
X-15948209Y32311519D01*
X-15948209Y32311519D02*
X-15084787Y32734535D01*
X-15084787Y32734535D02*
X-15079174Y37006885D01*
X-10273482Y37006885D02*
X-10273482Y34641109D01*
X-10273482Y34641109D02*
X-10061816Y34699339D01*
X-10061816Y34699339D02*
X-8343477Y35141850D01*
X-8343477Y35141850D02*
X-6733663Y35489218D01*
X-6733663Y35489218D02*
X-5182500Y35747836D01*
X-5182500Y35747836D02*
X-3640115Y35924100D01*
X-3640115Y35924100D02*
X-2056636Y36024404D01*
X-2056636Y36024404D02*
X-382190Y36055145D01*
X-382190Y36055145D02*
X450962Y36047372D01*
X450962Y36047372D02*
X2093246Y35994607D01*
X2093246Y35994607D02*
X3598228Y35890901D01*
X3598228Y35890901D02*
X5011466Y35729620D01*
X5011466Y35729620D02*
X6378514Y35504130D01*
X6378514Y35504130D02*
X7744928Y35207798D01*
X7744928Y35207798D02*
X9156265Y34833989D01*
X9156265Y34833989D02*
X9529110Y34725387D01*
X9529110Y34725387D02*
X10021826Y34580957D01*
X10021826Y34580957D02*
X10455078Y34456780D01*
X10455078Y34456780D02*
X10794906Y34362371D01*
X10794906Y34362371D02*
X11007347Y34307247D01*
X11007347Y34307247D02*
X11057814Y34297100D01*
X11057814Y34297100D02*
X11093912Y34334110D01*
X11093912Y34334110D02*
X11122341Y34463186D01*
X11122341Y34463186D02*
X11143842Y34700796D01*
X11143842Y34700796D02*
X11159154Y35063407D01*
X11159154Y35063407D02*
X11169017Y35567486D01*
X11169017Y35567486D02*
X11174173Y36229502D01*
X11174173Y36229502D02*
X11175406Y36913290D01*
X11175406Y36913290D02*
X11175406Y39539824D01*
X11175406Y39539824D02*
X10540406Y39682631D01*
X10540406Y39682631D02*
X8915354Y40000850D01*
X8915354Y40000850D02*
X7151332Y40260370D01*
X7151332Y40260370D02*
X5288871Y40458879D01*
X5288871Y40458879D02*
X3368503Y40594063D01*
X3368503Y40594063D02*
X1430758Y40663611D01*
X1430758Y40663611D02*
X-483833Y40665208D01*
X-483833Y40665208D02*
X-2334738Y40596542D01*
X-2334738Y40596542D02*
X-3688297Y40494591D01*
X-3688297Y40494591D02*
X-4408451Y40418702D01*
X-4408451Y40418702D02*
X-5192830Y40321770D01*
X-5192830Y40321770D02*
X-6011975Y40208706D01*
X-6011975Y40208706D02*
X-6836428Y40084416D01*
X-6836428Y40084416D02*
X-7636729Y39953808D01*
X-7636729Y39953808D02*
X-8383420Y39821791D01*
X-8383420Y39821791D02*
X-9047041Y39693273D01*
X-9047041Y39693273D02*
X-9598132Y39573162D01*
X-9598132Y39573162D02*
X-10007236Y39466366D01*
X-10007236Y39466366D02*
X-10155890Y39417041D01*
X-10155890Y39417041D02*
X-10194205Y39357236D01*
X-10194205Y39357236D02*
X-10223919Y39198886D01*
X-10223919Y39198886D02*
X-10245860Y38925029D01*
X-10245860Y38925029D02*
X-10260854Y38518702D01*
X-10260854Y38518702D02*
X-10269729Y37962941D01*
X-10269729Y37962941D02*
X-10273314Y37240784D01*
X-10273314Y37240784D02*
X-10273482Y37006885D01*
X-15079174Y37006885D02*
X-15078024Y37881780D01*
X-15078024Y37881780D02*
X-15076333Y38997007D01*
X-15076333Y38997007D02*
X-15074082Y39939017D01*
X-15074082Y39939017D02*
X-15070748Y40722744D01*
X-15070748Y40722744D02*
X-15065807Y41363119D01*
X-15065807Y41363119D02*
X-15058734Y41875075D01*
X-15058734Y41875075D02*
X-15049007Y42273544D01*
X-15049007Y42273544D02*
X-15036102Y42573457D01*
X-15036102Y42573457D02*
X-15019494Y42789748D01*
X-15019494Y42789748D02*
X-14998660Y42937348D01*
X-14998660Y42937348D02*
X-14973076Y43031189D01*
X-14973076Y43031189D02*
X-14942219Y43086204D01*
X-14942219Y43086204D02*
X-14905565Y43117325D01*
X-14905565Y43117325D02*
X-14894155Y43123810D01*
X-14894155Y43123810D02*
X-14746516Y43185376D01*
X-14746516Y43185376D02*
X-14455438Y43293023D01*
X-14455438Y43293023D02*
X-14056247Y43434162D01*
X-14056247Y43434162D02*
X-13584270Y43596204D01*
X-13584270Y43596204D02*
X-13303496Y43690665D01*
X-13303496Y43690665D02*
X-10871337Y44410890D01*
X-10871337Y44410890D02*
X-8343722Y44983723D01*
X-8343722Y44983723D02*
X-5742181Y45409126D01*
X-5742181Y45409126D02*
X-3088247Y45687062D01*
X-3088247Y45687062D02*
X-403451Y45817493D01*
X-403451Y45817493D02*
X2290675Y45800383D01*
M02*
