M48
;DRILL file {KiCad 4.0.7-e2-6376~58~ubuntu16.04.1} date Tue Oct 31 02:22:28 2017
;FORMAT={-:-/ absolute / inch / decimal}
FMAT,2
INCH,TZ
T1C0.012
T2C0.030
T3C0.079
%
G90
G05
M72
T1
X-1.2103Y-0.026
X-1.1153Y0.3543
X-0.879Y0.5388
X-0.8001Y-0.3191
X-0.7875Y-1.1309
X-0.768Y-0.4472
X-0.7556Y-0.2695
X-0.6912Y-0.5504
X-0.6818Y-0.4445
X-0.6464Y0.1723
X-0.6267Y-0.0144
X-0.6137Y-0.2043
X-0.5643Y0.3447
X-0.5426Y0.2727
X-0.5273Y-0.6376
X-0.5076Y1.3536
X-0.484Y1.6284
X-0.4696Y-0.936
X-0.4149Y0.7668
X-0.3647Y0.6246
X-0.3547Y1.1447
X-0.3391Y0.8593
X-0.3367Y0.5085
X-0.3223Y0.9122
X-0.3044Y0.6662
X-0.2948Y-0.4065
X-0.2879Y-0.5039
X-0.2798Y0.8955
X-0.243Y0.7469
X-0.2182Y1.0977
X-0.2157Y1.3055
X-0.205Y0.9366
X-0.2044Y1.0244
X-0.1938Y0.8595
X-0.1922Y0.7317
X-0.1899Y0.761
X-0.1891Y1.1158
X-0.1863Y0.798
X-0.1366Y0.9508
X-0.0964Y0.828
X-0.0796Y1.0748
X-0.0783Y0.875
X-0.0178Y0.538
X-0.0147Y1.0421
X-0.0139Y0.7557
X0.012Y0.9276
X0.105Y0.6975
X0.1329Y0.7022
X0.1703Y0.678
X0.1753Y0.4697
X0.1832Y-0.4246
X0.1868Y1.1545
X0.2042Y0.4906
X0.2389Y1.1073
X0.2466Y0.7654
X0.2621Y0.7036
X0.2714Y0.9311
X0.307Y0.9045
X0.3179Y1.1522
X0.3296Y-0.7592
X0.333Y-0.8752
X0.3525Y0.8734
X0.3729Y-0.6592
X0.4758Y1.3683
X0.494Y0.1662
X0.5656Y1.3693
X0.5859Y0.1205
X0.5993Y0.1868
X0.7172Y-0.3642
X0.8214Y-1.1041
X1.332Y0.1841
T2
X-0.5465Y1.4995
X-0.4757Y1.5702
X-0.405Y1.6409
X-0.3343Y1.7116
T3
X-1.0082Y-0.5715
X-0.7287Y-0.1737
X-0.5411Y-0.3018
T0
M30
