G04 #@! TF.FileFunction,Legend,Top*
%FSLAX46Y46*%
G04 Gerber Fmt 4.6, Leading zero omitted, Abs format (unit mm)*
G04 Created by KiCad (PCBNEW 4.0.7-e2-6376~58~ubuntu16.04.1) date Tue Oct 31 02:22:27 2017*
%MOMM*%
%LPD*%
G01*
G04 APERTURE LIST*
%ADD10C,0.100000*%
%ADD11C,0.254000*%
%ADD12C,0.500000*%
%ADD13C,0.010000*%
%ADD14C,0.120000*%
%ADD15C,0.150000*%
G04 APERTURE END LIST*
D10*
D11*
X4345443Y-23181540D02*
X4853443Y-22673540D01*
X3837443Y-23181540D02*
X4345443Y-23181540D01*
X4853443Y-22165540D02*
X4853443Y-22673540D01*
X5361443Y-22165540D02*
X4853443Y-22165540D01*
X4853443Y-21657540D02*
X5361443Y-22165540D01*
X4853443Y-22165540D02*
X4853443Y-21657540D01*
X4345443Y-22165540D02*
X4853443Y-22165540D01*
X3837443Y-22673540D02*
X4345443Y-22165540D01*
X3837443Y-23181540D02*
X3837443Y-22673540D01*
D12*
X-4240000Y41085000D02*
X-4605000Y44440000D01*
X-1085000Y41405000D02*
X-1240000Y44635000D01*
X5815000Y44555000D02*
X5430000Y41105000D01*
X9310000Y44010000D02*
X5815000Y44555000D01*
X-7720000Y43900000D02*
X-7275000Y40715000D01*
X-4595000Y44400000D02*
X-7720000Y43900000D01*
X-1105000Y41370000D02*
X-4235000Y41115000D01*
X2280000Y44680000D02*
X-1240000Y44625000D01*
X2225000Y41385000D02*
X2280000Y44680000D01*
X5300000Y41160000D02*
X2225000Y41385000D01*
X8765000Y40490000D02*
X9320000Y44010000D01*
D13*
G36*
X-29336527Y-23807123D02*
X-29104535Y-23941632D01*
X-28795761Y-24136443D01*
X-28445577Y-24367526D01*
X-28089358Y-24610850D01*
X-27762473Y-24842385D01*
X-27500297Y-25038101D01*
X-27338201Y-25173967D01*
X-27303194Y-25219715D01*
X-27381842Y-25310139D01*
X-27580586Y-25413942D01*
X-27653668Y-25441634D01*
X-28172898Y-25680484D01*
X-28769371Y-26052010D01*
X-29415484Y-26532659D01*
X-30083631Y-27098879D01*
X-30746209Y-27727120D01*
X-31375615Y-28393829D01*
X-31944243Y-29075454D01*
X-32004594Y-29153866D01*
X-32331880Y-29568380D01*
X-32567486Y-29828675D01*
X-32720450Y-29939453D01*
X-32799809Y-29905415D01*
X-32814602Y-29731264D01*
X-32796892Y-29566021D01*
X-32532323Y-28361094D01*
X-32084604Y-27176044D01*
X-31458579Y-26023152D01*
X-31307374Y-25789967D01*
X-31068624Y-25457436D01*
X-30777493Y-25089940D01*
X-30460849Y-24716990D01*
X-30145559Y-24368096D01*
X-29858491Y-24072767D01*
X-29626513Y-23860512D01*
X-29476492Y-23760843D01*
X-29456366Y-23756947D01*
X-29336527Y-23807123D01*
X-29336527Y-23807123D01*
G37*
X-29336527Y-23807123D02*
X-29104535Y-23941632D01*
X-28795761Y-24136443D01*
X-28445577Y-24367526D01*
X-28089358Y-24610850D01*
X-27762473Y-24842385D01*
X-27500297Y-25038101D01*
X-27338201Y-25173967D01*
X-27303194Y-25219715D01*
X-27381842Y-25310139D01*
X-27580586Y-25413942D01*
X-27653668Y-25441634D01*
X-28172898Y-25680484D01*
X-28769371Y-26052010D01*
X-29415484Y-26532659D01*
X-30083631Y-27098879D01*
X-30746209Y-27727120D01*
X-31375615Y-28393829D01*
X-31944243Y-29075454D01*
X-32004594Y-29153866D01*
X-32331880Y-29568380D01*
X-32567486Y-29828675D01*
X-32720450Y-29939453D01*
X-32799809Y-29905415D01*
X-32814602Y-29731264D01*
X-32796892Y-29566021D01*
X-32532323Y-28361094D01*
X-32084604Y-27176044D01*
X-31458579Y-26023152D01*
X-31307374Y-25789967D01*
X-31068624Y-25457436D01*
X-30777493Y-25089940D01*
X-30460849Y-24716990D01*
X-30145559Y-24368096D01*
X-29858491Y-24072767D01*
X-29626513Y-23860512D01*
X-29476492Y-23760843D01*
X-29456366Y-23756947D01*
X-29336527Y-23807123D01*
G36*
X29306275Y-23861472D02*
X29518754Y-23994942D01*
X29765952Y-24244691D01*
X30065355Y-24589140D01*
X30896459Y-25661399D01*
X31565462Y-26754598D01*
X32065472Y-27854814D01*
X32389601Y-28948123D01*
X32481440Y-29471947D01*
X32503986Y-29792954D01*
X32460093Y-29945454D01*
X32345965Y-29929145D01*
X32157806Y-29743728D01*
X31918740Y-29427345D01*
X31719899Y-29171011D01*
X31421834Y-28819517D01*
X31058121Y-28410981D01*
X30662338Y-27983524D01*
X30463708Y-27775436D01*
X29833053Y-27157369D01*
X29199502Y-26601820D01*
X28589205Y-26128444D01*
X28028310Y-25756896D01*
X27542966Y-25506833D01*
X27355206Y-25438884D01*
X27123064Y-25346932D01*
X26992655Y-25251745D01*
X26982155Y-25223723D01*
X27057427Y-25136577D01*
X27261909Y-24970260D01*
X27566303Y-24746969D01*
X27941311Y-24488897D01*
X28030079Y-24429857D01*
X28490416Y-24128474D01*
X28830779Y-23931265D01*
X29089841Y-23841256D01*
X29306275Y-23861472D01*
X29306275Y-23861472D01*
G37*
X29306275Y-23861472D02*
X29518754Y-23994942D01*
X29765952Y-24244691D01*
X30065355Y-24589140D01*
X30896459Y-25661399D01*
X31565462Y-26754598D01*
X32065472Y-27854814D01*
X32389601Y-28948123D01*
X32481440Y-29471947D01*
X32503986Y-29792954D01*
X32460093Y-29945454D01*
X32345965Y-29929145D01*
X32157806Y-29743728D01*
X31918740Y-29427345D01*
X31719899Y-29171011D01*
X31421834Y-28819517D01*
X31058121Y-28410981D01*
X30662338Y-27983524D01*
X30463708Y-27775436D01*
X29833053Y-27157369D01*
X29199502Y-26601820D01*
X28589205Y-26128444D01*
X28028310Y-25756896D01*
X27542966Y-25506833D01*
X27355206Y-25438884D01*
X27123064Y-25346932D01*
X26992655Y-25251745D01*
X26982155Y-25223723D01*
X27057427Y-25136577D01*
X27261909Y-24970260D01*
X27566303Y-24746969D01*
X27941311Y-24488897D01*
X28030079Y-24429857D01*
X28490416Y-24128474D01*
X28830779Y-23931265D01*
X29089841Y-23841256D01*
X29306275Y-23861472D01*
G36*
X6921772Y32098732D02*
X7378347Y32073647D01*
X7770184Y32035924D01*
X8599732Y31920481D01*
X9341199Y31770365D01*
X10016190Y31572099D01*
X10646312Y31312202D01*
X11253170Y30977199D01*
X11858371Y30553609D01*
X12483520Y30027956D01*
X13150224Y29386760D01*
X13880089Y28616545D01*
X14670735Y27731250D01*
X15264214Y27059438D01*
X15782295Y26493097D01*
X16252005Y26011346D01*
X16700372Y25593301D01*
X17154423Y25218081D01*
X17641186Y24864804D01*
X18187688Y24512587D01*
X18820958Y24140547D01*
X19568023Y23727803D01*
X20455910Y23253472D01*
X20488740Y23236096D01*
X21467389Y22704811D01*
X22295697Y22222462D01*
X22998780Y21770054D01*
X23601752Y21328593D01*
X24129730Y20879085D01*
X24607829Y20402534D01*
X25061164Y19879946D01*
X25263593Y19624940D01*
X25534995Y19281004D01*
X25893671Y18835410D01*
X26305416Y18330175D01*
X26736023Y17807316D01*
X27074545Y17400460D01*
X27847382Y16465910D01*
X28503483Y15646258D01*
X29056257Y14920525D01*
X29519111Y14267735D01*
X29905454Y13666908D01*
X30228693Y13097067D01*
X30502236Y12537234D01*
X30739493Y11966430D01*
X30953869Y11363678D01*
X30976105Y11296128D01*
X31254620Y10346608D01*
X31489684Y9326478D01*
X31684740Y8212777D01*
X31843229Y6982544D01*
X31968594Y5612818D01*
X32064277Y4080636D01*
X32067512Y4016123D01*
X32114436Y2902258D01*
X32130320Y1943334D01*
X32107081Y1107549D01*
X32036634Y363104D01*
X31910895Y-321805D01*
X31721781Y-978977D01*
X31461208Y-1640214D01*
X31121091Y-2337318D01*
X30693346Y-3102090D01*
X30169891Y-3966330D01*
X29948158Y-4321142D01*
X29482460Y-5064818D01*
X29098381Y-5691158D01*
X28782662Y-6231785D01*
X28522046Y-6718322D01*
X28303275Y-7182392D01*
X28113092Y-7655618D01*
X27938239Y-8169622D01*
X27765458Y-8756027D01*
X27581491Y-9446457D01*
X27373082Y-10272533D01*
X27257187Y-10739780D01*
X27011899Y-11712914D01*
X26794703Y-12530511D01*
X26596056Y-13221380D01*
X26406418Y-13814329D01*
X26216244Y-14338166D01*
X26015993Y-14821699D01*
X25796122Y-15293739D01*
X25656413Y-15572503D01*
X25240880Y-16312057D01*
X24772126Y-16999405D01*
X24230910Y-17653421D01*
X23597992Y-18292984D01*
X22854132Y-18936968D01*
X21980091Y-19604250D01*
X20956628Y-20313707D01*
X20552213Y-20580260D01*
X19910591Y-21003614D01*
X19174544Y-21497832D01*
X18402048Y-22023447D01*
X17651080Y-22540988D01*
X16979618Y-23010990D01*
X16930361Y-23045858D01*
X16340584Y-23461424D01*
X15735334Y-23883750D01*
X15153202Y-24286204D01*
X14632779Y-24642154D01*
X14212655Y-24924967D01*
X14091703Y-25004857D01*
X13355784Y-25458541D01*
X12532123Y-25917693D01*
X11670515Y-26357748D01*
X10820759Y-26754139D01*
X10032650Y-27082302D01*
X9484062Y-27277899D01*
X8909456Y-27453935D01*
X8349816Y-27605099D01*
X7787566Y-27732563D01*
X7205131Y-27837498D01*
X6584932Y-27921078D01*
X5909394Y-27984474D01*
X5160939Y-28028859D01*
X4321992Y-28055405D01*
X3374976Y-28065285D01*
X2302314Y-28059670D01*
X1086429Y-28039732D01*
X-290254Y-28006645D01*
X-1101260Y-27983882D01*
X-2142977Y-27947030D01*
X-3074826Y-27897327D01*
X-3927968Y-27829195D01*
X-4733566Y-27737056D01*
X-5522782Y-27615333D01*
X-6326777Y-27458448D01*
X-7176715Y-27260825D01*
X-8103757Y-27016885D01*
X-9139064Y-26721052D01*
X-10313800Y-26367747D01*
X-10570033Y-26289142D01*
X-11765777Y-25915806D01*
X-12801398Y-25578954D01*
X-13699257Y-25269248D01*
X-14481714Y-24977349D01*
X-15171130Y-24693919D01*
X-15789865Y-24409619D01*
X-16360280Y-24115111D01*
X-16904734Y-23801056D01*
X-17445588Y-23458115D01*
X-17608200Y-23349742D01*
X-18030292Y-23071145D01*
X-18425019Y-22825093D01*
X-18824742Y-22594535D01*
X-19261824Y-22362421D01*
X-19768625Y-22111701D01*
X-20377507Y-21825322D01*
X-21120833Y-21486236D01*
X-21289787Y-21410004D01*
X-22235394Y-20976032D01*
X-23028743Y-20592391D01*
X-23694130Y-20244391D01*
X-24255855Y-19917345D01*
X-24738214Y-19596563D01*
X-25165506Y-19267355D01*
X-25562027Y-18915035D01*
X-25795705Y-18686006D01*
X-26150738Y-18307196D01*
X-26490075Y-17910557D01*
X-26770222Y-17548787D01*
X-26920688Y-17322976D01*
X-27316248Y-16551355D01*
X-27696763Y-15616382D01*
X-28053323Y-14542751D01*
X-28377018Y-13355159D01*
X-28427014Y-13148437D01*
X-28672376Y-12114727D01*
X-28880588Y-11239560D01*
X-29058999Y-10498673D01*
X-29214960Y-9867799D01*
X-29355821Y-9322675D01*
X-29488933Y-8839034D01*
X-29621646Y-8392611D01*
X-29761311Y-7959142D01*
X-29915278Y-7514360D01*
X-30090898Y-7034002D01*
X-30295521Y-6493801D01*
X-30536498Y-5869492D01*
X-30821179Y-5136811D01*
X-30969889Y-4753984D01*
X-31392123Y-3622324D01*
X-31726815Y-2620744D01*
X-31981886Y-1717197D01*
X-32165261Y-879634D01*
X-32284861Y-76006D01*
X-32348610Y725736D01*
X-32353676Y843423D01*
X-32361658Y1322074D01*
X-30632313Y1322074D01*
X-30632273Y1313794D01*
X-30625752Y732172D01*
X-30608171Y281577D01*
X-30572604Y-95066D01*
X-30512125Y-454833D01*
X-30419808Y-854799D01*
X-30325211Y-1216605D01*
X-30179112Y-1716913D01*
X-29983183Y-2325100D01*
X-29759649Y-2975242D01*
X-29530733Y-3601412D01*
X-29453090Y-3803642D01*
X-29071582Y-4784694D01*
X-28750615Y-5618195D01*
X-28481501Y-6331541D01*
X-28255552Y-6952127D01*
X-28064079Y-7507352D01*
X-27898394Y-8024612D01*
X-27749808Y-8531302D01*
X-27609634Y-9054821D01*
X-27469183Y-9622564D01*
X-27319767Y-10261928D01*
X-27152697Y-11000310D01*
X-27109100Y-11194888D01*
X-26807583Y-12487281D01*
X-26513029Y-13611045D01*
X-26211864Y-14584577D01*
X-25890515Y-15426272D01*
X-25535411Y-16154525D01*
X-25132978Y-16787732D01*
X-24669644Y-17344290D01*
X-24131837Y-17842593D01*
X-23505982Y-18301037D01*
X-22778509Y-18738018D01*
X-21935843Y-19171931D01*
X-20964413Y-19621173D01*
X-20856816Y-19668909D01*
X-19911919Y-20093504D01*
X-19110195Y-20469903D01*
X-18418426Y-20815378D01*
X-17803394Y-21147201D01*
X-17231881Y-21482644D01*
X-16670669Y-21838979D01*
X-16623482Y-21870054D01*
X-16117472Y-22196708D01*
X-15639794Y-22486057D01*
X-15167380Y-22747707D01*
X-14677160Y-22991263D01*
X-14146066Y-23226334D01*
X-13551028Y-23462524D01*
X-12868979Y-23709442D01*
X-12076848Y-23976693D01*
X-11151567Y-24273884D01*
X-10070067Y-24610621D01*
X-9963644Y-24643391D01*
X-8792950Y-24998910D01*
X-7768965Y-25297216D01*
X-6860991Y-25543761D01*
X-6038333Y-25743996D01*
X-5270292Y-25903373D01*
X-4526172Y-26027344D01*
X-3775276Y-26121361D01*
X-2986907Y-26190876D01*
X-2130367Y-26241339D01*
X-1174960Y-26278204D01*
X-677927Y-26292518D01*
X479410Y-26322091D01*
X1468911Y-26344655D01*
X2310757Y-26360220D01*
X3025128Y-26368797D01*
X3632207Y-26370395D01*
X4152173Y-26365024D01*
X4605209Y-26352694D01*
X5011494Y-26333415D01*
X5391211Y-26307197D01*
X5530962Y-26295570D01*
X6647331Y-26169999D01*
X7644226Y-25989450D01*
X8584904Y-25736627D01*
X9532626Y-25394238D01*
X10550647Y-24944987D01*
X10657999Y-24893879D01*
X11290039Y-24580283D01*
X11897763Y-24253496D01*
X12511723Y-23894550D01*
X13162471Y-23484479D01*
X13880559Y-23004315D01*
X14696538Y-22435091D01*
X15217335Y-22063387D01*
X15826479Y-21632404D01*
X16538337Y-21139357D01*
X17296538Y-20622633D01*
X18044710Y-20120618D01*
X18726478Y-19671701D01*
X18793243Y-19628348D01*
X19825889Y-18947255D01*
X20708493Y-18336994D01*
X21458029Y-17781763D01*
X22091471Y-17265758D01*
X22625792Y-16773178D01*
X23077967Y-16288220D01*
X23464970Y-15795081D01*
X23803774Y-15277959D01*
X24111353Y-14721052D01*
X24153295Y-14638198D01*
X24358104Y-14212360D01*
X24542075Y-13786865D01*
X24714581Y-13332893D01*
X24884998Y-12821625D01*
X25062697Y-12224243D01*
X25257054Y-11511926D01*
X25477441Y-10655856D01*
X25574403Y-10269054D01*
X25816600Y-9306232D01*
X26028713Y-8495748D01*
X26223581Y-7806755D01*
X26414046Y-7208406D01*
X26612948Y-6669852D01*
X26833130Y-6160247D01*
X27087431Y-5648742D01*
X27388692Y-5104490D01*
X27749755Y-4496644D01*
X28183461Y-3794356D01*
X28440464Y-3383984D01*
X28965014Y-2532401D01*
X29388230Y-1805236D01*
X29721744Y-1176445D01*
X29977185Y-619981D01*
X30166184Y-109801D01*
X30300371Y380139D01*
X30391376Y875886D01*
X30412237Y1031572D01*
X30428354Y1310603D01*
X30430466Y1744562D01*
X30420143Y2300874D01*
X30398956Y2946963D01*
X30368474Y3650256D01*
X30330268Y4378176D01*
X30285908Y5098150D01*
X30236964Y5777603D01*
X30185006Y6383958D01*
X30131605Y6884643D01*
X30129144Y6904563D01*
X29946024Y8136498D01*
X29715600Y9289111D01*
X29444915Y10334916D01*
X29141015Y11246430D01*
X28837454Y11944164D01*
X28444647Y12646487D01*
X27931547Y13427831D01*
X27289387Y14300713D01*
X26509396Y15277648D01*
X26459629Y15337905D01*
X26030194Y15859659D01*
X25567288Y16426595D01*
X25115008Y16984425D01*
X24717450Y17478858D01*
X24555077Y17682683D01*
X23998199Y18369182D01*
X23494305Y18948423D01*
X23012653Y19445258D01*
X22522502Y19884539D01*
X21993109Y20291119D01*
X21393733Y20689850D01*
X20693632Y21105584D01*
X19862065Y21563175D01*
X19547999Y21730547D01*
X18986027Y22031375D01*
X18416738Y22341539D01*
X17886962Y22635151D01*
X17443527Y22886324D01*
X17204209Y23026235D01*
X16827867Y23268404D01*
X16395781Y23573576D01*
X15943494Y23913580D01*
X15506549Y24260247D01*
X15120489Y24585406D01*
X14820857Y24860887D01*
X14647300Y25052758D01*
X14499870Y25237982D01*
X14248986Y25533295D01*
X13919462Y25911143D01*
X13536115Y26343970D01*
X13123762Y26804222D01*
X12707219Y27264342D01*
X12311302Y27696776D01*
X11960827Y28073969D01*
X11680611Y28368364D01*
X11495754Y28552144D01*
X10766724Y29161378D01*
X10046995Y29618437D01*
X9287975Y29950166D01*
X8612430Y30145092D01*
X7587504Y30319960D01*
X6432859Y30397376D01*
X5180712Y30375682D01*
X4731332Y30344853D01*
X3661484Y30259311D01*
X2746938Y30190831D01*
X1955681Y30138768D01*
X1255703Y30102481D01*
X614992Y30081324D01*
X1537Y30074654D01*
X-616675Y30081829D01*
X-1271656Y30102203D01*
X-1995415Y30135135D01*
X-2819966Y30179980D01*
X-2988426Y30189665D01*
X-4070567Y30247926D01*
X-4989900Y30286776D01*
X-5770828Y30305588D01*
X-6437749Y30303741D01*
X-7015065Y30280610D01*
X-7527177Y30235571D01*
X-7998485Y30168000D01*
X-8453389Y30077273D01*
X-8585695Y30046549D01*
X-9150805Y29892116D01*
X-9683391Y29700641D01*
X-10203847Y29458419D01*
X-10732566Y29151743D01*
X-11289942Y28766910D01*
X-11896368Y28290212D01*
X-12572238Y27707944D01*
X-13337944Y27006402D01*
X-13895334Y26478179D01*
X-14772420Y25660135D01*
X-15623185Y24914983D01*
X-16510115Y24189988D01*
X-17495698Y23432419D01*
X-17572983Y23374576D01*
X-18691476Y22526058D01*
X-19657387Y21765481D01*
X-20480047Y21084946D01*
X-21168785Y20476557D01*
X-21732929Y19932417D01*
X-22087860Y19552723D01*
X-22365480Y19225903D01*
X-22732760Y18774123D01*
X-23168832Y18224683D01*
X-23652825Y17604883D01*
X-24163872Y16942022D01*
X-24681102Y16263401D01*
X-25183647Y15596318D01*
X-25650637Y14968074D01*
X-26061204Y14405968D01*
X-26394478Y13937301D01*
X-26519764Y13755174D01*
X-26893164Y13187863D01*
X-27213326Y12659915D01*
X-27497878Y12134388D01*
X-27764446Y11574340D01*
X-28030659Y10942829D01*
X-28314143Y10202913D01*
X-28619376Y9354965D01*
X-29037644Y8162736D01*
X-29394731Y7128014D01*
X-29695325Y6232063D01*
X-29944117Y5456149D01*
X-30145795Y4781539D01*
X-30305051Y4189497D01*
X-30426572Y3661291D01*
X-30515050Y3178184D01*
X-30575173Y2721443D01*
X-30611632Y2272334D01*
X-30629115Y1812122D01*
X-30632313Y1322074D01*
X-32361658Y1322074D01*
X-32364647Y1501292D01*
X-32343326Y2156463D01*
X-32285606Y2825419D01*
X-32187381Y3524640D01*
X-32044545Y4270607D01*
X-31852990Y5079799D01*
X-31608611Y5968699D01*
X-31307301Y6953787D01*
X-30944955Y8051543D01*
X-30517464Y9278448D01*
X-30020724Y10650984D01*
X-29681549Y11567868D01*
X-29389341Y12283706D01*
X-29039059Y13008262D01*
X-28617148Y13763609D01*
X-28110050Y14571822D01*
X-27504207Y15454975D01*
X-26786064Y16435142D01*
X-26301639Y17071201D01*
X-25889983Y17605882D01*
X-25458313Y18167442D01*
X-25042544Y18709099D01*
X-24678593Y19184069D01*
X-24459206Y19471057D01*
X-23912454Y20149958D01*
X-23309351Y20823232D01*
X-22633273Y21505935D01*
X-21867598Y22213121D01*
X-20995705Y22959844D01*
X-20000971Y23761160D01*
X-18866774Y24632124D01*
X-18262965Y25083033D01*
X-17453410Y25711743D01*
X-16598725Y26426400D01*
X-15770966Y27165757D01*
X-15392092Y27523256D01*
X-14495637Y28374427D01*
X-13703428Y29096279D01*
X-12996567Y29701741D01*
X-12356155Y30203743D01*
X-11763291Y30615215D01*
X-11199078Y30949087D01*
X-10644615Y31218287D01*
X-10081003Y31435746D01*
X-9489343Y31614393D01*
X-9364410Y31647004D01*
X-8834730Y31771504D01*
X-8311035Y31869888D01*
X-7769912Y31942937D01*
X-7187949Y31991429D01*
X-6541736Y32016142D01*
X-5807859Y32017857D01*
X-4962909Y31997351D01*
X-3983473Y31955403D01*
X-2846139Y31892793D01*
X-2536940Y31874159D01*
X-1743717Y31826774D01*
X-1098065Y31792239D01*
X-559845Y31770599D01*
X-88916Y31761899D01*
X354863Y31766185D01*
X811632Y31783500D01*
X1321531Y31813890D01*
X1924700Y31857399D01*
X2213801Y31879466D01*
X3340485Y31963063D01*
X4301646Y32027030D01*
X5118821Y32071974D01*
X5813543Y32098502D01*
X6407349Y32107219D01*
X6921772Y32098732D01*
X6921772Y32098732D01*
G37*
X6921772Y32098732D02*
X7378347Y32073647D01*
X7770184Y32035924D01*
X8599732Y31920481D01*
X9341199Y31770365D01*
X10016190Y31572099D01*
X10646312Y31312202D01*
X11253170Y30977199D01*
X11858371Y30553609D01*
X12483520Y30027956D01*
X13150224Y29386760D01*
X13880089Y28616545D01*
X14670735Y27731250D01*
X15264214Y27059438D01*
X15782295Y26493097D01*
X16252005Y26011346D01*
X16700372Y25593301D01*
X17154423Y25218081D01*
X17641186Y24864804D01*
X18187688Y24512587D01*
X18820958Y24140547D01*
X19568023Y23727803D01*
X20455910Y23253472D01*
X20488740Y23236096D01*
X21467389Y22704811D01*
X22295697Y22222462D01*
X22998780Y21770054D01*
X23601752Y21328593D01*
X24129730Y20879085D01*
X24607829Y20402534D01*
X25061164Y19879946D01*
X25263593Y19624940D01*
X25534995Y19281004D01*
X25893671Y18835410D01*
X26305416Y18330175D01*
X26736023Y17807316D01*
X27074545Y17400460D01*
X27847382Y16465910D01*
X28503483Y15646258D01*
X29056257Y14920525D01*
X29519111Y14267735D01*
X29905454Y13666908D01*
X30228693Y13097067D01*
X30502236Y12537234D01*
X30739493Y11966430D01*
X30953869Y11363678D01*
X30976105Y11296128D01*
X31254620Y10346608D01*
X31489684Y9326478D01*
X31684740Y8212777D01*
X31843229Y6982544D01*
X31968594Y5612818D01*
X32064277Y4080636D01*
X32067512Y4016123D01*
X32114436Y2902258D01*
X32130320Y1943334D01*
X32107081Y1107549D01*
X32036634Y363104D01*
X31910895Y-321805D01*
X31721781Y-978977D01*
X31461208Y-1640214D01*
X31121091Y-2337318D01*
X30693346Y-3102090D01*
X30169891Y-3966330D01*
X29948158Y-4321142D01*
X29482460Y-5064818D01*
X29098381Y-5691158D01*
X28782662Y-6231785D01*
X28522046Y-6718322D01*
X28303275Y-7182392D01*
X28113092Y-7655618D01*
X27938239Y-8169622D01*
X27765458Y-8756027D01*
X27581491Y-9446457D01*
X27373082Y-10272533D01*
X27257187Y-10739780D01*
X27011899Y-11712914D01*
X26794703Y-12530511D01*
X26596056Y-13221380D01*
X26406418Y-13814329D01*
X26216244Y-14338166D01*
X26015993Y-14821699D01*
X25796122Y-15293739D01*
X25656413Y-15572503D01*
X25240880Y-16312057D01*
X24772126Y-16999405D01*
X24230910Y-17653421D01*
X23597992Y-18292984D01*
X22854132Y-18936968D01*
X21980091Y-19604250D01*
X20956628Y-20313707D01*
X20552213Y-20580260D01*
X19910591Y-21003614D01*
X19174544Y-21497832D01*
X18402048Y-22023447D01*
X17651080Y-22540988D01*
X16979618Y-23010990D01*
X16930361Y-23045858D01*
X16340584Y-23461424D01*
X15735334Y-23883750D01*
X15153202Y-24286204D01*
X14632779Y-24642154D01*
X14212655Y-24924967D01*
X14091703Y-25004857D01*
X13355784Y-25458541D01*
X12532123Y-25917693D01*
X11670515Y-26357748D01*
X10820759Y-26754139D01*
X10032650Y-27082302D01*
X9484062Y-27277899D01*
X8909456Y-27453935D01*
X8349816Y-27605099D01*
X7787566Y-27732563D01*
X7205131Y-27837498D01*
X6584932Y-27921078D01*
X5909394Y-27984474D01*
X5160939Y-28028859D01*
X4321992Y-28055405D01*
X3374976Y-28065285D01*
X2302314Y-28059670D01*
X1086429Y-28039732D01*
X-290254Y-28006645D01*
X-1101260Y-27983882D01*
X-2142977Y-27947030D01*
X-3074826Y-27897327D01*
X-3927968Y-27829195D01*
X-4733566Y-27737056D01*
X-5522782Y-27615333D01*
X-6326777Y-27458448D01*
X-7176715Y-27260825D01*
X-8103757Y-27016885D01*
X-9139064Y-26721052D01*
X-10313800Y-26367747D01*
X-10570033Y-26289142D01*
X-11765777Y-25915806D01*
X-12801398Y-25578954D01*
X-13699257Y-25269248D01*
X-14481714Y-24977349D01*
X-15171130Y-24693919D01*
X-15789865Y-24409619D01*
X-16360280Y-24115111D01*
X-16904734Y-23801056D01*
X-17445588Y-23458115D01*
X-17608200Y-23349742D01*
X-18030292Y-23071145D01*
X-18425019Y-22825093D01*
X-18824742Y-22594535D01*
X-19261824Y-22362421D01*
X-19768625Y-22111701D01*
X-20377507Y-21825322D01*
X-21120833Y-21486236D01*
X-21289787Y-21410004D01*
X-22235394Y-20976032D01*
X-23028743Y-20592391D01*
X-23694130Y-20244391D01*
X-24255855Y-19917345D01*
X-24738214Y-19596563D01*
X-25165506Y-19267355D01*
X-25562027Y-18915035D01*
X-25795705Y-18686006D01*
X-26150738Y-18307196D01*
X-26490075Y-17910557D01*
X-26770222Y-17548787D01*
X-26920688Y-17322976D01*
X-27316248Y-16551355D01*
X-27696763Y-15616382D01*
X-28053323Y-14542751D01*
X-28377018Y-13355159D01*
X-28427014Y-13148437D01*
X-28672376Y-12114727D01*
X-28880588Y-11239560D01*
X-29058999Y-10498673D01*
X-29214960Y-9867799D01*
X-29355821Y-9322675D01*
X-29488933Y-8839034D01*
X-29621646Y-8392611D01*
X-29761311Y-7959142D01*
X-29915278Y-7514360D01*
X-30090898Y-7034002D01*
X-30295521Y-6493801D01*
X-30536498Y-5869492D01*
X-30821179Y-5136811D01*
X-30969889Y-4753984D01*
X-31392123Y-3622324D01*
X-31726815Y-2620744D01*
X-31981886Y-1717197D01*
X-32165261Y-879634D01*
X-32284861Y-76006D01*
X-32348610Y725736D01*
X-32353676Y843423D01*
X-32361658Y1322074D01*
X-30632313Y1322074D01*
X-30632273Y1313794D01*
X-30625752Y732172D01*
X-30608171Y281577D01*
X-30572604Y-95066D01*
X-30512125Y-454833D01*
X-30419808Y-854799D01*
X-30325211Y-1216605D01*
X-30179112Y-1716913D01*
X-29983183Y-2325100D01*
X-29759649Y-2975242D01*
X-29530733Y-3601412D01*
X-29453090Y-3803642D01*
X-29071582Y-4784694D01*
X-28750615Y-5618195D01*
X-28481501Y-6331541D01*
X-28255552Y-6952127D01*
X-28064079Y-7507352D01*
X-27898394Y-8024612D01*
X-27749808Y-8531302D01*
X-27609634Y-9054821D01*
X-27469183Y-9622564D01*
X-27319767Y-10261928D01*
X-27152697Y-11000310D01*
X-27109100Y-11194888D01*
X-26807583Y-12487281D01*
X-26513029Y-13611045D01*
X-26211864Y-14584577D01*
X-25890515Y-15426272D01*
X-25535411Y-16154525D01*
X-25132978Y-16787732D01*
X-24669644Y-17344290D01*
X-24131837Y-17842593D01*
X-23505982Y-18301037D01*
X-22778509Y-18738018D01*
X-21935843Y-19171931D01*
X-20964413Y-19621173D01*
X-20856816Y-19668909D01*
X-19911919Y-20093504D01*
X-19110195Y-20469903D01*
X-18418426Y-20815378D01*
X-17803394Y-21147201D01*
X-17231881Y-21482644D01*
X-16670669Y-21838979D01*
X-16623482Y-21870054D01*
X-16117472Y-22196708D01*
X-15639794Y-22486057D01*
X-15167380Y-22747707D01*
X-14677160Y-22991263D01*
X-14146066Y-23226334D01*
X-13551028Y-23462524D01*
X-12868979Y-23709442D01*
X-12076848Y-23976693D01*
X-11151567Y-24273884D01*
X-10070067Y-24610621D01*
X-9963644Y-24643391D01*
X-8792950Y-24998910D01*
X-7768965Y-25297216D01*
X-6860991Y-25543761D01*
X-6038333Y-25743996D01*
X-5270292Y-25903373D01*
X-4526172Y-26027344D01*
X-3775276Y-26121361D01*
X-2986907Y-26190876D01*
X-2130367Y-26241339D01*
X-1174960Y-26278204D01*
X-677927Y-26292518D01*
X479410Y-26322091D01*
X1468911Y-26344655D01*
X2310757Y-26360220D01*
X3025128Y-26368797D01*
X3632207Y-26370395D01*
X4152173Y-26365024D01*
X4605209Y-26352694D01*
X5011494Y-26333415D01*
X5391211Y-26307197D01*
X5530962Y-26295570D01*
X6647331Y-26169999D01*
X7644226Y-25989450D01*
X8584904Y-25736627D01*
X9532626Y-25394238D01*
X10550647Y-24944987D01*
X10657999Y-24893879D01*
X11290039Y-24580283D01*
X11897763Y-24253496D01*
X12511723Y-23894550D01*
X13162471Y-23484479D01*
X13880559Y-23004315D01*
X14696538Y-22435091D01*
X15217335Y-22063387D01*
X15826479Y-21632404D01*
X16538337Y-21139357D01*
X17296538Y-20622633D01*
X18044710Y-20120618D01*
X18726478Y-19671701D01*
X18793243Y-19628348D01*
X19825889Y-18947255D01*
X20708493Y-18336994D01*
X21458029Y-17781763D01*
X22091471Y-17265758D01*
X22625792Y-16773178D01*
X23077967Y-16288220D01*
X23464970Y-15795081D01*
X23803774Y-15277959D01*
X24111353Y-14721052D01*
X24153295Y-14638198D01*
X24358104Y-14212360D01*
X24542075Y-13786865D01*
X24714581Y-13332893D01*
X24884998Y-12821625D01*
X25062697Y-12224243D01*
X25257054Y-11511926D01*
X25477441Y-10655856D01*
X25574403Y-10269054D01*
X25816600Y-9306232D01*
X26028713Y-8495748D01*
X26223581Y-7806755D01*
X26414046Y-7208406D01*
X26612948Y-6669852D01*
X26833130Y-6160247D01*
X27087431Y-5648742D01*
X27388692Y-5104490D01*
X27749755Y-4496644D01*
X28183461Y-3794356D01*
X28440464Y-3383984D01*
X28965014Y-2532401D01*
X29388230Y-1805236D01*
X29721744Y-1176445D01*
X29977185Y-619981D01*
X30166184Y-109801D01*
X30300371Y380139D01*
X30391376Y875886D01*
X30412237Y1031572D01*
X30428354Y1310603D01*
X30430466Y1744562D01*
X30420143Y2300874D01*
X30398956Y2946963D01*
X30368474Y3650256D01*
X30330268Y4378176D01*
X30285908Y5098150D01*
X30236964Y5777603D01*
X30185006Y6383958D01*
X30131605Y6884643D01*
X30129144Y6904563D01*
X29946024Y8136498D01*
X29715600Y9289111D01*
X29444915Y10334916D01*
X29141015Y11246430D01*
X28837454Y11944164D01*
X28444647Y12646487D01*
X27931547Y13427831D01*
X27289387Y14300713D01*
X26509396Y15277648D01*
X26459629Y15337905D01*
X26030194Y15859659D01*
X25567288Y16426595D01*
X25115008Y16984425D01*
X24717450Y17478858D01*
X24555077Y17682683D01*
X23998199Y18369182D01*
X23494305Y18948423D01*
X23012653Y19445258D01*
X22522502Y19884539D01*
X21993109Y20291119D01*
X21393733Y20689850D01*
X20693632Y21105584D01*
X19862065Y21563175D01*
X19547999Y21730547D01*
X18986027Y22031375D01*
X18416738Y22341539D01*
X17886962Y22635151D01*
X17443527Y22886324D01*
X17204209Y23026235D01*
X16827867Y23268404D01*
X16395781Y23573576D01*
X15943494Y23913580D01*
X15506549Y24260247D01*
X15120489Y24585406D01*
X14820857Y24860887D01*
X14647300Y25052758D01*
X14499870Y25237982D01*
X14248986Y25533295D01*
X13919462Y25911143D01*
X13536115Y26343970D01*
X13123762Y26804222D01*
X12707219Y27264342D01*
X12311302Y27696776D01*
X11960827Y28073969D01*
X11680611Y28368364D01*
X11495754Y28552144D01*
X10766724Y29161378D01*
X10046995Y29618437D01*
X9287975Y29950166D01*
X8612430Y30145092D01*
X7587504Y30319960D01*
X6432859Y30397376D01*
X5180712Y30375682D01*
X4731332Y30344853D01*
X3661484Y30259311D01*
X2746938Y30190831D01*
X1955681Y30138768D01*
X1255703Y30102481D01*
X614992Y30081324D01*
X1537Y30074654D01*
X-616675Y30081829D01*
X-1271656Y30102203D01*
X-1995415Y30135135D01*
X-2819966Y30179980D01*
X-2988426Y30189665D01*
X-4070567Y30247926D01*
X-4989900Y30286776D01*
X-5770828Y30305588D01*
X-6437749Y30303741D01*
X-7015065Y30280610D01*
X-7527177Y30235571D01*
X-7998485Y30168000D01*
X-8453389Y30077273D01*
X-8585695Y30046549D01*
X-9150805Y29892116D01*
X-9683391Y29700641D01*
X-10203847Y29458419D01*
X-10732566Y29151743D01*
X-11289942Y28766910D01*
X-11896368Y28290212D01*
X-12572238Y27707944D01*
X-13337944Y27006402D01*
X-13895334Y26478179D01*
X-14772420Y25660135D01*
X-15623185Y24914983D01*
X-16510115Y24189988D01*
X-17495698Y23432419D01*
X-17572983Y23374576D01*
X-18691476Y22526058D01*
X-19657387Y21765481D01*
X-20480047Y21084946D01*
X-21168785Y20476557D01*
X-21732929Y19932417D01*
X-22087860Y19552723D01*
X-22365480Y19225903D01*
X-22732760Y18774123D01*
X-23168832Y18224683D01*
X-23652825Y17604883D01*
X-24163872Y16942022D01*
X-24681102Y16263401D01*
X-25183647Y15596318D01*
X-25650637Y14968074D01*
X-26061204Y14405968D01*
X-26394478Y13937301D01*
X-26519764Y13755174D01*
X-26893164Y13187863D01*
X-27213326Y12659915D01*
X-27497878Y12134388D01*
X-27764446Y11574340D01*
X-28030659Y10942829D01*
X-28314143Y10202913D01*
X-28619376Y9354965D01*
X-29037644Y8162736D01*
X-29394731Y7128014D01*
X-29695325Y6232063D01*
X-29944117Y5456149D01*
X-30145795Y4781539D01*
X-30305051Y4189497D01*
X-30426572Y3661291D01*
X-30515050Y3178184D01*
X-30575173Y2721443D01*
X-30611632Y2272334D01*
X-30629115Y1812122D01*
X-30632313Y1322074D01*
X-32361658Y1322074D01*
X-32364647Y1501292D01*
X-32343326Y2156463D01*
X-32285606Y2825419D01*
X-32187381Y3524640D01*
X-32044545Y4270607D01*
X-31852990Y5079799D01*
X-31608611Y5968699D01*
X-31307301Y6953787D01*
X-30944955Y8051543D01*
X-30517464Y9278448D01*
X-30020724Y10650984D01*
X-29681549Y11567868D01*
X-29389341Y12283706D01*
X-29039059Y13008262D01*
X-28617148Y13763609D01*
X-28110050Y14571822D01*
X-27504207Y15454975D01*
X-26786064Y16435142D01*
X-26301639Y17071201D01*
X-25889983Y17605882D01*
X-25458313Y18167442D01*
X-25042544Y18709099D01*
X-24678593Y19184069D01*
X-24459206Y19471057D01*
X-23912454Y20149958D01*
X-23309351Y20823232D01*
X-22633273Y21505935D01*
X-21867598Y22213121D01*
X-20995705Y22959844D01*
X-20000971Y23761160D01*
X-18866774Y24632124D01*
X-18262965Y25083033D01*
X-17453410Y25711743D01*
X-16598725Y26426400D01*
X-15770966Y27165757D01*
X-15392092Y27523256D01*
X-14495637Y28374427D01*
X-13703428Y29096279D01*
X-12996567Y29701741D01*
X-12356155Y30203743D01*
X-11763291Y30615215D01*
X-11199078Y30949087D01*
X-10644615Y31218287D01*
X-10081003Y31435746D01*
X-9489343Y31614393D01*
X-9364410Y31647004D01*
X-8834730Y31771504D01*
X-8311035Y31869888D01*
X-7769912Y31942937D01*
X-7187949Y31991429D01*
X-6541736Y32016142D01*
X-5807859Y32017857D01*
X-4962909Y31997351D01*
X-3983473Y31955403D01*
X-2846139Y31892793D01*
X-2536940Y31874159D01*
X-1743717Y31826774D01*
X-1098065Y31792239D01*
X-559845Y31770599D01*
X-88916Y31761899D01*
X354863Y31766185D01*
X811632Y31783500D01*
X1321531Y31813890D01*
X1924700Y31857399D01*
X2213801Y31879466D01*
X3340485Y31963063D01*
X4301646Y32027030D01*
X5118821Y32071974D01*
X5813543Y32098502D01*
X6407349Y32107219D01*
X6921772Y32098732D01*
G36*
X14622831Y16642584D02*
X14966675Y16622116D01*
X15217994Y16579537D01*
X15424507Y16507919D01*
X15558758Y16441744D01*
X16069002Y16071967D01*
X16439272Y15602907D01*
X16664914Y15065998D01*
X16741276Y14492675D01*
X16663704Y13914374D01*
X16427547Y13362531D01*
X16080154Y12919046D01*
X15765576Y12642422D01*
X15443143Y12454833D01*
X15066298Y12341196D01*
X14588485Y12286429D01*
X14091703Y12274867D01*
X13631291Y12287379D01*
X13286839Y12332705D01*
X12987260Y12423327D01*
X12809189Y12500101D01*
X12348601Y12809255D01*
X11976916Y13243465D01*
X11715313Y13758462D01*
X11584972Y14309976D01*
X11607070Y14853736D01*
X11632315Y14960101D01*
X11841202Y15468210D01*
X12158680Y15938850D01*
X12538818Y16309362D01*
X12699954Y16416542D01*
X12900358Y16520526D01*
X13097546Y16587921D01*
X13339589Y16626457D01*
X13674557Y16643863D01*
X14138740Y16647868D01*
X14622831Y16642584D01*
X14622831Y16642584D01*
G37*
X14622831Y16642584D02*
X14966675Y16622116D01*
X15217994Y16579537D01*
X15424507Y16507919D01*
X15558758Y16441744D01*
X16069002Y16071967D01*
X16439272Y15602907D01*
X16664914Y15065998D01*
X16741276Y14492675D01*
X16663704Y13914374D01*
X16427547Y13362531D01*
X16080154Y12919046D01*
X15765576Y12642422D01*
X15443143Y12454833D01*
X15066298Y12341196D01*
X14588485Y12286429D01*
X14091703Y12274867D01*
X13631291Y12287379D01*
X13286839Y12332705D01*
X12987260Y12423327D01*
X12809189Y12500101D01*
X12348601Y12809255D01*
X11976916Y13243465D01*
X11715313Y13758462D01*
X11584972Y14309976D01*
X11607070Y14853736D01*
X11632315Y14960101D01*
X11841202Y15468210D01*
X12158680Y15938850D01*
X12538818Y16309362D01*
X12699954Y16416542D01*
X12900358Y16520526D01*
X13097546Y16587921D01*
X13339589Y16626457D01*
X13674557Y16643863D01*
X14138740Y16647868D01*
X14622831Y16642584D01*
G36*
X-17081197Y17677496D02*
X-16738182Y17657247D01*
X-16487215Y17614908D01*
X-16280330Y17543448D01*
X-16138693Y17473746D01*
X-15638865Y17108959D01*
X-15274979Y16641917D01*
X-15051820Y16105267D01*
X-14974171Y15531652D01*
X-15046817Y14953717D01*
X-15274543Y14404107D01*
X-15622809Y13953861D01*
X-15993006Y13640819D01*
X-16349678Y13442150D01*
X-16435334Y13413460D01*
X-16769255Y13356473D01*
X-17216424Y13326563D01*
X-17711119Y13323200D01*
X-18187619Y13345856D01*
X-18580201Y13394002D01*
X-18739183Y13431993D01*
X-19128639Y13637384D01*
X-19502060Y13975419D01*
X-19811431Y14393334D01*
X-20003919Y14821793D01*
X-20114193Y15271468D01*
X-20136771Y15632977D01*
X-20072322Y15984255D01*
X-20015423Y16158872D01*
X-19736575Y16723961D01*
X-19352305Y17188602D01*
X-18997560Y17454420D01*
X-18798776Y17557158D01*
X-18601261Y17623724D01*
X-18357111Y17661747D01*
X-18018425Y17678854D01*
X-17564223Y17682683D01*
X-17081197Y17677496D01*
X-17081197Y17677496D01*
G37*
X-17081197Y17677496D02*
X-16738182Y17657247D01*
X-16487215Y17614908D01*
X-16280330Y17543448D01*
X-16138693Y17473746D01*
X-15638865Y17108959D01*
X-15274979Y16641917D01*
X-15051820Y16105267D01*
X-14974171Y15531652D01*
X-15046817Y14953717D01*
X-15274543Y14404107D01*
X-15622809Y13953861D01*
X-15993006Y13640819D01*
X-16349678Y13442150D01*
X-16435334Y13413460D01*
X-16769255Y13356473D01*
X-17216424Y13326563D01*
X-17711119Y13323200D01*
X-18187619Y13345856D01*
X-18580201Y13394002D01*
X-18739183Y13431993D01*
X-19128639Y13637384D01*
X-19502060Y13975419D01*
X-19811431Y14393334D01*
X-20003919Y14821793D01*
X-20114193Y15271468D01*
X-20136771Y15632977D01*
X-20072322Y15984255D01*
X-20015423Y16158872D01*
X-19736575Y16723961D01*
X-19352305Y17188602D01*
X-18997560Y17454420D01*
X-18798776Y17557158D01*
X-18601261Y17623724D01*
X-18357111Y17661747D01*
X-18018425Y17678854D01*
X-17564223Y17682683D01*
X-17081197Y17677496D01*
G36*
X18032711Y17585849D02*
X18424371Y17433275D01*
X18680899Y17170118D01*
X18786962Y16917197D01*
X18842614Y16441953D01*
X18747470Y16020035D01*
X18514446Y15686519D01*
X18273682Y15523235D01*
X17945830Y15428258D01*
X17533840Y15387966D01*
X17128973Y15405781D01*
X16856363Y15470067D01*
X16539711Y15694476D01*
X16333245Y16050453D01*
X16255575Y16505205D01*
X16255406Y16528851D01*
X16274723Y16841463D01*
X16358195Y17061901D01*
X16544103Y17284348D01*
X16575258Y17315794D01*
X16768133Y17492721D01*
X16942375Y17588661D01*
X17168095Y17628036D01*
X17492481Y17635294D01*
X18032711Y17585849D01*
X18032711Y17585849D01*
G37*
X18032711Y17585849D02*
X18424371Y17433275D01*
X18680899Y17170118D01*
X18786962Y16917197D01*
X18842614Y16441953D01*
X18747470Y16020035D01*
X18514446Y15686519D01*
X18273682Y15523235D01*
X17945830Y15428258D01*
X17533840Y15387966D01*
X17128973Y15405781D01*
X16856363Y15470067D01*
X16539711Y15694476D01*
X16333245Y16050453D01*
X16255575Y16505205D01*
X16255406Y16528851D01*
X16274723Y16841463D01*
X16358195Y17061901D01*
X16544103Y17284348D01*
X16575258Y17315794D01*
X16768133Y17492721D01*
X16942375Y17588661D01*
X17168095Y17628036D01*
X17492481Y17635294D01*
X18032711Y17585849D01*
G36*
X-13690379Y18627180D02*
X-13306271Y18488142D01*
X-13059463Y18239547D01*
X-12933927Y17867599D01*
X-12909648Y17535792D01*
X-12962054Y17081946D01*
X-13134098Y16758712D01*
X-13441690Y16539732D01*
X-13534196Y16500994D01*
X-13821993Y16440566D01*
X-14197766Y16421436D01*
X-14570535Y16443335D01*
X-14846600Y16504882D01*
X-15163252Y16729291D01*
X-15369718Y17085268D01*
X-15447388Y17540020D01*
X-15447557Y17563666D01*
X-15428240Y17876278D01*
X-15344768Y18096715D01*
X-15158860Y18319163D01*
X-15127705Y18350609D01*
X-14931175Y18530065D01*
X-14752885Y18626014D01*
X-14520413Y18664196D01*
X-14227816Y18670460D01*
X-13690379Y18627180D01*
X-13690379Y18627180D01*
G37*
X-13690379Y18627180D02*
X-13306271Y18488142D01*
X-13059463Y18239547D01*
X-12933927Y17867599D01*
X-12909648Y17535792D01*
X-12962054Y17081946D01*
X-13134098Y16758712D01*
X-13441690Y16539732D01*
X-13534196Y16500994D01*
X-13821993Y16440566D01*
X-14197766Y16421436D01*
X-14570535Y16443335D01*
X-14846600Y16504882D01*
X-15163252Y16729291D01*
X-15369718Y17085268D01*
X-15447388Y17540020D01*
X-15447557Y17563666D01*
X-15428240Y17876278D01*
X-15344768Y18096715D01*
X-15158860Y18319163D01*
X-15127705Y18350609D01*
X-14931175Y18530065D01*
X-14752885Y18626014D01*
X-14520413Y18664196D01*
X-14227816Y18670460D01*
X-13690379Y18627180D01*
D14*
X-6380000Y20750000D02*
X-6380000Y21450000D01*
X-5180000Y21450000D02*
X-5180000Y20750000D01*
X8540000Y19150000D02*
X8540000Y19850000D01*
X9740000Y19850000D02*
X9740000Y19150000D01*
X6700000Y20325000D02*
X6700000Y21025000D01*
X7900000Y21025000D02*
X7900000Y20325000D01*
X-8340000Y20155000D02*
X-7640000Y20155000D01*
X-7640000Y18955000D02*
X-8340000Y18955000D01*
X-6400000Y13385000D02*
X-7100000Y13385000D01*
X-7100000Y14585000D02*
X-6400000Y14585000D01*
X-11422390Y34549780D02*
X-11764410Y35489472D01*
X-11764410Y35489472D02*
X-13737764Y34771230D01*
X-11422390Y34549780D02*
X-13395744Y33831538D01*
X14565590Y33125528D02*
X14907610Y34065220D01*
X14907610Y34065220D02*
X12934256Y34783462D01*
X14565590Y33125528D02*
X12592236Y33843770D01*
D15*
X-2960000Y24260000D02*
X-2960000Y24035000D01*
X4290000Y24260000D02*
X4290000Y23935000D01*
X4290000Y17010000D02*
X4290000Y17335000D01*
X-2960000Y17010000D02*
X-2960000Y17335000D01*
X-2960000Y24260000D02*
X-2635000Y24260000D01*
X-2960000Y17010000D02*
X-2635000Y17010000D01*
X4290000Y17010000D02*
X3965000Y17010000D01*
X4290000Y24260000D02*
X3965000Y24260000D01*
X-2960000Y24035000D02*
X-4385000Y24035000D01*
D14*
X-12635000Y-2830000D02*
X-12635000Y-3530000D01*
X-13835000Y-3530000D02*
X-13835000Y-2830000D01*
X-18511518Y-8812010D02*
X-17662990Y-7963482D01*
X-16418482Y-9207990D02*
X-17267010Y-10056518D01*
X-7465000Y29955000D02*
X-6265000Y29955000D01*
X-6265000Y28195000D02*
X-7465000Y28195000D01*
X6940000Y28405000D02*
X5740000Y28405000D01*
X5740000Y30165000D02*
X6940000Y30165000D01*
D15*
X-36250000Y-2125000D02*
X-36250000Y-1725000D01*
X-29650000Y75000D02*
X-29650000Y2275000D01*
X-36250000Y2275000D02*
X-36250000Y75000D01*
X-29650000Y4075000D02*
X-29650000Y4475000D01*
X-29650000Y4475000D02*
X-36250000Y4475000D01*
X-36250000Y4475000D02*
X-36250000Y4075000D01*
X-29650000Y-2125000D02*
X-29650000Y-1725000D01*
X-29650000Y-2125000D02*
X-36250000Y-2125000D01*
X-31676004Y8684600D02*
X-31446573Y9012261D01*
X-25007732Y6701131D02*
X-23745864Y8503265D01*
X-29152268Y12288869D02*
X-30414136Y10486735D01*
X-22713427Y9977739D02*
X-22483996Y10305400D01*
X-22483996Y10305400D02*
X-27890400Y14091004D01*
X-27890400Y14091004D02*
X-28119830Y13763343D01*
X-26269600Y4898996D02*
X-26040170Y5226657D01*
X-26269600Y4898996D02*
X-31676004Y8684600D01*
X-15536548Y5531658D02*
X-15433020Y5145288D01*
X-21342256Y1698416D02*
X-20772854Y-426621D01*
X-14397744Y1281584D02*
X-14967146Y3406621D01*
X-20306980Y-2165288D02*
X-20203452Y-2551658D01*
X-20203452Y-2551658D02*
X-13828342Y-843452D01*
X-13828342Y-843452D02*
X-13931870Y-457082D01*
X-21911658Y3823452D02*
X-21808130Y3437082D01*
X-21911658Y3823452D02*
X-15536548Y5531658D01*
X-30182905Y-9806827D02*
X-30113445Y-9412903D01*
X-23301147Y-8786328D02*
X-22919121Y-6619750D01*
X-29418853Y-5473672D02*
X-29800879Y-7640250D01*
X-22606555Y-4847097D02*
X-22537095Y-4453173D01*
X-22537095Y-4453173D02*
X-29036827Y-3307095D01*
X-29036827Y-3307095D02*
X-29106286Y-3701019D01*
X-23683173Y-10952905D02*
X-23613714Y-10558981D01*
X-23683173Y-10952905D02*
X-30182905Y-9806827D01*
X-13370000Y-22205000D02*
X-13770000Y-22205000D01*
X-15570000Y-15605000D02*
X-17770000Y-15605000D01*
X-17770000Y-22205000D02*
X-15570000Y-22205000D01*
X-19570000Y-15605000D02*
X-19970000Y-15605000D01*
X-19970000Y-15605000D02*
X-19970000Y-22205000D01*
X-19970000Y-22205000D02*
X-19570000Y-22205000D01*
X-13370000Y-15605000D02*
X-13770000Y-15605000D01*
X-13370000Y-15605000D02*
X-13370000Y-22205000D01*
X-13266905Y-13020000D02*
X-12984062Y-12737157D01*
X-7044365Y-16131270D02*
X-5488730Y-14575635D01*
X-10155635Y-9908730D02*
X-11711270Y-11464365D01*
X-4215938Y-13302843D02*
X-3933095Y-13020000D01*
X-3933095Y-13020000D02*
X-8600000Y-8353095D01*
X-8600000Y-8353095D02*
X-8882843Y-8635938D01*
X-8600000Y-17686905D02*
X-8317157Y-17404062D01*
X-8600000Y-17686905D02*
X-13266905Y-13020000D01*
X5645000Y-12055000D02*
X5645000Y-12455000D01*
X-955000Y-14255000D02*
X-955000Y-16455000D01*
X5645000Y-16455000D02*
X5645000Y-14255000D01*
X-955000Y-18255000D02*
X-955000Y-18655000D01*
X-955000Y-18655000D02*
X5645000Y-18655000D01*
X5645000Y-18655000D02*
X5645000Y-18255000D01*
X-955000Y-12055000D02*
X-955000Y-12455000D01*
X-955000Y-12055000D02*
X5645000Y-12055000D01*
X10425000Y-27351905D02*
X10142157Y-27069062D01*
X13536270Y-21129365D02*
X11980635Y-19573730D01*
X7313730Y-24240635D02*
X8869365Y-25796270D01*
X10707843Y-18300938D02*
X10425000Y-18018095D01*
X10425000Y-18018095D02*
X5758095Y-22685000D01*
X5758095Y-22685000D02*
X6040938Y-22967843D01*
X15091905Y-22685000D02*
X14809062Y-22402157D01*
X15091905Y-22685000D02*
X10425000Y-27351905D01*
X12380000Y-13836905D02*
X12097157Y-13554062D01*
X15491270Y-7614365D02*
X13935635Y-6058730D01*
X9268730Y-10725635D02*
X10824365Y-12281270D01*
X12662843Y-4785938D02*
X12380000Y-4503095D01*
X12380000Y-4503095D02*
X7713095Y-9170000D01*
X7713095Y-9170000D02*
X7995938Y-9452843D01*
X17046905Y-9170000D02*
X16764062Y-8887157D01*
X17046905Y-9170000D02*
X12380000Y-13836905D01*
X25900000Y-9350000D02*
X25900000Y-9750000D01*
X19300000Y-11550000D02*
X19300000Y-13750000D01*
X25900000Y-13750000D02*
X25900000Y-11550000D01*
X19300000Y-15550000D02*
X19300000Y-15950000D01*
X19300000Y-15950000D02*
X25900000Y-15950000D01*
X25900000Y-15950000D02*
X25900000Y-15550000D01*
X19300000Y-9350000D02*
X19300000Y-9750000D01*
X19300000Y-9350000D02*
X25900000Y-9350000D01*
X11858996Y1194600D02*
X12088427Y1522261D01*
X18527268Y-788869D02*
X19789136Y1013265D01*
X14382732Y4798869D02*
X13120864Y2996735D01*
X20821573Y2487739D02*
X21051004Y2815400D01*
X21051004Y2815400D02*
X15644600Y6601004D01*
X15644600Y6601004D02*
X15415170Y6273343D01*
X17265400Y-2591004D02*
X17494830Y-2263343D01*
X17265400Y-2591004D02*
X11858996Y1194600D01*
X30370000Y-1280000D02*
X30370000Y-1680000D01*
X23770000Y-3480000D02*
X23770000Y-5680000D01*
X30370000Y-5680000D02*
X30370000Y-3480000D01*
X23770000Y-7480000D02*
X23770000Y-7880000D01*
X23770000Y-7880000D02*
X30370000Y-7880000D01*
X30370000Y-7880000D02*
X30370000Y-7480000D01*
X23770000Y-1280000D02*
X23770000Y-1680000D01*
X23770000Y-1280000D02*
X30370000Y-1280000D01*
X3175000Y-28780000D02*
X2775000Y-28780000D01*
X975000Y-22180000D02*
X-1225000Y-22180000D01*
X-1225000Y-28780000D02*
X975000Y-28780000D01*
X-3025000Y-22180000D02*
X-3425000Y-22180000D01*
X-3425000Y-22180000D02*
X-3425000Y-28780000D01*
X-3425000Y-28780000D02*
X-3025000Y-28780000D01*
X3175000Y-22180000D02*
X2775000Y-22180000D01*
X3175000Y-22180000D02*
X3175000Y-28780000D01*
X27600000Y6130000D02*
X27600000Y3930000D01*
X34200000Y3930000D02*
X34200000Y6130000D01*
X27600000Y1730000D02*
X34200000Y1730000D01*
X27600000Y8330000D02*
X34200000Y8330000D01*
X-6752857Y21338334D02*
X-6705238Y21290715D01*
X-6657619Y21147858D01*
X-6657619Y21052620D01*
X-6705238Y20909762D01*
X-6800476Y20814524D01*
X-6895714Y20766905D01*
X-7086190Y20719286D01*
X-7229048Y20719286D01*
X-7419524Y20766905D01*
X-7514762Y20814524D01*
X-7610000Y20909762D01*
X-7657619Y21052620D01*
X-7657619Y21147858D01*
X-7610000Y21290715D01*
X-7562381Y21338334D01*
X-6657619Y22290715D02*
X-6657619Y21719286D01*
X-6657619Y22005000D02*
X-7657619Y22005000D01*
X-7514762Y21909762D01*
X-7419524Y21814524D01*
X-7371905Y21719286D01*
X9484586Y16818794D02*
X9532205Y16771175D01*
X9579824Y16628318D01*
X9579824Y16533080D01*
X9532205Y16390222D01*
X9436967Y16294984D01*
X9341729Y16247365D01*
X9151253Y16199746D01*
X9008395Y16199746D01*
X8817919Y16247365D01*
X8722681Y16294984D01*
X8627443Y16390222D01*
X8579824Y16533080D01*
X8579824Y16628318D01*
X8627443Y16771175D01*
X8675062Y16818794D01*
X8675062Y17199746D02*
X8627443Y17247365D01*
X8579824Y17342603D01*
X8579824Y17580699D01*
X8627443Y17675937D01*
X8675062Y17723556D01*
X8770300Y17771175D01*
X8865538Y17771175D01*
X9008395Y17723556D01*
X9579824Y17152127D01*
X9579824Y17771175D01*
X7639586Y17918794D02*
X7687205Y17871175D01*
X7734824Y17728318D01*
X7734824Y17633080D01*
X7687205Y17490222D01*
X7591967Y17394984D01*
X7496729Y17347365D01*
X7306253Y17299746D01*
X7163395Y17299746D01*
X6972919Y17347365D01*
X6877681Y17394984D01*
X6782443Y17490222D01*
X6734824Y17633080D01*
X6734824Y17728318D01*
X6782443Y17871175D01*
X6830062Y17918794D01*
X6734824Y18252127D02*
X6734824Y18871175D01*
X7115776Y18537841D01*
X7115776Y18680699D01*
X7163395Y18775937D01*
X7211014Y18823556D01*
X7306253Y18871175D01*
X7544348Y18871175D01*
X7639586Y18823556D01*
X7687205Y18775937D01*
X7734824Y18680699D01*
X7734824Y18394984D01*
X7687205Y18299746D01*
X7639586Y18252127D01*
X-9456666Y20717857D02*
X-9504285Y20670238D01*
X-9647142Y20622619D01*
X-9742380Y20622619D01*
X-9885238Y20670238D01*
X-9980476Y20765476D01*
X-10028095Y20860714D01*
X-10075714Y21051190D01*
X-10075714Y21194048D01*
X-10028095Y21384524D01*
X-9980476Y21479762D01*
X-9885238Y21575000D01*
X-9742380Y21622619D01*
X-9647142Y21622619D01*
X-9504285Y21575000D01*
X-9456666Y21527381D01*
X-8599523Y21289286D02*
X-8599523Y20622619D01*
X-8837619Y21670238D02*
X-9075714Y20955952D01*
X-8456666Y20955952D01*
X-6916666Y12127857D02*
X-6964285Y12080238D01*
X-7107142Y12032619D01*
X-7202380Y12032619D01*
X-7345238Y12080238D01*
X-7440476Y12175476D01*
X-7488095Y12270714D01*
X-7535714Y12461190D01*
X-7535714Y12604048D01*
X-7488095Y12794524D01*
X-7440476Y12889762D01*
X-7345238Y12985000D01*
X-7202380Y13032619D01*
X-7107142Y13032619D01*
X-6964285Y12985000D01*
X-6916666Y12937381D01*
X-6011904Y13032619D02*
X-6488095Y13032619D01*
X-6535714Y12556429D01*
X-6488095Y12604048D01*
X-6392857Y12651667D01*
X-6154761Y12651667D01*
X-6059523Y12604048D01*
X-6011904Y12556429D01*
X-5964285Y12461190D01*
X-5964285Y12223095D01*
X-6011904Y12127857D01*
X-6059523Y12080238D01*
X-6154761Y12032619D01*
X-6392857Y12032619D01*
X-6488095Y12080238D01*
X-6535714Y12127857D01*
X-12926334Y32722842D02*
X-13268354Y33662534D01*
X-13044618Y33743967D01*
X-12894089Y33748081D01*
X-12772021Y33691159D01*
X-12694700Y33617952D01*
X-12584807Y33455249D01*
X-12535946Y33321007D01*
X-12515547Y33125731D01*
X-12527721Y33019950D01*
X-12584642Y32897882D01*
X-12702598Y32804275D01*
X-12926334Y32722842D01*
X-12340835Y33898773D02*
X-12312375Y33959807D01*
X-12239167Y34037128D01*
X-12015430Y34118561D01*
X-11909649Y34106387D01*
X-11848615Y34077927D01*
X-11771295Y34004719D01*
X-11738721Y33915225D01*
X-11734608Y33764696D01*
X-12076136Y33032288D01*
X-11494421Y33244015D01*
X12239169Y32692728D02*
X12581189Y33632421D01*
X12804925Y33550988D01*
X12922881Y33457380D01*
X12979803Y33335312D01*
X12991976Y33229531D01*
X12971577Y33034256D01*
X12922717Y32900013D01*
X12812823Y32737311D01*
X12735502Y32664103D01*
X12613435Y32607182D01*
X12462905Y32611295D01*
X12239169Y32692728D01*
X13809601Y32830590D02*
X13581588Y32204128D01*
X13716157Y33270001D02*
X13248121Y32680225D01*
X13829836Y32468498D01*
X-4962619Y15315476D02*
X-3962619Y15982143D01*
X-4962619Y15982143D02*
X-3962619Y15315476D01*
X-3962619Y16886905D02*
X-3962619Y16315476D01*
X-3962619Y16601190D02*
X-4962619Y16601190D01*
X-4819762Y16505952D01*
X-4724524Y16410714D01*
X-4676905Y16315476D01*
X-96905Y27232619D02*
X-96905Y26423095D01*
X-49286Y26327857D01*
X-1667Y26280238D01*
X93571Y26232619D01*
X284048Y26232619D01*
X379286Y26280238D01*
X426905Y26327857D01*
X474524Y26423095D01*
X474524Y27232619D01*
X1474524Y26232619D02*
X903095Y26232619D01*
X1188809Y26232619D02*
X1188809Y27232619D01*
X1093571Y27089762D01*
X998333Y26994524D01*
X903095Y26946905D01*
X-4756905Y25517619D02*
X-4756905Y24708095D01*
X-4709286Y24612857D01*
X-4661667Y24565238D01*
X-4566429Y24517619D01*
X-4375952Y24517619D01*
X-4280714Y24565238D01*
X-4233095Y24612857D01*
X-4185476Y24708095D01*
X-4185476Y25517619D01*
X-3185476Y24517619D02*
X-3756905Y24517619D01*
X-3471191Y24517619D02*
X-3471191Y25517619D01*
X-3566429Y25374762D01*
X-3661667Y25279524D01*
X-3756905Y25231905D01*
X-14377857Y-3346666D02*
X-14330238Y-3394285D01*
X-14282619Y-3537142D01*
X-14282619Y-3632380D01*
X-14330238Y-3775238D01*
X-14425476Y-3870476D01*
X-14520714Y-3918095D01*
X-14711190Y-3965714D01*
X-14854048Y-3965714D01*
X-15044524Y-3918095D01*
X-15139762Y-3870476D01*
X-15235000Y-3775238D01*
X-15282619Y-3632380D01*
X-15282619Y-3537142D01*
X-15235000Y-3394285D01*
X-15187381Y-3346666D01*
X-15282619Y-2489523D02*
X-15282619Y-2680000D01*
X-15235000Y-2775238D01*
X-15187381Y-2822857D01*
X-15044524Y-2918095D01*
X-14854048Y-2965714D01*
X-14473095Y-2965714D01*
X-14377857Y-2918095D01*
X-14330238Y-2870476D01*
X-14282619Y-2775238D01*
X-14282619Y-2584761D01*
X-14330238Y-2489523D01*
X-14377857Y-2441904D01*
X-14473095Y-2394285D01*
X-14711190Y-2394285D01*
X-14806429Y-2441904D01*
X-14854048Y-2489523D01*
X-14901667Y-2584761D01*
X-14901667Y-2775238D01*
X-14854048Y-2870476D01*
X-14806429Y-2918095D01*
X-14711190Y-2965714D01*
X-16096243Y-10614458D02*
X-16668664Y-10513443D01*
X-16500304Y-11018520D02*
X-17207411Y-10311413D01*
X-16938037Y-10042038D01*
X-16837021Y-10008367D01*
X-16769678Y-10008367D01*
X-16668663Y-10042038D01*
X-16567648Y-10143054D01*
X-16533976Y-10244069D01*
X-16533976Y-10311412D01*
X-16567648Y-10412427D01*
X-16837022Y-10681802D01*
X-15422808Y-9941023D02*
X-15826869Y-10345085D01*
X-15624839Y-10143054D02*
X-16331946Y-9435948D01*
X-16298274Y-9604306D01*
X-16298274Y-9738993D01*
X-16331946Y-9840008D01*
X-7031666Y26972619D02*
X-7365000Y27448810D01*
X-7603095Y26972619D02*
X-7603095Y27972619D01*
X-7222142Y27972619D01*
X-7126904Y27925000D01*
X-7079285Y27877381D01*
X-7031666Y27782143D01*
X-7031666Y27639286D01*
X-7079285Y27544048D01*
X-7126904Y27496429D01*
X-7222142Y27448810D01*
X-7603095Y27448810D01*
X-6650714Y27877381D02*
X-6603095Y27925000D01*
X-6507857Y27972619D01*
X-6269761Y27972619D01*
X-6174523Y27925000D01*
X-6126904Y27877381D01*
X-6079285Y27782143D01*
X-6079285Y27686905D01*
X-6126904Y27544048D01*
X-6698333Y26972619D01*
X-6079285Y26972619D01*
X6263334Y27157619D02*
X5930000Y27633810D01*
X5691905Y27157619D02*
X5691905Y28157619D01*
X6072858Y28157619D01*
X6168096Y28110000D01*
X6215715Y28062381D01*
X6263334Y27967143D01*
X6263334Y27824286D01*
X6215715Y27729048D01*
X6168096Y27681429D01*
X6072858Y27633810D01*
X5691905Y27633810D01*
X6596667Y28157619D02*
X7215715Y28157619D01*
X6882381Y27776667D01*
X7025239Y27776667D01*
X7120477Y27729048D01*
X7168096Y27681429D01*
X7215715Y27586190D01*
X7215715Y27348095D01*
X7168096Y27252857D01*
X7120477Y27205238D01*
X7025239Y27157619D01*
X6739524Y27157619D01*
X6644286Y27205238D01*
X6596667Y27252857D01*
X-34283333Y-3329762D02*
X-34140476Y-3377381D01*
X-33902380Y-3377381D01*
X-33807142Y-3329762D01*
X-33759523Y-3282143D01*
X-33711904Y-3186905D01*
X-33711904Y-3091667D01*
X-33759523Y-2996429D01*
X-33807142Y-2948810D01*
X-33902380Y-2901190D01*
X-34092857Y-2853571D01*
X-34188095Y-2805952D01*
X-34235714Y-2758333D01*
X-34283333Y-2663095D01*
X-34283333Y-2567857D01*
X-34235714Y-2472619D01*
X-34188095Y-2425000D01*
X-34092857Y-2377381D01*
X-33854761Y-2377381D01*
X-33711904Y-2425000D01*
X-33378571Y-2377381D02*
X-33140476Y-3377381D01*
X-32949999Y-2663095D01*
X-32759523Y-3377381D01*
X-32521428Y-2377381D01*
X-31616666Y-3377381D02*
X-32188095Y-3377381D01*
X-31902381Y-3377381D02*
X-31902381Y-2377381D01*
X-31997619Y-2520238D01*
X-32092857Y-2615476D01*
X-32188095Y-2663095D01*
X-33711905Y4870238D02*
X-33569048Y4822619D01*
X-33330952Y4822619D01*
X-33235714Y4870238D01*
X-33188095Y4917857D01*
X-33140476Y5013095D01*
X-33140476Y5108333D01*
X-33188095Y5203571D01*
X-33235714Y5251190D01*
X-33330952Y5298810D01*
X-33521429Y5346429D01*
X-33616667Y5394048D01*
X-33664286Y5441667D01*
X-33711905Y5536905D01*
X-33711905Y5632143D01*
X-33664286Y5727381D01*
X-33616667Y5775000D01*
X-33521429Y5822619D01*
X-33283333Y5822619D01*
X-33140476Y5775000D01*
X-32521429Y5822619D02*
X-32426190Y5822619D01*
X-32330952Y5775000D01*
X-32283333Y5727381D01*
X-32235714Y5632143D01*
X-32188095Y5441667D01*
X-32188095Y5203571D01*
X-32235714Y5013095D01*
X-32283333Y4917857D01*
X-32330952Y4870238D01*
X-32426190Y4822619D01*
X-32521429Y4822619D01*
X-32616667Y4870238D01*
X-32664286Y4917857D01*
X-32711905Y5013095D01*
X-32759524Y5203571D01*
X-32759524Y5441667D01*
X-32711905Y5632143D01*
X-32664286Y5727381D01*
X-32616667Y5775000D01*
X-32521429Y5822619D01*
X-30756027Y6569684D02*
X-30666319Y6448737D01*
X-30471282Y6312171D01*
X-30365955Y6296552D01*
X-30299634Y6308246D01*
X-30206001Y6358947D01*
X-30151374Y6436962D01*
X-30135755Y6542289D01*
X-30147449Y6608609D01*
X-30198150Y6702244D01*
X-30326867Y6850504D01*
X-30377568Y6944138D01*
X-30389262Y7010458D01*
X-30373643Y7115785D01*
X-30319017Y7193800D01*
X-30225383Y7244501D01*
X-30159063Y7256195D01*
X-30053735Y7240576D01*
X-29858698Y7104010D01*
X-29768990Y6983063D01*
X-29468626Y6830878D02*
X-29847167Y5875161D01*
X-29281440Y6351016D01*
X-29535108Y5656655D01*
X-28766496Y6339241D01*
X-28548072Y6070035D02*
X-28481752Y6081729D01*
X-28376424Y6066110D01*
X-28181387Y5929544D01*
X-28130686Y5835910D01*
X-28118992Y5769590D01*
X-28134611Y5664262D01*
X-28189237Y5586248D01*
X-28310184Y5496540D01*
X-29106029Y5356211D01*
X-28598935Y5001139D01*
X-26618145Y14845300D02*
X-26150057Y14517542D01*
X-26957678Y13862269D02*
X-26384101Y14681421D01*
X-26325712Y13768554D02*
X-25935639Y13495422D01*
X-26567605Y13589137D02*
X-25720978Y14217097D01*
X-26021503Y13206753D01*
X-25225739Y12765817D02*
X-25292060Y12754123D01*
X-25436394Y12797055D01*
X-25514409Y12851681D01*
X-25604118Y12972628D01*
X-25627506Y13105269D01*
X-25611887Y13210597D01*
X-25541642Y13393939D01*
X-25459702Y13510961D01*
X-25311442Y13639677D01*
X-25217809Y13690378D01*
X-25085168Y13713766D01*
X-24940832Y13670833D01*
X-24862818Y13616207D01*
X-24773110Y13495260D01*
X-24761416Y13428940D01*
X-24472746Y13343076D02*
X-24004659Y13015317D01*
X-24812279Y12360045D02*
X-24238703Y13179197D01*
X-24305185Y12004973D02*
X-23731608Y12824125D01*
X-23525040Y11458710D02*
X-23915113Y11731842D01*
X-23341536Y12550994D01*
X-22951545Y11696598D02*
X-22678493Y11505406D01*
X-22861917Y10994386D02*
X-23251990Y11267518D01*
X-22678413Y12086670D01*
X-22288340Y11813538D01*
X-20114299Y4714234D02*
X-19963985Y4705212D01*
X-19734002Y4766835D01*
X-19654333Y4837481D01*
X-19620662Y4895802D01*
X-19599315Y5000120D01*
X-19623964Y5092113D01*
X-19694610Y5171781D01*
X-19752931Y5205453D01*
X-19857249Y5226801D01*
X-20053560Y5223498D01*
X-20157878Y5244845D01*
X-20216199Y5278517D01*
X-20286845Y5358185D01*
X-20311494Y5450178D01*
X-20290147Y5554495D01*
X-20256475Y5612816D01*
X-20176807Y5683462D01*
X-19946824Y5745086D01*
X-19796510Y5736064D01*
X-19486860Y5868333D02*
X-18998059Y4964031D01*
X-18998943Y5703277D01*
X-18630087Y5062629D01*
X-18658923Y6090178D01*
X-18382945Y6164126D02*
X-17784990Y6324348D01*
X-18008369Y5870103D01*
X-17870379Y5907077D01*
X-17766061Y5885730D01*
X-17707740Y5852059D01*
X-17637094Y5772390D01*
X-17575470Y5542407D01*
X-17596817Y5438090D01*
X-17630489Y5379769D01*
X-17710157Y5309123D01*
X-17986137Y5235174D01*
X-18090454Y5256521D01*
X-18148775Y5290193D01*
X-19549376Y-2637683D02*
X-18997418Y-2489786D01*
X-19014579Y-3529661D02*
X-19273398Y-2563735D01*
X-18536569Y-3105785D02*
X-18076604Y-2982538D01*
X-18554614Y-3406413D02*
X-18491458Y-2354215D01*
X-17910663Y-3233867D01*
X-17061379Y-2907705D02*
X-17095051Y-2966026D01*
X-17220716Y-3048996D01*
X-17312708Y-3073646D01*
X-17463023Y-3064624D01*
X-17579666Y-2997280D01*
X-17650311Y-2917612D01*
X-17745607Y-2745951D01*
X-17782581Y-2607961D01*
X-17785883Y-2411651D01*
X-17764536Y-2307333D01*
X-17697193Y-2190691D01*
X-17571527Y-2107720D01*
X-17479535Y-2083071D01*
X-17329221Y-2092093D01*
X-17270899Y-2125765D01*
X-17019570Y-1959824D02*
X-16467612Y-1811927D01*
X-16484773Y-2851801D02*
X-16743592Y-1885875D01*
X-15886818Y-2691580D02*
X-16145637Y-1725654D01*
X-14966889Y-2445085D02*
X-15426854Y-2568333D01*
X-15685673Y-1602407D01*
X-14780486Y-1852851D02*
X-14458510Y-1766578D01*
X-14184949Y-2235565D02*
X-14644914Y-2358813D01*
X-14903733Y-1392887D01*
X-14443768Y-1269639D01*
X-28455321Y-11334794D02*
X-28322903Y-11406496D01*
X-28088424Y-11447841D01*
X-27986364Y-11417484D01*
X-27931200Y-11378857D01*
X-27867766Y-11293335D01*
X-27851228Y-11199544D01*
X-27881586Y-11097484D01*
X-27920213Y-11042319D01*
X-28005735Y-10978885D01*
X-28185049Y-10898913D01*
X-28270571Y-10835480D01*
X-28309198Y-10780315D01*
X-28339555Y-10678255D01*
X-28323017Y-10584464D01*
X-28259584Y-10498942D01*
X-28204419Y-10460315D01*
X-28102359Y-10429958D01*
X-27867881Y-10471302D01*
X-27735463Y-10543005D01*
X-27398925Y-10553992D02*
X-27338095Y-11580145D01*
X-27026478Y-10909786D01*
X-26962930Y-11646296D01*
X-26554804Y-10702833D01*
X-25815461Y-11171675D02*
X-25931227Y-11828213D01*
X-25983788Y-10755165D02*
X-26342301Y-11417255D01*
X-25732657Y-11524751D01*
X-28202551Y-2085792D02*
X-27639803Y-2185020D01*
X-28094825Y-3120214D02*
X-27921177Y-2135406D01*
X-27482464Y-2938068D02*
X-27013507Y-3020758D01*
X-27625869Y-3202903D02*
X-27123952Y-2275978D01*
X-26969330Y-3318669D01*
X-26061775Y-3381988D02*
X-26116940Y-3420615D01*
X-26265896Y-3442703D01*
X-26359687Y-3426166D01*
X-26492105Y-3354463D01*
X-26569359Y-3244134D01*
X-26599716Y-3142074D01*
X-26613536Y-2946223D01*
X-26588729Y-2805535D01*
X-26508758Y-2626222D01*
X-26445324Y-2540700D01*
X-26334995Y-2463446D01*
X-26186039Y-2441358D01*
X-26092247Y-2457896D01*
X-25959830Y-2529598D01*
X-25921203Y-2584763D01*
X-25623292Y-2540585D02*
X-25060544Y-2639813D01*
X-25515567Y-3575007D02*
X-25341918Y-2590199D01*
X-24905923Y-3682503D02*
X-24732275Y-2697695D01*
X-23968011Y-3847882D02*
X-24436968Y-3765193D01*
X-24263320Y-2780385D01*
X-23548784Y-3389913D02*
X-23220514Y-3447796D01*
X-23170786Y-3988455D02*
X-23639742Y-3905765D01*
X-23466094Y-2920957D01*
X-22997137Y-3003647D01*
X-12165238Y-20238333D02*
X-12117619Y-20095476D01*
X-12117619Y-19857380D01*
X-12165238Y-19762142D01*
X-12212857Y-19714523D01*
X-12308095Y-19666904D01*
X-12403333Y-19666904D01*
X-12498571Y-19714523D01*
X-12546190Y-19762142D01*
X-12593810Y-19857380D01*
X-12641429Y-20047857D01*
X-12689048Y-20143095D01*
X-12736667Y-20190714D01*
X-12831905Y-20238333D01*
X-12927143Y-20238333D01*
X-13022381Y-20190714D01*
X-13070000Y-20143095D01*
X-13117619Y-20047857D01*
X-13117619Y-19809761D01*
X-13070000Y-19666904D01*
X-13117619Y-19333571D02*
X-12117619Y-19095476D01*
X-12831905Y-18904999D01*
X-12117619Y-18714523D01*
X-13117619Y-18476428D01*
X-13117619Y-17619285D02*
X-13117619Y-18095476D01*
X-12641429Y-18143095D01*
X-12689048Y-18095476D01*
X-12736667Y-18000238D01*
X-12736667Y-17762142D01*
X-12689048Y-17666904D01*
X-12641429Y-17619285D01*
X-12546190Y-17571666D01*
X-12308095Y-17571666D01*
X-12212857Y-17619285D01*
X-12165238Y-17666904D01*
X-12117619Y-17762142D01*
X-12117619Y-18000238D01*
X-12165238Y-18095476D01*
X-12212857Y-18143095D01*
X-21317619Y-21595476D02*
X-21317619Y-21024047D01*
X-20317619Y-21309762D02*
X-21317619Y-21309762D01*
X-20603333Y-20738333D02*
X-20603333Y-20262142D01*
X-20317619Y-20833571D02*
X-21317619Y-20500238D01*
X-20317619Y-20166904D01*
X-20412857Y-19262142D02*
X-20365238Y-19309761D01*
X-20317619Y-19452618D01*
X-20317619Y-19547856D01*
X-20365238Y-19690714D01*
X-20460476Y-19785952D01*
X-20555714Y-19833571D01*
X-20746190Y-19881190D01*
X-20889048Y-19881190D01*
X-21079524Y-19833571D01*
X-21174762Y-19785952D01*
X-21270000Y-19690714D01*
X-21317619Y-19547856D01*
X-21317619Y-19452618D01*
X-21270000Y-19309761D01*
X-21222381Y-19262142D01*
X-21317619Y-18976428D02*
X-21317619Y-18404999D01*
X-20317619Y-18690714D02*
X-21317619Y-18690714D01*
X-20317619Y-18071666D02*
X-21317619Y-18071666D01*
X-20317619Y-17119285D02*
X-20317619Y-17595476D01*
X-21317619Y-17595476D01*
X-20841429Y-16785952D02*
X-20841429Y-16452618D01*
X-20317619Y-16309761D02*
X-20317619Y-16785952D01*
X-21317619Y-16785952D01*
X-21317619Y-16309761D01*
X-12728157Y-15262539D02*
X-12660813Y-15397226D01*
X-12492454Y-15565585D01*
X-12391439Y-15599257D01*
X-12324095Y-15599257D01*
X-12223080Y-15565585D01*
X-12155737Y-15498242D01*
X-12122065Y-15397227D01*
X-12122065Y-15329883D01*
X-12155736Y-15228867D01*
X-12256752Y-15060508D01*
X-12290424Y-14959493D01*
X-12290424Y-14892150D01*
X-12256752Y-14791134D01*
X-12189409Y-14723791D01*
X-12088393Y-14690119D01*
X-12021050Y-14690119D01*
X-11920035Y-14723791D01*
X-11751676Y-14892150D01*
X-11684332Y-15026837D01*
X-11414958Y-15228867D02*
X-11953707Y-16104333D01*
X-11313942Y-15733944D01*
X-11684332Y-16373707D01*
X-10808867Y-15834959D01*
X-10236447Y-16407379D02*
X-10371134Y-16272691D01*
X-10472150Y-16239020D01*
X-10539493Y-16239020D01*
X-10707852Y-16272691D01*
X-10876210Y-16373707D01*
X-11145585Y-16643081D01*
X-11179256Y-16744096D01*
X-11179256Y-16811440D01*
X-11145585Y-16912455D01*
X-11010897Y-17047142D01*
X-10909882Y-17080814D01*
X-10842538Y-17080814D01*
X-10741523Y-17047142D01*
X-10573165Y-16878784D01*
X-10539492Y-16777768D01*
X-10539492Y-16710424D01*
X-10573164Y-16609409D01*
X-10707852Y-16474722D01*
X-10808867Y-16441050D01*
X-10876210Y-16441050D01*
X-10977226Y-16474722D01*
X-8853787Y-9715861D02*
X-8449725Y-10119922D01*
X-9358863Y-10624998D02*
X-8651756Y-9917891D01*
X-8752772Y-10827029D02*
X-8416054Y-11163747D01*
X-9022145Y-10961716D02*
X-8079336Y-10490311D01*
X-8550741Y-11433121D01*
X-7843634Y-12005541D02*
X-7910977Y-12005541D01*
X-8045664Y-11938197D01*
X-8113008Y-11870854D01*
X-8180352Y-11736166D01*
X-8180352Y-11601479D01*
X-8146680Y-11500464D01*
X-8045665Y-11332106D01*
X-7944649Y-11231090D01*
X-7776290Y-11130075D01*
X-7675275Y-11096403D01*
X-7540588Y-11096403D01*
X-7405901Y-11163747D01*
X-7338557Y-11231090D01*
X-7271214Y-11365777D01*
X-7271214Y-11433121D01*
X-7001840Y-11567808D02*
X-6597779Y-11971869D01*
X-7506917Y-12476945D02*
X-6799810Y-11769838D01*
X-7069184Y-12914678D02*
X-6362077Y-12207571D01*
X-6395748Y-13588113D02*
X-6732466Y-13251395D01*
X-6025360Y-12544288D01*
X-5789657Y-13453425D02*
X-5553954Y-13689128D01*
X-5823329Y-14160533D02*
X-6160046Y-13823815D01*
X-5452940Y-13116708D01*
X-5116222Y-13453426D01*
X5552110Y-15966302D02*
X5694967Y-16013921D01*
X5933063Y-16013921D01*
X6028301Y-15966302D01*
X6075920Y-15918683D01*
X6123539Y-15823445D01*
X6123539Y-15728207D01*
X6075920Y-15632969D01*
X6028301Y-15585350D01*
X5933063Y-15537730D01*
X5742586Y-15490111D01*
X5647348Y-15442492D01*
X5599729Y-15394873D01*
X5552110Y-15299635D01*
X5552110Y-15204397D01*
X5599729Y-15109159D01*
X5647348Y-15061540D01*
X5742586Y-15013921D01*
X5980682Y-15013921D01*
X6123539Y-15061540D01*
X6456872Y-15013921D02*
X6694967Y-16013921D01*
X6885444Y-15299635D01*
X7075920Y-16013921D01*
X7314015Y-15013921D01*
X7599729Y-15013921D02*
X8266396Y-15013921D01*
X7837824Y-16013921D01*
X-345476Y-18907381D02*
X225953Y-18907381D01*
X-59762Y-19907381D02*
X-59762Y-18907381D01*
X511667Y-19621667D02*
X987858Y-19621667D01*
X416429Y-19907381D02*
X749762Y-18907381D01*
X1083096Y-19907381D01*
X1987858Y-19812143D02*
X1940239Y-19859762D01*
X1797382Y-19907381D01*
X1702144Y-19907381D01*
X1559286Y-19859762D01*
X1464048Y-19764524D01*
X1416429Y-19669286D01*
X1368810Y-19478810D01*
X1368810Y-19335952D01*
X1416429Y-19145476D01*
X1464048Y-19050238D01*
X1559286Y-18955000D01*
X1702144Y-18907381D01*
X1797382Y-18907381D01*
X1940239Y-18955000D01*
X1987858Y-19002619D01*
X2273572Y-18907381D02*
X2845001Y-18907381D01*
X2559286Y-19907381D02*
X2559286Y-18907381D01*
X3178334Y-19907381D02*
X3178334Y-18907381D01*
X4130715Y-19907381D02*
X3654524Y-19907381D01*
X3654524Y-18907381D01*
X4464048Y-19383571D02*
X4797382Y-19383571D01*
X4940239Y-19907381D02*
X4464048Y-19907381D01*
X4464048Y-18907381D01*
X4940239Y-18907381D01*
X12667539Y-26813157D02*
X12802226Y-26745813D01*
X12970585Y-26577454D01*
X13004257Y-26476439D01*
X13004257Y-26409095D01*
X12970585Y-26308080D01*
X12903242Y-26240737D01*
X12802227Y-26207065D01*
X12734883Y-26207065D01*
X12633867Y-26240736D01*
X12465508Y-26341752D01*
X12364493Y-26375424D01*
X12297150Y-26375424D01*
X12196134Y-26341752D01*
X12128791Y-26274409D01*
X12095119Y-26173393D01*
X12095119Y-26106050D01*
X12128791Y-26005035D01*
X12297150Y-25836676D01*
X12431837Y-25769332D01*
X12633867Y-25499958D02*
X13509333Y-26038707D01*
X13138944Y-25398942D01*
X13778707Y-25769332D01*
X13239959Y-24893867D01*
X13913393Y-24826523D02*
X13812378Y-24860195D01*
X13745035Y-24860195D01*
X13644020Y-24826523D01*
X13610348Y-24792852D01*
X13576676Y-24691836D01*
X13576676Y-24624493D01*
X13610348Y-24523478D01*
X13745036Y-24388790D01*
X13846051Y-24355119D01*
X13913394Y-24355119D01*
X14014409Y-24388790D01*
X14048081Y-24422462D01*
X14081753Y-24523477D01*
X14081753Y-24590821D01*
X14048081Y-24691836D01*
X13913393Y-24826523D01*
X13879722Y-24927538D01*
X13879722Y-24994882D01*
X13913394Y-25095898D01*
X14048081Y-25230585D01*
X14149096Y-25264256D01*
X14216440Y-25264256D01*
X14317455Y-25230585D01*
X14452142Y-25095897D01*
X14485814Y-24994882D01*
X14485814Y-24927538D01*
X14452142Y-24826523D01*
X14317455Y-24691836D01*
X14216440Y-24658164D01*
X14149096Y-24658164D01*
X14048081Y-24691836D01*
X5236183Y-21301091D02*
X5640244Y-20897029D01*
X6145320Y-21806167D02*
X5438213Y-21099060D01*
X6347351Y-21200076D02*
X6684069Y-20863358D01*
X6482038Y-21469449D02*
X6010633Y-20526640D01*
X6953443Y-20998045D01*
X7525863Y-20290938D02*
X7525863Y-20358281D01*
X7458519Y-20492968D01*
X7391176Y-20560312D01*
X7256488Y-20627656D01*
X7121801Y-20627656D01*
X7020786Y-20593984D01*
X6852428Y-20492969D01*
X6751412Y-20391953D01*
X6650397Y-20223594D01*
X6616725Y-20122579D01*
X6616725Y-19987892D01*
X6684069Y-19853205D01*
X6751412Y-19785861D01*
X6886099Y-19718518D01*
X6953443Y-19718518D01*
X7088130Y-19449144D02*
X7492191Y-19045083D01*
X7997267Y-19954221D02*
X7290160Y-19247114D01*
X8435000Y-19516488D02*
X7727893Y-18809381D01*
X9108435Y-18843052D02*
X8771717Y-19179770D01*
X8064610Y-18472664D01*
X8973747Y-18236961D02*
X9209450Y-18001258D01*
X9680855Y-18270633D02*
X9344137Y-18607350D01*
X8637030Y-17900244D01*
X8973748Y-17563526D01*
X14622539Y-13298157D02*
X14757226Y-13230813D01*
X14925585Y-13062454D01*
X14959257Y-12961439D01*
X14959257Y-12894095D01*
X14925585Y-12793080D01*
X14858242Y-12725737D01*
X14757227Y-12692065D01*
X14689883Y-12692065D01*
X14588867Y-12725736D01*
X14420508Y-12826752D01*
X14319493Y-12860424D01*
X14252150Y-12860424D01*
X14151134Y-12826752D01*
X14083791Y-12759409D01*
X14050119Y-12658393D01*
X14050119Y-12591050D01*
X14083791Y-12490035D01*
X14252150Y-12321676D01*
X14386837Y-12254332D01*
X14588867Y-11984958D02*
X15464333Y-12523707D01*
X15093944Y-11883942D01*
X15733707Y-12254332D01*
X15194959Y-11378867D01*
X16205111Y-11782928D02*
X16339798Y-11648241D01*
X16373471Y-11547225D01*
X16373471Y-11479882D01*
X16339799Y-11311523D01*
X16238784Y-11143165D01*
X15969409Y-10873790D01*
X15868394Y-10840119D01*
X15801051Y-10840119D01*
X15700036Y-10873790D01*
X15565348Y-11008478D01*
X15531676Y-11109493D01*
X15531676Y-11176836D01*
X15565348Y-11277852D01*
X15733707Y-11446210D01*
X15834722Y-11479882D01*
X15902066Y-11479883D01*
X16003081Y-11446211D01*
X16137769Y-11311523D01*
X16171440Y-11210508D01*
X16171440Y-11143164D01*
X16137768Y-11042149D01*
X7191183Y-7786091D02*
X7595244Y-7382029D01*
X8100320Y-8291167D02*
X7393213Y-7584060D01*
X8302351Y-7685076D02*
X8639069Y-7348358D01*
X8437038Y-7954449D02*
X7965633Y-7011640D01*
X8908443Y-7483045D01*
X9480863Y-6775938D02*
X9480863Y-6843281D01*
X9413519Y-6977968D01*
X9346176Y-7045312D01*
X9211488Y-7112656D01*
X9076801Y-7112656D01*
X8975786Y-7078984D01*
X8807428Y-6977969D01*
X8706412Y-6876953D01*
X8605397Y-6708594D01*
X8571725Y-6607579D01*
X8571725Y-6472892D01*
X8639069Y-6338205D01*
X8706412Y-6270861D01*
X8841099Y-6203518D01*
X8908443Y-6203518D01*
X9043130Y-5934144D02*
X9447191Y-5530083D01*
X9952267Y-6439221D02*
X9245160Y-5732114D01*
X10390000Y-6001488D02*
X9682893Y-5294381D01*
X11063435Y-5328052D02*
X10726717Y-5664770D01*
X10019610Y-4957664D01*
X10928747Y-4721961D02*
X11164450Y-4486258D01*
X11635855Y-4755633D02*
X11299137Y-5092350D01*
X10592030Y-4385244D01*
X10928748Y-4048526D01*
X20790476Y-8954762D02*
X20933333Y-9002381D01*
X21171429Y-9002381D01*
X21266667Y-8954762D01*
X21314286Y-8907143D01*
X21361905Y-8811905D01*
X21361905Y-8716667D01*
X21314286Y-8621429D01*
X21266667Y-8573810D01*
X21171429Y-8526190D01*
X20980952Y-8478571D01*
X20885714Y-8430952D01*
X20838095Y-8383333D01*
X20790476Y-8288095D01*
X20790476Y-8192857D01*
X20838095Y-8097619D01*
X20885714Y-8050000D01*
X20980952Y-8002381D01*
X21219048Y-8002381D01*
X21361905Y-8050000D01*
X21695238Y-8002381D02*
X21933333Y-9002381D01*
X22123810Y-8288095D01*
X22314286Y-9002381D01*
X22552381Y-8002381D01*
X23457143Y-9002381D02*
X22885714Y-9002381D01*
X23171428Y-9002381D02*
X23171428Y-8002381D01*
X23076190Y-8145238D01*
X22980952Y-8240476D01*
X22885714Y-8288095D01*
X24076190Y-8002381D02*
X24171429Y-8002381D01*
X24266667Y-8050000D01*
X24314286Y-8097619D01*
X24361905Y-8192857D01*
X24409524Y-8383333D01*
X24409524Y-8621429D01*
X24361905Y-8811905D01*
X24314286Y-8907143D01*
X24266667Y-8954762D01*
X24171429Y-9002381D01*
X24076190Y-9002381D01*
X23980952Y-8954762D01*
X23933333Y-8907143D01*
X23885714Y-8811905D01*
X23838095Y-8621429D01*
X23838095Y-8383333D01*
X23885714Y-8192857D01*
X23933333Y-8097619D01*
X23980952Y-8050000D01*
X24076190Y-8002381D01*
X19909524Y-16202381D02*
X20480953Y-16202381D01*
X20195238Y-17202381D02*
X20195238Y-16202381D01*
X20766667Y-16916667D02*
X21242858Y-16916667D01*
X20671429Y-17202381D02*
X21004762Y-16202381D01*
X21338096Y-17202381D01*
X22242858Y-17107143D02*
X22195239Y-17154762D01*
X22052382Y-17202381D01*
X21957144Y-17202381D01*
X21814286Y-17154762D01*
X21719048Y-17059524D01*
X21671429Y-16964286D01*
X21623810Y-16773810D01*
X21623810Y-16630952D01*
X21671429Y-16440476D01*
X21719048Y-16345238D01*
X21814286Y-16250000D01*
X21957144Y-16202381D01*
X22052382Y-16202381D01*
X22195239Y-16250000D01*
X22242858Y-16297619D01*
X22528572Y-16202381D02*
X23100001Y-16202381D01*
X22814286Y-17202381D02*
X22814286Y-16202381D01*
X23433334Y-17202381D02*
X23433334Y-16202381D01*
X24385715Y-17202381D02*
X23909524Y-17202381D01*
X23909524Y-16202381D01*
X24719048Y-16678571D02*
X25052382Y-16678571D01*
X25195239Y-17202381D02*
X24719048Y-17202381D01*
X24719048Y-16202381D01*
X25195239Y-16202381D01*
X12388900Y-647184D02*
X12478608Y-768131D01*
X12673645Y-904697D01*
X12778973Y-920316D01*
X12845293Y-908622D01*
X12938926Y-857921D01*
X12993553Y-779906D01*
X13009172Y-674579D01*
X12997478Y-608259D01*
X12946777Y-514624D01*
X12818061Y-366364D01*
X12767359Y-272731D01*
X12755665Y-206410D01*
X12771284Y-101083D01*
X12825911Y-23068D01*
X12919544Y27633D01*
X12985864Y39327D01*
X13091192Y23708D01*
X13286229Y-112858D01*
X13375937Y-233805D01*
X13676301Y-385990D02*
X13297760Y-1341707D01*
X13863488Y-865852D01*
X13609819Y-1560213D01*
X14378431Y-877627D01*
X14545992Y-2215729D02*
X14077905Y-1887971D01*
X14311948Y-2051849D02*
X14885525Y-1232697D01*
X14725571Y-1295093D01*
X14592930Y-1318481D01*
X14487603Y-1302862D01*
X15326137Y-2761992D02*
X14858050Y-2434234D01*
X15092093Y-2598113D02*
X15665670Y-1778961D01*
X15505716Y-1841356D01*
X15373075Y-1864744D01*
X15267748Y-1849125D01*
X16916855Y7355300D02*
X17384943Y7027542D01*
X16577322Y6372269D02*
X17150899Y7191421D01*
X17209288Y6278554D02*
X17599361Y6005422D01*
X16967395Y6099137D02*
X17814022Y6727097D01*
X17513497Y5716753D01*
X18309261Y5275817D02*
X18242940Y5264123D01*
X18098606Y5307055D01*
X18020591Y5361681D01*
X17930882Y5482628D01*
X17907494Y5615269D01*
X17923113Y5720597D01*
X17993358Y5903939D01*
X18075298Y6020961D01*
X18223558Y6149677D01*
X18317191Y6200378D01*
X18449832Y6223766D01*
X18594168Y6180833D01*
X18672182Y6126207D01*
X18761890Y6005260D01*
X18773584Y5938940D01*
X19062254Y5853076D02*
X19530341Y5525317D01*
X18722721Y4870045D02*
X19296297Y5689197D01*
X19229815Y4514973D02*
X19803392Y5334125D01*
X20009960Y3968710D02*
X19619887Y4241842D01*
X20193464Y5060994D01*
X20583455Y4206598D02*
X20856507Y4015406D01*
X20673083Y3504386D02*
X20283010Y3777518D01*
X20856587Y4596670D01*
X21246660Y4323538D01*
X25260476Y-884762D02*
X25403333Y-932381D01*
X25641429Y-932381D01*
X25736667Y-884762D01*
X25784286Y-837143D01*
X25831905Y-741905D01*
X25831905Y-646667D01*
X25784286Y-551429D01*
X25736667Y-503810D01*
X25641429Y-456190D01*
X25450952Y-408571D01*
X25355714Y-360952D01*
X25308095Y-313333D01*
X25260476Y-218095D01*
X25260476Y-122857D01*
X25308095Y-27619D01*
X25355714Y20000D01*
X25450952Y67619D01*
X25689048Y67619D01*
X25831905Y20000D01*
X26165238Y67619D02*
X26403333Y-932381D01*
X26593810Y-218095D01*
X26784286Y-932381D01*
X27022381Y67619D01*
X27927143Y-932381D02*
X27355714Y-932381D01*
X27641428Y-932381D02*
X27641428Y67619D01*
X27546190Y-75238D01*
X27450952Y-170476D01*
X27355714Y-218095D01*
X28308095Y-27619D02*
X28355714Y20000D01*
X28450952Y67619D01*
X28689048Y67619D01*
X28784286Y20000D01*
X28831905Y-27619D01*
X28879524Y-122857D01*
X28879524Y-218095D01*
X28831905Y-360952D01*
X28260476Y-932381D01*
X28879524Y-932381D01*
X24379524Y-8132381D02*
X24950953Y-8132381D01*
X24665238Y-9132381D02*
X24665238Y-8132381D01*
X25236667Y-8846667D02*
X25712858Y-8846667D01*
X25141429Y-9132381D02*
X25474762Y-8132381D01*
X25808096Y-9132381D01*
X26712858Y-9037143D02*
X26665239Y-9084762D01*
X26522382Y-9132381D01*
X26427144Y-9132381D01*
X26284286Y-9084762D01*
X26189048Y-8989524D01*
X26141429Y-8894286D01*
X26093810Y-8703810D01*
X26093810Y-8560952D01*
X26141429Y-8370476D01*
X26189048Y-8275238D01*
X26284286Y-8180000D01*
X26427144Y-8132381D01*
X26522382Y-8132381D01*
X26665239Y-8180000D01*
X26712858Y-8227619D01*
X26998572Y-8132381D02*
X27570001Y-8132381D01*
X27284286Y-9132381D02*
X27284286Y-8132381D01*
X27903334Y-9132381D02*
X27903334Y-8132381D01*
X28855715Y-9132381D02*
X28379524Y-9132381D01*
X28379524Y-8132381D01*
X29189048Y-8608571D02*
X29522382Y-8608571D01*
X29665239Y-9132381D02*
X29189048Y-9132381D01*
X29189048Y-8132381D01*
X29665239Y-8132381D01*
X4379762Y-27289524D02*
X4427381Y-27146667D01*
X4427381Y-26908571D01*
X4379762Y-26813333D01*
X4332143Y-26765714D01*
X4236905Y-26718095D01*
X4141667Y-26718095D01*
X4046429Y-26765714D01*
X3998810Y-26813333D01*
X3951190Y-26908571D01*
X3903571Y-27099048D01*
X3855952Y-27194286D01*
X3808333Y-27241905D01*
X3713095Y-27289524D01*
X3617857Y-27289524D01*
X3522619Y-27241905D01*
X3475000Y-27194286D01*
X3427381Y-27099048D01*
X3427381Y-26860952D01*
X3475000Y-26718095D01*
X3427381Y-26384762D02*
X4427381Y-26146667D01*
X3713095Y-25956190D01*
X4427381Y-25765714D01*
X3427381Y-25527619D01*
X4427381Y-24622857D02*
X4427381Y-25194286D01*
X4427381Y-24908572D02*
X3427381Y-24908572D01*
X3570238Y-25003810D01*
X3665476Y-25099048D01*
X3713095Y-25194286D01*
X3427381Y-24289524D02*
X3427381Y-23670476D01*
X3808333Y-24003810D01*
X3808333Y-23860952D01*
X3855952Y-23765714D01*
X3903571Y-23718095D01*
X3998810Y-23670476D01*
X4236905Y-23670476D01*
X4332143Y-23718095D01*
X4379762Y-23765714D01*
X4427381Y-23860952D01*
X4427381Y-24146667D01*
X4379762Y-24241905D01*
X4332143Y-24289524D01*
X-3772619Y-27289524D02*
X-4772619Y-27289524D01*
X-4058333Y-26956190D01*
X-4772619Y-26622857D01*
X-3772619Y-26622857D01*
X-4772619Y-25956191D02*
X-4772619Y-25765714D01*
X-4725000Y-25670476D01*
X-4629762Y-25575238D01*
X-4439286Y-25527619D01*
X-4105952Y-25527619D01*
X-3915476Y-25575238D01*
X-3820238Y-25670476D01*
X-3772619Y-25765714D01*
X-3772619Y-25956191D01*
X-3820238Y-26051429D01*
X-3915476Y-26146667D01*
X-4105952Y-26194286D01*
X-4439286Y-26194286D01*
X-4629762Y-26146667D01*
X-4725000Y-26051429D01*
X-4772619Y-25956191D01*
X-3772619Y-25099048D02*
X-4772619Y-25099048D01*
X-4772619Y-24860953D01*
X-4725000Y-24718095D01*
X-4629762Y-24622857D01*
X-4534524Y-24575238D01*
X-4344048Y-24527619D01*
X-4201190Y-24527619D01*
X-4010714Y-24575238D01*
X-3915476Y-24622857D01*
X-3820238Y-24718095D01*
X-3772619Y-24860953D01*
X-3772619Y-25099048D01*
X-4296429Y-24099048D02*
X-4296429Y-23765714D01*
X-3772619Y-23622857D02*
X-3772619Y-24099048D01*
X-4772619Y-24099048D01*
X-4772619Y-23622857D01*
X29090476Y8725238D02*
X29233333Y8677619D01*
X29471429Y8677619D01*
X29566667Y8725238D01*
X29614286Y8772857D01*
X29661905Y8868095D01*
X29661905Y8963333D01*
X29614286Y9058571D01*
X29566667Y9106190D01*
X29471429Y9153810D01*
X29280952Y9201429D01*
X29185714Y9249048D01*
X29138095Y9296667D01*
X29090476Y9391905D01*
X29090476Y9487143D01*
X29138095Y9582381D01*
X29185714Y9630000D01*
X29280952Y9677619D01*
X29519048Y9677619D01*
X29661905Y9630000D01*
X29995238Y9677619D02*
X30233333Y8677619D01*
X30423810Y9391905D01*
X30614286Y8677619D01*
X30852381Y9677619D01*
X31757143Y8677619D02*
X31185714Y8677619D01*
X31471428Y8677619D02*
X31471428Y9677619D01*
X31376190Y9534762D01*
X31280952Y9439524D01*
X31185714Y9391905D01*
X32614286Y9344286D02*
X32614286Y8677619D01*
X32376190Y9725238D02*
X32138095Y9010952D01*
X32757143Y9010952D01*
X28209524Y1477619D02*
X28780953Y1477619D01*
X28495238Y477619D02*
X28495238Y1477619D01*
X29066667Y763333D02*
X29542858Y763333D01*
X28971429Y477619D02*
X29304762Y1477619D01*
X29638096Y477619D01*
X30542858Y572857D02*
X30495239Y525238D01*
X30352382Y477619D01*
X30257144Y477619D01*
X30114286Y525238D01*
X30019048Y620476D01*
X29971429Y715714D01*
X29923810Y906190D01*
X29923810Y1049048D01*
X29971429Y1239524D01*
X30019048Y1334762D01*
X30114286Y1430000D01*
X30257144Y1477619D01*
X30352382Y1477619D01*
X30495239Y1430000D01*
X30542858Y1382381D01*
X30828572Y1477619D02*
X31400001Y1477619D01*
X31114286Y477619D02*
X31114286Y1477619D01*
X31733334Y477619D02*
X31733334Y1477619D01*
X32685715Y477619D02*
X32209524Y477619D01*
X32209524Y1477619D01*
X33019048Y1001429D02*
X33352382Y1001429D01*
X33495239Y477619D02*
X33019048Y477619D01*
X33019048Y1477619D01*
X33495239Y1477619D01*
M02*
