G04 #@! TF.FileFunction,Legend,Bot*
%FSLAX46Y46*%
G04 Gerber Fmt 4.6, Leading zero omitted, Abs format (unit mm)*
G04 Created by KiCad (PCBNEW 4.0.7-e2-6376~58~ubuntu16.04.1) date Tue Oct 31 02:22:27 2017*
%MOMM*%
%LPD*%
G01*
G04 APERTURE LIST*
%ADD10C,0.100000*%
%ADD11C,0.150000*%
%ADD12C,0.250000*%
G04 APERTURE END LIST*
D10*
D11*
X-31824942Y6659105D02*
X-32849466Y848739D01*
X-32849466Y848739D02*
X-30800418Y12469470D01*
X-31824942Y6659105D02*
X-33696077Y6989036D01*
X-33696077Y6989036D02*
X-33134214Y7296135D01*
X-33134214Y7296135D02*
X-33255767Y6606770D01*
X-33255767Y6606770D02*
X-33273132Y6508289D01*
X-33273132Y6508289D02*
X-33696077Y6989036D01*
X-13290978Y5200460D02*
G75*
G03X-13290978Y5200460I-10261579J0D01*
G01*
X32072443Y4765460D02*
X32072443Y10665460D01*
X32072443Y10665460D02*
X32072443Y-1134540D01*
X32072443Y4765460D02*
X33972443Y4765460D01*
X33972443Y4765460D02*
X33472443Y4365460D01*
X33472443Y4365460D02*
X33472443Y5065460D01*
X33472443Y5065460D02*
X33472443Y5165460D01*
X33472443Y5165460D02*
X33972443Y4765460D01*
X33934022Y4765460D02*
G75*
G03X33934022Y4765460I-10261579J0D01*
G01*
X-325000Y-28550000D02*
X5575000Y-28550000D01*
X5575000Y-28550000D02*
X-6225000Y-28550000D01*
X-325000Y-28550000D02*
X-325000Y-30450000D01*
X-325000Y-30450000D02*
X-725000Y-29950000D01*
X-725000Y-29950000D02*
X-25000Y-29950000D01*
X-25000Y-29950000D02*
X75000Y-29950000D01*
X75000Y-29950000D02*
X-325000Y-30450000D01*
X9936579Y-20150000D02*
G75*
G03X9936579Y-20150000I-10261579J0D01*
G01*
D12*
X-20142051Y-5584873D02*
X-30101343Y-11334873D01*
X-14744936Y-5932949D02*
X-16244936Y-3334873D01*
X-16244936Y-3334873D02*
X-16677949Y-3584873D01*
X-30101343Y-11334873D02*
X-28351343Y-14365962D01*
X-28351343Y-14365962D02*
X-30083394Y-15365962D01*
X-30083394Y-15365962D02*
X-28583394Y-17964038D01*
X-28583394Y-17964038D02*
X-26851343Y-16964038D01*
X-26851343Y-16964038D02*
X-25101343Y-19995127D01*
X-25101343Y-19995127D02*
X-11244936Y-11995127D01*
X-11244936Y-11995127D02*
X-12744936Y-9397051D01*
D11*
X-17479136Y4927387D02*
X-17457047Y4778431D01*
X-17418420Y4723266D01*
X-17332898Y4659833D01*
X-17192211Y4635026D01*
X-17090151Y4665384D01*
X-17034986Y4704010D01*
X-16971553Y4789533D01*
X-16905401Y5164698D01*
X-17890209Y5338346D01*
X-17948092Y5010076D01*
X-17917734Y4908016D01*
X-17879107Y4852852D01*
X-17793585Y4789418D01*
X-17699794Y4772880D01*
X-17597734Y4803238D01*
X-17542569Y4841865D01*
X-17479136Y4927387D01*
X-17421253Y5255657D01*
X-18039050Y4494225D02*
X-18138278Y3931477D01*
X-17103856Y4039204D02*
X-18088664Y4212852D01*
X-18094100Y3633566D02*
X-18149265Y3594940D01*
X-18212698Y3509417D01*
X-18254043Y3274939D01*
X-18223686Y3172879D01*
X-18185059Y3117714D01*
X-18099537Y3054281D01*
X-18005746Y3037743D01*
X-17856790Y3059831D01*
X-17194815Y3523351D01*
X-17302311Y2913708D01*
X17501014Y5551174D02*
X17548633Y5408317D01*
X17596253Y5360698D01*
X17691491Y5313079D01*
X17834348Y5313079D01*
X17929586Y5360698D01*
X17977205Y5408317D01*
X18024824Y5503555D01*
X18024824Y5884508D01*
X17024824Y5884508D01*
X17024824Y5551174D01*
X17072443Y5455936D01*
X17120062Y5408317D01*
X17215300Y5360698D01*
X17310538Y5360698D01*
X17405776Y5408317D01*
X17453395Y5455936D01*
X17501014Y5551174D01*
X17501014Y5884508D01*
X17024824Y5027365D02*
X17024824Y4455936D01*
X18024824Y4741651D02*
X17024824Y4741651D01*
X18024824Y3598793D02*
X18024824Y4170222D01*
X18024824Y3884508D02*
X17024824Y3884508D01*
X17167681Y3979746D01*
X17262919Y4074984D01*
X17310538Y4170222D01*
X317857Y-14502382D02*
X794048Y-14502382D01*
X794048Y-13502382D01*
X32143Y-14454763D02*
X-110714Y-14502382D01*
X-348810Y-14502382D01*
X-444048Y-14454763D01*
X-491667Y-14407144D01*
X-539286Y-14311906D01*
X-539286Y-14216668D01*
X-491667Y-14121430D01*
X-444048Y-14073811D01*
X-348810Y-14026191D01*
X-158333Y-13978572D01*
X-63095Y-13930953D01*
X-15476Y-13883334D01*
X32143Y-13788096D01*
X32143Y-13692858D01*
X-15476Y-13597620D01*
X-63095Y-13550001D01*
X-158333Y-13502382D01*
X-396429Y-13502382D01*
X-539286Y-13550001D01*
X-1491667Y-14502382D02*
X-920238Y-14502382D01*
X-1205952Y-14502382D02*
X-1205952Y-13502382D01*
X-1110714Y-13645239D01*
X-1015476Y-13740477D01*
X-920238Y-13788096D01*
X-26256351Y-7327930D02*
X-25899208Y-7946519D01*
X-25786539Y-8046427D01*
X-25656441Y-8081287D01*
X-25508914Y-8051097D01*
X-25426436Y-8003478D01*
X-26579885Y-7624694D02*
X-26644934Y-7607264D01*
X-26751222Y-7613644D01*
X-26957419Y-7732692D01*
X-27016088Y-7821550D01*
X-27033518Y-7886599D01*
X-27027138Y-7992887D01*
X-26979519Y-8075365D01*
X-26866851Y-8175273D01*
X-26086265Y-8384431D01*
X-26622376Y-8693955D01*
X-5017620Y32808333D02*
X-4303334Y32808333D01*
X-4160477Y32855953D01*
X-4065239Y32951191D01*
X-4017620Y33094048D01*
X-4017620Y33189286D01*
X-4017620Y31808333D02*
X-4017620Y32379762D01*
X-4017620Y32094048D02*
X-5017620Y32094048D01*
X-4874763Y32189286D01*
X-4779525Y32284524D01*
X-4731906Y32379762D01*
X4586668Y35332143D02*
X4586668Y34855952D01*
X4872382Y35427381D02*
X3872382Y35094048D01*
X4872382Y34760714D01*
X3872382Y34570238D02*
X4872382Y34236905D01*
X3872382Y33903571D01*
X4872382Y32998809D02*
X4396191Y33332143D01*
X4872382Y33570238D02*
X3872382Y33570238D01*
X3872382Y33189285D01*
X3920001Y33094047D01*
X3967620Y33046428D01*
X4062858Y32998809D01*
X4205715Y32998809D01*
X4300953Y33046428D01*
X4348572Y33094047D01*
X4396191Y33189285D01*
X4396191Y33570238D01*
X4872382Y32570238D02*
X3872382Y32570238D01*
X4824763Y32141667D02*
X4872382Y31998810D01*
X4872382Y31760714D01*
X4824763Y31665476D01*
X4777144Y31617857D01*
X4681906Y31570238D01*
X4586668Y31570238D01*
X4491430Y31617857D01*
X4443811Y31665476D01*
X4396191Y31760714D01*
X4348572Y31951191D01*
X4300953Y32046429D01*
X4253334Y32094048D01*
X4158096Y32141667D01*
X4062858Y32141667D01*
X3967620Y32094048D01*
X3920001Y32046429D01*
X3872382Y31951191D01*
X3872382Y31713095D01*
X3920001Y31570238D01*
X4872382Y31141667D02*
X3872382Y31141667D01*
X3872382Y30760714D01*
X3920001Y30665476D01*
X3967620Y30617857D01*
X4062858Y30570238D01*
X4205715Y30570238D01*
X4300953Y30617857D01*
X4348572Y30665476D01*
X4396191Y30760714D01*
X4396191Y31141667D01*
X3872382Y29713095D02*
X3872382Y29903572D01*
X3920001Y29998810D01*
X3967620Y30046429D01*
X4110477Y30141667D01*
X4300953Y30189286D01*
X4681906Y30189286D01*
X4777144Y30141667D01*
X4824763Y30094048D01*
X4872382Y29998810D01*
X4872382Y29808333D01*
X4824763Y29713095D01*
X4777144Y29665476D01*
X4681906Y29617857D01*
X4443811Y29617857D01*
X4348572Y29665476D01*
X4300953Y29713095D01*
X4253334Y29808333D01*
X4253334Y29998810D01*
X4300953Y30094048D01*
X4348572Y30141667D01*
X4443811Y30189286D01*
M02*
