G04 #@! TF.FileFunction,Copper,L2,Bot,Signal*
%FSLAX46Y46*%
G04 Gerber Fmt 4.6, Leading zero omitted, Abs format (unit mm)*
G04 Created by KiCad (PCBNEW 4.0.7-e2-6376~58~ubuntu16.04.1) date Tue Oct 31 02:22:27 2017*
%MOMM*%
%LPD*%
G01*
G04 APERTURE LIST*
%ADD10C,0.100000*%
%ADD11C,16.000000*%
%ADD12R,5.500000X5.000000*%
%ADD13R,5.000000X5.500000*%
%ADD14C,3.000000*%
%ADD15R,1.651000X1.651000*%
%ADD16C,1.651000*%
%ADD17C,1.524000*%
%ADD18C,0.400000*%
%ADD19C,0.355600*%
G04 APERTURE END LIST*
D10*
G36*
X-23491090Y21385676D02*
X-18074647Y20430611D01*
X-18942888Y15506572D01*
X-24359331Y16461637D01*
X-23491090Y21385676D01*
X-23491090Y21385676D01*
G37*
D11*
X-23552557Y5200460D03*
D10*
G36*
X-28162226Y-5105652D02*
X-22745783Y-6060717D01*
X-23614024Y-10984756D01*
X-29030467Y-10029691D01*
X-28162226Y-5105652D01*
X-28162226Y-5105652D01*
G37*
D12*
X23672443Y-8684540D03*
D11*
X23672443Y4765460D03*
D12*
X23672443Y18215460D03*
D13*
X-13775000Y-20150000D03*
D11*
X-325000Y-20150000D03*
D13*
X13125000Y-20150000D03*
D14*
X-25609485Y-14515000D03*
X-13744936Y-7665000D03*
X-18510000Y-4411668D03*
D15*
X2515000Y33745000D03*
X-25000Y33745000D03*
X-2565000Y33745000D03*
D16*
X2515000Y31205000D03*
D15*
X-25000Y31205000D03*
X-2565000Y31205000D03*
D17*
X-8491937Y43475556D03*
X-10287986Y41679504D03*
X-12084038Y39883453D03*
X-13880090Y38087403D03*
D18*
X-2447557Y21030460D03*
X-352557Y19195460D03*
X-7107557Y22745460D03*
X-5542557Y27880460D03*
X4745000Y29325000D03*
X-14332557Y8755460D03*
X-9262557Y15865460D03*
X8372443Y-19284540D03*
X8457443Y-22229540D03*
X33832443Y4675460D03*
X-4922557Y21830460D03*
X-5207557Y23790460D03*
X-5477557Y33160460D03*
X15222443Y4745460D03*
X14882443Y3060460D03*
X-16417557Y4375460D03*
X-28327557Y9000460D03*
X-4732557Y20270460D03*
X-6172557Y18970460D03*
X-7732557Y16920460D03*
X-4882557Y18585460D03*
X-9010000Y29075000D03*
X-12892557Y34380460D03*
X8075000Y29265000D03*
X12085000Y34755000D03*
X3375000Y17835000D03*
X12547443Y4220460D03*
X9472443Y-16744540D03*
X4325000Y17220000D03*
X305000Y23560000D03*
X20862443Y-28044540D03*
X7797443Y22975460D03*
X-20002557Y-28724540D03*
X-11927557Y-23774540D03*
X-7487557Y-10324540D03*
X6892443Y23650460D03*
X6067443Y28125460D03*
X14365000Y34780000D03*
X5187443Y12460460D03*
X-13392557Y-16194540D03*
X2667443Y17715460D03*
X-3470000Y24150000D03*
X-15587557Y-5189540D03*
X-8552557Y12915460D03*
X-17317557Y-11289540D03*
X-1987557Y22225460D03*
X-30742557Y-659540D03*
X-22327557Y13685460D03*
X-8612557Y21825460D03*
X-8187557Y23170460D03*
X-5192557Y26020460D03*
X-10537557Y19475460D03*
X-15917557Y-364540D03*
X-20322557Y-8104540D03*
X-4822557Y19330460D03*
X-19192557Y-6844540D03*
X-19507557Y-11359540D03*
X-17557557Y-13979540D03*
X-13782557Y6925460D03*
X-452557Y13665460D03*
X-7312557Y-12799540D03*
X4652443Y-10784540D03*
X4452443Y11930460D03*
X6262443Y19440460D03*
X6657443Y17870460D03*
X18217443Y-9249540D03*
X8952443Y22185460D03*
X-372557Y26470460D03*
X-2022557Y27300460D03*
X-12292557Y41360460D03*
X-4802557Y28340460D03*
D19*
X23672443Y-8684540D02*
X31812443Y-6284540D01*
X31812443Y-6284540D02*
X35517443Y2835460D01*
X35517443Y2835460D02*
X34092443Y11190460D01*
X34092443Y11190460D02*
X28847443Y15370460D01*
X28847443Y15370460D02*
X23672443Y18215460D01*
X-23547557Y18125460D02*
X-30262557Y14445460D01*
X-30262557Y14445460D02*
X-33167557Y9750460D01*
X-33167557Y9750460D02*
X-35122557Y3435460D01*
X-35122557Y3435460D02*
X-35067557Y140460D01*
X-35067557Y140460D02*
X-32552557Y-4214540D01*
X-32552557Y-4214540D02*
X-23547557Y-8774540D01*
X-2447557Y21030460D02*
X-352557Y19195460D01*
X-6607557Y22928946D02*
X-5327557Y24845460D01*
X-5327557Y24845460D02*
X-4367557Y25485460D01*
X-4367557Y25485460D02*
X-4627557Y27040460D01*
X-4627557Y27040460D02*
X-5542557Y27880460D01*
X-7107557Y22745460D02*
X-6607557Y22928946D01*
X-6607557Y22928946D02*
X-6562557Y22945460D01*
X5447443Y27101106D02*
X4932443Y28340460D01*
X4932443Y28340460D02*
X4745000Y29325000D01*
X23672443Y18215460D02*
X10742443Y25490460D01*
X10742443Y25490460D02*
X5447443Y27101106D01*
X5447443Y27101106D02*
X5482443Y27090460D01*
X-23547557Y18125460D02*
X-14987557Y25670460D01*
X-14987557Y25670460D02*
X-5542557Y27880460D01*
X4745000Y29325000D02*
X4825000Y32255000D01*
X4825000Y32255000D02*
X4290000Y33550000D01*
X4290000Y33550000D02*
X2515000Y33745000D01*
X-14332557Y8755460D02*
X-9262557Y15865460D01*
X8372443Y-19284540D02*
X8457443Y-22229540D01*
X23672443Y4765460D02*
X33832443Y4675460D01*
X-5337557Y23280460D02*
X-4922557Y21830460D01*
X-5207557Y23790460D02*
X-5337557Y23280460D01*
X-2565000Y33745000D02*
X-4827557Y33580460D01*
X-4827557Y33580460D02*
X-5477557Y33160460D01*
X15222443Y4745460D02*
X23672443Y4765460D01*
X14882443Y3060460D02*
X23672443Y4765460D01*
X-16417557Y4375460D02*
X-23547557Y4675460D01*
X-28327557Y9000460D02*
X-23547557Y4675460D01*
X-4732557Y20270460D02*
X-6172557Y18970460D01*
X-7732557Y16920460D02*
X-4882557Y18585460D01*
X-9010000Y29075000D02*
X-12892557Y34380460D01*
X8075000Y29265000D02*
X12085000Y34755000D01*
X2515000Y31205000D02*
X3375000Y17835000D01*
X12547443Y4220460D02*
X13577443Y-24540D01*
X13577443Y-24540D02*
X13997443Y-2679540D01*
X13997443Y-2679540D02*
X9472443Y-16744540D01*
X4325000Y17220000D02*
X3415000Y27665000D01*
X3415000Y27665000D02*
X3860000Y30225000D01*
X3860000Y30225000D02*
X4085000Y31665000D01*
X4085000Y31665000D02*
X3720000Y32315000D01*
X3720000Y32315000D02*
X2805000Y32480000D01*
X2805000Y32480000D02*
X1915000Y32470000D01*
X1915000Y32470000D02*
X1260000Y32250000D01*
X1260000Y32250000D02*
X-25000Y31205000D01*
X-1845000Y29315000D02*
X577443Y28380460D01*
X577443Y28380460D02*
X1417443Y25040460D01*
X1417443Y25040460D02*
X305000Y23560000D01*
X-2565000Y31205000D02*
X-1845000Y29315000D01*
X7797443Y22975460D02*
X8582443Y20810460D01*
X8582443Y20810460D02*
X10297443Y16770460D01*
X10297443Y16770460D02*
X13362443Y3905460D01*
X13362443Y3905460D02*
X15022443Y-2579540D01*
X20862443Y-28044540D02*
X14907443Y-4039540D01*
X14907443Y-4039540D02*
X15022443Y-2579540D01*
X-20002557Y-28724540D02*
X-11927557Y-23774540D01*
X-7487557Y-10324540D02*
X-11997557Y-3579540D01*
X-11997557Y-3579540D02*
X-11212557Y2550460D01*
X-11212557Y2550460D02*
X-9672557Y7555460D01*
X-9672557Y7555460D02*
X-5482557Y11050460D01*
X-5482557Y11050460D02*
X4372443Y13660460D01*
X4372443Y13660460D02*
X8147443Y18575460D01*
X8147443Y18575460D02*
X6892443Y23650460D01*
X6067443Y28125460D02*
X7780000Y28085000D01*
X7780000Y28085000D02*
X14365000Y34780000D01*
X5187443Y12460460D02*
X9007443Y9690460D01*
X9007443Y9690460D02*
X11567443Y4450460D01*
X11567443Y4450460D02*
X11922443Y2965460D01*
X11922443Y2965460D02*
X13192443Y-2864540D01*
X13192443Y-2864540D02*
X11287443Y-7629540D01*
X11287443Y-7629540D02*
X10407443Y-10504540D01*
X10407443Y-10504540D02*
X-325000Y-20150000D01*
X-325000Y-20150000D02*
X-9277557Y-19429540D01*
X-9277557Y-19429540D02*
X-10462557Y-15699540D01*
X-10462557Y-15699540D02*
X-13392557Y-16194540D01*
X2667443Y17715460D02*
X-2132557Y23400460D01*
X-2132557Y23400460D02*
X-3470000Y24150000D01*
X-25000Y33745000D02*
X-1190000Y32525000D01*
X-1190000Y32525000D02*
X-2630000Y32445000D01*
X-2630000Y32445000D02*
X-3775000Y32455000D01*
X-3775000Y32455000D02*
X-4405000Y31155000D01*
X-4405000Y31155000D02*
X-3470000Y24150000D01*
X-15587557Y-5189540D02*
X-13947557Y-379540D01*
X-13947557Y-379540D02*
X-12917557Y6535460D01*
X-12917557Y6535460D02*
X-8552557Y12915460D01*
X-13775000Y-20150000D02*
X-9557557Y-25454540D01*
X-9557557Y-25454540D02*
X-3577557Y-28664540D01*
X-3577557Y-28664540D02*
X2457443Y-29199540D01*
X2457443Y-29199540D02*
X10792443Y-26134540D01*
X10792443Y-26134540D02*
X13125000Y-20150000D01*
X-17317557Y-11289540D02*
X-13775000Y-20150000D01*
X-8992557Y22539000D02*
X-7927557Y22410460D01*
X-7927557Y22410460D02*
X-6707557Y20985460D01*
X-6707557Y20985460D02*
X-4307557Y21030460D01*
X-4307557Y21030460D02*
X-1987557Y22225460D01*
X-9037557Y22505460D02*
X-8992557Y22539000D01*
X-8992557Y22539000D02*
X-18677557Y14590460D01*
X-18677557Y14590460D02*
X-25647557Y14090460D01*
X-25647557Y14090460D02*
X-28792557Y13040460D01*
X-28792557Y13040460D02*
X-31697557Y9745460D01*
X-31697557Y9745460D02*
X-33282557Y4965460D01*
X-33282557Y4965460D02*
X-33142557Y2055460D01*
X-33142557Y2055460D02*
X-30742557Y-659540D01*
X-22327557Y13685460D02*
X-16547557Y13290460D01*
X-16547557Y13290460D02*
X-11147557Y19850460D01*
X-11147557Y19850460D02*
X-8612557Y21825460D01*
X-8187557Y23170460D02*
X-5192557Y26020460D01*
X-10537557Y19475460D02*
X-11912557Y15890460D01*
X-11912557Y15890460D02*
X-16952557Y11705460D01*
X-16952557Y11705460D02*
X-15557557Y9440460D01*
X-15557557Y9440460D02*
X-14802557Y6200460D01*
X-14802557Y6200460D02*
X-14822557Y6200460D01*
X-14822557Y6200460D02*
X-14842557Y2135460D01*
X-14842557Y2135460D02*
X-15917557Y-364540D01*
X-19972557Y-7904540D02*
X-20322557Y-8104540D01*
X-14912557Y-5649540D02*
X-19972557Y-7904540D01*
X-4822557Y19330460D02*
X-4347557Y18980460D01*
X-4347557Y18980460D02*
X-4027557Y18370460D01*
X-4027557Y18370460D02*
X-12112557Y6215460D01*
X-12112557Y6215460D02*
X-13307557Y-744540D01*
X-13307557Y-744540D02*
X-14912557Y-5649540D01*
X-19507557Y-11359540D02*
X-17557557Y-13979540D01*
X-13782557Y6925460D02*
X-14232557Y1980460D01*
X-14232557Y1980460D02*
X-16062557Y-4589540D01*
X-16062557Y-4589540D02*
X-16367557Y-5524540D01*
X-16367557Y-5524540D02*
X-18277557Y-6499540D01*
X-18277557Y-6499540D02*
X-19192557Y-6844540D01*
X-12757557Y-3919540D02*
X-12422557Y-634540D01*
X-12422557Y-634540D02*
X-11152557Y5945460D01*
X-11152557Y5945460D02*
X-10277557Y7835460D01*
X-10277557Y7835460D02*
X-9587557Y8830460D01*
X-9587557Y8830460D02*
X-6067557Y12380460D01*
X-6067557Y12380460D02*
X-452557Y13665460D01*
X-7312557Y-12799540D02*
X-10247557Y-8989540D01*
X-10247557Y-8989540D02*
X-12757557Y-3919540D01*
X4652443Y-10784540D02*
X10332443Y-7354540D01*
X10332443Y-7354540D02*
X12202443Y-2669540D01*
X12202443Y-2669540D02*
X10952443Y4050460D01*
X10952443Y4050460D02*
X8227443Y8865460D01*
X8227443Y8865460D02*
X4452443Y11930460D01*
X6262443Y19440460D02*
X6597443Y17915460D01*
X6597443Y17915460D02*
X6657443Y17870460D01*
X10967443Y17255460D02*
X14237443Y3005460D01*
X14237443Y3005460D02*
X17212443Y-7379540D01*
X17212443Y-7379540D02*
X18217443Y-9249540D01*
X8952443Y22185460D02*
X10072443Y19680460D01*
X10072443Y19680460D02*
X10967443Y17255460D01*
X-372557Y26470460D02*
X-2022557Y27300460D01*
X-12292557Y41360460D02*
X-14252557Y40350460D01*
X-14252557Y40350460D02*
X-12412557Y38400460D01*
X-12412557Y38400460D02*
X-10872557Y34040460D01*
X-10872557Y34040460D02*
X-7912557Y31410460D01*
X-7912557Y31410460D02*
X-5352557Y30200460D01*
X-5352557Y30200460D02*
X-4802557Y28340460D01*
M02*
