G04 #@! TF.FileFunction,Soldermask,Top*
%FSLAX46Y46*%
G04 Gerber Fmt 4.6, Leading zero omitted, Abs format (unit mm)*
G04 Created by KiCad (PCBNEW 4.0.7-e2-6376~58~ubuntu16.04.1) date Tue Oct 31 02:22:27 2017*
%MOMM*%
%LPD*%
G01*
G04 APERTURE LIST*
%ADD10C,0.100000*%
%ADD11C,0.010000*%
%ADD12R,1.150000X1.200000*%
%ADD13R,1.200000X1.150000*%
%ADD14R,1.593800X1.797000*%
%ADD15R,2.000000X0.950000*%
%ADD16R,0.950000X2.000000*%
%ADD17R,1.100000X1.700000*%
%ADD18R,3.500000X1.400000*%
%ADD19R,1.400000X3.500000*%
%ADD20C,3.400000*%
%ADD21R,1.950000X1.700000*%
%ADD22C,1.924000*%
G04 APERTURE END LIST*
D10*
D11*
G36*
X-10128573Y-32077551D02*
X-9579972Y-32236559D01*
X-8968606Y-32401927D01*
X-8390273Y-32548168D01*
X-8132734Y-32608568D01*
X-7745445Y-32695355D01*
X-7477652Y-32768026D01*
X-7333416Y-32846580D01*
X-7316793Y-32951014D01*
X-7431843Y-33101326D01*
X-7682626Y-33317514D01*
X-8073198Y-33619576D01*
X-8386308Y-33857966D01*
X-10228151Y-35161632D01*
X-12094025Y-36279159D01*
X-13985454Y-37211204D01*
X-15903960Y-37958425D01*
X-17851068Y-38521480D01*
X-19828301Y-38901027D01*
X-20179597Y-38948895D01*
X-20833614Y-39011444D01*
X-21623964Y-39053478D01*
X-22499961Y-39075090D01*
X-23410922Y-39076372D01*
X-24306163Y-39057419D01*
X-25135000Y-39018322D01*
X-25846748Y-38959175D01*
X-26024881Y-38938174D01*
X-27611017Y-38672701D01*
X-29244681Y-38281586D01*
X-30452371Y-37917405D01*
X-31028190Y-37718513D01*
X-31625069Y-37496418D01*
X-32211814Y-37264360D01*
X-32757229Y-37035579D01*
X-33230117Y-36823314D01*
X-33599285Y-36640804D01*
X-33833535Y-36501290D01*
X-33880499Y-36462489D01*
X-33942817Y-36337362D01*
X-34036395Y-36073333D01*
X-34151154Y-35707414D01*
X-34277018Y-35276613D01*
X-34403908Y-34817942D01*
X-34521750Y-34368409D01*
X-34620464Y-33965024D01*
X-34689974Y-33644798D01*
X-34720203Y-33444741D01*
X-34715037Y-33397513D01*
X-34614667Y-33406876D01*
X-34379825Y-33464364D01*
X-34054578Y-33558741D01*
X-33929077Y-33597919D01*
X-32685523Y-33960503D01*
X-31310329Y-34303709D01*
X-29859872Y-34615260D01*
X-28390526Y-34882884D01*
X-27206816Y-35061530D01*
X-26513823Y-35137360D01*
X-25698317Y-35196961D01*
X-24802052Y-35239762D01*
X-23866783Y-35265192D01*
X-22934264Y-35272681D01*
X-22046250Y-35261659D01*
X-21244495Y-35231555D01*
X-20570754Y-35181800D01*
X-20339408Y-35155351D01*
X-18401778Y-34829228D01*
X-16584914Y-34373566D01*
X-14894600Y-33790333D01*
X-13336617Y-33081496D01*
X-12041818Y-32330959D01*
X-11164940Y-31762914D01*
X-10128573Y-32077551D01*
X-10128573Y-32077551D01*
G37*
X-10128573Y-32077551D02*
X-9579972Y-32236559D01*
X-8968606Y-32401927D01*
X-8390273Y-32548168D01*
X-8132734Y-32608568D01*
X-7745445Y-32695355D01*
X-7477652Y-32768026D01*
X-7333416Y-32846580D01*
X-7316793Y-32951014D01*
X-7431843Y-33101326D01*
X-7682626Y-33317514D01*
X-8073198Y-33619576D01*
X-8386308Y-33857966D01*
X-10228151Y-35161632D01*
X-12094025Y-36279159D01*
X-13985454Y-37211204D01*
X-15903960Y-37958425D01*
X-17851068Y-38521480D01*
X-19828301Y-38901027D01*
X-20179597Y-38948895D01*
X-20833614Y-39011444D01*
X-21623964Y-39053478D01*
X-22499961Y-39075090D01*
X-23410922Y-39076372D01*
X-24306163Y-39057419D01*
X-25135000Y-39018322D01*
X-25846748Y-38959175D01*
X-26024881Y-38938174D01*
X-27611017Y-38672701D01*
X-29244681Y-38281586D01*
X-30452371Y-37917405D01*
X-31028190Y-37718513D01*
X-31625069Y-37496418D01*
X-32211814Y-37264360D01*
X-32757229Y-37035579D01*
X-33230117Y-36823314D01*
X-33599285Y-36640804D01*
X-33833535Y-36501290D01*
X-33880499Y-36462489D01*
X-33942817Y-36337362D01*
X-34036395Y-36073333D01*
X-34151154Y-35707414D01*
X-34277018Y-35276613D01*
X-34403908Y-34817942D01*
X-34521750Y-34368409D01*
X-34620464Y-33965024D01*
X-34689974Y-33644798D01*
X-34720203Y-33444741D01*
X-34715037Y-33397513D01*
X-34614667Y-33406876D01*
X-34379825Y-33464364D01*
X-34054578Y-33558741D01*
X-33929077Y-33597919D01*
X-32685523Y-33960503D01*
X-31310329Y-34303709D01*
X-29859872Y-34615260D01*
X-28390526Y-34882884D01*
X-27206816Y-35061530D01*
X-26513823Y-35137360D01*
X-25698317Y-35196961D01*
X-24802052Y-35239762D01*
X-23866783Y-35265192D01*
X-22934264Y-35272681D01*
X-22046250Y-35261659D01*
X-21244495Y-35231555D01*
X-20570754Y-35181800D01*
X-20339408Y-35155351D01*
X-18401778Y-34829228D01*
X-16584914Y-34373566D01*
X-14894600Y-33790333D01*
X-13336617Y-33081496D01*
X-12041818Y-32330959D01*
X-11164940Y-31762914D01*
X-10128573Y-32077551D01*
G36*
X11470660Y-32159936D02*
X12475281Y-32784611D01*
X13621115Y-33370504D01*
X14862089Y-33896805D01*
X16152130Y-34342703D01*
X16584666Y-34469755D01*
X18425841Y-34894889D01*
X20366615Y-35167853D01*
X22396628Y-35289150D01*
X24505523Y-35259286D01*
X26682942Y-35078764D01*
X28918526Y-34748088D01*
X31201918Y-34267763D01*
X33494481Y-33646802D01*
X33954921Y-33518538D01*
X34260162Y-33456528D01*
X34401832Y-33462302D01*
X34411260Y-33479398D01*
X34389182Y-33604266D01*
X34328599Y-33877174D01*
X34237502Y-34263851D01*
X34123883Y-34730026D01*
X34056968Y-34998799D01*
X33703120Y-36409910D01*
X32716856Y-36898248D01*
X32069816Y-37192822D01*
X31294916Y-37504334D01*
X30448748Y-37812610D01*
X29587903Y-38097478D01*
X28768973Y-38338763D01*
X28419278Y-38430223D01*
X27619512Y-38619261D01*
X26892987Y-38765954D01*
X26193589Y-38875687D01*
X25475205Y-38953846D01*
X24691724Y-39005814D01*
X23797034Y-39036979D01*
X23122814Y-39048772D01*
X22435622Y-39053406D01*
X21768422Y-39050590D01*
X21158138Y-39041035D01*
X20641696Y-39025447D01*
X20256020Y-39004538D01*
X20112443Y-38990956D01*
X18145466Y-38655821D01*
X16189932Y-38138138D01*
X14258697Y-37443504D01*
X12364617Y-36577515D01*
X10520547Y-35545766D01*
X8739343Y-34353854D01*
X7779021Y-33622414D01*
X6814288Y-32853843D01*
X8223402Y-32505635D01*
X8773630Y-32366074D01*
X9315552Y-32222293D01*
X9796702Y-32088631D01*
X10164616Y-31979425D01*
X10252363Y-31951155D01*
X10872211Y-31744883D01*
X11470660Y-32159936D01*
X11470660Y-32159936D01*
G37*
X11470660Y-32159936D02*
X12475281Y-32784611D01*
X13621115Y-33370504D01*
X14862089Y-33896805D01*
X16152130Y-34342703D01*
X16584666Y-34469755D01*
X18425841Y-34894889D01*
X20366615Y-35167853D01*
X22396628Y-35289150D01*
X24505523Y-35259286D01*
X26682942Y-35078764D01*
X28918526Y-34748088D01*
X31201918Y-34267763D01*
X33494481Y-33646802D01*
X33954921Y-33518538D01*
X34260162Y-33456528D01*
X34401832Y-33462302D01*
X34411260Y-33479398D01*
X34389182Y-33604266D01*
X34328599Y-33877174D01*
X34237502Y-34263851D01*
X34123883Y-34730026D01*
X34056968Y-34998799D01*
X33703120Y-36409910D01*
X32716856Y-36898248D01*
X32069816Y-37192822D01*
X31294916Y-37504334D01*
X30448748Y-37812610D01*
X29587903Y-38097478D01*
X28768973Y-38338763D01*
X28419278Y-38430223D01*
X27619512Y-38619261D01*
X26892987Y-38765954D01*
X26193589Y-38875687D01*
X25475205Y-38953846D01*
X24691724Y-39005814D01*
X23797034Y-39036979D01*
X23122814Y-39048772D01*
X22435622Y-39053406D01*
X21768422Y-39050590D01*
X21158138Y-39041035D01*
X20641696Y-39025447D01*
X20256020Y-39004538D01*
X20112443Y-38990956D01*
X18145466Y-38655821D01*
X16189932Y-38138138D01*
X14258697Y-37443504D01*
X12364617Y-36577515D01*
X10520547Y-35545766D01*
X8739343Y-34353854D01*
X7779021Y-33622414D01*
X6814288Y-32853843D01*
X8223402Y-32505635D01*
X8773630Y-32366074D01*
X9315552Y-32222293D01*
X9796702Y-32088631D01*
X10164616Y-31979425D01*
X10252363Y-31951155D01*
X10872211Y-31744883D01*
X11470660Y-32159936D01*
G36*
X307616Y34452125D02*
X1245635Y34431121D01*
X2150092Y34396905D01*
X2979681Y34350320D01*
X3693095Y34292210D01*
X4119851Y34242575D01*
X6637704Y33802740D01*
X9081973Y33191238D01*
X11449224Y32409578D01*
X13736027Y31459272D01*
X15938948Y30341828D01*
X18054555Y29058758D01*
X20079416Y27611570D01*
X21147258Y26751171D01*
X21800306Y26177689D01*
X22526096Y25497463D01*
X23286402Y24749522D01*
X24042998Y23972896D01*
X24757657Y23206615D01*
X25392155Y22489709D01*
X25790681Y22010090D01*
X26163560Y21525045D01*
X26610673Y20911329D01*
X27109755Y20201784D01*
X27638539Y19429255D01*
X28174761Y18626586D01*
X28696153Y17826621D01*
X29180451Y17062204D01*
X29518257Y16511552D01*
X30313041Y15097796D01*
X31081234Y13546326D01*
X31800053Y11907537D01*
X32446713Y10231825D01*
X32737134Y9392043D01*
X32883179Y8962790D01*
X33009846Y8610561D01*
X33105170Y8367172D01*
X33157189Y8264434D01*
X33161454Y8263668D01*
X33168050Y8376198D01*
X33139757Y8640682D01*
X33082363Y9025379D01*
X33001659Y9498545D01*
X32903432Y10028438D01*
X32793474Y10583314D01*
X32677572Y11131431D01*
X32561516Y11641046D01*
X32498781Y11897127D01*
X32384689Y12357670D01*
X32292415Y12748277D01*
X32229580Y13035224D01*
X32203808Y13184788D01*
X32204705Y13198215D01*
X32318468Y13213799D01*
X32580937Y13201243D01*
X32955584Y13165396D01*
X33405883Y13111109D01*
X33895305Y13043232D01*
X34387323Y12966615D01*
X34845410Y12886107D01*
X35233039Y12806559D01*
X35333438Y12782790D01*
X36624926Y12385747D01*
X37771888Y11868304D01*
X38774763Y11229999D01*
X39633992Y10470366D01*
X40350014Y9588942D01*
X40923269Y8585262D01*
X41354198Y7458864D01*
X41643241Y6209282D01*
X41659056Y6111572D01*
X41731068Y5441020D01*
X41762362Y4654159D01*
X41754302Y3818062D01*
X41708251Y2999803D01*
X41625575Y2266454D01*
X41574874Y1972312D01*
X41186067Y486192D01*
X40613334Y-981163D01*
X39860438Y-2424098D01*
X38931144Y-3836958D01*
X37829215Y-5214088D01*
X36558416Y-6549835D01*
X35122511Y-7838542D01*
X34948508Y-7982210D01*
X34469637Y-8366316D01*
X33994098Y-8733453D01*
X33544235Y-9067887D01*
X33142392Y-9353884D01*
X32810913Y-9575709D01*
X32572144Y-9717627D01*
X32448427Y-9763904D01*
X32436147Y-9751384D01*
X32456391Y-9619678D01*
X32510326Y-9354244D01*
X32587754Y-9004315D01*
X32618301Y-8871912D01*
X32714843Y-8432449D01*
X32815181Y-7932381D01*
X32913284Y-7407356D01*
X33003120Y-6893022D01*
X33078659Y-6425026D01*
X33133868Y-6039015D01*
X33162716Y-5770637D01*
X33161654Y-5660505D01*
X33121412Y-5701495D01*
X33038019Y-5891563D01*
X32923675Y-6199965D01*
X32791339Y-6593610D01*
X32178017Y-8327351D01*
X31454866Y-10080699D01*
X30650682Y-11789301D01*
X29794263Y-13388803D01*
X29605129Y-13713862D01*
X29174036Y-14425559D01*
X28684266Y-15204106D01*
X28158331Y-16015992D01*
X27618746Y-16827705D01*
X27088026Y-17605733D01*
X26588685Y-18316566D01*
X26143237Y-18926692D01*
X25828291Y-19335465D01*
X24206411Y-21218516D01*
X22457158Y-22970546D01*
X20590510Y-24584732D01*
X18616447Y-26054248D01*
X16544947Y-27372270D01*
X14385990Y-28531974D01*
X12149554Y-29526534D01*
X9845619Y-30349126D01*
X9623184Y-30418207D01*
X7873557Y-30898678D01*
X6046877Y-31296705D01*
X4222076Y-31596679D01*
X2896888Y-31748404D01*
X2520608Y-31773171D01*
X2004294Y-31793872D01*
X1384132Y-31810281D01*
X696302Y-31822171D01*
X-23011Y-31829315D01*
X-737625Y-31831487D01*
X-1411357Y-31828459D01*
X-2008022Y-31820006D01*
X-2491439Y-31805901D01*
X-2825425Y-31785916D01*
X-2841631Y-31784356D01*
X-5371551Y-31455110D01*
X-7788275Y-30980945D01*
X-10104503Y-30356761D01*
X-12332938Y-29577459D01*
X-14486279Y-28637939D01*
X-16577227Y-27533102D01*
X-18618484Y-26257849D01*
X-20622750Y-24807080D01*
X-21044964Y-24475802D01*
X-21534556Y-24064140D01*
X-22115453Y-23539486D01*
X-22757273Y-22932351D01*
X-23429636Y-22273245D01*
X-24102160Y-21592676D01*
X-24744466Y-20921155D01*
X-25326171Y-20289191D01*
X-25816895Y-19727293D01*
X-26023110Y-19476577D01*
X-26342265Y-19060298D01*
X-26739335Y-18515142D01*
X-27193279Y-17872254D01*
X-27683054Y-17162779D01*
X-28187619Y-16417862D01*
X-28685934Y-15668650D01*
X-29156955Y-14946288D01*
X-29579642Y-14281920D01*
X-29932954Y-13706693D01*
X-30018185Y-13563120D01*
X-30998922Y-11751437D01*
X-31903612Y-9785587D01*
X-32722398Y-7687526D01*
X-32951200Y-7031510D01*
X-33117116Y-6550611D01*
X-33263104Y-6142219D01*
X-33378437Y-5835177D01*
X-33452388Y-5658328D01*
X-33473519Y-5627107D01*
X-33476085Y-5734055D01*
X-33446863Y-5991534D01*
X-33391708Y-6365734D01*
X-33316474Y-6822840D01*
X-33227016Y-7329041D01*
X-33129189Y-7850525D01*
X-33028846Y-8353478D01*
X-32931843Y-8804090D01*
X-32898216Y-8949739D01*
X-32802805Y-9357331D01*
X-32726008Y-9692633D01*
X-32676733Y-9916280D01*
X-32663112Y-9988604D01*
X-32734990Y-9957174D01*
X-32929544Y-9838081D01*
X-33215152Y-9651330D01*
X-33486260Y-9467819D01*
X-34872124Y-8448115D01*
X-36195926Y-7338291D01*
X-37429552Y-6165749D01*
X-38544888Y-4957893D01*
X-39513819Y-3742125D01*
X-39851695Y-3263288D01*
X-40567832Y-2084502D01*
X-41186892Y-815028D01*
X-41686951Y492769D01*
X-41877487Y1179157D01*
X-32366023Y1179157D01*
X-32336191Y485008D01*
X-32254666Y-226897D01*
X-32116139Y-979244D01*
X-31915300Y-1794718D01*
X-31646840Y-2696005D01*
X-31305449Y-3705793D01*
X-30885819Y-4846767D01*
X-30604724Y-5576987D01*
X-30277953Y-6419548D01*
X-30009772Y-7127040D01*
X-29788121Y-7738770D01*
X-29600937Y-8294047D01*
X-29436157Y-8832180D01*
X-29281721Y-9392477D01*
X-29125564Y-10014246D01*
X-28955627Y-10736797D01*
X-28768518Y-11560887D01*
X-28463459Y-12857555D01*
X-28170268Y-13979897D01*
X-27884772Y-14941052D01*
X-27602798Y-15754156D01*
X-27320174Y-16432347D01*
X-27058786Y-16943534D01*
X-26679678Y-17566154D01*
X-26284322Y-18118621D01*
X-25852421Y-18616442D01*
X-25363679Y-19075124D01*
X-24797800Y-19510174D01*
X-24134486Y-19937098D01*
X-23353442Y-20371404D01*
X-22434371Y-20828598D01*
X-21356975Y-21324187D01*
X-21280149Y-21358469D01*
X-20545877Y-21687953D01*
X-19948403Y-21963247D01*
X-19451322Y-22203648D01*
X-19018231Y-22428454D01*
X-18612723Y-22656962D01*
X-18198394Y-22908470D01*
X-17738840Y-23202274D01*
X-17469847Y-23378218D01*
X-16938141Y-23717943D01*
X-16423680Y-24023140D01*
X-15903590Y-24303299D01*
X-15354993Y-24567910D01*
X-14755014Y-24826462D01*
X-14080778Y-25088446D01*
X-13309409Y-25363351D01*
X-12418031Y-25660667D01*
X-11383768Y-25989883D01*
X-10555705Y-26246492D01*
X-9347018Y-26613065D01*
X-8284564Y-26922014D01*
X-7337274Y-27178678D01*
X-6474079Y-27388395D01*
X-5663912Y-27556502D01*
X-4875704Y-27688338D01*
X-4078387Y-27789241D01*
X-3240892Y-27864549D01*
X-2332151Y-27919599D01*
X-1321096Y-27959732D01*
X-442742Y-27984081D01*
X610026Y-28009266D01*
X1495653Y-28029661D01*
X2235088Y-28045269D01*
X2849277Y-28056095D01*
X3359167Y-28062141D01*
X3785705Y-28063414D01*
X4149839Y-28059916D01*
X4472516Y-28051651D01*
X4774683Y-28038624D01*
X5077286Y-28020838D01*
X5401273Y-27998298D01*
X5577999Y-27985233D01*
X6691869Y-27871817D01*
X7754645Y-27696927D01*
X8786417Y-27451832D01*
X9807271Y-27127796D01*
X10837297Y-26716088D01*
X11896582Y-26207974D01*
X13005215Y-25594721D01*
X14183283Y-24867595D01*
X15450874Y-24017863D01*
X16631703Y-23179631D01*
X17173826Y-22794056D01*
X17817159Y-22348446D01*
X18503369Y-21882496D01*
X19174124Y-21435902D01*
X19642073Y-21131027D01*
X20641166Y-20479132D01*
X21494023Y-19901239D01*
X22219818Y-19381681D01*
X22837726Y-18904797D01*
X23366918Y-18454923D01*
X23826569Y-18016393D01*
X24235852Y-17573546D01*
X24613941Y-17110717D01*
X24697720Y-17000835D01*
X25089888Y-16450527D01*
X25438324Y-15890896D01*
X25752850Y-15297458D01*
X26043286Y-14645728D01*
X26319453Y-13911222D01*
X26591172Y-13069454D01*
X26868264Y-12095941D01*
X27160550Y-10966196D01*
X27228738Y-10690716D01*
X27457451Y-9769824D01*
X27657309Y-9000155D01*
X27841676Y-8349580D01*
X28023918Y-7785973D01*
X28217400Y-7277206D01*
X28435486Y-6791152D01*
X28691543Y-6295683D01*
X28998935Y-5758671D01*
X29371028Y-5147990D01*
X29821186Y-4431512D01*
X29854468Y-4378932D01*
X30466838Y-3382079D01*
X30964218Y-2502809D01*
X31356681Y-1718135D01*
X31654299Y-1005075D01*
X31867146Y-340644D01*
X32005294Y298142D01*
X32051739Y634769D01*
X32076352Y1009884D01*
X32086628Y1538285D01*
X32083800Y2185759D01*
X32069103Y2918089D01*
X32043770Y3701061D01*
X32009037Y4500458D01*
X31966136Y5282066D01*
X31916301Y6011669D01*
X31860767Y6655051D01*
X31821605Y7015722D01*
X31740187Y7620034D01*
X31636792Y8287374D01*
X31525788Y8929171D01*
X31438622Y9376846D01*
X31230854Y10284120D01*
X30999484Y11108401D01*
X30730615Y11875700D01*
X30410350Y12612029D01*
X30024793Y13343401D01*
X29560045Y14095827D01*
X29002210Y14895319D01*
X28337391Y15767890D01*
X27551691Y16739551D01*
X27420372Y16898079D01*
X26964200Y17449029D01*
X26500468Y18012183D01*
X26058690Y18551481D01*
X25668376Y19030859D01*
X25359042Y19414257D01*
X25276933Y19517127D01*
X24821846Y20067258D01*
X24375280Y20553434D01*
X23911819Y20994904D01*
X23406046Y21410916D01*
X22832545Y21820716D01*
X22165898Y22243553D01*
X21380691Y22698674D01*
X20451506Y23205326D01*
X20300592Y23285656D01*
X19422535Y23756149D01*
X18685984Y24164466D01*
X18063689Y24531631D01*
X17528404Y24878670D01*
X17052881Y25226606D01*
X16609873Y25596465D01*
X16172131Y26009271D01*
X15712409Y26486049D01*
X15203458Y27047823D01*
X14737834Y27577972D01*
X14288802Y28087180D01*
X13838536Y28586935D01*
X13415758Y29046148D01*
X13049191Y29433730D01*
X12767558Y29718590D01*
X12704409Y29778916D01*
X12116523Y30281944D01*
X11477912Y30748077D01*
X10841010Y31142480D01*
X10258252Y31430318D01*
X10160089Y31469285D01*
X9235948Y31749349D01*
X8174385Y31947502D01*
X7009035Y32060191D01*
X5773533Y32083861D01*
X4778369Y32037912D01*
X3721674Y31959329D01*
X2825185Y31894772D01*
X2061525Y31843696D01*
X1403318Y31805555D01*
X823187Y31779800D01*
X293756Y31765887D01*
X-212353Y31763269D01*
X-722516Y31771398D01*
X-1264109Y31789730D01*
X-1864510Y31817717D01*
X-2551094Y31854814D01*
X-3030393Y31882052D01*
X-4248076Y31944644D01*
X-5302566Y31981500D01*
X-6217278Y31990937D01*
X-7015624Y31971272D01*
X-7721017Y31920822D01*
X-8356870Y31837903D01*
X-8946595Y31720834D01*
X-9513605Y31567930D01*
X-10081314Y31377508D01*
X-10089321Y31374588D01*
X-10634869Y31156993D01*
X-11157548Y30905760D01*
X-11677885Y30605909D01*
X-12216404Y30242459D01*
X-12793631Y29800431D01*
X-13430092Y29264842D01*
X-14146312Y28620712D01*
X-14962818Y27853061D01*
X-15118297Y27704186D01*
X-16221709Y26685887D01*
X-17339579Y25741244D01*
X-18552001Y24802449D01*
X-19524212Y24071641D01*
X-20364872Y23422375D01*
X-21098356Y22830904D01*
X-21749042Y22273479D01*
X-22341307Y21726353D01*
X-22899527Y21165779D01*
X-23448079Y20568007D01*
X-24011340Y19909290D01*
X-24613686Y19165880D01*
X-25279495Y18314030D01*
X-25481410Y18051808D01*
X-26245818Y17050593D01*
X-26903040Y16173699D01*
X-27465540Y15400245D01*
X-27945782Y14709350D01*
X-28356229Y14080132D01*
X-28709344Y13491709D01*
X-29017591Y12923201D01*
X-29293434Y12353726D01*
X-29549335Y11762401D01*
X-29797757Y11128346D01*
X-30051166Y10430679D01*
X-30081373Y10344905D01*
X-30515878Y9101872D01*
X-30889572Y8017055D01*
X-31207307Y7072348D01*
X-31473932Y6249647D01*
X-31694297Y5530849D01*
X-31873251Y4897847D01*
X-32015645Y4332539D01*
X-32126329Y3816819D01*
X-32210153Y3332583D01*
X-32271966Y2861727D01*
X-32316618Y2386146D01*
X-32348960Y1887736D01*
X-32349470Y1878238D01*
X-32366023Y1179157D01*
X-41877487Y1179157D01*
X-42046088Y1786526D01*
X-42122397Y2160460D01*
X-42199074Y2744260D01*
X-42241829Y3450008D01*
X-42252053Y4226793D01*
X-42231138Y5023702D01*
X-42180475Y5789822D01*
X-42101457Y6474241D01*
X-41995474Y7026045D01*
X-41988686Y7052312D01*
X-41755796Y7769442D01*
X-41436222Y8515431D01*
X-41059148Y9233629D01*
X-40653758Y9867390D01*
X-40327496Y10276831D01*
X-39475279Y11077212D01*
X-38483657Y11751245D01*
X-37352640Y12298924D01*
X-36082240Y12720247D01*
X-34672467Y13015207D01*
X-33330817Y13169166D01*
X-32920852Y13198186D01*
X-32666173Y13206633D01*
X-32534627Y13190233D01*
X-32494060Y13144713D01*
X-32512318Y13065800D01*
X-32514293Y13060656D01*
X-32589973Y12821591D01*
X-32691519Y12440386D01*
X-32809179Y11959644D01*
X-32933206Y11421973D01*
X-33053849Y10869978D01*
X-33161360Y10346263D01*
X-33245988Y9893436D01*
X-33265337Y9778518D01*
X-33336928Y9338874D01*
X-33403140Y8932993D01*
X-33454238Y8620520D01*
X-33472311Y8510460D01*
X-33498892Y8300756D01*
X-33483398Y8243151D01*
X-33423306Y8343168D01*
X-33316093Y8606328D01*
X-33159234Y9038157D01*
X-32950207Y9644176D01*
X-32938519Y9678623D01*
X-32521895Y10857023D01*
X-32092483Y11962793D01*
X-31635486Y13024900D01*
X-31136106Y14072312D01*
X-30579545Y15133995D01*
X-29951005Y16238916D01*
X-29235690Y17416044D01*
X-28418802Y18694344D01*
X-28032427Y19282634D01*
X-27304586Y20357674D01*
X-26622879Y21306003D01*
X-25952793Y22170898D01*
X-25259812Y22995633D01*
X-24509421Y23823485D01*
X-23915844Y24444091D01*
X-22096414Y26179806D01*
X-20173150Y27761479D01*
X-18153268Y29185687D01*
X-16043982Y30449007D01*
X-13852509Y31548018D01*
X-11586063Y32479296D01*
X-9251860Y33239419D01*
X-6857115Y33824965D01*
X-4409044Y34232510D01*
X-2953969Y34387128D01*
X-2294759Y34427417D01*
X-1503888Y34451116D01*
X-622661Y34459071D01*
X307616Y34452125D01*
X307616Y34452125D01*
G37*
X307616Y34452125D02*
X1245635Y34431121D01*
X2150092Y34396905D01*
X2979681Y34350320D01*
X3693095Y34292210D01*
X4119851Y34242575D01*
X6637704Y33802740D01*
X9081973Y33191238D01*
X11449224Y32409578D01*
X13736027Y31459272D01*
X15938948Y30341828D01*
X18054555Y29058758D01*
X20079416Y27611570D01*
X21147258Y26751171D01*
X21800306Y26177689D01*
X22526096Y25497463D01*
X23286402Y24749522D01*
X24042998Y23972896D01*
X24757657Y23206615D01*
X25392155Y22489709D01*
X25790681Y22010090D01*
X26163560Y21525045D01*
X26610673Y20911329D01*
X27109755Y20201784D01*
X27638539Y19429255D01*
X28174761Y18626586D01*
X28696153Y17826621D01*
X29180451Y17062204D01*
X29518257Y16511552D01*
X30313041Y15097796D01*
X31081234Y13546326D01*
X31800053Y11907537D01*
X32446713Y10231825D01*
X32737134Y9392043D01*
X32883179Y8962790D01*
X33009846Y8610561D01*
X33105170Y8367172D01*
X33157189Y8264434D01*
X33161454Y8263668D01*
X33168050Y8376198D01*
X33139757Y8640682D01*
X33082363Y9025379D01*
X33001659Y9498545D01*
X32903432Y10028438D01*
X32793474Y10583314D01*
X32677572Y11131431D01*
X32561516Y11641046D01*
X32498781Y11897127D01*
X32384689Y12357670D01*
X32292415Y12748277D01*
X32229580Y13035224D01*
X32203808Y13184788D01*
X32204705Y13198215D01*
X32318468Y13213799D01*
X32580937Y13201243D01*
X32955584Y13165396D01*
X33405883Y13111109D01*
X33895305Y13043232D01*
X34387323Y12966615D01*
X34845410Y12886107D01*
X35233039Y12806559D01*
X35333438Y12782790D01*
X36624926Y12385747D01*
X37771888Y11868304D01*
X38774763Y11229999D01*
X39633992Y10470366D01*
X40350014Y9588942D01*
X40923269Y8585262D01*
X41354198Y7458864D01*
X41643241Y6209282D01*
X41659056Y6111572D01*
X41731068Y5441020D01*
X41762362Y4654159D01*
X41754302Y3818062D01*
X41708251Y2999803D01*
X41625575Y2266454D01*
X41574874Y1972312D01*
X41186067Y486192D01*
X40613334Y-981163D01*
X39860438Y-2424098D01*
X38931144Y-3836958D01*
X37829215Y-5214088D01*
X36558416Y-6549835D01*
X35122511Y-7838542D01*
X34948508Y-7982210D01*
X34469637Y-8366316D01*
X33994098Y-8733453D01*
X33544235Y-9067887D01*
X33142392Y-9353884D01*
X32810913Y-9575709D01*
X32572144Y-9717627D01*
X32448427Y-9763904D01*
X32436147Y-9751384D01*
X32456391Y-9619678D01*
X32510326Y-9354244D01*
X32587754Y-9004315D01*
X32618301Y-8871912D01*
X32714843Y-8432449D01*
X32815181Y-7932381D01*
X32913284Y-7407356D01*
X33003120Y-6893022D01*
X33078659Y-6425026D01*
X33133868Y-6039015D01*
X33162716Y-5770637D01*
X33161654Y-5660505D01*
X33121412Y-5701495D01*
X33038019Y-5891563D01*
X32923675Y-6199965D01*
X32791339Y-6593610D01*
X32178017Y-8327351D01*
X31454866Y-10080699D01*
X30650682Y-11789301D01*
X29794263Y-13388803D01*
X29605129Y-13713862D01*
X29174036Y-14425559D01*
X28684266Y-15204106D01*
X28158331Y-16015992D01*
X27618746Y-16827705D01*
X27088026Y-17605733D01*
X26588685Y-18316566D01*
X26143237Y-18926692D01*
X25828291Y-19335465D01*
X24206411Y-21218516D01*
X22457158Y-22970546D01*
X20590510Y-24584732D01*
X18616447Y-26054248D01*
X16544947Y-27372270D01*
X14385990Y-28531974D01*
X12149554Y-29526534D01*
X9845619Y-30349126D01*
X9623184Y-30418207D01*
X7873557Y-30898678D01*
X6046877Y-31296705D01*
X4222076Y-31596679D01*
X2896888Y-31748404D01*
X2520608Y-31773171D01*
X2004294Y-31793872D01*
X1384132Y-31810281D01*
X696302Y-31822171D01*
X-23011Y-31829315D01*
X-737625Y-31831487D01*
X-1411357Y-31828459D01*
X-2008022Y-31820006D01*
X-2491439Y-31805901D01*
X-2825425Y-31785916D01*
X-2841631Y-31784356D01*
X-5371551Y-31455110D01*
X-7788275Y-30980945D01*
X-10104503Y-30356761D01*
X-12332938Y-29577459D01*
X-14486279Y-28637939D01*
X-16577227Y-27533102D01*
X-18618484Y-26257849D01*
X-20622750Y-24807080D01*
X-21044964Y-24475802D01*
X-21534556Y-24064140D01*
X-22115453Y-23539486D01*
X-22757273Y-22932351D01*
X-23429636Y-22273245D01*
X-24102160Y-21592676D01*
X-24744466Y-20921155D01*
X-25326171Y-20289191D01*
X-25816895Y-19727293D01*
X-26023110Y-19476577D01*
X-26342265Y-19060298D01*
X-26739335Y-18515142D01*
X-27193279Y-17872254D01*
X-27683054Y-17162779D01*
X-28187619Y-16417862D01*
X-28685934Y-15668650D01*
X-29156955Y-14946288D01*
X-29579642Y-14281920D01*
X-29932954Y-13706693D01*
X-30018185Y-13563120D01*
X-30998922Y-11751437D01*
X-31903612Y-9785587D01*
X-32722398Y-7687526D01*
X-32951200Y-7031510D01*
X-33117116Y-6550611D01*
X-33263104Y-6142219D01*
X-33378437Y-5835177D01*
X-33452388Y-5658328D01*
X-33473519Y-5627107D01*
X-33476085Y-5734055D01*
X-33446863Y-5991534D01*
X-33391708Y-6365734D01*
X-33316474Y-6822840D01*
X-33227016Y-7329041D01*
X-33129189Y-7850525D01*
X-33028846Y-8353478D01*
X-32931843Y-8804090D01*
X-32898216Y-8949739D01*
X-32802805Y-9357331D01*
X-32726008Y-9692633D01*
X-32676733Y-9916280D01*
X-32663112Y-9988604D01*
X-32734990Y-9957174D01*
X-32929544Y-9838081D01*
X-33215152Y-9651330D01*
X-33486260Y-9467819D01*
X-34872124Y-8448115D01*
X-36195926Y-7338291D01*
X-37429552Y-6165749D01*
X-38544888Y-4957893D01*
X-39513819Y-3742125D01*
X-39851695Y-3263288D01*
X-40567832Y-2084502D01*
X-41186892Y-815028D01*
X-41686951Y492769D01*
X-41877487Y1179157D01*
X-32366023Y1179157D01*
X-32336191Y485008D01*
X-32254666Y-226897D01*
X-32116139Y-979244D01*
X-31915300Y-1794718D01*
X-31646840Y-2696005D01*
X-31305449Y-3705793D01*
X-30885819Y-4846767D01*
X-30604724Y-5576987D01*
X-30277953Y-6419548D01*
X-30009772Y-7127040D01*
X-29788121Y-7738770D01*
X-29600937Y-8294047D01*
X-29436157Y-8832180D01*
X-29281721Y-9392477D01*
X-29125564Y-10014246D01*
X-28955627Y-10736797D01*
X-28768518Y-11560887D01*
X-28463459Y-12857555D01*
X-28170268Y-13979897D01*
X-27884772Y-14941052D01*
X-27602798Y-15754156D01*
X-27320174Y-16432347D01*
X-27058786Y-16943534D01*
X-26679678Y-17566154D01*
X-26284322Y-18118621D01*
X-25852421Y-18616442D01*
X-25363679Y-19075124D01*
X-24797800Y-19510174D01*
X-24134486Y-19937098D01*
X-23353442Y-20371404D01*
X-22434371Y-20828598D01*
X-21356975Y-21324187D01*
X-21280149Y-21358469D01*
X-20545877Y-21687953D01*
X-19948403Y-21963247D01*
X-19451322Y-22203648D01*
X-19018231Y-22428454D01*
X-18612723Y-22656962D01*
X-18198394Y-22908470D01*
X-17738840Y-23202274D01*
X-17469847Y-23378218D01*
X-16938141Y-23717943D01*
X-16423680Y-24023140D01*
X-15903590Y-24303299D01*
X-15354993Y-24567910D01*
X-14755014Y-24826462D01*
X-14080778Y-25088446D01*
X-13309409Y-25363351D01*
X-12418031Y-25660667D01*
X-11383768Y-25989883D01*
X-10555705Y-26246492D01*
X-9347018Y-26613065D01*
X-8284564Y-26922014D01*
X-7337274Y-27178678D01*
X-6474079Y-27388395D01*
X-5663912Y-27556502D01*
X-4875704Y-27688338D01*
X-4078387Y-27789241D01*
X-3240892Y-27864549D01*
X-2332151Y-27919599D01*
X-1321096Y-27959732D01*
X-442742Y-27984081D01*
X610026Y-28009266D01*
X1495653Y-28029661D01*
X2235088Y-28045269D01*
X2849277Y-28056095D01*
X3359167Y-28062141D01*
X3785705Y-28063414D01*
X4149839Y-28059916D01*
X4472516Y-28051651D01*
X4774683Y-28038624D01*
X5077286Y-28020838D01*
X5401273Y-27998298D01*
X5577999Y-27985233D01*
X6691869Y-27871817D01*
X7754645Y-27696927D01*
X8786417Y-27451832D01*
X9807271Y-27127796D01*
X10837297Y-26716088D01*
X11896582Y-26207974D01*
X13005215Y-25594721D01*
X14183283Y-24867595D01*
X15450874Y-24017863D01*
X16631703Y-23179631D01*
X17173826Y-22794056D01*
X17817159Y-22348446D01*
X18503369Y-21882496D01*
X19174124Y-21435902D01*
X19642073Y-21131027D01*
X20641166Y-20479132D01*
X21494023Y-19901239D01*
X22219818Y-19381681D01*
X22837726Y-18904797D01*
X23366918Y-18454923D01*
X23826569Y-18016393D01*
X24235852Y-17573546D01*
X24613941Y-17110717D01*
X24697720Y-17000835D01*
X25089888Y-16450527D01*
X25438324Y-15890896D01*
X25752850Y-15297458D01*
X26043286Y-14645728D01*
X26319453Y-13911222D01*
X26591172Y-13069454D01*
X26868264Y-12095941D01*
X27160550Y-10966196D01*
X27228738Y-10690716D01*
X27457451Y-9769824D01*
X27657309Y-9000155D01*
X27841676Y-8349580D01*
X28023918Y-7785973D01*
X28217400Y-7277206D01*
X28435486Y-6791152D01*
X28691543Y-6295683D01*
X28998935Y-5758671D01*
X29371028Y-5147990D01*
X29821186Y-4431512D01*
X29854468Y-4378932D01*
X30466838Y-3382079D01*
X30964218Y-2502809D01*
X31356681Y-1718135D01*
X31654299Y-1005075D01*
X31867146Y-340644D01*
X32005294Y298142D01*
X32051739Y634769D01*
X32076352Y1009884D01*
X32086628Y1538285D01*
X32083800Y2185759D01*
X32069103Y2918089D01*
X32043770Y3701061D01*
X32009037Y4500458D01*
X31966136Y5282066D01*
X31916301Y6011669D01*
X31860767Y6655051D01*
X31821605Y7015722D01*
X31740187Y7620034D01*
X31636792Y8287374D01*
X31525788Y8929171D01*
X31438622Y9376846D01*
X31230854Y10284120D01*
X30999484Y11108401D01*
X30730615Y11875700D01*
X30410350Y12612029D01*
X30024793Y13343401D01*
X29560045Y14095827D01*
X29002210Y14895319D01*
X28337391Y15767890D01*
X27551691Y16739551D01*
X27420372Y16898079D01*
X26964200Y17449029D01*
X26500468Y18012183D01*
X26058690Y18551481D01*
X25668376Y19030859D01*
X25359042Y19414257D01*
X25276933Y19517127D01*
X24821846Y20067258D01*
X24375280Y20553434D01*
X23911819Y20994904D01*
X23406046Y21410916D01*
X22832545Y21820716D01*
X22165898Y22243553D01*
X21380691Y22698674D01*
X20451506Y23205326D01*
X20300592Y23285656D01*
X19422535Y23756149D01*
X18685984Y24164466D01*
X18063689Y24531631D01*
X17528404Y24878670D01*
X17052881Y25226606D01*
X16609873Y25596465D01*
X16172131Y26009271D01*
X15712409Y26486049D01*
X15203458Y27047823D01*
X14737834Y27577972D01*
X14288802Y28087180D01*
X13838536Y28586935D01*
X13415758Y29046148D01*
X13049191Y29433730D01*
X12767558Y29718590D01*
X12704409Y29778916D01*
X12116523Y30281944D01*
X11477912Y30748077D01*
X10841010Y31142480D01*
X10258252Y31430318D01*
X10160089Y31469285D01*
X9235948Y31749349D01*
X8174385Y31947502D01*
X7009035Y32060191D01*
X5773533Y32083861D01*
X4778369Y32037912D01*
X3721674Y31959329D01*
X2825185Y31894772D01*
X2061525Y31843696D01*
X1403318Y31805555D01*
X823187Y31779800D01*
X293756Y31765887D01*
X-212353Y31763269D01*
X-722516Y31771398D01*
X-1264109Y31789730D01*
X-1864510Y31817717D01*
X-2551094Y31854814D01*
X-3030393Y31882052D01*
X-4248076Y31944644D01*
X-5302566Y31981500D01*
X-6217278Y31990937D01*
X-7015624Y31971272D01*
X-7721017Y31920822D01*
X-8356870Y31837903D01*
X-8946595Y31720834D01*
X-9513605Y31567930D01*
X-10081314Y31377508D01*
X-10089321Y31374588D01*
X-10634869Y31156993D01*
X-11157548Y30905760D01*
X-11677885Y30605909D01*
X-12216404Y30242459D01*
X-12793631Y29800431D01*
X-13430092Y29264842D01*
X-14146312Y28620712D01*
X-14962818Y27853061D01*
X-15118297Y27704186D01*
X-16221709Y26685887D01*
X-17339579Y25741244D01*
X-18552001Y24802449D01*
X-19524212Y24071641D01*
X-20364872Y23422375D01*
X-21098356Y22830904D01*
X-21749042Y22273479D01*
X-22341307Y21726353D01*
X-22899527Y21165779D01*
X-23448079Y20568007D01*
X-24011340Y19909290D01*
X-24613686Y19165880D01*
X-25279495Y18314030D01*
X-25481410Y18051808D01*
X-26245818Y17050593D01*
X-26903040Y16173699D01*
X-27465540Y15400245D01*
X-27945782Y14709350D01*
X-28356229Y14080132D01*
X-28709344Y13491709D01*
X-29017591Y12923201D01*
X-29293434Y12353726D01*
X-29549335Y11762401D01*
X-29797757Y11128346D01*
X-30051166Y10430679D01*
X-30081373Y10344905D01*
X-30515878Y9101872D01*
X-30889572Y8017055D01*
X-31207307Y7072348D01*
X-31473932Y6249647D01*
X-31694297Y5530849D01*
X-31873251Y4897847D01*
X-32015645Y4332539D01*
X-32126329Y3816819D01*
X-32210153Y3332583D01*
X-32271966Y2861727D01*
X-32316618Y2386146D01*
X-32348960Y1887736D01*
X-32349470Y1878238D01*
X-32366023Y1179157D01*
X-41877487Y1179157D01*
X-42046088Y1786526D01*
X-42122397Y2160460D01*
X-42199074Y2744260D01*
X-42241829Y3450008D01*
X-42252053Y4226793D01*
X-42231138Y5023702D01*
X-42180475Y5789822D01*
X-42101457Y6474241D01*
X-41995474Y7026045D01*
X-41988686Y7052312D01*
X-41755796Y7769442D01*
X-41436222Y8515431D01*
X-41059148Y9233629D01*
X-40653758Y9867390D01*
X-40327496Y10276831D01*
X-39475279Y11077212D01*
X-38483657Y11751245D01*
X-37352640Y12298924D01*
X-36082240Y12720247D01*
X-34672467Y13015207D01*
X-33330817Y13169166D01*
X-32920852Y13198186D01*
X-32666173Y13206633D01*
X-32534627Y13190233D01*
X-32494060Y13144713D01*
X-32512318Y13065800D01*
X-32514293Y13060656D01*
X-32589973Y12821591D01*
X-32691519Y12440386D01*
X-32809179Y11959644D01*
X-32933206Y11421973D01*
X-33053849Y10869978D01*
X-33161360Y10346263D01*
X-33245988Y9893436D01*
X-33265337Y9778518D01*
X-33336928Y9338874D01*
X-33403140Y8932993D01*
X-33454238Y8620520D01*
X-33472311Y8510460D01*
X-33498892Y8300756D01*
X-33483398Y8243151D01*
X-33423306Y8343168D01*
X-33316093Y8606328D01*
X-33159234Y9038157D01*
X-32950207Y9644176D01*
X-32938519Y9678623D01*
X-32521895Y10857023D01*
X-32092483Y11962793D01*
X-31635486Y13024900D01*
X-31136106Y14072312D01*
X-30579545Y15133995D01*
X-29951005Y16238916D01*
X-29235690Y17416044D01*
X-28418802Y18694344D01*
X-28032427Y19282634D01*
X-27304586Y20357674D01*
X-26622879Y21306003D01*
X-25952793Y22170898D01*
X-25259812Y22995633D01*
X-24509421Y23823485D01*
X-23915844Y24444091D01*
X-22096414Y26179806D01*
X-20173150Y27761479D01*
X-18153268Y29185687D01*
X-16043982Y30449007D01*
X-13852509Y31548018D01*
X-11586063Y32479296D01*
X-9251860Y33239419D01*
X-6857115Y33824965D01*
X-4409044Y34232510D01*
X-2953969Y34387128D01*
X-2294759Y34427417D01*
X-1503888Y34451116D01*
X-622661Y34459071D01*
X307616Y34452125D01*
G36*
X16584666Y19583198D02*
X17194144Y19550902D01*
X17753934Y19500656D01*
X18213900Y19437750D01*
X18466147Y19384653D01*
X19308270Y19086597D01*
X20101154Y18671258D01*
X20811054Y18163132D01*
X21404227Y17586711D01*
X21846929Y16966490D01*
X21879506Y16906983D01*
X22253489Y16042717D01*
X22525716Y15070900D01*
X22687842Y14047303D01*
X22731520Y13027698D01*
X22648402Y12067857D01*
X22624196Y11930973D01*
X22338409Y10832098D01*
X21925399Y9871821D01*
X21385095Y9050062D01*
X20717424Y8366737D01*
X19922314Y7821764D01*
X18999694Y7415061D01*
X18542719Y7277088D01*
X17952269Y7160690D01*
X17239649Y7081141D01*
X16467585Y7040466D01*
X15698805Y7040694D01*
X14996035Y7083850D01*
X14538896Y7147697D01*
X13484377Y7427883D01*
X12555254Y7844053D01*
X11755091Y8393669D01*
X11087447Y9074193D01*
X11044322Y9139819D01*
X13138261Y9139819D01*
X13725613Y8547200D01*
X14292086Y8049805D01*
X14897689Y7648523D01*
X15493680Y7373441D01*
X15749075Y7298062D01*
X16251827Y7226054D01*
X16852875Y7209366D01*
X17471131Y7246579D01*
X18025502Y7336273D01*
X18033114Y7338057D01*
X18917494Y7639635D01*
X19727786Y8102081D01*
X20429922Y8705525D01*
X20492442Y8772387D01*
X20958619Y9334566D01*
X21280265Y9863947D01*
X21480587Y10412961D01*
X21582790Y11034041D01*
X21599444Y11273547D01*
X21615373Y11673327D01*
X21611403Y11914490D01*
X21584192Y12025835D01*
X21530397Y12036164D01*
X21512089Y12026140D01*
X21378081Y11939629D01*
X21131095Y11778714D01*
X20815418Y11572275D01*
X20676888Y11481490D01*
X19342020Y10706949D01*
X17941007Y10094127D01*
X16457160Y9637294D01*
X14873792Y9330718D01*
X14161941Y9244042D01*
X13138261Y9139819D01*
X11044322Y9139819D01*
X10555886Y9883090D01*
X10474296Y10043429D01*
X10089597Y11010654D01*
X9859581Y12029990D01*
X9780991Y13123952D01*
X9850571Y14315055D01*
X9853222Y14338047D01*
X9867507Y14423388D01*
X11576393Y14423388D01*
X11677247Y13869857D01*
X11913699Y13343780D01*
X12264569Y12889424D01*
X12708679Y12551061D01*
X12809189Y12500101D01*
X13115013Y12378048D01*
X13425159Y12308413D01*
X13810714Y12278713D01*
X14091703Y12274867D01*
X14516791Y12287253D01*
X14919123Y12320410D01*
X15223781Y12367726D01*
X15267629Y12378645D01*
X15610411Y12539797D01*
X15982897Y12826083D01*
X16080154Y12919046D01*
X16461389Y13420894D01*
X16679896Y13977182D01*
X16740329Y14556473D01*
X16647340Y15127332D01*
X16405582Y15658325D01*
X16019707Y16118015D01*
X15558758Y16441744D01*
X15371513Y16528851D01*
X16255406Y16528851D01*
X16326454Y16070199D01*
X16527189Y15708756D01*
X16838998Y15477312D01*
X16856363Y15470067D01*
X17182269Y15399615D01*
X17593674Y15390210D01*
X17999317Y15438430D01*
X18273682Y15523235D01*
X18596345Y15773140D01*
X18790254Y16136229D01*
X18842494Y16577428D01*
X18786962Y16917197D01*
X18616717Y17261879D01*
X18320708Y17490781D01*
X17885499Y17611356D01*
X17492481Y17635294D01*
X17153492Y17626955D01*
X16932323Y17585160D01*
X16758863Y17485486D01*
X16575258Y17315794D01*
X16374417Y17086743D01*
X16280627Y16871056D01*
X16255606Y16574547D01*
X16255406Y16528851D01*
X15371513Y16528851D01*
X15355709Y16536203D01*
X15139197Y16597074D01*
X14861501Y16631284D01*
X14474901Y16645760D01*
X14138740Y16647868D01*
X13666233Y16643662D01*
X13333713Y16625892D01*
X13093108Y16586829D01*
X12896347Y16518744D01*
X12699954Y16416542D01*
X12307517Y16104343D01*
X11959156Y15666665D01*
X11700804Y15166168D01*
X11632315Y14960101D01*
X11576393Y14423388D01*
X9867507Y14423388D01*
X10015499Y15307485D01*
X10270280Y16143159D01*
X10635458Y16884027D01*
X11128925Y17569045D01*
X11544341Y18020284D01*
X12208108Y18581716D01*
X12957082Y19014723D01*
X13806433Y19324008D01*
X14771331Y19514277D01*
X15866947Y19590232D01*
X16584666Y19583198D01*
X16584666Y19583198D01*
G37*
X16584666Y19583198D02*
X17194144Y19550902D01*
X17753934Y19500656D01*
X18213900Y19437750D01*
X18466147Y19384653D01*
X19308270Y19086597D01*
X20101154Y18671258D01*
X20811054Y18163132D01*
X21404227Y17586711D01*
X21846929Y16966490D01*
X21879506Y16906983D01*
X22253489Y16042717D01*
X22525716Y15070900D01*
X22687842Y14047303D01*
X22731520Y13027698D01*
X22648402Y12067857D01*
X22624196Y11930973D01*
X22338409Y10832098D01*
X21925399Y9871821D01*
X21385095Y9050062D01*
X20717424Y8366737D01*
X19922314Y7821764D01*
X18999694Y7415061D01*
X18542719Y7277088D01*
X17952269Y7160690D01*
X17239649Y7081141D01*
X16467585Y7040466D01*
X15698805Y7040694D01*
X14996035Y7083850D01*
X14538896Y7147697D01*
X13484377Y7427883D01*
X12555254Y7844053D01*
X11755091Y8393669D01*
X11087447Y9074193D01*
X11044322Y9139819D01*
X13138261Y9139819D01*
X13725613Y8547200D01*
X14292086Y8049805D01*
X14897689Y7648523D01*
X15493680Y7373441D01*
X15749075Y7298062D01*
X16251827Y7226054D01*
X16852875Y7209366D01*
X17471131Y7246579D01*
X18025502Y7336273D01*
X18033114Y7338057D01*
X18917494Y7639635D01*
X19727786Y8102081D01*
X20429922Y8705525D01*
X20492442Y8772387D01*
X20958619Y9334566D01*
X21280265Y9863947D01*
X21480587Y10412961D01*
X21582790Y11034041D01*
X21599444Y11273547D01*
X21615373Y11673327D01*
X21611403Y11914490D01*
X21584192Y12025835D01*
X21530397Y12036164D01*
X21512089Y12026140D01*
X21378081Y11939629D01*
X21131095Y11778714D01*
X20815418Y11572275D01*
X20676888Y11481490D01*
X19342020Y10706949D01*
X17941007Y10094127D01*
X16457160Y9637294D01*
X14873792Y9330718D01*
X14161941Y9244042D01*
X13138261Y9139819D01*
X11044322Y9139819D01*
X10555886Y9883090D01*
X10474296Y10043429D01*
X10089597Y11010654D01*
X9859581Y12029990D01*
X9780991Y13123952D01*
X9850571Y14315055D01*
X9853222Y14338047D01*
X9867507Y14423388D01*
X11576393Y14423388D01*
X11677247Y13869857D01*
X11913699Y13343780D01*
X12264569Y12889424D01*
X12708679Y12551061D01*
X12809189Y12500101D01*
X13115013Y12378048D01*
X13425159Y12308413D01*
X13810714Y12278713D01*
X14091703Y12274867D01*
X14516791Y12287253D01*
X14919123Y12320410D01*
X15223781Y12367726D01*
X15267629Y12378645D01*
X15610411Y12539797D01*
X15982897Y12826083D01*
X16080154Y12919046D01*
X16461389Y13420894D01*
X16679896Y13977182D01*
X16740329Y14556473D01*
X16647340Y15127332D01*
X16405582Y15658325D01*
X16019707Y16118015D01*
X15558758Y16441744D01*
X15371513Y16528851D01*
X16255406Y16528851D01*
X16326454Y16070199D01*
X16527189Y15708756D01*
X16838998Y15477312D01*
X16856363Y15470067D01*
X17182269Y15399615D01*
X17593674Y15390210D01*
X17999317Y15438430D01*
X18273682Y15523235D01*
X18596345Y15773140D01*
X18790254Y16136229D01*
X18842494Y16577428D01*
X18786962Y16917197D01*
X18616717Y17261879D01*
X18320708Y17490781D01*
X17885499Y17611356D01*
X17492481Y17635294D01*
X17153492Y17626955D01*
X16932323Y17585160D01*
X16758863Y17485486D01*
X16575258Y17315794D01*
X16374417Y17086743D01*
X16280627Y16871056D01*
X16255606Y16574547D01*
X16255406Y16528851D01*
X15371513Y16528851D01*
X15355709Y16536203D01*
X15139197Y16597074D01*
X14861501Y16631284D01*
X14474901Y16645760D01*
X14138740Y16647868D01*
X13666233Y16643662D01*
X13333713Y16625892D01*
X13093108Y16586829D01*
X12896347Y16518744D01*
X12699954Y16416542D01*
X12307517Y16104343D01*
X11959156Y15666665D01*
X11700804Y15166168D01*
X11632315Y14960101D01*
X11576393Y14423388D01*
X9867507Y14423388D01*
X10015499Y15307485D01*
X10270280Y16143159D01*
X10635458Y16884027D01*
X11128925Y17569045D01*
X11544341Y18020284D01*
X12208108Y18581716D01*
X12957082Y19014723D01*
X13806433Y19324008D01*
X14771331Y19514277D01*
X15866947Y19590232D01*
X16584666Y19583198D01*
G36*
X-15118297Y20616443D02*
X-14345064Y20573354D01*
X-13707702Y20499938D01*
X-13154904Y20384981D01*
X-12635367Y20217269D01*
X-12097786Y19985587D01*
X-11985985Y19931758D01*
X-11175291Y19444623D01*
X-10496057Y18835398D01*
X-9941445Y18095252D01*
X-9504615Y17215352D01*
X-9224735Y16365646D01*
X-9109981Y15787756D01*
X-9036886Y15101753D01*
X-9006230Y14366150D01*
X-9018792Y13639460D01*
X-9075354Y12980195D01*
X-9172701Y12461572D01*
X-9534775Y11416759D01*
X-10022754Y10510652D01*
X-10635388Y9744553D01*
X-11371428Y9119762D01*
X-12229623Y8637579D01*
X-13160244Y8311902D01*
X-13748495Y8195918D01*
X-14458993Y8116440D01*
X-15229022Y8075509D01*
X-15995865Y8075169D01*
X-16696805Y8117462D01*
X-17159064Y8181667D01*
X-17677210Y8301800D01*
X-18196945Y8460225D01*
X-18670566Y8639076D01*
X-19050365Y8820490D01*
X-19276031Y8974412D01*
X-19492685Y9131563D01*
X-19652738Y9207081D01*
X-19880286Y9342373D01*
X-20167192Y9604188D01*
X-20481331Y9954637D01*
X-20603744Y10113450D01*
X-18552001Y10113450D01*
X-18483880Y10018796D01*
X-18303081Y9838706D01*
X-18044953Y9603880D01*
X-17744842Y9345021D01*
X-17438096Y9092831D01*
X-17160063Y8878013D01*
X-16999779Y8765216D01*
X-16450273Y8496993D01*
X-15783244Y8319530D01*
X-15049036Y8238617D01*
X-14297995Y8260042D01*
X-13626691Y8377363D01*
X-12748050Y8692038D01*
X-11951098Y9153501D01*
X-11272751Y9740042D01*
X-11228179Y9787931D01*
X-10751431Y10366643D01*
X-10422614Y10918455D01*
X-10218699Y11495035D01*
X-10116657Y12148047D01*
X-10105632Y12306393D01*
X-10086949Y12706574D01*
X-10088805Y12948477D01*
X-10114417Y13061174D01*
X-10166998Y13073734D01*
X-10189173Y13061906D01*
X-10324004Y12974938D01*
X-10571687Y12813645D01*
X-10887807Y12606976D01*
X-11026075Y12516381D01*
X-12403881Y11722589D01*
X-13865796Y11093724D01*
X-15416193Y10628324D01*
X-17059449Y10324922D01*
X-17822927Y10241502D01*
X-18166040Y10203916D01*
X-18422351Y10161313D01*
X-18546774Y10121610D01*
X-18552001Y10113450D01*
X-20603744Y10113450D01*
X-20790576Y10355834D01*
X-21062804Y10769890D01*
X-21215781Y11050460D01*
X-21473355Y11616673D01*
X-21658020Y12131835D01*
X-21780283Y12647903D01*
X-21850653Y13216837D01*
X-21879637Y13890595D01*
X-21881659Y14343053D01*
X-21840289Y15373706D01*
X-21831319Y15439617D01*
X-20135107Y15439617D01*
X-20064190Y15039062D01*
X-20003919Y14821793D01*
X-19801544Y14376830D01*
X-19488902Y13960960D01*
X-19114011Y13626950D01*
X-18739183Y13431993D01*
X-18422491Y13369772D01*
X-17984996Y13332746D01*
X-17492421Y13321441D01*
X-17010487Y13336387D01*
X-16604916Y13378112D01*
X-16435334Y13413460D01*
X-16092552Y13574612D01*
X-15720066Y13860898D01*
X-15622809Y13953861D01*
X-15249009Y14448962D01*
X-15034666Y15002253D01*
X-14974995Y15581091D01*
X-15065213Y16152832D01*
X-15300534Y16684829D01*
X-15676174Y17144440D01*
X-16138693Y17473746D01*
X-16331017Y17563666D01*
X-15447557Y17563666D01*
X-15376509Y17105014D01*
X-15175774Y16743570D01*
X-14863965Y16512127D01*
X-14846600Y16504882D01*
X-14565949Y16442770D01*
X-14192537Y16421421D01*
X-13817343Y16441103D01*
X-13534196Y16500994D01*
X-13192855Y16699538D01*
X-12990755Y16996215D01*
X-12911988Y17417383D01*
X-12909648Y17535792D01*
X-12961610Y17999862D01*
X-13123903Y18331161D01*
X-13412555Y18543486D01*
X-13843596Y18650635D01*
X-14227816Y18670460D01*
X-14562667Y18661046D01*
X-14782071Y18615640D01*
X-14958451Y18508502D01*
X-15127705Y18350609D01*
X-15328546Y18121558D01*
X-15422336Y17905871D01*
X-15447357Y17609362D01*
X-15447557Y17563666D01*
X-16331017Y17563666D01*
X-16343098Y17569314D01*
X-16558598Y17630926D01*
X-16833159Y17665612D01*
X-17214744Y17680402D01*
X-17564223Y17682683D01*
X-18037456Y17678400D01*
X-18370538Y17660467D01*
X-18611372Y17621255D01*
X-18807859Y17553135D01*
X-18997560Y17454420D01*
X-19439332Y17102295D01*
X-19804639Y16612866D01*
X-20015423Y16158872D01*
X-20118628Y15786907D01*
X-20135107Y15439617D01*
X-21831319Y15439617D01*
X-21719632Y16260252D01*
X-21508414Y17034008D01*
X-21195361Y17726293D01*
X-20769198Y18368424D01*
X-20218650Y18991719D01*
X-20202134Y19008400D01*
X-19540414Y19578729D01*
X-18807944Y20019398D01*
X-17986335Y20336223D01*
X-17057200Y20535020D01*
X-16002152Y20621604D01*
X-15118297Y20616443D01*
X-15118297Y20616443D01*
G37*
X-15118297Y20616443D02*
X-14345064Y20573354D01*
X-13707702Y20499938D01*
X-13154904Y20384981D01*
X-12635367Y20217269D01*
X-12097786Y19985587D01*
X-11985985Y19931758D01*
X-11175291Y19444623D01*
X-10496057Y18835398D01*
X-9941445Y18095252D01*
X-9504615Y17215352D01*
X-9224735Y16365646D01*
X-9109981Y15787756D01*
X-9036886Y15101753D01*
X-9006230Y14366150D01*
X-9018792Y13639460D01*
X-9075354Y12980195D01*
X-9172701Y12461572D01*
X-9534775Y11416759D01*
X-10022754Y10510652D01*
X-10635388Y9744553D01*
X-11371428Y9119762D01*
X-12229623Y8637579D01*
X-13160244Y8311902D01*
X-13748495Y8195918D01*
X-14458993Y8116440D01*
X-15229022Y8075509D01*
X-15995865Y8075169D01*
X-16696805Y8117462D01*
X-17159064Y8181667D01*
X-17677210Y8301800D01*
X-18196945Y8460225D01*
X-18670566Y8639076D01*
X-19050365Y8820490D01*
X-19276031Y8974412D01*
X-19492685Y9131563D01*
X-19652738Y9207081D01*
X-19880286Y9342373D01*
X-20167192Y9604188D01*
X-20481331Y9954637D01*
X-20603744Y10113450D01*
X-18552001Y10113450D01*
X-18483880Y10018796D01*
X-18303081Y9838706D01*
X-18044953Y9603880D01*
X-17744842Y9345021D01*
X-17438096Y9092831D01*
X-17160063Y8878013D01*
X-16999779Y8765216D01*
X-16450273Y8496993D01*
X-15783244Y8319530D01*
X-15049036Y8238617D01*
X-14297995Y8260042D01*
X-13626691Y8377363D01*
X-12748050Y8692038D01*
X-11951098Y9153501D01*
X-11272751Y9740042D01*
X-11228179Y9787931D01*
X-10751431Y10366643D01*
X-10422614Y10918455D01*
X-10218699Y11495035D01*
X-10116657Y12148047D01*
X-10105632Y12306393D01*
X-10086949Y12706574D01*
X-10088805Y12948477D01*
X-10114417Y13061174D01*
X-10166998Y13073734D01*
X-10189173Y13061906D01*
X-10324004Y12974938D01*
X-10571687Y12813645D01*
X-10887807Y12606976D01*
X-11026075Y12516381D01*
X-12403881Y11722589D01*
X-13865796Y11093724D01*
X-15416193Y10628324D01*
X-17059449Y10324922D01*
X-17822927Y10241502D01*
X-18166040Y10203916D01*
X-18422351Y10161313D01*
X-18546774Y10121610D01*
X-18552001Y10113450D01*
X-20603744Y10113450D01*
X-20790576Y10355834D01*
X-21062804Y10769890D01*
X-21215781Y11050460D01*
X-21473355Y11616673D01*
X-21658020Y12131835D01*
X-21780283Y12647903D01*
X-21850653Y13216837D01*
X-21879637Y13890595D01*
X-21881659Y14343053D01*
X-21840289Y15373706D01*
X-21831319Y15439617D01*
X-20135107Y15439617D01*
X-20064190Y15039062D01*
X-20003919Y14821793D01*
X-19801544Y14376830D01*
X-19488902Y13960960D01*
X-19114011Y13626950D01*
X-18739183Y13431993D01*
X-18422491Y13369772D01*
X-17984996Y13332746D01*
X-17492421Y13321441D01*
X-17010487Y13336387D01*
X-16604916Y13378112D01*
X-16435334Y13413460D01*
X-16092552Y13574612D01*
X-15720066Y13860898D01*
X-15622809Y13953861D01*
X-15249009Y14448962D01*
X-15034666Y15002253D01*
X-14974995Y15581091D01*
X-15065213Y16152832D01*
X-15300534Y16684829D01*
X-15676174Y17144440D01*
X-16138693Y17473746D01*
X-16331017Y17563666D01*
X-15447557Y17563666D01*
X-15376509Y17105014D01*
X-15175774Y16743570D01*
X-14863965Y16512127D01*
X-14846600Y16504882D01*
X-14565949Y16442770D01*
X-14192537Y16421421D01*
X-13817343Y16441103D01*
X-13534196Y16500994D01*
X-13192855Y16699538D01*
X-12990755Y16996215D01*
X-12911988Y17417383D01*
X-12909648Y17535792D01*
X-12961610Y17999862D01*
X-13123903Y18331161D01*
X-13412555Y18543486D01*
X-13843596Y18650635D01*
X-14227816Y18670460D01*
X-14562667Y18661046D01*
X-14782071Y18615640D01*
X-14958451Y18508502D01*
X-15127705Y18350609D01*
X-15328546Y18121558D01*
X-15422336Y17905871D01*
X-15447357Y17609362D01*
X-15447557Y17563666D01*
X-16331017Y17563666D01*
X-16343098Y17569314D01*
X-16558598Y17630926D01*
X-16833159Y17665612D01*
X-17214744Y17680402D01*
X-17564223Y17682683D01*
X-18037456Y17678400D01*
X-18370538Y17660467D01*
X-18611372Y17621255D01*
X-18807859Y17553135D01*
X-18997560Y17454420D01*
X-19439332Y17102295D01*
X-19804639Y16612866D01*
X-20015423Y16158872D01*
X-20118628Y15786907D01*
X-20135107Y15439617D01*
X-21831319Y15439617D01*
X-21719632Y16260252D01*
X-21508414Y17034008D01*
X-21195361Y17726293D01*
X-20769198Y18368424D01*
X-20218650Y18991719D01*
X-20202134Y19008400D01*
X-19540414Y19578729D01*
X-18807944Y20019398D01*
X-17986335Y20336223D01*
X-17057200Y20535020D01*
X-16002152Y20621604D01*
X-15118297Y20616443D01*
D12*
X-5780000Y20350000D03*
X-5780000Y21850000D03*
X9140000Y18750000D03*
X9140000Y20250000D03*
X7300000Y19925000D03*
X7300000Y21425000D03*
D13*
X-8740000Y19555000D03*
X-7240000Y19555000D03*
X-6000000Y13985000D03*
X-7500000Y13985000D03*
D10*
G36*
X-13925357Y33532356D02*
X-14335782Y34659987D01*
X-13208151Y35070412D01*
X-12797726Y33942781D01*
X-13925357Y33532356D01*
X-13925357Y33532356D01*
G37*
G36*
X-12421849Y34079588D02*
X-12832274Y35207219D01*
X-11704643Y35617644D01*
X-11294218Y34490013D01*
X-12421849Y34079588D01*
X-12421849Y34079588D01*
G37*
G36*
X11994218Y33955013D02*
X12404643Y35082644D01*
X13532274Y34672219D01*
X13121849Y33544588D01*
X11994218Y33955013D01*
X11994218Y33955013D01*
G37*
G36*
X13497726Y33407781D02*
X13908151Y34535412D01*
X15035782Y34124987D01*
X14625357Y32997356D01*
X13497726Y33407781D01*
X13497726Y33407781D01*
G37*
D14*
X-5955000Y17955000D03*
X-7656800Y17955000D03*
X-7656800Y15669000D03*
X-5955000Y15669000D03*
D15*
X-3585000Y23435000D03*
X-3585000Y22635000D03*
X-3585000Y21835000D03*
X-3585000Y21035000D03*
X-3585000Y20235000D03*
X-3585000Y19435000D03*
X-3585000Y18635000D03*
X-3585000Y17835000D03*
D16*
X-2135000Y16385000D03*
X-1335000Y16385000D03*
X-535000Y16385000D03*
X265000Y16385000D03*
X1065000Y16385000D03*
X1865000Y16385000D03*
X2665000Y16385000D03*
X3465000Y16385000D03*
D15*
X4915000Y17835000D03*
X4915000Y18635000D03*
X4915000Y19435000D03*
X4915000Y20235000D03*
X4915000Y21035000D03*
X4915000Y21835000D03*
X4915000Y22635000D03*
X4915000Y23435000D03*
D16*
X3465000Y24885000D03*
X2665000Y24885000D03*
X1865000Y24885000D03*
X1065000Y24885000D03*
X265000Y24885000D03*
X-535000Y24885000D03*
X-1335000Y24885000D03*
X-2135000Y24885000D03*
D12*
X-13235000Y-2430000D03*
X-13235000Y-3930000D03*
D10*
G36*
X-17005381Y-7348300D02*
X-15803300Y-8550381D01*
X-16581117Y-9328198D01*
X-17783198Y-8126117D01*
X-17005381Y-7348300D01*
X-17005381Y-7348300D01*
G37*
G36*
X-18348883Y-8691802D02*
X-17146802Y-9893883D01*
X-17924619Y-10671700D01*
X-19126700Y-9469619D01*
X-18348883Y-8691802D01*
X-18348883Y-8691802D01*
G37*
D17*
X-5915000Y29075000D03*
X-7815000Y29075000D03*
X5390000Y29285000D03*
X7290000Y29285000D03*
D18*
X-28495000Y-825000D03*
X-28495000Y3175000D03*
X-37405000Y3175000D03*
X-37405000Y-825000D03*
D10*
G36*
X-22742811Y4871061D02*
X-23545818Y3724248D01*
X-26412851Y5731765D01*
X-25609844Y6878578D01*
X-22742811Y4871061D01*
X-22742811Y4871061D01*
G37*
G36*
X-20448505Y8147669D02*
X-21251512Y7000856D01*
X-24118545Y9008373D01*
X-23315538Y10155186D01*
X-20448505Y8147669D01*
X-20448505Y8147669D01*
G37*
G36*
X-27747149Y13258235D02*
X-28550156Y12111422D01*
X-31417189Y14118939D01*
X-30614182Y15265752D01*
X-27747149Y13258235D01*
X-27747149Y13258235D01*
G37*
G36*
X-30041455Y9981627D02*
X-30844462Y8834814D01*
X-33711495Y10842331D01*
X-32908488Y11989144D01*
X-30041455Y9981627D01*
X-30041455Y9981627D01*
G37*
G36*
X-24200035Y1139732D02*
X-24562382Y2492028D01*
X-21181641Y3397894D01*
X-20819294Y2045598D01*
X-24200035Y1139732D01*
X-24200035Y1139732D01*
G37*
G36*
X-23164758Y-2723971D02*
X-23527105Y-1371675D01*
X-20146364Y-465809D01*
X-19784017Y-1818105D01*
X-23164758Y-2723971D01*
X-23164758Y-2723971D01*
G37*
G36*
X-14558359Y-417894D02*
X-14920706Y934402D01*
X-11539965Y1840268D01*
X-11177618Y487972D01*
X-14558359Y-417894D01*
X-14558359Y-417894D01*
G37*
G36*
X-15593636Y3445809D02*
X-15955983Y4798105D01*
X-12575242Y5703971D01*
X-12212895Y4351675D01*
X-15593636Y3445809D01*
X-15593636Y3445809D01*
G37*
G36*
X-20475011Y-9487737D02*
X-20718118Y-10866468D01*
X-24164945Y-10258699D01*
X-23921838Y-8879968D01*
X-20475011Y-9487737D01*
X-20475011Y-9487737D01*
G37*
G36*
X-19780418Y-5548506D02*
X-20023525Y-6927237D01*
X-23470352Y-6319468D01*
X-23227245Y-4940737D01*
X-19780418Y-5548506D01*
X-19780418Y-5548506D01*
G37*
G36*
X-28555055Y-4001301D02*
X-28798162Y-5380032D01*
X-32244989Y-4772263D01*
X-32001882Y-3393532D01*
X-28555055Y-4001301D01*
X-28555055Y-4001301D01*
G37*
G36*
X-29249648Y-7940532D02*
X-29492755Y-9319263D01*
X-32939582Y-8711494D01*
X-32696475Y-7332763D01*
X-29249648Y-7940532D01*
X-29249648Y-7940532D01*
G37*
D19*
X-14670000Y-14450000D03*
X-18670000Y-14450000D03*
X-18670000Y-23360000D03*
X-14670000Y-23360000D03*
D10*
G36*
X-5131641Y-18326836D02*
X-6121591Y-19316786D01*
X-8596465Y-16841912D01*
X-7606515Y-15851962D01*
X-5131641Y-18326836D01*
X-5131641Y-18326836D01*
G37*
G36*
X-2303214Y-15498409D02*
X-3293164Y-16488359D01*
X-5768038Y-14013485D01*
X-4778088Y-13023535D01*
X-2303214Y-15498409D01*
X-2303214Y-15498409D01*
G37*
G36*
X-8603535Y-9198088D02*
X-9593485Y-10188038D01*
X-12068359Y-7713164D01*
X-11078409Y-6723214D01*
X-8603535Y-9198088D01*
X-8603535Y-9198088D01*
G37*
G36*
X-11431962Y-12026515D02*
X-12421912Y-13016465D01*
X-14896786Y-10541591D01*
X-13906836Y-9551641D01*
X-11431962Y-12026515D01*
X-11431962Y-12026515D01*
G37*
D18*
X-2110000Y-13355000D03*
X-2110000Y-17355000D03*
X6800000Y-17355000D03*
X6800000Y-13355000D03*
D10*
G36*
X15731836Y-19216641D02*
X16721786Y-20206591D01*
X14246912Y-22681465D01*
X13256962Y-21691515D01*
X15731836Y-19216641D01*
X15731836Y-19216641D01*
G37*
G36*
X12903409Y-16388214D02*
X13893359Y-17378164D01*
X11418485Y-19853038D01*
X10428535Y-18863088D01*
X12903409Y-16388214D01*
X12903409Y-16388214D01*
G37*
G36*
X6603088Y-22688535D02*
X7593038Y-23678485D01*
X5118164Y-26153359D01*
X4128214Y-25163409D01*
X6603088Y-22688535D01*
X6603088Y-22688535D01*
G37*
G36*
X9431515Y-25516962D02*
X10421465Y-26506912D01*
X7946591Y-28981786D01*
X6956641Y-27991836D01*
X9431515Y-25516962D01*
X9431515Y-25516962D01*
G37*
G36*
X17686836Y-5701641D02*
X18676786Y-6691591D01*
X16201912Y-9166465D01*
X15211962Y-8176515D01*
X17686836Y-5701641D01*
X17686836Y-5701641D01*
G37*
G36*
X14858409Y-2873214D02*
X15848359Y-3863164D01*
X13373485Y-6338038D01*
X12383535Y-5348088D01*
X14858409Y-2873214D01*
X14858409Y-2873214D01*
G37*
G36*
X8558088Y-9173535D02*
X9548038Y-10163485D01*
X7073164Y-12638359D01*
X6083214Y-11648409D01*
X8558088Y-9173535D01*
X8558088Y-9173535D01*
G37*
G36*
X11386515Y-12001962D02*
X12376465Y-12991912D01*
X9901591Y-15466786D01*
X8911641Y-14476836D01*
X11386515Y-12001962D01*
X11386515Y-12001962D01*
G37*
D18*
X18145000Y-10650000D03*
X18145000Y-14650000D03*
X27055000Y-14650000D03*
X27055000Y-10650000D03*
D10*
G36*
X20792189Y-2618939D02*
X19989182Y-3765752D01*
X17122149Y-1758235D01*
X17925156Y-611422D01*
X20792189Y-2618939D01*
X20792189Y-2618939D01*
G37*
G36*
X23086495Y657669D02*
X22283488Y-489144D01*
X19416455Y1518373D01*
X20219462Y2665186D01*
X23086495Y657669D01*
X23086495Y657669D01*
G37*
G36*
X15787851Y5768235D02*
X14984844Y4621422D01*
X12117811Y6628939D01*
X12920818Y7775752D01*
X15787851Y5768235D01*
X15787851Y5768235D01*
G37*
G36*
X13493545Y2491627D02*
X12690538Y1344814D01*
X9823505Y3352331D01*
X10626512Y4499144D01*
X13493545Y2491627D01*
X13493545Y2491627D01*
G37*
D18*
X22615000Y-2580000D03*
X22615000Y-6580000D03*
X31525000Y-6580000D03*
X31525000Y-2580000D03*
D19*
X1875000Y-21025000D03*
X-2125000Y-21025000D03*
X-2125000Y-29935000D03*
X1875000Y-29935000D03*
D20*
X-25609485Y-14515000D03*
X-13744936Y-7665000D03*
X-18510000Y-4411668D03*
D21*
X26900000Y7280000D03*
X26900000Y2780000D03*
X34900000Y2780000D03*
X34900000Y7280000D03*
D22*
X-8491937Y43475556D03*
X-10287986Y41679504D03*
X-12084038Y39883453D03*
X-13880090Y38087403D03*
M02*
