G04 #@! TF.FileFunction,Paste,Top*
%FSLAX46Y46*%
G04 Gerber Fmt 4.6, Leading zero omitted, Abs format (unit mm)*
G04 Created by KiCad (PCBNEW 4.0.7-e2-6376~58~ubuntu16.04.1) date Tue Oct 31 02:22:27 2017*
%MOMM*%
%LPD*%
G01*
G04 APERTURE LIST*
%ADD10C,0.100000*%
%ADD11R,0.750000X0.800000*%
%ADD12R,0.800000X0.750000*%
%ADD13R,1.193800X1.397000*%
%ADD14R,1.600000X0.550000*%
%ADD15R,0.550000X1.600000*%
%ADD16R,0.700000X1.300000*%
%ADD17R,3.100000X1.000000*%
%ADD18R,1.000000X3.100000*%
%ADD19R,1.550000X1.300000*%
G04 APERTURE END LIST*
D10*
D11*
X-5780000Y20350000D03*
X-5780000Y21850000D03*
X9140000Y18750000D03*
X9140000Y20250000D03*
X7300000Y19925000D03*
X7300000Y21425000D03*
D12*
X-8740000Y19555000D03*
X-7240000Y19555000D03*
X-6000000Y13985000D03*
X-7500000Y13985000D03*
D10*
G36*
X-13805823Y33788699D02*
X-14079439Y34540453D01*
X-13327685Y34814069D01*
X-13054069Y34062315D01*
X-13805823Y33788699D01*
X-13805823Y33788699D01*
G37*
G36*
X-12302315Y34335931D02*
X-12575931Y35087685D01*
X-11824177Y35361301D01*
X-11550561Y34609547D01*
X-12302315Y34335931D01*
X-12302315Y34335931D01*
G37*
G36*
X12250561Y34074547D02*
X12524177Y34826301D01*
X13275931Y34552685D01*
X13002315Y33800931D01*
X12250561Y34074547D01*
X12250561Y34074547D01*
G37*
G36*
X13754069Y33527315D02*
X14027685Y34279069D01*
X14779439Y34005453D01*
X14505823Y33253699D01*
X13754069Y33527315D01*
X13754069Y33527315D01*
G37*
D13*
X-5955000Y17955000D03*
X-7656800Y17955000D03*
X-7656800Y15669000D03*
X-5955000Y15669000D03*
D14*
X-3585000Y23435000D03*
X-3585000Y22635000D03*
X-3585000Y21835000D03*
X-3585000Y21035000D03*
X-3585000Y20235000D03*
X-3585000Y19435000D03*
X-3585000Y18635000D03*
X-3585000Y17835000D03*
D15*
X-2135000Y16385000D03*
X-1335000Y16385000D03*
X-535000Y16385000D03*
X265000Y16385000D03*
X1065000Y16385000D03*
X1865000Y16385000D03*
X2665000Y16385000D03*
X3465000Y16385000D03*
D14*
X4915000Y17835000D03*
X4915000Y18635000D03*
X4915000Y19435000D03*
X4915000Y20235000D03*
X4915000Y21035000D03*
X4915000Y21835000D03*
X4915000Y22635000D03*
X4915000Y23435000D03*
D15*
X3465000Y24885000D03*
X2665000Y24885000D03*
X1865000Y24885000D03*
X1065000Y24885000D03*
X265000Y24885000D03*
X-535000Y24885000D03*
X-1335000Y24885000D03*
X-2135000Y24885000D03*
D11*
X-13235000Y-2430000D03*
X-13235000Y-3930000D03*
D10*
G36*
X-17005381Y-7631142D02*
X-16086142Y-8550381D01*
X-16581117Y-9045356D01*
X-17500356Y-8126117D01*
X-17005381Y-7631142D01*
X-17005381Y-7631142D01*
G37*
G36*
X-18348883Y-8974644D02*
X-17429644Y-9893883D01*
X-17924619Y-10388858D01*
X-18843858Y-9469619D01*
X-18348883Y-8974644D01*
X-18348883Y-8974644D01*
G37*
D16*
X-5915000Y29075000D03*
X-7815000Y29075000D03*
X5390000Y29285000D03*
X7290000Y29285000D03*
D17*
X-28495000Y-825000D03*
X-28495000Y3175000D03*
X-37405000Y3175000D03*
X-37405000Y-825000D03*
D10*
G36*
X-23021357Y4821946D02*
X-23594934Y4002794D01*
X-26134305Y5780880D01*
X-25560728Y6600032D01*
X-23021357Y4821946D01*
X-23021357Y4821946D01*
G37*
G36*
X-20727051Y8098554D02*
X-21300628Y7279402D01*
X-23839999Y9057488D01*
X-23266422Y9876640D01*
X-20727051Y8098554D01*
X-20727051Y8098554D01*
G37*
G36*
X-28025695Y13209120D02*
X-28599272Y12389968D01*
X-31138643Y14168054D01*
X-30565066Y14987206D01*
X-28025695Y13209120D01*
X-28025695Y13209120D01*
G37*
G36*
X-30320001Y9932512D02*
X-30893578Y9113360D01*
X-33432949Y10891446D01*
X-32859372Y11710598D01*
X-30320001Y9932512D01*
X-30320001Y9932512D01*
G37*
G36*
X-24058614Y1384681D02*
X-24317433Y2350606D01*
X-21323062Y3152945D01*
X-21064243Y2187020D01*
X-24058614Y1384681D01*
X-24058614Y1384681D01*
G37*
G36*
X-23023337Y-2479022D02*
X-23282156Y-1513097D01*
X-20287785Y-710758D01*
X-20028966Y-1676683D01*
X-23023337Y-2479022D01*
X-23023337Y-2479022D01*
G37*
G36*
X-14416938Y-172945D02*
X-14675757Y792980D01*
X-11681386Y1595319D01*
X-11422567Y629394D01*
X-14416938Y-172945D01*
X-14416938Y-172945D01*
G37*
G36*
X-15452215Y3690758D02*
X-15711034Y4656683D01*
X-12716663Y5459022D01*
X-12457844Y4493097D01*
X-15452215Y3690758D01*
X-15452215Y3690758D01*
G37*
G36*
X-20706702Y-9649969D02*
X-20880350Y-10634777D01*
X-23933254Y-10096467D01*
X-23759606Y-9111659D01*
X-20706702Y-9649969D01*
X-20706702Y-9649969D01*
G37*
G36*
X-20012109Y-5710738D02*
X-20185757Y-6695546D01*
X-23238661Y-6157236D01*
X-23065013Y-5172428D01*
X-20012109Y-5710738D01*
X-20012109Y-5710738D01*
G37*
G36*
X-28786746Y-4163533D02*
X-28960394Y-5148341D01*
X-32013298Y-4610031D01*
X-31839650Y-3625223D01*
X-28786746Y-4163533D01*
X-28786746Y-4163533D01*
G37*
G36*
X-29481339Y-8102764D02*
X-29654987Y-9087572D01*
X-32707891Y-8549262D01*
X-32534243Y-7564454D01*
X-29481339Y-8102764D01*
X-29481339Y-8102764D01*
G37*
D18*
X-14670000Y-14450000D03*
X-18670000Y-14450000D03*
X-18670000Y-23360000D03*
X-14670000Y-23360000D03*
D10*
G36*
X-5414484Y-18326836D02*
X-6121591Y-19033943D01*
X-8313622Y-16841912D01*
X-7606515Y-16134805D01*
X-5414484Y-18326836D01*
X-5414484Y-18326836D01*
G37*
G36*
X-2586057Y-15498409D02*
X-3293164Y-16205516D01*
X-5485195Y-14013485D01*
X-4778088Y-13306378D01*
X-2586057Y-15498409D01*
X-2586057Y-15498409D01*
G37*
G36*
X-8886378Y-9198088D02*
X-9593485Y-9905195D01*
X-11785516Y-7713164D01*
X-11078409Y-7006057D01*
X-8886378Y-9198088D01*
X-8886378Y-9198088D01*
G37*
G36*
X-11714805Y-12026515D02*
X-12421912Y-12733622D01*
X-14613943Y-10541591D01*
X-13906836Y-9834484D01*
X-11714805Y-12026515D01*
X-11714805Y-12026515D01*
G37*
D17*
X-2110000Y-13355000D03*
X-2110000Y-17355000D03*
X6800000Y-17355000D03*
X6800000Y-13355000D03*
D10*
G36*
X15731836Y-19499484D02*
X16438943Y-20206591D01*
X14246912Y-22398622D01*
X13539805Y-21691515D01*
X15731836Y-19499484D01*
X15731836Y-19499484D01*
G37*
G36*
X12903409Y-16671057D02*
X13610516Y-17378164D01*
X11418485Y-19570195D01*
X10711378Y-18863088D01*
X12903409Y-16671057D01*
X12903409Y-16671057D01*
G37*
G36*
X6603088Y-22971378D02*
X7310195Y-23678485D01*
X5118164Y-25870516D01*
X4411057Y-25163409D01*
X6603088Y-22971378D01*
X6603088Y-22971378D01*
G37*
G36*
X9431515Y-25799805D02*
X10138622Y-26506912D01*
X7946591Y-28698943D01*
X7239484Y-27991836D01*
X9431515Y-25799805D01*
X9431515Y-25799805D01*
G37*
G36*
X17686836Y-5984484D02*
X18393943Y-6691591D01*
X16201912Y-8883622D01*
X15494805Y-8176515D01*
X17686836Y-5984484D01*
X17686836Y-5984484D01*
G37*
G36*
X14858409Y-3156057D02*
X15565516Y-3863164D01*
X13373485Y-6055195D01*
X12666378Y-5348088D01*
X14858409Y-3156057D01*
X14858409Y-3156057D01*
G37*
G36*
X8558088Y-9456378D02*
X9265195Y-10163485D01*
X7073164Y-12355516D01*
X6366057Y-11648409D01*
X8558088Y-9456378D01*
X8558088Y-9456378D01*
G37*
G36*
X11386515Y-12284805D02*
X12093622Y-12991912D01*
X9901591Y-15183943D01*
X9194484Y-14476836D01*
X11386515Y-12284805D01*
X11386515Y-12284805D01*
G37*
D17*
X18145000Y-10650000D03*
X18145000Y-14650000D03*
X27055000Y-14650000D03*
X27055000Y-10650000D03*
D10*
G36*
X20513643Y-2668054D02*
X19940066Y-3487206D01*
X17400695Y-1709120D01*
X17974272Y-889968D01*
X20513643Y-2668054D01*
X20513643Y-2668054D01*
G37*
G36*
X22807949Y608554D02*
X22234372Y-210598D01*
X19695001Y1567488D01*
X20268578Y2386640D01*
X22807949Y608554D01*
X22807949Y608554D01*
G37*
G36*
X15509305Y5719120D02*
X14935728Y4899968D01*
X12396357Y6678054D01*
X12969934Y7497206D01*
X15509305Y5719120D01*
X15509305Y5719120D01*
G37*
G36*
X13214999Y2442512D02*
X12641422Y1623360D01*
X10102051Y3401446D01*
X10675628Y4220598D01*
X13214999Y2442512D01*
X13214999Y2442512D01*
G37*
D17*
X22615000Y-2580000D03*
X22615000Y-6580000D03*
X31525000Y-6580000D03*
X31525000Y-2580000D03*
D18*
X1875000Y-21025000D03*
X-2125000Y-21025000D03*
X-2125000Y-29935000D03*
X1875000Y-29935000D03*
D19*
X26900000Y7280000D03*
X26900000Y2780000D03*
X34900000Y2780000D03*
X34900000Y7280000D03*
M02*
