G04 #@! TF.FileFunction,Copper,L1,Top,Signal*
%FSLAX46Y46*%
G04 Gerber Fmt 4.6, Leading zero omitted, Abs format (unit mm)*
G04 Created by KiCad (PCBNEW 4.0.7-e2-6376~58~ubuntu16.04.1) date Tue Oct 31 02:22:27 2017*
%MOMM*%
%LPD*%
G01*
G04 APERTURE LIST*
%ADD10C,0.100000*%
%ADD11C,0.010000*%
%ADD12R,0.750000X0.800000*%
%ADD13R,0.800000X0.750000*%
%ADD14C,11.000000*%
%ADD15R,1.193800X1.397000*%
%ADD16R,1.600000X0.550000*%
%ADD17R,0.550000X1.600000*%
%ADD18R,0.700000X1.300000*%
%ADD19R,3.100000X1.000000*%
%ADD20R,1.000000X3.100000*%
%ADD21C,3.000000*%
%ADD22R,1.550000X1.300000*%
%ADD23C,1.524000*%
%ADD24C,0.400000*%
%ADD25C,0.355600*%
G04 APERTURE END LIST*
D10*
D11*
G36*
X1043315Y35922462D02*
X1909308Y35900254D01*
X2672216Y35863030D01*
X3290968Y35810507D01*
X3320221Y35807143D01*
X5900884Y35423112D01*
X8378357Y34885665D01*
X10762185Y34192021D01*
X13061912Y33339398D01*
X15287084Y32325016D01*
X15311123Y32312977D01*
X17561165Y31081029D01*
X19701002Y29697461D01*
X21725896Y28166462D01*
X23631112Y26492219D01*
X25411911Y24678922D01*
X27063556Y22730760D01*
X28581311Y20651919D01*
X28700818Y20474084D01*
X29210315Y19651690D01*
X29735844Y18696031D01*
X30253117Y17657619D01*
X30737844Y16586966D01*
X31165738Y15534584D01*
X31433999Y14789905D01*
X31484186Y14712588D01*
X31595556Y14663648D01*
X31803934Y14636965D01*
X32145144Y14626417D01*
X32397603Y14625275D01*
X33650070Y14558255D01*
X34930396Y14365177D01*
X36193051Y14058015D01*
X37392506Y13648741D01*
X38483231Y13149329D01*
X38897259Y12915998D01*
X39573897Y12453088D01*
X40256154Y11886940D01*
X40871390Y11280681D01*
X41152155Y10956398D01*
X41844080Y9952357D01*
X42398281Y8837196D01*
X42814036Y7628750D01*
X43090624Y6344855D01*
X43227326Y5003346D01*
X43223421Y3622058D01*
X43078187Y2218826D01*
X42790904Y811487D01*
X42360853Y-582126D01*
X41787311Y-1944175D01*
X41682035Y-2158271D01*
X40848405Y-3626707D01*
X39838066Y-5069399D01*
X38661875Y-6475386D01*
X37330691Y-7833705D01*
X35855372Y-9133394D01*
X34246774Y-10363491D01*
X32515755Y-11513033D01*
X32263526Y-11667363D01*
X31479423Y-12142237D01*
X31031685Y-13269407D01*
X30389652Y-14784481D01*
X29735756Y-16124656D01*
X29063394Y-17303108D01*
X28817370Y-17687546D01*
X28558448Y-18087933D01*
X28345127Y-18433705D01*
X28195457Y-18694354D01*
X28127487Y-18839373D01*
X28125904Y-18856287D01*
X28207849Y-18947624D01*
X28400060Y-19124332D01*
X28666375Y-19353634D01*
X28767258Y-19437653D01*
X30091761Y-20623811D01*
X31341662Y-21925351D01*
X32475410Y-23296622D01*
X33203392Y-24311816D01*
X33952338Y-25520030D01*
X34555518Y-26704776D01*
X35038051Y-27921313D01*
X35410014Y-29166206D01*
X35506514Y-29554250D01*
X35576667Y-29886062D01*
X35624681Y-30205019D01*
X35654767Y-30554499D01*
X35671133Y-30977877D01*
X35677989Y-31518531D01*
X35679323Y-31941391D01*
X35681703Y-33681762D01*
X35224442Y-35473022D01*
X34767182Y-37264283D01*
X34142590Y-37604254D01*
X32926266Y-38200570D01*
X31563746Y-38750973D01*
X30093932Y-39243279D01*
X28555730Y-39665303D01*
X26988041Y-40004861D01*
X25897999Y-40186373D01*
X25231846Y-40260384D01*
X24434017Y-40312803D01*
X23551369Y-40343604D01*
X22630761Y-40352762D01*
X21719051Y-40340251D01*
X20863099Y-40306045D01*
X20109762Y-40250117D01*
X19613363Y-40189855D01*
X18490893Y-39990333D01*
X17336347Y-39732792D01*
X16183445Y-39427911D01*
X15065908Y-39086372D01*
X14017456Y-38718856D01*
X13071809Y-38336045D01*
X12262689Y-37948620D01*
X11906961Y-37748800D01*
X11675322Y-37611441D01*
X11334552Y-37411210D01*
X10938305Y-37179576D01*
X10683998Y-37031493D01*
X10225888Y-36758651D01*
X9738510Y-36457858D01*
X9300706Y-36178127D01*
X9140430Y-36071881D01*
X8780515Y-35833971D01*
X8432534Y-35611919D01*
X8161058Y-35446764D01*
X8118975Y-35422680D01*
X7816338Y-35227952D01*
X7402099Y-34924845D01*
X6902036Y-34533537D01*
X6341926Y-34074207D01*
X5747548Y-33567031D01*
X5740622Y-33561006D01*
X5056579Y-32965815D01*
X3765067Y-33132737D01*
X3050953Y-33204437D01*
X2192196Y-33257305D01*
X1231357Y-33291343D01*
X210997Y-33306553D01*
X-826323Y-33302936D01*
X-1838044Y-33280492D01*
X-2781604Y-33239223D01*
X-3614443Y-33179131D01*
X-4055801Y-33132511D01*
X-5411082Y-32965937D01*
X-5796171Y-33338049D01*
X-6016471Y-33538862D01*
X-6322071Y-33801250D01*
X-6683978Y-34102111D01*
X-7073203Y-34418346D01*
X-7460754Y-34726854D01*
X-7817639Y-35004537D01*
X-8114869Y-35228292D01*
X-8323451Y-35375021D01*
X-8411735Y-35422132D01*
X-8519238Y-35471717D01*
X-8745500Y-35605682D01*
X-9054222Y-35801837D01*
X-9312832Y-35972917D01*
X-10885931Y-36973305D01*
X-12403595Y-37818836D01*
X-13894549Y-38522929D01*
X-15387516Y-39099004D01*
X-16911224Y-39560478D01*
X-17093853Y-39607862D01*
X-19122629Y-40044922D01*
X-21104874Y-40307211D01*
X-23059430Y-40396384D01*
X-25005137Y-40314098D01*
X-25068391Y-40308570D01*
X-26584509Y-40122533D01*
X-28129454Y-39836278D01*
X-29665723Y-39460858D01*
X-31155810Y-39007324D01*
X-32562208Y-38486729D01*
X-33847414Y-37910124D01*
X-34638668Y-37488418D01*
X-34830374Y-37372763D01*
X-34963594Y-37261143D01*
X-35061749Y-37112122D01*
X-35148260Y-36884266D01*
X-35246546Y-36536139D01*
X-35306822Y-36306331D01*
X-35421137Y-35888589D01*
X-35531331Y-35521504D01*
X-35621854Y-35255214D01*
X-35661932Y-35161491D01*
X-35717789Y-34988873D01*
X-35786389Y-34675299D01*
X-35858692Y-34266695D01*
X-35920457Y-33848218D01*
X-35997687Y-33035471D01*
X-36027183Y-32154640D01*
X-36026263Y-32106021D01*
X-35107175Y-32106021D01*
X-35105590Y-32565871D01*
X-35095389Y-32869560D01*
X-35071294Y-33049047D01*
X-35028031Y-33136288D01*
X-34960323Y-33163242D01*
X-34932460Y-33164354D01*
X-34771267Y-33191224D01*
X-34478278Y-33263646D01*
X-34100738Y-33369338D01*
X-33827090Y-33451696D01*
X-31781387Y-34025185D01*
X-29678500Y-34502075D01*
X-27578865Y-34870414D01*
X-25542925Y-35118250D01*
X-25284091Y-35141162D01*
X-24726571Y-35172427D01*
X-24034273Y-35187090D01*
X-23259737Y-35186203D01*
X-22455501Y-35170819D01*
X-21674107Y-35141989D01*
X-20968094Y-35100767D01*
X-20390001Y-35048203D01*
X-20339408Y-35042137D01*
X-18563192Y-34751692D01*
X-16849790Y-34329998D01*
X-15222938Y-33785141D01*
X-13706373Y-33125207D01*
X-12323829Y-32358282D01*
X-12165072Y-32257522D01*
X-11761381Y-31987950D01*
X-11499783Y-31786987D01*
X-11356856Y-31633767D01*
X-11309181Y-31507421D01*
X-11308746Y-31494540D01*
X-11310191Y-31488724D01*
X11109016Y-31488724D01*
X11272375Y-31698898D01*
X11609080Y-31969359D01*
X11716806Y-32044326D01*
X13108488Y-32884096D01*
X14636336Y-33602863D01*
X16289516Y-34197061D01*
X18057195Y-34663123D01*
X19928539Y-34997482D01*
X21100221Y-35133737D01*
X21662779Y-35169132D01*
X22364524Y-35186331D01*
X23157459Y-35186183D01*
X23993590Y-35169537D01*
X24824921Y-35137243D01*
X25603456Y-35090149D01*
X26133184Y-35044694D01*
X27732457Y-34838666D01*
X29443677Y-34532672D01*
X31225037Y-34135185D01*
X33034728Y-33654680D01*
X33136310Y-33625416D01*
X33616534Y-33492712D01*
X34042372Y-33386615D01*
X34376593Y-33315545D01*
X34581966Y-33287917D01*
X34617977Y-33290426D01*
X34686824Y-33295567D01*
X34734134Y-33249768D01*
X34763905Y-33124703D01*
X34780137Y-32892047D01*
X34786827Y-32523475D01*
X34787999Y-32086018D01*
X34717440Y-30694980D01*
X34502055Y-29353243D01*
X34136281Y-28049516D01*
X33614556Y-26772508D01*
X32931317Y-25510930D01*
X32081001Y-24253491D01*
X31058047Y-22988901D01*
X29856890Y-21705870D01*
X29500485Y-21354030D01*
X28881344Y-20759240D01*
X28376315Y-20293555D01*
X27970721Y-19948920D01*
X27649879Y-19717284D01*
X27399110Y-19590595D01*
X27203734Y-19560799D01*
X27049070Y-19619844D01*
X26920439Y-19759678D01*
X26841124Y-19895299D01*
X26687613Y-20144714D01*
X26485403Y-20418900D01*
X26447946Y-20464427D01*
X26242133Y-20732880D01*
X26066945Y-20999786D01*
X26044715Y-21039137D01*
X25895057Y-21253801D01*
X25630055Y-21571797D01*
X25272872Y-21969113D01*
X24846667Y-22421736D01*
X24374601Y-22905656D01*
X23879835Y-23396859D01*
X23385531Y-23871335D01*
X22914848Y-24305070D01*
X22771402Y-24432748D01*
X20993496Y-25909670D01*
X19186311Y-27227132D01*
X17308057Y-28413406D01*
X15316945Y-29496765D01*
X15196733Y-29557230D01*
X14631337Y-29831691D01*
X14000990Y-30123149D01*
X13345337Y-30414605D01*
X12704022Y-30689056D01*
X12116688Y-30929503D01*
X11622980Y-31118944D01*
X11292999Y-31231312D01*
X11116670Y-31334356D01*
X11109016Y-31488724D01*
X-11310191Y-31488724D01*
X-11349779Y-31329449D01*
X-11418370Y-31282873D01*
X-11590089Y-31244140D01*
X-11903426Y-31135953D01*
X-12330404Y-30970332D01*
X-12843046Y-30759295D01*
X-13413377Y-30514861D01*
X-14013418Y-30249049D01*
X-14615195Y-29973877D01*
X-15190730Y-29701364D01*
X-15712048Y-29443529D01*
X-15776816Y-29410466D01*
X-17684487Y-28357142D01*
X-19520460Y-27193959D01*
X-21265365Y-25936722D01*
X-22899832Y-24601237D01*
X-24404493Y-23203311D01*
X-25759977Y-21758749D01*
X-26924594Y-20313552D01*
X-27148510Y-20025661D01*
X-27366831Y-19767910D01*
X-27474624Y-19653559D01*
X-27695396Y-19438125D01*
X-28556476Y-20174904D01*
X-29223687Y-20773177D01*
X-29926597Y-21451726D01*
X-30626367Y-22169785D01*
X-31284161Y-22886587D01*
X-31861141Y-23561365D01*
X-32225805Y-24026517D01*
X-33129936Y-25349771D01*
X-33855745Y-26656591D01*
X-34409800Y-27965399D01*
X-34798670Y-29294612D01*
X-35028925Y-30662652D01*
X-35107132Y-32087938D01*
X-35107175Y-32106021D01*
X-36026263Y-32106021D01*
X-36010358Y-31266006D01*
X-35948624Y-30429850D01*
X-35843390Y-29706454D01*
X-35820949Y-29597524D01*
X-35407303Y-28117253D01*
X-34813062Y-26640554D01*
X-34045623Y-25178652D01*
X-33112386Y-23742771D01*
X-32020746Y-22344136D01*
X-30778102Y-20993972D01*
X-29391851Y-19703504D01*
X-29182371Y-19524550D01*
X-28878075Y-19262181D01*
X-28632641Y-19040801D01*
X-28479077Y-18890712D01*
X-28444653Y-18847212D01*
X-28481062Y-18742104D01*
X-28603608Y-18512974D01*
X-28793780Y-18192160D01*
X-29033067Y-17812001D01*
X-29068505Y-17757312D01*
X-29588632Y-16916609D01*
X-30065710Y-16053592D01*
X-30524218Y-15120237D01*
X-30988633Y-14068520D01*
X-31165138Y-13643984D01*
X-31374901Y-13136703D01*
X-31534200Y-12772311D01*
X-31662802Y-12519145D01*
X-31780472Y-12345544D01*
X-31906974Y-12219845D01*
X-32062073Y-12110388D01*
X-32160575Y-12049386D01*
X-34121986Y-10779996D01*
X-35900031Y-9473507D01*
X-37496098Y-8128404D01*
X-38911572Y-6743172D01*
X-40147841Y-5316298D01*
X-41206290Y-3846266D01*
X-42088308Y-2331564D01*
X-42795279Y-770675D01*
X-43003038Y-209116D01*
X-43392647Y1136247D01*
X-43466756Y1548979D01*
X-31856163Y1548979D01*
X-31845505Y964755D01*
X-31809174Y406112D01*
X-31741301Y-149564D01*
X-31636018Y-724891D01*
X-31487455Y-1342483D01*
X-31289745Y-2024957D01*
X-31037018Y-2794927D01*
X-30723405Y-3675009D01*
X-30343038Y-4687820D01*
X-30022470Y-5517247D01*
X-29718830Y-6302959D01*
X-29466623Y-6976429D01*
X-29254212Y-7576442D01*
X-29069957Y-8141785D01*
X-28902222Y-8711246D01*
X-28739367Y-9323612D01*
X-28569755Y-10017668D01*
X-28381747Y-10832203D01*
X-28244833Y-11441637D01*
X-27922641Y-12808933D01*
X-27598063Y-14006492D01*
X-27257664Y-15052400D01*
X-26888006Y-15964744D01*
X-26475655Y-16761610D01*
X-26007173Y-17461085D01*
X-25469125Y-18081254D01*
X-24848075Y-18640204D01*
X-24130587Y-19156021D01*
X-23303224Y-19646792D01*
X-22352552Y-20130603D01*
X-21498541Y-20522871D01*
X-20428752Y-21006327D01*
X-19514857Y-21440063D01*
X-18734790Y-21835442D01*
X-18066488Y-22203825D01*
X-17487886Y-22556573D01*
X-17270455Y-22700000D01*
X-16709442Y-23067638D01*
X-16169532Y-23394248D01*
X-15625147Y-23690790D01*
X-15050708Y-23968224D01*
X-14420640Y-24237509D01*
X-13709363Y-24509607D01*
X-12891300Y-24795478D01*
X-11940873Y-25106081D01*
X-10884882Y-25436259D01*
X-9655374Y-25811564D01*
X-8577483Y-26131347D01*
X-7624612Y-26400407D01*
X-6770160Y-26623540D01*
X-5987531Y-26805547D01*
X-5250124Y-26951223D01*
X-4531342Y-27065369D01*
X-3804584Y-27152781D01*
X-3043253Y-27218258D01*
X-2220750Y-27266598D01*
X-1310476Y-27302599D01*
X-395705Y-27328378D01*
X644217Y-27353756D01*
X1517634Y-27374047D01*
X2246122Y-27389252D01*
X2851255Y-27399371D01*
X3354609Y-27404405D01*
X3777759Y-27404355D01*
X4142279Y-27399220D01*
X4469745Y-27389002D01*
X4781732Y-27373700D01*
X5099814Y-27353315D01*
X5436888Y-27328511D01*
X6515292Y-27219061D01*
X7536954Y-27054600D01*
X8522752Y-26826115D01*
X9493564Y-26524593D01*
X10470271Y-26141021D01*
X11473751Y-25666384D01*
X12524882Y-25091671D01*
X13644545Y-24407867D01*
X14853617Y-23605960D01*
X16114295Y-22719190D01*
X16650955Y-22340064D01*
X17293148Y-21897376D01*
X17987042Y-21427574D01*
X18678804Y-20967107D01*
X19312814Y-20553574D01*
X20159761Y-20003199D01*
X20869376Y-19529226D01*
X21466792Y-19113167D01*
X21977142Y-18736532D01*
X22425562Y-18380832D01*
X22837185Y-18027579D01*
X23197541Y-17695909D01*
X24071797Y-16766823D01*
X24794584Y-15770573D01*
X25229454Y-15008058D01*
X25425565Y-14615773D01*
X25599011Y-14236714D01*
X25758586Y-13844104D01*
X25913086Y-13411163D01*
X26071307Y-12911111D01*
X26242043Y-12317171D01*
X26434090Y-11602562D01*
X26656243Y-10740506D01*
X26741028Y-10405767D01*
X26980963Y-9462870D01*
X27189871Y-8671774D01*
X27380908Y-8001390D01*
X27567230Y-7420633D01*
X27761991Y-6898415D01*
X27978348Y-6403649D01*
X28229456Y-5905249D01*
X28528471Y-5372127D01*
X28888549Y-4773197D01*
X29322845Y-4077371D01*
X29613869Y-3617238D01*
X30169173Y-2720448D01*
X30618285Y-1936010D01*
X30970846Y-1228011D01*
X31236496Y-560540D01*
X31424877Y102318D01*
X31545630Y796473D01*
X31608395Y1557840D01*
X31622813Y2422331D01*
X31598525Y3425858D01*
X31586367Y3730387D01*
X31487446Y5431185D01*
X31341238Y6996227D01*
X31149479Y8410992D01*
X30913905Y9660960D01*
X30838251Y9988034D01*
X30656169Y10696395D01*
X30463959Y11339767D01*
X30249345Y11939160D01*
X30000051Y12515587D01*
X29703804Y13090058D01*
X29348327Y13683584D01*
X28921346Y14317177D01*
X28410584Y15011849D01*
X27803768Y15788609D01*
X27088621Y16668470D01*
X26570810Y17292511D01*
X26143820Y17806690D01*
X25736375Y18302060D01*
X25371152Y18750684D01*
X25070832Y19124625D01*
X24858094Y19395947D01*
X24793775Y19481491D01*
X24377804Y19981584D01*
X23844023Y20520159D01*
X23242763Y21051266D01*
X22624353Y21528955D01*
X22333758Y21727369D01*
X22015829Y21923867D01*
X21569709Y22185637D01*
X21033947Y22490785D01*
X20447090Y22817417D01*
X19847686Y23143640D01*
X19714839Y23214849D01*
X18865379Y23673916D01*
X18152807Y24075371D01*
X17546816Y24443302D01*
X17017104Y24801794D01*
X16533365Y25174934D01*
X16065295Y25586808D01*
X15582590Y26061502D01*
X15054944Y26623104D01*
X14452055Y27295698D01*
X14152939Y27635514D01*
X13355327Y28524920D01*
X12640702Y29272114D01*
X11986578Y29890689D01*
X11370469Y30394236D01*
X10769887Y30796348D01*
X10162347Y31110618D01*
X9525362Y31350637D01*
X8836445Y31529999D01*
X8073110Y31662294D01*
X7349743Y31747815D01*
X7034606Y31776038D01*
X6724588Y31795175D01*
X6397309Y31804396D01*
X6030384Y31802872D01*
X5601431Y31789773D01*
X5088068Y31764270D01*
X4467912Y31725533D01*
X3718581Y31672733D01*
X2817691Y31605040D01*
X2191332Y31556637D01*
X1551082Y31512910D01*
X930864Y31484835D01*
X298284Y31472771D01*
X-379051Y31477075D01*
X-1133534Y31498104D01*
X-1997558Y31536217D01*
X-3003517Y31591771D01*
X-3453112Y31618969D01*
X-4288413Y31668152D01*
X-4969885Y31702077D01*
X-5531193Y31721161D01*
X-6006003Y31725822D01*
X-6427979Y31716476D01*
X-6830787Y31693540D01*
X-7169038Y31665013D01*
X-7998340Y31570328D01*
X-8746922Y31443345D01*
X-9436244Y31272258D01*
X-10087767Y31045261D01*
X-10722953Y30750548D01*
X-11363261Y30376314D01*
X-12030153Y29910752D01*
X-12745089Y29342056D01*
X-13529529Y28658422D01*
X-14404936Y27848042D01*
X-14811382Y27460825D01*
X-15587530Y26737372D01*
X-16367702Y26048970D01*
X-17109242Y25432255D01*
X-17741247Y24944543D01*
X-18994256Y24007965D01*
X-20094956Y23148860D01*
X-21056681Y22355476D01*
X-21892766Y21616056D01*
X-22616546Y20918847D01*
X-23241354Y20252093D01*
X-23738051Y19658238D01*
X-24269844Y18978751D01*
X-24821910Y18264880D01*
X-25375768Y17541192D01*
X-25912940Y16832257D01*
X-26414947Y16162641D01*
X-26863311Y15556912D01*
X-27239552Y15039637D01*
X-27525191Y14635385D01*
X-27611605Y14508343D01*
X-27921628Y14032856D01*
X-28195810Y13581666D01*
X-28446524Y13127671D01*
X-28686139Y12643773D01*
X-28927028Y12102871D01*
X-29181563Y11477866D01*
X-29462113Y10741657D01*
X-29781052Y9867146D01*
X-29963200Y9357127D01*
X-30386265Y8153267D01*
X-30743831Y7102887D01*
X-31040975Y6185056D01*
X-31282770Y5378843D01*
X-31474290Y4663317D01*
X-31620611Y4017547D01*
X-31726806Y3420602D01*
X-31797950Y2851551D01*
X-31839117Y2289463D01*
X-31855381Y1713407D01*
X-31856163Y1548979D01*
X-43466756Y1548979D01*
X-43639369Y2510304D01*
X-43745612Y3890914D01*
X-43713787Y5255933D01*
X-43546305Y6583222D01*
X-43245576Y7850637D01*
X-42814010Y9036038D01*
X-42254018Y10117283D01*
X-41807480Y10773338D01*
X-40996027Y11688111D01*
X-40042354Y12486499D01*
X-38954989Y13164700D01*
X-37742457Y13718917D01*
X-36413283Y14145349D01*
X-34975995Y14440195D01*
X-33439118Y14599657D01*
X-33194386Y14611931D01*
X-31797142Y14672312D01*
X-31428497Y15660090D01*
X-30695702Y17412684D01*
X-29822197Y19113182D01*
X-28798828Y20775168D01*
X-27616442Y22412227D01*
X-26265885Y24037944D01*
X-24738006Y25665903D01*
X-24579839Y25824628D01*
X-23629208Y26751596D01*
X-22746231Y27561963D01*
X-21888117Y28291446D01*
X-21012074Y28975765D01*
X-20075311Y29650638D01*
X-19633853Y29953132D01*
X-17548965Y31267753D01*
X-15430446Y32411765D01*
X-13261610Y33391369D01*
X-11025768Y34212767D01*
X-8706231Y34882160D01*
X-6286313Y35405749D01*
X-4017557Y35756323D01*
X-3395506Y35818232D01*
X-2630125Y35866833D01*
X-1762484Y35901841D01*
X-833650Y35922971D01*
X115306Y35929940D01*
X1043315Y35922462D01*
X1043315Y35922462D01*
G37*
X1043315Y35922462D02*
X1909308Y35900254D01*
X2672216Y35863030D01*
X3290968Y35810507D01*
X3320221Y35807143D01*
X5900884Y35423112D01*
X8378357Y34885665D01*
X10762185Y34192021D01*
X13061912Y33339398D01*
X15287084Y32325016D01*
X15311123Y32312977D01*
X17561165Y31081029D01*
X19701002Y29697461D01*
X21725896Y28166462D01*
X23631112Y26492219D01*
X25411911Y24678922D01*
X27063556Y22730760D01*
X28581311Y20651919D01*
X28700818Y20474084D01*
X29210315Y19651690D01*
X29735844Y18696031D01*
X30253117Y17657619D01*
X30737844Y16586966D01*
X31165738Y15534584D01*
X31433999Y14789905D01*
X31484186Y14712588D01*
X31595556Y14663648D01*
X31803934Y14636965D01*
X32145144Y14626417D01*
X32397603Y14625275D01*
X33650070Y14558255D01*
X34930396Y14365177D01*
X36193051Y14058015D01*
X37392506Y13648741D01*
X38483231Y13149329D01*
X38897259Y12915998D01*
X39573897Y12453088D01*
X40256154Y11886940D01*
X40871390Y11280681D01*
X41152155Y10956398D01*
X41844080Y9952357D01*
X42398281Y8837196D01*
X42814036Y7628750D01*
X43090624Y6344855D01*
X43227326Y5003346D01*
X43223421Y3622058D01*
X43078187Y2218826D01*
X42790904Y811487D01*
X42360853Y-582126D01*
X41787311Y-1944175D01*
X41682035Y-2158271D01*
X40848405Y-3626707D01*
X39838066Y-5069399D01*
X38661875Y-6475386D01*
X37330691Y-7833705D01*
X35855372Y-9133394D01*
X34246774Y-10363491D01*
X32515755Y-11513033D01*
X32263526Y-11667363D01*
X31479423Y-12142237D01*
X31031685Y-13269407D01*
X30389652Y-14784481D01*
X29735756Y-16124656D01*
X29063394Y-17303108D01*
X28817370Y-17687546D01*
X28558448Y-18087933D01*
X28345127Y-18433705D01*
X28195457Y-18694354D01*
X28127487Y-18839373D01*
X28125904Y-18856287D01*
X28207849Y-18947624D01*
X28400060Y-19124332D01*
X28666375Y-19353634D01*
X28767258Y-19437653D01*
X30091761Y-20623811D01*
X31341662Y-21925351D01*
X32475410Y-23296622D01*
X33203392Y-24311816D01*
X33952338Y-25520030D01*
X34555518Y-26704776D01*
X35038051Y-27921313D01*
X35410014Y-29166206D01*
X35506514Y-29554250D01*
X35576667Y-29886062D01*
X35624681Y-30205019D01*
X35654767Y-30554499D01*
X35671133Y-30977877D01*
X35677989Y-31518531D01*
X35679323Y-31941391D01*
X35681703Y-33681762D01*
X35224442Y-35473022D01*
X34767182Y-37264283D01*
X34142590Y-37604254D01*
X32926266Y-38200570D01*
X31563746Y-38750973D01*
X30093932Y-39243279D01*
X28555730Y-39665303D01*
X26988041Y-40004861D01*
X25897999Y-40186373D01*
X25231846Y-40260384D01*
X24434017Y-40312803D01*
X23551369Y-40343604D01*
X22630761Y-40352762D01*
X21719051Y-40340251D01*
X20863099Y-40306045D01*
X20109762Y-40250117D01*
X19613363Y-40189855D01*
X18490893Y-39990333D01*
X17336347Y-39732792D01*
X16183445Y-39427911D01*
X15065908Y-39086372D01*
X14017456Y-38718856D01*
X13071809Y-38336045D01*
X12262689Y-37948620D01*
X11906961Y-37748800D01*
X11675322Y-37611441D01*
X11334552Y-37411210D01*
X10938305Y-37179576D01*
X10683998Y-37031493D01*
X10225888Y-36758651D01*
X9738510Y-36457858D01*
X9300706Y-36178127D01*
X9140430Y-36071881D01*
X8780515Y-35833971D01*
X8432534Y-35611919D01*
X8161058Y-35446764D01*
X8118975Y-35422680D01*
X7816338Y-35227952D01*
X7402099Y-34924845D01*
X6902036Y-34533537D01*
X6341926Y-34074207D01*
X5747548Y-33567031D01*
X5740622Y-33561006D01*
X5056579Y-32965815D01*
X3765067Y-33132737D01*
X3050953Y-33204437D01*
X2192196Y-33257305D01*
X1231357Y-33291343D01*
X210997Y-33306553D01*
X-826323Y-33302936D01*
X-1838044Y-33280492D01*
X-2781604Y-33239223D01*
X-3614443Y-33179131D01*
X-4055801Y-33132511D01*
X-5411082Y-32965937D01*
X-5796171Y-33338049D01*
X-6016471Y-33538862D01*
X-6322071Y-33801250D01*
X-6683978Y-34102111D01*
X-7073203Y-34418346D01*
X-7460754Y-34726854D01*
X-7817639Y-35004537D01*
X-8114869Y-35228292D01*
X-8323451Y-35375021D01*
X-8411735Y-35422132D01*
X-8519238Y-35471717D01*
X-8745500Y-35605682D01*
X-9054222Y-35801837D01*
X-9312832Y-35972917D01*
X-10885931Y-36973305D01*
X-12403595Y-37818836D01*
X-13894549Y-38522929D01*
X-15387516Y-39099004D01*
X-16911224Y-39560478D01*
X-17093853Y-39607862D01*
X-19122629Y-40044922D01*
X-21104874Y-40307211D01*
X-23059430Y-40396384D01*
X-25005137Y-40314098D01*
X-25068391Y-40308570D01*
X-26584509Y-40122533D01*
X-28129454Y-39836278D01*
X-29665723Y-39460858D01*
X-31155810Y-39007324D01*
X-32562208Y-38486729D01*
X-33847414Y-37910124D01*
X-34638668Y-37488418D01*
X-34830374Y-37372763D01*
X-34963594Y-37261143D01*
X-35061749Y-37112122D01*
X-35148260Y-36884266D01*
X-35246546Y-36536139D01*
X-35306822Y-36306331D01*
X-35421137Y-35888589D01*
X-35531331Y-35521504D01*
X-35621854Y-35255214D01*
X-35661932Y-35161491D01*
X-35717789Y-34988873D01*
X-35786389Y-34675299D01*
X-35858692Y-34266695D01*
X-35920457Y-33848218D01*
X-35997687Y-33035471D01*
X-36027183Y-32154640D01*
X-36026263Y-32106021D01*
X-35107175Y-32106021D01*
X-35105590Y-32565871D01*
X-35095389Y-32869560D01*
X-35071294Y-33049047D01*
X-35028031Y-33136288D01*
X-34960323Y-33163242D01*
X-34932460Y-33164354D01*
X-34771267Y-33191224D01*
X-34478278Y-33263646D01*
X-34100738Y-33369338D01*
X-33827090Y-33451696D01*
X-31781387Y-34025185D01*
X-29678500Y-34502075D01*
X-27578865Y-34870414D01*
X-25542925Y-35118250D01*
X-25284091Y-35141162D01*
X-24726571Y-35172427D01*
X-24034273Y-35187090D01*
X-23259737Y-35186203D01*
X-22455501Y-35170819D01*
X-21674107Y-35141989D01*
X-20968094Y-35100767D01*
X-20390001Y-35048203D01*
X-20339408Y-35042137D01*
X-18563192Y-34751692D01*
X-16849790Y-34329998D01*
X-15222938Y-33785141D01*
X-13706373Y-33125207D01*
X-12323829Y-32358282D01*
X-12165072Y-32257522D01*
X-11761381Y-31987950D01*
X-11499783Y-31786987D01*
X-11356856Y-31633767D01*
X-11309181Y-31507421D01*
X-11308746Y-31494540D01*
X-11310191Y-31488724D01*
X11109016Y-31488724D01*
X11272375Y-31698898D01*
X11609080Y-31969359D01*
X11716806Y-32044326D01*
X13108488Y-32884096D01*
X14636336Y-33602863D01*
X16289516Y-34197061D01*
X18057195Y-34663123D01*
X19928539Y-34997482D01*
X21100221Y-35133737D01*
X21662779Y-35169132D01*
X22364524Y-35186331D01*
X23157459Y-35186183D01*
X23993590Y-35169537D01*
X24824921Y-35137243D01*
X25603456Y-35090149D01*
X26133184Y-35044694D01*
X27732457Y-34838666D01*
X29443677Y-34532672D01*
X31225037Y-34135185D01*
X33034728Y-33654680D01*
X33136310Y-33625416D01*
X33616534Y-33492712D01*
X34042372Y-33386615D01*
X34376593Y-33315545D01*
X34581966Y-33287917D01*
X34617977Y-33290426D01*
X34686824Y-33295567D01*
X34734134Y-33249768D01*
X34763905Y-33124703D01*
X34780137Y-32892047D01*
X34786827Y-32523475D01*
X34787999Y-32086018D01*
X34717440Y-30694980D01*
X34502055Y-29353243D01*
X34136281Y-28049516D01*
X33614556Y-26772508D01*
X32931317Y-25510930D01*
X32081001Y-24253491D01*
X31058047Y-22988901D01*
X29856890Y-21705870D01*
X29500485Y-21354030D01*
X28881344Y-20759240D01*
X28376315Y-20293555D01*
X27970721Y-19948920D01*
X27649879Y-19717284D01*
X27399110Y-19590595D01*
X27203734Y-19560799D01*
X27049070Y-19619844D01*
X26920439Y-19759678D01*
X26841124Y-19895299D01*
X26687613Y-20144714D01*
X26485403Y-20418900D01*
X26447946Y-20464427D01*
X26242133Y-20732880D01*
X26066945Y-20999786D01*
X26044715Y-21039137D01*
X25895057Y-21253801D01*
X25630055Y-21571797D01*
X25272872Y-21969113D01*
X24846667Y-22421736D01*
X24374601Y-22905656D01*
X23879835Y-23396859D01*
X23385531Y-23871335D01*
X22914848Y-24305070D01*
X22771402Y-24432748D01*
X20993496Y-25909670D01*
X19186311Y-27227132D01*
X17308057Y-28413406D01*
X15316945Y-29496765D01*
X15196733Y-29557230D01*
X14631337Y-29831691D01*
X14000990Y-30123149D01*
X13345337Y-30414605D01*
X12704022Y-30689056D01*
X12116688Y-30929503D01*
X11622980Y-31118944D01*
X11292999Y-31231312D01*
X11116670Y-31334356D01*
X11109016Y-31488724D01*
X-11310191Y-31488724D01*
X-11349779Y-31329449D01*
X-11418370Y-31282873D01*
X-11590089Y-31244140D01*
X-11903426Y-31135953D01*
X-12330404Y-30970332D01*
X-12843046Y-30759295D01*
X-13413377Y-30514861D01*
X-14013418Y-30249049D01*
X-14615195Y-29973877D01*
X-15190730Y-29701364D01*
X-15712048Y-29443529D01*
X-15776816Y-29410466D01*
X-17684487Y-28357142D01*
X-19520460Y-27193959D01*
X-21265365Y-25936722D01*
X-22899832Y-24601237D01*
X-24404493Y-23203311D01*
X-25759977Y-21758749D01*
X-26924594Y-20313552D01*
X-27148510Y-20025661D01*
X-27366831Y-19767910D01*
X-27474624Y-19653559D01*
X-27695396Y-19438125D01*
X-28556476Y-20174904D01*
X-29223687Y-20773177D01*
X-29926597Y-21451726D01*
X-30626367Y-22169785D01*
X-31284161Y-22886587D01*
X-31861141Y-23561365D01*
X-32225805Y-24026517D01*
X-33129936Y-25349771D01*
X-33855745Y-26656591D01*
X-34409800Y-27965399D01*
X-34798670Y-29294612D01*
X-35028925Y-30662652D01*
X-35107132Y-32087938D01*
X-35107175Y-32106021D01*
X-36026263Y-32106021D01*
X-36010358Y-31266006D01*
X-35948624Y-30429850D01*
X-35843390Y-29706454D01*
X-35820949Y-29597524D01*
X-35407303Y-28117253D01*
X-34813062Y-26640554D01*
X-34045623Y-25178652D01*
X-33112386Y-23742771D01*
X-32020746Y-22344136D01*
X-30778102Y-20993972D01*
X-29391851Y-19703504D01*
X-29182371Y-19524550D01*
X-28878075Y-19262181D01*
X-28632641Y-19040801D01*
X-28479077Y-18890712D01*
X-28444653Y-18847212D01*
X-28481062Y-18742104D01*
X-28603608Y-18512974D01*
X-28793780Y-18192160D01*
X-29033067Y-17812001D01*
X-29068505Y-17757312D01*
X-29588632Y-16916609D01*
X-30065710Y-16053592D01*
X-30524218Y-15120237D01*
X-30988633Y-14068520D01*
X-31165138Y-13643984D01*
X-31374901Y-13136703D01*
X-31534200Y-12772311D01*
X-31662802Y-12519145D01*
X-31780472Y-12345544D01*
X-31906974Y-12219845D01*
X-32062073Y-12110388D01*
X-32160575Y-12049386D01*
X-34121986Y-10779996D01*
X-35900031Y-9473507D01*
X-37496098Y-8128404D01*
X-38911572Y-6743172D01*
X-40147841Y-5316298D01*
X-41206290Y-3846266D01*
X-42088308Y-2331564D01*
X-42795279Y-770675D01*
X-43003038Y-209116D01*
X-43392647Y1136247D01*
X-43466756Y1548979D01*
X-31856163Y1548979D01*
X-31845505Y964755D01*
X-31809174Y406112D01*
X-31741301Y-149564D01*
X-31636018Y-724891D01*
X-31487455Y-1342483D01*
X-31289745Y-2024957D01*
X-31037018Y-2794927D01*
X-30723405Y-3675009D01*
X-30343038Y-4687820D01*
X-30022470Y-5517247D01*
X-29718830Y-6302959D01*
X-29466623Y-6976429D01*
X-29254212Y-7576442D01*
X-29069957Y-8141785D01*
X-28902222Y-8711246D01*
X-28739367Y-9323612D01*
X-28569755Y-10017668D01*
X-28381747Y-10832203D01*
X-28244833Y-11441637D01*
X-27922641Y-12808933D01*
X-27598063Y-14006492D01*
X-27257664Y-15052400D01*
X-26888006Y-15964744D01*
X-26475655Y-16761610D01*
X-26007173Y-17461085D01*
X-25469125Y-18081254D01*
X-24848075Y-18640204D01*
X-24130587Y-19156021D01*
X-23303224Y-19646792D01*
X-22352552Y-20130603D01*
X-21498541Y-20522871D01*
X-20428752Y-21006327D01*
X-19514857Y-21440063D01*
X-18734790Y-21835442D01*
X-18066488Y-22203825D01*
X-17487886Y-22556573D01*
X-17270455Y-22700000D01*
X-16709442Y-23067638D01*
X-16169532Y-23394248D01*
X-15625147Y-23690790D01*
X-15050708Y-23968224D01*
X-14420640Y-24237509D01*
X-13709363Y-24509607D01*
X-12891300Y-24795478D01*
X-11940873Y-25106081D01*
X-10884882Y-25436259D01*
X-9655374Y-25811564D01*
X-8577483Y-26131347D01*
X-7624612Y-26400407D01*
X-6770160Y-26623540D01*
X-5987531Y-26805547D01*
X-5250124Y-26951223D01*
X-4531342Y-27065369D01*
X-3804584Y-27152781D01*
X-3043253Y-27218258D01*
X-2220750Y-27266598D01*
X-1310476Y-27302599D01*
X-395705Y-27328378D01*
X644217Y-27353756D01*
X1517634Y-27374047D01*
X2246122Y-27389252D01*
X2851255Y-27399371D01*
X3354609Y-27404405D01*
X3777759Y-27404355D01*
X4142279Y-27399220D01*
X4469745Y-27389002D01*
X4781732Y-27373700D01*
X5099814Y-27353315D01*
X5436888Y-27328511D01*
X6515292Y-27219061D01*
X7536954Y-27054600D01*
X8522752Y-26826115D01*
X9493564Y-26524593D01*
X10470271Y-26141021D01*
X11473751Y-25666384D01*
X12524882Y-25091671D01*
X13644545Y-24407867D01*
X14853617Y-23605960D01*
X16114295Y-22719190D01*
X16650955Y-22340064D01*
X17293148Y-21897376D01*
X17987042Y-21427574D01*
X18678804Y-20967107D01*
X19312814Y-20553574D01*
X20159761Y-20003199D01*
X20869376Y-19529226D01*
X21466792Y-19113167D01*
X21977142Y-18736532D01*
X22425562Y-18380832D01*
X22837185Y-18027579D01*
X23197541Y-17695909D01*
X24071797Y-16766823D01*
X24794584Y-15770573D01*
X25229454Y-15008058D01*
X25425565Y-14615773D01*
X25599011Y-14236714D01*
X25758586Y-13844104D01*
X25913086Y-13411163D01*
X26071307Y-12911111D01*
X26242043Y-12317171D01*
X26434090Y-11602562D01*
X26656243Y-10740506D01*
X26741028Y-10405767D01*
X26980963Y-9462870D01*
X27189871Y-8671774D01*
X27380908Y-8001390D01*
X27567230Y-7420633D01*
X27761991Y-6898415D01*
X27978348Y-6403649D01*
X28229456Y-5905249D01*
X28528471Y-5372127D01*
X28888549Y-4773197D01*
X29322845Y-4077371D01*
X29613869Y-3617238D01*
X30169173Y-2720448D01*
X30618285Y-1936010D01*
X30970846Y-1228011D01*
X31236496Y-560540D01*
X31424877Y102318D01*
X31545630Y796473D01*
X31608395Y1557840D01*
X31622813Y2422331D01*
X31598525Y3425858D01*
X31586367Y3730387D01*
X31487446Y5431185D01*
X31341238Y6996227D01*
X31149479Y8410992D01*
X30913905Y9660960D01*
X30838251Y9988034D01*
X30656169Y10696395D01*
X30463959Y11339767D01*
X30249345Y11939160D01*
X30000051Y12515587D01*
X29703804Y13090058D01*
X29348327Y13683584D01*
X28921346Y14317177D01*
X28410584Y15011849D01*
X27803768Y15788609D01*
X27088621Y16668470D01*
X26570810Y17292511D01*
X26143820Y17806690D01*
X25736375Y18302060D01*
X25371152Y18750684D01*
X25070832Y19124625D01*
X24858094Y19395947D01*
X24793775Y19481491D01*
X24377804Y19981584D01*
X23844023Y20520159D01*
X23242763Y21051266D01*
X22624353Y21528955D01*
X22333758Y21727369D01*
X22015829Y21923867D01*
X21569709Y22185637D01*
X21033947Y22490785D01*
X20447090Y22817417D01*
X19847686Y23143640D01*
X19714839Y23214849D01*
X18865379Y23673916D01*
X18152807Y24075371D01*
X17546816Y24443302D01*
X17017104Y24801794D01*
X16533365Y25174934D01*
X16065295Y25586808D01*
X15582590Y26061502D01*
X15054944Y26623104D01*
X14452055Y27295698D01*
X14152939Y27635514D01*
X13355327Y28524920D01*
X12640702Y29272114D01*
X11986578Y29890689D01*
X11370469Y30394236D01*
X10769887Y30796348D01*
X10162347Y31110618D01*
X9525362Y31350637D01*
X8836445Y31529999D01*
X8073110Y31662294D01*
X7349743Y31747815D01*
X7034606Y31776038D01*
X6724588Y31795175D01*
X6397309Y31804396D01*
X6030384Y31802872D01*
X5601431Y31789773D01*
X5088068Y31764270D01*
X4467912Y31725533D01*
X3718581Y31672733D01*
X2817691Y31605040D01*
X2191332Y31556637D01*
X1551082Y31512910D01*
X930864Y31484835D01*
X298284Y31472771D01*
X-379051Y31477075D01*
X-1133534Y31498104D01*
X-1997558Y31536217D01*
X-3003517Y31591771D01*
X-3453112Y31618969D01*
X-4288413Y31668152D01*
X-4969885Y31702077D01*
X-5531193Y31721161D01*
X-6006003Y31725822D01*
X-6427979Y31716476D01*
X-6830787Y31693540D01*
X-7169038Y31665013D01*
X-7998340Y31570328D01*
X-8746922Y31443345D01*
X-9436244Y31272258D01*
X-10087767Y31045261D01*
X-10722953Y30750548D01*
X-11363261Y30376314D01*
X-12030153Y29910752D01*
X-12745089Y29342056D01*
X-13529529Y28658422D01*
X-14404936Y27848042D01*
X-14811382Y27460825D01*
X-15587530Y26737372D01*
X-16367702Y26048970D01*
X-17109242Y25432255D01*
X-17741247Y24944543D01*
X-18994256Y24007965D01*
X-20094956Y23148860D01*
X-21056681Y22355476D01*
X-21892766Y21616056D01*
X-22616546Y20918847D01*
X-23241354Y20252093D01*
X-23738051Y19658238D01*
X-24269844Y18978751D01*
X-24821910Y18264880D01*
X-25375768Y17541192D01*
X-25912940Y16832257D01*
X-26414947Y16162641D01*
X-26863311Y15556912D01*
X-27239552Y15039637D01*
X-27525191Y14635385D01*
X-27611605Y14508343D01*
X-27921628Y14032856D01*
X-28195810Y13581666D01*
X-28446524Y13127671D01*
X-28686139Y12643773D01*
X-28927028Y12102871D01*
X-29181563Y11477866D01*
X-29462113Y10741657D01*
X-29781052Y9867146D01*
X-29963200Y9357127D01*
X-30386265Y8153267D01*
X-30743831Y7102887D01*
X-31040975Y6185056D01*
X-31282770Y5378843D01*
X-31474290Y4663317D01*
X-31620611Y4017547D01*
X-31726806Y3420602D01*
X-31797950Y2851551D01*
X-31839117Y2289463D01*
X-31855381Y1713407D01*
X-31856163Y1548979D01*
X-43466756Y1548979D01*
X-43639369Y2510304D01*
X-43745612Y3890914D01*
X-43713787Y5255933D01*
X-43546305Y6583222D01*
X-43245576Y7850637D01*
X-42814010Y9036038D01*
X-42254018Y10117283D01*
X-41807480Y10773338D01*
X-40996027Y11688111D01*
X-40042354Y12486499D01*
X-38954989Y13164700D01*
X-37742457Y13718917D01*
X-36413283Y14145349D01*
X-34975995Y14440195D01*
X-33439118Y14599657D01*
X-33194386Y14611931D01*
X-31797142Y14672312D01*
X-31428497Y15660090D01*
X-30695702Y17412684D01*
X-29822197Y19113182D01*
X-28798828Y20775168D01*
X-27616442Y22412227D01*
X-26265885Y24037944D01*
X-24738006Y25665903D01*
X-24579839Y25824628D01*
X-23629208Y26751596D01*
X-22746231Y27561963D01*
X-21888117Y28291446D01*
X-21012074Y28975765D01*
X-20075311Y29650638D01*
X-19633853Y29953132D01*
X-17548965Y31267753D01*
X-15430446Y32411765D01*
X-13261610Y33391369D01*
X-11025768Y34212767D01*
X-8706231Y34882160D01*
X-6286313Y35405749D01*
X-4017557Y35756323D01*
X-3395506Y35818232D01*
X-2630125Y35866833D01*
X-1762484Y35901841D01*
X-833650Y35922971D01*
X115306Y35929940D01*
X1043315Y35922462D01*
G36*
X16584666Y19583198D02*
X17194144Y19550902D01*
X17753934Y19500656D01*
X18213900Y19437750D01*
X18466147Y19384653D01*
X19308270Y19086597D01*
X20101154Y18671258D01*
X20811054Y18163132D01*
X21404227Y17586711D01*
X21846929Y16966490D01*
X21879506Y16906983D01*
X22253489Y16042717D01*
X22525716Y15070900D01*
X22687842Y14047303D01*
X22731520Y13027698D01*
X22648402Y12067857D01*
X22624196Y11930973D01*
X22338409Y10832098D01*
X21925399Y9871821D01*
X21385095Y9050062D01*
X20717424Y8366737D01*
X19922314Y7821764D01*
X18999694Y7415061D01*
X18542719Y7277088D01*
X17952269Y7160690D01*
X17239649Y7081141D01*
X16467585Y7040466D01*
X15698805Y7040694D01*
X14996035Y7083850D01*
X14538896Y7147697D01*
X13484377Y7427883D01*
X12555254Y7844053D01*
X11755091Y8393669D01*
X11087447Y9074193D01*
X10555886Y9883090D01*
X10474296Y10043429D01*
X10089597Y11010654D01*
X9859581Y12029990D01*
X9780991Y13123952D01*
X9850571Y14315055D01*
X9853222Y14338047D01*
X10015499Y15307485D01*
X10270280Y16143159D01*
X10635458Y16884027D01*
X11128925Y17569045D01*
X11544341Y18020284D01*
X12208108Y18581716D01*
X12957082Y19014723D01*
X13806433Y19324008D01*
X14771331Y19514277D01*
X15866947Y19590232D01*
X16584666Y19583198D01*
X16584666Y19583198D01*
G37*
X16584666Y19583198D02*
X17194144Y19550902D01*
X17753934Y19500656D01*
X18213900Y19437750D01*
X18466147Y19384653D01*
X19308270Y19086597D01*
X20101154Y18671258D01*
X20811054Y18163132D01*
X21404227Y17586711D01*
X21846929Y16966490D01*
X21879506Y16906983D01*
X22253489Y16042717D01*
X22525716Y15070900D01*
X22687842Y14047303D01*
X22731520Y13027698D01*
X22648402Y12067857D01*
X22624196Y11930973D01*
X22338409Y10832098D01*
X21925399Y9871821D01*
X21385095Y9050062D01*
X20717424Y8366737D01*
X19922314Y7821764D01*
X18999694Y7415061D01*
X18542719Y7277088D01*
X17952269Y7160690D01*
X17239649Y7081141D01*
X16467585Y7040466D01*
X15698805Y7040694D01*
X14996035Y7083850D01*
X14538896Y7147697D01*
X13484377Y7427883D01*
X12555254Y7844053D01*
X11755091Y8393669D01*
X11087447Y9074193D01*
X10555886Y9883090D01*
X10474296Y10043429D01*
X10089597Y11010654D01*
X9859581Y12029990D01*
X9780991Y13123952D01*
X9850571Y14315055D01*
X9853222Y14338047D01*
X10015499Y15307485D01*
X10270280Y16143159D01*
X10635458Y16884027D01*
X11128925Y17569045D01*
X11544341Y18020284D01*
X12208108Y18581716D01*
X12957082Y19014723D01*
X13806433Y19324008D01*
X14771331Y19514277D01*
X15866947Y19590232D01*
X16584666Y19583198D01*
G36*
X-14345064Y20573354D02*
X-13707702Y20499938D01*
X-13154904Y20384981D01*
X-12635367Y20217269D01*
X-12097786Y19985587D01*
X-11985985Y19931758D01*
X-11175291Y19444623D01*
X-10496057Y18835398D01*
X-9941445Y18095252D01*
X-9504615Y17215352D01*
X-9224735Y16365646D01*
X-9109981Y15787756D01*
X-9036886Y15101753D01*
X-9006230Y14366150D01*
X-9018792Y13639460D01*
X-9075354Y12980195D01*
X-9172701Y12461572D01*
X-9534775Y11416759D01*
X-10022754Y10510652D01*
X-10635388Y9744553D01*
X-11371428Y9119762D01*
X-12229623Y8637579D01*
X-13160244Y8311902D01*
X-13750694Y8195505D01*
X-14463314Y8115956D01*
X-15235378Y8075281D01*
X-16004158Y8075509D01*
X-16706928Y8118665D01*
X-17164067Y8182512D01*
X-18223697Y8464866D01*
X-19156567Y8885932D01*
X-19961328Y9444474D01*
X-20636630Y10139253D01*
X-21181126Y10969031D01*
X-21593468Y11932572D01*
X-21724417Y12367497D01*
X-21808182Y12819393D01*
X-21862258Y13403871D01*
X-21886743Y14067740D01*
X-21881736Y14757806D01*
X-21847336Y15420877D01*
X-21783642Y16003760D01*
X-21717026Y16354989D01*
X-21430220Y17198967D01*
X-21002662Y18004979D01*
X-20460948Y18738844D01*
X-19831674Y19366377D01*
X-19141437Y19853394D01*
X-18894876Y19982191D01*
X-18059095Y20306600D01*
X-17145685Y20516294D01*
X-16126517Y20615996D01*
X-15118297Y20616443D01*
X-14345064Y20573354D01*
X-14345064Y20573354D01*
G37*
X-14345064Y20573354D02*
X-13707702Y20499938D01*
X-13154904Y20384981D01*
X-12635367Y20217269D01*
X-12097786Y19985587D01*
X-11985985Y19931758D01*
X-11175291Y19444623D01*
X-10496057Y18835398D01*
X-9941445Y18095252D01*
X-9504615Y17215352D01*
X-9224735Y16365646D01*
X-9109981Y15787756D01*
X-9036886Y15101753D01*
X-9006230Y14366150D01*
X-9018792Y13639460D01*
X-9075354Y12980195D01*
X-9172701Y12461572D01*
X-9534775Y11416759D01*
X-10022754Y10510652D01*
X-10635388Y9744553D01*
X-11371428Y9119762D01*
X-12229623Y8637579D01*
X-13160244Y8311902D01*
X-13750694Y8195505D01*
X-14463314Y8115956D01*
X-15235378Y8075281D01*
X-16004158Y8075509D01*
X-16706928Y8118665D01*
X-17164067Y8182512D01*
X-18223697Y8464866D01*
X-19156567Y8885932D01*
X-19961328Y9444474D01*
X-20636630Y10139253D01*
X-21181126Y10969031D01*
X-21593468Y11932572D01*
X-21724417Y12367497D01*
X-21808182Y12819393D01*
X-21862258Y13403871D01*
X-21886743Y14067740D01*
X-21881736Y14757806D01*
X-21847336Y15420877D01*
X-21783642Y16003760D01*
X-21717026Y16354989D01*
X-21430220Y17198967D01*
X-21002662Y18004979D01*
X-20460948Y18738844D01*
X-19831674Y19366377D01*
X-19141437Y19853394D01*
X-18894876Y19982191D01*
X-18059095Y20306600D01*
X-17145685Y20516294D01*
X-16126517Y20615996D01*
X-15118297Y20616443D01*
X-14345064Y20573354D01*
D12*
X-5780000Y20350000D03*
X-5780000Y21850000D03*
X9140000Y18750000D03*
X9140000Y20250000D03*
X7300000Y19925000D03*
X7300000Y21425000D03*
D13*
X-8740000Y19555000D03*
X-7240000Y19555000D03*
X-6000000Y13985000D03*
X-7500000Y13985000D03*
D10*
G36*
X-13805823Y33788699D02*
X-14079439Y34540453D01*
X-13327685Y34814069D01*
X-13054069Y34062315D01*
X-13805823Y33788699D01*
X-13805823Y33788699D01*
G37*
G36*
X-12302315Y34335931D02*
X-12575931Y35087685D01*
X-11824177Y35361301D01*
X-11550561Y34609547D01*
X-12302315Y34335931D01*
X-12302315Y34335931D01*
G37*
G36*
X12250561Y34074547D02*
X12524177Y34826301D01*
X13275931Y34552685D01*
X13002315Y33800931D01*
X12250561Y34074547D01*
X12250561Y34074547D01*
G37*
G36*
X13754069Y33527315D02*
X14027685Y34279069D01*
X14779439Y34005453D01*
X14505823Y33253699D01*
X13754069Y33527315D01*
X13754069Y33527315D01*
G37*
D14*
X27510000Y-28575000D03*
X-27875000Y-28750000D03*
D15*
X-5955000Y17955000D03*
X-7656800Y17955000D03*
X-7656800Y15669000D03*
X-5955000Y15669000D03*
D16*
X-3585000Y23435000D03*
X-3585000Y22635000D03*
X-3585000Y21835000D03*
X-3585000Y21035000D03*
X-3585000Y20235000D03*
X-3585000Y19435000D03*
X-3585000Y18635000D03*
X-3585000Y17835000D03*
D17*
X-2135000Y16385000D03*
X-1335000Y16385000D03*
X-535000Y16385000D03*
X265000Y16385000D03*
X1065000Y16385000D03*
X1865000Y16385000D03*
X2665000Y16385000D03*
X3465000Y16385000D03*
D16*
X4915000Y17835000D03*
X4915000Y18635000D03*
X4915000Y19435000D03*
X4915000Y20235000D03*
X4915000Y21035000D03*
X4915000Y21835000D03*
X4915000Y22635000D03*
X4915000Y23435000D03*
D17*
X3465000Y24885000D03*
X2665000Y24885000D03*
X1865000Y24885000D03*
X1065000Y24885000D03*
X265000Y24885000D03*
X-535000Y24885000D03*
X-1335000Y24885000D03*
X-2135000Y24885000D03*
D12*
X-13235000Y-2430000D03*
X-13235000Y-3930000D03*
D10*
G36*
X-17005381Y-7631142D02*
X-16086142Y-8550381D01*
X-16581117Y-9045356D01*
X-17500356Y-8126117D01*
X-17005381Y-7631142D01*
X-17005381Y-7631142D01*
G37*
G36*
X-18348883Y-8974644D02*
X-17429644Y-9893883D01*
X-17924619Y-10388858D01*
X-18843858Y-9469619D01*
X-18348883Y-8974644D01*
X-18348883Y-8974644D01*
G37*
D18*
X-5915000Y29075000D03*
X-7815000Y29075000D03*
X5390000Y29285000D03*
X7290000Y29285000D03*
D19*
X-28495000Y-825000D03*
X-28495000Y3175000D03*
X-37405000Y3175000D03*
X-37405000Y-825000D03*
D10*
G36*
X-23021357Y4821946D02*
X-23594934Y4002794D01*
X-26134305Y5780880D01*
X-25560728Y6600032D01*
X-23021357Y4821946D01*
X-23021357Y4821946D01*
G37*
G36*
X-20727051Y8098554D02*
X-21300628Y7279402D01*
X-23839999Y9057488D01*
X-23266422Y9876640D01*
X-20727051Y8098554D01*
X-20727051Y8098554D01*
G37*
G36*
X-28025695Y13209120D02*
X-28599272Y12389968D01*
X-31138643Y14168054D01*
X-30565066Y14987206D01*
X-28025695Y13209120D01*
X-28025695Y13209120D01*
G37*
G36*
X-30320001Y9932512D02*
X-30893578Y9113360D01*
X-33432949Y10891446D01*
X-32859372Y11710598D01*
X-30320001Y9932512D01*
X-30320001Y9932512D01*
G37*
G36*
X-24058614Y1384681D02*
X-24317433Y2350606D01*
X-21323062Y3152945D01*
X-21064243Y2187020D01*
X-24058614Y1384681D01*
X-24058614Y1384681D01*
G37*
G36*
X-23023337Y-2479022D02*
X-23282156Y-1513097D01*
X-20287785Y-710758D01*
X-20028966Y-1676683D01*
X-23023337Y-2479022D01*
X-23023337Y-2479022D01*
G37*
G36*
X-14416938Y-172945D02*
X-14675757Y792980D01*
X-11681386Y1595319D01*
X-11422567Y629394D01*
X-14416938Y-172945D01*
X-14416938Y-172945D01*
G37*
G36*
X-15452215Y3690758D02*
X-15711034Y4656683D01*
X-12716663Y5459022D01*
X-12457844Y4493097D01*
X-15452215Y3690758D01*
X-15452215Y3690758D01*
G37*
G36*
X-20706702Y-9649969D02*
X-20880350Y-10634777D01*
X-23933254Y-10096467D01*
X-23759606Y-9111659D01*
X-20706702Y-9649969D01*
X-20706702Y-9649969D01*
G37*
G36*
X-20012109Y-5710738D02*
X-20185757Y-6695546D01*
X-23238661Y-6157236D01*
X-23065013Y-5172428D01*
X-20012109Y-5710738D01*
X-20012109Y-5710738D01*
G37*
G36*
X-28786746Y-4163533D02*
X-28960394Y-5148341D01*
X-32013298Y-4610031D01*
X-31839650Y-3625223D01*
X-28786746Y-4163533D01*
X-28786746Y-4163533D01*
G37*
G36*
X-29481339Y-8102764D02*
X-29654987Y-9087572D01*
X-32707891Y-8549262D01*
X-32534243Y-7564454D01*
X-29481339Y-8102764D01*
X-29481339Y-8102764D01*
G37*
D20*
X-14670000Y-14450000D03*
X-18670000Y-14450000D03*
X-18670000Y-23360000D03*
X-14670000Y-23360000D03*
D10*
G36*
X-5414484Y-18326836D02*
X-6121591Y-19033943D01*
X-8313622Y-16841912D01*
X-7606515Y-16134805D01*
X-5414484Y-18326836D01*
X-5414484Y-18326836D01*
G37*
G36*
X-2586057Y-15498409D02*
X-3293164Y-16205516D01*
X-5485195Y-14013485D01*
X-4778088Y-13306378D01*
X-2586057Y-15498409D01*
X-2586057Y-15498409D01*
G37*
G36*
X-8886378Y-9198088D02*
X-9593485Y-9905195D01*
X-11785516Y-7713164D01*
X-11078409Y-7006057D01*
X-8886378Y-9198088D01*
X-8886378Y-9198088D01*
G37*
G36*
X-11714805Y-12026515D02*
X-12421912Y-12733622D01*
X-14613943Y-10541591D01*
X-13906836Y-9834484D01*
X-11714805Y-12026515D01*
X-11714805Y-12026515D01*
G37*
D19*
X-2110000Y-13355000D03*
X-2110000Y-17355000D03*
X6800000Y-17355000D03*
X6800000Y-13355000D03*
D10*
G36*
X15731836Y-19499484D02*
X16438943Y-20206591D01*
X14246912Y-22398622D01*
X13539805Y-21691515D01*
X15731836Y-19499484D01*
X15731836Y-19499484D01*
G37*
G36*
X12903409Y-16671057D02*
X13610516Y-17378164D01*
X11418485Y-19570195D01*
X10711378Y-18863088D01*
X12903409Y-16671057D01*
X12903409Y-16671057D01*
G37*
G36*
X6603088Y-22971378D02*
X7310195Y-23678485D01*
X5118164Y-25870516D01*
X4411057Y-25163409D01*
X6603088Y-22971378D01*
X6603088Y-22971378D01*
G37*
G36*
X9431515Y-25799805D02*
X10138622Y-26506912D01*
X7946591Y-28698943D01*
X7239484Y-27991836D01*
X9431515Y-25799805D01*
X9431515Y-25799805D01*
G37*
G36*
X17686836Y-5984484D02*
X18393943Y-6691591D01*
X16201912Y-8883622D01*
X15494805Y-8176515D01*
X17686836Y-5984484D01*
X17686836Y-5984484D01*
G37*
G36*
X14858409Y-3156057D02*
X15565516Y-3863164D01*
X13373485Y-6055195D01*
X12666378Y-5348088D01*
X14858409Y-3156057D01*
X14858409Y-3156057D01*
G37*
G36*
X8558088Y-9456378D02*
X9265195Y-10163485D01*
X7073164Y-12355516D01*
X6366057Y-11648409D01*
X8558088Y-9456378D01*
X8558088Y-9456378D01*
G37*
G36*
X11386515Y-12284805D02*
X12093622Y-12991912D01*
X9901591Y-15183943D01*
X9194484Y-14476836D01*
X11386515Y-12284805D01*
X11386515Y-12284805D01*
G37*
D19*
X18145000Y-10650000D03*
X18145000Y-14650000D03*
X27055000Y-14650000D03*
X27055000Y-10650000D03*
D10*
G36*
X20513643Y-2668054D02*
X19940066Y-3487206D01*
X17400695Y-1709120D01*
X17974272Y-889968D01*
X20513643Y-2668054D01*
X20513643Y-2668054D01*
G37*
G36*
X22807949Y608554D02*
X22234372Y-210598D01*
X19695001Y1567488D01*
X20268578Y2386640D01*
X22807949Y608554D01*
X22807949Y608554D01*
G37*
G36*
X15509305Y5719120D02*
X14935728Y4899968D01*
X12396357Y6678054D01*
X12969934Y7497206D01*
X15509305Y5719120D01*
X15509305Y5719120D01*
G37*
G36*
X13214999Y2442512D02*
X12641422Y1623360D01*
X10102051Y3401446D01*
X10675628Y4220598D01*
X13214999Y2442512D01*
X13214999Y2442512D01*
G37*
D19*
X22615000Y-2580000D03*
X22615000Y-6580000D03*
X31525000Y-6580000D03*
X31525000Y-2580000D03*
D20*
X1875000Y-21025000D03*
X-2125000Y-21025000D03*
X-2125000Y-29935000D03*
X1875000Y-29935000D03*
D21*
X-25609485Y-14515000D03*
X-13744936Y-7665000D03*
X-18510000Y-4411668D03*
D22*
X26900000Y7280000D03*
X26900000Y2780000D03*
X34900000Y2780000D03*
X34900000Y7280000D03*
D23*
X-8491937Y43475556D03*
X-10287986Y41679504D03*
X-12084038Y39883453D03*
X-13880090Y38087403D03*
D24*
X-2447557Y21030460D03*
X-352557Y19195460D03*
X-7107557Y22745460D03*
X-5542557Y27880460D03*
X4745000Y29325000D03*
X-14332557Y8755460D03*
X-9262557Y15865460D03*
X8372443Y-19284540D03*
X8457443Y-22229540D03*
X33832443Y4675460D03*
X-4922557Y21830460D03*
X-5207557Y23790460D03*
X-5477557Y33160460D03*
X15222443Y4745460D03*
X14882443Y3060460D03*
X-16417557Y4375460D03*
X-28327557Y9000460D03*
X-4732557Y20270460D03*
X-6172557Y18970460D03*
X-7732557Y16920460D03*
X-4882557Y18585460D03*
X-9010000Y29075000D03*
X-12892557Y34380460D03*
X8075000Y29265000D03*
X12085000Y34755000D03*
X3375000Y17835000D03*
X12547443Y4220460D03*
X9472443Y-16744540D03*
X4325000Y17220000D03*
X305000Y23560000D03*
X20862443Y-28044540D03*
X7797443Y22975460D03*
X-20002557Y-28724540D03*
X-11927557Y-23774540D03*
X-7487557Y-10324540D03*
X6892443Y23650460D03*
X6067443Y28125460D03*
X14365000Y34780000D03*
X5187443Y12460460D03*
X-13392557Y-16194540D03*
X2667443Y17715460D03*
X-3470000Y24150000D03*
X-15587557Y-5189540D03*
X-8552557Y12915460D03*
X-17317557Y-11289540D03*
X-1987557Y22225460D03*
X-30742557Y-659540D03*
X-22327557Y13685460D03*
X-8612557Y21825460D03*
X-8187557Y23170460D03*
X-5192557Y26020460D03*
X-10537557Y19475460D03*
X-15917557Y-364540D03*
X-20322557Y-8104540D03*
X-4822557Y19330460D03*
X-19192557Y-6844540D03*
X-19507557Y-11359540D03*
X-17557557Y-13979540D03*
X-13782557Y6925460D03*
X-452557Y13665460D03*
X-7312557Y-12799540D03*
X4652443Y-10784540D03*
X4452443Y11930460D03*
X6262443Y19440460D03*
X6657443Y17870460D03*
X18217443Y-9249540D03*
X8952443Y22185460D03*
X-372557Y26470460D03*
X-2022557Y27300460D03*
X-12292557Y41360460D03*
X-4802557Y28340460D03*
D25*
X-3585000Y21035000D02*
X-2447557Y21030460D01*
X-352557Y19195460D02*
X4915000Y18635000D01*
X-5780000Y20350000D02*
X-6592557Y21005460D01*
X-6592557Y21005460D02*
X-7107557Y22745460D01*
X-3585000Y21035000D02*
X-4877557Y21030460D01*
X-4877557Y21030460D02*
X-5517557Y20810460D01*
X-5517557Y20810460D02*
X-5780000Y20350000D01*
X-5915000Y29075000D02*
X4745000Y29325000D01*
X9140000Y18750000D02*
X4915000Y18635000D01*
X-5542557Y27880460D02*
X-5915000Y29075000D01*
X5390000Y29285000D02*
X4745000Y29325000D01*
X-8491937Y43475556D02*
X-10752557Y43150460D01*
X-10752557Y43150460D02*
X-13882557Y41610460D01*
X-13882557Y41610460D02*
X-13880090Y38087403D01*
X-14372557Y35959691D02*
X-14662557Y34210460D01*
X-14662557Y34210460D02*
X-14232557Y32750460D01*
X-14232557Y32750460D02*
X-5477557Y33160460D01*
X-13880090Y38087403D02*
X-14372557Y35959691D01*
X-14372557Y35959691D02*
X-14432557Y35700460D01*
X6800000Y-17355000D02*
X6800000Y-13355000D01*
X10644053Y-13734374D02*
X6800000Y-13355000D01*
X34900000Y2780000D02*
X31525000Y-2580000D01*
X31525000Y-2580000D02*
X31525000Y-6580000D01*
X31525000Y-6580000D02*
X27055000Y-10650000D01*
X27055000Y-10650000D02*
X27055000Y-14650000D01*
X27055000Y-14650000D02*
X22817443Y-20034540D01*
X22817443Y-20034540D02*
X11597443Y-26654540D01*
X11597443Y-26654540D02*
X8689053Y-27249374D01*
X-14779784Y8585311D02*
X-14332557Y8755460D01*
X-9262557Y15865460D02*
X-9318025Y15679204D01*
X-7656800Y15669000D02*
X-9318025Y15679204D01*
X-9318025Y15679204D02*
X-9522557Y15680460D01*
X-14084439Y4574890D02*
X-15197557Y6880460D01*
X-15197557Y6880460D02*
X-14779784Y8585311D01*
X-14779784Y8585311D02*
X-14702557Y8900460D01*
X-13235000Y-2430000D02*
X-11762557Y-2964540D01*
X-11762557Y-2964540D02*
X-10335947Y-8455626D01*
X-13235000Y-2430000D02*
X-13049162Y711187D01*
X-18670000Y-23360000D02*
X-28607557Y-16334540D01*
X-28607557Y-16334540D02*
X-31094615Y-8326013D01*
X8689053Y-27249374D02*
X1875000Y-29935000D01*
X5860626Y-24420947D02*
X8689053Y-27249374D01*
X6800000Y-17355000D02*
X8372443Y-19284540D01*
X8457443Y-22229540D02*
X5860626Y-24420947D01*
X6800000Y-13355000D02*
X7815626Y-10905947D01*
X33832443Y4675460D02*
X34900000Y2780000D01*
X33832443Y4675460D02*
X34900000Y7280000D01*
X1865000Y16385000D02*
X1792443Y17785460D01*
X1792443Y17785460D02*
X817443Y18365460D01*
X817443Y18365460D02*
X-737557Y18490460D01*
X-737557Y18490460D02*
X-1257557Y19415460D01*
X-1257557Y19415460D02*
X-1719510Y20736997D01*
X-1330351Y21086783D02*
X4915000Y21035000D01*
X-3585000Y21835000D02*
X-2407557Y21705460D01*
X-2407557Y21705460D02*
X-1557557Y21465460D01*
X-1557557Y21465460D02*
X-1330351Y21086783D01*
X-1330351Y21086783D02*
X-1302557Y21040460D01*
X-1302557Y21040460D02*
X-1719510Y20736997D01*
X-1719510Y20736997D02*
X-2147557Y20425460D01*
X-2147557Y20425460D02*
X-3585000Y20235000D01*
X-5780000Y21850000D02*
X-3585000Y21835000D01*
X-4922557Y21830460D02*
X-5780000Y21850000D01*
X-5477557Y33160460D02*
X-7082557Y30420460D01*
X-7082557Y30420460D02*
X-6897557Y29265460D01*
X-6897557Y29265460D02*
X-7032557Y26790460D01*
X-7032557Y26790460D02*
X-6947557Y25280460D01*
X-6947557Y25280460D02*
X-5207557Y23790460D01*
X-5477557Y33160460D02*
X-5517557Y33125460D01*
X13952831Y6198587D02*
X15222443Y4745460D01*
X11658525Y2921979D02*
X14882443Y3060460D01*
X9140000Y20250000D02*
X7300000Y21425000D01*
X7300000Y21425000D02*
X6247443Y21085460D01*
X6247443Y21085460D02*
X4915000Y21035000D01*
X-14670000Y-23360000D02*
X-18670000Y-23360000D01*
X-2125000Y-29935000D02*
X-14670000Y-23360000D01*
X1875000Y-29935000D02*
X-2125000Y-29935000D01*
X-13164374Y-11284053D02*
X-15472557Y-12264540D01*
X-15472557Y-12264540D02*
X-17542557Y-12294540D01*
X-17542557Y-12294540D02*
X-21257557Y-12349540D01*
X-21257557Y-12349540D02*
X-26872557Y-10279540D01*
X-26872557Y-10279540D02*
X-31094615Y-8326013D01*
X-13164374Y-11284053D02*
X-10335947Y-8455626D01*
X-14084439Y4574890D02*
X-16417557Y4375460D01*
X-13049162Y711187D02*
X-14084439Y4574890D01*
X-31876475Y10411979D02*
X-28327557Y9000460D01*
X-31876475Y10411979D02*
X-29582169Y13688587D01*
X-37405000Y3175000D02*
X-31876475Y10411979D01*
X-37405000Y-825000D02*
X-37405000Y3175000D01*
X-30400022Y-4386782D02*
X-37405000Y-825000D01*
X-30400022Y-4386782D02*
X-31094615Y-8326013D01*
X-3585000Y20235000D02*
X-4732557Y20270460D01*
X-6172557Y18970460D02*
X-6437557Y18855460D01*
X-7240000Y19555000D02*
X-6437557Y18855460D01*
X-6437557Y18855460D02*
X-5955000Y17955000D01*
X-7500000Y13985000D02*
X-7656800Y15669000D01*
X-5955000Y17955000D02*
X-6712557Y16850460D01*
X-6712557Y16850460D02*
X-7656800Y15669000D01*
X1875000Y-29935000D02*
X-2125000Y-29935000D01*
X4915000Y20235000D02*
X6612443Y20265460D01*
X6612443Y20265460D02*
X7300000Y19925000D01*
X-7656800Y17955000D02*
X-7732557Y16920460D01*
X-4882557Y18585460D02*
X-3585000Y18635000D01*
X-8740000Y19555000D02*
X-7656800Y17955000D01*
X-6000000Y13985000D02*
X-5955000Y15669000D01*
X-5955000Y15669000D02*
X-3585000Y17835000D01*
X-7815000Y29075000D02*
X-9010000Y29075000D01*
X-12892557Y34380460D02*
X-13566754Y34301384D01*
X7290000Y29285000D02*
X8075000Y29265000D01*
X12085000Y34755000D02*
X12763246Y34313616D01*
X3375000Y17835000D02*
X3465000Y16385000D01*
X1875000Y-21025000D02*
X-2125000Y-21025000D01*
X4915000Y17835000D02*
X7202443Y10575460D01*
X7202443Y10575460D02*
X10742443Y5810460D01*
X10742443Y5810460D02*
X12547443Y4220460D01*
X9472443Y-16744540D02*
X8922443Y-20399540D01*
X8922443Y-20399540D02*
X1875000Y-21025000D01*
X4915000Y17835000D02*
X4325000Y17220000D01*
X305000Y23560000D02*
X265000Y24885000D01*
X27510000Y-28575000D02*
X20862443Y-28044540D01*
X7797443Y22975460D02*
X4915000Y22635000D01*
X-27875000Y-28750000D02*
X-20002557Y-28724540D01*
X-11927557Y-23774540D02*
X-7487557Y-10324540D01*
X6892443Y23650460D02*
X4915000Y23435000D01*
X-13235000Y-3930000D02*
X-13744936Y-7665000D01*
X-16793249Y-8338249D02*
X-13744936Y-7665000D01*
X-12084038Y39883453D02*
X-10900000Y39200000D01*
X-4835000Y40795000D02*
X-10450000Y39900000D01*
X-1335000Y24885000D02*
X-1230000Y26445000D01*
X-1230000Y26445000D02*
X-815000Y27360000D01*
X-815000Y27360000D02*
X865000Y28490000D01*
X865000Y28490000D02*
X6067443Y28125460D01*
X14365000Y34780000D02*
X13997443Y34730460D01*
X13997443Y34730460D02*
X13997443Y34730459D01*
X14266754Y33766384D02*
X13997443Y34730459D01*
X13997443Y34730459D02*
X13045000Y38140000D01*
X13045000Y38140000D02*
X11395000Y40120000D01*
X11395000Y40120000D02*
X5085000Y41015000D01*
X5085000Y41015000D02*
X-730000Y41045000D01*
X-730000Y41045000D02*
X-4835000Y40795000D01*
X-10450000Y39900000D02*
X-10900000Y39200000D01*
X-10900000Y39200000D02*
X-12063246Y34848616D01*
X2665000Y16385000D02*
X2787443Y14430460D01*
X2787443Y14430460D02*
X2947443Y14015460D01*
X2947443Y14015460D02*
X4867443Y12825460D01*
X4867443Y12825460D02*
X5187443Y12460460D01*
X-13392557Y-16194540D02*
X-13967557Y-16764540D01*
X-13967557Y-16764540D02*
X-17317557Y-17104540D01*
X-17317557Y-17104540D02*
X-23337557Y-16609540D01*
X-23337557Y-16609540D02*
X-25609485Y-14515000D01*
X2665000Y16385000D02*
X2667443Y17715460D01*
X-3470000Y24150000D02*
X-3585000Y23435000D01*
X-2135000Y16385000D02*
X-1335000Y16385000D01*
X-18136751Y-9681751D02*
X-18822557Y-8199540D01*
X-18822557Y-8199540D02*
X-15587557Y-5189540D01*
X-8552557Y12915460D02*
X-4427557Y12995460D01*
X-4427557Y12995460D02*
X-2135000Y16385000D01*
X-18136751Y-9681751D02*
X-17317557Y-11289540D01*
X-28495000Y-825000D02*
X-28495000Y3175000D01*
X1065000Y24885000D02*
X1052443Y23425460D01*
X1052443Y23425460D02*
X912443Y23075460D01*
X912443Y23075460D02*
X312443Y22845460D01*
X312443Y22845460D02*
X-1987557Y22225460D01*
X-30742557Y-659540D02*
X-28495000Y-825000D01*
X-22283525Y8578021D02*
X-22327557Y13685460D01*
X-8612557Y21825460D02*
X-8177557Y23170460D01*
X-8177557Y23170460D02*
X-8187557Y23170460D01*
X-5192557Y26020460D02*
X-2135000Y24885000D01*
X-24577831Y5301413D02*
X-22283525Y8578021D01*
X-3585000Y22635000D02*
X-4792557Y22650460D01*
X-4792557Y22650460D02*
X-5397557Y23145460D01*
X-5397557Y23145460D02*
X-8072557Y24005460D01*
X-8072557Y24005460D02*
X-9807557Y22875460D01*
X-9807557Y22875460D02*
X-10537557Y19475460D01*
X-15917557Y-364540D02*
X-21655561Y-1594890D01*
X-21655561Y-1594890D02*
X-22690838Y2268813D01*
X-20322557Y-8104540D02*
X-22008112Y-8104540D01*
X-22008112Y-8104540D02*
X-22008112Y-8104539D01*
X-22319978Y-9873218D02*
X-22008112Y-8104539D01*
X-22008112Y-8104539D02*
X-21625385Y-5933987D01*
X-3585000Y19435000D02*
X-4822557Y19330460D01*
X-22252557Y-8759540D02*
X-22319978Y-9873218D01*
X-19192557Y-6844540D02*
X-19572557Y-8214540D01*
X-19572557Y-8214540D02*
X-19507557Y-10444540D01*
X-19507557Y-10444540D02*
X-19507557Y-11359540D01*
X-17557557Y-13979540D02*
X-17372557Y-14450000D01*
X-2497557Y13140460D02*
X-4487557Y12070460D01*
X-4487557Y12070460D02*
X-13782557Y6925460D01*
X-535000Y16385000D02*
X-607557Y14845460D01*
X-607557Y14845460D02*
X-2497557Y13140460D01*
X-14670000Y-14450000D02*
X-17372557Y-14450000D01*
X-17372557Y-14450000D02*
X-18670000Y-14450000D01*
X-452557Y13665460D02*
X247443Y14865460D01*
X247443Y14865460D02*
X265000Y16385000D01*
X-5273388Y-15993709D02*
X-7312557Y-12799540D01*
X-6864053Y-17584374D02*
X-5273388Y-15993709D01*
X-5273388Y-15993709D02*
X-4035626Y-14755947D01*
X-2110000Y-13355000D02*
X-412557Y-11619540D01*
X-412557Y-11619540D02*
X4652443Y-10784540D01*
X4452443Y11930460D02*
X1242443Y13960460D01*
X1242443Y13960460D02*
X1065000Y16385000D01*
X-2110000Y-13355000D02*
X-2110000Y-17355000D01*
X12160947Y-18120626D02*
X14989374Y-20949053D01*
X16944374Y-7434053D02*
X14115947Y-4605626D01*
X16944374Y-7434053D02*
X15482443Y3520460D01*
X4915000Y19435000D02*
X6262443Y19440460D01*
X6657443Y17870460D02*
X9437443Y8900460D01*
X9437443Y8900460D02*
X11512443Y6485460D01*
X11512443Y6485460D02*
X14812443Y4270460D01*
X14812443Y4270460D02*
X15482443Y3520460D01*
X18217443Y-9249540D02*
X18145000Y-10650000D01*
X4915000Y21835000D02*
X6092443Y21800460D01*
X6092443Y21800460D02*
X6682443Y22250460D01*
X6682443Y22250460D02*
X7362443Y22280460D01*
X7362443Y22280460D02*
X8317443Y22230460D01*
X8317443Y22230460D02*
X9072443Y22190460D01*
X9072443Y22190460D02*
X8952443Y22185460D01*
X18145000Y-10650000D02*
X18145000Y-14650000D01*
X21251475Y1088021D02*
X23942443Y7205460D01*
X23942443Y7205460D02*
X24652443Y12760460D01*
X24652443Y12760460D02*
X21947443Y17615460D01*
X21947443Y17615460D02*
X21337443Y18265460D01*
X21337443Y18265460D02*
X20527443Y18815460D01*
X20527443Y18815460D02*
X19052443Y19680460D01*
X19052443Y19680460D02*
X12822443Y22250460D01*
X12822443Y22250460D02*
X5242443Y25355460D01*
X5242443Y25355460D02*
X3777443Y25875460D01*
X3777443Y25875460D02*
X3472443Y25800460D01*
X3472443Y25800460D02*
X3465000Y24885000D01*
X21251475Y1088021D02*
X18957169Y-2188587D01*
X2665000Y24885000D02*
X2692443Y26125460D01*
X2692443Y26125460D02*
X2992443Y26615460D01*
X2992443Y26615460D02*
X3997443Y26535460D01*
X3997443Y26535460D02*
X6522443Y25885460D01*
X6522443Y25885460D02*
X17662443Y21655460D01*
X17662443Y21655460D02*
X22022443Y18525460D01*
X22022443Y18525460D02*
X25262443Y13995460D01*
X25262443Y13995460D02*
X25237443Y9920460D01*
X25237443Y9920460D02*
X24727443Y2455460D01*
X24727443Y2455460D02*
X22615000Y-2580000D01*
X22615000Y-2580000D02*
X22615000Y-6580000D01*
X26900000Y7280000D02*
X26900000Y2780000D01*
X1865000Y24885000D02*
X1912443Y26280460D01*
X1912443Y26280460D02*
X2502443Y27225460D01*
X2502443Y27225460D02*
X4457443Y27165460D01*
X4457443Y27165460D02*
X7447443Y26610460D01*
X7447443Y26610460D02*
X18917443Y22145460D01*
X18917443Y22145460D02*
X25502443Y16900460D01*
X25502443Y16900460D02*
X27392443Y11345460D01*
X27392443Y11345460D02*
X26900000Y7280000D01*
X-535000Y24885000D02*
X-532557Y26160460D01*
X-532557Y26160460D02*
X-372557Y26470460D01*
X-2022557Y27300460D02*
X-2184790Y27454749D01*
X-2184790Y27454749D02*
X-2184791Y27454750D01*
X-10287986Y41679504D02*
X-12292557Y41360460D01*
X-4802557Y28340460D02*
X-2184791Y27454750D01*
X-2184791Y27454750D02*
X-2142557Y27440460D01*
M02*
